<?xml version="1.0" encoding="UTF-8"?>
<svg id="Layer_1" data-name="Layer 1" xmlns="http://www.w3.org/2000/svg" viewBox="0 0 1974.45 1767.55">
  <path d="M1646.34,1162.63c.17.26.35.52.52.78.33.52.66,1.06.96,1.63.48.91,1.65,1.18,2.47.56,4.12-3.11,8.73-7.16,13-10.07.74-.51.93-1.52.43-2.26v-.02c-.07-.09-.12-.16-.16-.22-.02-.02-.05-.05-.08-.09-.21-.24-.41-.48-.63-.72h0c-.75-.11-1.26-.18-2.01-.28l-13.95,8.32-.54,2.37Z" style="fill: #3f2c22;"/>
  <path d="M1723.3,1604.4c4.89-42.86-1.9-85.82-4.21-128.65-4.42-82.18-1.33-162.73-41.28-237.23-26.46-49.32-58.11-83.32-93.57-126.38-.96-1.17-4.52-5.51-6.73-8.97-1.71-.45-3.27-1.69-3.54-3.45-.06-.38-.14-.74-.25-1.1-.05-.08-.2-.43-.3-.6-.37-.66-.8-1.3-1.22-1.93-1.06-1.6-1.98-3.2-2.57-5.04-.19-.6-.24-1.21-.17-1.81-4.2-8.64-10.16-16.44-13.76-25.42-19.36-48.36,1.67-131.31,5.6-184.26,1.8-24.17,2.51-48.42,4.19-72.66,2.84-40.97,1.79-89.49,9.33-129.8,1.47-7.88,8.43-16.55,5.19-27.01-4.09-.6-4.91,1.04-5.68,4.69-1.89,9.04-5.02,17.62-6.58,25.62-7.07,36.37-2.2,73.9-9.08,110.34-11.73,8.63-23.3,17.87-35.75,25.52-62.42,38.36-136.87,62.55-199.35,99.72-.97.58-2.39,1.56-3.76,2.03-.01.05-.01.11-.03.16-.32,1.16-1.22,2.42-2.3,2.99-.11.06-.22.14-.32.21-.21.19-.42.4-.63.6-.09.39-.21.77-.38,1.13l2.92,2.92,238.09-124.32c4.09,14.5-.74,28.87-1.27,42.94-.65,17.45.9,35.95-.83,53.61-2.69,27.59-12.03,60.29-13.85,87.52-.39,5.8,3.04,15.3,2.93,20.98-.21,10.37-3.31,19.32-1.33,32.58,3.46,23.15,24.17,63.08,40,81.5,81.39,94.73,103.04,134.38,119.75,261.37,8.8,66.89,16.96,157.5,12.53,224.4-1.22,18.37-6.59,38.48-8.38,57.02,12.2.97,6.2-6.58,7.13-12.55,2.37-15.14,7.63-30.79,9.44-46.66Z" style="fill: #3f2c22;"/>
  <path d="M1653.84,1123.54c-2.55-2.08-7.21-4.5-8.85-7.57-.57-.1-1.12-.28-1.61-.58-1.16-.71-2.15-1.62-2.83-2.81-.34-.59-.57-1.23-.83-1.86-.06-.14-.12-.27-.17-.37-.03-.05-.05-.09-.07-.12-.1-.17-.21-.35-.32-.52-.08-.07-.54-.63-.57-.67-.19-.22-.36-.44-.55-.66l-.9.67c-2.66-4.85-19.16-27.22-19.88-33.8-.56-.4-1.04-.9-1.38-1.49-.5-.85-1.04-1.68-1.57-2.51,0,.14-.02.27-.02.42-5.84-7.57-11.13-15.53-15.29-24.17-22.9-47.57-9.11-93.59-2.59-143.23,1.45-11.03.85-24.52,2.38-35,.21-1.41,9.21-16.22-1.12-11.5-6.83,3.12-5.34,33.21-6.51,41.77-5.2,37.96-17.92,94.74-7.09,131.74,4.8,16.41,15.54,27.64,20.98,43.18,1.54,1.77,2.83,3.73,4.05,5.86.24.42.39.86.5,1.3,11.2,15.42,21.38,31.43,35.79,44.12,16.7,14.71,35.58,27.86,52.04,43.49,3.07,2.92,16.37,23.46,21.73,18.75l-17.61-22.86c-13.96-16.5-31.3-28.18-47.71-41.59Z" style="fill: #3f2c22;"/>
  <path d="M1820.22,1170.33c1.67-1.74,3.41-3.44,3.82-6,.3-1.88-1.88-3.19-3.41-2.06-5.14,3.81-13.65,15.8-15.3,17.24-4,3.48-7.4-1.43-5.44,8.51.18.93-.24,1.91-1.09,2.34-5.17,2.63-10.24,1.27-15.07,1.87-20.15,2.5-67.93,6.95-87.38,1.42-8.16-2.32-18.14-9.72-26.11-15,.1.14-.58.48-.48.63.38.58.69,1.23.99,1.88.12.26.3.49.5.69,1.4,1.41,1.98,3.77,1.42,5.93-.07.26-.16.49-.27.71,8.54,1.89,16.82,8.85,24.68,11.47,22.33,7.47,42.39-1.49,64.71-.64,18.73.71,32.84,2.69,50.22-9.59,4.6-3.25,7.25-7.52,11.32-10.77.71-.56.97-1.52.67-2.37l-.39-1.13c-.29-.84-1.05-1.41-1.94-1.46h0c-1.85-.09-2.74-2.32-1.46-3.66Z" style="fill: #3f2c22;"/>
  <path d="M1967.27,1482.18c-.03-.17-.06-.33-.07-.49-.12-.08-.23-.15-.34-.23-15.73,18.07-31.86,35.63-48.5,52.14-21.15,20.98-44.99,39.55-66.28,60.42-10.18,4.73-22.7-10.48-31.69-13.93-15.19-5.83-53.93,6.13-70.02,10.84.08-10.04-.15-20.13-.12-30.19.2-76.08,6.34-148.8,17.07-223.87,1.24-8.71,6.02-21.97,6.04-29.59.01-3.8-3.93-2.6-4.33-4.35-6.13-26.81,88.42-172.55,106.76-204.45,12.35-21.49,31.26-51.99,39.15-75.26,5.66-16.69,1.75-40,1.97-58.48.77-62.6-1.22-126.26-4.51-189.09-2.05-39.06-5.02-78.52-10.43-117.23,1.25-.97,13.08,5.53,10.36-1.03-1.36-3.29-20.06-19.64-24.18-21.52-12.27-5.6-30.29-8.21-43.47-10.55-39.95-7.1-79.61-10.72-120.19-10.63-15.1.03-29.68,2.68-44.75,2.16,4.18-12.43-.42-22.79-.02-35.29l-8.47,3.45c5.88,20.64,9.15,32.41-16.43,36-.91-11.1-3.5-20.03-.02-31.14l-10.37,3.17c2.45,6.13,8,22.57,2.13,26.98-1.87,1.41-23.65,6.3-29.07,8.32-6.6,2.46-12.88,6.66-19.67,9.4-6.26,2.53-13.71.57-17.76,7.18-.76,3.73,4.38,4.31,6.25,6.73,4.77,6.15,7.83,17.73,14.45,20.3,7.98,3.1,17.94,1.78,25.56,3.52,65.53,14.91,146,19.52,211.75,1.43,7.82-2.15,18.82-7.88,30.29-7.45l27.37-15.19c-.94,9.13,2.08,17.78,2.96,26.69,6.31,63.55,9.25,128.2,11.68,192.32,2.12,55.92,7.75,141.01-20.5,189.44-2.09,3.59-7.36,13.19-11.42,17.42-.91,3.76-3.2,7.28-5.79,9.98-.16.17-.33.32-.5.46l-93.11,160.42c-42.15,100.51-29.62,215.77-37.03,324.36-.87,12.72-3.04,27.09-5.89,39.56l4.68,2.9,5.38-4.02v29.08c5.19.34,3.57.52,4.1-3.12,2.17-14.72,2.27-29.59,2.35-44.43,11.94-.23,25.53-6.71,36.24-8.41,4.09-.65,19.05-2.02,22.84-1.91,5.13.16,33.26,15.73,31.12,20.5-3.32,6.94-21.62,4.63-18.98,14.56,4.21,9.48,13.42,9.14,13.77-2.14,8.32,5.83,11.85-6.25,16.64-3.17,2.12,1.37,14.75,25.68,15.97,29.73,16.07,53.24-30.05,92.14-74.83,108.86-38.48,14.37-105.29,5.84-143.79-8.63-5.21-1.96-23.82-11.19-27.05-14.49-5.13-5.24-14.23-35.75-12.49-43.73,1.6-7.32,10.86-21.94,15.73-28.06,17.84-22.43,53.76-53.7,83.09-55.04l-.29-6.99-4.88-3.45c-7.24,5.23-15.69,6.09-23.27,10.06-21.39,11.18-62.16,48.9-73.03,70.28-2.16,4.25-6.71,15.64-6.15,19.96.49,3.75,7.29,26.28,8.99,30.56,5.67,14.26,27.3,24.33,41.47,29.15,47.05,15.98,116.53,22.77,161.78-.26,45-22.9,74.06-57.01,61.05-110.41-3.08-12.65-18.91-26.33-21.53-36.81-2.57-10.27,21.24-24.45,28.21-31.16-1.69,13.19-37.5,23.75-10.59,30.99.72-2.93,2.21-5.03,4.28-7.17,22.35-23.18,47.27-44.06,69.71-67.4,9.34-9.72,18.56-21.18,27.82-32.18-2.67-5.34-5.99-10.45-7.18-16.37ZM1888.85,650.56c-26,18.09-94.78,29.4-127,30.78-45.32,1.94-90.9-3.15-133.85-13.36-17.23-4.09-30.36,2.24-35.46-20.88.75-3.37,44.44-20.24,50.95-19.99,4.73.18,8.28,4.79,10.21,4.3.82-.21,6.23-9.68,13.53-8.33-3.42,15.3-16.04,28.55-8.32,44.31l6.27,1.36c-8.59-7,8.32-42.59,12.86-45.26,3.74-2.21,10.43,1.69,14.95,1.45,55.88-3.01,107.94-1.14,163.27,9.6,11.78,2.29,23.88,7.79,35.3,11.42,1.16,4.94-.9,3.35-2.7,4.6ZM1758.66,1337.56c4.78,2.72.82,13.87,2.04,18.67-4.79-2.89-.81-13.88-2.04-18.67ZM1924.79,1532.75c1.5-3.38,4.56-6.87,8.31-6.19-1.5,3.38-4.56,6.87-8.31,6.19ZM1941.41,1516.14l20.75-20.75c-2.72,7.81-12.94,18.03-20.75,20.75Z" style="fill: #3f2c22;"/>
  <path d="M1759.61,1139.15c-7.96.37-19.1,3.98-26.99,3.91-18.01-.17-57.37-13.21-72.8-4.9-1.76.95-3.32,4.64-6.4,6.21-1.67.85-3.61,1.1-5.5,1.35-1.23.16-1.93,1.49-1.38,2.6.39.79.78,1.58,1.14,2.38,0,0,0,.02.01.02.48,1.07,1.76,1.51,2.72.84,4.88-3.39,9.65-7.5,14.91-8.33,21.77-3.46,42.83,5.38,63.86,6.37,16.61.77,30.62-5.11,47.96-4.23,2.59.13,20.17,2.35,21.74,2.93,3.88,1.41,3.28,7.2,6.99,7.56,2.51.24,5.35-2.38,8.03-2.19,8.28.57,13.33,3,17.99,8.36.92,1.05,2.61.69,3.08-.63.4-1.13.63-2.3.57-3.43,0-.15,0-.31,0-.46l-4.21-5.02c-.19-.22-.43-.4-.69-.51-23.57-9.95-46.12-13.97-71.02-12.82Z" style="fill: #3f2c22;"/>
  <path d="M1298.33,935.6c-.21-.32-.37-.65-.48-.99-6.62,3.42-38.9,14.73-44.98,17.51-41.96,19.2-82.39,41.4-124.59,60.25-228.59,102.12-468.77,178.36-703.23,266.69-78.05,29.4-153.85,65.4-234.71,87.21l-121.97,55.61v8.31c48.98-24.29,97.51-50.06,149.49-67.55,59.16-19.91,112.1-41.99,170.32-64.37,285.35-109.67,582.58-199.1,855.28-337.29l56.99-22.2c-.71-1.06-1.41-2.12-2.12-3.18Z" style="fill: #3f2c22;"/>
  <path d="M10.86,537.99c5.95-14.09,70.59-46.8,86.93-54.42,20.8-9.69,68.3-31.14,89.7-30.81,6.41.1,12.87,4.42,19.22,5.68,23.68,4.68,43.52,11.17,66.39,16.69,19.84,4.78,27.37,2.27,46.1,16.2,20.69,15.39,20.15,44.76,37.41,58.13,12.87,9.97,45.44,9.53,51.45-8.98,1.71-5.26,5.3-23.3,4.83-28.51-.78-8.52-7.31-11.8-8.45-19.74-5,1.8-14.34,4.11-8.94,10.35,17.12-1.4,10.22,25.9,5.79,35.27-5.84,12.36-37.35,13.09-44.76.66-1.57-2.63.26-6.84-1.32-10.3-3.08-6.72-9.81-6.12-5.22-16.73,6.49-15.01,22.37-2.29,20.28-17.18-4.29-6.43-22,5.25-25.02,10.37l-3.03.02-4.09-7.32-20.86-17.57,82.74,9.22c125.55,11.74,250.99,32.07,377.21,40.68,18.99,1.29,47.54,1.26,66.52-.1,153.48-11.03,306.83-36.59,461.18-29.14l65.37,5.25c.48.24.91.55,1.29.9,3.1.41,6.19.91,9.28,1.46-.07-.43-.13-.86-.2-1.28,5.6,1.96,11.72,3.58,17.66,4.12,58.38,5.28,120.94,16.42,176.99,28.63,8.77,1.91,21.36,4.26,29.78,3.74l2.17-17.57,10.94-2.17c3.15.91,5.95,19.22,8.76,24.58,7.83,14.96,28.67,22.93,33.71,41.27,1.21,4.42-4.58,11.05,4.49,10.85,8.71-31.73-33.14-42.99-37.24-65.55-.67-3.69-2.26-13.35,4.01-11.29-.25,4.97-.34,9.26,1.58,14.01,2.87,7.1,30.65,27.7,37.95,30.6,4.2,1.67,5.39,1.71,8.21-2.03-14.14-9.92-28.61-19.58-38.94-33.47,4.18-8.99-2.77-13.93-2.64-22.48.23-15.11,8.17-38.02,9.91-54.7.51-4.85-2.09-9.67-1.42-15.83.53-4.8,4.64-10.21,4.11-14.7-.48-4.12-4.26-5.19-5.07-7.26-1.02-2.6.44-8.16-2.28-14.59-4.3-10.16-16.33-24.99-28.57-22.55-15.82,3.15-11.83,24.44-32.69,6.98-7.48-6.26-7.62-13.96-19.64-13.37-10.13.5-8.88,10.7-13.11,12.26-9.3,3.41-30.26,1.1-40.73-.18-53.96-6.64-120.65-21.16-173.12-34.57-83.42-21.32-154.54-69.43-231.31-107.22-90.54-44.57-177.34-77.7-277.22-96.62-37.83-7.17-82.11-7.38-118.3-18.78-8.04-2.53-20.94-10.39-27.91-11.61-9.05-1.58-18.07.7-29.11-4.06-12.03-5.2-7.82-11.5-13.4-17.75-2.5-2.81-9.08-5.1-12.5-8.27-8.57-7.94-47.45-44.41-50.96-51.23-3.45-6.69-.24-12.51-10.99-15.66-11.79-3.46-38.9-3.65-53.85-6.31-40.32-7.18-72.45-27.3-109.53-.41-3.27,2.37-4.17,6.48-7.65,8.97-12.64,9.04-32.2,17.24-47.93,16.35-4.5-.25-12.52-9.34-14.83,1.27,1.03,5.12,4.26,6.71,9.34,6.83,12.88.29,32.77-2.79,44.41-8.55,15.58-7.72,30.09-28.18,46.71-30.13,21.27-2.5,35.55,5.63,55.03,9.33,14.33,2.72,68.71,8.69,76.97,14.44,11.24,7.83,25.34,31.11,35.09,41.78,2.9,3.17,36.28,31.94,33.33,34.12-43.3-6.5-85.49-17.83-128.34-26.37-63.22-12.6-127.43-22.91-189.94-34.36-14.02-2.57-38.75-12.34-52.14-7.46-4.42,1.61-2.56,6.64-4.57,9.96-2.04,3.37-21.23,20.14-26.73,27.27-18.52,24.05-23.69,33.03-49.15,52.62-25.26,19.44-67.51,52.69-95.36,64.56-14.66,6.25-30.31,6.8-43.61,14.56-.62,2.64,1.91,4.96,4.75,4.8,1.93-.11,22.4-6.18,25.95-7.36,39.5-13.1,68.83-41.77,101.43-64.63,4.25-2.98,24.83-19.71,27.78-16.95l-22.61,90.56c-2.89,30.25-12.47,63.39-14.74,93.26-1.58,20.75.31,102.07,8.77,117.87,2.92,5.45,10.75,14.31,16.08,6.73-21.81-27.71-16.68-67.75-16.47-101.86.37-57.81,15.48-135.63,32.07-192.06,4.28-14.54,7.11-8.09,10.6-12.32,1.37-1.67-1.33-6.75-.45-10.62.99-4.36,5.37-4.3,6.37-6.13,9.78-17.91,13.16-27.69,29.17-43.62,30.15-29.99,63.8-10.32,99.88-4.29,62.09,10.39,123.72,22.3,185.24,34.91l93.93,19.27c.56,3.45-5.03,2.23-7.33,2.15-6.83-.24-12.87-2.51-19.65-2.16.79,10.38,18.04,5.4,25.92,6.25,28.76,3.08,60.02,8.41,88.76,13.01,96.68,15.49,198.68,32.25,289.68,69.63,104.57,42.95,211.54,121.84,317.9,151.49,55.23,15.39,141.96,32.25,198.87,37.9,18.32,1.82,26.84,2.15,41.87-10.07,9,5.34,28.94,23.5,38.95,16.16,4.47-3.27,2.64-10.46,11.05-11.97,10.69-1.93,17.73,7.5,21.31,16.27-13.97-1.67.45,9.74,2.52,15.14,6.98,18.25-9.26,17.64-15.91,26.6-7.01,9.45,12.32,45.02,8.82,62.66-2.43,12.24-21.45,6.97-30.86,10.76-5.2,3.52,3.24,15.99-5.02,17-11.48,1.4-23.83-12.55-29.37-13.19-6.04-.69-18.07,2.16-26.73,1.47-43.28-3.45-86.19-14.92-129.07-20.47-10.47-1.35-21.51.43-31.94-2.36-.23-2.99-1.85-3.69,2.05-3.51,18.43.83,37.92.65,56.2,2.41,12.99,1.25,27.65,5.21,40.67,7.1,14.62,2.12,30.97-.4,44.39,8.55,1.39-4.22-8.09-8.12-10.59-9.13-5.17-2.09-14.19-4.43-19.72-5.19-87.45-12.09-176.1-11.88-263.27-19.15-31.58-2.64-70.01-26.58-102.58-32.46-21.37-3.86-46.55-1.5-67.89-4.8-38.83-6-84.49-24.8-123.19-30.51-53.62-7.91-113.13,7.85-167.21-3.09-32.86-6.64-59.98-22.63-89.1-31.34-11.07-3.31-40.72,1.73-41.26,16.17l9.08,1.33c2.44-1.97.83-6.65,5.97-9.11,19.62-9.37,37.9,5.8,55.64,12.01,79.77,27.94,114.96,17.36,194.4,19.98,54.15,1.78,104.62,21.66,157.66,31.02,23.33,4.12,51.1,1.48,73.79,7.07,15.86,3.91,45.38,16.79,61.58,23.57,5.9,2.46,14.94,6.23,19.32,10.77-11.42-.1-22.9.17-34.35.12-84.48-.38-178.1,16.76-263.71,22.72-35.15,2.45-82.34,8.1-116.26,6.24-117.98-6.46-235.76-21.21-352.88-35.51-56.87-6.94-120.84-11.46-176.58-20.71-12.35-2.05-21.4-7.31-31.51-10.05-5.71-1.54-30.96-3.96-31.57-7.37l1.63-7.34c-5.12-2.03-13.92,2.79-17.34,2.23-2.19-.36-1.32-6.03-6.49-6.53-10.59-1.02-8.45,6.92-10.8,8.47-6.11,4.03-30.78,9.74-40.09,13.51-35.58,14.38-88.61,36.95-118.25,60.37-6.15,4.86-21.98,17.31-14.16,25.23,10.49,10.63,8.05-6.07,8.73-7.7ZM1642.32,444.48l-.26,17.38-5.94,24.14c1.74-16.59-20.29-38.59,6.2-41.51ZM1245.65,490.19l37.36,4.16c-1.38,3.79-12.27,2.29-15.53,2.02-4.44-.37-11.77-1.58-16.06-2.65-2.09-.52-6.25-.59-5.77-3.53Z" style="fill: #3f2c22;"/>
  <path d="M641.26,317.76c23.58,6.3,48.74,4.8,72.96,7.5,138.94,15.47,261.1,60.47,394.37,95.31,26.39,6.9,49.37,12.18,75.92,17.55,36.43,7.36,71.44,22.52,108.4,28.67,30.5,5.08,60.61,2.57,90.95,2.53,52.14-.08,92.04-4.66,142.6,13.15,2.8.99,13.24,3.08,12.01,6.63-1.74,5.06-4.76,1.29-6.85.7-14.77-4.17-32.19-10.97-46.61-13.66-31.38-5.84-81.92,1.38-115.79,1.56-13.32.07-31.85,1.64-43.66.99-42.96-2.37-95.32-22.95-138.6-32.64-56.68-12.69-112.86-27.71-169.27-44.65-115.73-34.74-242.73-73.42-363.02-73.14-5.38.01-9.98-2.92-15.2-1.91-1.36.85-9.63,26.97-10.16,30.36-2.2,14.15-3.47,45.24-2.55,59.71,1.37,21.59,10.52,44.5,12.47,66.45l-12.44-1.11c7.24-19.59-4.44-36.86-6.26-54.96-1.55-15.42-1.26-44.39.25-59.94,2.06-21.2,14.47-42.16,19.9-63.18,3.52-13.64,4.13-29.5,7.36-42.49,5-20.09,15.67-41.95,22.32-61.77-68.28-12.06-136.25-25.91-203.98-40.08-31.27-6.54-64.02-11.52-95.57-18.66-11.31-2.56-83.54-25.41-86.67-22.19-.46,11.23-11.69,19.2-17.08,29.64-29.71,57.57-47.62,174.92-49.49,239.21-.19,6.67-3.2,13-2.23,20.85.65,5.24,7.26,3.59,6.39,8.21-4.5,6.55-14.37,8.7-14.09-1.41,1.98-71.16,18.33-175.54,42.18-242.55,6.42-18.03,16.54-37.74,27.81-53.29l-3.81-7.75,5-4.88,93.96,28.02c45.81,7.5,92.09,17.02,137.15,29.01l170.86,30.59c5.77,3.57-3.85,8.94-5.83,12.98-5.02,10.23-14.3,35.42-17.67,46.72-6.27,21.07-4.47,44.54-16.02,63.91Z" style="fill: #3f2c22;"/>
  <path d="M1517.73,411.25l-3.28,8.07-75.78-13.14c-60.25-21.13-123.7-32.49-185.21-49.48-103.31-28.53-189.82-104.07-293.99-131.77l-31.58-6.81c21.75-1.77,42.57,6.17,62.89,12.89,88.87,29.37,170.33,93.59,258.53,117.39,79.11,21.34,162.19,47.13,242.98,60.25,8.14,1.32,17.19,1.58,25.44,2.61Z" style="fill: #3f2c22;"/>
  <path d="M1725.4,722.79c1.57,1.51-17.34,32.11-19.72,37.38-11.19,24.8-12.65,43.41-18.63,68.6-1.67,7.03-6.9,14.33-6.31,20.69,4.29-3.03,29.19-23.87,32.19-20.75-.88,34.77-23.25,65.61-34.21,97.65-8.1,23.67-8.85,39.99-11.38,63.2-.81,7.42-4.69,14.25-4.23,21.9,1.79,1.98,17.62-13.49,27.71-10.15,7.48,4.38.59,13.71,1.34,20.54l-5.55-3.01,1.4-11.5c-2.72-2.75-26.57,8.32-26.89,15.48-.27,6.06,9.55,17.19.94,23.93l-13.5-39.41,8.56-1.21c1.43-4.57,2.51-9.67,2.03-14.49-.39-3.9-4.12-2.81-4.41-4.32-1.41-7.15,4.32-8.34,5.76-12.71,3.45-10.46,4.67-24.68,8.2-35.42,7.94-24.19,20.86-46.57,29.22-70.47,3.16-9.03,8.67-20.33,5.7-29.61-10.52,6.01-16.63,20.08-30.12,18.69-3.34-10.13,3.74-15.83,5.62-22.41,7.28-25.53,10.32-47.72,20.36-73.1,1.93-4.87,15.18-35.73,16.59-37.41,2.53-3.03,6.05-2.07,9.34-2.07Z" style="fill: #3f2c22;"/>
  <path d="M501.8,504.99c6.34,3.74-7.86,30.91-9.16,36.97-2.54,11.83-1.17,22.05,5.65,32.06,12.71,18.66,25.36,6.2,39.11-3.91l-11.16.91c-13.72-8.6,19.52-17.81,19.43-21.66-.03-1.4-10.06-10,4.2-13.55.93-1.23-7.77-5.72-2.1-9.33l28.18-7.32,15.41,9.41c-4.16,11.42-10.52,7.55-18.54,10.49-13.86,5.09-14.36,21.89-20.86,31.07-3.96,5.6-26.37,22.07-32.92,22.7-15.05,1.44-24.59-5.71-31.1-18.94-13.57-27.57,8.94-41.29,5.86-69.21l8,.3ZM562.33,535.87c-1.22-1.22-13.79,5.45-10.36,8.29,5.22.86,10.65-2.67,10.36-8.29ZM545.7,567.01l2.08-10.38c-7.39,1.64-9.45,6.53-2.08,10.38Z" style="fill: #3f2c22;"/>
  <path d="M776.26,375.96c-3.18,4.21,27.24,11.84,30.37,12.18,28.26,3.04,134.05,1.92,151,13.08,2.13,1.4,4.96,3.23,5.55,5.86-13.78-4.64-28.2-6.98-42.8-8.08-38.01-2.86-78.02-.27-116.04-4.4-15.05-1.63-26.18-8.2-40.23-12.72l-.38-8.7,29.15-7.65-2.06-3.14-65.46-9.29-32.15,2.06c-1.68-15.12,21.76-9.5,32.07-8.19,17.22,2.19,35.99,3.5,53.6,6.63,70.04,12.47,1.07,17.5-2.6,22.36Z" style="fill: #3f2c22;"/>
  <path d="M639.16,523.4c2.35,1.54-3.07,48.17,2.58,55.58,3.2,3.15,27.86-1.33,32.22-3.15,8.13-3.39,5.16-9.95,8.83-14.02,3.45-3.83,17.4-6.72,21.83-11.41l-12.2-.19c-11.22-11.57,5.82-8.74,9.19-11.12,2.75-1.95,1.19-8.7,3.89-10.65l10.53-.92v8.33s19.45-3.96,19.45-3.96c11.08,10.66-4.92,8.94-6.69,10.6-.93.88.46,4.59-1.51,6.02-2.99,2.16-12.2,1.59-14.87,4.51-1.02,1.12-.96,4.68-2.54,6.68-5.25,6.65-10.98,5.51-4.13,14.61.23,5.69-10.11,7.95-14.62,7.21l4.13-7.27c-5.27-4.05-9.08,5.46-11.93,7.31-11.37,7.38-43.53,13.11-53.85,1.13,4.41-8.93.98-16.72,1.23-25.04.14-4.95,2.22-9.56,2.41-14.52.13-3.4-5.18-27.14,6.06-19.75Z" style="fill: #3f2c22;"/>
  <path d="M209.89,188.42c1.75,2.15,7.15,2.85,7.68,6.8-39.79-.01-3.99-50.89.92-70.71l46.13-47.49,43.45,10.06c32.43,1.47,62.8,7.36,95.46,6.49,4.17-.11,13.85-4.53,15.47.96,2.55,8.62-9.95,6.85-15.49,6.67-45.06-1.46-90.25-8.45-134.62-13.59-11.95,11.28-35.45,27.87-43.88,41.35-4.17,6.67-16.54,39.49-17.4,47.14-.51,4.54-.8,8.55,2.26,12.32Z" style="fill: #3f2c22;"/>
  <path d="M379.57,176.55h-30.12c-4.22,0-23.13-12.14-30.8-8-6.91,2.28-14.24,37.17-17.01,45.35-1.48,4.37-4.8,8.23-6.14,12.55-12.1,38.81-23.21,81.82-23.94,122.5h-6.21c-1.45-9.15-.85-16.56.33-25.65,5.5-42.25,22.76-99.58,36.05-140.47,13.86-42.65,26.35-14.55,52.4-13.01,8.51.5,26.71-7.94,25.44,6.73Z" style="fill: #3f2c22;"/>
  <path d="M534.84,363.96c6.09,10.28-3.06,19.83-1.49,31.52s15.82,26.55,25.82,32.43c4.42,2.6,26.13,10.75,27.19,12.27,2.05,2.92.38,7.95-2.25,8.45-4.05.77-41.16-22.4-45.53-27.13-6.94-7.52-14.71-23.58-13.5-33.93,1.28-10.96,11.39-16.84-7.58-19.76-20.23-3.11-47.08-2.52-65.83-6.86-12.32-2.85-11.48-15.69-4.62-14.09.95.22,3.46,4.6,8.48,6.08,11.88,3.49,36.73,6.11,50.03,7.7,6.24.75,23.84-1.99,29.29,3.32Z" style="fill: #3f2c22;"/>
  <path d="M969.41,278.3c-27.73-26.15-68.99-34.55-99.51-55.2-3.08-2.08-14.98-8.84-5.41-11.21l20.33,10.42c1.47,6.43,25.63,9.13,26.45,10.34l-2.11,6.18c11.64,4.8,27.25,10.61,38.01,16.67,1.35.76,1.62,3.31,3,4.1,10.28,5.89,29.35,15.08,37.85,21.94,3.46,2.79,4.96,4.46,4.23,9.25l-7.12-.12c-64.89-21.25-128.32-48.38-193.73-68-1.98-.59-5.34-1.66-4.74,1.64l37.36,23.92-1.06,5.21c-6.75.53-39.47-27.41-50.12-32.96-8.5-4.42-20.11-8.73-29.27-12.27-13.88-5.38-40.39-6.56-42.08-23.32l103.47,40.86c56.19,13.75,108.65,38.61,164.44,52.57Z" style="fill: #3f2c22;"/>
  <path d="M1864.55,708.25c-1.76,20.98,6.78,43.02,8.39,63.26,2.36,29.71-1.38,74.8-2.35,105.99-.25,7.94,5.38,17.89-2.91,25.93-3.55.05-3.09-20.01-3.19-23.71-1.07-40.36,4.76-82.48-.14-122.45-1.46-11.95-8.15-30.65-8.18-41.87-.02-6.11,2.41-7.96,8.39-7.14Z" style="fill: #3f2c22;"/>
  <path d="M1895.71,942.92l-45.08-22.4c-38.63-31.74-87.78-46.41-128.04-75.5-6.22-4.5-2.59-5.76,1.78-10.06,24,24.07,57.27,35.08,85.56,51.48,20.65,11.97,65.72,35.61,81.46,49.39,2.37,2.08,5.13,3.18,4.32,7.09Z" style="fill: #3f2c22;"/>
  <path d="M616.33,301.15c-29.31-6.69-9.85-41.04-5.21-60.24l15.59-20.73c-11.73-1.68-47.73-4.9-51.55-18.05-1.16-4-.74-6.45,2.75-8.92,4.27,3.3,3.65,9.32,8.76,11.97,2.16,1.12,19.61,6.11,22.57,6.5,8.39,1.13,30.16-4.24,31.7,3.59,1.33,6.76-9.24,10.67-12.15,14.24-9.18,11.27-24.22,44.1-22.85,58.14.71,7.26,10.74,6.26,10.38,13.51Z" style="fill: #3f2c22;"/>
  <path d="M1683.86,1630.4c4.14,4.53-17.35,21.12-20.28,26.43-4.46,8.08-12.97,38.76-10.51,46.87,3.6,11.82,50.27,12.91,61.95,20.18.76.98-1.9,3.23-3.56,3.7-8.47,2.4-55.58-8.29-61.92-14.05-11.87-10.79,1.9-45.27,9-57.58,1.94-3.35,20.91-30.37,25.31-25.55Z" style="fill: #3f2c22;"/>
  <path d="M1719.37,1304.53c.67-1.11,7.67-2.9,8.12.85.17,1.44-2.02,5.41-2.06,8.29-.66,45.68,7.08,91.37,8.38,136.97l-3.2,36.4c-8.91-9.3-2.94-21.2-3.02-30.17-.29-30.78-4.35-62.48-6.31-93.39-.43-6.83-3.43-56.43-1.91-58.95Z" style="fill: #3f2c22;"/>
  <path d="M702.11,445.89c9.9,5.4,27.33,11.26,38.4,14.59,41.33,12.45,80.57,14.96,121.98.64l.99,4.09c-48.43,17.08-102.45,10.66-150.1-6.67-4.18-1.52-26.86-11.09-20.19-18.21,3.82-4.08,8.1,5.12,8.91,5.57Z" style="fill: #3f2c22;"/>
  <path d="M1637.4,704.73c-.39-.72-5,0-3.36-3.73,2.83-6.43,8.9-1.19,10.87,3.62,5.81,14.2-1.28,32.2-2.55,46.22-1.37,15.12-4.65,36.66-1.64,51.43,1.02,5.03,6.51,12.85,8.27,18.75,1.14,3.81,3.12,4.37-1.46,7.63-3.12-.13-15.16-31.35-15.65-36.27-2.29-22.77,15.14-69.97,5.53-87.66Z" style="fill: #3f2c22;"/>
  <path d="M1636.09,972.02l-6.23-.03c2.67-23.01,2.81-50.13,7.29-72.69,1.8-9.07,8.93-23.88,9.5-32.2.41-6.01-2.77-18.97-8.62-20.98-.31-8.02,10.07-10.26,12.32-3.56.49,1.46,2.67,28.74,2.49,30.79-.8,9.23-8.53,22.12-10.38,31.28-2.45,12.16-4.88,32.76-6.32,45.6-.78,6.99.48,14.69-.04,21.78Z" style="fill: #3f2c22;"/>
  <path d="M1669.32,714.48c-1.78,14.02-10.16,30.81-10.43,44.74-.26,13.79,9.2,31.49,10.52,45.51,1.4,14.84-1.83,27.32-4.3,41.62-.6,3.48,1.26,3.55-4.08,3.11-.2-14.4,3.35-27.89,2.03-42.53-3.16-35.04-19.24-45.46-.99-86.21,1.5-3.35,2.62-7.01,7.24-6.23Z" style="fill: #3f2c22;"/>
  <path d="M1777.33,1244.1l-40.56,49.79c-8.12,1.82-4.14-21.17-14.39-27.09-6.34-3.66-16.56,2.77-17.73-3.02-1.73-8.59,20.4-8.4,26.74,2.36,1.98,3.35,3.53,19.43,8.52,15.31,1.32-4.78,5.25-9.67,8.44-13.39,4.7-5.46,14.78-17.87,19.66-21.87,3.17-2.6,5.52-2.38,9.32-2.08Z" style="fill: #3f2c22;"/>
  <path d="M730.56,170.31c.38-3.29-2.1-6.65,2.97-6.11,10.53,1.12,25.55,6.39,36.51,9.22,35.49,9.17,67.66,13.92,102.95,21.67,3.3.72,6.78-.6,9.15,3.27-3.76,4.96-9.98,3.21-15.01,2.58-41.3-5.17-81.01-21.47-121.48-30.12-4.98-1.06-10.09-.36-15.1-.51Z" style="fill: #3f2c22;"/>
  <path d="M1648.55,965.77c-8.84.67-4.96-11.81-3.95-17.31,3.25-17.78,11.63-33.76,13.82-52.79.89-7.75-5.57-19.72,5.73-23.29,4.91,3.08,1.77,4.64,1.64,7.8-1.29,32.1-12.9,54.82-17.24,85.6Z" style="fill: #3f2c22;"/>
  <path d="M1723.4,1678.06c17.61,9.5,30.57-1.32,47.69-4.05,4.28,3.72-15.33,11.88-17.52,12.57-14.23,4.51-27.1,5.96-38.32-5.63l10.19-27.72c15.91,1.75-6.19,19.01-2.04,24.82Z" style="fill: #3f2c22;"/>
  <path d="M1814.73,1690.61c-4.92-5.72,24.81-70.44-14.55-64.38.73-16.04,15.26-6.75,20.78,1.04,8.88,12.52,6.81,30.87,3.63,45.19-.55,2.46-5.9,22.76-9.86,18.15Z" style="fill: #3f2c22;"/>
  <path d="M1116.87,330.23c-10.38,2.53-13.16-5.39-20.47-9.63-9.67-5.6-20.08-9.97-29.27-16.42l-58.24-27.92,62.81,25.43c6.48,3.37,13.25,8.37,19.77,11.38,9.37,4.33,28.37,4.72,25.4,17.15Z" style="fill: #3f2c22;"/>
  <path d="M1661.02,1075.87l-.07,11.44,47.84,18.65c-8.97,10.53-15.25-.12-23.79-3.19-9.64-3.46-29.81-5.11-33.45-16.44-2.81-8.72.57-11.43,9.48-10.47Z" style="fill: #3f2c22;"/>
  <path d="M1554.7,415.04c-.24.42-5.51,2.62-7.9,5.54-5.4,6.61-10.06,13.93-13.57,21.75l-2.02,27.02c-17.08-18.93,5.17-40.28,13.94-56.7,1.36-2.55,1.36-7.39,1.66-7.65,3.59-3.11,11.42,3.92,7.89,10.04Z" style="fill: #3f2c22;"/>
  <path d="M1555.09,465.25c.86,4.18-3.83,5.34-4.04,9.24-.45,8.43,17.12,34.99,28.99,30.21-1.68,25.47-20.29-1.17-25.81-10.56s-19.06-30.73.86-28.9Z" style="fill: #3f2c22;"/>
  <path d="M1580.03,420.59c.18-.66,5.74-10.5,6.66-12.03,4.47-7.34,11.62-2.34,9.78,3.57-.29.92-10.21,7.56-10.21,12.61v37.38l-3.12,3.07-3.12-3.07c1.95-11.23-2.64-31.7,0-41.54Z" style="fill: #3f2c22;"/>
  <path d="M1600.78,797.54c-12.8-1.27-4.63-13.62-4.18-21.83.8-14.67-1.8-24.39-4.11-38.38l7.29,2.03c3.92,18.96-.47,38.77,1,58.18Z" style="fill: #3f2c22;"/>
  <path d="M506.26,465.22l-51.93-2.07v-8.28c2.25-2.35,38.99,4.37,44.75,6.13,2.78.85,6.45.16,7.18,4.22Z" style="fill: #3f2c22;"/>
  <path d="M1668,1183.35c.78,6.01-3.23,4.06-7.64,3.62-14.24-1.43-38.42-15.22-38.1-31.18,6.41-6.76,9.33,9.12,13.39,13.64,7.02,7.8,21.92,13.24,32.35,13.92Z" style="fill: #3f2c22;"/>
  <path d="M1866.45,953.49c3.57,2.2.43,28.06.2,34.12-.12,3.18,1.92,8.22-3.09,7.22-7.01-11.6-5.16-23.65-2.46-35.74.67-3-2.25-10.27,5.35-5.6Z" style="fill: #3f2c22;"/>
  <path d="M1733.72,1601.31c-3.52.04-4.53,1.2-4.01-2.93,2.81-22.49-1.74-39.72-1.16-61.46,2.82-1.56,5.17,4.51,5.17,5.2v59.19Z" style="fill: #3f2c22;"/>
  <path d="M1638.16,1003.17c1.47,13.27,3.72,19.2,10.38,30.15,1.58,2.6,2.6,4.46-1.05,5.14-8.7,1.63-15.61-25.23-15.3-31.86l5.97-3.43Z" style="fill: #3f2c22;"/>
  <path d="M537.4,66.48c.96,4.41-2.25,4.72-4.82,6.58-6.32,4.59-17.8,12.45-24.24,4.8-1.36-6.43,9.97-4.62,13-5.65,5.48-1.87,9.82-6.31,16.06-5.73Z" style="fill: #3f2c22;"/>
  <path d="M992.24,265.88l-7.91.63-29.45-13.1c13.76.22,24.22,9.94,37.36,12.47Z" style="fill: #3f2c22;"/>
  <path d="M1856.24,1624.17c1.13,1.11-.32,9.08-3.04,10.61-16.01,3.6-3.6-17.12,3.04-10.61Z" style="fill: #3f2c22;"/>
  <path d="M1798.09,994.84h-10.39s.02-6.21.02-6.21c5.13-.56,10.93-.14,10.36,6.21Z" style="fill: #3f2c22;"/>
  <path d="M1763.12,1177.7c-20.01.45-3.48-11.99-.01-3.07v3.07Z" style="fill: #3f2c22;"/>
  <path d="M1677.64,726.91l10.36-8.29c.45,5.62-5.4,9.12-10.36,8.29Z" style="fill: #3f2c22;"/>
  <path d="M942.4,245.11c-1.18,5.33-12.12-.82-12.45-4.16l12.45,4.16Z" style="fill: #3f2c22;"/>
  <rect x="209.27" y="664.64" width="6.21" height="4.13" style="fill: #3f2c22;"/>
</svg>