<svg width="713" height="766" viewBox="0 0 713 766" fill="none" xmlns="http://www.w3.org/2000/svg">
<g clip-path="url(#clip0_405_105022)">
<path d="M382.317 4.0332C382.11 4.23958 379.256 3.81503 378.069 4.58747C377.292 5.09456 377.49 6.3446 376.972 6.86054C376.157 7.66835 373.652 7.51505 372.418 9.02748C369.448 12.6715 373.041 14.2694 373.015 15.5224C373 16.2683 372.005 17.0142 371.837 17.9311C371.182 21.5102 375.244 22.0733 375.151 25.7203C375.121 43.7575 371.671 61.6768 370.393 79.6815C364.243 84.8674 356.913 89.4047 352.523 96.3596C349.441 101.239 347.763 106.855 346.561 112.469C344.824 112.071 342.261 111.351 340.55 111.956C339.659 112.271 339.447 113.795 338.28 114.367C337.195 114.898 335.729 114.721 334.507 115.252C331.411 116.602 324.402 120.576 323.121 123.754C322.272 125.865 322.947 127.735 322.633 129.757C322.152 132.829 319.851 135.014 321.015 139.106C321.236 139.887 322.304 140.3 322.406 140.969C323.866 150.536 319.49 187.106 316.994 197.318C316.61 198.896 314.555 204.739 313.764 205.856C311.317 209.318 303.857 212.696 300.328 215.813C292.131 223.047 288.896 236.742 286.461 247.208C283.167 261.365 282.794 277.421 275.387 289.727C274.226 291.075 274.488 289.922 274.668 288.999C275.651 284.014 276.926 279.084 278.087 274.143C278.098 272.395 277.281 273.5 277.063 274.29C276.673 275.7 276.69 278.347 275.154 279.134C274.941 275.249 276.018 271.472 276.388 267.651C276.53 266.162 275.832 264.676 275.942 263.588C276.018 262.848 282.044 250.849 282.498 250.265C282.71 249.988 283.225 249.475 283.368 249.679L283.373 252.037C284.156 253.155 285.096 246.421 285.14 245.849C285.253 244.307 283.755 244.764 283.106 245.563L276.373 259.092C276.452 257.108 275.762 254.85 277.543 253.494C277.77 253.022 276.437 253.632 276.318 252.353C276.126 250.286 276.324 245.713 276.382 243.443C277.127 215.341 280.269 187.318 281.302 159.189C281.334 158.308 281.855 149.548 279.559 151.202L278.328 172.713C276.134 197.212 275.168 221.839 274.048 246.388C273.882 250.003 274.563 254.826 274.013 258.175C273.574 260.864 267.598 269.184 267.589 269.974C267.58 270.764 268.27 271.631 269.052 271.454L274.019 267.347L272.238 283.56L272.189 298.587L269.309 286.204C268.29 286.198 268.66 288.784 268.703 289.465C269.058 294.972 272.78 305.692 272.012 309.946C271.93 310.394 271.337 310.839 271.101 311.273L275.643 314.513C271.136 316.061 264.909 314.374 261.365 317.417C256.992 321.17 259.044 323.163 261.668 327.161C261.668 328.597 256.995 331.22 258.24 335.283C258.505 336.141 259.617 336.501 259.861 337.777C261.296 345.278 257.673 356.67 256.902 364.305C256.413 369.138 257.021 374.574 256.148 379.5C254.115 382.667 251.016 384.975 248.7 387.873C234.865 405.188 233.497 426.519 232.214 447.937C230.279 480.212 230.777 512.542 229.633 544.63C229.607 545.367 230.669 553.239 229.066 552.027C221.548 534.995 209.214 521.036 198.446 506.138L182.6 477.712L180.371 477.605C180.141 478.564 180.554 478.97 180.93 479.684C182.646 482.951 185.984 486.751 188 490.2C190.866 495.1 193.298 501.294 196.211 506.035C207.008 523.609 224.55 538.743 229.287 559.637C229.491 560.539 228.769 561.394 229.305 562.617C230.154 564.563 236.253 567.446 238.342 568.251C254.249 574.384 279.818 575.277 295.352 567.827C297.898 566.606 299.658 564.215 302.347 563.428C301.849 568.62 301.937 573.835 301.721 579.042C300.761 602.303 299.932 625.913 299.196 649.186C298.884 659.012 300.345 671.695 298.503 680.991C298.323 681.896 297.395 682.707 297.395 683.409C297.395 684.184 298.413 684.895 298.524 685.797C298.809 688.126 298.355 690.765 298.524 693.138C297.438 693.394 297.398 692.763 296.88 692.153C288.649 682.433 282.917 668.14 276.606 656.718C268.424 641.907 263.661 634.619 257.691 618.15C256.751 615.561 254.839 613.501 254.813 610.464C254.342 609.55 253.475 610.287 253.355 610.788C253.032 612.15 259.614 629.442 260.757 632.113C265.578 643.384 272.617 653.048 278.453 663.676C284.581 674.835 288.91 687.663 298.39 696.21L298.195 705.538C300.333 707.186 301.788 709.226 304.11 710.739C321.024 721.768 333.712 722.703 353.439 720.403C356.651 720.029 369.058 716.721 371.191 714.837C371.508 714.557 374.627 709.851 374.947 709.203C376.966 705.108 376.582 700.98 377.147 696.664C380.923 667.754 379.497 637.994 380.848 608.807C381.91 585.837 389.122 544.347 376.841 524.509C373.172 518.583 372.224 520.605 371.738 512.011C370.789 495.292 372.218 477.019 372.45 460.137C372.782 436.097 372.814 411.562 374.161 387.508C375.235 368.359 374.935 348.444 390.801 335.165C393.004 333.32 396.286 332.642 396.542 332.435C397.153 331.943 402.425 320.692 402.94 319.15C406.618 308.127 406.539 295.951 408.931 284.609C411.238 282.843 414.005 285.399 416.711 283.215L431.096 283.686C430.732 289.247 429.083 295.562 429.281 301.099C429.502 307.284 432.141 315.159 432.202 321.167C432.219 322.744 431.128 323.803 431.239 324.404C431.437 325.501 433.217 326.645 433.808 327.706C434.614 329.151 437.101 336.633 437.66 336.766C438.53 336.975 438.993 336.056 439.127 335.28C439.508 333.045 437.948 332.108 438.248 330.286C452.278 337.751 458.938 349.37 459.753 365.32C459.802 366.307 459.307 367.643 459.348 368.969C460.797 415.772 459.764 462.897 458.426 509.859C458.17 518.869 459.793 536.142 457.794 543.967C457.64 544.571 456.433 544.492 456.13 545.338C455.828 546.184 456.13 547.452 455.752 548.519C454.614 551.712 447.655 557.119 444.666 559.1C432.848 566.936 415.448 569.888 401.706 567.084C397.066 566.137 391.153 564.548 387.612 561.293C385.392 564.177 389.268 566.382 391.639 567.234C413.266 575.017 439.933 569.755 456.267 553.177C457.661 551.762 456.956 549.468 460.678 550.279C461.178 548.407 460.07 546.284 460.11 544.677C460.163 542.563 461.21 539.736 461.292 537.602C463.526 478.794 460.576 420.033 462.304 361.278C462.348 359.833 463.224 357.878 462.956 356.702C462.819 356.095 461.437 356.033 460.908 355.095C460.378 354.158 460.288 352.28 459.729 350.979C456.529 343.515 454.897 339.372 448.394 334.175C445.667 331.996 438.21 328.255 436.406 325.976C435.33 324.614 433.805 315.781 433.415 313.401C432.821 309.79 431.538 301.455 431.626 298.103C431.69 295.559 433.15 284.014 434.556 282.746C435.3 282.074 436.424 282.142 436.968 281.519C439.511 278.618 439.095 274.862 435.801 272.781C435.775 271.54 442.551 272.928 440.651 266.702C440.267 265.446 438.969 264.213 438.827 263.235C438.696 262.321 439.33 261.448 439.205 260.528C438.609 256.159 426.118 251.686 422.21 251.852C421.113 251.899 415.419 254.396 414.354 255.083C412.661 256.18 411.867 258.279 410.755 259.104C409.559 259.995 406.606 260.213 405.838 261.787C404.59 264.343 406.833 266.315 408.308 267.978C408.396 269.081 403.344 272.144 403.778 276.767C404.051 279.662 407.296 280.101 407.275 281.528C407.086 282.43 406.257 283.011 406.103 283.928C403.854 297.263 404.415 313.401 397.357 325.268C393.458 331.825 384.511 335.988 380.071 342.542C372.64 353.512 371.458 381.184 370.856 394.64C369.654 421.356 370.041 448.238 369.486 474.828C369.413 478.322 369.925 499.994 368.811 501.038C366.637 500.967 362.887 502.707 361.263 500.655C359.814 498.824 358.051 485.571 357.859 482.479C357.708 480.049 357.638 470.866 358.752 469.215C363.471 467.239 367.836 465.883 366.029 459.648C365.889 459.164 363.943 458.642 364.275 456.652C366.815 455.181 368.293 451.803 366.364 449.202C365.721 448.335 364.397 447.988 364.048 447.422C362.572 445.031 365.793 443.276 365.543 441.319C365.499 440.98 364.673 440.93 364.42 440.458C361.854 435.632 359.817 434.886 354.609 433.415C351.711 432.595 344.961 430.151 345.173 434.986C350.655 434.912 360.102 435.62 361.394 442.309C357.201 447.024 352.531 446.755 346.672 446.118C342.287 445.644 333.008 444.376 333.794 438.483L344.306 433.217L343.698 432.044C341.83 431.578 332.217 435.891 331.155 437.566C330.093 439.24 331.024 440.98 330.305 442.61C329.482 444.479 325.522 444.942 325.306 449.394C325.1 453.651 329.357 454.07 329.453 454.757C329.031 457.425 325.242 460.635 325.979 463.407C326.438 465.143 329.857 466.402 330 467.655C329.543 480.114 329.354 492.034 323.663 503.367L310.354 499.788C309.539 498.555 311.236 490.501 311.303 488.29C311.82 471.482 312.373 454.435 312.551 437.583C312.638 429.334 312.568 421.008 313.846 412.839C314.061 411.456 315.513 409.322 315.335 408.063C315.251 407.464 314.07 406.659 313.691 405.849C307.322 392.125 296.429 384.648 292.414 369.665C290.543 362.684 288.515 343.662 291.442 337.409C292.213 335.764 294.095 335.705 294.93 333.281C296.827 327.798 293.944 328.744 292.254 326.368C291.916 325.893 291.148 319.1 290.034 317.659L277.391 314.522L278.244 312.953L280.51 313.319L281.38 312.384C281.738 308.9 281.241 305.35 281.5 301.868C283.013 281.484 285.593 259.39 291.25 239.675C293.359 232.328 296.251 223.746 301.771 218.469C309.452 211.122 316.918 211.635 319.903 199.102C322.592 187.802 323.185 170.666 324.349 158.7C324.876 153.299 325.976 147.956 325.557 142.484C327.631 143.602 335.571 146.721 333.116 142.21C327.78 141.016 321.431 139.442 324.434 132.472C325.05 132.319 325.597 132.54 326.173 132.729C333.68 135.196 340.913 139.572 349.43 136.951C351.216 136.402 356.681 132.682 357.376 132.611C359.136 132.437 359.512 138.826 359.029 140.223C358.484 141.122 354.257 142.184 353.046 142.405C350.818 142.809 347.201 141.503 347.661 144.896C351.464 145.5 354.417 145.25 358.135 144.342C357.37 146.093 358.252 147.614 358.15 149.321C357.268 163.977 356.651 178.798 357.405 193.598C357.53 196.068 358.679 207.41 359.651 208.852C361.88 209.391 363.515 210.17 365.482 211.331C380.76 220.35 384.615 229.581 387.49 246.784C391.633 271.584 391.913 297.289 392.009 322.214C392.015 323.714 393.117 327.211 394.907 326.049C395.654 325.563 395.681 310.335 395.564 308.045C395.323 303.277 394.124 297.702 393.842 292.726C392.829 274.98 392.466 239.195 383.428 224.415C378.465 216.296 370.484 212.26 363.227 206.561C365.817 204.854 365.916 201.322 366.142 198.306C366.94 187.639 365.764 175.136 367.426 164.738C367.655 163.296 368.973 162.441 367.99 160.878C388.57 166.527 409.638 162.88 429.682 156.913C428.035 160.041 429.126 161.901 429.112 164.841C429.022 183.217 428.303 201.228 426.61 219.692C425.702 229.601 423.717 239.499 423.627 249.469C428.582 249.773 426.383 248.39 426.578 245.731C427.785 229.242 430.526 212.634 431.32 196.118C431.85 185.116 430.45 173.417 431.393 162.491C431.567 160.48 434.09 153.918 432.257 153.396C426.263 154.893 419.496 157.898 413.54 159.083C403.336 161.114 389.634 161.775 379.346 160.303C374.595 159.625 370.615 157.258 365.674 157.918C366.954 160.595 364.973 161.306 364.618 163.054C362.468 173.597 363.602 189.759 362.645 201.239C362.587 201.953 362.418 204.394 361.484 204.485C359.965 194.364 360.623 184.281 360.416 174.095C360.189 162.818 359.148 153.694 361.339 142.281C361.542 141.214 362.759 140.624 362.849 138.74C362.994 135.692 361.048 132.788 361.711 128.755C361.991 127.048 363.527 125.756 363.425 124.055C363.166 119.765 353.951 114.164 350.163 112.982C350.716 100.405 359.768 91.4184 369.072 84.2277C370.332 83.9859 369.969 84.8026 369.928 85.687C369.858 87.2614 368.915 88.9507 369.393 90.6548C374.49 92.6124 372.517 84.1776 372.867 80.9994C373.518 75.0676 374.062 69.2389 374.653 63.3101C375.971 50.0873 378.558 36.8115 377.664 23.5121C384.726 24.3081 393.024 25.4284 399.481 21.7933L399.742 23.2703L401.436 23.6506C401.517 26.0534 401.631 28.527 401.494 30.9357C400.688 45.1196 397.985 52.3221 401.078 67.24C401.875 71.0757 404.843 77.8536 405.343 81.2264C405.564 82.7093 404.61 84.0596 404.805 85.0974C404.916 85.6753 406.17 85.7313 406.632 86.3415C407.095 86.9518 407.06 88.2019 407.246 88.364C407.607 88.6795 409.347 88.311 410.234 88.5851C415.923 90.3541 426.61 102.253 430.06 107.421C439.028 120.862 437.084 134.259 436.098 149.54C434.646 172.088 432.077 194.765 430.671 217.319C430.014 227.891 430.805 238.835 428.277 249.172L431.678 248.788L433.61 223.864C433.453 204.102 436.38 184.629 437.835 164.912C439.938 136.399 445.05 114.255 421.71 92.9013C418.678 90.1271 412.018 86.9312 409.839 84.2837C406.656 80.4156 402.242 58.8759 402 53.3775C401.709 46.7735 403.737 38.2414 404.395 31.5342C404.68 28.6479 404.043 23.5386 404.59 21.009C404.948 19.3492 408.556 16.9582 408.558 13.2523C408.558 10.139 405.207 11.8873 403.923 9.63187L404.983 4.78795C402.463 3.80914 400.586 2.45296 397.938 1.59797C394.351 0.442272 386.908 -0.896218 383.533 0.825541C381.985 1.61566 382.553 3.81798 382.334 4.03615L382.317 4.0332ZM387.583 2.90403C391.098 3.03965 395.084 3.21065 398.232 4.81743C401.561 6.5156 400.851 6.81042 397.857 8.33465C393.85 10.3719 389.009 11.3772 384.662 9.95617L390.141 9.45497L390.481 7.02564C391.453 7.04923 394.307 7.33226 394.558 6.14707C395.046 3.82683 388.183 5.01201 387.586 2.90109L387.583 2.90403ZM383.513 3.47599H385.832C385.922 4.30149 385.631 5.27735 385.811 6.04978C385.974 6.75441 387.24 6.04389 386.987 7.0168L381.173 7.00206L383.425 5.74317L383.513 3.47599ZM379.527 10.6667C380.682 10.08 383.908 12.4739 385.657 12.7776C387.406 13.0813 390.211 13.1167 391.945 12.9604C395.942 12.5978 401.407 8.10174 402.681 13.5471C401.052 14.0129 399.32 14.1515 397.706 14.6881C397.019 14.9151 394.156 15.7701 394.534 16.7666L395.972 18.0549C398.724 16.5749 402.058 17.9134 404.139 15.3278C404.677 18.2937 401.363 18.1493 399.943 18.7271C392.393 21.8021 385.631 22.548 377.493 20.4223C376.672 20.2071 375.284 19.7059 375.386 18.5915C375.561 17.3503 377.339 16.3361 377.577 15.4133C377.877 14.2635 376.882 12.5683 377.08 12.3118C377.144 12.2322 378.433 12.1231 379.014 11.728C379.381 11.4775 379.399 10.7286 379.529 10.6637L379.527 10.6667ZM345.4 114.821C346.698 113.524 358.487 120.594 359.64 123.126C362.034 128.389 347.917 134.952 343.884 134.916C342.406 134.905 335.932 133.38 334.172 132.897C330.971 132.015 324.434 129.492 325.682 125.214C325.752 124.972 328.562 121.331 328.801 121.257C330.177 120.83 329.589 124.22 329.924 125.414C331.431 130.827 340.116 132.463 344.923 131.777C350.882 130.922 360.39 124.733 352.188 119.441C350.972 118.654 343.599 116.62 345.397 114.824L345.4 114.821ZM330.835 120.081C332.886 117.802 336.575 116.455 339.569 116.578L330.835 120.081ZM332.703 122.572C332.938 122.13 340.957 118.51 341.76 118.439C343.084 118.321 344.015 119.665 345.383 119.544C345.333 120.638 343.838 119.957 343.003 120.951C342.327 121.75 342.223 123.757 341.877 124.831C341.056 125.444 339.101 122.384 337.492 122.442C336.2 122.493 336.372 123.813 335.935 124.085C335.243 124.512 333.523 124.07 332.577 124.807C332.636 124.091 332.362 123.206 332.705 122.569L332.703 122.572ZM348.883 121.319C349.648 120.789 351.708 122.973 351.804 124.008C352.264 128.887 337.687 130.824 334.894 126.88C339.086 125.559 344.195 129.901 344.809 123.082C346.983 123.551 348.368 124.108 348.883 121.322V121.319ZM433.895 264.081C433.456 264.635 425.612 267.754 424.529 267.707C422.007 267.595 412.492 263.653 412.518 260.941C415.379 251.654 431.425 254.24 436.103 260.098C436.461 260.546 436.764 261.227 435.97 261.271C433.837 260.855 434.643 263.134 433.892 264.078L433.895 264.081ZM408.622 264.588C407.54 263.344 408.084 262.011 409.804 262.489C410.453 262.669 415.655 266.994 417.351 267.831C420.883 269.57 423.444 270.667 427.372 269.553C431.084 268.497 438.745 261.477 437.497 269.526C435.135 269.146 433.767 271.136 431.742 271.643C430.409 271.976 423.93 272.147 423.54 273.347L423.886 274.83C428.664 275.549 433.75 271.611 435.714 278.023C435.455 279.547 429.781 281.213 428.376 281.272C426.615 281.348 425.303 280.623 423.845 280.694C421.416 280.815 413.685 282.156 411.928 281.578C410.741 281.186 406.871 277.495 406.656 276.221C405.928 271.873 410.848 272.044 411.337 269.155C411.922 265.705 409.906 266.065 408.617 264.588H408.622ZM276.292 310.925C275.983 309.239 274.319 306.954 274.191 305.403C273.554 297.749 275.986 291.493 279.466 285.025C279.818 284.37 280.123 283.427 280.947 283.288L277.967 310.996L276.292 310.925ZM265.09 340.443L265.427 338.093C262.657 336.203 259.663 334.248 262.291 330.784C263.041 329.794 264.269 329.764 264.554 328.355C265.363 324.342 261.901 323.818 261.732 321.757C261.435 318.116 270.929 318.036 273.298 317.473C272.305 319.242 270.216 318.384 268.418 319.295C261.671 322.724 268.732 326.931 273.568 326.949C278.09 326.966 289.05 324.814 283.769 318.682C287.106 317.995 288.843 321.35 288.451 324.292C288.235 325.902 285.806 325.351 286.743 327.724C287.863 330.566 292.382 327.553 292.454 331.442C292.53 335.495 284.651 336.35 284.305 337.848C284.348 340.44 287.592 338.506 287.787 338.735C287.104 354.096 287.031 368.872 294.561 382.782C301.596 395.775 312.586 398.87 311.442 416.327C309.801 441.363 309.638 466.75 307.77 491.807C307.628 493.712 308.125 496.618 307.738 498.184C307.625 498.647 306.592 498.573 306.545 498.93C306.391 500.106 307.471 500.985 307.57 501.896C308.771 512.881 305.699 528.716 304.308 539.713C303.563 545.606 303.758 551.414 303.048 557.302C296.371 567.267 282.509 569.941 271.214 570.445C261.636 570.872 244.9 568.938 236.445 564.277C229.889 560.663 233.177 557.464 233.145 551.718C233.137 550.002 231.845 541.608 232.572 540.839C246.093 545.105 261.971 548.575 275.619 543.309C276.457 548.728 278.04 547.661 279.027 542.932C282.236 527.545 280.516 510.74 281.572 495.274C282.262 485.173 285.928 474.527 285.791 464.1L289.027 448.993C288.689 447.077 284.243 446.626 282.538 446.605C278.674 446.555 274.403 448.492 270.336 448.403C264.717 448.279 242.456 443.338 238.668 439.685C238.214 439.249 237.19 436.899 236.317 436.204C236.555 422.362 239.759 406.45 247.239 394.678C250.169 390.067 255.363 386.42 258.002 382.584C259.294 380.703 259.666 375.739 259.791 373.182C259.896 371.069 259.238 368.804 259.32 367.257C259.797 358.267 262.966 349.042 262.771 339.847L265.087 340.443H265.09ZM274.458 319.837C275.628 318.611 283.021 319.711 281.991 322.765L278.52 323.962C281.081 319.687 277.738 321.636 275.596 321.32C274.837 321.208 273.751 320.58 274.458 319.837ZM271.555 321.595C272.279 321.076 274.185 323.187 274.447 323.95L270.373 323.938L271.555 321.592V321.595ZM235.738 441.785C244.143 445.7 253.745 448.554 262.931 449.951C265.762 450.382 268.639 450.847 271.529 450.744C273.731 450.665 285.113 448.032 285.687 450.511C283.525 459.969 283.359 469.698 282.125 479.28C281.712 482.502 280.461 485.719 279.998 488.938C277.921 503.408 279.134 518.904 277.327 533.512C276.804 537.755 276.556 540.382 272.442 542.133C264.758 545.408 246.631 542.564 238.522 539.836C236.389 539.12 234.574 537.835 232.546 536.929C232.755 526.534 232.482 516.124 232.636 505.728C232.863 490.451 234.21 475.141 235.101 459.76C235.447 453.775 234.908 447.755 235.738 441.788V441.785ZM331.937 457.587C332.307 457.027 334.469 455.951 333.765 454.397C332.656 451.944 326.008 452.61 329.15 447.366C332.665 441.502 334.213 446.239 337.407 447.218C341.551 448.489 351.583 449.804 355.749 449.04C357.754 448.672 358.892 447.074 360.83 446.832L364.167 452.448C363.626 454.5 355.688 457.233 355.575 457.734C354.943 460.523 361.656 458.436 361.938 458.645L363.061 463.539C359.014 467.62 352.802 465.515 347.719 466.865C343.931 465.423 330.229 467.537 329.502 462.266C329.781 460.526 331 459.008 331.937 457.587ZM332.877 468.607L355.543 469.227C354.481 478.755 355.38 489.363 357.495 498.721C360.623 512.565 364.763 513.7 372.258 523.83C386.408 542.947 379.643 577.892 378.456 600.461C376.85 630.957 378.092 661.621 374.801 691.917C374.272 696.797 374.508 705.382 371.226 709.391C370.897 709.795 367.871 712.493 367.431 712.788C358.47 718.817 334.352 719.967 324.058 717.092C320.602 716.128 308.57 710.544 305.757 708.486C305.067 707.982 301.023 703.834 300.912 703.348L301.454 686.661C302.827 687.678 304.174 688.441 305.783 689.052C324.221 696.068 339.796 696.496 359.255 694.403C360.317 694.288 367.749 692.477 368.077 692.159C369.614 690.673 368.4 689.016 368.485 687.722C370.615 655.15 366.335 614.916 374.72 584.231C375.313 582.055 378.165 580.289 375.919 577.187C373.888 574.381 372.616 577.686 371.947 578.157C370.606 579.101 365.273 581.689 363.707 581.881C353.384 583.137 322.109 578.667 313.432 573.131C311.527 571.913 308.597 568.755 307.194 566.93L304.672 567.558L307.124 538.554C308.864 537.658 308.288 535.447 309.371 534.217C310.104 533.383 311.692 533.371 312.085 532.811C312.638 532.021 311.698 530.927 312.036 529.868C312.571 528.194 320.104 519.921 321.803 517.324C327.206 509.066 330.829 491.621 331.661 481.842C332.036 477.44 332.324 472.983 332.883 468.607H332.877ZM310.069 502.715L322.871 506.595C320.925 515.098 314.841 521.652 309.423 528.067L310.069 502.715ZM361.854 504.033C364.449 505.124 366.303 503.98 368.834 503.458L369.384 515.251C365.427 512.645 363.934 508.031 361.854 504.033ZM304.075 569.92C305.035 568.926 309.938 574.151 311.081 574.908C316.336 578.399 327.192 581.203 333.5 582.305C340.003 583.443 361.717 586.005 366.884 583.939C367.629 583.641 372.512 580.442 372.706 580.713C372.328 583.075 372.421 586.197 371.863 588.42C371.447 590.083 370.056 591.194 369.797 592.819C365.817 618.023 367.391 645.197 366.684 670.64L365.453 688.306C364.938 691.254 356.093 691.838 353.506 692.097C345.031 692.943 332.932 693.38 324.678 691.761C321.364 691.112 302.812 685.384 301.742 683.123L304.075 569.917V569.92Z" fill="#3F2C22"/>
<path d="M96.8544 91.0351C95.8244 90.8759 92.9089 91.8576 92.4346 91.6453C92.3328 91.6011 92.2543 90.8493 91.879 90.5899C73.726 77.9214 57.4178 61.6384 40.6353 47.0948C38.4327 45.1844 32.1364 36.3604 32.0375 43.7191L43.2336 52.7082C55.9572 66.9599 73.5806 77.8654 87.0956 90.8316C88.1052 91.8016 89.1759 92.8836 89.3941 94.3577L10.1108 153.738C9.45908 156.102 12.1737 155.353 13.8147 154.551C24.9061 145.318 36.8877 137.237 48.5726 128.772C48.5435 134.896 46.277 140.477 44.9356 146.344C43.0269 146.857 37.976 148.817 37.1874 150.568C36.108 152.962 37.6908 155.2 37.3591 156.636C37.0274 158.069 33.3526 159.395 34.528 162.352L17.9027 157.618L15.674 158.11C14.8564 158.705 15.2026 160.763 16.3141 161.002L54.2871 170.944C46.9375 179.505 39.2823 187.961 30.4285 194.842L30.9464 197.118C29.6604 198.164 17.4808 191.563 14.6615 192.955L14.7487 194.924L79.1931 217.001C77.5201 218.976 74.3777 219.934 72.4952 221.411C65.713 226.724 58.9337 233.531 51.7412 238.7C50.6705 239.469 44.5021 243.476 43.7893 243.632C41.2638 244.183 37.1263 242.606 35.046 241.096C35.4853 237.597 38.5753 235.669 37.8421 231.933C39.4191 232.022 41.1096 232.131 41.7875 230.4C41.7177 225.226 37.4057 223.817 33.4196 221.983C32.2935 221.464 27.0883 219.135 26.387 219.026C25.8924 218.949 17.7048 220.936 16.6603 221.299C15.9533 221.544 14.9582 221.674 15.1735 222.729C18.2722 226.868 24.3504 220.22 27.9699 224.239C24.5046 222.697 24.1874 224.625 22.2904 225.259C20.0151 226.019 17.4837 226.261 15.1619 226.865L14.5508 228.62C15.9911 229.215 17.5245 230.925 18.8018 231.426C21.499 232.488 29.253 231.412 32.0229 230.153C31.5545 232.267 33.1286 232.912 33.7774 234.569L31.9763 238.968C28.5663 239.802 19.2789 231.65 16.8727 233.334C16.2238 233.788 16.1831 234.307 16.381 235.038C16.8262 236.689 26.8119 240.952 29.0261 242.299C30.0008 242.892 30.6991 244.266 31.4177 244.593C32.5175 245.094 39.4045 245.592 40.1407 246.701C40.289 246.922 38.8779 249.399 40.999 250.218C41.6013 249.696 42.0814 248.815 42.8699 248.573C45.1975 247.86 53.7168 252.199 56.6788 253.24C67.258 256.964 77.9828 260.31 88.53 264.066C90.0546 264.608 97.992 267.448 97.6632 268.913C93.2697 273.966 87.2992 277.306 82.2482 281.605C62.9751 298.006 45.7736 317.14 27.1115 334.225C25.68 335.534 17.9114 342.4 16.9338 342.801C15.8893 343.229 14.9058 342.545 14.2599 342.975C13.2415 343.653 13.2415 347.557 15.127 347.471C27.1348 339.499 36.4979 328.199 46.9229 318.343C62.2244 303.879 77.4503 289.474 93.872 276.304C97.9949 272.996 101.274 267.969 107 267.512C105.778 269.423 106.942 271.092 107.012 273.085C107.349 282.696 106.476 292.422 106.887 302.024C107.355 313.018 109.633 323.944 109.147 335.021C108.743 344.222 108.589 351.787 108.528 360.941C108.26 399.681 110.841 438.937 111.088 477.753C111.117 482.467 112.415 487.228 111.076 492.175C106.642 492.161 102.63 490.359 98.4284 489.336C80.7905 485.05 63.0042 480.624 45.3576 475.786C31.5516 472.001 18.0132 466.918 3.90756 464.291L0 466.809L110.087 494.637C111.667 495.239 110.969 497.585 111.059 498.959C111.114 499.835 110.605 500.666 111.92 500.422C113.666 499.292 113.497 497.612 113.392 495.71L116.308 495.725C115.746 492.606 117.041 493.8 118.347 492.798C132.802 481.686 148.901 471.827 163.929 461.759C175.949 453.707 187.98 445.679 199.964 437.571C200.439 439.146 197.174 442.69 199.15 443.975C201.867 445.744 208.6 437.784 210.448 435.835C216.171 429.791 220.567 422.388 227.946 418.187C228.848 419.222 227.294 420.445 227.053 421.418C226.753 422.618 227.504 422.524 227.94 421.728C228.65 420.428 229.063 418.063 229.968 416.857C231.612 414.673 236.276 413.83 235.17 409.746L233.794 408.767C227.998 416.067 219.074 421.908 210.477 425.221C209.65 424.871 210.407 424.113 210.654 423.629C212.775 419.487 216.529 415.481 218.941 411.377C219.034 410.943 218.306 410.961 218.076 411.085C216.694 411.828 214.489 416.993 212.813 418.14L212.528 416.368C210.747 414.31 208.056 425.389 207.791 426.029C204.788 433.326 192.318 439.264 185.731 443.76C165.876 457.31 146.053 471.426 125.84 484.439C123.535 485.922 118.205 489.667 116.157 490.536C115.426 490.846 114.83 491.152 113.995 490.99C113.785 482.847 114.326 474.639 114.079 466.496C113.622 451.558 112.895 436.543 112.54 421.704C112.2 407.429 110.599 392.992 110.183 378.678C109.598 358.545 112.293 338.623 110.934 318.522C110.073 305.807 109.045 294.813 109.24 281.95C109.299 278.02 109.005 273.291 109.304 269.547C109.438 267.869 109.811 266.195 110.221 264.567C117.198 260.9 122.962 255.41 129.209 250.802C175.64 216.567 224.981 186.784 271.933 153.198C274.677 151.235 278.174 147.461 281.124 145.954C282.41 145.297 283.449 146.146 284.211 145.654C284.427 145.515 286.911 141.618 287.002 141.355C288.937 135.742 290.045 125.04 293.33 120.013C293.929 119.096 295.134 118.872 295.599 118.188C306.557 102.203 312.303 82.5 322.152 66.0135C324.029 62.8707 326.389 60.0847 328.713 57.2986C328.74 55.3823 324.98 54.7484 323.447 54.3239C308.64 50.2111 293.528 46.29 278.672 42.4101C237.515 31.6609 196.95 23.5916 155.238 15.6875C152.192 15.1096 148.558 12.6243 145.151 14.6055C144.921 19.6263 140.841 23.4885 138.217 27.6425C129.398 41.5905 120.704 55.7744 111.478 69.575C106.671 76.7627 101.475 83.7176 96.8601 91.038L96.8544 91.0351ZM148.467 17.6834C149.416 17.1262 151.048 18.6121 152.186 18.7536C161.491 19.9241 167.834 21.7549 176.72 23.4295C194.215 26.7256 211.888 28.7038 229.241 32.8255C259.593 40.0368 289.937 47.7936 319.793 56.8181C320.89 57.1512 323.543 56.5409 323.357 58.3629C323.281 59.1088 319.414 64.5748 318.649 66.0017C312.466 77.5234 307.567 89.5816 301.48 101.13C299.676 104.553 297.898 108.117 296.51 111.737C295.405 111.832 295.989 109.868 296.091 109.237C297.831 98.214 301.57 83.122 304.357 72.137C304.936 69.861 307.59 64.1827 307.703 63.083C307.773 62.4079 307.764 61.7534 307.153 61.3229C304.616 60.0965 304.73 62.284 302.996 63.6579C288.148 75.4066 267.161 86.6481 250.774 96.7782C236.695 105.481 222.359 113.848 208.588 122.994L207.192 123.327C193.973 122.422 181.98 117.224 169.533 113.595C149.012 107.61 127.696 102.448 107.466 95.0004C106.392 94.6054 100.657 92.521 100.491 91.9991L148.467 17.6805V17.6834ZM197.616 133.416C197.968 132.867 207.069 127.534 208.577 126.508C223.73 116.204 239.572 106.84 255.206 97.1467L301.873 68.1274C301.372 69.1121 300.365 70.0673 299.498 70.7307C291.773 76.6212 283.44 82.1727 275.599 87.7714C263.175 96.6396 250.579 105.269 238.025 113.94L237.163 113.651C238.414 111.982 242.27 110.122 239.782 108.052L222.179 121.148L221.955 123.875C207 132.452 192.946 142.62 178.48 152.013C171.648 156.45 164.159 160.3 157.348 164.776C152.887 167.706 142.226 177.176 137.778 177.954C136.268 178.22 137.69 176 136.934 175.053L158.782 159.734C159.312 159.587 158.782 162.173 160.435 162.028C161.002 161.978 168.491 156.639 169.946 155.737C171.401 154.834 173.807 155.144 173.019 152.441C172.472 150.56 169.94 152.977 170.429 151.506L186.184 140.945L187.043 141.234C186.088 141.541 181.229 147.414 184.872 146.12C185.838 145.778 197.081 136.278 197.593 135.385C198.105 134.492 197.415 133.734 197.613 133.425L197.616 133.416ZM137.303 183.662C138.04 183.04 138.543 181.649 139.852 180.652C145.375 176.442 152.651 171.692 158.514 167.739C197.101 141.709 237.972 118.996 275.206 90.9142L301.864 72.8446C298.879 86.3798 296.609 100.811 292.745 114.096C290.243 122.693 286.522 130.998 284.203 139.684C258.333 160.321 231.106 179.367 203.505 197.598C187.872 207.926 171.541 217.292 156.146 227.989C142.887 237.199 130.131 248.072 116.869 257.152C114.984 258.444 110.355 261.74 108.414 262.144C107.18 262.4 107.57 261.699 107.716 260.838C108.414 256.663 111.394 251.182 112.706 246.999C118.368 228.95 123.285 208.914 130.041 191.348C131.059 188.704 132.194 186.094 133.402 183.532C133.952 183.096 135.15 185.487 137.309 183.662H137.303ZM97.0173 95.3483L146.972 110.175L120.707 135.745C119.543 136.52 116.479 135.789 116.139 134.459C115.967 133.784 116.596 132.876 116.471 132.281C116.221 131.072 114.821 129.214 115.033 128.147C115.22 127.213 116.922 126.744 117.239 125.116C118.074 120.844 116.864 120.099 115.292 117.106C114.801 116.169 114.946 115.208 114.129 114.161C111.658 110.994 101.452 111.342 97.9455 112.557C93.2785 114.17 94.0233 117.675 92.1553 120.85C91.2126 122.451 89.336 123.121 88.9752 125.32C88.722 126.865 90.075 129.453 89.88 132.118C89.8073 133.109 88.53 138.239 87.759 138.363L53.2513 124.368L93.7614 95.2893C94.4132 101.233 94.2357 107.188 92.842 112.97C95.6876 113.368 96.5954 109.635 96.8601 107.318C97.3489 103.067 95.4577 99.349 97.0085 95.3483H97.0173ZM123.701 138.926C122.95 135.88 126.119 135.176 127.737 133.433C132.927 127.847 138.185 121.26 144.086 116.39C146.626 114.294 150.193 111.614 153.513 112.082C162.038 113.291 173.761 118.751 182.434 121.175C189.164 123.056 196.493 124.786 203.377 125.647C203.61 126.72 203.054 126.803 202.403 127.31C193.915 133.917 183.72 138.554 175.093 145.017C172.495 145.763 176.417 140.344 176.458 139.931C176.766 136.871 173.214 137.122 172.635 136.641C172.44 136.482 172.285 134.996 171.398 134.067C170.985 133.634 164.965 129.857 164.569 129.786C163.437 129.586 162.655 131.045 161.776 131.163C161.165 131.246 160.245 130.697 159.472 130.821C156.527 131.299 153.504 131.278 151.182 133.369C150.335 136.346 145.183 139.277 144.662 141.845C144.141 144.413 145.863 146.14 146.288 148.487L123.698 138.926H123.701ZM109.718 115.381L111.312 116.34L111.458 119.503C106.956 119.848 103.878 122.705 99.4003 120.768C97.96 120.146 95.4898 118.922 96.6216 117.103C99.1064 119.129 100.791 117.557 103.602 117.675C106.412 117.793 110.652 120.697 109.712 115.379L109.718 115.381ZM91.6113 139.498C91.9808 136.635 93.3803 133.198 93.4269 130.364C93.4792 127.239 90.6772 125.046 94.2444 122.97C97.6137 121.01 99.409 124.928 102.269 124.68C105.129 124.432 110.812 121.699 113.768 120.694C115.656 123.84 111.6 125.488 111.426 128.1C111.321 129.689 112.86 130.842 112.578 132.478C102.58 132.891 113.139 136.948 113.136 137.493C110.96 139.05 107.573 144.722 104.838 144.159C103.52 143.888 100.823 142.193 99.1471 141.606C96.7147 140.757 94.131 140.017 91.6084 139.492L91.6113 139.498ZM48.5436 144.103C49.0906 140.365 50.5744 136.732 51.3455 133.071C51.7034 131.373 50.8974 129.356 52.358 128.224C67.5635 133.817 82.3006 140.81 98.1637 144.374C99.3974 144.914 102.1 145.916 102.092 147.49L77.7908 170.053C74.2352 171.916 73.3071 169.458 70.9387 169.537C69.3907 169.59 68.0145 170.764 65.6664 170.705C64.3135 170.672 62.7831 169.785 61.2788 170.08C61.5872 169.021 62.8005 169.237 63.5483 167.966C63.7956 167.547 66.4521 160.734 66.5103 160.327C67.098 156.258 64.8635 156.748 64.3427 154.938C63.1817 150.896 64.6248 150.471 60.4612 147.087C56.5798 143.929 53.4346 143.779 48.5407 144.103H48.5436ZM162.742 133.97C164.447 134.17 169.056 134.686 169.05 137.06C169.044 138.861 160.374 141.532 158.517 141.217C157.26 141.001 152.5 138.705 152.195 137.49C151.104 133.174 160.394 133.696 162.742 133.97ZM157.286 152.11L150.036 150.306C150.498 147.535 146.332 142.912 148.886 140.774C150.6 139.339 154.423 142.971 156.771 143.513C163.17 144.993 171.008 138.817 172.201 139.126C174.497 139.719 171.296 142.254 171.002 143.216C170.094 146.181 171.718 148.646 167.522 150.303C164.697 148.272 169.771 144.38 166.37 143.802C162.588 143.16 163.158 150.126 164.185 152.379L131.717 175.389C133.687 178.842 131.394 180.145 130.207 183.249C127.198 191.121 126.102 197.194 123.625 204.922C120.681 214.111 116.189 223.448 113.314 232.844C110.509 242.01 108.929 252.034 104.783 260.811C101.728 267.28 100.692 265.575 94.3259 263.506C81.0116 259.178 66.6121 253.839 53.516 248.771C43.5681 244.92 48.6687 245.25 54.0572 241.07C61.9131 234.976 70.1996 226.606 78.4105 221.523C80.4588 220.255 82.126 221.296 80.9389 217.31C88.3001 220.158 95.7021 223.528 103.351 225.589C105.344 226.125 114.571 228.941 115.243 225.937C114.437 222.679 110.509 224.227 108.024 223.82C100.087 222.52 91.8353 218.047 84.4333 215.252C77.9216 212.794 71.4013 210.17 64.6656 208.415C64.4386 207.507 65.5414 208 65.844 207.445C66.455 206.325 66.8071 204.651 67.4617 203.291C68.1164 201.932 69.8999 201.234 69.3034 199.35C68.9979 198.383 67.0602 198.71 67.6043 197.528L69.9464 195.729C74.2497 198.822 85.0473 202.84 87.0985 195.511C93.0894 199.164 87.2934 201.195 84.6777 204.285L77.1943 203.141C76.0275 204.822 78.1225 205.677 79.3969 206.213C82.1842 207.389 85.0356 207.69 87.9394 206.714C88.853 209.061 85.9754 216.479 88.7948 216.774C89.4349 216.841 90.1768 216.774 90.5696 216.184C90.8431 215.774 92.0739 207.08 92.0506 206.393C92.0041 204.972 90.5726 203.975 90.8868 202.958C92.6849 202.23 94.2008 198.787 93.7236 197.088C93.5985 196.646 87.1829 191.339 86.7813 191.124C85.0705 190.21 82.3413 190.139 80.5839 188.512C74.3952 188.733 68.9106 191.932 64.0749 195.697C63.1846 199.305 64.9973 202.976 62.5823 206.685L32.1102 197.71C32.631 196.643 34.1265 196.991 35.3253 195.971C40.3938 191.664 46.4225 183.907 51.0574 178.889C52.3173 177.527 56.3703 173.128 57.7437 172.689C59.3177 172.185 66.8478 173.376 67.7206 174.458C69.094 176.165 67.5083 185.201 66.5045 187.427C72.2101 192.872 69.9523 179.956 71.41 177.748C71.5613 177.518 75.3525 175.56 76.0508 174.885L119.991 189.113C119.916 190.201 118.409 189.455 117.329 190.231C115.813 191.325 113.509 195.871 112.15 197.371C110.102 199.63 106.631 201.493 104.23 204.084C102.022 206.47 98.1782 213.062 95.8127 214.43C94.6576 215.099 92.7751 214.851 92.2601 215.538C90.8693 217.399 94.1048 218.77 95.7371 218.54L123.515 187.642C123.518 185.685 120.698 186.28 119.392 185.885C114.603 184.44 109.886 181.657 104.885 181.395C105.778 179.334 105.746 176.964 106.328 174.891C106.759 173.361 108.341 173.308 107.579 170.77C107.163 169.378 105.411 168.797 105.502 167.252C110.954 168.502 116.68 173.078 122.371 170.543C123.914 169.856 125.06 167.415 126.439 169.372C126.602 169.785 123.282 170.543 123.049 170.938C122.633 171.639 123.337 173.497 122.398 174.122C120.89 175.121 114.696 173.839 114.207 175.835C114.716 179.193 121.039 176.578 121.766 177.321C122.834 179.275 118.155 185.629 121.432 185.581C125.729 184.635 123.986 180.746 124.923 177.878C125.438 176.298 127.216 176.088 127.524 175.174C127.937 173.945 126.992 172.244 127.094 172.105C127.388 171.698 128.886 171.799 129.258 169.829C130.847 161.394 113.366 159.829 108.283 162.111C107.53 162.45 101.929 166.68 101.725 167.226C101.03 169.113 104.134 170.982 104.259 171.754C104.347 172.285 103.258 173.562 103.043 174.517C102.621 176.398 103.04 179.396 101.082 179.661L79.8885 172.202C87.5058 165.607 94.5616 158.364 102.033 151.615C103.706 150.106 114.408 140.362 115.266 140.25C115.991 140.155 116.622 141.249 117.507 141.346C118.473 141.45 119.235 140.692 120.678 141.016C130.739 143.263 144.598 153.422 154.258 154.882C155.119 155.011 155.942 155.238 156.766 154.761L157.263 152.119L157.286 152.11ZM48.078 147.184C49.7249 145.772 52.3144 146.951 53.1815 148.829C48.5697 147.853 42.4625 152.452 46.181 157.066C43.7427 157.01 38.168 154.274 40.3269 151.418C42.4858 148.561 45.7416 150.291 46.7833 149.749C47.9005 149.165 47.726 147.49 48.0809 147.184H48.078ZM58.4216 150.621C59.5593 150.141 60.4525 152.234 60.5805 152.836C61.1828 155.672 60.4641 158.228 57.2345 158.275C59.7949 155.731 58.3343 153.77 58.4216 150.621ZM54.3307 155.321C52.8614 155.082 47.2226 156.379 48.0169 153.337C48.9771 149.657 55.9659 153.688 54.3307 155.321ZM38.1418 160.118C38.2815 159.897 40.6499 158.906 41.1125 158.968C41.5751 159.03 42.288 159.805 43.0037 159.982C47.9326 161.2 54.4354 163.001 59.3992 161.371C61.1013 160.813 61.9305 159.08 63.6327 158.891C62.6638 162.488 59.8503 165.301 60.1121 169.493L37.4347 164.121C37.9235 163.151 37.7752 160.701 38.1447 160.118H38.1418ZM110.206 164.36C112.13 162.93 123.105 163.782 122.386 166.981C121.667 170.183 112.488 166.763 110.515 166.141L110.206 164.36ZM73.4379 193.117C75.1342 193.433 76.6589 191.646 77.942 191.451C79.9817 191.142 84.1511 194.072 83.3219 196.673C82.8971 197.109 72.7775 196.186 73.4379 193.117ZM27.9583 227.776L29.1367 224.84H29.7069L29.4218 227.201L27.9612 227.776H27.9583ZM33.2072 225.435C33.6087 225.067 38.3862 227.313 37.845 228.985C35.8869 228.322 34.5776 228.286 32.6165 228.97L33.2101 225.435H33.2072ZM200.823 441.687C200.36 441.227 203.514 435.705 204.305 434.897C205.938 433.229 212.01 428.986 214.297 427.341C214.826 426.961 216.703 425.366 217.148 425.82C217.396 426.928 216.529 427.217 215.984 427.878C213.447 430.965 206.232 438.745 203.095 440.764C202.376 441.227 201.78 441.87 200.82 441.69L200.823 441.687ZM207.253 429.319C207.832 427.503 208.748 426.592 210.75 426.982C210.552 427.742 207.721 429.726 207.253 429.319Z" fill="#3F2C22"/>
<path d="M543.426 52.2749C542.821 54.2354 545.207 54.8634 545.606 56.2078C546.464 59.097 544.823 60.9072 544.59 63.2098C542.539 83.4817 543.633 112.05 528.11 126.823C518.052 136.393 507.013 143.272 499.247 155.949C493.821 164.805 490.85 181.808 490.658 192.183C490.204 216.606 488.412 241.577 488.77 265.829C488.921 276.009 489.442 286.069 489.823 296.222C487.719 294.421 485.773 292.157 484.042 289.998C477.719 282.124 471.563 271.891 464.87 264.626C464.399 264.116 462.645 261.911 461.981 262.545C469.363 272.439 476.276 282.82 483.771 292.622C485.284 294.598 488.447 297.172 489.486 298.625C491.452 301.37 489.436 322.889 489.381 327.868C489.352 330.457 490.457 340.79 489.439 342.256C489.008 342.875 487.469 342.477 487.175 343.509L483.856 357.527C483.448 351.071 483.294 344.608 483.902 338.075L481.569 338.063C482.703 335.062 482.022 331.545 482.148 328.319C482.398 321.863 484.609 313.602 482.514 307.417C482.241 306.612 481.478 304.748 480.69 304.513L478.121 305.441L472.889 321.53L471.789 292.64C470.809 292.451 470.253 293.121 469.791 293.852C468.813 295.397 469.235 298.085 467.707 299.111C467.684 297.174 467.364 295.072 466.849 293.212C466.244 291.033 464.018 284.108 463.09 282.445C462.84 281.997 461.417 281.328 461.353 281.407C463.421 291.007 469.343 299.999 465.33 310.008C465.828 312.738 466.058 307.809 467.099 308.841L465.921 338.865C466.136 340.56 466.485 341.613 468.391 340.908C470.023 340.304 469.156 337.362 470.509 336.86C471.528 342.851 464.219 369.895 466.61 373.433C469.011 376.986 473.34 366.487 474.746 365.107L478.025 356.339C478.205 359.768 474.923 375.506 477.35 377.31C479.692 378.404 479.491 376.941 480.885 375.803C481.065 377.785 480.635 380.075 480.873 382.004C481.004 383.074 480.672 382.962 482.034 382.879C482.343 377.342 482.427 371.732 483.402 366.239C484.356 360.865 486.576 352.179 488.377 347.041C488.712 346.088 488.08 345.463 489.692 345.755L489.544 402.358C488.956 402.971 482.916 398.596 482.043 397.865C478.438 394.855 472.851 387.959 470.151 383.976C469.529 383.059 466.75 376.44 465.758 377.531C465.647 378.357 465.796 379.111 466.026 379.904C467.367 384.577 476.744 396.01 480.556 399.369C483.844 402.264 498.156 412.615 501.813 414.404C506.632 416.76 507.027 416.315 512.087 416.132C513.042 416.097 513.271 415.858 513.944 416.872C513.914 417.603 509.277 418.376 509.352 422.179C509.393 424.299 511.878 426.035 512.047 426.961C512.169 427.633 511.564 428.842 511.569 429.812C511.639 441.466 512.323 454.978 511.523 466.42C511.351 468.864 510.563 471.332 510.315 473.77L507.676 473.734C508.287 483.101 503.472 484.787 496.533 488.396C493.082 490.188 488.613 491.615 485.293 494.092C478.898 498.859 477.28 503.19 475.572 510.793C471.9 527.121 471.827 543.501 471.717 560.023C471.647 570.35 471.65 580.684 471.606 591.003C464.065 583.768 459.246 572.939 452.458 565.321C451.716 564.486 450.532 562.461 449.581 564.115C456.383 572.641 462.377 581.904 468.385 591.023C468.99 591.943 469.022 593.187 469.453 593.768C469.884 594.349 471.251 594.411 471.525 595.528C471.72 596.321 470.998 597.813 470.984 598.936C470.477 635.276 469.843 672.424 470.754 708.61C470.89 714.017 471.851 731.013 472.962 736.294C470.893 734.425 466.154 723.885 464.097 721.199C460.515 716.52 454.841 710.288 450.934 705.65C438.131 690.449 423.08 675.422 411.945 659.086C407.424 652.452 404.005 644.76 399.248 638.363C398.506 637.363 398.337 637.207 397.01 637.39L404.648 651.149C418.751 672.978 436.906 691.507 453.247 711.552C455.283 714.049 457.3 717.991 459.331 720.123C462.167 723.104 469.788 737.193 471.208 740.433C471.405 740.884 472.907 738.281 472.819 738.764C472.689 739.496 470.844 739.313 471.208 740.433C471.475 743.426 473.739 744.024 474.996 745.501C477.286 748.196 480.606 752.683 483.585 754.487C507.991 769.264 547.139 767.816 567.215 746.023C577.416 734.949 574.413 722.154 575.484 708.333C576.485 695.393 577.989 682.515 578.507 669.44C579.886 634.63 575.263 600.21 575.845 565.624C577.629 545.521 574.239 525.588 568.74 506.33C565.449 505.873 565.979 504.325 564.256 502.028C557.969 493.638 547.575 487.013 542.565 479.787C540.392 476.653 539.37 471.473 539.382 467.655C539.411 457.596 542.28 447 541.297 436.958C541.116 435.125 540.502 434.718 540.107 433.164C548.85 431.802 551.893 426.121 544.224 419.906C550.255 417.842 547.843 411.45 544.206 408.148C542.385 406.494 530.674 399.274 530.287 404.826C536.01 406.049 545 409.59 544.718 416.589C541.969 418.025 539.775 418.998 536.851 420.095C533.65 421.294 534.66 422.615 537.514 422.6C539.143 422.592 540.619 421.33 541.701 421.796C543.359 422.509 546.278 425.911 545.076 427.863C543.65 430.177 535.274 431.893 532.542 431.374V433.129C535.928 433.81 537.791 432.955 538.291 437.047C539.606 447.778 536.644 458.663 537.086 470.034C537.491 480.439 541.526 495.295 548.428 503.281C548.719 503.617 550.651 505.669 550.814 505.717C551.311 505.861 553.7 506.221 553.299 504.844C546.97 498.945 544.392 490.206 541.148 482.387L542.295 482.107C546.866 489.009 554.599 493.452 559.711 500.139C563.293 504.823 563.898 509.514 566.048 513.01C566.462 513.68 567.57 513.706 568.286 515.018C570.803 519.623 573.235 538.053 573.564 543.811C574.035 552.098 572.784 560.303 573.541 568.496C560.215 577.037 543.796 582.627 527.799 581.71C519.143 581.215 501.002 577.665 493.809 573.039C492.855 572.426 490.545 568.974 489.203 571.09C488.764 571.78 489.221 581.601 489.084 583.67C486.864 616.732 486.096 646.647 487.69 679.776C487.778 681.598 488.822 684.187 488.805 685.779C488.79 687.253 487.53 687.914 487.621 689.187C487.769 691.26 491.767 692.312 493.446 692.793C502.765 695.464 516.111 697.094 525.684 696.03C528.675 695.697 537.249 692.752 539.024 693.3C539.926 693.58 540.526 695.154 541.46 694.963C543.167 693.719 541.873 693.262 541.186 692.023C543.069 691.758 545.195 691.643 547.028 691.168C555.007 689.105 567.204 683.857 573.75 678.777C574.504 678.19 574.614 677.014 575.554 676.778C575.321 688.718 573.573 700.564 572.563 712.449C572.033 718.687 573.337 722.184 570.5 728.08C569.223 730.733 571.501 729.843 571.321 731.795C570.104 745.029 551.21 755.661 539.851 758.942C523.81 763.574 496.952 761.053 483.215 750.743C482.616 750.295 476.337 743.617 476.148 743.134C475.779 742.196 476.57 741.35 476.424 740.539C471.007 710.031 473.026 677.158 473.195 646.117C473.34 618.934 473.931 591.981 474.033 564.749C474.103 546.432 473.643 522.725 479.96 505.212C482.927 496.981 492.875 492.482 500.321 489.298L508.549 484.386C506.48 489.071 504.484 492.742 501.002 496.515L502.951 497.957C504.025 495.472 506.833 494.145 508.212 492.022C510.699 488.187 512.489 479.814 513.173 475.2C515.395 460.181 512.495 444.668 514.534 429.588L522.067 430.758C522.509 427.518 519.239 428.258 517.418 427.512C514.933 426.495 513.484 424.422 512.259 422.085C512.108 420.33 517.508 419.148 517.959 417.367C518.619 414.752 513.594 413.482 514.822 410.707C515.774 408.564 523.388 406.886 525.623 405.415L525.591 407.739L518.648 409.82C520.589 412.149 517.525 414.838 521.683 416.742C525.943 418.697 538.128 418.284 540.188 412.795C540.52 409.095 531.695 405.457 528.538 405.418L529.705 402.791C529.207 401.981 528.579 401.842 527.686 401.839C524.884 401.833 518.023 406.996 514.589 407.476C512.922 408.947 510.958 411.38 512.227 413.632C506.114 415.82 497.563 409.891 494.542 404.696C490.626 397.959 491.898 381.296 491.77 373.191C491.31 343.706 492.945 314.256 492.209 284.721C491.892 272.032 490.743 259.906 491.092 246.978C491.543 230.141 492.965 212.994 493.579 196.295C494.449 172.598 496.658 160.71 512.902 143.272C526.827 128.321 539.53 126.154 543.237 102.636C543.479 101.109 543.089 99.4581 543.301 97.9722C545.102 85.4747 546.682 73.0745 548.05 60.5328C549.819 59.9815 549.595 61.3613 550.241 61.6679C555.76 64.2859 557.456 65.188 563.433 65.2677C567.663 65.3237 572.726 65.6804 576.846 65.3325C579.357 65.1202 581.842 63.4368 584.699 64.1739C582.883 75.0675 582.08 86.3327 583.599 97.3325C587 122.015 598.15 131.703 610.1 151.193C626.545 178.019 622.157 207.295 622.058 237.355C621.994 256.672 622.931 276.213 621.339 295.694C620.722 303.242 619.788 309.165 619.576 316.904C618.895 341.645 616.789 368.371 614.124 392.986C612.648 406.603 614.848 412.146 601.059 418.7C587.792 425.003 574.995 425.428 560.759 426.13C558.23 426.253 555.62 427.188 552.929 426.725L553.179 428.526C554.27 430.051 571.094 428.75 574.018 428.403C583.442 427.285 593.076 425.201 601.81 421.238C604.903 419.835 607.068 417.848 609.974 416.259C609.39 423.211 607.501 430.245 607.024 437.188C606.201 449.129 606.015 461.137 605.174 473.139C603.038 503.588 603.582 533.963 602.593 564.51C602.314 573.125 602.855 581.784 602.471 590.398L601.673 591.348C600.061 589.868 597.67 587.745 595.88 586.613C594.333 585.634 592.188 585.227 590.384 583.918C588.537 582.577 582.229 575.666 580.268 576.067L578.734 577.444C582.671 579.835 585.889 583.225 589.567 585.923C597.422 591.684 602.468 595.236 609.497 601.708C629.812 620.42 660.758 626.502 685.536 612.932C689.683 610.661 693.41 605.997 698.56 604.296C699.715 603.913 700.858 605.016 702.025 604.34L704.353 600.166C705.653 599.154 708.336 601.351 709.011 599.6C709.957 597.144 705.083 597.506 703.785 597.521C704.897 589.891 705.662 581.999 706.165 574.236C709.052 529.795 712.948 484.324 712.694 439.901C712.639 430.422 712.636 420.316 712.374 410.926C712.348 410.012 712.985 409.171 713 408.263L710.745 407.579C711.397 403.888 709.148 401.813 708.071 398.808C706.162 393.475 704.929 387.694 701.676 382.906C696.255 374.928 687.591 371.977 681.678 364.836C680.285 356.779 680.151 348.27 680.587 340.071C680.849 335.159 681.774 324.634 683.081 320.144C683.631 318.251 686.758 317.753 686.942 315.784C687.125 313.814 684.684 310.698 684.774 308.805C684.826 307.75 686.086 306.942 686.369 305.763C687.279 301.968 684.815 297.475 681.824 295.293C678.187 292.643 667.084 289.713 663.112 291.535C661.532 292.26 656.548 297.811 655.809 299.456C653.656 304.227 657.767 304.778 657.433 306.942C653.729 308.988 651.905 312.832 655.044 316.426C655.096 316.742 654.037 316.583 653.886 317.107C652.155 323.181 652.454 336.232 651.404 343.453C650.557 349.258 648.774 354.918 648.087 360.765C647.013 363.35 644.174 362.569 642.157 363.595C637.458 365.983 632.064 372.944 626.574 375.211L617.618 387.956L620.056 345.222C622.43 327.52 622.221 309.934 623.684 292.162C625.677 267.987 625.081 243.826 625.034 219.639C625 200.57 626.577 179.768 618.692 161.916C609.809 141.8 592.939 128.189 587.757 105.47C585.47 95.4338 584.164 75.0204 587.291 65.3266C588.266 62.3076 591.321 61.7799 591.63 60.8335C592.197 59.0941 590.09 57.6347 590.617 55.7537C590.978 54.4654 594.487 52.098 594.516 49.6215C592.779 45.5647 588.534 43.7014 590.582 38.8221C587.492 39.5887 586.936 37.177 584.964 35.9535C578.976 32.2417 576.267 32.0884 569.61 30.8531C568.568 30.6585 567.66 29.6207 566.947 29.5087C564.698 29.1579 549.225 35.8179 547.843 37.5603C546.281 42.9084 539.772 46.0246 546.313 50.7919L543.429 52.2808L543.426 52.2749ZM567.474 31.7729C568.938 32.0796 569.639 33.6215 570.637 33.9193C572.546 34.4883 575.377 34.1757 577.783 34.9482C583.64 36.8262 591.359 42.7197 583.395 47.7493C578.077 51.1074 568.117 50.0165 561.911 49.1822C559.656 48.8785 551.751 46.4315 550.404 44.9014C549.603 43.9904 548.891 40.0162 549.836 38.9931C550.366 38.4212 560.875 33.2294 562.263 32.7282C563.794 32.1739 565.856 31.4339 567.474 31.77V31.7729ZM575.403 57.6436L583.841 57.6671C584.361 57.6671 587.265 56.0781 587.623 56.4996C587.591 58.0475 588.086 59.5953 586.701 60.58C586.189 60.9426 575.685 62.8442 574.425 62.9061C570.625 63.0978 563.756 63.1774 560.037 62.8943C557.291 62.685 554.201 59.6601 550.959 60.524L552.12 59.0675C551.541 57.8558 548.154 57.844 548.175 54.8015C548.186 52.9795 551.37 53.2684 550.741 50.4676C550.101 48.3007 545.382 48.1356 546.636 45.1814C551.256 49.1792 558.478 51.8267 564.631 52.3309C570.491 52.8114 579.467 53.0738 584.46 50.0224C585.548 49.3561 588.746 46.0276 589.386 46.4846L591.126 50.329C588.033 55.8393 580.832 55.2172 575.403 55.8805V57.6465V57.6436ZM663.633 295.957C663.767 295.818 663.677 293.315 666.156 293.746C665.053 295.111 664.942 295.55 665.559 297.242C655.736 302.045 664.439 307.7 672.094 306.585C677.224 305.839 684.364 302.77 677.488 297.903L670.814 294.35C677.905 294.097 689.816 302.449 680.689 308.841C678.769 310.185 677.11 309.84 675.426 311.17C674.87 313.705 681.189 311.821 682.097 310.881L683.843 315.624C682.473 317.252 680.689 318.576 678.629 319.159C675.699 319.991 673.025 319.018 670.753 320.583C673.726 322.582 677.387 321.777 680.628 321.497C680.552 322.886 679.711 323.959 679.502 325.368C678.006 335.439 677.014 350.614 678.262 360.638C678.879 365.588 680.855 370.741 681.332 375.777C687.02 377.97 682.758 372.363 683.124 369.857C688.053 374.491 693.925 377.307 698.24 382.85C702.54 388.378 709.645 408.039 710.096 415.009C710.393 419.596 709.197 425.28 709.427 430.387C711.161 469.053 708.388 504.484 705.694 543C704.775 556.122 704.423 569.401 703.235 582.471C702.944 585.681 702.179 596.477 701.132 598.656C699.494 602.064 694.559 602.984 691.807 604.529C689.24 605.971 686.895 608.875 684.163 610.34C682.045 611.478 669.19 616.59 667.299 616.808C650.808 618.716 631.305 616.201 617.676 605.794C598.415 591.085 605.645 574.08 606.16 552.758C606.791 526.566 605.872 501.035 607.495 474.899C608.528 458.244 608.395 438.751 611.284 422.595C612.352 416.627 614.633 410.566 615.666 404.593C616.387 400.418 616.649 395.757 617.048 391.514C620.51 392.066 620.437 388.431 622.023 386.237C626.565 379.963 628.738 378.18 634.491 373.516C636.306 372.041 641.93 366.555 643.289 365.924C647.115 364.155 646.315 366.711 645.236 369.087C644.156 371.464 641.014 374.512 640.415 376.605C640.147 377.537 640.944 377.708 641.511 377.723C642.533 377.746 645.931 373.451 646.635 372.286C648.07 369.916 648.748 366.107 649.981 364.456C650.589 363.639 651.884 363.315 651.945 363.215C652.55 362.191 650.976 361.062 650.921 360.075C650.642 355.187 654.244 341.97 654.989 335.864C655.198 334.148 654.834 332.308 655.021 330.575C655.489 326.188 656.912 321.795 656.211 317.308C657.302 316.745 664.683 321.084 666.089 317.623C666.071 315.739 653.124 316.323 656.868 310.595C659.481 306.6 665.836 312.122 666.697 309.365C667.442 306.977 664.328 307.493 663.211 307.01C660.706 305.922 656.193 302.649 658.87 299.633L660.901 301.98L660.336 297.266C661.169 297.95 663.019 296.605 663.636 295.963L663.633 295.957ZM468.193 335.672L468.278 302.947C468.278 302.101 470.084 296.773 471.199 296.175C470.693 299.45 471.67 302.794 471.787 305.881C471.967 310.686 471.141 316.739 471.679 321.273C471.792 322.22 472.249 322.078 472.895 322.42L472.875 323.894L471.723 323.293C471.848 327.332 470.809 332.541 468.193 335.669V335.672ZM669.054 299.058C671.224 298.457 672.048 301.485 673.54 301.921C674.148 302.101 678.879 300.91 677.186 302.605C676.706 303.086 668.48 304.905 667.875 304.353C668.032 302.304 670.043 301.243 669.051 299.058H669.054ZM663.811 301.986C663.197 301.228 666.159 298.413 666.72 299.052L665.862 302.063L663.811 301.986ZM479.331 306.809C480.317 306.621 480.536 307.039 480.926 307.838C482.229 310.515 481.711 322.32 481.574 326.005C480.987 341.796 478.813 359.441 468.106 371.641C468.126 357.707 471.455 344.001 472.316 330.118L479.331 306.812V306.809ZM478.572 374.612C478.522 367.286 478.804 359.839 479.864 352.583C480.175 350.461 480.326 346.955 482.127 345.735C482.284 346.625 482.596 347.247 482.564 348.211C482.343 355.122 482.328 367.168 479.881 373.321C479.526 374.214 480.219 374.919 478.569 374.612H478.572ZM528.523 409.543C531.209 409.021 533.717 408.661 535.501 411.318C532.128 412.921 530.537 412.995 528.523 409.543ZM529.673 414.841C527.802 414.826 520.79 415.61 521.538 412.179C522.719 410.339 523.534 413.116 525.221 412.945C525.949 412.871 527.287 411.503 527.88 411.931L529.673 414.841ZM492.02 575.722C492.386 575.295 495.826 577.473 496.681 577.783C518.794 585.802 538.442 587.353 560.669 578.546C563.916 577.261 568.987 573.909 571.6 573.128C572.225 572.939 572.854 572.948 573.494 572.995C573.378 574.092 572.845 575.091 572.848 576.229C572.924 606.899 578.01 637.64 576.183 668.252C576.06 670.304 575.219 672.294 575.554 674.417L574.108 673.317C566.287 681.463 556.162 685.511 545.513 688.447C534.616 691.451 522.55 694.128 511.217 693.105C505.244 692.566 498.514 690.039 492.418 689.411C489.343 682.757 491.106 675.605 490.606 668.594C488.555 639.866 489.299 615.281 491.397 586.622C491.662 583.007 491.272 579.334 492.017 575.725L492.02 575.722Z" fill="#3F2C22"/>
<path d="M379.023 390.27C377.958 398.186 378.604 406.2 378.4 414.177C377.868 435.178 378.066 456.222 378.194 477.213C378.206 479.33 378.974 482.992 379.358 485.203C378.098 485.085 377.347 484.062 376.466 485.489C377.164 486.963 377.984 488.708 379.105 489.899C382.433 493.431 387.752 496.766 392.314 498.906C401.343 503.143 405.256 503.066 415.122 503.019C423.505 502.978 437.829 501.84 445.26 497.65C446.374 497.022 454.12 491.023 454.192 490.451C453.753 487.768 453.186 484.259 453.215 481.574C453.325 471.641 454.646 461.52 454.536 451.481C454.393 438.875 452.054 424.449 452.839 411.966C453.148 407.084 455.016 401.179 455.251 396.644C455.656 388.823 448.914 396.444 445.874 398.369C428.768 409.201 398.808 405.05 383.117 392.912C381.645 391.774 381.741 389.619 379.023 390.276V390.27ZM381.342 394.999L389.844 399.652C403.001 406.208 418.154 409.118 432.647 406.173C440.046 404.669 446.47 401.801 452.319 396.954C452.071 401.474 450.791 406.385 450.517 410.778C450.163 416.424 451.323 422.742 451.507 428.473C452.118 447.472 453.919 469.053 449.898 487.612C449.714 488.452 450.401 489.248 450.066 490.097C449.822 490.722 444.983 494.782 444.119 495.303C435.353 500.584 414.241 500.976 404.136 500.395C398.744 500.086 387.796 493.897 383.961 490.28C382.916 489.295 381.845 487.564 381.656 486.12C380.984 480.975 381.38 474.295 381.138 469C380.175 447.949 380.641 426.878 380.696 405.928C380.705 402.287 380.396 398.505 381.339 394.996L381.342 394.999Z" fill="#3F2C22"/>
<path d="M607.539 233.428C608.051 232.163 609.864 232.691 609.288 230.5C606.3 230.241 603.902 232.175 601.01 232.998C586.66 237.078 580.16 239.348 564.73 239.195C552.923 239.077 544.442 238.697 533.243 233.935C531.02 232.989 527.467 230.442 525.524 229.94C524.759 229.743 523.926 229.76 523.755 230.574C523.49 231.83 526.813 232.8 527.075 234.106C524.849 240.754 525.125 249.399 525.407 256.539C525.838 267.389 525.87 273.869 525.332 284.792C524.683 297.953 525.183 311.562 521.273 324.227C521.36 324.711 524.025 327.308 524.657 327.868C536.851 338.656 573.576 336.63 588.781 332.866C593.352 331.733 597.114 328.688 602.087 329.888C604.007 324.832 603.693 319.257 603.838 313.923C604.473 290.762 605.281 267.636 606.937 244.354C607.071 242.467 607.501 239.498 607.891 237.641C608.339 235.521 610.667 233.982 607.542 233.428H607.539ZM528.998 235.619C533.912 236.332 538.486 239.021 543.476 240.082C552.918 242.09 575.787 242.759 584.827 240.168C587.335 239.448 589.93 237.965 592.404 237.243C597.196 235.84 602.241 235.206 606.951 233.446C603.352 240.404 605.075 249.608 604.557 257.309C603.501 273.017 602.381 288.728 601.508 304.454C601.281 308.522 602.154 323.779 599.736 326.294C599.323 326.724 590.975 329.87 589.686 330.248C577.451 333.827 553.348 334.522 540.822 332.152C534.389 330.934 529.044 328.779 524.389 324.068C526.656 312.688 526.446 301.099 527.092 289.547C527.453 283.114 528.733 276.466 528.823 270.024C528.943 261.704 527.29 253.122 527.755 244.702C527.918 241.73 528.573 238.57 528.998 235.622V235.619Z" fill="#3F2C22"/>
<path d="M412.175 623.268C410.906 621.738 417.564 603.412 418.463 600.416C419.507 596.931 425.03 582.485 419.557 581.43C409.603 579.51 406.173 591.639 397.13 590.215C396.856 592.751 398.148 592.683 400.161 592.441C406.609 591.669 411.157 582.674 418.416 583.429C422.175 584.045 419.001 593.744 418.349 596.165C416.123 604.435 413.036 613.005 410.607 621.384C410.112 623.094 408.105 624.427 410.083 626.269C411.765 627.684 415.832 623.557 417.127 622.115C427.049 611.065 429.027 592.957 435.455 580.483C435.996 579.431 436.365 577.724 437.884 577.945C441.166 586.512 439.58 597.486 437.651 606.369C434.413 621.287 427.418 635.677 422.583 650.109L424.331 650.742C434.765 638.136 439.676 622.248 446.389 607.56C446.77 606.725 446.048 605.953 447.71 606.277C448.437 630.577 437.215 652.703 432.702 676.115L433.351 677.621C434.684 677.68 435.766 677.294 436.779 676.424C445.298 669.101 452.435 640.612 455.976 629.167C456.168 628.551 456.133 627.387 456.965 627.528C458.062 638.195 458.816 650.129 458.074 660.867C457.597 667.745 455.4 675.159 454.585 682.144C454.326 684.382 452.182 695.983 456.788 693.875C460.337 692.25 465.452 677.857 467.233 673.924L465.889 672.515L464.521 673.069C463.241 678.671 461.056 685.82 457.294 690.225C456.773 690.832 456.73 691.463 455.644 691.201C455.234 682.061 458.135 673.264 459.127 664.31C459.991 656.53 459.604 649.021 459.232 641.411C459.08 638.286 459.142 625.485 457.425 623.545C457.169 623.256 456.444 623.182 456.098 622.852C455.513 623.25 455.132 623.884 454.917 624.55C453.191 629.931 452.356 636.992 450.695 642.711C447.521 653.638 443.258 667.6 434.739 675.224C435.923 670.929 436.296 665.867 437.352 661.633C439.563 652.765 443.395 643.519 445.609 634.571C448.303 623.678 449.255 613.377 449.197 602.132C448.426 600.912 446.555 602.179 446.101 603.149C440.826 617.221 435.778 631.924 426.674 643.953C428.021 639.881 429.12 635.665 430.505 631.605C435.813 616.042 443.77 598.179 440.741 581.244C440.186 578.128 438.044 573.644 435.076 577.736C432.577 581.182 429.56 593.09 427.648 597.955C424.727 605.39 421.259 614.364 415.966 620.346C415.524 620.847 412.731 623.949 412.172 623.274L412.175 623.268Z" fill="#3F2C22"/>
<path d="M306.318 384.165C310.043 384.041 312.667 387.128 316.039 388.186C329.842 392.52 352.235 394.917 365.79 389.507C367.981 388.634 372.276 387.015 369.439 384.365C360.899 389.978 348.019 391.043 338.004 390.155C333.479 389.754 320.471 386.679 316.188 385.093C313.895 384.244 312.356 382.169 309.883 381.75C308.978 375.612 310.526 369.724 310.997 363.845C312.46 345.561 313.671 327.199 314.081 308.994C314.241 301.927 313.811 294.895 314.64 287.717C314.744 286.817 313.464 285.255 315.326 285.373C317.896 285.535 320.2 287.823 322.432 288.816C339.269 296.302 361.356 299.002 378.683 291.493C380.868 290.547 382.433 289.176 384.516 288.28C385.884 293.99 384.685 300.019 384.694 305.771C384.708 314.404 385.2 322.968 384.38 331.583C384.214 333.328 382.04 334.461 384.676 335.905C388.468 334.64 386.533 331.256 386.716 328.057C387.411 315.834 387.371 303.634 387.455 291.532C387.481 287.802 387.228 288.147 385.314 285.718C384.394 284.547 384.935 282.1 382.151 284.406C380.626 285.668 381.904 286.661 380.705 287.602C378.467 289.356 371.377 291.658 368.461 292.319C354.862 295.4 336.319 292.976 323.785 286.865C321.486 285.744 316.202 281.522 314.276 281.104C313.435 280.921 312.833 281.174 312.33 281.85C311.174 283.4 311.841 307.181 311.748 311.4C311.387 327.974 310.316 344.806 308.675 361.481C307.933 369.022 306.281 376.502 306.318 384.165Z" fill="#3F2C22"/>
<path d="M76.6182 311.635C75.4922 311.736 76.176 310.465 76.3331 309.867C77.1391 306.842 82.7807 295.671 79.5976 293.631C78.8964 293.18 78.5298 293.318 77.8373 293.642C73.9036 295.494 66.5918 317.983 62.0587 321.624L62.0703 315.135L59.2509 315.226L45.7039 343.697C44.4906 344.517 45.41 342.701 45.506 342.312C45.9744 340.431 49.0819 330.973 46.0239 330.991C42.9659 331.008 40.5248 341.259 39.4046 343.783C36.9954 349.219 34.2081 354.491 31.6826 359.865C30.6031 359.998 31.2258 358.66 31.3712 358.07C32.0143 355.455 35.4359 345.967 32.9249 344.216C30.5827 342.981 29.384 345.726 28.5286 347.486C25.1622 354.411 23.0294 363.055 19.5496 370.267C18.2228 373.017 16.1308 375.373 15.0543 377.513C14.5945 378.43 15.255 379.291 15.6391 379.276C19.0433 379.153 29.3374 351.156 31.153 346.902L32.3139 347.206C31.7408 348.627 31.7553 350.166 31.444 351.64C31.0075 353.695 26.0409 365.146 29.643 365.163C36.2652 357.613 39.1981 347.66 43.3937 338.682C44.4237 338.535 43.9581 340.012 43.8301 340.602C43.5246 341.99 38.9449 351.802 42.4742 351.056C42.8815 350.971 46.9986 345.301 47.5572 344.405C51.1419 338.659 55.5033 325.743 58.8581 321.627C59.0967 321.335 59.3265 320.964 59.7193 321.031C60.2198 321.707 58.2558 326.173 58.0871 327.364C57.8951 328.738 57.6128 330.289 59.4022 330.463C66.295 320.878 70.4237 309.474 76.3505 299.244L77.8169 298.085C78.2767 303.36 72.5099 310.2 72.507 314.896C72.507 316.839 73.6621 317.629 75.1925 316.394L98.5885 276.956C99.1879 274.833 97.2792 274.862 95.9495 276.053L76.6153 311.638L76.6182 311.635Z" fill="#3F2C22"/>
<path d="M555.178 454.126C554.864 452.03 552.647 447.557 549.955 447.926C556.453 455.352 552.292 465.88 553.351 474.787C553.566 476.6 553.979 477.148 555.97 476.842C559.298 476.329 562.47 464.621 564.349 461.691C564.853 460.907 565.05 460.105 566.217 460.346C567.46 461.829 562.112 484.047 562.257 488.464C562.339 490.99 564.119 491.931 565.83 489.796C568.839 486.046 569.886 478.914 573.162 475.102L571.958 487.741C572.147 489.31 573.447 489.882 574.879 489.852C575.478 491.388 573.84 490.787 573.701 491.403C573.314 493.122 572.819 502.323 576.008 501.053C577.745 493.93 574.541 488.558 579.386 482.349C579.659 481.998 579.796 480.76 580.71 481.609C582.237 483.027 580.273 493.328 579.831 495.778C579.296 498.753 577.416 503.671 577.268 506.235C577.166 507.99 578.312 508.936 580.038 508.706C583.151 502.583 583.936 495.333 588.257 489.885C588.941 500.091 583.372 510.177 581.923 519.783C581.679 521.395 581.335 525.225 583.806 523.477C586.802 516.985 588.071 508.694 592.875 503.458C592.79 510.599 591.187 517.781 589.922 524.677C590.047 524.854 590.634 524.379 590.797 524.096C591.487 522.893 593.058 513.963 593.358 511.926C593.623 510.133 594.772 500.439 594.047 499.926C593.422 499.481 591.766 500.304 591.458 501.126L584.705 516.996C585.353 509.464 588.19 502.261 589.244 494.729C589.5 492.898 590.087 490.295 589.878 488.573C589.485 485.347 587.021 487.402 586.023 489.083L580.084 504.013C580.102 499.018 584.323 483.926 581.836 480.191C581.481 479.657 581.178 479.221 580.46 479.253L577.233 481.6C577.116 478.342 577.611 474.029 576.404 470.963C575.833 469.518 574.853 469.539 574.536 469.032C573.5 467.366 574.373 465.358 570.87 465.668L572.502 470.533C569.447 475.919 568.458 482.703 564.413 487.464C564.099 479.693 567.425 471.6 567.948 464.176C568.071 462.454 568.562 456.284 565.594 457.083C562.312 457.964 559.33 472.953 555.129 475.058C554.448 468.655 556.106 460.273 555.184 454.126H555.178ZM574.303 486.308L574.309 481.294L574.891 479.242C574.582 480.904 575.251 482.606 575.246 484.153C575.246 484.64 575.123 486.482 574.303 486.308Z" fill="#3F2C22"/>
<path d="M213.796 453.135C215.091 451.67 217.41 449.759 218.839 448.226C218.108 451.157 216.924 454.32 215.557 456.997C211 465.919 203.95 474.654 199.083 483.375C197.805 485.663 195.099 491.197 199.854 489.478L218.789 466.502C216.319 478.401 210.852 489.195 205.434 499.926C204.902 501.047 205.676 503.39 206.84 503.585C209.237 503.989 219.365 484.103 222.54 481.845C223.165 485.459 221.591 489.967 221.609 493.364C221.615 494.266 221.783 495.18 222.787 495.407L224.585 476.541L222.589 476.506C219.019 483.941 214.3 491.438 209.537 498.163C209.348 498.429 208.603 500.018 208.23 499.198C213.924 487.084 218.303 474.572 222.295 461.8C221.478 461.726 220.75 461.732 219.982 462.101C218.12 462.994 206.738 479.245 203.921 482.396C203.005 483.422 201.925 484.31 200.994 485.327L200.715 484.454C203.546 480.347 205.935 475.925 208.405 471.591C211.091 466.883 214.399 461.986 216.811 457.098C218.033 454.621 220.957 445.449 222.528 444.258C223.27 443.695 224.544 444.877 224.108 442.64C223.066 442.059 221.862 440.564 220.875 441.702C216.462 447.958 211.894 454.211 206.892 459.999C205.53 461.576 203.325 464.356 201.934 465.588C201.477 465.995 200.735 467.107 200.18 466.166C201.093 465.161 201.803 463.433 202.685 462.508C208.03 456.9 216.354 446.628 219.555 439.199C220.029 438.096 222.223 432.604 219.747 434.075L218.397 438.612C211.53 450.865 201.608 460.939 193.165 472.069C192.938 472.835 193.307 474.56 194.055 474.701C197.011 475.267 211.14 456.136 213.794 453.138L213.796 453.135Z" fill="#3F2C22"/>
<path d="M599.733 552.124C599.555 553.873 598.61 558.08 598.167 559.99C596.861 565.645 594.283 571.049 593.297 576.816L594.705 577.756C598.185 574.823 599.881 570.468 601.449 566.291C600.53 565.055 600.478 566.252 600.105 566.727C598.746 568.458 598.26 570.701 597.117 572.538C596.634 573.313 597.047 573.947 595.601 573.629C598.583 564.33 602.636 552.546 601.528 542.667C601.278 540.426 600.268 539.845 598.572 541.487C597.335 542.681 597.12 545.544 595.677 546.511C597.772 537.224 600.108 527.766 599.229 518.22L596.873 519.225L587.827 540.004C587.606 535.208 589.57 530.667 590.361 526.021C590.573 524.768 590.012 525.325 589.325 525.266L584.568 543.834L585.482 545.88C586.622 545.293 587.207 544.707 587.908 543.634C590.76 539.267 593.332 530.723 595.805 525.664C596.355 524.535 596.846 522.884 598.051 522.342C598.098 527.274 597.629 532.368 596.707 537.224C595.04 546.01 589.433 556.862 588.441 564.873C588.321 565.848 588.473 566.727 588.673 567.673L590.597 567.753C591.941 567.405 596.043 545.594 599.744 543.575C599.544 546.337 599.998 549.406 599.721 552.124H599.733Z" fill="#3F2C22"/>
<path d="M283.382 609.742C280.106 614.771 274.246 619.465 270.778 624.388C270.039 625.438 267.539 628.645 269.94 629.353C273.391 630.367 287.383 615.523 291.733 614.703C293.862 617.08 278.372 637.814 277.074 641.488C276.972 643.537 280.414 642.508 281.31 642.219C284.976 641.046 287.679 637.355 291.674 637.107C292.504 637.988 290.173 647.697 289.614 649.489C288.934 651.677 285.876 657.373 285.797 658.664C285.457 664.177 292.957 658.384 295.108 657.458C294.441 653.443 288.506 659.369 288.136 658.912C289.678 654.174 295.087 640.895 293.772 636.508C292.245 631.42 284.313 639.165 281.476 640.017C280.696 640.25 280.391 639.94 280.627 639.15C281.005 637.873 284.255 634.132 285.183 632.555C288.622 626.72 292.544 619.916 294.022 613.306C292.731 608.724 282.335 619.506 280.621 620.812C279.629 621.567 273.036 626.284 272.509 625.845C278.2 617.893 285.782 610.968 288.279 601.127C285.896 603.288 285.137 607.056 283.388 609.742H283.382Z" fill="#3F2C22"/>
<path d="M481.199 559.852L479.529 560.341C478.927 561.258 480.137 577.989 480.146 580.799C480.21 600.811 480.658 621.526 479.619 641.423C479.34 646.789 477.14 653.873 478.801 659.316C479.43 661.371 480.891 662.122 481.321 659.711C481.958 656.141 481.179 650.114 481.336 646.128C481.385 644.873 481.894 643.746 481.944 642.611C483.067 617.321 481.979 592.468 482.127 567.107C482.139 565.153 483.556 560.497 481.196 559.849L481.199 559.852Z" fill="#3F2C22"/>
<path d="M259.206 593.974L260.152 596.861C265.174 598.547 282.09 584.254 283.082 585.195C280.833 589.098 278.48 593.352 275.73 596.914C273.65 599.609 262.605 610.375 262.643 612.587C262.651 613.123 263.105 613.946 263.524 614.034C266.335 614.63 287.264 596.174 288.279 597.586L288.564 600.531C290.656 598.022 292.553 593.55 287.287 595.684C284.171 596.949 276.815 603.869 273.324 606.289C272.381 606.944 266.704 611.006 266.137 610.49L281.866 590.625C282.326 589.089 287.182 582.869 285.992 581.66C285.157 581.548 284.476 581.654 283.693 581.972C280.275 583.367 274.688 588.821 271.031 590.947C267.659 592.907 263.015 595.508 259.201 593.969L259.206 593.974Z" fill="#3F2C22"/>
<path d="M535.71 555.78L526.394 558.416L525.812 560.477C528.087 560.606 539.635 558.36 539.161 555.586C534.154 550.644 530.883 543.616 528.335 537.056C526.982 533.574 526.414 529.013 524.852 525.865C522.8 521.731 518.651 517.318 517.211 512.391L518.948 512.108C518.928 508.544 514.479 508.175 514.331 511.188C514.124 515.322 523.231 524.862 524.107 530.145C525.247 537.033 526.891 541.104 530.4 547.325C531.107 548.578 536.185 555.155 535.713 555.78H535.71Z" fill="#3F2C22"/>
<path d="M603.943 212.634C605.985 210.771 606.678 196.34 606.468 193.055C605.901 184.14 604.597 171.309 602.791 162.65C602.348 160.528 600.928 153.496 598.144 153.77C595.083 154.074 599.223 159 599.861 160.896C602.427 168.523 604.81 196.794 603.384 204.68C602.91 207.295 602.116 210.308 600.617 212.493C601.318 213.755 603.026 213.466 603.94 212.631L603.943 212.634Z" fill="#3F2C22"/>
<path d="M499.148 743.193C498.741 739.608 493.635 742.871 491.234 743.113C488.103 743.428 486.704 743.529 485.075 740.628C481.987 735.126 480.637 723.87 480.553 717.511C480.492 712.9 482.817 706.894 483.486 702.227C481.155 699.774 479.884 701.977 479.517 704.583C478.016 715.238 477.364 729.256 481.589 739.434C485.333 748.452 491.758 745.657 499.145 743.193H499.148Z" fill="#3F2C22"/>
<path d="M132.212 434.473C132.142 435.95 131.653 437.35 131.557 438.833C131.231 443.783 130.338 453.89 130.92 458.339C131.08 459.55 131.272 460.391 132.514 460.892L168.25 440.134L167.938 438.651C167.028 438.562 166.207 438.586 165.352 438.966C162.151 440.387 156.961 444.429 153.481 446.384C146.797 450.137 139.849 453.471 133.282 457.434L134.496 434.44L132.209 434.473H132.212Z" fill="#3F2C22"/>
<path d="M256.105 188.353C254.417 188.255 245.726 189.6 245.7 191.504C245.671 193.586 250.029 191.351 250.667 191.254C254.283 190.7 256.276 192.3 257.309 195.717C255.095 207.767 252.474 218.59 253.157 231.025C253.233 232.42 253.78 238.82 254.595 238.991C256.07 239.133 256.108 235.533 256.09 234.575C255.977 228.531 255.028 222.446 255.526 216.305C255.968 210.862 260.754 196.979 259.209 193.161C258.587 191.622 256.195 190.502 256.105 188.35V188.353Z" fill="#3F2C22"/>
<path d="M426.371 305.491C425.166 304.297 423.179 306.455 422.914 308.171C421.163 319.531 425.321 331.161 430.636 340.888C431.986 343.358 435.996 349.998 439.301 349.131L440.226 347.692C436.586 345.608 434.462 342.742 432.432 339.077C427.834 330.793 423.813 319.513 425.166 309.875C425.318 308.805 427.008 306.122 426.368 305.488L426.371 305.491Z" fill="#3F2C22"/>
<path d="M328.158 334.325C329.071 333.261 330.765 332.863 331.591 331.023C333.919 325.849 331.178 321.603 329.575 316.898C329.351 316.241 329.828 315.114 329.487 314.672C328.702 313.658 327.282 313.847 326.915 315.047C325.795 318.735 332.804 323.422 329.054 330.209C328.239 331.683 326.176 332.777 325.362 334.133C323.363 337.459 322.792 347.56 321.934 351.926C321.46 354.337 318.888 357.132 321.201 359.444C326.525 354.149 324.064 339.098 328.161 334.322L328.158 334.325Z" fill="#3F2C22"/>
<path d="M570.523 448.949C568.498 447.068 566.075 443.701 563.962 441.74C562.778 440.641 557.966 436.324 556.956 435.862C556.002 435.425 554.62 435.691 554.652 436.433C554.675 436.997 558.478 439.246 559.292 439.977C568.993 448.683 578.676 457.761 588.321 466.588C590.559 468.637 596.328 475.689 598.17 476.659C599.066 477.131 599.925 476.456 599.916 476.063C599.864 473.649 574.236 452.398 570.523 448.949Z" fill="#3F2C22"/>
<path d="M558.396 561.158L560.759 560.904C562.173 559.931 559.953 543.699 560.744 540.792C561.056 534.226 564.393 521.245 555.35 519.898L554.425 521.333C557.32 523.996 558.632 524.125 559.048 528.442C559.499 533.1 557.232 560.023 558.393 561.158H558.396Z" fill="#3F2C22"/>
<path d="M577.576 118.38C582.674 116.932 578.036 108.123 577.3 104.252C575.595 95.2893 574.291 86.5921 577.099 77.7003C575.502 76.8364 573.945 77.9774 573.611 79.764C572.144 87.5915 573.325 97.7423 574.859 105.537C575.697 109.795 578.045 113.89 577.576 118.383V118.38Z" fill="#3F2C22"/>
<path d="M585.557 408.511C585.394 409.687 585.444 409.481 586.273 409.841C591.019 411.91 600.542 406.769 603.087 402.393L602.468 384.769L604.461 383.852L604.83 382.319L603.175 381.921L603.047 380.302L600.716 380.503C599.803 381.134 600.085 392.652 600.111 394.716C600.143 397.275 601.647 400.005 599.779 402.606C598.112 404.929 588.746 409.451 585.554 408.511H585.557Z" fill="#3F2C22"/>
<path d="M213.45 524.226C214.029 524.267 214.611 524.818 215.164 524.579C216.537 523.993 222.906 516.068 223.613 516.056C225.228 517.486 224.239 520.024 224.475 521.941C226.514 524.311 226.948 513.35 224.763 512.515C222.578 511.887 218.955 518.648 216.918 519.564L222.208 496.586C220.657 494.882 219.709 502.049 219.584 502.479C218.754 505.324 212.699 523.223 213.45 524.226Z" fill="#3F2C22"/>
<path d="M316.013 224.421L314.064 223.938C313.313 224.067 312.763 225.12 312.405 225.766C310.956 228.372 306.886 243.299 306.63 246.483C306.295 250.637 307.04 255.277 306.554 259.414C306.272 261.816 304.398 264.735 304.27 265.994C304.032 268.385 305.844 268.683 307.049 266.419C309.513 261.787 307.91 252.533 308.402 247.105C308.763 243.122 312.28 231.724 313.965 227.941C314.602 226.512 315.94 225.919 316.013 224.418V224.421Z" fill="#3F2C22"/>
<path d="M133.637 315.327C136.358 313.508 130.734 287.976 133.149 283.486C135.142 284.367 134.013 287.148 136.623 286.443C137.341 284.709 134.269 278.736 132.863 278.73C131.74 278.786 131.17 279.983 130.946 280.953C128.802 290.32 132.354 300.995 132.508 310.338C132.535 311.833 132.121 313.198 131.33 314.442C131.714 315.191 133.085 315.689 133.632 315.324L133.637 315.327Z" fill="#3F2C22"/>
<path d="M369.858 105.449C368.944 106.375 375.127 119.4 373.765 123.917C373.477 124.878 371.534 126.26 370.838 128.026C370.256 129.509 369.235 134.309 370.062 135.538C372.602 139.303 372.983 130.055 373.442 128.905C374.193 127.03 377.138 125.809 377.205 122.985C377.321 118.008 372.814 110.617 372.767 105.461L369.858 105.452V105.449Z" fill="#3F2C22"/>
<path d="M372.983 249.917C376.282 250.413 376.157 244.363 375.857 242.016C375.459 238.873 369.887 229.374 367.786 226.63C366.902 225.471 360.896 219.144 359.997 218.604C358.636 217.788 356.427 217.867 356.765 219.504C356.896 220.138 364.656 226.461 366.049 228.381C367.114 229.846 367.539 231.556 368.47 232.998C372.2 238.776 375.747 242.193 372.98 249.917H372.983Z" fill="#3F2C22"/>
<path d="M445.018 523.114C443.305 524.78 448.492 538.333 447.881 541.673C447.448 544.032 440.148 549.25 437.389 548.454C437.02 550.391 439.662 550.235 440.896 549.996C443.386 549.515 450.096 545.329 450.68 542.752C451.737 538.1 445.839 529.804 448.836 524.868C448.257 522.896 446.782 522.981 445.021 523.114H445.018Z" fill="#3F2C22"/>
<path d="M417.517 129.751C420.956 129.548 420.098 121.089 419.865 118.268C419.181 109.921 416.246 110.125 411.776 104.662C410.933 103.63 409.338 100.239 408.873 99.9446C406.545 98.4764 405.946 100.148 407.101 102.321C410.109 107.987 417.567 111.413 417.546 119.432L417.52 129.751H417.517Z" fill="#3F2C22"/>
<path d="M349.741 194.898C351.385 192.253 349.886 185.891 349.851 182.96C349.75 174.458 349.581 166.147 351.682 157.883C346.197 157.223 348.327 167.948 348.184 171.704L347.518 194.712C347.792 195.676 349.371 195.49 349.738 194.898H349.741Z" fill="#3F2C22"/>
<path d="M375.148 304.787C374.089 307.703 375.473 309.71 375.668 312.199C376.012 316.556 374.932 320.628 375.116 325.112C375.153 326.02 374.56 327.444 375.974 327.167C376.876 326.344 377.109 324.932 377.292 323.776C377.629 321.642 378.607 315.052 378.54 313.298C378.441 310.722 376.559 307.974 378.019 304.58C377.112 301.676 368.185 300.476 368.773 303.852C369 305.158 373.963 303.758 375.148 304.784V304.787Z" fill="#3F2C22"/>
<path d="M391.136 205.744C393.434 206.148 393.856 204.229 393.664 202.321C393.062 196.36 389.172 190.01 387.368 184.491C387.062 183.556 387.9 179.508 385.095 180.378C381.502 181.492 388.901 191.363 387.95 193.957C389.937 197.548 391.438 201.546 391.136 205.741V205.744Z" fill="#3F2C22"/>
<path d="M420.235 193.418C421.713 192.421 424.25 173.93 424.43 170.814C423.06 170.537 420.456 168.656 419.423 168.668C416.426 168.706 418.544 172.35 421.227 172.176C422.268 173.644 419.341 189.957 417.936 192.536C418.335 193.291 419.635 193.822 420.235 193.418Z" fill="#3F2C22"/>
<path d="M352.362 437.421C350.023 436.628 350.07 438.878 349.217 439.429C346.654 441.086 342.633 436.304 339.109 439.777C335.08 443.745 344.562 442.457 346.558 442.701C347.64 442.834 348.533 443.751 349.552 443.86C353.809 444.314 354.28 438.073 352.362 437.421Z" fill="#3F2C22"/>
<path d="M390.411 35.9299C392.64 40.6854 390.926 44.9073 390.932 49.8101C390.932 52.0655 391.354 55.5651 391.514 58.0534C391.546 58.5546 391.206 60.0758 392.375 59.5157C394.781 58.3659 393.781 45.662 393.856 42.6961C393.914 40.4289 395.224 38.3327 393.815 36.0213L390.411 35.9329V35.9299Z" fill="#3F2C22"/>
<path d="M454.704 603.335L458.612 614.972L459.918 615.429C458.513 611.457 457.46 607.336 456.162 603.335C455.737 602.029 454.69 601.08 454.309 599.912C452.647 594.829 454.056 587.488 451.213 582.152C447.512 581.657 450.689 584.416 451.242 585.949C452.228 588.682 452.842 592.149 452.976 595.071C451.612 594.122 451.248 591.607 450.529 590.195C450.154 589.458 449.546 588.281 449.496 590.056C449.572 591.489 453.555 597.857 453.555 598.32L453.514 613.651C453.514 614.184 452.409 615.776 452.927 616.891L454.67 616.897L454.704 603.335Z" fill="#3F2C22"/>
<path d="M51.7935 268.025L51.779 270.237L58.1394 273.067C58.5816 274.974 56.3179 278.854 55.1861 280.479C54.6333 281.275 53.4113 281.284 52.9428 282.495C51.4851 286.248 55.4829 283.309 56.6467 282.13C58.1684 280.585 62.4979 273.748 62.207 271.823C60.0219 271.82 53.0679 265.9 51.7935 268.025Z" fill="#3F2C22"/>
<path d="M394.976 372.817C395.119 372.569 395.739 372.504 395.902 372.292C398.381 369.031 394.557 368.893 392.754 371.452C392.265 372.142 390.883 376.358 390.813 377.18C390.423 381.715 399.562 391.102 400.025 385.898C400.284 382.988 394.79 383.307 393.859 378.551C393.341 375.901 393.705 375.058 394.979 372.817H394.976Z" fill="#3F2C22"/>
<path d="M514.473 214.913C515.302 211.37 512.221 212.328 510.976 211.095C509.102 209.244 512.451 201.419 512.751 198.663C512.96 196.717 509.442 198.129 509.416 199.415C508.762 206.738 503.172 214.347 514.476 214.913H514.473Z" fill="#3F2C22"/>
<path d="M49.498 452.498C49.0674 454.025 50.9208 454.067 51.9508 454.424C57.2113 456.237 67.6945 457.734 73.0365 456.67C74.8317 456.31 74.9482 454.432 74.2208 454.329C65.7422 456.098 57.8572 453.129 49.498 452.501V452.498Z" fill="#3F2C22"/>
<path d="M448.871 383.377C451.876 383.926 452.388 378.755 452.42 376.617C452.455 374.191 451.798 365.14 451.111 363.185C450.788 362.265 450.192 361.693 449.22 361.546L447.756 362.46C450.718 369.055 450.485 376.417 448.874 383.377H448.871Z" fill="#3F2C22"/>
<path d="M94.1369 321.792C92.7053 329.844 89.2924 337.568 89.3448 345.873C90.3602 345.625 90.6337 344.517 90.9363 343.656C93.2989 336.937 94.3871 328.608 96.3831 321.718L94.1398 321.792H94.1369Z" fill="#3F2C22"/>
<path d="M464.579 610.44C465.519 620.503 464.32 630.45 464.207 640.515C465.182 638.628 464.798 636.331 465.132 634.356C465.286 633.442 466.124 632.785 466.238 631.936C466.651 628.855 466.084 625.161 466.302 621.95C466.52 618.739 469.712 610.906 464.579 610.44Z" fill="#3F2C22"/>
<path d="M539.888 741.548L539.883 743.302C541.075 744.564 554.061 738.826 556.037 737.6C557.916 736.432 556.482 734.808 554.302 735.194C550.535 735.86 544.232 741.332 539.891 741.548H539.888Z" fill="#3F2C22"/>
<path d="M461.233 324.451L458.606 329.157C457.049 324.773 457.946 319.38 458.359 314.716C458.519 312.921 461.908 289.067 460.457 289.061C460.096 298.271 458.1 307.361 457.192 316.485C456.977 318.655 455.283 331.616 458.594 330.926C459.63 330.71 461.827 325.79 461.233 324.451Z" fill="#3F2C22"/>
<path d="M529.606 443.745L528.384 463.778L530.621 462.814C530.743 458.731 530.871 454.589 531.337 450.535C531.561 448.574 532.402 446.499 532.512 444.627C532.611 442.967 530.706 443.957 529.606 443.745Z" fill="#3F2C22"/>
<path d="M223.648 388.094V389.858C229.284 389.398 236.512 390.052 241.525 387.08C242.13 386.721 244.589 384.66 244.6 384.312C244.69 381.888 239.316 385.857 238.793 386.069C233.797 388.092 228.868 387.263 223.651 388.092L223.648 388.094Z" fill="#3F2C22"/>
<path d="M31.438 62.8177C30.6058 62.6821 29.7271 62.4432 28.9473 62.9621C27.8533 63.9144 28.4527 64.2888 29.247 65.0495C30.0413 65.8101 37.4114 71.0226 38.229 71.2967C39.3928 71.6859 39.8117 71.7272 40.5828 70.6658C38.5839 67.753 34.9993 63.3955 31.4409 62.8177H31.438Z" fill="#3F2C22"/>
<path d="M409.929 241.179C407.493 241.783 404.046 242.753 402.748 245.068C401.98 246.439 400.059 254.319 401.779 254.711C404.197 255.263 403.586 248.269 404.732 246.5C406.242 244.171 412.731 244.095 409.926 241.179H409.929Z" fill="#3F2C22"/>
<path d="M336.581 376.013L336.962 377.79C342.153 378.887 347.099 379.164 352.316 378.147C353.945 377.829 356.072 377.507 354.908 375.467C348.531 376.358 342.982 378.047 336.581 376.016V376.013Z" fill="#3F2C22"/>
<path d="M367.236 276.581C367.164 276.631 366.436 278.147 366.506 278.2C368.947 278.698 370.923 277.303 373.198 277.041C376.713 276.631 381.101 278.38 382.809 273.836C381.086 271.49 380.146 274.205 378.91 274.582C377.333 275.069 375.049 274.488 373.256 274.736C372.651 274.821 367.498 276.401 367.236 276.578V276.581Z" fill="#3F2C22"/>
<path d="M352.758 420.271C357.504 420.159 355.997 414.363 356.299 411.173C356.395 410.162 358.374 407.795 356.564 407.314C352.752 406.303 354.312 417.839 352.758 420.268V420.271Z" fill="#3F2C22"/>
<path d="M282.274 224.92C280.525 231.91 281.31 239.121 279.306 246.135L281.933 239.065C282.867 235.129 283.917 229.796 283.429 225.795C283.33 224.976 283.112 224.076 282.274 224.92Z" fill="#3F2C22"/>
<path d="M517.141 419.705L515.701 421C515.675 422.061 524.005 426.268 525.419 426.516C528.061 426.979 528.974 425.543 526.044 424.089C523.112 422.633 519.946 421.625 517.141 419.705Z" fill="#3F2C22"/>
<path d="M394.298 560.126C396.815 561.317 398.785 560.223 401.255 559.828C402.035 559.704 405.919 560.515 405.355 558.112C404.936 556.32 401.229 557.148 399.99 557.361C398.957 557.537 393.268 558.687 394.298 560.126Z" fill="#3F2C22"/>
<path d="M314.18 487.394L313.845 489.162C315.126 489.914 319.595 494.139 320.884 492.155C322.993 488.903 316.249 489 314.18 487.394Z" fill="#3F2C22"/>
<path d="M222.964 431.722C224.78 430.307 225.507 427.441 225.88 425.248C223.916 426.374 222.991 429.511 222.964 431.722Z" fill="#3F2C22"/>
<path d="M463.008 318.555L464.757 313.26C463.36 314.189 463.052 317.022 463.008 318.555Z" fill="#3F2C22"/>
<path d="M443.453 678.786L444.902 681.13L445.775 680.251C445.734 678.874 444.614 678.6 443.453 678.786Z" fill="#3F2C22"/>
<path d="M278.663 270.31C279.987 269.959 279.879 268.465 279.824 267.365C278.5 267.716 278.607 269.211 278.663 270.31Z" fill="#3F2C22"/>
<path d="M426.353 764.83L426.356 766L427.188 765.973L429.266 764.246L426.353 764.83Z" fill="#3F2C22"/>
<path d="M462.744 645.215C464.905 645.719 463.587 642.346 463.91 641.099C462.677 641.526 463.776 644.153 462.744 645.215Z" fill="#3F2C22"/>
<path d="M237.585 626.934L238.743 626.937L238.738 628.7L237.58 628.697L237.585 626.934Z" fill="#3F2C22"/>
<path d="M278.133 249.077L279.291 249.08L279.294 246.727H278.724L278.133 249.077Z" fill="#3F2C22"/>
<path d="M367.083 731.054L368.241 731.058L368.236 732.821L367.078 732.818L367.083 731.054Z" fill="#3F2C22"/>
<path d="M301.195 414.398C301.541 412.983 301.34 413.508 301.512 411.595C301.669 409.838 302.492 408.246 302.038 406.435C301.058 402.541 295.105 397.744 293.496 393.855C292.204 392.246 290.996 393.133 289.987 394.46C292.812 397.399 298.317 402.962 299.123 406.998C300.217 412.476 296.161 422.076 298.902 426.628C299.434 427.515 300.103 426.958 300.29 426.244C301.081 423.214 300.185 418.508 301.195 414.396V414.398Z" fill="#3F2C22"/>
<path d="M290.062 554.468C283.833 554.232 278.52 557.809 273.265 560.695C273.955 561.806 276.562 561.111 277.467 560.848C279.463 560.27 281.034 558.764 282.847 558.053C285.608 556.971 292.201 557.021 293.379 555.146C294.2 553.84 291.989 546.597 292.006 544.816C292.015 543.713 294.191 540.022 291.087 541.024C287.7 542.115 291.733 553.442 290.06 554.471L290.062 554.468Z" fill="#3F2C22"/>
<path d="M257.958 399.976C256.963 404.257 263.745 409.534 263.193 413.219C259.204 414.693 254.347 414.699 254.385 420.277C254.394 421.56 255.133 427.648 256.431 427.671C258.91 425.213 255.814 420.737 257.033 418.246C258.249 415.758 263.594 416.165 264.909 415.035C267.734 412.606 260.571 403.587 260.341 400.347L257.961 399.973L257.958 399.976Z" fill="#3F2C22"/>
<path d="M280.298 344.107C279.413 344.653 278.965 360.051 279.003 362.298L280.743 362.303C280.795 356.469 282.137 350.702 282.544 344.909C282.64 343.532 280.883 343.747 280.295 344.107H280.298Z" fill="#3F2C22"/>
<path d="M348.557 495.221C348.283 496.197 348.528 497.179 348.743 498.131C349.723 502.432 358.961 521.021 361.979 523.895C362.767 524.644 364.565 524.821 365.328 526.109C366.09 527.398 365.496 528.963 366.733 529.975C370.789 523.648 365.697 524.099 362.651 521.165C360.806 519.388 352.29 502.934 352.124 500.669C351.958 498.405 355.38 493.841 348.56 495.224L348.557 495.221Z" fill="#3F2C22"/>
<path d="M361.249 707.375C358.17 707.858 355.371 706.782 352.29 706.806C350.928 706.815 342.808 707.475 345.03 709.769C349.665 708.784 357.699 711.414 361.653 709.857C367.917 707.39 363.154 696.511 361.249 707.378V707.375Z" fill="#3F2C22"/>
<path d="M371.455 564.643C373.37 562.423 371.231 555.86 371.615 555.353L373.926 555.073C372.575 553.475 373.093 551.482 372.773 549.775C372.363 547.578 370.731 547.714 369.835 549.698C368.938 551.682 369.916 557.611 369.884 560.391C369.872 561.35 368.662 567.883 371.455 564.643Z" fill="#3F2C22"/>
<path d="M313.339 645.574C310.857 647.933 312.702 652.833 312.623 655.74C312.565 657.883 312.216 661.813 311.948 663.956C311.698 665.938 308.652 672.155 313.726 669.779C313.773 666.324 314.686 662.706 314.925 659.304C315.132 656.379 314.311 650.474 314.922 648.201C315.033 647.794 317.299 646.709 317.25 645.722C317.186 644.486 314.23 644.731 313.342 645.577L313.339 645.574Z" fill="#3F2C22"/>
<path d="M347.067 596.572L348.001 598.886C351.271 598.031 355.063 598.465 356.867 601.725C355.892 603.367 352.208 617.248 354.868 617.209C357.111 615.231 356.413 611.26 357.192 608.356C358.155 604.777 361.685 601.929 357.847 598.338C355.877 596.495 349.63 595.469 347.067 596.569V596.572Z" fill="#3F2C22"/>
<path d="M349.287 669.77C348.979 669.962 348.426 672.444 348.612 672.63L350.94 672.642C351.248 674.364 349.252 674.187 348.318 674.991C346.974 676.144 345.95 677.804 344.353 678.636C341.743 679.995 339.915 679.508 337.239 679.676C336.372 679.729 335.557 679.225 335.798 680.552C338.507 683.093 343.614 681.929 346.474 680.207C347.696 679.473 348.406 678.134 349.468 677.344C350.442 676.619 351.819 676.592 352.659 675.87C355.502 673.435 351.967 668.11 349.284 669.77H349.287Z" fill="#3F2C22"/>
<path d="M312.748 593.523C313.857 593.706 314.317 593.052 314.497 592.043C315.71 585.354 309.19 586.507 312.748 593.523Z" fill="#3F2C22"/>
<path d="M267.123 457.201C266.099 460.332 272.105 460.606 272.366 461.738C273.207 466.261 271.08 469.318 270.565 473.419C272.567 475.026 274.936 468.882 275.133 467.381C275.392 465.429 274.479 463.342 275.183 461.175C274.834 459.792 268.194 456.169 267.12 457.201H267.123Z" fill="#3F2C22"/>
<path d="M265.285 528.046C265.075 528.176 263.277 531.891 263.437 532.66C264.522 533.748 267.758 529.7 268.092 528.834C268.61 527.489 265.747 527.757 265.285 528.046Z" fill="#3F2C22"/>
<path d="M347.437 452.696L348.01 454.459L344.21 453.456L343.36 455.031C346.194 456.054 348.947 456.632 351.996 456.151L352.671 453.294C350.497 453.931 349.444 453.103 347.439 452.693L347.437 452.696Z" fill="#3F2C22"/>
<path d="M420.537 261.1C419.589 261.675 417.24 261.009 416.013 261.242L416.353 263.061C417.991 263.594 420.22 264.066 421.823 263.308C422.577 262.952 423.095 261.557 423.941 261.389C425.029 261.174 431.221 264.249 431.16 261.006C428.658 255.201 425.376 257.244 421.311 259.862C420.883 260.139 420.773 260.959 420.537 261.1Z" fill="#3F2C22"/>
<path d="M161.866 33.6745C158.593 33.0024 157.432 36.8498 156.361 39.624C155.951 40.6884 152.637 50.674 154.982 50.6209C158.747 46.8826 157.344 40.2343 161.479 36.5726C165.195 37.6311 169.294 38.9135 173.117 39.4088C174.915 39.6417 177.776 39.9631 179.533 40.0545C180.246 40.0899 181.328 39.9159 181.485 39.1966C182.088 36.4134 172.207 36.7024 170.295 36.3722C167.365 35.868 164.31 34.1728 161.866 33.6716V33.6745Z" fill="#3F2C22"/>
<path d="M232.648 60.2763C231.35 61.5853 238.804 69.3539 238.438 72.9507C238.103 76.2203 230.605 76.7215 230.849 80.3153C231.443 80.9227 241.781 76.1466 241.95 74.127C242.069 72.6824 236.346 63.2923 235.851 60.8659L232.648 60.2793V60.2763Z" fill="#3F2C22"/>
<path d="M270.487 53.2861C276.12 57.7556 283.033 59.3948 289.678 56.2844C288.867 52.1893 286.65 54.8545 284.709 55.0756C282.041 55.3793 278.063 55.3086 275.555 54.3651C273.81 53.7106 271.526 50.7595 270.49 53.2861H270.487Z" fill="#3F2C22"/>
<path d="M142.765 189.231C144.377 188.158 151.098 189.279 151.427 187.707C151.851 185.693 145.971 186.071 144.711 186.195C137.079 186.944 140.556 190.879 140.391 195.947C140.347 197.251 138.72 200.659 140.059 200.953C146.128 200.83 141.572 190.658 142.765 189.231Z" fill="#3F2C22"/>
<path d="M290.281 87.6535C289.312 88.2284 286.426 102.678 287.237 103.465L289.559 103.471C289.638 100.396 290.319 95.4721 291.346 92.574C291.965 90.8228 293.787 89.9884 293.097 87.5591C292.277 87.6653 290.927 87.2702 290.284 87.6535H290.281Z" fill="#3F2C22"/>
<path d="M70.6912 130.308C71.503 132.971 75.4019 130.523 76.1962 128.822L82.9494 113.539C83.1734 117.817 80.6304 121.732 79.5888 125.774C79.2163 127.216 77.6946 133.085 78.8061 133.893C80.8865 134.934 81.9542 132.216 82.606 130.624C83.4556 128.554 86.3507 119.25 86.4467 117.383C86.5252 115.891 86.0102 116.826 85.277 117.086C86.8715 113.869 85.5359 102.952 81.6866 109.585C79.6935 113.02 78.4482 118.937 76.6413 122.776C76.2573 123.592 73.8889 128.625 73.0247 127.661C72.7279 125.638 73.9267 119.995 71.8784 119.105L70.7145 119.698L70.6883 130.311L70.6912 130.308Z" fill="#3F2C22"/>
<path d="M681.448 454.757L678.478 481.58C678.888 497.582 677.718 513.524 677.163 529.308C676.831 538.707 677.011 548.012 675.37 557.334C677.2 557.885 678.443 555.45 678.734 553.967C681.131 541.747 679.842 525.479 680.113 512.807C680.477 495.846 680.741 479.103 682.601 462.133C682.799 460.326 684.818 449.913 684.373 449.459C681.384 448.739 679.726 451.947 678.146 452.867C677.442 453.277 667.512 455.164 666.019 455.296C654.631 456.305 619.966 447.221 613.961 436.628C613.184 435.254 613.769 433.777 612.541 432.76C609.419 433.851 610.364 435.935 611.941 438.073C616.716 444.541 630.115 450.426 637.685 452.702C647.566 455.674 658.026 458.203 668.28 457.006C670.153 456.788 680.942 454.244 681.446 454.757H681.448Z" fill="#3F2C22"/>
<path d="M693.209 408.797C692.872 409.248 695.927 415.2 696.366 416.492C700.148 427.589 696.308 429.617 695.531 439.833C695.028 446.475 696.366 452.749 696.596 459.194C696.738 463.177 695.72 467.487 695.959 470.995C696.037 472.154 697.038 477.791 698.854 476.031L698.347 439.152C698.804 433.698 701.851 428.809 701.321 423.255C701.111 421.064 697.568 411.256 696.369 409.434C695.307 407.818 694.821 408.378 693.209 408.797Z" fill="#3F2C22"/>
<path d="M608.488 543.601C608.214 545.04 608.63 545.084 609.433 545.877C610.647 547.074 620.699 552.036 622.858 552.929C635.521 558.165 658.085 560.256 671.192 556.332C674.239 555.418 675.562 552.611 672.795 552.608C671.972 552.608 669.106 554.056 667.459 554.303C652.719 556.52 638.619 555.957 624.447 550.742C622.081 549.872 609.547 542.575 608.491 543.601H608.488Z" fill="#3F2C22"/>
<path d="M651.73 472.366C650.371 473.737 655.961 476.426 656.964 477.378C659.152 479.454 660.019 483.201 659.822 486.17C659.664 488.517 657.462 491.034 657.052 493.449C656.406 497.252 657.561 501.324 656.365 505.053L659.205 505.994C658.73 504.074 659.708 501.967 659.746 500.327C659.781 498.871 659.17 497.639 659.289 495.761C659.679 489.531 664.436 487.968 662.027 480.506C660.834 476.809 655.83 471.833 651.73 472.363V472.366Z" fill="#3F2C22"/>
<path d="M671.765 600.968C671.431 603.129 675.271 602.819 676.642 602.684C679.234 602.427 689.732 599.157 690.678 596.87C691.623 594.582 691.26 583.588 686.977 587.807C687.096 590.18 689.397 594.399 687.238 596.324C685.336 598.019 674.736 600.139 671.768 600.968H671.765Z" fill="#3F2C22"/>
<path d="M624.045 409.876C622.975 410.516 623.492 417.671 623.283 419.443C622.934 422.388 621.403 425.959 621.098 428.503C620.833 430.711 623.143 431.215 623.783 429.414C625.832 423.644 625.142 415.814 626.286 409.799L624.045 409.876Z" fill="#3F2C22"/>
<path d="M666.423 414.614C665.743 415.215 658.044 412.712 659.443 416.067C660.107 417.659 669.906 418.096 669.266 413.284C668.955 410.961 663.191 406.477 662.365 410.763C662.545 411.503 666.918 412.423 666.423 414.611V414.614Z" fill="#3F2C22"/>
<path d="M626.533 538.925C627.871 537.566 623.481 535.8 622.521 535.034C619.87 532.914 615.113 526.507 612.023 529.161C613.827 530.909 624.627 540.859 626.53 538.925H626.533Z" fill="#3F2C22"/>
<path d="M682.406 379.474C681.198 380.5 679.848 383.274 678.457 384.604C676.011 386.945 672.283 388.254 670.026 390.203C669.353 390.783 668.594 391.119 668.812 392.213C675.385 390.288 680.936 385.559 685.132 380.164L684.25 378.693C683.567 378.79 682.935 379.02 682.403 379.471L682.406 379.474Z" fill="#3F2C22"/>
<path d="M667.293 341.61L668.12 343.293C671.5 343.237 671.707 336.28 671.972 333.623C672.065 332.686 672.81 332.288 671.579 331.492C667.267 332.863 671.704 340.012 667.293 341.607V341.61Z" fill="#3F2C22"/>
<path d="M618.249 591.383L617.589 585.292C613.335 581.368 614.217 592.273 618.249 591.383Z" fill="#3F2C22"/>
<path d="M668.722 314.383C668.236 314.522 667.657 315.515 667.846 316.146C669.336 316.497 670.866 315.545 672.205 315.577C673.756 315.616 675.711 316.65 676.991 316.621C678.786 316.58 679.185 314.413 678.03 314.41L668.719 314.386L668.722 314.383Z" fill="#3F2C22"/>
<path d="M562.365 601.259L565.196 600.298C564.736 596.191 567.538 586.079 561.483 585.985C554.71 585.882 552.51 591.035 561.451 588.915L562.394 589.758L562.365 601.257V601.259Z" fill="#3F2C22"/>
<path d="M500.641 597.5C501.406 596.466 500.519 589.234 500.722 587.536L503.321 588.721L504.229 587.244C504.234 585.168 499.829 583.797 498.354 584.838C496.701 586.005 499.108 594.375 498.354 596.672C498.182 598.214 500.155 598.146 500.635 597.498L500.641 597.5Z" fill="#3F2C22"/>
<path d="M561.478 41.679H556.819L557.16 43.4951C557.951 44.0611 565.906 45.432 566.965 45.2551C568.207 45.0458 568.725 43.7398 569.31 43.669C570.561 43.5186 573.942 46.2428 576.017 45.261C576.759 44.5151 574.966 35.3403 571.975 39.0491L573.692 42.8877C572.508 43.8429 562.749 37.2389 561.207 37.5515C559.525 37.8905 560.791 40.768 561.475 41.676L561.478 41.679ZM566.712 42.873C565.315 43.1 564.239 42.59 564.396 41.1041L566.712 42.873Z" fill="#3F2C22"/>
<path d="M427.2 471.102C431.483 472.888 433.936 477.638 434.605 482.028C431.53 485.014 427.319 483.747 423.589 484.433C426.819 487.957 439.068 485.846 438.027 480.427C437.899 479.752 436.796 479.183 436.482 478.49C435.167 475.592 432.757 469.076 429.103 468.82C427.546 468.711 426.74 469.542 427.197 471.099L427.2 471.102Z" fill="#3F2C22"/>
<path d="M438.812 416.456L438.251 436.714C442.074 438.117 440.363 428.995 440.59 426.088C440.901 422.07 443.671 417.273 440.02 414.357C435.635 410.858 430.526 415.669 438.812 416.453V416.456Z" fill="#3F2C22"/>
<path d="M388.817 428.621C395.285 429.853 390.143 419.042 390.589 418.609L394.086 418.93L394.656 417.146L393.696 416.35C392.256 416.309 388.235 415.59 387.726 417.205C388.081 421.256 390.615 424.399 388.817 428.621Z" fill="#3F2C22"/>
<path d="M396.978 422.167C397.484 423.512 399.155 423.992 400.461 423.933C400.135 422.934 397.918 422.312 396.978 422.167Z" fill="#3F2C22"/>
<path d="M581.844 267.568C587.029 269.682 586.573 258.17 585.831 255.616C585.647 254.985 583.055 252.332 582.423 251.993C580.494 250.961 575.231 250.003 575.749 253.426C577.113 255.047 579.488 253.735 580.692 254.278C584.114 255.814 583.48 264.676 581.847 267.568H581.844Z" fill="#3F2C22"/>
<path d="M545.617 323.502C544.913 322.37 533.505 324.272 535.279 316.229C535.792 313.911 539.626 313.337 538.663 312.278C538.564 312.172 536.458 311.621 536.062 311.659C533.525 311.907 531.736 317.508 532.501 319.949C533.732 323.882 541.832 326.562 545.35 325.283L545.617 323.499V323.502Z" fill="#3F2C22"/>
</g>
<defs>
<clipPath id="clip0_405_105022">
<rect width="713" height="766" fill="white" transform="matrix(-1 0 0 1 713 0)"/>
</clipPath>
</defs>
</svg>
