<svg width="618" height="557" viewBox="0 0 618 557" fill="none" xmlns="http://www.w3.org/2000/svg">
<g clip-path="url(#clip0_466_17716)">
<path d="M533.657 506.277C533.272 512.066 531.579 518.403 531.015 524.246C534.861 524.552 532.969 522.172 533.263 520.291C534.01 515.52 535.668 510.588 536.238 505.587C537.78 492.081 535.639 478.543 534.911 465.046C533.518 439.149 534.492 413.766 521.899 390.289C513.558 374.747 503.58 364.033 492.402 350.464C491.992 349.966 490.095 347.65 489.761 346.647C489.568 346.518 489.398 346.354 489.266 346.153C489.083 345.875 488.963 345.576 488.834 345.274C488.796 345.188 488.777 345.135 488.765 345.1C488.752 345.078 488.739 345.056 488.72 345.021C488.695 344.977 488.67 344.933 488.645 344.889C488.62 344.876 488.591 344.867 488.566 344.854L488.468 344.914C488.449 344.861 488.427 344.81 488.405 344.757C488.115 344.549 487.929 344.237 487.844 343.896C487.768 343.792 487.693 343.688 487.627 343.575C487.453 343.282 487.396 342.948 487.431 342.623C486.139 340.143 484.458 337.846 483.415 335.237C477.312 319.997 483.941 293.858 485.18 277.172C485.748 269.555 485.972 261.913 486.501 254.275C487.396 241.364 487.065 226.074 489.442 213.371C489.906 210.888 492.1 208.156 491.078 204.86C489.789 204.671 489.531 205.188 489.288 206.338C488.692 209.187 487.705 211.89 487.214 214.411C484.985 225.872 486.52 237.699 484.351 249.182C480.654 251.902 477.006 254.814 473.082 257.224C453.405 269.313 429.936 276.935 410.24 288.649C409.935 288.831 409.487 289.14 409.055 289.288C409.052 289.304 409.052 289.323 409.046 289.339C408.945 289.704 408.661 290.101 408.321 290.281C408.286 290.3 408.251 290.325 408.22 290.347C408.154 290.407 408.087 290.473 408.021 290.536C407.993 290.659 407.955 290.779 407.901 290.892L408.822 291.812L483.875 252.636C485.165 257.205 483.642 261.734 483.475 266.168C483.27 271.667 483.759 277.496 483.213 283.061C482.365 291.756 479.421 302.06 478.847 310.641C478.724 312.469 479.806 315.463 479.771 317.253C479.705 320.52 478.728 323.341 479.352 327.519C480.442 334.814 486.971 347.397 491.961 353.202C517.618 383.054 524.442 395.549 529.71 435.566C532.484 456.645 535.056 485.199 533.66 506.281L533.657 506.277Z" fill="#3F2C22"/>
<path d="M492.538 319.613C492.674 319.301 492.484 318.942 492.15 318.882C491.409 318.746 490.281 318.541 490.278 318.532C490.278 318.529 491.74 318.926 491.737 318.923C491.693 318.869 492.822 319.055 492.778 319.005C492.645 318.844 492.298 318.532 492.056 318.28C491.911 318.129 491.693 318.078 491.495 318.151L485.256 320.413C484.969 320.517 484.831 320.842 484.95 321.122C485.07 321.403 485.149 321.649 485.36 321.97C485.36 321.97 485.36 321.973 485.36 321.976C485.511 322.209 485.801 322.31 486.051 322.187C487.69 321.368 490.681 321.025 492.182 320.19C492.286 320.13 492.361 320.035 492.406 319.922C492.437 319.84 492.484 319.729 492.532 319.619L492.538 319.613Z" fill="#3F2C22"/>
<path d="M514.343 354.056C513.545 353.404 512.098 352.651 511.569 351.696C511.03 351.491 510.525 351.066 510.201 350.577C509.822 350.284 509.523 349.994 509.217 349.588C509.186 349.547 509.16 349.502 509.135 349.458L509.088 349.493C508.256 347.977 503.13 341.029 502.824 338.889C502.572 338.52 502.295 338.212 501.96 337.799C501.932 337.764 501.907 337.729 501.882 337.695C501.882 337.701 501.882 337.707 501.882 337.714C500.041 335.328 498.373 332.82 497.062 330.097C489.843 315.107 494.19 300.604 496.245 284.962C496.702 281.486 496.513 277.235 496.996 273.932C497.062 273.488 499.899 268.821 496.642 270.308C494.489 271.292 494.959 280.774 494.59 283.471C492.951 295.433 488.941 313.326 492.355 324.986C493.875 330.173 497.276 333.718 498.985 338.637L498.956 338.656C498.982 338.7 499.016 338.754 499.035 338.776C499.092 338.845 499.152 338.914 499.208 338.984C499.593 339.459 499.858 339.866 500.085 340.433C500.104 340.477 500.116 340.525 500.129 340.569C500.17 340.591 500.211 340.61 500.249 340.635C503.839 345.56 507.077 350.694 511.685 354.752C516.95 359.388 522.901 363.532 528.09 368.457C529.058 369.377 533.25 375.85 534.94 374.366L529.389 367.162C524.988 361.963 519.522 358.282 514.349 354.056H514.343Z" fill="#3F2C22"/>
<path d="M579.299 333.604C580.702 332.401 583.866 332.026 583.643 330.006C582.18 328.947 573.565 334.405 572.285 334.896C569.76 335.867 568.237 333.983 568.808 337.824C565.482 338.75 562.598 338 559.704 337.991C548.62 337.953 522.45 337.399 512.315 334.878C507.833 333.765 500.929 333.469 496.941 331.477C497.131 331.641 497.537 332.952 497.729 333.116C497.799 333.176 497.821 333.277 497.887 333.337C498.417 333.645 498.369 333.809 498.738 334.25C499.239 334.849 499.271 333.765 498.738 334.25C503.082 335.243 508.309 335.772 512.265 336.882C523.821 340.124 535.315 338.139 547.328 339.314C557.412 340.301 564.912 341.492 575.182 338.363C578.154 337.458 579.954 336.075 582.773 335.227L582.309 333.923L579.302 333.608L579.299 333.604Z" fill="#3F2C22"/>
<path d="M587.779 320.202C587.564 320.048 587.325 319.934 587.07 319.868C574.974 316.764 563.396 315.513 550.613 315.872C546.509 315.989 540.759 317.126 536.692 317.104C527.402 317.051 507.102 312.942 499.142 315.56C498.234 315.86 497.433 317.023 495.842 317.517C494.54 317.921 492.907 317.895 491.545 318.091C491.586 318.138 491.621 318.185 491.665 318.229C491.684 318.245 491.857 318.425 491.876 318.444C491.974 318.538 492.075 318.633 492.175 318.727C492.314 318.857 492.45 318.989 492.585 319.118C493.184 319.704 494.079 319.874 494.849 319.537C497.172 318.522 499.47 317.397 501.979 317.155C513.208 316.065 524.07 318.85 534.918 319.162C543.482 319.405 550.708 317.552 559.654 317.829C560.99 317.87 570.056 318.57 570.863 318.753C572.862 319.197 572.556 321.021 574.47 321.132C575.765 321.207 577.228 320.382 578.609 320.442C583.328 320.64 586.013 321.551 588.643 323.637C588.649 323.634 588.655 323.628 588.661 323.621C588.661 323.621 589.755 324.396 590.755 325.109C591.681 325.767 592.974 325.562 593.633 324.636C593.648 324.611 593.661 324.598 593.661 324.592C593.907 324.031 589.342 321.516 589.393 321.374L587.772 320.196L587.779 320.202Z" fill="#3F2C22"/>
<path d="M617.017 466.433C616.601 466.685 616.279 466.786 616.122 466.647C616.355 466.367 616.575 466.08 616.799 465.793C616.531 464.983 616.27 464.174 616.018 463.357C610.11 470.281 604.036 477.015 597.721 483.276C591.054 489.888 583.539 495.74 576.828 502.316C573.619 503.81 569.672 499.014 566.838 497.927C562.05 496.089 549.838 499.858 544.766 501.343C544.791 498.179 544.718 494.999 544.728 491.829C544.791 467.854 546.726 444.938 550.109 421.282C550.5 418.537 552.007 414.358 552.013 411.957C552.016 410.76 550.774 411.138 550.648 410.586C548.716 402.138 578.521 356.212 584.302 346.159C588.195 339.387 594.156 329.776 596.643 322.443C598.428 317.183 597.195 309.838 597.264 304.014C597.507 284.287 596.88 264.226 595.843 244.427C595.196 232.118 594.26 219.683 592.555 207.485C592.949 207.179 596.678 209.228 595.821 207.16C595.392 206.124 589.497 200.971 588.198 200.379C584.33 198.614 578.65 197.792 574.495 197.054C561.902 194.817 549.4 193.676 536.608 193.704C531.848 193.714 527.251 194.549 522.501 194.385C523.819 190.468 522.369 187.203 522.495 183.264L519.825 184.352C521.678 190.856 522.709 194.565 514.645 195.696C514.359 192.198 513.542 189.384 514.639 185.883L511.37 186.882C512.142 188.814 513.892 193.994 512.042 195.384C511.452 195.828 504.586 197.369 502.878 198.006C500.797 198.781 498.818 200.105 496.677 200.968C494.704 201.765 492.355 201.148 491.079 203.231C490.839 204.406 492.459 204.589 493.049 205.352C494.553 207.29 495.517 210.939 497.604 211.749C500.119 212.725 503.259 212.309 505.661 212.858C526.318 217.556 551.685 219.009 572.412 213.308C574.877 212.631 578.344 210.825 581.96 210.961L590.588 206.174C590.291 209.051 591.243 211.777 591.521 214.585C593.51 234.611 594.437 254.984 595.203 275.19C595.871 292.811 597.646 319.625 588.741 334.887C588.012 336.138 586.058 339.702 584.75 340.736C584.501 341.653 584.012 342.532 583.407 343.178C583.363 343.225 583.312 343.26 583.265 343.301C583.284 343.326 583.303 343.351 583.325 343.376L553.81 394.212C540.523 425.886 544.473 462.207 542.137 496.427C541.862 500.435 541.178 504.963 540.28 508.893L541.755 509.807L543.451 508.54V517.704C545.087 517.811 544.577 517.868 544.744 516.721C545.428 512.082 545.459 507.396 545.484 502.72C549.248 502.647 553.532 500.605 556.908 500.069C558.198 499.865 562.914 499.433 564.108 499.468C565.725 499.518 574.593 504.424 573.918 505.928C572.872 508.115 567.103 507.387 567.935 510.516C569.262 513.503 572.166 513.396 572.276 509.842C574.899 511.679 576.011 507.872 577.521 508.843C578.19 509.274 582.171 516.935 582.556 518.211C587.621 534.988 573.083 547.247 558.967 552.516C546.837 557.044 525.776 554.356 513.64 549.796C511.997 549.179 506.131 546.27 505.113 545.23C503.496 543.579 500.627 533.964 501.176 531.45C501.68 529.143 504.599 524.536 506.134 522.607C511.758 515.539 523.081 505.685 532.327 505.263L532.235 503.06L530.697 501.973C528.415 503.621 525.751 503.892 523.361 505.143C516.619 508.666 503.767 520.553 500.34 527.29C499.659 528.629 498.225 532.219 498.401 533.58C498.556 534.762 500.7 541.861 501.235 543.21C503.023 547.704 509.841 550.877 514.308 552.396C529.14 557.432 551.042 559.571 565.306 552.314C579.492 545.098 588.652 534.349 584.551 517.521C583.58 513.535 578.59 509.224 577.764 505.921C576.954 502.685 584.46 498.217 586.657 496.102C586.124 500.259 574.836 503.586 583.319 505.868C583.546 504.944 584.015 504.283 584.668 503.608C591.713 496.304 599.569 489.724 606.643 482.369C610.46 478.401 614.208 473.511 618.003 469.209C617.663 468.289 617.335 467.363 617.02 466.433H617.017ZM588.425 205.008C580.229 210.709 558.548 214.273 548.391 214.708C534.105 215.319 519.736 213.715 506.197 210.497C500.766 209.209 496.627 211.203 495.019 203.918C495.255 202.856 509.028 197.54 511.08 197.618C512.571 197.675 513.69 199.128 514.299 198.973C514.557 198.907 516.262 195.923 518.564 196.348C517.486 201.17 513.507 205.345 515.941 210.312L517.917 210.74C515.21 208.534 520.54 197.319 521.971 196.478C523.15 195.781 525.259 197.01 526.684 196.935C544.299 195.986 560.71 196.575 578.152 199.96C581.865 200.681 585.68 202.415 589.28 203.558C589.645 205.115 588.996 204.614 588.428 205.008H588.425ZM547.385 421.499C548.892 422.356 547.644 425.87 548.028 427.383C546.518 426.472 547.773 423.009 547.385 421.499ZM599.755 483.009C600.228 481.943 601.192 480.844 602.374 481.058C601.901 482.123 600.937 483.223 599.755 483.009ZM604.994 477.774L611.535 471.235C610.677 473.697 607.456 476.917 604.994 477.774Z" fill="#3F2C22"/>
<path d="M402.275 294.831C402.209 294.731 402.158 294.627 402.123 294.519C400.037 295.597 389.861 299.161 387.944 300.037C374.717 306.088 361.972 313.083 348.67 319.024C276.611 351.204 200.899 375.229 126.989 403.064C102.386 412.329 78.4911 423.674 53.0015 430.546L14.5527 448.071V450.689C29.9928 443.035 45.2909 434.914 61.6767 429.403C80.3258 423.128 97.0141 416.17 115.367 409.118C205.318 374.558 299.014 346.376 384.978 302.829L402.943 295.833C402.719 295.499 402.499 295.165 402.275 294.831Z" fill="#3F2C22"/>
<path d="M-3.57628 169.534C-1.70065 165.094 18.6759 154.786 23.8268 152.385C30.3836 149.332 45.3571 142.572 52.1031 142.676C54.1237 142.708 56.1601 144.069 58.1618 144.466C65.6265 145.941 71.8807 147.986 79.09 149.725C85.3442 151.232 87.7179 150.441 93.6222 154.83C100.144 159.68 99.9741 168.935 105.415 173.149C109.472 176.291 119.739 176.152 121.634 170.319C122.173 168.661 123.304 162.976 123.156 161.335C122.91 158.65 120.852 157.616 120.493 155.114C118.916 155.681 115.972 156.409 117.674 158.376C123.071 157.934 120.896 166.537 119.5 169.49C117.659 173.385 107.726 173.615 105.39 169.698C104.895 168.869 105.472 167.543 104.974 166.452C104.003 164.335 101.881 164.524 103.328 161.18C105.374 156.45 110.38 160.459 109.721 155.766C108.369 153.74 102.786 157.421 101.834 159.034L100.879 159.041L99.5895 156.734L93.0138 151.197L119.096 154.103C158.673 157.802 198.216 164.209 238.005 166.922C243.991 167.328 252.991 167.319 258.974 166.89C307.355 163.414 355.696 155.36 404.352 157.708L424.959 159.362C425.11 159.438 425.246 159.535 425.365 159.646C426.343 159.775 427.317 159.932 428.291 160.106C428.269 159.97 428.25 159.835 428.228 159.702C429.993 160.32 431.922 160.83 433.795 161.001C452.198 162.664 471.919 166.175 489.588 170.023C492.352 170.625 496.321 171.365 498.975 171.201L499.659 165.664L503.108 164.981C504.101 165.267 504.983 171.037 505.869 172.726C508.338 177.441 514.907 179.952 516.496 185.732C516.877 187.125 515.052 189.214 517.911 189.151C520.657 179.152 507.464 175.604 506.172 168.494C505.961 167.331 505.46 164.287 507.436 164.937C507.357 166.503 507.329 167.855 507.934 169.351C508.839 171.589 517.596 178.08 519.897 178.994C521.221 179.521 521.596 179.533 522.485 178.355C518.028 175.229 513.466 172.184 510.21 167.807C511.528 164.974 509.337 163.418 509.378 160.723C509.45 155.962 511.953 148.742 512.502 143.486C512.663 141.958 511.843 140.439 512.054 138.497C512.221 136.985 513.517 135.28 513.35 133.865C513.198 132.567 512.007 132.23 511.752 131.577C511.43 130.758 511.89 129.006 511.033 126.98C509.677 123.778 505.885 119.105 502.027 119.874C497.04 120.866 498.297 127.575 491.722 122.073C489.364 120.1 489.32 117.674 485.531 117.86C482.337 118.018 482.731 121.232 481.398 121.723C478.466 122.798 471.859 122.07 468.559 121.667C451.549 119.574 430.526 114.999 413.986 110.773C387.689 104.054 365.27 88.8936 341.069 76.985C312.528 62.9399 285.166 52.4998 253.681 46.5376C241.756 44.2781 227.797 44.212 216.389 40.6195C213.855 39.8223 209.788 37.3454 207.591 36.9609C204.738 36.463 201.895 37.1815 198.415 35.6815C194.622 34.0429 195.949 32.0576 194.19 30.088C193.402 29.2025 191.328 28.4809 190.25 27.482C187.549 24.9799 175.292 13.4872 174.186 11.3381C173.098 9.22989 174.11 7.39586 170.722 6.40322C167.005 5.31288 158.459 5.25301 153.746 4.41478C141.036 2.15217 130.908 -4.18815 119.219 4.28557C118.188 5.03242 117.904 6.32759 116.807 7.11225C112.823 9.96098 106.657 12.545 101.698 12.2646C100.28 12.1858 97.7517 9.32128 97.0235 12.6648C97.3482 14.2782 98.3664 14.7793 99.9678 14.8171C104.028 14.9085 110.298 13.9379 113.967 12.1227C118.879 9.68998 123.453 3.24251 128.692 2.62801C135.397 1.8402 139.898 4.40217 146.039 5.56813C150.556 6.42528 167.698 8.30657 170.302 10.1185C173.845 12.586 178.29 19.9221 181.364 23.2845C182.278 24.2834 192.8 33.3496 191.87 34.0366C178.221 31.9883 164.921 28.4179 151.414 25.7267C131.485 21.7561 111.244 18.5072 91.5385 14.899C87.119 14.0891 79.3233 11.0104 75.1023 12.5482C73.709 13.0555 74.2953 14.6406 73.6617 15.6868C73.0187 16.7488 66.9694 22.0334 65.2356 24.2803C59.3975 31.8591 57.7678 34.6889 49.742 40.8622C41.7792 46.9882 28.4607 57.4661 19.6815 61.2067C15.0602 63.1762 10.1268 63.3495 5.93425 65.7949C5.73881 66.6268 6.53634 67.3579 7.4316 67.3075C8.04 67.2729 14.4928 65.36 15.6119 64.9882C28.0635 60.86 37.3092 51.8254 47.5858 44.6216C48.9255 43.6826 55.413 38.4105 56.3429 39.2803L49.2155 67.818C48.3045 77.3506 45.2846 87.7938 44.569 97.2066C44.071 103.745 44.6667 129.371 47.3336 134.35C48.2541 136.068 50.7223 138.86 52.4025 136.471C45.5273 127.739 47.1445 115.121 47.2107 104.373C47.3273 86.1552 52.0904 61.6321 57.3201 43.8496C58.6693 39.2677 59.5614 41.3002 60.6616 39.9672C61.0935 39.441 60.2423 37.8401 60.5197 36.6206C60.8318 35.2467 62.2125 35.2656 62.5278 34.6889C65.6107 29.045 66.6762 25.9631 71.7231 20.9431C81.2273 11.4925 91.8348 17.691 103.208 19.5912C122.781 22.8654 142.209 26.6185 161.602 30.5922L191.212 36.6647C191.388 37.7519 189.626 37.3674 188.901 37.3422C186.748 37.2666 184.844 36.5513 182.707 36.6616C182.956 39.9326 188.393 38.3632 190.877 38.6311C199.943 39.6017 209.798 41.2813 218.857 42.7309C249.334 47.6122 281.488 52.8937 310.174 64.6731C343.137 78.2077 376.858 103.068 410.386 112.411C427.796 117.261 455.136 122.574 473.076 124.355C478.851 124.928 481.537 125.032 486.275 121.181C489.112 122.864 495.397 128.587 498.553 126.274C499.962 125.243 499.385 122.978 502.036 122.502C505.406 121.894 507.625 124.865 508.754 127.629C504.35 127.103 508.896 130.698 509.548 132.4C511.748 138.151 506.629 137.959 504.533 140.782C502.323 143.76 508.416 154.969 507.313 160.528C506.547 164.385 500.551 162.724 497.585 163.919C495.946 165.028 498.606 168.958 496.003 169.276C492.384 169.717 488.491 165.321 486.744 165.119C484.84 164.902 481.048 165.8 478.318 165.583C464.675 164.495 451.148 160.881 437.631 159.132C434.331 158.706 430.851 159.267 427.563 158.388C427.49 157.446 426.979 157.225 428.209 157.282C434.019 157.544 440.162 157.487 445.925 158.042C450.02 158.435 454.641 159.683 458.745 160.279C463.354 160.947 468.508 160.153 472.738 162.973C473.177 161.643 470.188 160.414 469.4 160.096C467.77 159.438 464.927 158.7 463.184 158.461C435.617 154.651 407.672 154.717 380.193 152.426C370.238 151.594 358.123 144.05 347.856 142.197C341.12 140.981 333.182 141.724 326.455 140.684C314.215 138.794 299.821 132.869 287.622 131.07C270.719 128.577 251.96 133.544 234.912 130.096C224.554 128.004 216.005 122.965 206.825 120.22C203.335 119.177 193.989 120.765 193.818 125.316L196.681 125.735C197.45 125.114 196.942 123.639 198.563 122.864C204.748 119.911 210.51 124.692 216.102 126.649C241.248 135.453 252.341 132.119 277.383 132.945C294.453 133.506 310.363 139.771 327.083 142.72C334.437 144.018 343.191 143.187 350.344 144.948C355.343 146.18 364.649 150.239 369.756 152.376C371.615 153.151 374.465 154.339 375.846 155.77C372.246 155.738 368.627 155.823 365.018 155.807C338.387 155.688 308.875 161.089 281.888 162.967C270.807 163.739 255.932 165.52 245.239 164.933C208.048 162.898 170.92 158.25 134 153.743C116.073 151.556 95.9076 150.132 78.3366 147.217C74.4435 146.571 71.5907 144.913 68.4037 144.05C66.6037 143.565 58.6441 142.802 58.4518 141.728L58.9656 139.415C57.3517 138.775 54.5776 140.294 53.4995 140.117C52.8092 140.004 53.0834 138.217 51.4537 138.059C48.1154 137.738 48.79 140.24 48.0492 140.729C46.1231 141.999 38.3463 143.798 35.4115 144.986C24.1956 149.517 7.47889 156.63 -1.86457 164.01C-3.80325 165.542 -8.79336 169.465 -6.32825 171.961C-3.02147 175.31 -3.79064 170.048 -3.57628 169.534ZM510.711 140.067L510.629 145.544L508.757 153.151C509.305 147.923 502.361 140.99 510.711 140.07V140.067ZM385.668 154.471L397.445 155.782C397.01 156.976 393.578 156.504 392.55 156.419C391.15 156.302 388.84 155.921 387.487 155.584C386.828 155.42 385.517 155.398 385.668 154.471Z" fill="#3F2C22"/>
<path d="M195.146 100.134C202.579 102.12 210.51 101.647 218.145 102.498C261.943 107.373 300.452 121.553 342.463 132.532C350.782 134.707 358.026 136.371 366.395 138.063C377.879 140.382 388.915 145.159 400.566 147.097C410.181 148.698 419.672 147.907 429.237 147.895C445.673 147.869 458.25 146.426 474.189 152.039C475.071 152.351 478.362 153.009 477.974 154.128C477.426 155.722 476.474 154.534 475.815 154.348C471.159 153.034 465.668 150.892 461.122 150.044C451.23 148.203 435.298 150.479 424.622 150.535C420.423 150.557 414.581 151.052 410.859 150.847C397.316 150.101 380.811 143.615 367.167 140.562C349.3 136.563 331.59 131.83 313.808 126.491C277.327 115.544 237.292 103.355 199.373 103.443C197.677 103.446 196.227 102.523 194.581 102.841C194.153 103.109 191.546 111.34 191.379 112.408C190.685 116.867 190.285 126.665 190.575 131.225C191.007 138.028 193.891 145.248 194.506 152.165L190.584 151.815C192.867 145.642 189.185 140.199 188.611 134.496C188.122 129.636 188.214 120.507 188.69 115.607C189.339 108.926 193.251 102.321 194.963 95.6973C196.072 91.399 196.265 86.4011 197.283 82.3076C198.859 75.9767 202.223 69.0881 204.319 62.8423C182.795 59.0419 161.369 54.6774 140.018 50.2121C130.161 48.1512 119.837 46.5818 109.891 44.3318C106.326 43.5251 83.5569 36.3245 82.5702 37.3392C82.4252 40.8781 78.8851 43.3896 77.186 46.6795C67.8205 64.8213 62.1747 101.801 61.5852 122.061C61.5253 124.163 60.5765 126.157 60.8822 128.631C61.0871 130.282 63.1708 129.762 62.8966 131.218C61.478 133.282 58.3667 133.96 58.455 130.774C59.0791 108.35 64.2332 75.4568 71.7514 54.3402C73.7752 48.6585 76.9654 42.4474 80.518 37.5472L79.317 35.105L80.8931 33.5672L110.512 42.397C124.953 44.7604 139.542 47.7604 153.746 51.5388L207.607 61.1785C209.426 62.3035 206.393 63.9957 205.769 65.2688C204.186 68.4925 201.261 76.4305 200.199 79.9914C198.222 86.6311 198.79 94.0271 195.149 100.131L195.146 100.134Z" fill="#3F2C22"/>
<path d="M471.436 129.595L470.402 132.138L446.514 127.998C427.521 121.339 407.52 117.759 388.13 112.405C355.563 103.415 328.293 79.6101 295.455 70.8812L285.5 68.7352C292.356 68.1774 298.919 70.6795 305.325 72.7971C333.34 82.0524 359.018 102.29 386.822 109.79C411.76 116.514 437.949 124.642 463.417 128.776C465.983 129.192 468.835 129.274 471.436 129.598V129.595Z" fill="#3F2C22"/>
<path d="M536.9 227.77C537.395 228.245 531.434 237.888 530.684 239.549C527.156 247.364 526.696 253.229 524.811 261.167C524.285 263.382 522.636 265.682 522.822 267.686C524.174 266.732 532.023 260.164 532.969 261.148C532.692 272.105 525.64 281.823 522.185 291.92C519.632 299.379 519.395 304.521 518.598 311.836C518.342 314.174 517.119 316.326 517.264 318.737C517.829 319.361 522.819 314.486 525.999 315.538C528.357 316.919 526.185 319.859 526.422 322.011L524.672 321.062L525.114 317.438C524.256 316.572 516.738 320.06 516.637 322.317C516.552 324.226 519.648 327.734 516.933 329.858L512.678 317.438L515.376 317.057C515.827 315.617 516.167 314.01 516.016 312.491C515.893 311.262 514.717 311.606 514.626 311.13C514.181 308.877 515.988 308.502 516.442 307.124C517.529 303.828 517.914 299.347 519.026 295.963C521.529 288.34 525.602 281.287 528.238 273.756C529.234 270.91 530.971 267.349 530.034 264.425C526.718 266.319 524.792 270.753 520.54 270.315C519.487 267.122 521.719 265.326 522.311 263.253C524.606 255.208 525.564 248.215 528.729 240.217C529.338 238.682 533.515 228.958 533.959 228.428C534.757 227.473 535.866 227.776 536.903 227.776L536.9 227.77Z" fill="#3F2C22"/>
<path d="M151.184 159.135C153.182 160.314 148.706 168.876 148.296 170.785C147.495 174.513 147.927 177.734 150.077 180.888C154.084 186.769 158.071 182.842 162.406 179.656L158.888 179.943C154.563 177.233 165.041 174.331 165.013 173.117C165.003 172.676 161.842 169.966 166.337 168.847C166.63 168.46 163.887 167.045 165.675 165.907L174.558 163.601L179.416 166.566C178.104 170.165 176.099 168.945 173.571 169.872C169.202 171.476 169.045 176.77 166.996 179.662C165.747 181.427 158.683 186.617 156.618 186.816C151.874 187.27 148.867 185.016 146.814 180.847C142.537 172.159 149.633 167.836 148.662 159.038L151.184 159.132V159.135ZM170.264 168.866C169.88 168.482 165.917 170.584 166.999 171.479C168.644 171.75 170.356 170.637 170.264 168.866ZM165.022 178.679L165.678 175.408C163.348 175.925 162.699 177.466 165.022 178.679Z" fill="#3F2C22"/>
<path d="M237.701 118.475C236.699 119.801 246.288 122.206 247.275 122.313C256.183 123.271 289.532 122.918 294.875 126.435C295.546 126.876 296.438 127.452 296.624 128.281C292.28 126.819 287.735 126.082 283.132 125.735C271.15 124.834 258.538 125.65 246.553 124.349C241.809 123.835 238.3 121.764 233.871 120.34L233.751 117.599L242.94 115.188L242.291 114.198L221.656 111.271L211.521 111.92C210.992 107.155 218.381 108.926 221.631 109.339C227.059 110.029 232.976 110.442 238.527 111.428C260.606 115.358 238.864 116.943 237.707 118.475H237.701Z" fill="#3F2C22"/>
<path d="M194.483 164.937C195.224 165.422 193.516 180.116 195.297 182.451C196.305 183.444 204.079 182.032 205.453 181.459C208.016 180.39 207.08 178.323 208.237 177.041C209.324 175.834 213.722 174.923 215.118 173.445L211.273 173.385C207.736 169.739 213.107 170.631 214.17 169.881C215.036 169.266 214.545 167.139 215.396 166.525L218.715 166.235V168.86L224.846 167.612C228.339 170.971 223.295 170.429 222.738 170.952C222.444 171.23 222.883 172.399 222.262 172.849C221.319 173.53 218.416 173.351 217.574 174.271C217.252 174.624 217.271 175.745 216.773 176.376C215.118 178.471 213.312 178.112 215.471 180.98C215.544 182.773 212.284 183.485 210.863 183.252L212.165 180.961C210.503 179.685 209.302 182.681 208.404 183.264C204.82 185.59 194.682 187.396 191.429 183.62C192.819 180.806 191.738 178.352 191.816 175.73C191.861 174.17 192.516 172.717 192.576 171.154C192.617 170.083 190.943 162.602 194.486 164.93L194.483 164.937Z" fill="#3F2C22"/>
<path d="M59.1639 59.3759C59.7156 60.0535 61.4178 60.274 61.5849 61.5188C49.0418 61.5156 60.3271 45.4821 61.8749 39.2363L76.4165 24.271L90.1133 27.4411C100.336 27.9044 109.91 29.7604 120.205 29.4863C121.52 29.4516 124.571 28.0588 125.082 29.7888C125.886 32.5052 121.945 31.9474 120.199 31.8907C105.995 31.4306 91.7494 29.2279 77.7626 27.6081C73.9956 31.1628 66.5876 36.3907 63.9302 40.6386C62.6157 42.7405 58.7163 53.0829 58.4452 55.4936C58.2844 56.9243 58.193 58.1879 59.1576 59.3759H59.1639Z" fill="#3F2C22"/>
<path d="M112.652 55.6354H103.157C101.827 55.6354 95.8659 51.8098 93.4481 53.1144C91.2698 53.8329 88.9592 64.8276 88.086 67.4053C87.6194 68.7824 86.5729 69.9988 86.1505 71.3602C82.3362 83.5902 78.8339 97.1437 78.6038 109.963H76.6462C76.1891 107.08 76.3783 104.745 76.7503 101.88C78.484 88.566 83.9249 70.4999 88.1144 57.6144C92.4835 44.1743 96.4207 53.0293 104.632 53.5146C107.315 53.6722 113.052 51.0125 112.652 55.6354Z" fill="#3F2C22"/>
<path d="M161.599 114.693C163.519 117.933 160.634 120.942 161.129 124.626C161.624 128.31 166.116 132.992 169.268 134.845C170.662 135.665 177.505 138.233 177.84 138.712C178.486 139.632 177.959 141.217 177.13 141.375C175.854 141.617 164.155 134.316 162.778 132.825C160.59 130.456 158.141 125.395 158.522 122.133C158.926 118.679 162.113 116.826 156.133 115.906C149.756 114.926 141.292 115.112 135.381 113.745C131.497 112.846 131.762 108.8 133.925 109.304C134.224 109.374 135.015 110.754 136.598 111.22C140.343 112.32 148.176 113.146 152.369 113.647C154.336 113.883 159.884 113.02 161.602 114.693H161.599Z" fill="#3F2C22"/>
<path d="M298.589 87.6994C289.847 79.4589 276.841 76.8118 267.22 70.3045C266.249 69.649 262.498 67.5188 265.515 66.7719L271.923 70.0555C272.387 72.0818 280.003 72.9326 280.261 73.3139L279.596 75.2614C283.265 76.774 288.186 78.6049 291.578 80.5145C292.003 80.754 292.089 81.5576 292.524 81.8066C295.764 83.6627 301.776 86.5587 304.455 88.7204C305.546 89.5996 306.019 90.1259 305.789 91.6353L303.544 91.5975C283.089 84.9011 263.094 76.3517 242.474 70.169C241.85 69.9831 240.791 69.6459 240.98 70.6858L252.757 78.2236L252.423 79.8654C250.295 80.0324 239.981 71.2278 236.624 69.4789C233.944 68.086 230.284 66.7278 227.397 65.6123C223.021 63.9169 214.665 63.545 214.132 58.2635L246.749 71.1396C264.462 75.4725 280.999 83.3066 298.586 87.7057L298.589 87.6994Z" fill="#3F2C22"/>
<path d="M580.765 223.188C580.21 229.799 582.902 236.744 583.409 243.122C584.153 252.485 582.974 266.694 582.669 276.523C582.59 279.025 584.365 282.16 581.751 284.694C580.632 284.71 580.777 278.388 580.746 277.222C580.408 264.504 582.246 251.231 580.702 238.635C580.241 234.869 578.133 228.976 578.123 225.441C578.117 223.515 578.883 222.932 580.768 223.191L580.765 223.188Z" fill="#3F2C22"/>
<path d="M590.587 297.138L576.377 290.079C564.199 280.077 548.706 275.454 536.015 266.287C534.054 264.869 535.198 264.472 536.576 263.117C544.141 270.702 554.629 274.172 563.547 279.34C570.056 283.112 584.264 290.561 589.226 294.904C589.973 295.559 590.843 295.906 590.587 297.138Z" fill="#3F2C22"/>
<path d="M187.287 94.9C178.047 92.7918 184.182 81.9673 185.644 75.9169L190.559 69.3843C186.861 68.8549 175.513 67.8402 174.309 63.6963C173.943 62.4358 174.075 61.6637 175.176 60.8854C176.522 61.9253 176.326 63.8224 177.937 64.6574C178.618 65.0104 184.119 66.5829 185.052 66.7058C187.697 67.0618 194.559 65.3696 195.045 67.8371C195.464 69.9673 192.132 71.1994 191.214 72.3244C188.321 75.8759 183.58 86.2215 184.011 90.6458C184.235 92.9336 187.397 92.6185 187.284 94.9032L187.287 94.9Z" fill="#3F2C22"/>
<path d="M523.806 513.781C525.111 515.208 518.337 520.436 517.413 522.109C516.007 524.656 513.324 534.324 514.1 536.879C515.235 540.604 529.947 540.948 533.629 543.238C533.868 543.547 533.03 544.256 532.506 544.404C529.836 545.161 514.986 541.792 512.987 539.977C509.245 536.577 513.586 525.711 515.824 521.832C516.436 520.776 522.416 512.262 523.803 513.781H523.806Z" fill="#3F2C22"/>
<path d="M535 411.091C535.211 410.741 537.417 410.177 537.559 411.358C537.613 411.812 536.923 413.063 536.91 413.971C536.702 428.366 539.142 442.764 539.552 457.134L538.543 468.604C535.734 465.673 537.616 461.923 537.591 459.097C537.499 449.397 536.22 439.408 535.602 429.667C535.466 427.515 534.52 411.885 535 411.091Z" fill="#3F2C22"/>
<path d="M214.327 140.511C217.448 142.213 222.942 144.06 226.432 145.109C239.46 149.032 251.83 149.823 264.884 145.311L265.196 146.6C249.929 151.982 232.9 149.959 217.88 144.498C216.562 144.019 209.413 141.003 211.515 138.759C212.719 137.473 214.069 140.373 214.324 140.514L214.327 140.511Z" fill="#3F2C22"/>
<path d="M509.16 222.078C509.037 221.851 507.584 222.078 508.101 220.903C508.993 218.877 510.906 220.528 511.527 222.044C513.359 226.518 511.124 232.191 510.723 236.609C510.291 241.373 509.257 248.161 510.206 252.816C510.528 254.401 512.258 256.865 512.813 258.724C513.173 259.925 513.797 260.101 512.353 261.129C511.369 261.088 507.574 251.25 507.42 249.699C506.698 242.524 512.192 227.65 509.163 222.075L509.16 222.078Z" fill="#3F2C22"/>
<path d="M508.747 306.308L506.783 306.299C507.625 299.048 507.669 290.502 509.081 283.392C509.649 280.534 511.896 275.867 512.076 273.245C512.205 271.351 511.203 267.267 509.359 266.634C509.261 264.107 512.533 263.401 513.242 265.512C513.397 265.972 514.084 274.569 514.027 275.215C513.775 278.123 511.338 282.185 510.755 285.072C509.983 288.904 509.217 295.395 508.763 299.442C508.517 301.644 508.914 304.071 508.75 306.305L508.747 306.308Z" fill="#3F2C22"/>
<path d="M519.222 225.151C518.661 229.569 516.019 234.86 515.934 239.25C515.852 243.595 518.834 249.173 519.25 253.591C519.692 258.267 518.673 262.2 517.895 266.706C517.706 267.803 518.292 267.825 516.609 267.686C516.546 263.149 517.665 258.898 517.249 254.284C516.253 243.242 511.184 239.959 516.937 227.117C517.409 226.062 517.762 224.908 519.219 225.154L519.222 225.151Z" fill="#3F2C22"/>
<path d="M553.27 392.048L540.485 407.738C537.925 408.311 539.18 401.066 535.948 399.201C533.95 398.048 530.728 400.074 530.359 398.249C529.814 395.542 536.79 395.602 538.789 398.993C539.413 400.049 539.901 405.116 541.474 403.818C541.891 402.311 543.129 400.77 544.135 399.598C545.617 397.877 548.794 393.967 550.332 392.706C551.332 391.887 552.073 391.956 553.27 392.051V392.048Z" fill="#3F2C22"/>
<path d="M223.296 53.669C223.416 52.6323 222.634 51.5734 224.232 51.7436C227.552 52.0965 232.286 53.7573 235.741 54.6491C246.929 57.5388 257.07 59.0356 268.194 61.4778C269.235 61.7047 270.332 61.2888 271.079 62.5083C269.893 64.0713 267.933 63.5198 266.347 63.3213C253.328 61.6921 240.81 56.5556 228.053 53.8297C226.483 53.4957 224.872 53.7163 223.293 53.669H223.296Z" fill="#3F2C22"/>
<path d="M512.675 304.339C509.888 304.55 511.111 300.617 511.43 298.884C512.454 293.281 515.096 288.245 515.786 282.248C516.067 279.806 514.03 276.034 517.592 274.909C519.14 275.88 518.15 276.371 518.109 277.367C517.703 287.483 514.043 294.642 512.675 304.342V304.339Z" fill="#3F2C22"/>
<path d="M536.27 528.799C541.822 531.793 545.907 528.383 551.304 527.523C552.653 528.695 546.471 531.267 545.781 531.484C541.295 532.905 537.238 533.362 533.701 529.71L536.913 520.975C541.929 521.526 534.962 526.965 536.27 528.796V528.799Z" fill="#3F2C22"/>
<path d="M565.06 532.754C563.509 530.952 572.881 510.557 560.474 512.466C560.704 507.412 565.284 510.339 567.024 512.794C569.823 516.74 569.171 522.522 568.168 527.035C567.995 527.81 566.309 534.207 565.06 532.754Z" fill="#3F2C22"/>
<path d="M345.073 104.064C341.801 104.861 340.924 102.365 338.62 101.029C335.572 99.2645 332.29 97.8874 329.393 95.8549L311.034 87.0566L330.834 95.0702C332.877 96.1322 335.011 97.7078 337.066 98.6563C340.02 100.021 346.009 100.144 345.073 104.061V104.064Z" fill="#3F2C22"/>
<path d="M516.606 339.034L516.584 342.639L531.664 348.516C528.837 351.834 526.857 348.478 524.165 347.511C521.126 346.421 514.768 345.901 513.62 342.33C512.735 339.582 513.8 338.728 516.609 339.031L516.606 339.034Z" fill="#3F2C22"/>
<path d="M483.09 130.79C483.014 130.922 481.353 131.615 480.6 132.535C478.898 134.618 477.429 136.925 476.322 139.389L475.685 147.904C470.301 141.939 477.315 135.211 480.08 130.037C480.508 129.233 480.508 127.708 480.603 127.626C481.735 126.646 484.203 128.861 483.09 130.79Z" fill="#3F2C22"/>
<path d="M483.213 146.612C483.484 147.929 482.006 148.295 481.94 149.524C481.798 152.18 487.336 160.55 491.078 159.044C490.549 167.07 484.682 158.675 482.942 155.716C481.202 152.757 476.934 146.032 483.213 146.609V146.612Z" fill="#3F2C22"/>
<path d="M491.075 132.539C491.132 132.331 492.885 129.23 493.175 128.748C494.584 126.435 496.838 128.01 496.258 129.873C496.166 130.163 493.039 132.255 493.039 133.846V145.626L492.056 146.593L491.072 145.626C491.687 142.087 490.24 135.636 491.072 132.535L491.075 132.539Z" fill="#3F2C22"/>
<path d="M497.616 251.325C493.581 250.925 496.157 247.033 496.299 244.446C496.551 239.823 495.731 236.76 495.003 232.351L497.301 232.991C498.537 238.966 497.153 245.209 497.616 251.325Z" fill="#3F2C22"/>
<path d="M152.589 146.603L136.219 145.95V143.341C136.928 142.601 148.51 144.718 150.325 145.273C151.202 145.541 152.359 145.323 152.589 146.603Z" fill="#3F2C22"/>
<path d="M496.589 332.196C497.103 332.218 497.484 332.732 497.289 333.207C497.021 333.85 496.025 333.557 494.978 333.535C490.587 333.444 482.936 329.902 482.268 325.077C482.233 324.816 482.325 324.551 482.523 324.381C484.216 322.925 485.464 327.393 486.776 328.641C489.011 330.762 493.345 332.07 496.589 332.202V332.196Z" fill="#3F2C22"/>
<path d="M581.364 300.469C582.489 301.162 581.499 309.311 581.427 311.221C581.389 312.223 582.032 313.811 580.453 313.496C578.243 309.841 578.826 306.044 579.677 302.234C579.888 301.288 578.968 298.997 581.364 300.469Z" fill="#3F2C22"/>
<path d="M539.523 504.614C538.413 504.626 538.095 504.992 538.259 503.69C539.145 496.603 537.71 491.173 537.893 484.323C538.782 483.831 539.523 485.744 539.523 485.961V504.614Z" fill="#3F2C22"/>
<path d="M509.4 316.124C509.863 320.306 510.572 322.175 512.672 325.625C513.17 326.445 513.491 327.031 512.341 327.245C509.598 327.759 507.42 319.295 507.518 317.205L509.4 316.124Z" fill="#3F2C22"/>
<path d="M162.405 20.9495C162.708 22.3392 161.696 22.4369 160.886 23.0231C158.893 24.4695 155.275 26.9464 153.245 24.5357C152.816 22.5094 156.387 23.0798 157.343 22.7552C159.07 22.1659 160.438 20.7668 162.405 20.9495Z" fill="#3F2C22"/>
<path d="M305.785 83.7856L303.291 83.9841L294.008 79.8559C298.345 79.9253 301.643 82.9883 305.785 83.7856Z" fill="#3F2C22"/>
<path d="M578.145 511.817C578.502 512.167 578.044 514.679 577.187 515.161C572.14 516.295 576.052 509.766 578.145 511.817Z" fill="#3F2C22"/>
<path d="M559.814 313.499H556.539L556.545 311.542C558.163 311.366 559.991 311.498 559.811 313.499H559.814Z" fill="#3F2C22"/>
<path d="M540.828 348.844C534.521 348.986 539.731 345.065 540.825 347.876V348.844H540.828Z" fill="#3F2C22"/>
<path d="M521.845 229.068L525.111 226.455C525.252 228.226 523.408 229.329 521.845 229.068Z" fill="#3F2C22"/>
<path d="M290.074 77.2404C289.702 78.92 286.253 76.982 286.149 75.9295L290.074 77.2404Z" fill="#3F2C22"/>
<path d="M60.9263 209.445H58.9688V210.746H60.9263V209.445Z" fill="#3F2C22"/>
</g>
<defs>
<clipPath id="clip0_466_17716">
<rect width="625" height="557" fill="white" transform="translate(-7)"/>
</clipPath>
</defs>
</svg>
