<svg width="1516" height="211" viewBox="0 0 1516 211" fill="none" xmlns="http://www.w3.org/2000/svg">
<path d="M105.2 207H3.5C1.7 207 0.8 206.7 0.8 205.2V204.6C0.8 202.8 1.7 202.5 3.5 202.5H12.8C18.2 202.5 18.5 201.6 18.5 179.7V31.8C18.5 9.9 18.2 8.99999 12.8 8.99999H3.5C1.7 8.99999 0.8 8.7 0.8 6.89998V6.29999C0.8 4.79999 1.7 4.5 3.5 4.5H97.4C99.8 4.5 100.1 5.09999 100.1 6.89998V61.2C100.1 63 99.8 63.9 98 63.9H97.4C95.9 63.9 95.6 63 95.6 61.2V58.2C95.6 25.5 83.6 10.2 64.7 10.2H42.8V97.8H56C67.7 97.8 75.2 87 75.2 72.3V70.2C75.2 68.7 75.5 67.8 77 67.8H77.3C79.1 67.8 79.4 68.7 79.4 70.2V132.9C79.4 134.7 79.1 135.6 77.3 135.6H77C75.5 135.6 75.2 134.7 75.2 132.9V129C75.2 114.3 67.7 103.5 56 103.5H42.8V201.3H74.3C97.1 201.3 105.8 173.7 106.1 151.8V150.3C106.1 148.5 106.7 147.6 107.9 147.6H108.8C110.6 147.6 110.9 148.5 110.9 150.3L107.9 204.6C107.9 206.4 107.6 207 105.2 207ZM256.496 207H203.996C201.896 207 200.996 206.7 200.996 205.2V204.6C200.996 202.8 201.896 202.5 203.996 202.5H210.596C213.896 202.5 215.696 201.3 215.696 198C215.696 193.2 212.096 183.9 203.696 166.5L180.596 117.3H180.296L164.696 151.5C158.096 165.6 154.496 177 154.496 187.5C154.496 196.8 158.396 202.5 165.596 202.5H169.196C170.696 202.5 171.596 202.8 171.596 204.6V205.2C171.596 206.7 170.696 207 169.196 207H121.796C119.996 207 119.096 206.7 119.096 205.2V204.6C119.096 203.1 119.996 202.8 121.796 202.8H123.296C128.096 202.8 130.796 201.9 138.296 189.3C142.196 182.4 147.296 172.2 154.796 156.9L177.896 110.7L146.396 45C129.896 10.2 127.496 8.99999 122.096 8.99999H121.496C119.696 8.99999 118.796 8.7 118.796 6.89998V6.29999C118.796 4.79999 119.696 4.5 121.496 4.5H173.996C175.796 4.5 176.696 4.79999 176.696 6.29999V6.89998C176.696 8.7 175.796 8.99999 173.996 8.99999H167.096C164.096 8.99999 162.296 9.9 162.296 13.5C162.296 18 166.196 27.3 174.296 45L193.796 87.9H194.096L206.996 60C213.596 45.9 217.196 34.5 217.196 24C217.196 14.7 213.596 8.99999 206.696 8.99999H202.796C200.996 8.99999 200.096 8.7 200.096 6.89998V6.29999C200.096 4.79999 200.996 4.5 202.796 4.5H249.596C251.696 4.5 252.596 4.79999 252.596 6.29999V6.89998C252.596 8.39998 251.696 8.7 249.596 8.7H248.396C243.596 8.7 240.596 9.9 232.196 24.3C228.596 31.2 223.496 40.8 216.896 54.6L197.096 94.2L231.296 166.5C247.796 201.6 250.196 202.5 255.896 202.5H256.496C258.296 202.5 259.196 202.8 259.196 204.6V205.2C259.196 206.7 258.296 207 256.496 207ZM325.372 207H267.472C265.672 207 264.772 206.7 264.772 205.2V204.6C264.772 202.8 265.672 202.5 267.472 202.5H276.772C281.872 202.5 282.172 201.6 282.172 179.7V31.8C282.172 9.9 281.872 8.99999 276.772 8.99999H267.472C265.672 8.99999 264.772 8.7 264.772 6.89998V6.29999C264.772 4.79999 265.672 4.5 267.472 4.5H319.972C344.872 4.5 375.472 13.5 375.472 61.2C375.472 106.5 349.972 121.8 318.772 121.8H306.472V179.7C306.472 201.6 306.772 202.5 311.872 202.5H325.372C327.172 202.5 328.072 202.8 328.072 204.6V205.2C328.072 206.7 327.172 207 325.372 207ZM319.072 115.8C340.972 115.8 349.672 101.7 349.672 62.7C349.672 18.9 338.572 10.2 319.972 10.2H306.472V115.8H319.072ZM485.131 207H385.531C383.731 207 382.831 206.7 382.831 205.2V204.6C382.831 202.8 383.731 202.5 385.531 202.5H394.831C400.231 202.5 400.531 201.6 400.531 179.7V31.8C400.531 9.9 400.231 8.99999 394.831 8.99999H385.531C383.731 8.99999 382.831 8.7 382.831 6.89998V6.29999C382.831 4.79999 383.731 4.5 385.531 4.5H443.431C445.231 4.5 446.131 4.79999 446.131 6.29999V6.89998C446.131 8.7 445.231 8.99999 443.431 8.99999H430.231C425.131 8.99999 424.831 9.9 424.831 31.8V201.3H453.931C475.831 201.3 485.731 175.8 486.331 141.3C486.331 139.5 486.631 138.6 488.131 138.6H488.731C490.531 138.6 490.831 139.5 490.831 141.3L487.831 204.6C487.831 206.4 487.531 207 485.131 207ZM633.84 102C633.84 165.9 609.54 210.9 566.94 210.9C524.64 210.9 501.84 172.2 501.84 109.5C501.84 45.6 526.14 0.599993 568.74 0.599993C611.04 0.599993 633.84 39.3 633.84 102ZM606.24 102.9C606.24 52.5 602.04 5.7 567.84 5.7C533.94 5.7 529.14 53.7 529.14 108.6C529.14 159 533.64 205.5 567.54 205.5C601.74 205.5 606.24 157.8 606.24 102.9ZM757.81 52.5C757.81 79.2 741.91 94.8 718.21 100.8V101.4C740.41 108.9 753.61 123.6 753.61 165.9C753.61 194.4 756.01 203.7 762.31 203.7C767.41 203.7 769.51 195.6 770.11 186C770.41 184.5 770.71 183.9 772.21 183.9L773.11 184.2C774.31 184.5 774.91 185.1 774.61 186.9C773.41 204 767.41 210.9 756.31 210.9C734.11 210.9 729.01 188.7 729.01 167.1C729.01 129.9 728.71 103.8 702.61 103.8H687.91V179.7C687.91 201.6 688.21 202.5 693.31 202.5H702.61C704.41 202.5 705.31 202.8 705.31 204.6V205.2C705.31 206.7 704.41 207 702.61 207H648.91C647.11 207 646.21 206.7 646.21 205.2V204.6C646.21 202.8 647.11 202.5 648.91 202.5H658.21C663.61 202.5 663.91 201.6 663.91 179.7V31.8C663.91 9.9 663.61 8.99999 658.21 8.99999H648.91C647.11 8.99999 646.21 8.7 646.21 6.89998V6.29999C646.21 4.79999 647.11 4.5 648.91 4.5H702.61C726.91 4.5 757.81 12 757.81 52.5ZM732.01 53.4C732.01 17.4 721.21 10.2 702.61 10.2H687.91V98.1H703.21C723.01 98.1 732.01 86.1 732.01 53.4ZM885.669 207H783.969C782.169 207 781.269 206.7 781.269 205.2V204.6C781.269 202.8 782.169 202.5 783.969 202.5H793.269C798.669 202.5 798.969 201.6 798.969 179.7V31.8C798.969 9.9 798.669 8.99999 793.269 8.99999H783.969C782.169 8.99999 781.269 8.7 781.269 6.89998V6.29999C781.269 4.79999 782.169 4.5 783.969 4.5H877.869C880.269 4.5 880.569 5.09999 880.569 6.89998V61.2C880.569 63 880.269 63.9 878.469 63.9H877.869C876.369 63.9 876.069 63 876.069 61.2V58.2C876.069 25.5 864.069 10.2 845.169 10.2H823.269V97.8H836.469C848.169 97.8 855.669 87 855.669 72.3V70.2C855.669 68.7 855.969 67.8 857.469 67.8H857.769C859.569 67.8 859.869 68.7 859.869 70.2V132.9C859.869 134.7 859.569 135.6 857.769 135.6H857.469C855.969 135.6 855.669 134.7 855.669 132.9V129C855.669 114.3 848.169 103.5 836.469 103.5H823.269V201.3H854.769C877.569 201.3 886.269 173.7 886.569 151.8V150.3C886.569 148.5 887.169 147.6 888.369 147.6H889.269C891.069 147.6 891.369 148.5 891.369 150.3L888.369 204.6C888.369 206.4 888.069 207 885.669 207ZM1064.8 36.6C1063 44.4 1060 60 1056.7 75.6L1030.3 208.2C1029.7 210 1029.4 210.9 1027.6 210.9H1022.2C1020.4 210.9 1020.1 210.6 1019.2 208.2L986.497 65.1H986.197L955.597 208.2C955.297 210 954.697 210.9 952.597 210.9H947.497C945.397 210.9 945.397 210.6 944.497 208.2L908.197 44.4C900.097 9.29999 900.097 8.99999 892.897 8.99999H891.997C890.197 8.99999 889.297 8.7 889.297 6.89998V6.29999C889.297 4.79999 890.197 4.5 891.997 4.5H943.597C945.397 4.5 946.297 4.79999 946.297 6.29999V6.89998C946.297 8.7 945.397 8.99999 943.597 8.99999H938.797C933.397 8.99999 930.397 10.5 930.397 18C930.397 23.4 931.897 31.5 934.297 44.4L958.597 167.1H958.897L977.197 77.7C979.897 64.5 981.997 51.9 981.997 38.4C981.997 15.9 977.497 8.99999 968.197 8.99999H964.897C963.097 8.99999 962.197 8.7 962.197 6.89998V6.29999C962.197 4.79999 963.097 4.5 964.897 4.5H1014.1C1015.9 4.5 1016.8 4.79999 1016.8 6.29999V6.89998C1016.8 8.7 1015.9 8.99999 1014.1 8.99999H1011.7C1006.3 8.99999 1003.6 10.5 1003.6 18C1003.6 23.4 1004.8 31.5 1007.5 44.4L1032.4 168H1032.7L1050.1 77.7C1052.5 65.1 1054.3 48.9 1054.3 32.1C1054.3 16.5 1049.8 8.99999 1040.2 8.99999H1035.7C1033.9 8.99999 1033 8.7 1033 6.89998V6.29999C1033 4.79999 1033.9 4.5 1035.7 4.5H1081.6C1083.4 4.5 1084.3 4.79999 1084.3 6.29999V6.89998C1084.3 8.7 1083.4 8.99999 1081.6 8.99999H1079.2C1072.6 8.99999 1070.2 14.4 1064.8 36.6ZM1147.04 207H1093.34C1091.54 207 1090.64 206.7 1090.64 205.2V204.6C1090.64 202.8 1091.54 202.5 1093.34 202.5H1102.34C1107.74 202.5 1108.04 201.6 1108.04 179.7V31.8C1108.04 9.9 1107.74 8.99999 1102.34 8.99999H1093.34C1091.54 8.99999 1090.64 8.7 1090.64 6.89998V6.29999C1090.64 4.79999 1091.54 4.5 1093.34 4.5H1147.04C1148.84 4.5 1149.74 4.79999 1149.74 6.29999V6.89998C1149.74 8.7 1148.84 8.99999 1147.04 8.99999H1137.74C1132.64 8.99999 1132.34 9.9 1132.34 31.8V179.7C1132.34 201.6 1132.64 202.5 1137.74 202.5H1147.04C1148.84 202.5 1149.74 202.8 1149.74 204.6V205.2C1149.74 206.7 1148.84 207 1147.04 207ZM1272.6 210.9H1266.3C1265.4 210.9 1264.8 210.3 1263.9 208.8L1183.2 39.3H1182.9V142.8C1182.9 194.1 1188.3 202.5 1200.6 202.5H1209.6C1211.4 202.5 1212.3 202.8 1212.3 204.6V205.2C1212.3 206.7 1211.4 207 1209.6 207H1158.9C1157.1 207 1156.2 206.7 1156.2 205.2V204.6C1156.2 202.8 1157.1 202.5 1158.9 202.5H1163.4C1171.8 202.5 1176.9 193.8 1176.9 142.8V33C1176.9 10.5 1174.8 8.99999 1170 8.99999H1162.2C1160.4 8.99999 1159.5 8.7 1159.5 6.89998V6.29999C1159.5 4.79999 1160.4 4.5 1162.2 4.5H1193.7C1195.2 4.5 1196.1 5.09999 1196.7 6.89998L1268.4 159.6H1269V68.7C1269 17.4 1263.3 8.99999 1250.7 8.99999H1242.3C1240.5 8.99999 1239.6 8.7 1239.6 6.89998V6.29999C1239.6 4.79999 1240.5 4.5 1242.3 4.5H1292.7C1294.5 4.5 1295.4 4.79999 1295.4 6.29999V6.89998C1295.4 8.7 1294.5 8.99999 1292.7 8.99999H1287.9C1279.5 8.99999 1274.7 17.7 1274.7 68.7V208.8C1274.7 210.3 1274.1 210.9 1272.6 210.9ZM1406.27 207H1304.57C1302.77 207 1301.87 206.7 1301.87 205.2V204.6C1301.87 202.8 1302.77 202.5 1304.57 202.5H1313.87C1319.27 202.5 1319.57 201.6 1319.57 179.7V31.8C1319.57 9.9 1319.27 8.99999 1313.87 8.99999H1304.57C1302.77 8.99999 1301.87 8.7 1301.87 6.89998V6.29999C1301.87 4.79999 1302.77 4.5 1304.57 4.5H1398.47C1400.87 4.5 1401.17 5.09999 1401.17 6.89998V61.2C1401.17 63 1400.87 63.9 1399.07 63.9H1398.47C1396.97 63.9 1396.67 63 1396.67 61.2V58.2C1396.67 25.5 1384.67 10.2 1365.77 10.2H1343.87V97.8H1357.07C1368.77 97.8 1376.27 87 1376.27 72.3V70.2C1376.27 68.7 1376.57 67.8 1378.07 67.8H1378.37C1380.17 67.8 1380.47 68.7 1380.47 70.2V132.9C1380.47 134.7 1380.17 135.6 1378.37 135.6H1378.07C1376.57 135.6 1376.27 134.7 1376.27 132.9V129C1376.27 114.3 1368.77 103.5 1357.07 103.5H1343.87V201.3H1375.37C1398.17 201.3 1406.87 173.7 1407.17 151.8V150.3C1407.17 148.5 1407.77 147.6 1408.97 147.6H1409.87C1411.67 147.6 1411.97 148.5 1411.97 150.3L1408.97 204.6C1408.97 206.4 1408.67 207 1406.27 207ZM1515.89 154.5C1515.89 183.6 1500.29 210.9 1470.59 210.9C1456.79 210.9 1445.09 206.7 1435.79 201L1435.49 205.8C1435.49 207.6 1435.19 208.5 1433.09 208.5H1432.79C1431.29 208.5 1430.99 207.6 1430.99 205.8L1428.59 138.9C1428.59 137.1 1428.89 136.2 1430.69 136.2H1431.29C1432.79 136.2 1433.09 137.1 1433.09 138.9L1433.39 142.2C1433.99 170.1 1447.49 205.8 1471.49 205.8C1488.29 205.8 1497.89 193.2 1497.89 172.8C1497.89 140.1 1478.99 126 1461.89 110.1C1446.89 96.3 1432.19 81.6 1432.19 53.7C1432.19 23.7 1447.79 0.599993 1472.39 0.599993C1484.39 0.599993 1495.19 5.7 1502.09 10.5L1502.39 5.7C1502.39 3.89999 1502.99 3 1504.79 3H1505.09C1506.59 3 1506.89 3.89999 1506.89 5.7V62.7C1506.89 64.5 1506.59 65.4 1504.79 65.4H1504.19C1502.69 65.4 1502.39 64.5 1502.39 62.7V61.5C1502.39 27.3 1485.89 5.7 1470.59 5.7C1457.09 5.7 1449.89 18.3 1449.89 34.5C1449.89 61.2 1463.69 75.3 1478.69 88.8C1496.39 104.7 1515.89 120 1515.89 154.5Z" fill="#3F2C22"/>
</svg>
