<svg width="1719" height="172" viewBox="0 0 1719 172" fill="none" xmlns="http://www.w3.org/2000/svg">
<path d="M0.650001 168V3.54999H121.63V31.61H34V68.41H110.82V95.78H34V140.17H122.32V168H0.650001ZM132.242 168L185.372 81.98L136.152 3.54999H173.642L204.002 55.53H204.462L234.822 3.54999H271.162L222.862 81.75L277.372 168H238.502L204.922 107.97H204.462L170.422 168H132.242ZM291.968 168V3.54999H364.188C383.278 3.54999 397.538 9.06999 407.198 18.96C416.398 28.39 421.918 41.27 421.918 56.45C421.918 87.5 401.448 108.43 366.948 108.43H326.468V168H291.968ZM326.468 32.53V81.29H360.968C378.448 81.29 387.648 71.63 387.648 56.68C387.648 41.27 377.988 32.53 361.428 32.53H326.468ZM438.414 168V3.54999H471.764V140.17H549.044V168H438.414ZM632.147 171.68C583.617 171.68 552.797 135.34 552.797 86.12C552.797 36.9 583.617 0.329993 632.147 0.329993C680.677 0.329993 711.267 36.9 711.267 86.12C711.267 135.34 680.677 171.68 632.147 171.68ZM632.377 144.31C662.507 144.31 677.227 118.78 677.227 86.12C677.227 53.23 662.507 27.7 632.377 27.7C602.247 27.7 586.837 53.23 586.837 86.12C586.837 118.78 602.247 144.31 632.377 144.31ZM729.507 168V3.54999H804.947C836.687 3.54999 857.847 21.95 857.847 49.32C857.847 68.64 848.877 83.36 827.717 89.11V89.8C842.897 94.17 850.717 102.91 852.787 122.92C855.087 146.15 854.167 163.86 859.917 166.39V168H827.947C823.807 166.16 823.347 147.76 821.967 130.05C820.587 112.11 810.467 101.99 789.767 101.99H762.857V168H729.507ZM762.857 30.46V76.23H798.277C816.447 76.23 825.417 66.8 825.417 53.69C825.417 40.35 816.907 30.46 799.197 30.46H762.857ZM879.322 168V3.54999H1000.3V31.61H912.672V68.41H989.492V95.78H912.672V140.17H1000.99V168H879.322ZM1058.06 168L1010.22 3.54999H1044.26L1065.65 85.2C1068.87 99.23 1072.78 121.08 1072.78 121.08H1073.24C1073.24 121.08 1077.38 100.61 1080.83 86.12L1098.77 3.54999H1130.97L1148.91 85.89C1152.36 100.38 1156.5 121.08 1156.5 121.08H1156.96C1156.96 121.08 1161.79 99.23 1165.01 84.97L1185.71 3.54999H1218.6L1171.68 168H1140.63L1120.62 79.91C1117.86 67.95 1114.87 50.7 1114.87 50.7H1114.41C1114.41 50.7 1111.88 67.95 1109.12 79.91L1088.88 168H1058.06ZM1232.64 168V3.54999H1265.99V168H1232.64ZM1291.48 168V3.54999H1325.29L1380.03 95.32C1385.32 104.29 1391.53 118.32 1391.53 118.32H1391.99C1391.99 118.32 1391.07 101.3 1391.07 89.8V3.54999H1423.96V168H1391.76L1335.64 77.15C1330.35 68.41 1323.91 54.38 1323.91 54.38H1323.45C1323.45 54.38 1324.37 71.63 1324.37 83.13V168H1291.48ZM1449.16 168V3.54999H1570.14V31.61H1482.51V68.41H1559.33V95.78H1482.51V140.17H1570.83V168H1449.16ZM1654.15 171.68C1609.53 171.68 1584.23 151.9 1583.08 117.17H1615.74C1618.04 136.95 1629.31 144.77 1652.77 144.77C1669.79 144.77 1684.74 138.79 1684.74 123.61C1684.74 107.51 1669.1 104.29 1644.03 98.54C1614.59 91.87 1587.68 84.05 1587.68 49.78C1587.68 17.35 1614.13 0.55999 1650.7 0.55999C1687.73 0.55999 1711.65 18.73 1714.18 51.85H1682.21C1680.37 35.29 1667.49 27.01 1650.47 27.01C1632.53 27.01 1620.8 34.6 1620.8 46.33C1620.8 59.67 1632.3 63.58 1656.68 68.87C1690.49 76.23 1718.09 84.28 1718.09 119.7C1718.09 153.05 1691.18 171.68 1654.15 171.68Z" fill="#3F2C22"/>
</svg>
