<svg width="56" height="61" viewBox="0 0 56 61" fill="none" xmlns="http://www.w3.org/2000/svg">
<g clip-path="url(#clip0_581_57515)">
<path d="M51.5081 27.5405C51.1356 25.8737 51.3735 24.0225 50.8848 22.3433C51.2818 22.1871 52.8186 22.3759 52.5969 21.7364C52.0305 21.1755 50.6225 22.1118 50.597 21.0642L51.5256 21.1755C51.6358 20.5562 50.9266 20.6529 50.467 20.5393C50.6086 19.9133 50.0967 19.4558 50.0201 18.9602C49.9784 18.6915 49.8797 16.8212 50.0004 16.7223C55.4858 16.5594 53.8597 9.28279 53.1935 5.83221C53.0287 4.97799 52.4321 3.47637 52.4088 2.70083C52.3996 2.39961 52.7745 2.40635 52.3589 1.82863C51.0764 0.0437712 46.5508 0.084234 44.7842 1.06433C44.4151 1.2689 44.241 1.49369 43.9358 1.75108L43.0687 1.54314C43.1128 2.20629 43.0455 2.86718 42.962 3.52583C42.6416 6.03452 42.0891 8.52411 42.4536 11.1216C42.7681 13.3628 43.7756 14.9633 45.8207 16.1131C46.7296 16.6234 47.4654 16.6403 48.4091 16.9145L49.1148 19.9324C46.7992 19.7683 44.3246 19.539 42.0938 20.2516C40.6754 20.7046 36.6002 22.9379 35.3687 22.4197C35.183 22.3422 34.9903 22.0072 34.7408 21.8735C33.7101 21.3216 32.6178 20.7563 31.5709 20.2156C28.8456 18.8084 26.3513 17.7193 23.258 17.3113C20.0533 16.8887 16.0582 18.8837 12.9278 19.5064C10.1132 20.0661 7.43891 20.1392 4.62191 19.6716L1.43813 18.8545C1.20599 19.2636 0.268146 19.2254 0.426001 19.6885C0.493321 19.8874 2.56864 21.0901 2.94471 21.225C3.81639 21.5374 4.76932 21.5756 5.58529 21.8443C6.32697 22.0882 7.2149 22.6513 8.01462 22.9368C11.6511 24.2338 15.3548 24.5092 19.0818 25.2993C22.2923 25.9805 24.9108 27.3472 26.7296 30.0459C26.4151 30.4943 26.5938 30.9675 26.3664 31.4272C26.2456 31.67 24.8377 33.0424 24.5487 33.2627C24.1494 33.5673 22.0254 34.9329 21.6377 35.0857C18.0198 36.5177 7.75114 34.1146 4.64512 31.815C4.32129 31.5745 3.33818 30.2032 3.1664 31.208C2.95051 32.4703 3.52854 33.1042 4.34334 33.9505C5.82903 35.4949 7.78828 36.2592 9.64539 37.2606C8.52068 37.7372 7.33445 37.7091 6.14242 37.772C5.78028 37.7911 5.3694 38.0631 5.01422 37.8496C4.93065 37.799 4.93182 37.6158 4.77164 37.5427C3.55291 36.9909 3.3022 38.1452 4.26906 38.6026C7.00017 39.8941 10.8061 40.8157 13.8065 41.3238C16.1952 41.7284 20.6859 42.0667 23.0247 41.6812C25.4239 41.2855 29.39 39.7064 31.4641 38.461C31.9029 38.198 32.2778 37.6596 32.8651 37.69C32.6596 38.089 32.4995 38.5172 32.395 38.9522C31.5222 42.6006 32.4971 45.5409 32.9428 49.0567C33.2261 51.2855 33.0728 54.6686 32.4948 56.8345C32.1907 57.9731 31.5384 59.0892 31.0973 60.1851C31.0602 60.5998 31.3214 60.7133 31.7021 60.5099C32.077 60.3087 32.1443 59.1881 32.5331 58.8891L32.4762 59.4028C33.5743 59.5523 33.7472 58.0293 34.1825 57.2751C35.9165 54.2707 38.3482 52.6545 40.3202 50.139C42.3329 47.5708 45.0582 42.0521 44.9642 38.8218C44.9305 37.6843 44.4929 36.1513 44.4871 35.1071C44.4859 34.8104 44.6217 34.6451 44.7436 34.4012C44.6241 34.3979 44.4349 34.4069 44.3443 34.3462C44.1807 34.2349 44.0925 32.8648 43.9834 32.4804C43.8615 32.0488 43.4785 31.0293 42.8923 31.0833C42.0288 31.1631 43.0641 32.4017 43.208 32.7355C43.2916 32.9288 43.6282 33.9528 43.5423 34.0348C43.4564 34.0135 43.3392 34.0213 43.2208 34.0517C43.2637 34.2439 43.2916 34.4383 43.316 34.6339C43.4344 34.608 43.533 34.5822 43.5609 34.6024C43.7907 34.7643 44.1215 37.4697 44.1517 37.9372C44.3362 40.7876 43.3856 43.3413 42.0613 45.8365C39.7016 50.2852 36.1707 52.5837 33.6961 56.6963C33.3224 57.3167 33.0578 58.0675 32.5958 58.6317L33.7252 55.198C33.4118 54.4124 33.7983 53.7807 33.8215 53.0276C33.9329 49.3781 32.8987 46.3771 32.8256 42.8984C32.7978 41.58 32.8245 38.8713 33.5476 37.7518C33.7843 37.3843 34.1546 37.9069 34.4517 37.4708L33.9201 37.2865L34.425 37.0043L34.4146 36.3997C33.9875 36.1715 33.6532 36.2895 33.2423 36.466C31.9261 37.0291 30.705 38.1137 29.3528 38.7622C27.3715 39.7142 23.2104 41.1844 21.0608 41.2485C20.4932 41.2653 19.8804 41.0304 19.3314 41.0135C17.6693 40.9607 16.2788 41.054 14.5899 40.8034C11.6696 40.3695 8.70639 39.5681 5.95787 38.5476L9.82994 38.0665C10.3395 37.7664 11.0278 37.9788 11.3725 37.491C9.78468 36.294 7.72561 35.7129 6.0809 34.5653C5.69439 34.2956 3.54943 32.4208 3.84657 32.0353C5.96135 33.2469 8.42899 34.2664 10.7968 34.9318C13.7659 35.7657 17.6286 36.4435 20.6836 35.9647C22.2888 35.714 25.8591 33.3874 26.7923 32.0814C26.978 31.8217 27.1696 31.1788 27.2079 31.1429C27.4156 30.9462 27.8195 31.2328 27.6849 30.4067C27.5305 29.4547 26.689 28.5442 25.9891 27.9182C21.4009 23.8168 15.5359 24.3878 9.80093 22.7187C8.1922 22.2511 6.72625 21.4419 5.19761 21.0609C4.3062 20.8383 3.17452 20.5303 2.55587 19.856C3.20934 19.8919 3.9046 20.2044 4.51861 20.3044C7.5457 20.7967 9.87405 20.8653 12.9162 20.2583C15.6473 19.7132 18.5572 18.3161 21.286 18.1093C26.1098 17.7418 29.6117 19.9167 33.5127 22.1961C34.114 22.5479 34.865 22.5917 35.0634 23.4066C38.4283 23.1593 41.0886 20.8113 44.4117 20.5292C45.1429 20.4674 48.7387 20.3921 49.131 20.772C49.3667 21.1912 49.5442 21.9173 49.3551 22.3725C49.2506 22.6232 48.7805 22.8345 48.589 23.0435C48.2431 23.4212 46.328 25.4736 46.3001 25.7118C46.2769 25.9085 46.4289 26.1333 46.3756 26.2873C46.1562 26.9167 43.2173 29.2175 42.5128 29.6075C41.7397 30.0357 40.5059 30.4572 39.6389 30.7079C39.2176 30.8304 38.4956 30.6078 38.5734 31.2328C38.6418 31.7846 39.5356 31.4272 39.9105 31.3395C42.0856 30.8248 46.6239 28.1834 47.4341 26.1288C47.8543 25.0633 48.1665 24.3799 49.1821 23.5977C49.3133 23.4965 49.3458 23.3459 49.5767 23.3998L50.0538 27.6293C48.4973 26.7886 46.0424 29.2119 46.2595 30.5797C46.3721 31.2845 48.127 31.9937 48.777 32.1173C50.6167 32.4646 54.281 31.9296 55.3361 30.2291C56.5827 28.2183 52.9288 27.3483 51.5058 27.5473L51.5081 27.5405ZM49.9888 1.20146C50.4008 1.30824 52.309 2.07478 51.2156 2.40186C50.7409 2.54348 49.0382 2.70758 48.4694 2.73905C47.0998 2.81323 45.9983 2.53224 44.6751 2.28496C45.5039 0.968797 48.6308 0.848532 49.9888 1.20258V1.20146ZM43.4703 9.05575C43.3937 8.19142 43.7489 6.92246 43.6839 6.22672C43.6642 6.01204 43.439 5.80186 43.4448 5.7097C43.4529 5.58269 43.7454 5.47029 43.7605 5.32305C43.7814 5.12523 43.309 4.25303 43.5098 3.84728L45.3669 3.94282C45.1533 3.2572 44.1238 4.02262 44.2863 2.80649C45.3472 3.09085 46.7064 3.54268 47.8148 3.5247C48.0969 3.52021 48.3511 3.38421 48.6087 3.37297C49.7276 3.32576 50.7932 3.39994 51.8482 2.93012C52.1813 5.46017 53.1586 7.89694 53.0507 10.4866C52.2127 10.2146 51.4664 9.74811 50.5239 9.88524L50.2917 9.26818L49.4468 9.26593C49.0765 8.54322 50.9591 7.40464 51.0032 7.22143C51.1332 6.67631 50.9673 6.38408 50.395 6.41892C50.1722 6.43241 49.4862 6.78309 49.5268 6.37621C49.5872 6.2537 52.0409 4.6644 51.0137 4.48569C50.7363 4.43736 48.177 6.62236 48.0156 6.9809C47.9146 7.2057 47.8763 7.80814 48.1561 7.85086L50.0689 7.07194L48.5786 8.76914L48.5275 9.66831C47.8566 9.90884 46.971 9.41879 46.4614 9.4379C46.1272 9.45026 45.9577 9.76835 45.6107 9.71777C45.4923 9.60087 45.8765 6.75274 45.9774 6.46613C46.1318 6.03115 46.747 5.9255 45.8614 5.38037C45.6408 5.46242 45.3739 5.59955 45.2996 5.83446C45.1858 6.19637 45.0094 7.10904 44.9409 7.51816C44.8516 8.05542 44.8806 9.35922 44.7169 9.7054C44.6206 9.90884 43.5713 10.4776 43.2382 10.5304L43.7535 10.0639C43.627 9.7099 43.504 9.44352 43.4703 9.05575ZM48.9546 11.5274C49.752 11.9365 49.8611 10.8552 50.2685 10.6023C50.6933 10.3382 53.0681 10.8091 52.6131 11.5274C50.525 12.5637 47.8624 11.9556 45.6362 11.5633C45.2381 10.3506 45.6165 10.2977 46.74 10.2078C47.6651 10.1336 48.5495 10.3112 49.4665 10.2955C49.6081 10.6124 48.5936 11.3419 48.9558 11.5274H48.9546ZM44.8446 11.4015L44.0472 11.2868C43.887 11.08 44.732 10.5416 44.8295 10.6327L44.8434 11.4015H44.8446ZM47.7858 16.1019C45.7615 15.9412 43.3868 13.5393 43.2568 11.5588C43.7698 11.7949 44.2364 12.0972 44.8318 12.0691C45.0326 12.1826 45.6699 14.9352 46.4765 13.6247C46.0622 13.2987 45.8173 12.8053 45.7906 12.286C46.6379 12.4625 47.6535 12.7109 48.5136 12.7559C50.0364 12.8357 51.6567 12.7806 53.0844 12.286C53.1784 13.7854 52.2742 15.8288 50.5726 16.0581C49.9238 16.1457 48.452 16.1547 47.7858 16.1019ZM50.4925 22.6074L50.6608 24.5305C50.3405 24.3114 50.265 23.3358 50.2349 22.93C50.2151 22.6625 50.1513 22.5614 50.4937 22.6074H50.4925ZM51.3851 31.4519C50.5181 31.5452 47.4004 31.5329 47.0824 30.537C46.8747 29.8874 48.293 28.2801 48.9453 28.2868C49.2645 28.2902 49.3864 28.8365 49.8066 28.5263L49.7125 29.7255C50.9115 30.7573 50.5204 28.7724 50.7293 28.1261L51.0729 28.5049C51.9109 28.0227 53.8063 28.1958 54.5097 28.8398C55.9141 30.129 52.3682 31.3452 51.3851 31.4508V31.4519Z" fill="#FFFFF5"/>
<path d="M31.3783 61C31.2065 61 31.0823 60.9449 31.0057 60.8977C30.8722 60.8134 30.6552 60.6055 30.6947 60.1503L30.6993 60.0941L30.7202 60.0413C30.8827 59.6378 31.0754 59.2275 31.2611 58.8308C31.5838 58.1429 31.918 57.4303 32.1037 56.7346C32.6388 54.7305 32.8303 51.3788 32.5425 49.1028C32.4357 48.2621 32.2964 47.445 32.1629 46.6548C31.73 44.1101 31.3214 41.706 32.0028 38.8623C32.0341 38.7331 32.0689 38.6038 32.1096 38.4768C31.9749 38.5881 31.8368 38.7016 31.6824 38.7949C29.664 40.0065 25.6422 41.6487 23.0968 42.069C20.7023 42.4635 16.1245 42.1151 13.7404 41.7116C11.9506 41.4092 7.42972 40.5337 4.09504 38.9567C3.35104 38.6049 3.13631 37.9272 3.35916 37.4754C3.56112 37.0662 4.13102 36.8178 4.94815 37.1876C5.14895 37.2787 5.24297 37.436 5.29288 37.5361C5.37297 37.5462 5.49136 37.5169 5.65617 37.472C5.79662 37.4326 5.95679 37.3888 6.1251 37.3798C6.30732 37.3708 6.49071 37.363 6.67294 37.3551C7.34615 37.327 7.99497 37.3011 8.6171 37.1696C8.48595 37.1033 8.35479 37.037 8.22479 36.9718C6.7658 36.2356 5.2569 35.4736 4.05094 34.2203C3.26282 33.401 2.51766 32.6266 2.77069 31.1452C2.84846 30.6911 3.08408 30.5315 3.26863 30.4775C3.7654 30.3337 4.23432 30.8237 4.64753 31.2564C4.73923 31.352 4.85297 31.4711 4.89708 31.5048C8.01587 33.8135 18.1232 36.0558 21.4892 34.7239C21.7945 34.6025 23.8663 33.2886 24.3027 32.9559C24.5929 32.7345 25.8615 31.4824 26.0089 31.2531C26.0774 31.1115 26.0925 30.9518 26.1099 30.7675C26.1297 30.563 26.1529 30.3202 26.262 30.0707C24.6521 27.7901 22.3377 26.3942 19.0007 25.6861C17.7761 25.4264 16.5319 25.2185 15.3271 25.0184C12.8792 24.6104 10.3477 24.1889 7.88006 23.3089C7.46686 23.1616 7.04204 22.9492 6.63 22.7435C6.20983 22.5333 5.81171 22.3355 5.46002 22.2197C5.10485 22.1028 4.71369 22.032 4.29932 21.9567C3.80951 21.8679 3.30345 21.7746 2.80899 21.5982C2.56409 21.5105 1.88624 21.1329 1.36161 20.8204C0.138236 20.0909 0.0906477 19.9516 0.0453806 19.8156C-0.162384 19.2064 0.464391 18.9591 0.731351 18.8535C0.845099 18.8085 1.05518 18.7253 1.08768 18.6691L1.2409 18.3994L4.71485 19.2907C7.43668 19.7403 10.0227 19.6874 12.8525 19.1255C13.8832 18.9209 15.0079 18.5635 16.1988 18.1869C18.6084 17.4226 21.1004 16.6325 23.3196 16.9258C26.3757 17.3294 28.9072 18.396 31.7683 19.8729C32.806 20.409 33.9063 20.9778 34.9428 21.5341C35.1308 21.6342 35.2759 21.7915 35.3943 21.9174C35.4419 21.968 35.5127 22.0444 35.5452 22.0669C36.266 22.3524 38.7104 21.2722 40.1717 20.626C40.9064 20.3011 41.5413 20.0201 41.972 19.883C44.1042 19.2019 46.3872 19.3469 48.603 19.5065L48.0714 17.2349C47.8671 17.1821 47.6698 17.1383 47.4771 17.0967C46.8701 16.9629 46.2955 16.8371 45.6223 16.4594C43.5308 15.2837 42.3979 13.6068 42.0567 11.1812C42.0544 11.1621 42.0521 11.1442 42.0486 11.1251L41.9871 11.1352L42.0428 11.0846C41.7654 8.98839 42.0637 6.95625 42.3527 4.98818C42.4246 4.49476 42.5001 3.98448 42.5639 3.48319C42.6382 2.90547 42.7125 2.23446 42.6684 1.57469L42.6324 1.03856L43.8268 1.32517C43.8558 1.29932 43.8836 1.27235 43.9115 1.24649C44.096 1.07453 44.2876 0.895816 44.587 0.729469C46.5509 -0.359656 51.2993 -0.334929 52.6968 1.61066C53.0496 2.10071 53.009 2.39069 52.8395 2.67393C52.8326 2.68517 52.8245 2.69979 52.8186 2.70878C52.8349 3.12577 53.0531 3.84511 53.2458 4.48015C53.3897 4.95559 53.5267 5.40518 53.5963 5.76597L53.6706 6.15037C54.2022 8.87599 55.0936 13.4393 53.1912 15.7322C52.5215 16.5392 51.5686 16.9989 50.3545 17.1012C50.3382 17.6025 50.3893 18.6725 50.4253 18.9074C50.445 19.0367 50.5228 19.1906 50.6052 19.3547C50.7271 19.5964 50.8698 19.8808 50.8965 20.2146C51.2064 20.2539 51.579 20.3101 51.7972 20.5967C51.9133 20.7496 51.9621 20.9362 51.9412 21.1531C52.2766 21.1464 52.6213 21.2014 52.8895 21.4667L52.9545 21.5307L52.9835 21.6162C53.0578 21.8308 53.0334 22.0422 52.9161 22.2119C52.6596 22.5839 52.0804 22.6221 51.5198 22.6603C51.4792 22.6626 51.4328 22.666 51.3864 22.6693C51.5697 23.4898 51.6138 24.3339 51.658 25.1533C51.6951 25.8412 51.7299 26.4976 51.839 27.127C52.9904 27.1079 54.995 27.5192 55.7239 28.5814C55.9897 28.968 56.1986 29.602 55.6856 30.4292C54.4506 32.422 50.4822 32.8379 48.7005 32.5018C48.1445 32.3973 46.0228 31.6644 45.8591 30.6383C45.6932 29.5952 46.6623 28.3184 47.6594 27.6463C48.3186 27.2023 48.9907 27.0078 49.5838 27.0764L49.2437 24.0597C48.4521 24.7228 48.1886 25.3196 47.8149 26.2683C46.9096 28.5657 42.1437 31.216 40.0081 31.7218C39.957 31.7341 39.8943 31.7521 39.8247 31.7712C39.4231 31.8859 38.8729 32.0432 38.4887 31.7982C38.3634 31.7184 38.2067 31.5633 38.1719 31.28C38.1405 31.026 38.1951 30.8158 38.3355 30.6562C38.5653 30.3932 38.9228 30.3775 39.2095 30.364C39.3279 30.3584 39.4509 30.3528 39.5252 30.3314C40.4015 30.0774 41.5947 29.6649 42.3144 29.2659C43.063 28.8523 45.6978 26.7269 45.9798 26.1918C45.974 26.1671 45.9636 26.1311 45.9566 26.1053C45.923 25.9862 45.88 25.8378 45.8998 25.6692C45.9206 25.4894 45.9381 25.3331 48.1178 22.9683L48.2873 22.784C48.3929 22.6682 48.5357 22.5693 48.6727 22.4738C48.776 22.4018 48.9501 22.2804 48.9826 22.222C49.0986 21.941 48.9976 21.415 48.8224 21.0508C48.2536 20.8384 45.3983 20.8418 44.4489 20.9227C42.875 21.0564 41.4647 21.6701 39.9721 22.3187C38.4458 22.9829 36.8684 23.6697 35.096 23.7989L34.7501 23.8248L34.67 23.4977C34.576 23.1122 34.3276 22.9919 33.8587 22.7963C33.6776 22.721 33.4908 22.6424 33.3051 22.5333L32.8721 22.2804C29.0964 20.0685 25.8348 18.1588 21.3197 18.5028C19.7656 18.6208 18.1011 19.1524 16.4913 19.6672C15.3398 20.0347 14.149 20.4158 12.9987 20.6451C10.6158 21.1205 8.62523 21.2138 6.13554 20.9294C6.69035 21.116 7.23704 21.3385 7.77212 21.5566C8.46621 21.8387 9.18468 22.1321 9.91708 22.3445C11.708 22.866 13.5384 23.1695 15.3073 23.464C19.2839 24.1249 23.0387 24.7487 26.2631 27.6316C27.3345 28.5893 27.9473 29.5031 28.0843 30.3483C28.1562 30.7877 28.1551 31.3081 27.5202 31.4385C27.5132 31.4565 27.5074 31.4734 27.5004 31.4902C27.382 31.8083 27.2648 32.1107 27.1244 32.3062C26.1784 33.6314 22.528 36.0749 20.7464 36.3536C17.1993 36.9078 12.9186 35.9378 10.682 35.3095C8.78076 34.7756 6.83544 34.0214 5.06654 33.138C5.53662 33.6044 6.07286 34.0765 6.31661 34.2462C7.07222 34.7733 7.94738 35.1903 8.79237 35.5927C9.75691 36.0524 10.7551 36.5279 11.6198 37.1798L11.9204 37.4068L11.7057 37.7125C11.4051 38.1374 10.9489 38.2048 10.5833 38.2588C10.3767 38.2891 10.1829 38.3172 10.039 38.4026L9.96467 38.4465L7.67114 38.7308C10.0099 39.503 12.394 40.0796 14.6492 40.4145C15.8064 40.5865 16.8255 40.5921 17.9061 40.5989C18.3669 40.6011 18.8428 40.6045 19.3419 40.6202C19.6286 40.6292 19.9165 40.6877 20.195 40.7439C20.4991 40.8057 20.7858 40.8641 21.0458 40.8551C23.0492 40.7956 27.1279 39.3906 29.1695 38.4094C29.7812 38.1149 30.3848 37.7159 30.9686 37.3292C31.6453 36.8808 32.344 36.4177 33.0741 36.1064C33.456 35.9434 33.9783 35.7197 34.6062 36.0558L34.8128 36.1659L34.8302 37.1876L35.0716 37.2719L34.7873 37.69C34.482 38.1385 34.0549 38.0576 33.8726 38.0216C33.8668 38.0216 33.861 38.0194 33.8541 38.0182C33.406 38.7825 33.1785 40.5494 33.2273 42.8929C33.2598 44.4462 33.4931 45.9411 33.7194 47.3876C33.998 49.1702 34.2859 51.0124 34.2232 53.0423C34.2139 53.3368 34.1582 53.6032 34.1048 53.8606C34.0154 54.2866 33.9388 54.6541 34.1001 55.0598L34.1512 55.1891L34.1048 55.3307C35.0995 53.9111 36.2103 52.6849 37.2909 51.4924C38.8462 49.7761 40.4538 48.0024 41.6957 45.6612C43.7049 41.8723 43.8442 39.5592 43.742 37.9665C43.7084 37.4394 43.4716 35.6815 43.3056 35.0431L42.9609 35.1173L42.9086 34.6845C42.8889 34.5204 42.8622 34.3271 42.8204 34.1405L42.7369 33.7719L43.0851 33.6831C43.0096 33.3998 42.8854 33.0166 42.8309 32.8918C42.8123 32.8491 42.7345 32.7266 42.6719 32.6288C42.3631 32.1433 41.9789 31.5386 42.2169 31.0755C42.2819 30.9496 42.449 30.7338 42.8506 30.6967C43.7977 30.6079 44.2539 31.9645 44.3723 32.3815C44.421 32.5558 44.4605 32.848 44.5046 33.1863C44.5371 33.4313 44.587 33.8079 44.6334 34.0113C44.652 34.0113 44.6694 34.0113 44.6833 34.0113C44.7077 34.0113 44.7309 34.0113 44.753 34.0124L45.3798 34.0304L45.107 34.5766C45.078 34.634 45.049 34.6879 45.0199 34.7407C44.9294 34.9037 44.89 34.9813 44.8911 35.1094C44.8934 35.6084 45.0037 36.2367 45.1186 36.9021C45.2324 37.554 45.3496 38.2284 45.367 38.8151C45.468 42.25 42.6359 47.835 40.6407 50.3819C39.8479 51.3935 38.9751 52.2701 38.1312 53.1165C36.808 54.4439 35.5591 55.6983 34.5342 57.4719C34.4356 57.6427 34.3462 57.8776 34.251 58.1249C33.9643 58.8723 33.5755 59.8907 32.5158 59.8075C32.5112 59.8198 32.5077 59.8333 32.503 59.8446C32.3626 60.2751 32.2291 60.6808 31.8971 60.8595C31.6917 60.9697 31.5164 61.0079 31.3748 61.0079L31.3783 61ZM32.9499 58.8296L32.9441 58.887C33.0729 58.7701 33.1878 58.5734 33.3143 58.2868C33.2052 58.4745 33.0869 58.6577 32.9511 58.8296H32.9499ZM33.2563 55.0486C33.2319 55.2239 33.2064 55.3959 33.1785 55.5645L33.2993 55.1992C33.283 55.1486 33.2691 55.0981 33.2575 55.0486H33.2563ZM41.8779 46.974C40.6894 48.9331 39.278 50.4909 37.9072 52.0026C37.2932 52.6793 36.6699 53.3671 36.0664 54.0932C36.5562 53.5593 37.0564 53.0569 37.5497 52.5613C38.3773 51.7306 39.2327 50.8719 39.9965 49.8975C40.5896 49.1399 41.2477 48.1182 41.8768 46.974H41.8779ZM18.0327 41.3811C18.6014 41.416 19.1736 41.4396 19.7308 41.4508C19.5857 41.425 19.4475 41.4059 19.3187 41.4025C18.8753 41.3879 18.4482 41.3845 18.0327 41.3823V41.3811ZM31.5965 37.8654C31.542 37.9013 31.4874 37.9373 31.4329 37.9744C31.2332 38.107 31.0313 38.2408 30.8258 38.3723C30.9767 38.288 31.1195 38.2059 31.253 38.1261C31.3609 38.0621 31.4746 37.9677 31.5954 37.8676C31.5954 37.8676 31.5954 37.8676 31.5965 37.8665V37.8654ZM4.19834 37.7889C4.12754 37.7889 4.09388 37.8058 4.0904 37.8125C4.06138 37.8721 4.12754 38.0958 4.44905 38.2486C4.49664 38.2711 4.54423 38.2936 4.59182 38.315L4.97949 38.2666C4.9203 38.2453 4.85994 38.2183 4.80074 38.1823C4.66146 38.098 4.60343 37.9733 4.5686 37.898C4.56628 37.8923 4.5628 37.8856 4.56048 37.88C4.39102 37.8081 4.27379 37.7889 4.19834 37.7889ZM10.4591 37.345L9.8103 37.6203C9.75342 37.644 9.69655 37.6676 9.63968 37.6889L9.70119 37.681C9.95887 37.5507 10.2258 37.5113 10.4649 37.4765C10.5253 37.4675 10.5787 37.4596 10.6274 37.4506C10.5717 37.4147 10.516 37.3798 10.4591 37.345ZM33.9446 36.6627C33.8076 36.6627 33.6498 36.7167 33.4072 36.8212C33.0544 36.9718 32.7073 37.1629 32.3579 37.3764C32.517 37.318 32.6934 37.2854 32.8884 37.2955L33.0683 37.3045L34.0154 36.7751L34.0131 36.6683C33.9899 36.665 33.9678 36.6639 33.9434 36.6639L33.9446 36.6627ZM44.0101 34.5721C44.0392 34.6475 44.0705 34.7441 44.103 34.8722C44.1146 34.8071 44.132 34.7464 44.1518 34.6902C44.139 34.6823 44.1251 34.6744 44.1123 34.6654C44.074 34.6385 44.0392 34.6092 44.0101 34.5733V34.5721ZM43.8349 34.3058C43.8569 34.3226 43.879 34.3429 43.9022 34.371C43.8906 34.3395 43.8801 34.3058 43.8697 34.2687C43.8593 34.2822 43.8476 34.2945 43.8349 34.3069V34.3058ZM42.9748 31.4779C43.0363 31.6835 43.2708 32.0533 43.3694 32.2073C43.4658 32.3591 43.5424 32.4793 43.5853 32.5782C43.5911 32.5917 43.5981 32.6086 43.6062 32.6277C43.6016 32.6097 43.5981 32.5928 43.5946 32.5794C43.4159 31.9454 43.1303 31.5363 42.976 31.4767L42.9748 31.4779ZM3.56112 31.3216C3.53559 31.4891 3.52514 31.642 3.52978 31.7847L3.74103 31.5105L3.82344 31.5577C3.73639 31.4711 3.64237 31.3835 3.56112 31.3205V31.3216ZM48.9118 28.6848C48.7423 28.7241 48.278 29.04 47.8555 29.6031C47.5178 30.0527 47.4493 30.3539 47.4702 30.4213C47.6443 30.9642 50.0051 31.2047 51.3411 31.0609C52.1083 30.9788 54.1709 30.246 54.4123 29.5491C54.432 29.4907 54.4796 29.3547 54.2312 29.1265C53.6613 28.6039 51.9795 28.442 51.2819 28.8433L51.0509 28.9759C51.0242 29.5727 50.979 30.1696 50.5135 30.3618C50.1061 30.5292 49.7068 30.2471 49.4434 30.0201L49.2936 29.8908L49.3644 28.9838C49.188 28.9265 49.0568 28.8096 48.9849 28.7455C48.964 28.7264 48.935 28.7005 48.9129 28.6848H48.9118ZM27.1859 30.0976L27.0675 30.2674C26.9537 30.4303 26.9363 30.609 26.9143 30.8372C26.9143 30.8484 26.912 30.8597 26.9108 30.8709C26.9154 30.8664 26.9201 30.8619 26.9247 30.8574C27.0536 30.7349 27.2021 30.6933 27.3066 30.672C27.3066 30.627 27.3008 30.5607 27.2845 30.464C27.2648 30.3449 27.2323 30.2224 27.1859 30.0976ZM46.696 30.0954C46.6565 30.2471 46.6438 30.3899 46.6635 30.5146C46.6635 30.518 46.6635 30.5214 46.6658 30.5247C46.6461 30.3865 46.66 30.2415 46.696 30.0965V30.0954ZM25.9358 28.4061C26.3444 28.8388 26.7204 29.3097 27.0652 29.8211C26.8423 29.3805 26.4651 28.9074 25.9358 28.4061ZM50.134 29.5503C50.1491 29.5604 50.163 29.5694 50.1758 29.5772C50.2199 29.3963 50.2338 29.0602 50.2419 28.8613C50.2524 28.6241 50.2616 28.3971 50.2953 28.2026L50.2407 28.1734L50.134 29.5491V29.5503ZM46.7122 25.7872C46.7192 25.8187 46.7308 25.8603 46.7401 25.8906C46.7784 26.0266 46.8318 26.2132 46.7645 26.4088C46.624 26.81 45.8127 27.5743 44.9445 28.2937C45.9636 27.5204 46.7772 26.6965 47.0581 25.9839C47.2636 25.4613 47.4493 25.0218 47.6988 24.616C47.0558 25.3354 46.7993 25.6546 46.7134 25.7883L46.7122 25.7872ZM48.9698 27.8947C49.2391 27.9048 49.4155 28.0621 49.5339 28.1667C49.5467 28.1779 49.5606 28.1903 49.5757 28.2026L49.8798 27.9778L49.8577 27.9666C49.5757 27.8137 49.26 27.8205 48.9698 27.8935V27.8947ZM50.5588 27.3417L51.1786 28.0239C51.2529 27.9969 51.3306 27.9733 51.4107 27.952L51.1914 27.9823L51.1113 27.6238C50.9337 26.8291 50.8896 25.9951 50.8466 25.1893L50.8443 25.1376L50.4265 24.851C50.2895 24.7577 50.185 24.6115 50.1049 24.4295L50.4659 27.6305L50.5599 27.3405L50.5588 27.3417ZM49.0023 23.2088C48.957 23.2426 48.9187 23.274 48.8955 23.2987L48.8537 23.3437C48.8793 23.3235 48.9048 23.3032 48.9303 23.283C48.9373 23.2774 48.9559 23.2572 48.9698 23.2426C48.9791 23.2324 48.9895 23.2201 49.0023 23.2077V23.2088ZM49.4875 22.9897C49.5443 22.9897 49.6058 22.9964 49.6732 23.0121L49.8357 23.0504C49.8333 23.02 49.831 22.9897 49.8287 22.9593C49.8264 22.9267 49.8229 22.8975 49.8206 22.8716C49.8055 22.7289 49.7834 22.5142 49.9633 22.3456C50.1049 22.213 50.286 22.1984 50.423 22.2063L50.3963 22.113L50.7329 21.9803C50.7642 21.968 50.799 21.9567 50.835 21.9477C50.7085 21.9163 50.589 21.8612 50.4833 21.7702C50.2976 21.6105 50.2001 21.3768 50.192 21.0744L50.1874 20.8766L49.9877 20.8271L50.0713 20.4562C50.1282 20.2022 50.0098 19.9673 49.8728 19.6953C49.7672 19.4851 49.6581 19.2682 49.6198 19.0198C49.5942 18.8523 49.5594 18.278 49.5443 17.7902C49.52 16.9326 49.5525 16.6617 49.65 16.5179C49.2669 16.5302 48.8526 16.5336 48.4835 16.5268C48.4985 16.5313 48.5125 16.5347 48.5276 16.5392L48.7551 16.6055L49.6337 20.3652L49.1683 20.3326C49.3168 20.3899 49.376 20.4472 49.4213 20.4911L49.4631 20.5315L49.4909 20.5821C49.7335 21.0137 49.9982 21.8859 49.7347 22.5176C49.643 22.7368 49.4445 22.8975 49.2484 23.038C49.3157 23.011 49.3946 22.9919 49.4875 22.9919V22.9897ZM35.233 22.7907C35.2736 22.8492 35.3107 22.9121 35.3432 22.9807C35.551 22.9571 35.7564 22.9256 35.9596 22.8874C35.6798 22.8997 35.4361 22.8716 35.233 22.7918V22.7907ZM7.55971 22.3164C7.76399 22.4119 7.96596 22.4996 8.15747 22.5682C8.25613 22.603 8.35479 22.6379 8.45345 22.6716C8.15051 22.5558 7.85337 22.4355 7.55971 22.3164ZM32.5657 21.1756C32.8071 21.3161 33.0497 21.4588 33.2935 21.6004L33.7252 21.8533C33.8645 21.9343 34.0189 21.9994 34.1814 22.068C34.3183 22.1253 34.4658 22.1871 34.6097 22.2636C34.5865 22.2445 34.5656 22.2287 34.5447 22.2175C33.8993 21.8724 33.2296 21.5206 32.5645 21.1756H32.5657ZM0.943758 19.6155C1.46143 19.9797 2.80203 20.7552 3.08756 20.8575C3.31506 20.9384 3.553 21.0014 3.79442 21.0542C3.20015 20.835 2.6465 20.5428 2.25418 20.1134L1.60535 19.4053L2.10213 19.4323L1.57634 19.2974C1.41036 19.4312 1.20724 19.511 1.03313 19.5795C1.00644 19.5908 0.975096 19.6031 0.943758 19.6155ZM22.3284 17.6463C21.9918 17.6463 21.6482 17.6688 21.2977 17.7081C21.9268 17.662 22.5338 17.6576 23.1235 17.6913C22.8646 17.6609 22.5988 17.6463 22.3284 17.6463ZM47.8195 15.7097C48.4614 15.7603 49.9123 15.7491 50.517 15.6681C51.3922 15.5501 52.5656 14.488 52.6782 12.8234C51.528 13.1336 50.1792 13.237 48.4916 13.1493C47.8033 13.1133 47.0303 12.9549 46.3281 12.8043C46.4209 13.0054 46.5579 13.183 46.7331 13.3202L47.0059 13.5348L46.826 13.8271C46.588 14.2148 46.3014 14.3969 45.9752 14.3699C45.3275 14.316 44.9724 13.4213 44.6868 12.7031C44.6555 12.6233 44.6195 12.5334 44.5882 12.4592C44.3038 12.4356 44.0473 12.3558 43.8093 12.258C44.3514 13.8866 46.2317 15.585 47.8184 15.7108L47.8195 15.7097ZM53.457 11.7399L53.4895 12.2625C53.4953 12.3502 53.4977 12.439 53.4965 12.5311C53.5685 11.7444 53.5429 10.898 53.4652 10.0584C53.4652 10.2068 53.4628 10.3551 53.457 10.5046L53.435 11.0284L52.922 10.8609C52.9034 10.8553 52.8848 10.8486 52.8662 10.8429C53.1111 11.1104 53.1471 11.4386 52.9603 11.7331L52.9011 11.8275L52.7989 11.8781C52.6004 11.9759 52.3985 12.0613 52.193 12.1332C52.4565 12.0726 52.7072 11.9995 52.9475 11.9163L53.457 11.7399ZM45.1743 11.8466C45.2463 11.9354 45.3043 12.0636 45.3832 12.2603L45.3658 11.9141L45.324 11.9073L45.2579 11.7039L45.2602 11.8579L45.1743 11.8455V11.8466ZM50.4799 10.9385C50.4265 10.9823 50.3348 11.1419 50.2779 11.2386C50.2024 11.369 50.0968 11.551 49.9494 11.7061C50.734 11.6949 51.492 11.5803 52.1803 11.2903C51.8413 11.052 50.7747 10.8407 50.4799 10.9385ZM45.9566 11.2206C46.0564 11.2386 46.1586 11.2566 46.2596 11.2757C46.9908 11.4083 47.7569 11.5477 48.5206 11.6308C48.5044 11.5971 48.4927 11.5623 48.4835 11.5252C48.4138 11.2228 48.6216 10.9576 48.8421 10.6755C48.6413 10.6653 48.444 10.6496 48.2502 10.635C47.7429 10.5968 47.2636 10.5608 46.7749 10.6002C46.4743 10.6238 45.9717 10.6642 45.9032 10.7463C45.9009 10.7496 45.8522 10.8317 45.9578 11.2206H45.9566ZM42.9388 10.9767L43.4321 11.2037C43.4971 11.233 43.561 11.2644 43.6248 11.2948C43.6027 11.1442 43.648 10.9407 43.8941 10.7036C43.6445 10.8182 43.4217 10.9003 43.3033 10.9182L42.9388 10.9756V10.9767ZM44.7994 10.2292C44.912 10.2292 45.0199 10.263 45.1116 10.3495L45.1697 10.4035C45.1859 10.3709 45.2045 10.3383 45.2266 10.3079C45.2869 10.2203 45.36 10.1494 45.4448 10.0932L45.4146 10.0888L45.3194 9.99434C45.2416 9.91791 45.1836 9.86059 45.1824 9.5425C45.1581 9.67626 45.1279 9.78416 45.0861 9.8707C45.0339 9.98197 44.8981 10.109 44.7228 10.2349C44.7483 10.2315 44.7739 10.2304 44.7983 10.2304L44.7994 10.2292ZM43.0491 5.80868C42.8355 7.31367 42.6579 8.85351 42.7844 10.4035L43.2824 9.95275C43.1849 9.68974 43.0967 9.43235 43.0665 9.08842C43.0224 8.59163 43.1036 8.01053 43.1814 7.44855C43.2464 6.98547 43.3068 6.54713 43.2801 6.26052C43.2743 6.2268 43.2174 6.13913 43.1861 6.09192C43.1327 6.00875 43.0735 5.91771 43.0502 5.80868H43.0491ZM49.7312 9.89655L49.8392 10.1382C49.8786 10.227 49.8925 10.3147 49.8856 10.4012C49.9343 10.3518 49.9877 10.3079 50.0492 10.2697C50.0945 10.2416 50.1491 10.218 50.2106 10.1989L50.0074 9.66052L49.195 9.65827L49.0835 9.44022C48.9895 9.25701 48.9733 9.07044 49.0104 8.88498L48.9768 8.9232L48.921 9.88981C49.1009 9.8988 49.2785 9.9033 49.4584 9.89992L49.7312 9.89543V9.89655ZM50.8698 9.4672C51.5059 9.4672 52.0514 9.683 52.583 9.89206C52.6062 9.90105 52.6295 9.91004 52.6527 9.91903C52.6306 8.54442 52.3254 7.21589 52.0038 5.8188C51.8286 5.0545 51.6475 4.26884 51.5187 3.47532C50.7445 3.71473 49.9715 3.73271 49.2193 3.74957C49.0232 3.75407 48.8259 3.75856 48.6274 3.76643C48.5519 3.7698 48.4556 3.79678 48.3523 3.82488C48.1979 3.86759 48.0238 3.91592 47.8219 3.91817C47.1347 3.92941 46.3745 3.77542 45.6432 3.58772C45.6885 3.65516 45.728 3.73384 45.757 3.82825L45.9241 4.36438L43.8836 4.25985C43.9219 4.45205 44.0043 4.69258 44.0438 4.80947C44.1262 5.05225 44.1819 5.21185 44.1645 5.36247C44.1448 5.54792 44.0334 5.6738 43.9312 5.76485C43.9997 5.87724 44.0717 6.02336 44.0879 6.18971C44.1227 6.56399 44.0554 7.04392 43.9846 7.55308C43.9126 8.07348 43.8372 8.61073 43.8732 9.02098C43.8964 9.27949 43.9672 9.47731 44.0577 9.72121C44.1912 9.64141 44.3026 9.56611 44.3572 9.5144C44.4175 9.3312 44.4466 8.74561 44.4651 8.38819C44.4837 8.02852 44.5 7.68908 44.5394 7.45529C44.6079 7.04392 44.7878 6.11215 44.9108 5.71989C45.0072 5.41417 45.2776 5.17589 45.7152 5.01291L45.9067 4.9421L46.0797 5.04888C46.3698 5.22759 46.6728 5.45238 46.7273 5.77271C46.7761 6.0627 46.6043 6.26951 46.4905 6.40663C46.4348 6.47407 46.3814 6.53701 46.3617 6.59546C46.2828 6.84723 46.0773 8.36571 46.0123 9.1626C46.1284 9.10415 46.2712 9.05245 46.4453 9.04571C46.6995 9.03672 46.9804 9.1109 47.2763 9.18958C47.5619 9.26601 47.8753 9.34918 48.1399 9.34244L48.1817 8.61748L48.6564 8.07685L48.2072 8.26005L48.0923 8.24207C47.9054 8.21285 47.7487 8.1027 47.6512 7.93073C47.4679 7.60591 47.5282 7.07989 47.6431 6.82587C47.7905 6.4988 48.7841 5.64009 49.2043 5.28604C50.6923 4.03281 50.9105 4.07103 51.0857 4.10025C51.4978 4.17218 51.6185 4.41384 51.6545 4.55208C51.7613 4.96795 51.4084 5.38944 50.611 6.02898C50.8223 6.04584 50.9975 6.10766 51.1345 6.21219L51.4827 6.07057L51.2564 6.32795C51.4548 6.56062 51.5013 6.88207 51.3991 7.3103C51.3562 7.48901 51.2215 7.59804 50.8954 7.86329C50.2524 8.38369 49.9726 8.69278 49.8635 8.87374L50.5773 8.87599L50.8002 9.46832C50.8234 9.46832 50.8466 9.46832 50.8698 9.46832V9.4672ZM46.4917 9.83136C46.4917 9.83136 46.4813 9.83136 46.4766 9.83136C46.4662 9.83136 46.4546 9.83361 46.4418 9.83811C46.465 9.83586 46.4882 9.83361 46.5114 9.83249C46.5045 9.83249 46.4975 9.83249 46.4917 9.83249V9.83136ZM45.5307 6.59883C45.4552 6.95513 45.3809 7.34852 45.3426 7.58118C45.3148 7.74977 45.2985 8.03077 45.2834 8.31625C45.2916 8.24994 45.2997 8.18138 45.3078 8.11057C45.3565 7.71268 45.4529 7.00458 45.5307 6.59995V6.59883ZM48.3848 7.14845C48.3662 7.19566 48.3535 7.27209 48.3488 7.34739L49.4271 6.90792C49.39 6.88994 49.354 6.86858 49.3203 6.84161C49.2426 6.78091 49.1218 6.64829 49.1195 6.41675C48.7551 6.7427 48.4649 7.02481 48.3848 7.14957V7.14845ZM50.6261 7.04617L50.6064 7.06865C50.6133 7.06303 50.6191 7.05741 50.6249 7.05179C50.6249 7.04954 50.6249 7.04729 50.6249 7.04617H50.6261ZM45.822 5.83341C45.7071 5.89972 45.6908 5.94693 45.6897 5.9503C45.656 6.0582 45.6154 6.2223 45.5736 6.41113C45.5806 6.38303 45.5875 6.35943 45.5945 6.34144C45.6618 6.15261 45.7756 6.01549 45.8591 5.91433C45.8673 5.90534 45.8754 5.8941 45.8847 5.88399C45.8684 5.8705 45.8487 5.85364 45.8231 5.83453L45.822 5.83341ZM43.193 4.81846C43.1791 4.91063 43.1663 5.00167 43.1536 5.09271C43.1338 5.22534 43.1152 5.35685 43.0955 5.4906C43.157 5.37371 43.2569 5.29166 43.3311 5.23096C43.3137 5.17701 43.2917 5.11294 43.2731 5.05899C43.2464 4.98256 43.2197 4.90164 43.193 4.81959V4.81846ZM43.3822 3.44722L43.944 3.47645C43.8732 3.30448 43.843 3.07294 43.8848 2.75711L43.9451 2.30752L44.1506 2.36259L44.3282 2.08048C44.5313 1.7579 44.84 1.49939 45.2138 1.2937C45.1325 1.32967 45.0571 1.36676 44.9863 1.4061C44.7739 1.52411 44.6404 1.64887 44.4709 1.80735C44.3885 1.88378 44.3038 1.96246 44.2028 2.04788L44.0438 2.18276L43.489 2.05013C43.4843 2.54243 43.4344 3.01787 43.381 3.44835L43.3822 3.44722ZM51.8971 1.89502C51.933 1.96921 51.9539 2.04676 51.9551 2.12656C51.9574 2.22884 51.9319 2.37945 51.7972 2.51995L52.0642 2.40081C52.0874 2.34911 52.1129 2.3064 52.1327 2.27268C52.1362 2.26593 52.1408 2.26031 52.1443 2.25357C52.1338 2.22547 52.1048 2.16253 52.0259 2.05238C51.9864 1.99843 51.9435 1.9456 51.8971 1.8939V1.89502ZM45.4935 2.04114C46.5033 2.23896 47.3889 2.40306 48.4463 2.34574C48.9733 2.31764 50.4044 2.17714 50.9627 2.058C50.6714 1.87592 50.1537 1.65112 49.8833 1.58144C48.791 1.29707 46.5753 1.35777 45.4935 2.04114Z" fill="#FFFFF5"/>
<path d="M44.119 22.2051C43.837 22.0624 42.2248 22.6648 42.161 22.7739C42.0461 22.9672 42.306 23.4516 41.9544 23.6562C40.5755 22.7829 41.8104 22.0399 42.8434 21.7106C43.577 21.4768 44.2328 21.1149 44.1179 22.2063L44.119 22.2051Z" fill="#FFFFF5"/>
<path d="M41.952 23.7876L41.8916 23.7494C41.4088 23.4437 41.1871 23.1188 41.2323 22.7861C41.3194 22.1432 42.364 21.7442 42.8085 21.6026C42.8921 21.5756 42.9757 21.5475 43.0558 21.5194C43.4667 21.3789 43.8218 21.2564 44.054 21.434C44.2199 21.5599 44.278 21.8083 44.235 22.2163L44.2176 22.3815L44.0656 22.3039C44.0168 22.2792 43.7615 22.286 43.1393 22.486C42.7018 22.6265 42.3327 22.7861 42.2572 22.839C42.2386 22.8862 42.2468 22.9851 42.2537 23.0727C42.2711 23.2897 42.2967 23.5875 42.0146 23.7516L41.952 23.7876ZM43.7603 21.57C43.6013 21.57 43.3715 21.6487 43.1324 21.7307C43.05 21.7588 42.9652 21.788 42.8805 21.815C42.2317 22.0218 41.519 22.3927 41.4621 22.8142C41.432 23.0401 41.5956 23.2762 41.9508 23.5156C42.0413 23.4257 42.0378 23.284 42.0228 23.0896C42.0111 22.9502 42.0007 22.8187 42.0611 22.7164C42.1551 22.558 43.4817 22.0679 44.0145 22.0747C44.0284 21.8308 43.9925 21.6712 43.9124 21.6093C43.8752 21.5812 43.8242 21.57 43.7626 21.57H43.7603Z" fill="#FFFFF5"/>
<path d="M45.0316 23.3113C44.9155 23.427 44.5522 23.5113 44.3572 23.6316C44.1193 23.7788 44.1936 24.1632 43.6225 24.0126C43.2244 23.3124 44.7588 22.1244 45.1326 22.8325C45.2104 22.9797 45.1407 23.2023 45.0328 23.3113H45.0316Z" fill="#FFFFF5"/>
<path d="M43.8499 24.1587C43.778 24.1587 43.6921 24.1474 43.5923 24.1205L43.5447 24.1081L43.5215 24.0665C43.3891 23.8338 43.4216 23.5405 43.6132 23.2404C43.8871 22.811 44.4013 22.4862 44.7855 22.5031C44.9874 22.5109 45.1429 22.6076 45.2346 22.7818C45.3391 22.9785 45.2532 23.2516 45.1139 23.3899C45.0327 23.4719 44.8806 23.5304 44.7205 23.5922C44.609 23.6349 44.4953 23.6799 44.4175 23.7271C44.3641 23.7597 44.3305 23.8147 44.291 23.8788C44.2156 24.0013 44.1181 24.1587 43.8476 24.1587H43.8499ZM43.7037 23.9159C43.9625 23.9743 44.0136 23.8923 44.0937 23.763C44.1413 23.6855 44.1958 23.5978 44.2945 23.5371C44.3897 23.4787 44.515 23.4303 44.6357 23.3831C44.7599 23.3348 44.9004 23.2809 44.948 23.2336C45.0269 23.155 45.0803 22.9808 45.028 22.8841C44.9746 22.7841 44.8922 22.7335 44.7762 22.7279C44.4779 22.7155 44.0368 23.0055 43.8105 23.3595C43.7315 23.4832 43.619 23.7125 43.7037 23.917V23.9159Z" fill="#FFFFF5"/>
<path d="M48.604 14.5611L48.5042 15.1355L47.2426 15.3423C46.8618 15.3153 46.437 14.6904 46.4927 14.3284C46.9733 14.0902 47.3911 14.7072 47.6233 14.6971C47.8554 14.687 48.1467 14.2239 48.604 14.5611Z" fill="#FFFFF5"/>
<path d="M49.0265 29.312C48.9476 29.6807 48.8965 31.1564 48.3289 30.9923C47.8437 30.5551 48.308 29.874 48.2314 29.3266L49.0265 29.312Z" fill="#FFFFF5"/>
<path d="M52.8684 29.1165C52.9229 29.9482 52.0989 31.1273 51.3003 30.2349C51.4848 29.8842 51.9027 29.8381 52.1522 29.6448C52.4018 29.4514 52.367 28.9996 52.8672 29.1154L52.8684 29.1165Z" fill="#FFFFF5"/>
</g>
<defs>
<clipPath id="clip0_581_57515">
<rect width="56" height="61" fill="white"/>
</clipPath>
</defs>
</svg>
