<svg width="37" height="36" viewBox="0 0 37 36" fill="none" xmlns="http://www.w3.org/2000/svg">
<path d="M35.4256 10.392V25.4193C35.4256 27.9102 34.4128 30.2991 32.6102 32.0604C30.8076 33.8218 28.3627 34.8113 25.8133 34.8113H10.4338C7.88444 34.8113 5.43953 33.8218 3.63689 32.0604C1.83425 30.2991 0.821533 27.9102 0.821533 25.4193V10.392C0.821533 7.9011 1.83425 5.51221 3.63689 3.75086C5.43953 1.98951 7.88444 1 10.4338 1H25.8133C28.3627 1 30.8076 1.98951 32.6102 3.75086C34.4128 5.51221 35.4256 7.9011 35.4256 10.392Z" stroke="#3F2C22" stroke-width="1.5" stroke-linecap="round" stroke-linejoin="round"/>
<path d="M16.2011 34.8099V17.9042C16.2011 13.7962 17.1623 10.3906 23.8909 10.3906M12.3562 19.7826H23.8909" stroke="#3F2C22" stroke-width="1.5" stroke-linecap="round" stroke-linejoin="round"/>
</svg>
