<svg width="411" height="42" viewBox="0 0 411 42" fill="none" xmlns="http://www.w3.org/2000/svg">
<path d="M0.297949 41V1.675H29.228V8.385H8.27295V17.185H26.643V23.73H8.27295V34.345H29.393V41H0.297949ZM31.7657 41L44.4707 20.43L32.7007 1.675H41.6657L48.9257 14.105H49.0357L56.2957 1.675H64.9857L53.4357 20.375L66.4707 41H57.1757L49.1457 26.645H49.0357L40.8957 41H31.7657ZM69.961 41V1.675H87.231C91.796 1.675 95.206 2.995 97.516 5.36C99.716 7.615 101.036 10.695 101.036 14.325C101.036 21.75 96.141 26.755 87.891 26.755H78.211V41H69.961ZM78.211 8.605V20.265H86.461C90.641 20.265 92.841 17.955 92.841 14.38C92.841 10.695 90.531 8.605 86.571 8.605H78.211ZM104.981 41V1.675H112.956V34.345H131.436V41H104.981ZM151.308 41.88C139.703 41.88 132.333 33.19 132.333 21.42C132.333 9.65 139.703 0.904998 151.308 0.904998C162.913 0.904998 170.228 9.65 170.228 21.42C170.228 33.19 162.913 41.88 151.308 41.88ZM151.363 35.335C158.568 35.335 162.088 29.23 162.088 21.42C162.088 13.555 158.568 7.45 151.363 7.45C144.158 7.45 140.473 13.555 140.473 21.42C140.473 29.23 144.158 35.335 151.363 35.335ZM174.59 41V1.675H192.63C200.22 1.675 205.28 6.075 205.28 12.62C205.28 17.24 203.135 20.76 198.075 22.135V22.3C201.705 23.345 203.575 25.435 204.07 30.22C204.62 35.775 204.4 40.01 205.775 40.615V41H198.13C197.14 40.56 197.03 36.16 196.7 31.925C196.37 27.635 193.95 25.215 189 25.215H182.565V41H174.59ZM182.565 8.11V19.055H191.035C195.38 19.055 197.525 16.8 197.525 13.665C197.525 10.475 195.49 8.11 191.255 8.11H182.565ZM210.415 41V1.675H239.345V8.385H218.39V17.185H236.76V23.73H218.39V34.345H239.51V41H210.415ZM253.158 41L241.718 1.675H249.858L254.973 21.2C255.743 24.555 256.678 29.78 256.678 29.78H256.788C256.788 29.78 257.778 24.885 258.603 21.42L262.893 1.675H270.593L274.883 21.365C275.708 24.83 276.698 29.78 276.698 29.78H276.808C276.808 29.78 277.963 24.555 278.733 21.145L283.683 1.675H291.548L280.328 41H272.903L268.118 19.935C267.458 17.075 266.743 12.95 266.743 12.95H266.633C266.633 12.95 266.028 17.075 265.368 19.935L260.528 41H253.158ZM294.904 41V1.675H302.879V41H294.904ZM308.975 41V1.675H317.06L330.15 23.62C331.415 25.765 332.9 29.12 332.9 29.12H333.01C333.01 29.12 332.79 25.05 332.79 22.3V1.675H340.655V41H332.955L319.535 19.275C318.27 17.185 316.73 13.83 316.73 13.83H316.62C316.62 13.83 316.84 17.955 316.84 20.705V41H308.975ZM346.68 41V1.675H375.61V8.385H354.655V17.185H373.025V23.73H354.655V34.345H375.775V41H346.68ZM395.699 41.88C385.029 41.88 378.979 37.15 378.704 28.845H386.514C387.064 33.575 389.759 35.445 395.369 35.445C399.439 35.445 403.014 34.015 403.014 30.385C403.014 26.535 399.274 25.765 393.279 24.39C386.239 22.795 379.804 20.925 379.804 12.73C379.804 4.975 386.129 0.959998 394.874 0.959998C403.729 0.959998 409.449 5.305 410.054 13.225H402.409C401.969 9.265 398.889 7.285 394.819 7.285C390.529 7.285 387.724 9.1 387.724 11.905C387.724 15.095 390.474 16.03 396.304 17.295C404.389 19.055 410.989 20.98 410.989 29.45C410.989 37.425 404.554 41.88 395.699 41.88Z" fill="#3F2C22"/>
</svg>
