<svg width="513" height="521" viewBox="0 0 513 521" fill="none" xmlns="http://www.w3.org/2000/svg">
<g clip-path="url(#clip0_752_25452)">
<path d="M478.825 384.904C478.022 385.485 477.714 386.524 476.959 387.289C461.416 403.08 444.468 423.589 431.312 442.318C430.734 443.139 429.535 443.675 428.911 444.738C428.515 445.414 428.221 447.034 428.133 447.109C427.99 447.23 427.401 446.645 426.834 447.068C426.22 447.529 422.384 452.471 423.279 453.597L422.163 453.344C419.475 456.895 416.771 460.412 414.093 463.972C413.327 464.992 411.317 466.731 410.876 467.614C410.278 468.809 410.612 470.518 410.157 471.459C409.938 471.913 409.352 471.656 409.153 471.868C408.513 472.553 406.83 473.933 406.731 474.076C406.25 474.771 406.56 475.81 406.188 476.495C406.01 476.823 405.36 476.791 405.259 477.229C404.745 479.472 406.015 483.22 404.514 485.566L405.597 485.607C405.843 487.393 405.747 487.544 404.186 487.244L403.763 483.41C402.956 484.71 399.057 483.673 400.017 482.114C400.864 482.472 403.26 483.678 403.763 482.325C404.439 480.509 401.329 481.014 400.768 481.682L401.215 479.191L403.388 478.232C401.003 477.534 398.522 477.204 396.067 476.895C395.363 476.806 394.646 477.21 393.954 477.128C360.178 473.157 326.39 465.793 292.493 461.371C291.898 461.293 285.442 459.904 285.549 460.293C287.561 464.737 292.9 479.344 297.744 479.537C298.765 479.578 298.239 477.245 298.868 476.495C300.227 475.19 299.341 480.066 299.087 480.53C298.802 481.055 297.971 481.265 297.457 481.17C292.309 480.223 286.511 464.94 284.712 459.747L281.555 458.835L281.048 459.425L286.093 474.365L285.365 475.199C282.264 470.31 280.97 464.214 279.185 458.55L269.966 456.632C269.606 457.617 270.314 459.155 270.631 460.187C272.293 465.625 275.124 471.58 278.231 476.065L274.099 460.084C274.542 460.496 274.748 461.084 274.99 461.65C276.043 464.113 280.742 477.826 280.682 479.729C280.662 480.381 280.936 480.997 280.112 480.815C278.201 477.722 275.865 474.922 274.215 471.615C271.896 466.966 270.415 461.499 268.476 456.619C267.881 455.953 261.243 454.387 260.778 454.899L268.955 479.398L272.031 484.274C271.958 480.621 270.111 476.987 269.428 473.663C269.216 472.63 270.03 472.857 270.439 473.799C271.396 476.005 273.729 483.505 274.202 485.885C274.324 486.495 274.313 487.115 274.285 487.73C273.829 487.685 273.271 487.89 272.864 487.633C272.695 487.527 270.621 484.654 270.368 484.248C266.502 478.039 264.085 467.705 261.707 460.518C261.358 459.462 260.053 455.158 259.682 454.64C259.113 453.854 257.488 453.936 256.649 453.592L256.461 454.891C255.375 451.894 252.928 453.748 250.908 453.074C250.002 452.771 248.44 450.345 250.447 450.574C253.292 450.901 256.084 451.788 258.897 452.296L254.016 436.535C254.977 435.764 255.337 436.725 255.707 437.613C257.415 441.733 258.267 448.207 259.725 452.642L267.908 454.456L259.817 425.965L260.399 423.356C262.486 433.865 265.603 444.046 268.694 454.204C269.766 455.863 276.769 455.871 278.793 456.617C277.68 453.426 276.537 450.002 275.61 446.675C273.648 439.631 271.505 431.685 270.103 424.501C268.975 418.724 268.03 412.922 268.287 406.938C268.411 406.75 269.032 406.508 268.93 407.48C268.686 409.856 269.4 417.53 269.803 420.092C269.895 420.671 270.34 421.09 270.424 421.537C272.138 430.597 274.872 439.43 276.921 448.408C277.584 448.52 277.291 447.431 277.207 446.999C276.358 442.616 275.623 438.151 274.298 433.913L274.474 432.854L275.24 432.841L283.878 455.733L284.044 457.483L283.353 456.77L276.921 440.635C277.265 446.202 279.053 451.413 280.292 456.733L280.748 457.198C288.024 458.956 295.375 460.043 302.813 460.505C297.976 455.541 296.558 448.028 293.241 441.934C293.001 446.397 296.062 450.719 296.248 454.891C292.386 451.257 292.755 444.537 291.241 439.447L291.789 438.071C292.41 438.041 293.041 438.194 293.452 438.782C294.895 440.851 296.447 447.01 297.669 449.799C298.489 451.674 300.061 455.018 301.152 456.591C301.7 457.383 305.532 461.173 306.063 461.281C306.332 461.335 307.283 461.032 307.321 460.684C305.337 454.426 304.607 449.367 307.55 443.275C309.578 439.078 310.99 439.408 314.542 440.743C323.442 444.085 328.222 450.996 338.943 447.012C340.689 446.364 347.173 441.851 347.657 441.929C347.907 441.97 348.47 442.683 347.854 443.012C344.763 444.318 342.368 446.963 339.204 448.177C333.63 450.317 328.306 449.488 322.982 447.012C320.15 445.695 312.613 440.212 309.942 441.711C308.674 442.424 307.095 447.812 306.947 449.494C306.561 453.873 308.128 457.461 308.495 461.743C316.545 463.799 324.819 464.084 332.981 465.311C355.31 468.666 376.504 473.073 399.075 474.769C400.26 474.858 403.501 476.169 404.007 474.996L403.96 470.846C404.323 469.921 408.035 469.237 408.573 467.111C408.971 465.538 408.564 462.199 408.654 460.291C409.878 434.867 408.951 408.504 408.654 382.949C408.228 346.45 406.541 310.115 406.006 273.622C405.862 263.741 405.513 253.791 405.263 243.859C405.156 239.551 405.088 234.859 405.646 230.651L404.897 230.867C404.709 229.83 405.595 230.623 405.681 229.608C405.871 227.402 405.225 225.378 405.242 223.524C405.28 219.439 406.701 214.415 405.291 210.533L406.044 210.107C405.498 197.803 404.998 185.278 404.88 172.954C404.66 150.174 404.794 127.157 404.542 104.3C404.509 101.15 404.058 97.9422 404.522 94.9935C402.885 94.2741 401.954 98.5017 400.774 97.5814C400.233 96.1729 400.898 95.6782 401.519 94.5636C400.312 94.1834 398.968 95.0129 397.936 95.0064C395.75 94.9935 392.267 94.7882 390.058 94.5744C364.452 92.0966 339.02 86.7393 313.514 83.3218C281.85 79.0769 249.975 77.258 218.18 75.5536C214.46 75.3549 210.711 75.7048 206.997 75.2166C206.31 75.3916 203.945 78.3533 203.812 78.8782C203.32 80.8051 204.099 83.9763 204.133 86.1495C204.626 119.251 203.864 155.566 212.477 187.537C215.102 197.282 218.672 206.806 221.485 216.482C235.939 266.182 244.781 317.95 248.024 370.413C249.683 397.258 249.645 425.146 248.756 452.056C248.62 456.133 248.266 475.957 246.687 478.191C241.93 484.92 240.425 494.464 233.58 499.827L230.383 502.837L240.322 501.97C263.916 495.142 288.431 490.031 310.196 476.99C312.187 475.797 315.24 472.82 317.262 472.589C317.815 472.527 318.363 472.341 318.2 473.239L311.729 477.8C294.762 488.594 275.028 493.647 256.18 499.056C250.67 500.638 243.621 503.31 238.103 503.701C226.592 504.517 218.056 510.456 206.832 512.67C185.876 516.802 158.872 512.618 144.247 492.908C137.333 483.591 139.27 472.581 138.429 461.153C138.235 458.513 137.607 455.837 137.678 453.158C137.096 453.124 137.245 453.983 136.715 454.415C134.486 456.228 131.414 450.989 129.803 449.481L126.425 442.791C127.015 449.384 129.832 455.403 130.924 461.797L129.419 461.589L122.801 451.495L117.419 440.633C117.805 445.593 118.93 450.648 120.148 455.415C121.672 461.384 126.326 472.27 126.799 477.571C126.868 478.355 126.772 479.167 126.797 479.951C122.576 479.912 120.85 473.196 119.667 469.366C119.108 468.681 119.322 469.774 119.382 470.116C119.981 473.525 121.668 478.415 122.754 481.794C123.758 484.918 128.469 496.278 127.852 498.648C127.005 501.897 123.959 497.075 123.261 495.9C119.127 488.921 116.886 479.018 113.106 471.732C112.862 471.261 112.727 470.546 112.164 470.444C111.943 477.525 112.898 484.291 112.123 491.366C111.862 493.744 111.186 492.485 109.918 493.131C109.415 493.386 108.411 494.891 108.033 495.498C108.495 495.466 108.803 495.418 109.189 495.79C110.929 497.458 112.119 503.444 115.537 502.845C115.94 502.39 113.602 494.978 113.68 493.511C113.71 492.949 114.078 492.342 114.596 492.481C116.409 495.228 115.944 499.039 118.729 501.111C119.785 500.523 119.038 497.855 120.416 498.097C120.474 499.449 120.555 501.564 119.508 502.446C118.068 503.658 117.021 501.5 116.668 501.986L116.503 504.172C113.876 505.772 112.451 503.219 110.665 501.551C111.07 503.496 112.429 507.561 110.019 508.373C106.245 509.644 105.864 504.958 104.089 504.148C103.184 503.735 103.709 506.287 102.407 505.87L102.769 501.398C104.089 498.741 107.497 508.736 109.908 507.168C110.222 503.407 108.64 500.044 107.66 496.572C107.53 496.114 107.94 495.788 107.099 495.937C105.969 498.063 103.968 499.262 102.398 500.897C99.5656 503.843 97.3961 507.131 93.7778 509.112C94.8063 510.164 96.3489 510.884 97.7095 511.056C102.857 511.709 123.088 506.064 128.593 503.835C131.305 502.737 135.726 499.244 137.946 498.616C138.356 498.499 138.767 498.499 139.181 498.529C140.17 499.685 135.67 501.888 134.814 502.353C128.617 505.714 123.1 506.721 116.587 508.589C110.954 510.205 99.1527 515.083 93.8717 511.624C93.2842 511.24 93.273 510.59 93.0252 510.41C91.7453 509.482 88.7688 512.309 87.3876 512.996C84.3248 514.517 76.2793 517.857 73.1508 518.641C58.2308 522.382 39.854 522.022 25.6434 514.956C16.9523 510.635 9.11891 500.668 6.53091 490.297C2.22571 473.049 2.33268 447.382 1.8072 428.769C0.92514 397.638 3.85846 368.328 4.05926 337.571C4.19251 317.092 2.88256 296.49 4.07803 275.81C4.22066 273.333 5.58504 267.275 4.77617 265.495C3.87347 263.508 1.44312 263.506 1.44312 263.279C3.15281 261.769 4.76867 265.515 5.49496 263.618C5.97164 262.376 6.09363 259.032 6.43519 257.356C9.81705 240.711 15.0381 225.845 20.1672 210.086C31.3975 175.58 34.8957 133.316 34.8675 96.4905C34.8656 93.8917 34.419 91.1331 34.4584 88.2838C34.4884 86.1603 35.2203 83.6869 34.8506 81.3884C34.5222 79.347 29.3462 79.954 30.5229 75.1086C31.1366 72.5833 33.1616 71.5788 34.4359 69.6368C34.038 67.6796 32.7844 67.4506 32.5986 64.9685C32.2626 60.5163 34.1975 59.2591 36.9863 57.06C41.3441 53.6252 42.1755 54.1653 46.9667 52.9944C47.7681 52.7979 48.5319 51.8258 49.3371 51.7847C49.7086 51.7653 51.8931 52.2103 53.0961 52.2643C53.9782 52.3032 54.6482 52.7374 55.6353 52.6423C58.1445 52.4025 59.9105 49.564 61.8979 48.1491C71.7094 41.1651 85.0379 35.03 95.6602 29.1218C109.668 21.3299 129.595 12.5227 141.103 1.07569C143.252 -1.06292 144.532 0.604765 146.887 0.807826C152.911 1.32412 157.631 2.92052 163.19 3.63988C194.55 7.69677 226.291 11.4556 257.987 13.3263C274.534 14.3027 290.535 15.9034 307.152 16.3485C324.857 16.8237 342.77 18.2041 360.4 20.7229C391.981 25.2356 423.942 29.1154 455.754 32.3578C459.575 32.7467 463.537 33.7944 467.347 33.25L467.96 35.3778L469.21 34.5548L470.205 35.3778C470.167 32.8569 468.903 30.0205 471.331 28.4651C470.753 30.4007 471.967 30.5195 472.198 31.1611C472.806 32.8547 472.003 37.1082 471.688 39.0243C470.455 46.5375 470.74 59.7322 470.567 67.9777C469.869 101.301 471.329 133.275 472.819 166.518C473.495 181.601 473.865 196.77 474.351 211.848C475.161 236.933 477.081 261.925 477.729 287.024C478.294 308.894 477.004 332.259 479.255 353.961C479.36 354.98 479.662 357.4 480.713 357.255C480.516 358.087 479.673 357.691 479.56 358.748C479.281 361.349 480.262 365.861 480.356 368.68C480.467 372.005 479.705 376.818 480.33 379.847C480.431 380.337 481.383 380.393 481.471 380.804C478.57 387.965 485.483 383.945 488.512 383.288C495.537 381.765 496.325 381.765 502.727 378.049C503.068 377.851 503.723 377.14 503.988 377.773C502.456 379.86 499.671 381.724 497.481 382.813C494.118 384.48 492.033 384.113 488.876 385.005C487.621 385.36 486.018 386.716 484.949 386.962C484.275 387.118 480.593 387.397 480.047 387.217C478.827 386.816 478.748 386.358 478.836 384.897L478.825 384.904ZM406.395 143.823V128.486C406.395 128.144 406.892 127.032 407.519 127.408C407.618 127.544 407.233 128.652 407.295 129.125C408.799 140.49 407.887 154.689 407.913 166.523C407.995 202.629 408.517 239.577 407.922 275.45C407.842 280.291 408.305 285.801 407.907 290.087C407.753 291.74 407.832 293.995 407.879 295.704C408.57 321.026 409.989 346.35 410.161 371.744C410.326 395.936 410.535 420.502 410.507 444.722C410.499 451.423 410.542 458.131 410.523 464.828C410.822 465.214 413.111 462.508 413.513 462.028C416.381 458.6 418.848 454.536 421.589 451C435.795 432.666 450.285 414.883 465.138 397.442C469.203 392.67 473.684 387.976 477.31 382.944C477.672 382.443 478.647 382.199 478.765 381.625C478.695 380.914 478.434 380.253 478.433 379.52C478.423 357.75 475.961 335.992 475.792 314.262C475.779 312.675 476.777 308.011 476.096 306.792C475.983 306.589 475.411 306.877 475.443 306.483C475.259 305.488 476.09 306.049 476.203 305.559C476.316 305.068 476.293 302.792 476.227 302.148C476.124 301.137 475.148 301.53 475.041 300.439C474.968 299.687 475.398 298.94 475.373 298.277C475.304 296.438 474.801 294.408 475.075 292.448L475.45 295.9C476.079 295.674 475.916 293.179 475.854 292.628C475.828 292.397 475.837 292.295 475.719 292.103C475.636 291.967 475.272 292.012 475.084 291.999L475.066 291.368C476.027 291.31 476.274 289.102 475.449 288.56L475.073 290.716V285.963L475.816 286.4C475.646 284.417 476.051 282.025 475.846 280.109C475.779 279.483 474.593 278.846 474.655 276.662C474.692 275.335 475.389 274.758 475.419 274.095C475.454 273.341 474.717 271.939 474.666 270.632C474.521 266.796 475.041 261.894 474.925 257.738C474.347 237.114 472.637 216.448 472.05 195.902C470.999 159.197 468.6 122.707 467.921 86.1625C467.681 73.2379 467.519 60.5855 468.315 47.6976C468.518 44.4119 469.475 41.232 469.811 37.9744L442.593 62.5858C432.652 70.4533 423.478 79.6278 413.862 87.8388C411.452 89.8975 408.825 91.6646 406.164 93.261C405.88 93.7211 406.451 94.8487 406.404 95.6286C406.04 101.541 406.109 107.382 405.993 113.379L406.35 115.909C405.856 124.66 405.695 133.519 406.012 142.315C406.03 142.847 405.726 143.92 406.387 143.823H406.395ZM437.982 64.2406L438.475 64.3226C441.166 62.1127 443.415 59.339 445.995 56.9909C451.965 51.5601 459.005 46.207 464.569 40.3528C465.451 39.4261 467.15 37.5575 467.407 36.2592C467.679 34.8832 466.328 35.8877 465.874 35.8401C422.243 31.2929 378.567 24.4082 334.891 19.3987C289.835 17.4437 244.991 15.2748 200.164 9.88507C192.338 8.94322 184.532 7.52611 176.759 6.54753C173.914 6.18894 170.727 6.44384 167.89 5.56247L167.503 6.86509C160.081 3.82998 152.294 3.48866 144.603 2.18821C142.565 2.27246 135.385 8.31675 132.977 9.88507C128.039 13.1038 122.084 16.6941 116.985 19.5585C112.245 22.2199 107.301 24.5271 102.394 26.7456C102.961 28.1821 104.7 27.4001 105.871 27.7047C136.683 35.73 169.421 37.6958 200.865 42.3467C208.044 43.4095 215.237 44.9692 222.405 46.0666C248.707 50.0933 275.018 50.3914 301.512 52.6834C330.896 55.226 360.222 60.3133 389.696 62.1624C403.688 63.0395 417.734 63.0416 431.685 63.4197C433.371 63.465 436.891 62.0242 437.98 64.2406H437.982ZM433.585 68.4141C434.667 67.4679 435.94 66.4137 436.794 65.1954C426.247 64.6164 415.941 65.2515 405.441 64.7763C367.246 63.0503 329.363 56.6474 291.361 53.528C272.021 51.9403 252.038 51.8042 232.82 49.1989C227.909 48.5336 222.996 46.948 218.135 46.2286C184.712 41.2947 150.614 38.6959 117.496 32.0381C111.494 30.8306 105.549 29.7785 99.5581 28.5105C87.9581 35.7667 75.5417 41.353 64.1068 48.9764C62.2282 50.2294 60.4566 51.586 58.8689 53.3055C59.7172 54.269 60.9333 53.9061 62.0725 54.3619C62.9545 54.714 64.6248 55.591 65.3661 56.1873C66.6029 57.181 67.9297 60.0238 68.885 60.3457C70.1161 60.7604 72.1805 60.2982 73.6406 60.4883C77.0975 60.9397 80.0177 61.752 83.8162 62.1667C97.4618 63.6638 111.111 63.2166 124.731 64.7504C135.721 65.9882 146.733 66.647 157.75 67.7833C159.97 68.0123 162.269 68.8094 164.504 69.0751L168.441 65.4006C161.741 60.5379 165.893 56.3773 170.949 53.1565C171.772 52.6315 172.795 52.6898 173.49 52.1779C173.889 51.8819 173.989 51.1475 174.16 51.0308C175.256 50.2812 192.593 51.2641 194.806 51.91C197.29 52.6358 203.129 57.4056 203.643 60.3198C204.026 62.4908 203.309 64.8497 201.86 66.2668C203.506 68.7187 206.83 69.693 206.355 73.3956C209.891 73.819 213.511 73.5684 217.047 73.8319C243.902 75.8388 270.897 76.6035 297.734 79.4507C327.873 82.65 357.722 90.0422 387.815 92.4034C391.923 92.7252 400.128 93.626 403.867 92.7403C404.428 92.6064 408.457 89.9515 409.217 89.3963C413.245 86.4606 416.681 82.2352 420.47 79.0208C424.753 75.3873 429.321 72.1362 433.581 68.4119L433.585 68.4141ZM406.019 473.036C406.434 473.414 407.744 472.105 407.517 471.313C406.695 471.57 406.243 472.09 406.019 473.036ZM200.539 79.8806C197.369 80.0879 194.139 79.7272 190.969 79.8806V78.1524H199.039C199.278 78.1524 203.356 76.6294 203.566 76.4501C204.294 75.8237 204.942 73.5403 204.703 72.5336C204.155 70.2114 201.61 69.5806 200.723 67.5435C200.132 67.1028 190.682 71.1878 189.102 67.9993C189.08 66.984 193.3 67.429 194.122 67.3059C197.388 66.8177 198.043 66.3295 200.355 64.1736C200.636 63.9122 201.481 64.3529 201.779 63.1626C202.755 59.8099 198.69 56.1289 196.433 54.7982C191.82 52.0785 176.562 52.3399 171.712 54.9019C170.115 55.7444 165.803 58.9394 166.758 61.294C167.323 62.6874 173.373 66.1416 174.835 66.6989C175.674 67.0186 179.146 67.1072 178.958 68.4227L174.666 68.6215L170.192 66.5325C169.511 67.5219 168.111 68.211 167.488 69.0492C166.992 69.7167 166.878 70.8206 166.409 71.2958C165.94 71.7711 164.697 70.4426 164.707 72.8015C164.71 73.5576 164.814 73.7563 165.228 74.305C165.352 74.4692 168.027 76.5517 168.357 76.7504C170.675 78.1481 173.751 78.9733 176.337 79.4507V80.7425L170.708 79.8806C170.827 81.559 171.365 83.1446 171.468 84.8339C173.058 110.86 170.571 146.405 166.028 171.921C158.75 212.786 143.434 250.274 138.483 291.427C133.96 329.027 136.948 368.149 138.425 405.86C139.125 423.755 138.821 441.674 139.925 459.436C140.527 469.129 139.748 483.425 145.174 490.981C162.881 515.642 200.107 516.526 223.81 504.578C227.926 502.504 235.322 495.604 237.824 491.331C241.221 485.527 245.188 476.94 246.106 470.191C247.92 456.859 247.301 442.996 247.25 429.597C247.162 406.366 248.191 383.424 246.023 360.191L243.137 330.466C242.928 330.181 240.352 332.218 239.839 332.499C229.313 338.275 217.073 343.536 205.418 345.151C183.797 348.148 161.377 347.569 141.799 335.873C140.884 335.327 136.957 333.115 138.055 331.762C138.526 331.183 143.201 334.897 144.1 335.385C161.516 344.855 179.217 345.925 198.285 344.285C211.281 343.166 220.622 339.742 232.37 333.838C235.876 332.076 239.644 331.486 242.395 328.001C242.399 326.757 242.448 325.498 242.343 324.253C241.031 308.583 236.088 291.334 234.397 275.508C229.101 244.574 218.336 215.627 210.454 185.628C202.207 154.244 203.148 118.255 202.613 85.2984C202.585 83.5961 201.945 81.2329 201.853 79.4485C201.338 79.2044 200.773 79.8654 200.541 79.8806H200.539ZM137.672 433.291C136.92 428.117 137.451 422.777 137.295 417.527C135.52 357.564 129.811 306.164 145.823 247.172C158.121 201.866 169.791 161.219 169.948 112.936C169.976 104.578 170.457 94.4102 169.967 86.1279C169.858 84.2852 168.798 82.0732 168.783 81.8399C168.719 80.8505 169.061 79.9605 169.203 79.0229C167.017 78.565 163.237 76.2514 162.882 73.5036C162.762 72.5725 163.179 72.026 163.181 71.4103C163.185 70.1747 159.221 69.7405 158.082 69.5633C152.651 68.7208 147.077 69.1853 141.623 68.6366C133.622 67.833 125.639 65.6382 117.593 65.1911C105.209 64.5041 92.0024 65.608 79.693 63.8884C78.1616 63.6746 70.088 61.3394 69.3692 62.1646C70.2531 65.7829 69.4105 67.4226 67.4925 70.1423C69.4105 71.8791 72.0341 73.3329 72.0116 76.6424C72.0003 78.3144 70.8255 79.1202 70.5872 80.1959C70.0354 82.6932 70.8593 85.3891 70.8893 87.8474C71.1408 108.391 70.0185 129.101 72.8505 149.53C76.5833 176.453 84.9685 203.586 93.3537 227.972C94.3202 230.781 95.2454 233.639 95.2679 236.706L96.3883 236.272C96.7224 241.644 100.622 246.557 100.142 251.825L101.272 251.83C100.393 253.495 102.178 253.061 102.052 255.029L101.273 255.71C102.613 255.511 101.816 257.349 102.026 258.449C102.086 258.764 102.696 258.706 102.764 259.036C103.439 262.417 103.918 266.442 104.715 269.263C105.048 270.44 105.794 276.417 105.744 277.565C105.708 278.385 104.867 278.606 105.027 279.478L106.151 279.703C105.209 286.495 107.268 293.317 107.979 300.055C109.717 316.483 108.994 334.767 109.51 351.433C110.201 373.709 111.291 396.107 111.443 418.333C111.485 424.356 110.985 466.139 112.267 468.154C114.521 471.704 114.803 473.475 116.39 477.445C118.209 481.995 119.951 486.836 122.092 491.189C123.171 493.384 124.124 495.833 126.037 497.229C124.592 488.458 121.15 480.163 118.802 471.647C118.066 468.977 113.619 452.707 114.784 451.432L116.272 451.441C117.284 458.738 119.318 467.515 122.355 474.039C122.572 474.508 124.612 478.616 125.288 477.787C122.689 464.329 116.976 451.778 115.934 437.883L116.839 437.181C121.655 442.837 122.357 452.136 128.289 457.053L123.832 438.294C124.425 437.157 124.963 437.548 125.69 438.233C127.23 439.683 129.265 446.552 130.92 449.06C131.669 450.192 134.655 453.547 135.927 453.13C136.209 452.754 137.682 450.138 137.701 449.95C137.915 447.896 137.986 443.444 137.973 441.286C137.963 439.618 137.353 437.559 137.697 435.716C132.476 432.524 127.101 431.102 121.536 429.186C120.106 428.694 118.798 427.933 117.415 427.449C116.287 427.056 111.637 426.793 112.155 424.872L113.742 424.302L137.669 433.291H137.672ZM110.278 484.058C110.336 477.508 110.235 470.945 110.278 464.4C108.148 465.467 106.187 466.8 103.997 467.753C93.9054 472.151 79.2163 473.909 68.4327 475.635C63.1178 476.484 57.7635 477.255 52.4806 478.23L53.2294 479.949C52.5181 480.556 51.1725 477.981 49.6692 478.225L49.2845 479.089L50.9754 480.383C49.1719 480.589 47.3815 480.23 45.6005 480.113C41.6725 479.856 37.4931 479.303 33.5313 478.651C28.5711 477.836 25.6322 476.629 21.053 474.87C15.8357 472.866 10.7029 470.615 5.54 468.468L5.90784 466.305C7.13333 464.465 10.731 468.643 12.223 469.481C31.4538 480.282 52.154 476.949 72.5146 473.421C81.2545 471.907 93.2561 469.684 101.555 466.672C104.381 465.646 110.28 463.581 110.278 459.434C110.261 429.653 109.925 399.716 108.384 370.015C108.101 364.567 107.9 360.601 107.29 355.289C106.853 351.483 107.96 349.964 107.951 347.093C107.941 344.222 107.774 336.348 107.266 333.784C107.238 333.644 105.89 332.935 106.521 331.33C101.315 332.963 96.4484 336.443 91.2161 338.12C87.3012 339.375 82.525 340.2 78.46 341.148C59.2443 345.629 38.3338 348.981 19.21 342.626C14.5858 341.09 10.7122 337.137 5.93974 336.945C5.31479 361.824 2.95763 386.582 2.9201 411.494C5.2416 436.481 2.06619 467.657 8.37009 491.629C12.9568 509.071 32.5967 517.876 47.0399 518.833C66.0793 520.095 85.2275 515.835 99.7721 500.914C102.165 498.46 110.426 488.508 110.588 485.237C110.62 484.585 110.274 484.183 110.276 484.058H110.278ZM56.234 81.1767H64.6792C65.7828 81.1767 69.8477 78.4915 70.3207 77.271C71.1089 75.2404 67.1321 71.4427 65.7865 71.2267C64.242 70.9783 62.4929 72.5704 60.9296 72.5747C60.0531 72.5768 57.8273 72.1837 56.8852 71.9828C54.7814 71.5378 56.0538 70.3842 57.5608 70.3518C59.7041 70.3065 60.1639 71.082 62.6937 70.246C65.3023 69.384 68.748 67.0704 67.7026 63.4326C67.5469 62.8883 65.3511 58.6477 64.9608 58.2675C64.7468 58.0602 62.7669 56.8353 62.6149 56.9844C70.6228 65.4395 57.5852 68.3104 51.925 67.7747C49.8194 67.5759 39.8915 64.0569 38.9531 62.2942C36.9544 58.5441 42.7723 57.0989 44.8836 56.6582C46.8448 56.2477 50.7333 55.7055 52.6157 55.833C53.5972 55.8999 57.9343 57.4812 58.4429 56.926L58.8614 55.2562C50.9529 53.4567 42.2768 53.8931 35.9598 60.2096C31.3806 64.7893 36.6804 69.9673 41.0382 70.3669C41.742 70.4317 42.5752 70.4685 43.2677 70.3475C43.9077 70.2352 46.1785 68.6085 46.475 70.1639C46.8485 72.1232 40.7398 72.2701 39.6194 72.0044C38.7505 71.797 37.2322 70.3021 36.5866 70.4425C35.941 70.583 32.4071 74.7306 32.2701 75.882C32.0356 77.8607 36.9394 80.0058 38.4502 80.2651C39.9609 80.5243 42.7835 79.5738 43.1007 82.0408H36.3445C35.7383 93.6044 36.7217 105.2 36.3408 116.816C35.6839 136.843 33.1278 161.457 29.4138 180.994C24.2171 208.336 12.3957 232.016 7.6119 259.587C3.85095 281.269 4.90942 308.628 5.60381 330.73C5.64509 332.058 6.1687 333.391 5.96038 334.769C8.04167 334.94 10.0516 335.789 11.9434 336.737C17.9977 339.775 23.2919 342.82 30.1945 343.81C46.7659 346.186 73.3816 341.818 89.6471 336.739C93.1585 335.644 96.2382 333.369 99.7833 332.423L100.147 330.458L101.29 330.719L101.653 329.168L102.773 330.036L103.145 328.74C103.308 330.872 104.963 329.764 105.582 328.729C107.041 326.286 105.564 318.803 105.427 315.576C104.509 293.948 104.015 274.83 98.3701 253.666C88.5737 216.938 75.7031 184.215 70.5365 145.726C68.1906 128.261 68.2976 111.117 69.3879 93.5094L68.9957 81.6109C64.8163 82.8811 60.5148 83.3952 56.2359 82.4707V81.1767H56.234ZM40.4864 60.0303C39.6945 61.3955 43.4704 63.087 44.3468 63.5385C50.1403 66.5131 57.7673 67.6688 63.1347 62.9855C64.7975 61.5338 62.7049 59.3541 61.6727 58.2805L61.4663 59.5356C56.6525 59.0927 52.8353 57.3559 47.7944 57.8528C46.7659 57.9543 40.8317 59.4341 40.4846 60.0303H40.4864ZM59.2368 57.8441H60.7344V57.4207L59.2386 56.9844V57.8441H59.2368Z" fill="#3F2C22"/>
<path d="M512.899 385.69C512.839 385.811 511.268 386.773 510.862 387.218C510.495 387.624 510.269 388.308 509.813 388.814C501.862 397.647 494.114 402.406 487.529 413.283C481.993 422.427 478.868 433.209 476.914 444.049L475.411 443.839C474.259 439.998 475.738 436.248 476.164 432.602C476.956 425.812 478.378 417.325 478.566 410.727C478.571 410.528 478.922 409.479 478.266 409.539C477.34 409.628 471.635 420.943 470.884 422.637C466.752 431.969 463.623 441.474 460.992 451.428C460.634 452.785 460.028 455.319 458.564 454.895C458.132 449.762 458.772 444.612 459.281 439.484C459.408 438.201 459.314 435.931 459.457 434.786C459.526 434.237 460.36 433.876 460.356 433.52C460.356 433.362 459.125 431.792 460.067 430.705C461.075 429.541 460.11 432.442 461.185 431.565L461.159 428.564L460.063 428.327L461.968 426.957L463.254 419.47C462.347 420.58 461.321 421.574 460.448 422.719C457.419 426.696 453.793 432.23 451.066 436.546C445.956 444.636 441.131 455.602 435.656 462.875C435.011 463.733 432.99 466.491 431.948 465.653C430.377 460.231 430.43 454.444 429.664 448.849C432.271 448.646 431.421 452.48 431.918 454.461C432.556 454.288 432.708 452.206 432.689 451.661C432.656 450.685 432.273 450.089 431.914 449.283C436.82 449.216 432.798 456.697 433.234 460.086L432.669 460.512C432.612 459.555 432.305 458.669 432.256 457.701C432.203 456.662 433.305 454.997 431.916 455.329L432.002 459.33L433.222 463.1C435.092 461.181 436.6 458.902 438.074 456.587C445.231 445.334 451.201 433.172 458.935 422.276C459.77 421.101 463.809 415.586 464.751 415.562C465.237 415.549 465.468 415.832 465.658 416.294C465.074 420.913 463.535 425.397 462.544 429.936C461.471 434.853 459.861 441.346 460.063 446.909C460.082 447.434 459.776 448.514 460.433 448.412C460.47 447.749 460.574 447.069 460.793 446.451C464.083 437.201 467.641 426.851 471.875 418.163C472.789 416.29 477.911 406.945 479.388 406.921L480.264 407.655C480.39 408.487 480.381 409.338 480.322 410.176C479.842 417.08 477.96 425.639 476.993 432.697C476.865 433.634 476.759 434.837 476.682 435.799C476.644 436.274 476.235 437.268 476.944 437.179C478.99 430.683 480.934 423.306 483.879 417.294C485.983 413 493.381 402.171 496.652 399.164C498.018 397.906 501.621 396.105 502.502 394.642C503.222 393.448 501.895 393.199 502.096 391.821L502.845 393.111C503.136 393.13 503.427 393.16 503.712 393.033C504.722 392.579 512.626 383.919 512.976 384.474C512.955 384.874 513.082 385.319 512.897 385.692L512.899 385.69Z" fill="#3F2C22"/>
<path d="M459.69 471.747L461.563 472.611C461.555 474.86 459.059 472.89 457.809 473.037L458.188 472.179H456.31L457.434 473.901C455.94 473.847 454.641 473.46 453.106 473.445C452.025 473.436 451.01 473.989 450.104 473.951C449.422 473.922 449.61 473.132 449.3 473.048C448.452 472.819 446.547 472.659 446.373 473.905C443.751 471.922 440.146 473.966 437.299 474.305C434.054 474.694 430.629 474.67 427.277 475.26C422.775 476.052 416.422 478.751 412.166 477.861C411.458 477.714 411.109 478.1 411.276 476.929C414.318 477.068 417.404 476.767 420.363 475.938C420.74 475.832 421.495 475.813 421.405 475.203C419.746 475.679 418.012 475.441 416.341 475.633C414.444 475.852 411.137 476.938 409.546 476.904C408.453 476.88 408.343 475.206 409.003 474.529C415.394 473.845 421.923 473.983 428.345 473.467C444.006 472.205 461.15 469.217 476.779 469.565C481.368 469.667 485.579 470.531 490.228 469.961C491.983 469.745 493.987 469.187 495.715 468.716L496.085 469.801L495.717 470.228C490.213 472.987 484.068 471.021 478.283 470.859C472.048 470.686 465.9 471.417 459.69 471.747Z" fill="#3F2C22"/>
<path d="M274.921 179.121C283.332 165.931 294.805 151.103 305.406 139.678C305.87 139.179 306.638 139.2 306.838 138.963C307.163 138.583 306.975 137.485 307.411 137.016C307.623 136.787 308.362 136.803 308.839 136.301C309.59 135.511 310.113 134.016 310.821 133.173C315.443 127.676 320.567 122.582 324.138 115.883C324.489 115.226 325.249 113.863 324.767 113.15C320.811 114.989 316.869 117.104 313.339 119.871C312.433 120.581 308.443 125.04 307.687 124.377L307.48 123.07C312.981 118.086 319.512 114.647 325.902 111.409L326.794 112.126C327.197 113.654 324.008 118.843 323.066 120.266C319.85 125.118 315.665 129.132 311.979 133.43C301.036 146.195 289.818 158.675 279.984 172.615C279.708 173.006 278.511 174.578 278.789 174.928C281.976 172.284 285.204 170.068 288.649 167.923C306.478 156.821 325.94 146.66 345.122 138.315C349.072 136.597 353.929 134.403 357.962 133.223C360.618 132.448 363.074 131.65 365.48 133.459C364.85 134.865 362.847 133.476 361.631 133.556C358.797 133.744 353.021 136.021 350.108 137.142C335.46 142.773 318.645 151.76 304.727 159.643C298.371 163.242 290.182 167.709 284.301 171.988C280.174 174.991 277.19 178.821 273.906 182.921C271.678 183.474 272.421 181.666 273.512 180.303C273.932 179.778 274.713 179.437 274.917 179.117L274.921 179.121Z" fill="#3F2C22"/>
<path d="M372.174 234.643C372.358 234.944 373.025 239.664 373.025 240.385C373.025 242.299 372.319 244.092 372.227 245.987C371.591 259.25 371.679 274.698 372.621 287.908C372.709 289.137 373.653 293.924 373.002 294.402C371.972 295.158 370.38 295.069 369.896 293.63C368.808 290.397 370.268 282.639 370.378 278.857C370.561 272.547 369.784 265.971 369.973 259.81C370.204 252.318 371.262 244.429 371.11 236.935C371.093 236.143 370.183 234.166 371.488 234.339C371.634 234.358 372.109 234.542 372.173 234.646L372.174 234.643ZM371.863 292.876L370.743 288.128C370.662 289.375 370.844 290.628 371.105 291.827C371.262 292.55 370.729 293.088 371.861 292.876H371.863Z" fill="#3F2C22"/>
<path d="M255.518 475.203C254.81 475.117 255.213 476.108 255.253 476.586C255.655 481.515 257.178 493.014 253.404 496.311C248.641 500.469 246.654 493.725 244.593 489.927L243.139 490.323C243.171 489.696 243.041 488.99 243.139 488.383C243.602 485.497 245.89 489.605 246.442 490.623C246.962 491.582 247.123 492.701 247.637 493.567C249.79 497.192 252.888 496.356 254.202 492.479C255.06 489.947 254.609 481.837 254.391 478.878C254.001 473.57 252.879 468.342 252.143 463.104L253.083 462.678C253.74 462.7 255.897 474.337 256.46 476.065C257.497 479.26 259.885 484.17 261.737 486.84C262.09 487.35 262.353 487.886 263.028 487.726C262.221 484.741 261.292 481.747 260.506 478.752C260.157 477.422 259.791 476.063 259.461 474.771C257.899 468.664 256.822 462.041 256.651 455.761L259.384 471.401L264.873 490.912L263.769 491.411C260.206 486.659 256.756 481.433 255.516 475.203H255.518Z" fill="#3F2C22"/>
<path d="M472.072 471.745V473.469C471.248 473.197 470.192 473.827 469.55 473.788C468.978 473.754 468.642 473.125 468.105 473.034C466.895 472.829 464.834 474.443 463.068 473.034C463.622 471.479 465.104 472.486 466.093 472.352C466.3 472.324 466.54 471.743 466.632 471.743H472.074L472.072 471.745Z" fill="#3F2C22"/>
<path d="M457.055 477.794C456.006 476.72 455.191 476.143 455.563 474.337C457.355 474.875 458.125 475.823 457.055 477.794Z" fill="#3F2C22"/>
<path d="M457.807 448.846C456.062 447.691 456.933 446.15 457.441 444.53L457.807 448.846Z" fill="#3F2C22"/>
<path d="M255.893 449.708C255.334 449.816 255.428 448.898 255.332 448.421C255.054 447.028 254.889 445.52 254.774 444.096C255.319 443.995 255.294 444.859 255.405 445.304C255.75 446.697 255.945 448.255 255.893 449.708Z" fill="#3F2C22"/>
<path d="M1.06028 405.644C1.293 405.931 0.885749 407.357 0.499144 407.362C-0.619382 407.375 0.394047 404.821 1.06028 405.644Z" fill="#3F2C22"/>
<path d="M457.387 460.032L456.314 460.512C456.162 459.689 456.796 459.347 457.25 458.786L457.387 460.032Z" fill="#3F2C22"/>
<path d="M272.406 396.569C271.661 396.338 271.564 395.647 271.663 394.841C272.408 395.072 272.506 395.763 272.406 396.569Z" fill="#3F2C22"/>
<path d="M245.275 462.981C245.13 463.177 241.955 465.515 241.517 465.776C236.493 468.783 229.3 471.177 223.707 472.492C208.915 475.968 189.69 478.288 174.625 477.383C166.676 476.906 154.276 474.67 146.951 471.224C145.538 470.559 146.129 468.591 147.178 468.779C147.512 468.839 148.028 469.606 148.56 469.833C160.152 474.791 174.182 476.037 187.049 475.657C199.952 475.275 233.581 471.086 243.484 461.994C244.062 461.464 244.571 461.013 244.648 460.086L245.404 460.332C245.762 461.235 245.881 462.16 245.276 462.983L245.275 462.981Z" fill="#3F2C22"/>
<path d="M166.201 203.875L172.394 198.704C173.432 198.766 172.369 203.737 172.324 204.664C170.718 207.876 161.893 231.511 160.379 231.96C159.634 231.926 159.313 231.336 159.504 230.526C159.679 229.785 162.976 224.715 163.641 223.183C165.105 219.809 170.267 207.439 170.671 204.489C170.776 203.72 170.855 202.402 170.519 201.719C169.096 203.046 166.51 206.673 164.975 207.437C164.207 207.82 163.175 207.986 163.19 206.694C163.196 206.273 165.923 200.373 166.377 199.112C169.292 191.013 171.677 182.729 174.278 174.509C176.021 168.998 178.365 163.749 179.298 157.91L180.835 157.653L166.202 203.877L166.201 203.875Z" fill="#3F2C22"/>
<path d="M192.448 55.6409L192.471 54.3901C197.891 55.17 200.066 60.0326 194.325 63.2233C188.879 66.2519 179.15 65.0011 173.631 62.4672C170.206 60.8946 170.431 56.4294 173.914 55.278L192.448 55.6387V55.6409ZM195.802 58.123C195.386 56.6973 193.01 57.9091 191.906 57.8875C186.822 57.7903 181.614 56.4618 176.506 56.9673C174.104 57.2049 171.069 58.864 174.451 60.6591C179.28 63.2211 188.582 63.8562 193.473 61.3806C194.856 60.6807 196.315 60.2379 195.8 58.123H195.802Z" fill="#3F2C22"/>
<path d="M223.244 270.842C222.694 270.922 222.343 270.855 221.9 270.449C220.712 269.356 217.42 247.242 216.294 243.204C214.172 235.592 209.196 217.826 205.698 211.767C205.308 211.088 202.264 208.15 203.925 207.768C205.287 207.453 207.121 211.317 207.678 212.512C211.385 220.472 216.555 238.128 218.556 247.082C220.307 254.917 220.761 263.188 223.244 270.844V270.842Z" fill="#3F2C22"/>
<path d="M157.189 326.576C154.449 326.937 152.093 324.673 149.616 323.85C148.527 323.489 143.077 322.869 142.929 322.031L149.884 299.374C150.295 296.065 151.224 293.211 150.436 289.856L151.889 289.908C152.85 297.46 149.518 304.323 147.424 311.232C146.454 314.431 145.583 317.691 144.802 320.955C146.782 321.504 148.863 321.711 150.8 322.482C151.862 322.906 155.468 324.623 156.327 325.193C156.847 325.539 157.331 325.733 157.187 326.576H157.189Z" fill="#3F2C22"/>
<path d="M145.557 357.683C146.758 358.059 149.719 357.743 150.256 358.981C150.673 360.176 150.217 361.662 149.862 362.857C148.736 366.659 145.065 374.211 144.836 377.818C144.785 378.615 145.769 380.391 144.615 380.158L143.367 378.987C144.543 372.651 146.974 366.59 148.869 360.478C148.668 359.256 143.95 359.778 143.468 359.005C142.721 357.808 145.469 355.209 144.853 353.419C146.018 353.35 147.077 352.511 148.169 352.265C148.762 352.131 149.368 352.477 150.065 352.328C150.761 352.179 154.18 350.209 153.812 352.28C153.36 354.836 145.146 352.781 145.557 357.685V357.683Z" fill="#3F2C22"/>
<path d="M175.954 496.801C173.709 496.27 171.521 496.913 169.399 496.801C167.897 496.721 159.961 495.06 159.154 494.114C158.555 493.41 158.915 491.398 158.343 490.94L152.684 490.323C152.476 488.512 152.876 487.923 154.064 486.942C155.162 486.035 158.694 483.727 158.315 486.862L155.314 488.592L160.482 489.551L160.923 492.697C165.356 495.077 170.348 494.44 175.004 495.524C175.663 495.678 176.068 495.933 175.954 496.803V496.801Z" fill="#3F2C22"/>
<path d="M177.459 91.5437L178.983 91.7338C179.364 92.0341 179.304 92.5784 179.353 93.0364C179.861 97.8969 179.576 118.263 178.403 122.662C178.232 123.299 178.178 123.956 177.645 124.373L177.459 91.5437Z" fill="#3F2C22"/>
<path d="M165.821 441.936C166.33 445.282 162.633 446.31 160.929 448.183C160.101 449.093 159.424 450.603 158.701 451.659C158.761 452.986 169.168 453.323 170.513 453.167C171.138 454.098 170.085 454.398 169.408 454.487C167.131 454.787 158.228 454.802 156.776 452.983C156.006 452.018 157.738 449.905 158.33 449.078C159.045 448.075 161.732 445.727 161.909 445.39C162.226 444.781 161.432 443.813 161.847 443.208L165.823 441.938L165.821 441.936Z" fill="#3F2C22"/>
<path d="M222.487 452.733C216.895 451.017 226.359 447.647 227.898 446.289C229.542 444.837 224.948 443.483 224.086 443.342C222.2 443.035 220.263 443.511 218.413 442.748L218.368 441.072C221.358 441.7 228.722 441.245 229.853 445.379C230.764 448.702 222.487 449.14 222.487 452.733Z" fill="#3F2C22"/>
<path d="M234.502 370.644C233.53 370.741 232.976 369.501 232.697 368.614C233.389 364.263 232.88 359.871 232.627 355.527C230.296 355.33 227.387 355.171 228.127 351.641C229.198 351.466 229.067 352.872 229.895 353.274C230.884 353.753 232.588 353.613 233.671 353.896C235.016 354.775 234.504 368.207 234.502 370.646V370.644Z" fill="#3F2C22"/>
<path d="M230.687 482.907C229.662 482.892 225.171 486.525 224.747 486C223.337 484.257 230.473 480.479 230.749 480.82L230.687 482.907Z" fill="#3F2C22"/>
<path d="M213.862 499.396C212.725 497.752 218.287 494.643 219.111 493.779C219.059 494.278 219.481 494.747 219.413 495.224C219.366 495.557 215.309 499.46 214.992 499.616C214.599 499.81 214.254 499.305 213.86 499.393L213.862 499.396Z" fill="#3F2C22"/>
<path d="M196.579 416.862L195.478 416.875C194.26 415.054 198.355 410.567 199.406 410.826C200.014 410.976 199.867 411.453 199.672 411.98C199.002 413.784 196.577 414.68 196.579 416.86V416.862Z" fill="#3F2C22"/>
<path d="M142.18 276.463L143.678 277.107L142.747 277.755L142.182 277.102L142.18 276.463Z" fill="#3F2C22"/>
<path d="M217.989 236.715H216.866V237.575H217.989V236.715Z" fill="#3F2C22"/>
<path d="M449.929 371.511C449.818 373.513 449.038 373.081 449.501 374.479C448.784 374.721 447.471 376.118 447.863 377.125C449.856 374.919 451.275 372.128 453.114 369.778C454.859 367.547 457.47 364.237 459.296 362.204C460.825 360.502 461.726 360.018 463.049 358.329C466.416 354.028 466.315 356.365 463.627 359.411C463.081 360.029 462.18 360.29 461.69 360.856C456.526 366.816 451.982 373.478 447.303 379.942L447.859 380.916L448.801 380.583C448.771 382.577 448.33 382.634 447.285 381.292C446.594 380.406 446.579 383.316 446.38 383.634C446.134 384.029 445.489 383.94 445.102 384.092L444.697 386.902C442.066 387.256 443.055 388.233 442.311 389.529C441.405 391.11 437.599 396.703 436.413 398.073C431.811 403.387 433.542 395.303 432.979 393.398C432.757 392.648 429.687 391.048 428.959 389.384C427.41 385.846 429.325 379.559 430.306 375.92C434.769 359.364 440.551 343.313 445.029 326.766C446.335 321.938 450.682 306.926 450.682 303.029V296.765C449.404 297.009 447.942 298.584 446.966 299.616C437.978 309.108 429.64 324.124 425.899 337.58C425.199 340.097 424.391 346.525 423.31 348.314C422.987 348.85 421.996 349.344 421.583 348.627C421.266 348.042 421.352 346.154 421.397 345.355C421.859 337.217 429.037 322.236 432.11 314.485C438.453 298.478 445.838 283.021 447.677 265.007C447.786 263.947 447.472 258.786 448.619 258.756C449.272 259.276 449.225 259.859 449.193 260.674C448.595 276.359 441.473 293.641 435.938 307.661C432.384 316.667 422.901 335.869 422.52 344.931C422.505 345.279 422.407 346.512 422.906 345.8C423.659 343.071 424.331 340.285 425.147 337.582C429.293 323.878 437.37 307.225 447.106 297.622C456.053 288.8 450.432 309.028 449.533 312.945C448.506 317.412 446.551 321.979 446.549 326.582L445.804 326.146C445.678 327.349 445.372 328.567 445.02 329.702C440.592 343.987 435.339 359.856 431.563 374.781C430.965 377.147 429.325 383.457 429.362 385.561C429.43 389.44 432.213 390.51 434.266 392.784L434.724 397.863C438.717 392.132 442.818 386.083 445.875 379.59C446.619 378.011 447.579 376.023 448.231 374.518C448.814 373.165 448.05 372.044 449.929 371.511C450.115 368.145 451.31 369.143 451.973 367.168C452.262 366.309 452.085 365.404 452.397 364.63C452.99 363.155 454.484 360.975 454.728 359.498C454.91 358.387 454.283 357.532 454.418 356.672C454.465 356.374 455.107 356.426 455.176 356.095C455.364 355.218 454.73 353.315 455.554 352.935C454.773 355.933 457.175 356.469 457.055 358.981L455.935 358.551C455.647 360.413 457.034 362.094 455.366 363.302L454.435 362.44C453.763 363.779 453.928 365.883 453.624 366.924C453.442 367.544 452.463 367.393 452.583 368.694L451.596 368.897C451.322 369.469 451.939 369.983 451.466 370.875C450.723 372.277 450.07 371.474 449.925 371.515L449.929 371.511Z" fill="#3F2C22"/>
<path d="M445.641 210.617C445.016 212.149 443.987 213.825 443.272 215.439C441.981 218.347 441.073 221.663 439.233 224.181C438.944 224.244 439.006 223.784 439.044 223.533C439.506 220.36 443.852 212.639 445.239 209.06C446.198 206.584 450.37 194.943 449.178 193.076C445.841 194.016 443.616 197.332 441.166 199.862C440.53 200.518 440.939 199.553 440.288 200.84C439.205 202.981 437.715 204.037 436.432 205.835C432.648 211.134 429.075 217.31 426.018 223.013C425.535 223.911 426.278 225.683 423.655 224.827C424.293 222.324 424.944 219.718 425.73 217.279C431.12 200.585 441.559 176.123 443.507 159.111C443.597 158.316 444.013 153.212 443.908 152.719C443.867 152.529 443.4 151.838 443.175 152.244C441.737 153.953 439.902 155.434 439.781 158.072L438.712 157.489C439.078 155.534 442.732 149.429 444.627 150.794C446.292 151.993 443.679 165.192 443.066 167.679C438.787 185.014 430.987 202.339 426.282 219.645C426.637 220.051 427.406 218.809 427.575 218.541C432.883 210.2 439.098 198.319 446.951 192.888C448.446 191.854 450.122 190.564 450.824 193.163C451.588 195.993 446.93 207.466 445.642 210.617H445.641Z" fill="#3F2C22"/>
<path d="M425.16 152.896C424.308 154.428 421.654 160.258 420.924 160.973C419.804 162.069 418.349 161.379 418.411 159.645C420.491 152.803 422.296 145.886 424.68 139.179C425.494 136.889 425.374 136.483 425.93 134.197C425.99 133.947 427.281 133.372 426.665 131.728L427.786 132.588C428.259 129.101 430.991 125.654 430.421 122.223L431.539 122.66C431.333 121.255 432.691 120.826 432.935 120.372C433.239 119.804 433.444 117.987 433.906 116.948C437.511 108.839 441.611 101.202 444.839 93.2439C447.379 86.9814 449.051 79.5545 451.057 72.9724C449.736 73.4606 448.585 74.1842 447.399 74.9986C437.272 81.961 426.254 95.0455 418.993 105.834C418.344 106.797 417.094 109.724 416.538 110.351C416.294 110.627 415.863 110.791 415.778 110.336C416.195 109.644 415.743 108.556 415.97 107.983C416.287 107.186 421.433 100.04 422.337 98.8669C428.36 91.0621 438.153 80.5159 445.453 74.9403C446.68 74.0028 449.816 71.6157 451.048 71.4256C451.517 71.3522 451.901 71.43 452.337 71.6287C453.114 72.2876 451.742 76.1004 451.444 77.0811C446.981 91.7706 440.799 103.107 434.78 116.659C432.511 121.767 428.041 131.413 427.42 136.701C427.183 138.717 427.354 141.285 427.037 143.396L424.04 143.387L423.266 146.621L424.036 147.71L422.917 147.273L420.097 159.373C421.709 158.31 421.793 156.627 422.52 155.249C423.918 152.598 426.121 149.734 425.166 146.418L427.416 147.09C428.227 146.714 431.655 140.054 432.292 140.797L428.23 147.135C427.078 148.965 426.219 151 425.164 152.894H426.288V155.052H425.545L425.164 152.894L425.16 152.896ZM425.154 142.525L425.907 139.937C425.303 140.004 424.192 142.279 425.154 142.525Z" fill="#3F2C22"/>
<path d="M439.04 273.866C438.352 273.964 438.721 272.948 438.772 272.479C438.856 271.708 439.052 270.747 439.241 269.991C441.67 260.354 446.6 250.616 448.632 240.623C448.752 240.033 449.049 238.899 448.615 238.443C448.122 239.195 447.337 239.562 446.776 240.214C442.379 245.328 437.349 252.597 433.221 258.308C430.231 262.445 428.302 266.223 425.684 270.369C425.286 271 421.292 277.66 420.699 274.482C420.628 274.095 421.741 269.11 421.962 268.245C425.331 255.068 430.238 243.511 435.818 231.485C436.589 229.824 436.574 227.186 438.108 225.912L436.738 230.383C431.712 240.752 428.093 251.953 424.659 263.139C423.638 266.463 421.987 269.548 421.774 273.212C423.355 273.605 424.102 270.49 424.845 269.382C431.383 259.605 438.603 248.987 445.982 239.728C447.213 238.184 448.732 235.821 450.678 236.281C451.956 237.633 439.669 269.33 439.04 273.862V273.866Z" fill="#3F2C22"/>
<path d="M447.803 133.59C447.356 134.387 447.636 136.712 446.556 135.837C447.103 135.146 447.033 134.126 447.332 133.359C447.923 131.843 448.086 131.283 448.611 129.561C449.154 127.786 450.513 126.412 449.925 123.949C445.918 125.213 443.304 129.086 439.98 131.724L439.798 130.87C440.909 130.845 441.071 129.63 441.709 128.961C443.216 127.38 447.236 123.653 449.081 123.193C452.183 122.418 451.56 125.299 450.862 127.835C450.192 130.274 448.797 131.81 447.799 133.59H447.803Z" fill="#3F2C22"/>
<path d="M462.135 320.76C461.552 321.717 461.159 322.517 460.249 323.119C459.189 321.402 460.247 320.888 460.632 319.669C461.127 318.103 462.077 314.139 462.693 313.055C463.137 312.269 464.158 313.053 464.397 313.627C464.963 314.999 462.959 319.412 462.135 320.763V320.76Z" fill="#3F2C22"/>
<path d="M431.911 298.925C431.211 299.016 431.603 298.018 431.648 297.542C431.717 296.797 431.867 295.652 432.019 294.944C433.027 290.28 435.611 280.116 437.377 276.035C437.642 275.424 437.287 274.946 438.293 275.169L431.911 298.925Z" fill="#3F2C22"/>
<path d="M449.079 367.512C448.816 367.816 447.792 367.711 447.486 368.46L447.675 370.212L446.178 369.784C447.069 371.729 445.284 375.727 443.177 374.53L443.173 376.265L442.047 376.259C442.484 375.291 441.777 374.018 442.798 373.427C443.635 372.941 443.852 374.325 444.672 374.101L443.959 371.811C444.888 371.251 445.209 369.374 445.483 368.998C445.577 368.868 447.18 369.277 446.93 366.76L448.051 367.618C447.482 366.283 448.062 365.801 448.433 364.6C449.773 364.192 449.494 367.026 449.077 367.51L449.079 367.512Z" fill="#3F2C22"/>
<path d="M438.175 412.868C438.13 412.98 437.043 413.289 437.543 414.717L436.801 414.281C436.687 416.084 435.709 416.659 434.544 417.968L433.765 417.525C432.821 415.847 437.3 412.237 437.552 410.403L438.297 410.61C438.258 411.367 438.462 412.142 438.175 412.868Z" fill="#3F2C22"/>
<path d="M427.748 194.757C426.376 195.997 423.826 195.278 423.34 193.195C423.051 191.957 425.466 185.44 425.539 183.574C426.189 183.463 425.93 184.582 425.871 185.036C425.58 187.343 423.054 194.249 426.485 194.413C426.996 194.437 427.831 191.914 427.746 194.757H427.748Z" fill="#3F2C22"/>
<path d="M454.429 336.513L453.686 333.925L453.639 336.489L452.53 336.753L452.556 340.835C450.779 340.598 449.741 341.203 449.925 343.425C449.321 343.562 449.477 342.278 449.533 341.894C449.897 339.412 452.748 337.554 451.808 334.353L453.138 334.413C453.281 333.257 455.432 330.306 455.499 329.743C455.563 329.209 454.137 327.563 454.992 326.58L455.623 328.686L456.657 328.755L456.693 329.38C456.715 332.268 454.137 333.823 454.427 336.511L454.429 336.513Z" fill="#3F2C22"/>
<path d="M452.864 160.602C452.684 160.835 451.933 160.483 451.496 161.395C451.059 162.306 451.079 164.358 451.051 165.423C450.531 165.508 450.323 163.715 450.329 163.423C450.359 161.77 451.738 160.157 451.778 159.17C451.832 157.787 450.109 156.376 451.995 155.059C453.161 155.767 453.478 159.805 452.864 160.602Z" fill="#3F2C22"/>
<path d="M449.176 344.726L448.431 344.288C448.782 345.897 447.932 346.575 447.48 347.753C446.939 349.163 447.014 349.148 446.207 350.557C445.855 351.174 446.359 351.429 445.051 351.2C444.905 351.034 446.356 347.219 446.564 346.791C446.772 346.364 447.283 346.301 447.45 345.99C447.927 345.106 447.681 343.311 449.176 343.426V344.722V344.726Z" fill="#3F2C22"/>
<path d="M437.546 99.7524C437.034 99.0677 439.134 94.555 439.618 93.7017C439.907 93.1919 439.528 92.5892 440.547 92.8462C440.722 93.0882 439.02 98.1604 438.755 98.7695C438.489 99.3809 438.239 99.908 437.548 99.7524H437.546Z" fill="#3F2C22"/>
<path d="M448.379 399.112C446.571 399.485 445.785 401.166 444.304 402.186C444.199 401.484 444.582 401.013 444.896 400.492C445.216 399.956 447.711 396.308 448.253 397.418L448.381 399.11L448.379 399.112Z" fill="#3F2C22"/>
<path d="M450.68 362.001C451.958 360.552 451.915 357.571 454.058 358.122C453.56 360.725 453.093 361.749 450.68 362.001Z" fill="#3F2C22"/>
<path d="M423.931 434.045C423.621 434.362 422.249 434.662 421.786 435.453L421.776 433.6L424.783 430.705C424.967 430.947 424.229 433.742 423.931 434.047V434.045Z" fill="#3F2C22"/>
<path d="M459.588 325.623L457.438 328.304L458.192 323.556L458.941 325.28L459.684 324.42L459.588 325.623Z" fill="#3F2C22"/>
<path d="M427.037 426.808L431.162 419.902C431.528 421.483 430.441 421.975 429.953 423.04C429.25 424.576 429.285 426.322 427.039 426.808H427.037Z" fill="#3F2C22"/>
<path d="M438.665 153.76C438.184 153.849 437.695 153.879 437.935 153.136C438.466 151.496 439.907 148.615 440.919 147.282C441.033 149.74 438.83 151.324 438.665 153.762V153.76Z" fill="#3F2C22"/>
<path d="M441.294 408.226C439.145 408.362 440.992 411.622 439.048 411.689L439.38 407.995L441.108 407.368L441.296 408.228L441.294 408.226Z" fill="#3F2C22"/>
<path d="M431.535 169.744C430.826 169.776 431.139 167.858 431.244 167.463C431.387 166.923 432.903 164.25 433.414 163.699L431.537 169.744H431.535Z" fill="#3F2C22"/>
<path d="M448.429 302.381C448.976 301.066 448.33 298.806 449.55 298.063C449.362 299.292 450.085 302.353 448.429 302.381Z" fill="#3F2C22"/>
<path d="M453.68 99.7568C452.669 99.8713 453.078 99.7503 452.935 99.1001C452.549 97.3287 452.614 95.998 454.431 96.7368L453.679 99.7589L453.68 99.7568Z" fill="#3F2C22"/>
<path d="M455.555 321.825C454.337 320.989 454.895 318.492 454.435 317.075C455.591 316.863 455.032 317.421 455.171 318.155C455.392 319.337 455.555 320.611 455.555 321.825Z" fill="#3F2C22"/>
<path d="M443.167 404.771C443.092 404.86 442.413 404.627 442.141 404.856C441.79 405.152 441.835 406.923 440.549 406.938C440.249 405.888 440.786 405.899 440.971 405.588C441.647 404.452 442.55 404.473 442.803 403.488C443.415 403.283 443.208 404.726 443.167 404.774V404.771Z" fill="#3F2C22"/>
<path d="M447.673 305.406L447.307 301.521C448.647 302.243 447.941 304.187 447.673 305.406Z" fill="#3F2C22"/>
<path d="M445.804 307.568C445.939 306.514 445.956 304.641 446.922 304.112C447.003 305.507 447.118 306.965 445.804 307.568Z" fill="#3F2C22"/>
<path d="M436.923 134.899C436.182 135.884 435.645 137.165 434.545 137.775C435.024 135.483 437.148 134.554 438.109 132.592C438.894 133.973 437.355 134.325 436.923 134.899Z" fill="#3F2C22"/>
<path d="M425.528 144.692L424.413 145.549C424.132 143.769 424.828 144.262 426.033 144.238C427.241 145.661 425.847 146.841 425.528 144.692Z" fill="#3F2C22"/>
<path d="M443.544 354.659C442.478 354.162 444.237 351.248 445.048 352.073L443.544 354.659Z" fill="#3F2C22"/>
<path d="M429.291 174.066C429.257 173.04 429.542 171.152 430.409 170.612C430.246 171.677 430.282 173.528 429.291 174.066Z" fill="#3F2C22"/>
<path d="M451.427 111.418C450.16 110.752 451.115 108.707 451.059 107.534L451.427 111.418Z" fill="#3F2C22"/>
<path d="M437.541 102.781H436.796C436.683 101.662 436.805 100.491 437.918 100.623L437.541 102.781Z" fill="#3F2C22"/>
<path d="M452.93 104.937L451.808 104.939L451.809 103.211L452.879 103.701L452.93 104.937Z" fill="#3F2C22"/>
<path d="M445.429 336.092C446.793 336.381 445.676 334.519 446.547 334.357L446.369 336.521L445.429 336.089V336.092Z" fill="#3F2C22"/>
<path d="M425.537 156.787L426.282 156.782L426.661 158.508C425.716 158.621 425.395 157.824 425.537 156.787Z" fill="#3F2C22"/>
<path d="M436.792 105.371L435.668 105.367L436.608 103.645L436.792 105.371Z" fill="#3F2C22"/>
<path d="M466.069 355.955C465.686 355.521 466.801 354.22 467.191 354.663C467.581 355.106 466.459 356.398 466.069 355.955Z" fill="#3F2C22"/>
<path d="M447.3 174.496L446.553 174.494L446.93 172.34H447.298L447.3 174.496Z" fill="#3F2C22"/>
<path d="M442.052 314.481C441.951 313.675 442.049 312.984 442.796 312.752C442.897 313.558 442.799 314.249 442.052 314.481Z" fill="#3F2C22"/>
<path d="M440.921 91.116H440.174V92.4078H440.921V91.116Z" fill="#3F2C22"/>
<path d="M460.061 110.126H459.314V111.418H460.061V110.126Z" fill="#3F2C22"/>
<path d="M103.146 95.8707C100.954 95.4538 98.4152 95.6179 96.3114 94.8575C95.6508 94.6199 95.0559 94.836 95.2661 93.7083C97.8466 93.5722 101.844 95.4257 104.141 95.4192C105.115 95.417 105.659 94.311 106.701 94.5378L108.773 96.3049L105.763 96.9335C103.717 98.5429 96.4259 101.461 95.5682 103.784C95.3899 104.267 95.0746 104.231 95.6301 104.736C100.904 105.754 106.647 105.164 111.864 106.354C114.996 107.069 117.372 108.988 120.647 109.636C121.471 109.798 123.164 108.813 123.788 110.554C122.293 110.385 121.011 111.696 119.5 111.42C118.346 111.208 114.322 108.329 112.526 107.754C106.744 105.901 100.046 107.199 94.1138 106.052C92.2652 100.334 101.679 100.033 103.145 95.8729L103.146 95.8707Z" fill="#3F2C22"/>
<path d="M69.1104 417.182C73.2636 420.954 76.88 425.356 80.4458 429.832L84.0059 436.315C81.0238 436.656 80.3932 432.597 78.9087 430.305C75.4593 424.985 70.7938 422.306 67.4908 417.962C67.1361 417.495 66.772 416.86 66.772 416.227C66.7814 412.89 75.7296 405.322 78.0079 402.838C79.7157 400.976 82.0804 397.187 83.6155 395.902C84.1298 395.472 84.37 395.083 85.1319 395.275C85.6255 395.841 83.6606 398.446 83.2665 398.956C79.6256 403.687 73.4343 407.858 70.1294 412.779C69.3112 414 68.0144 415.663 69.1104 417.18V417.182Z" fill="#3F2C22"/>
<path d="M36.7143 352.933C36.7067 353.54 36.8006 354.203 36.6448 354.793C36.1325 356.722 27.3588 360.336 25.2644 360.271L14.751 360.264C14.5145 366.209 15.8376 372.189 15.3215 378.203C15.2295 379.266 14.218 384.012 13.2609 384.031C12.1254 384.053 13.7338 379.601 13.8201 378.635C14.37 372.47 12.7429 366 13.06 360.478C13.3641 355.184 14.6534 357.558 16.9524 358.191C23.9469 360.12 31.2474 358.314 36.7143 352.935V352.933Z" fill="#3F2C22"/>
<path d="M19.1407 443.307C19.4617 443.085 20.8823 442.925 20.5708 443.863L16.0291 462.909C16.3163 463.296 16.6053 463.419 17.0276 463.521C21.9352 464.698 32.3754 465.512 37.0447 463.698C37.6884 463.447 38.242 463.29 37.4744 464.193C36.6543 464.916 35.5414 465.67 34.5655 466.029C31.2249 467.256 19.2946 466.161 15.5393 465.229C12.1743 464.396 14.7436 460.877 15.4305 458.258C16.001 456.085 18.3563 443.852 19.1389 443.305L19.1407 443.307Z" fill="#3F2C22"/>
<path d="M27.7078 501.122C25.1836 501.791 24.1514 498.497 22.3742 497.94C21.3626 497.622 20.4111 498.257 19.2964 498.086C15.892 497.561 18.7465 494.891 19.8275 493.351L17.2019 494.209C15.8863 492.502 21.372 488.123 22.271 486.868C23.7273 486.929 21.0774 488.893 21.3288 489.454L23.579 489.463C24.3128 490.752 18.8591 495.756 19.454 496.369L23.4852 496.697L27.7078 501.122Z" fill="#3F2C22"/>
<path d="M81.3746 498.964C81.5529 499.936 80.9711 499.938 80.455 500.277C77.1501 502.437 65.2404 506.22 61.684 505.436C60.4248 505.159 58.9778 503.243 61.5677 503.399C63.1216 503.491 64.4747 503.863 66.1732 503.71C71.428 503.232 76.4125 500.757 81.3746 498.964Z" fill="#3F2C22"/>
<path d="M84.3831 355.091C84.2518 354.039 85.1244 353.76 85.7738 353.455C87.9264 352.449 90.779 352.181 93.1118 351.101C94.5625 350.429 95.3469 349.44 96.3885 348.822C97.4301 348.204 97.95 349.593 96.9684 350.788C94.9359 353.259 87.2508 353.708 84.385 355.091H84.3831Z" fill="#3F2C22"/>
<path d="M58.8596 479.517C59.9237 477.839 62.1251 477.452 63.7353 478.23L60.6256 478.744L58.8596 479.515V479.517Z" fill="#3F2C22"/>
<path d="M53.6086 479.951V479.312C55.4103 477.366 55.8795 480.107 53.6086 479.951Z" fill="#3F2C22"/>
<path d="M87.3859 456.621C87.0012 456.174 88.131 454.889 88.5082 455.329C88.8854 455.77 87.7631 457.062 87.3859 456.621Z" fill="#3F2C22"/>
<path d="M29.5884 286.828C29.8155 287.106 32.6118 285.033 33.248 284.78C36.3671 283.54 44.9381 281.764 45.3678 287.478C45.5124 289.413 44.0129 293.956 43.2791 295.894C41.4192 300.798 36.673 307.179 35.425 311.478C34.3233 315.273 39.8221 318.395 42.4514 319.33C44.2925 319.985 44.8912 319.358 46.4714 318.369L46.4826 319.449C43.6544 322.463 38.2513 319.529 35.6145 317.261C33.1129 315.109 32.8182 314.198 34.0231 311.163C35.8585 306.542 45.7207 291.029 43.2903 286.389C40.8562 284.268 36.6261 285.387 33.8823 286.374C31.8705 287.098 28.8077 290.952 27.3213 287.91C29.2975 280.23 33.4995 273.655 36.5473 266.543C39.4881 259.68 41.8884 252.593 44.0391 245.356C44.3413 244.34 44.1311 240.919 45.9083 241.467C46.2461 241.571 46.629 242.308 46.325 242.774C43.934 251.713 40.875 259.903 37.2886 268.261C36.3615 270.423 28.7983 285.853 29.5884 286.828Z" fill="#3F2C22"/>
<path d="M40.785 93.5765C40.2088 96.2573 40.6217 98.99 40.464 101.692C40.3758 103.213 39.8072 104.944 39.7265 106.458C38.8557 122.685 40.6198 138.338 39.7058 154.391C39.3286 161.01 38.3752 164.596 37.1892 170.934C37.0146 171.865 37.2323 172.911 37.0165 173.76C36.6806 175.095 35.2599 175.563 35.3012 173.55C35.3988 168.88 37.572 163.272 38.2007 158.705C39.7377 147.532 37.6433 135.781 37.4538 124.612C37.3111 116.207 38.3996 107.454 38.9664 99.1002C39.0997 97.1322 38.2101 89.8868 40.785 93.5743V93.5765Z" fill="#3F2C22"/>
<path d="M18.6677 266.046C18.2511 266.679 17.0669 266.312 16.8811 265.355C16.7666 264.763 18.3749 258.859 18.6883 257.654C24.2153 236.484 30.2264 212.665 34.4228 191.087C34.6743 189.797 34.693 184.062 36.1475 184.44C37.0633 184.677 36.384 188.408 36.2376 189.287C34.5091 199.708 31.42 211.233 29.0253 221.598C25.9325 234.98 21.6029 249.253 18.8648 262.61C18.6808 263.508 18.7878 265.863 18.6658 266.049L18.6677 266.046Z" fill="#3F2C22"/>
<path d="M66.8339 192.318C67.1116 191.992 68.4366 191.588 68.6167 191.782C67.9355 194.297 68.0988 197.12 68.2283 199.79C68.3934 203.221 68.8438 208.431 69.4819 211.74C69.8479 213.635 70.6811 217.454 72.7455 216.841C73.1903 217.266 70.9701 220.647 69.298 216.273C67.7459 212.214 66.5017 199.313 66.3534 194.569C66.3328 193.921 66.4454 192.776 66.8339 192.318Z" fill="#3F2C22"/>
<path d="M11.1984 298.929L12.6416 298.99C13.7489 303.74 11.9491 308.881 12.3414 313.809C12.3995 314.541 13.5106 315.902 12.5046 316.204C12.058 316.338 11.2829 316.289 10.9901 315.796C9.76275 313.735 12.4765 302.17 11.1966 298.929H11.1984Z" fill="#3F2C22"/>
<path d="M64.4336 123.381C64.58 125.194 62.7033 124.295 62.3279 121.904C62.0258 119.974 61.992 115.848 61.9432 113.664C61.9319 113.137 61.8832 112.478 62.4312 112.288C64.8052 111.47 63.3902 118.84 63.4577 120.169C63.5159 121.342 64.3811 122.711 64.4355 123.381H64.4336Z" fill="#3F2C22"/>
<path d="M61.1117 77.7204H55.1081L54.7402 76.6403L55.2957 75.9922H61.1117V77.7204Z" fill="#3F2C22"/>
<path d="M422.91 52.2276C422.698 47.8855 429.019 50.0587 430.788 47.0495L399.723 39.8193L375.489 36.1771L374.87 34.5181C376.583 34.6477 378.601 34.7082 380.28 34.9825C389.003 36.4126 397.52 38.5145 406.188 40.3442C414.921 42.1869 423.604 44.1181 432.397 45.8398C433.138 46.0839 433.163 46.8465 432.977 47.6068C432.312 50.3266 424.948 50.9552 422.908 52.2297L422.91 52.2276Z" fill="#3F2C22"/>
<path d="M132.945 24.3391C132.772 24.445 132.763 25.4344 131.86 25.0066C131.196 24.6913 131.252 23.5399 131.292 22.8507C131.947 22.8421 132.62 22.9458 133.268 22.7471C137.841 21.3494 144.879 18.4504 148.903 15.6853C150.832 14.3589 152.332 12.4558 153.998 11.1812C155.066 10.3647 155.222 12.162 154.587 13.1578C153.953 14.1537 150.033 16.7265 148.888 17.3962C143.915 20.3038 137.521 21.5373 132.945 24.337V24.3391Z" fill="#3F2C22"/>
<path d="M384.63 60.0065V58.2805H385.375C385.473 59.0863 385.375 59.7754 384.63 60.0065Z" fill="#3F2C22"/>
<path d="M111.402 53.5303C110.955 54.9452 109.625 53.8435 108.589 53.917C103.13 54.3123 93.3631 55.7078 88.3316 53.513C87.7536 53.2603 87.3801 53.0464 87.0142 52.4459C88.1533 50.8192 89.3638 52.4351 90.5067 52.7375C97.2141 54.5132 104.55 52.9384 111.402 53.5303Z" fill="#3F2C22"/>
</g>
<defs>
<clipPath id="clip0_752_25452">
<rect width="513" height="521" fill="white"/>
</clipPath>
</defs>
</svg>
