<svg width="513" height="521" viewBox="0 0 513 521" fill="none" xmlns="http://www.w3.org/2000/svg">
<g clip-path="url(#clip0_752_25402)">
<path d="M509.712 334.574C508.087 334.495 508.615 336.779 507.415 337.273C506.195 335.504 502.95 329.152 501.048 328.784C500.754 328.726 500.43 328.718 500.146 328.82L499.921 332.641L489.187 316.798C485.709 315.529 488.526 320.229 488.013 321.836L476.88 306.78L475.66 306.065L474.779 306.63L475.722 310.645C470.893 304.608 466.693 298.092 462.802 291.411C459.403 291.343 463.146 295.385 462.662 297.139L454.789 286.508C452.366 285.997 453.003 288.169 453.245 289.809C451.799 289.398 446.591 281.063 447.105 280.55C452.758 281.866 457.555 285.719 462.051 289.263C473.256 298.1 484.51 307.161 495.321 316.424C500.111 320.53 505.708 323.619 510.113 328.19C511.141 329.255 511.565 330.694 511.717 332.249C512.07 331.632 512.477 331.055 513.002 330.561C512.136 329.602 511.317 328.6 510.413 327.674C510.129 327.383 510.084 327.041 510.182 326.744C509.128 325.826 508.035 324.859 507.394 323.966C507.056 323.497 507.058 322.664 507.008 322.613C506.967 322.573 506.395 323.013 505.898 322.806C504.127 322.075 497.731 316.659 495.882 315.087C486.68 307.259 477.162 300.022 467.667 292.495C463.073 288.854 458.888 284.397 453.75 281.393C450.098 279.257 446.318 279.211 444.082 274.513C443.558 273.411 443.852 272.205 442.901 271.481L440.977 271.688C441.812 275.852 438.534 276.388 436.542 278.995L422.319 266.664L422.407 265.876L423.288 265.11L419.818 265.267C419.255 267.007 417.448 268.122 415.961 269.129C409.28 273.664 401.551 278.18 394.597 282.396C380.957 290.666 366.639 297.872 353.87 307.508C351.957 307.807 350.234 303.367 349.183 302.32C346.946 300.091 343.193 297.538 340.702 295.405C340.36 295.111 337.405 291.322 337.247 292.699L337.205 294.777L334.793 295.561L332.039 291.729L332.455 290.571L327.652 289.034L327.639 290.176L324.42 289.431C323.517 291.328 323.031 290.072 321.31 290.153C311.402 290.618 301.256 291.739 291.351 292.507C284.837 293.012 278.413 294.355 271.95 295.2C281.532 286.521 291.78 278.452 300.149 268.545C305.293 259.787 298.504 261.005 292.483 263.158C291.866 263.378 290.689 264.711 290.775 263.374L311.89 240.977C312.416 240.257 314.486 237.496 312.478 237.303C309.71 237.039 298.724 243.63 296.03 245.494C287.773 251.207 282.862 257.734 275.816 264.152C275.299 264.62 272.18 267.491 272.787 265.367C272.998 264.63 277.944 258.352 278.875 257.204C281.447 254.034 284.447 251.174 286.928 247.929C286.99 247.643 286.527 247.666 286.36 247.742C285.609 248.079 280.251 254.47 279.256 255.656C277.756 257.449 271.959 264.29 271.383 265.89C270.219 269.12 273.452 267.314 274.821 266.253C276.267 265.132 277.124 263.517 278.272 262.388C285.35 255.429 293.535 246.856 302.41 242.26C305.212 240.809 308.61 239.763 311.51 238.478C312.022 239.154 310.05 241.531 309.581 242.133C304.517 248.662 296.602 256.249 290.758 262.193C287.424 265.583 285.083 267.127 281.735 270.112C279.204 272.369 277.295 275.163 275.025 277.652L275.977 278.609C277.681 276.587 279.453 274.651 281.351 272.813C285.793 268.504 289.609 264.711 295.774 262.992C297.176 262.6 301.334 261.649 301.083 264.04C300.639 268.246 291.676 276.55 288.474 279.581C282.505 285.234 275.895 290.915 269.38 295.582C266.18 295.723 263.027 296.423 259.85 296.744C255.717 297.162 250.693 296.234 246.994 298.87C248.955 301.241 248.486 299.75 249.431 299.383C253.032 297.988 256.301 298.634 259.852 298.287C268.18 297.471 276.659 296.566 284.754 295.9C286.164 295.785 289.636 294.249 292.127 294.052C300.956 293.352 309.896 292.889 318.627 292.288C321.61 292.084 326.646 291.218 329.373 291.741C331.714 292.19 335.232 300.093 337.637 301.577C337.927 302.368 336.248 301.895 337.053 303.319C337.324 303.8 340.335 305.7 341.294 306.777C342.636 308.284 343.475 310.118 344.555 311.793C343.944 312.395 329.505 312.418 327.468 312.575C320.732 313.094 313.88 314.33 307.1 314.88C293.209 316.007 279.156 316.188 265.239 317.203C262.967 317.369 259.355 318.456 257.225 317.977C256.822 317.886 257.211 316.796 256.209 317.199L255.973 318.376C249.195 319.696 242.246 319.488 235.469 320.287C240.37 310.211 245.287 300.107 250.007 289.94C253.71 281.964 257.117 273.978 260.626 266.262C260.841 265.79 261.951 263.393 262.059 263.266C262.37 262.899 263.3 262.971 263.459 262.741C263.63 262.496 263.434 260.98 263.718 260.105C264.465 257.804 267.21 253.767 268.389 251.294C272.192 243.314 275.9 235.287 279.795 227.251C290.756 204.63 292.73 180.593 294.661 156.134C294.806 154.291 295.258 152.427 295.004 150.494C295.392 150.502 295.755 150.778 296.159 150.65C299.537 149.572 303.161 144.044 305.738 141.509C306.401 140.857 308.41 140.193 309.042 138.925L307.837 136.639C307.684 135.813 305.504 135.147 305.763 134.488C306.113 133.592 311.212 130.569 312.305 129.481C315.531 126.266 314.341 122.452 312.606 118.73L309.22 113.453C313.486 114.288 315.28 115.616 319.002 112.668C324.529 108.288 325.925 103.244 325.635 96.3214C325.618 95.9008 325.178 95.5052 325.013 95.1155L329.972 91.2759C331.973 87.4518 336.552 85.1075 334.854 80.1739C333.78 77.0521 327.953 72.3481 325.584 69.8071C324.109 68.2249 322.839 66.1238 321.5 64.6304C321.207 64.3024 319.34 62.535 319.104 62.4212C318.575 62.1665 318.28 61.9137 317.859 62.5138C317.488 62.8051 317.773 63.2412 317.955 63.5769C318.804 65.1436 322.758 67.7155 323.813 69.6566C321.266 69.8206 317.896 68.6571 315.481 67.6075C312.028 66.1064 308.602 62.973 305.007 61.9234C303.547 61.497 295.056 60.4165 293.65 60.5728C293.116 60.6326 290.462 61.3619 290.03 61.5645C286.817 63.0772 285.997 68.9465 286.344 72.1513L293.078 77.7563C290.554 79.8247 287.243 77.683 284.313 78.3988C282.261 82.3908 280.608 86.5005 282.152 91.0559C287.428 95.1367 291.263 100.838 296.543 104.782C293.852 108.5 287.307 114.269 288.659 119.251C289.392 121.958 290.708 120.829 291.76 121.911C293.541 123.741 294.699 127.58 296.796 129.458C291.614 149.311 293.744 170.583 289.924 190.731C289.465 193.15 289.112 195.618 288.288 197.958C286.423 203.257 285.054 208.966 283.183 214.438C280.8 221.409 277.519 228.283 274.212 235.142C273.552 236.514 272.726 237.554 272.069 238.777C271.698 239.464 271.938 240.749 270.936 241.124C269.344 241.645 260.43 238.502 258.147 237.886C251.144 236.003 245.953 234.483 239.11 231.886C234.491 230.134 229.463 228.592 225.196 226.533C223.471 225.702 222.509 226.246 222.415 226.132C222.321 226.018 222.63 225.244 222.184 224.932C221.721 224.606 220.141 224.345 219.515 223.801L218.777 224.586C217.604 223.687 215.297 223.745 215.493 221.883L215.116 222.653C213.705 223.249 203.215 216.261 201.48 214.935C201.069 214.621 200.893 213.942 200.482 213.623C197.787 211.528 194.436 209.518 192.427 206.861L190.923 207.8C192.961 209.232 194.709 211.03 196.591 212.609C211.917 225.449 236.917 233.759 256.136 239.522C259.361 240.489 263.355 241.079 266.672 241.967L268.314 243.873L269.657 242.725C270.352 244.543 268.479 245.729 268.149 246.497C267.496 248.019 267.175 250.19 266.674 251.475C264.099 258.072 259.551 263.586 256.53 269.859C253.729 275.674 251.794 282.718 249.185 288.721C243.952 300.765 237.418 312.287 231.825 324.147C231.485 324.867 230.373 328.523 230.064 328.749C217.003 324.091 203.528 320.74 191.038 314.566C181.877 310.037 164.873 301.752 157.488 295.405C156.864 294.868 156.495 293.954 156.146 293.666C154.73 292.501 153.657 293.585 154.815 295.003C155.848 296.267 161.69 300.56 163.3 301.529C172.376 306.999 185.3 313.398 195.002 317.915C205.381 322.747 215.318 324.578 225.553 328.514C226.16 328.747 229.256 330.125 229.285 330.503C227.043 334.852 225.088 339.361 222.887 343.729C222.376 344.744 221.838 345.634 221.283 346.739C220.17 348.962 218.647 350.992 218.18 353.473C216.945 352.769 215.914 353.423 214.921 353.396C205.589 353.141 198.102 351.225 189.502 347.75C187.301 346.861 176.482 342.263 175.438 341.146C174.812 340.478 175.144 339.51 174.504 338.788C170.619 334.404 161.636 332.016 157.29 327.244C156.608 326.495 149.641 314.66 149.312 313.649C148.29 310.495 148.298 306.408 147.338 303.284C146.881 301.797 145.164 299.962 145.216 298.521C145.273 296.962 148.162 290.237 148.978 288.381C149.737 286.656 155.9 275.47 155.189 274.752L153.862 275.151L143.86 297.124L139.081 290.733L137.908 290.959C138.837 283.228 135.075 277.019 132.738 270.102C131.055 265.124 129.836 259.974 127.923 255.07C131.991 257.798 135.204 261.472 139.085 264.497C140.652 265.718 148.638 271.927 149.683 272.373C152.182 273.44 156.591 273.118 159.257 274.725C159.87 275.543 156.451 281.262 155.89 282.589C155.132 284.389 151.16 294.422 152.12 295.584C153.787 295.379 153.689 292.588 154.148 291.258C155.024 288.713 159.581 276.162 161.348 275.304C166.365 276.558 172.011 278.725 177.041 276.44C181.987 274.192 183.807 269.411 183.233 264.134C182.678 259.025 175.34 254.796 171.429 252.201C171.683 250.906 171.84 249.777 172.292 248.515C176.521 236.699 184.501 223.786 189.229 211.711C189.798 210.257 190.693 209.118 190.529 207.606C190.076 207.642 189.704 207.397 189.352 207.847C187.706 209.95 187.449 212.597 186.49 214.928C183.033 223.33 179.137 230.672 175.223 238.723C173.312 242.654 171.767 246.823 169.97 250.811L169.015 251.027L167.944 249.55C171.621 241.421 174.982 233.194 178.439 224.976C185.78 207.528 193.205 188.745 205.141 173.852C222.025 152.788 240.712 133.314 257.348 111.986C260.277 108.23 266.315 101.674 268.452 98.1524C274.84 87.6293 277.214 75.9832 282.15 65.2208C284.378 60.3644 286.537 56.5576 288.2 51.2324C288.659 49.7602 289.004 48.2147 289.254 46.6924C291.701 47.7883 294.641 50.696 297.209 51.2362C299.666 51.7533 302.794 50.1808 304.984 51.5314C306.138 52.2434 305.807 53.8506 306.251 54.3137C306.637 54.7169 310.206 56.0116 311.15 56.5287C312.802 57.4317 316.265 60.0325 317.834 59.8106C318.508 59.7161 319.255 59.008 319.732 59.0987C320.052 59.1604 323.471 62.6913 324.706 63.3627C327.385 64.8175 332.413 66.1797 335.163 64.4548C337.305 63.1119 336.423 61.0725 337.27 60.0113C338.678 58.2497 346.704 52.9419 349.053 51.3964C353.793 48.2765 365.145 41.3054 370.488 40.8983C370.928 40.8655 371.328 40.8308 370.88 41.2938C369.146 43.094 366.24 44.8614 364.335 46.6847C362.136 48.7878 360.574 51.0124 358.581 53.2544L358.391 54.2134L359.293 54.7517C360.705 54.6301 363.319 50.3159 365.303 50.7442C359.334 55.9942 352.683 60.9818 347 66.5077C345.239 68.2191 341.221 72.1205 339.947 73.8936C339.269 74.839 337.18 78.9873 339.704 78.2869C340.126 78.1692 341.593 76.0526 342.252 75.4372C345.569 72.3423 349.825 69.1665 354.179 67.7406C358.894 66.1952 361.546 66.0408 357.432 71.0091C353.293 76.0102 347.576 79.8806 343.159 84.6464C341.636 86.2902 335.688 93.2246 341.878 91.6521C346.452 90.4887 352.527 84.82 358.104 83.2591C358.633 83.1105 358.846 82.5548 358.771 83.5408C352.742 91.5055 344.319 97.9112 338.044 105.554C335.471 108.689 329.236 117.206 327.723 120.652C327.347 121.508 327.135 122.13 327.279 123.098C328.382 124.198 332.703 119.255 333.625 118.479C339.123 113.852 345.703 107.983 351.736 104.259C352.385 103.858 353.775 102.945 354.548 103.225C353.522 104.882 352.274 106.295 350.91 107.674C339.002 119.743 323.231 130.887 313.449 144.903C311.911 147.106 309.345 152.864 314.342 150.041C318.024 147.961 323.471 143.238 326.705 140.471C330.502 137.224 335.734 130.968 340.441 129.185C340.931 129 342.573 128.402 342.252 129.459C341.778 131.024 335.234 137.98 333.673 139.558C323.932 149.396 310.156 159.626 301.55 170.379C300.528 171.656 297.413 175.853 300.895 174.772C305.663 169.503 310.991 164.353 316.785 160.215C318.643 158.887 330.389 151.349 331.885 152.813C331.806 154.087 330.443 155.686 329.578 156.751C323.206 164.612 312.923 172.322 305.756 180.005C304.528 181.321 299.865 186.283 299.986 187.73C300.082 188.892 301.021 188.824 301.911 188.496C303.816 187.794 310.405 181.435 312.72 179.671C316.574 176.735 321.475 173.256 325.86 171.263C327.224 170.643 329.286 169.607 330.731 169.981L300.005 199.704C299.79 200.692 301.601 200.961 302.302 200.463C306.704 197.036 311.003 192.959 315.783 190.08C317.194 189.23 321.525 186.791 322.866 186.389C323.352 186.245 323.638 186.482 323.431 186.957C323.21 187.462 320.59 190.229 319.981 190.825C312.232 198.416 301.019 206.241 294.23 214.349C293.865 214.785 292.606 216.23 292.702 216.666C293.958 218.171 295.456 216.969 296.739 216.097C302.915 211.891 314.408 199.905 321.808 198.832C322.163 198.78 322.918 198.493 323.046 198.921C322.123 199.78 321.326 201.674 320.627 202.473C312.262 212.018 300.843 220.33 292.342 230.294C291.469 231.316 287.456 236.115 287.729 237.087C288.163 237.884 288.82 237.822 289.531 237.411C296.566 230.944 304.119 222.672 313.175 219.099C313.653 218.91 314.759 218.285 314.598 219.369L287.902 246.19L287.52 247.35L315.923 219.545L316.897 217.83C316.109 216.714 314.83 217.48 313.841 217.841C304.676 221.189 296.616 229.887 289.44 236.159C289.183 236.24 289.162 235.82 289.256 235.59C289.863 234.099 294.766 228.613 296.155 227.083C303.244 219.275 311.659 212.595 319.077 205.155C319.941 204.287 325.493 198.456 324.587 197.574C321.387 197.372 317.871 199.409 315.113 200.98C307.807 205.142 301.84 211.171 294.822 215.711C294.518 215.323 295.333 214.449 295.577 214.154C297.874 211.407 302.583 207.272 305.375 204.704C312.001 198.61 319.822 193.262 325.196 186.017L325.357 185.423L324.477 184.9C319.743 186.835 315.207 189.301 311.024 192.238C308.565 193.962 306.403 196.16 303.891 197.806C303.564 198.02 303.036 198.755 302.696 198.149C306.243 194.292 309.964 190.511 313.828 186.951C319.057 182.135 326.229 177.157 330.723 171.895C332.642 169.65 334.382 167.375 329.886 168.739C319.004 172.042 310.375 181.398 301.162 187.535C300.912 187.262 302.596 184.906 302.919 184.481C310.726 174.188 323.169 166.248 331.107 156.46C331.739 155.68 333.433 153.5 333.425 152.591L332.788 151.708C330.46 150.95 324.594 154.15 322.401 155.43C317.033 158.561 312.261 162.835 307.713 166.902C305.948 168.48 304.039 169.877 302.502 171.71L302.316 171.139C308.416 163.485 316.063 157.429 323.06 150.687C327.765 146.153 333.051 141.517 337.501 136.836C339.915 134.297 342.561 131.657 343.777 128.294C341.999 126.664 338.632 129.118 336.915 130.262C329.982 134.883 324.003 142.327 316.651 147.336C315.017 148.449 311.204 151.418 313 147.525C314.896 143.417 321.654 136.392 324.965 132.919C333.003 124.487 342.146 117.252 350.53 109.208C352.767 107.061 355.014 104.846 356.464 102.056C356.036 101.465 355.894 101.481 355.22 101.556C353.96 101.697 348.542 105.552 347.128 106.561L329.204 120.771C328.948 120.495 330.51 118.053 330.809 117.564C333.07 113.887 336.099 109.233 338.816 105.928C344.726 98.7428 353.485 92.2754 358.974 85.2754C359.854 84.1544 360.897 82.9407 360.695 81.4126C360.367 81.0422 352.548 84.7197 351.601 85.2001C347.991 87.0369 344.405 90.3112 340.341 90.6701C339.485 89.85 344.789 84.1891 345.563 83.3787C348.333 80.4788 360.317 70.7988 360.695 67.6808C361.15 63.9242 353.893 66.8049 352.11 67.5747C347.708 69.4771 345.029 72.0684 341.493 75.0455C341.19 75.3021 340.725 76.0584 340.341 75.4314C348.438 65.0008 359.33 57.1075 369.336 48.6064C369.564 48.2996 369.634 47.1786 369.53 47.0686C368.789 46.2911 363.492 50.4066 362.424 50.9237C362.164 51.0066 362.145 50.5571 362.237 50.3525C362.412 49.9609 365.47 47.0262 366.071 46.4821C367.563 45.1334 371.039 43.0612 372.055 41.6894C372.559 41.0083 372.743 40.6205 372.607 39.7368C371.187 38.3283 358.27 44.9521 356.142 46.1541C349.412 49.9532 343.328 54.798 336.888 59.0292C336.266 58.2401 339.673 55.2167 340.335 54.5857C348.16 47.1458 358.648 40.7903 366.086 33.3774C366.929 32.5381 369.764 29.3545 367.411 28.9242C364.665 28.4206 354.932 32.2178 351.989 33.4931C348.792 34.8804 345.79 36.6999 342.646 38.1874C347.223 33.1535 353.378 29.7905 358.611 25.484C359.326 24.9399 359.531 23.1108 358.531 22.7886C355.736 21.8856 338.04 31.8936 334.249 33.2269L334.385 34.3305C337.322 33.1593 356.62 22.6651 358.01 23.9173C357.993 24.8647 356.918 25.65 356.272 26.2191C350.232 31.556 342.701 36.0554 336.496 41.8534C335.928 42.3859 333.143 44.8652 333.815 45.5232C334.126 45.5174 334.457 45.5791 334.766 45.5212C335.332 45.4151 339.018 41.9556 340.065 41.1954C347.927 35.494 357.62 31.2531 367.227 29.7056C367.774 30.2536 364.287 33.6668 363.778 34.1472C357.916 39.7001 350.777 44.7379 344.561 49.957C341.791 52.282 339.118 54.7941 336.5 57.2947L335.352 57.4876C335 54.8404 333.656 52.4846 332.473 50.15C331.453 48.1337 329.434 44.1764 328.203 42.4766C327.788 41.9035 326.914 41.7723 326.586 41.0932C327.477 40.2944 327.264 38.8917 327.733 38.0543C328.171 37.271 329.162 37.7572 328.601 36.2406C329.974 35.8181 331.829 34.2765 332.094 32.8178C332.254 31.9322 331.117 31.1527 331.13 30.269C331.147 29.1963 332.686 28.9782 333.22 28.1409C335.611 24.3958 332.035 19.5954 329.171 17.1913C325.363 13.9962 309.591 7.57886 305.024 9.07803C302.333 9.96172 301.682 12.5877 303.845 14.4592C300.222 16.5507 299.249 19.3523 299.623 23.5257C295.89 22.1037 292.717 21.0733 288.674 20.8302C282.06 20.4328 275.286 20.973 268.719 21.2277C264.834 21.3782 260.665 21.2914 256.8 21.602C249.956 22.15 242.728 23.8614 236.051 24.2916C226.961 24.8782 212.13 14.6078 204.717 9.47743C203.818 8.85615 193.961 2.4755 194.38 1.92175C195.388 1.81563 196.875 1.13647 196.105 -0.0154013C195.44 -0.0925788 193.549 0.648325 192.871 0.997553C187.956 3.5309 182.886 7.7255 177.986 10.7238C171.595 14.6367 164.919 18.4474 158.948 23.1533C155.137 26.1555 150.927 31.7296 147.912 35.6927C139.243 47.0918 130.193 61.1632 129.465 75.8211C129.444 76.2552 129.715 76.8804 129.085 76.7762C126.694 72.1475 122.724 68.3484 119.494 64.2213C110.922 53.2718 101.934 41.7646 94.1978 30.2073C91.171 25.6866 88.0616 20.8843 86.0066 15.8639L84.5258 15.8098C83.9324 16.3848 86.8343 20.7781 87.3548 21.6464C98.0332 39.4377 111.615 55.1646 124.08 71.5764C125.587 73.5598 126.851 75.7285 128.309 77.7486L128.313 78.3197C126.794 77.8142 126.383 80.309 127.545 80.8299C128.374 81.2023 129.25 80.855 129.993 81.0846C130.452 81.2274 130.761 82.4294 131.58 82.5568C132.365 82.1786 131.916 80.9264 132.379 80.5926C132.849 80.253 137.165 79.7301 138.382 79.3693C147.299 76.7318 157.753 69.5215 164.233 62.9016C165.024 62.0932 167.859 58.5719 164.805 59.992C163.851 60.4358 159.111 66.2936 157.686 67.5052C155.865 69.0546 152.443 71.1827 150.326 72.46C144.54 75.9485 138.467 78.8407 131.633 79.5063C131.409 79.4735 131 78.5744 131 78.5146V71.1827C131 63.4303 143.188 43.5281 148.125 37.0645C158.817 23.0684 168.314 17.9457 182.98 9.18029C186.247 7.2277 189.293 4.40301 193.042 3.07749L209.618 14.9686C218.904 19.3754 227.723 27.7878 238.649 25.7484C239.129 25.6596 239.529 25.3779 239.898 25.0789C241.269 26.2365 240.049 28.2045 240.09 29.5069C240.153 31.583 240.683 37.5392 243.543 36.8407C243.13 36.5088 242.911 36.1924 242.796 35.6618C242.114 32.486 241.607 28.5094 242.573 25.4493C243.428 24.6795 255.183 23.3057 257.185 23.1436C258.951 23.0008 260.78 23.2497 262.554 23.1359C271.326 22.5744 292.909 20.3633 299.758 25.5149C301.223 26.6185 302.441 29.2233 304.619 28.9242L304.427 27.3845C305.957 28.3628 308.083 29.9912 309.787 30.489C315.163 32.0615 315.547 30.6607 319.995 35.2836C320.782 36.1017 325.735 41.8939 325.923 42.4245C326.16 43.0863 325.167 44.7282 324.592 44.9694C324.18 45.1431 323.127 43.613 322.714 45.0003C322.57 45.4865 322.862 47.4584 323.075 47.9137C323.294 48.3807 323.911 48.4173 324.153 48.8418C326.446 52.8705 328.599 57.0998 331.701 60.5573L333.998 59.0254C334.668 60.5014 336.102 61.825 334.47 63.1544C332.682 64.6092 327.566 63.0579 325.624 62.0449C324.187 61.2963 320.546 57.6574 320.093 57.5339C318.879 57.204 318.099 58.7379 316.807 58.188C313.899 56.1659 310.786 54.1632 307.386 53.1618C306.699 50.175 306.735 46.9992 307.309 43.9796C304.304 43.5378 305.88 49.4669 305.387 50.1519C302.905 48.3922 299.708 50.1712 297.299 49.6039C295.208 49.11 289.191 44.0047 287.718 44.9405C286.821 45.5116 288.09 46.1522 288.042 47.1478C287.727 53.6635 281.278 63.7042 278.812 69.9518C276.175 76.6334 274.6 82.8481 271.402 89.5201C270.354 91.7081 268.036 96.7999 266.922 98.5248C265.831 100.213 263.353 102.029 262.044 103.657C253.904 113.785 246.132 124.588 237.789 134.472C222.607 152.46 204.323 170.007 192.638 190.601C189.078 196.878 185.307 204.586 182.469 211.256C181.643 213.199 181.128 215.294 180.354 217.251C174.936 215.028 170.281 211.333 165.197 208.553C151.995 201.331 136.423 198.281 127.769 184.798C121.614 175.206 117.189 165.195 112.772 154.716C111.661 152.084 111.016 148.927 109.831 146.479C107.598 141.868 103.708 136.973 101.229 132.354C97.9602 126.268 95.7842 119.259 91.9853 113.47C86.0392 104.415 79.9971 98.6984 75.2418 88.2293C67.5749 71.3487 60.0943 49.2335 56.9773 30.9443C56.3896 27.4964 56.3588 23.5527 55.7193 20.0507C53.0324 19.9774 54.6246 22.0381 54.8493 23.4369C57.8991 42.4303 62.3932 58.3288 69.1575 76.207C72.1689 84.1659 76.0734 93.7803 80.7481 100.834C84.1014 105.893 89.5884 111.19 92.5288 116.399C97.8699 125.863 101.715 136.021 107.507 145.325C110.077 149.454 110.603 152.352 112.391 156.643C116.868 167.388 121.727 177.744 128.157 187.497C132.066 193.426 136.681 196.067 142.8 199.413C149.838 203.262 157.914 205.865 164.89 209.635C169.872 212.327 174.36 216.246 179.79 218.019L166.88 248.527C164.681 248.085 162.702 247.008 160.576 246.351C159.822 246.117 159.134 246.542 158.191 246.109C149.262 242.025 140.545 229.36 134.267 221.879C127.299 213.579 120.364 203.554 110.142 199.037C106.849 197.582 102.593 197.298 99.149 196.189C94.2823 191.055 89.4905 181.647 83.6712 177.759C83.0643 177.354 80.3294 175.957 79.7321 175.918C79.3922 175.897 75.3321 176.677 74.8308 176.819C73.2963 177.259 72.7412 179.442 70.5038 177.501C61.988 166.725 55.677 154.401 46.3431 144.276L37.2127 131.258L35.3651 131.576C34.9061 130.584 35.2096 129.251 35.9452 128.462C36.433 127.939 37.5488 128.933 38.052 127.9C38.271 127.115 31.7372 117.757 30.7404 116.343C22.3188 104.404 12.2185 92.7982 4.70718 80.3688C3.8775 78.997 3.0843 77.5229 2.51006 76.016L2.12594 75.6166L0.0286865 76.3999L35.2768 126.428C35.3306 127.053 34.3549 128.593 33.9881 129.228C30.1508 135.856 22.8219 141.073 17.4962 146.62C16.4073 147.754 15.7619 149.201 14.4368 150.492C11.4196 153.435 6.52788 156.817 2.39674 157.494L1.94541 159.356C2.49085 159.379 3.04013 159.422 3.57597 159.262C5.85184 158.586 16.413 151.536 18.2664 149.709C18.5717 149.408 20.6844 146.986 20.7612 146.811C20.8361 146.641 20.8591 146.178 20.5749 146.24L18.4527 148.935H17.6921C19.048 146.251 21.7656 144.648 23.8475 142.58C24.9807 141.453 26.0543 139.948 27.2892 138.705C29.4633 136.517 32.1847 135.103 33.6328 131.966C34.1629 131.95 36.1007 137.793 36.6942 138.918C38.9873 143.257 41.6608 147.623 44.1287 151.901C49.9691 162.023 58.12 179.247 68.1281 185.288C70.0256 186.434 72.263 187.121 74.1548 188.303L73.012 189.262C81.3934 195.211 91.3669 195.902 101.048 198.134C110.016 200.2 116.48 203.141 122.939 210.1L125.624 214.152C120.782 211.31 115.549 208.75 109.881 208.366C109.839 208.711 109.823 208.862 110.065 209.141C110.707 209.882 115.201 210.666 116.517 211.15C121.141 212.854 126.951 216.064 130.228 219.755C130.652 220.234 131.361 221.762 131.464 221.824C131.678 221.955 132.252 221.499 132.555 221.673C132.832 221.831 134.138 223.919 134.599 224.436C141.486 232.144 147.094 241.724 156.61 246.893C158.42 247.875 164.928 249.386 165.86 250.916C166.14 251.377 165.818 252.334 166.544 252.739C167.291 253.05 167.052 251.957 167.323 251.942C169.232 251.828 179.893 259.577 180.938 262.199L171.537 259.272C167.125 259.174 165.844 267.408 166.367 270.665C166.711 272.811 169.309 273.515 169.799 275.508C169.532 275.751 163.44 274.391 162.773 273.978C162.278 273.671 162.522 272.743 161.915 272.423C159.397 273.934 157.427 272.016 154.92 271.358C153.635 271.02 151.966 271.277 150.516 270.766C149.374 270.364 139.012 262.544 137.349 261.225C133.927 258.508 127.03 252.758 124.262 249.675C123.095 248.373 122.924 246.046 120.634 245.799C119.599 246.974 124.354 250.844 124.879 251.757C128.101 257.37 129.444 264.03 131.497 270.191C132.563 273.386 134.165 276.442 135.117 279.674C136.738 285.175 136.913 290.631 136.767 296.35H138.3C138.538 295.296 138.1 294.291 138.012 293.355C137.958 292.786 137.603 292.348 138.488 292.493C139.59 293.737 140.382 295.204 141.386 296.529C142.558 298.077 144.175 298.135 142.525 300.39C142.994 301.311 144.269 300.741 144.768 301.044C144.924 301.139 146.193 303.981 146.283 304.346C146.942 306.989 146.193 309.864 146.366 312.557L147.906 312.553C147.787 316.177 150.86 318.803 152.537 321.6C154.945 325.623 154.686 327.236 158.919 330.624C164.391 335.002 178.1 338.23 173.25 347.281C172.05 347.023 171.522 345.989 170.329 345.402C168.956 344.727 167.371 344.298 165.844 344.661C164.911 344.883 163.44 345.543 162.094 345.904C159.975 346.471 160.238 347.355 157.895 345.157C157.598 344.509 159.261 344.171 159.631 343.43C159.919 342.853 159.535 342.286 159.24 342.276C158.811 342.263 157.79 343.953 155.489 343.33L142.913 335.512C143.852 335.132 144.442 335.898 145.607 335.546C145.976 335.435 148.463 333.881 147.903 333.393C146.679 333.125 145.765 334.146 144.634 334.194C143.433 334.246 142.951 333.559 142.252 333.465C141.636 333.382 141.042 333.837 140.493 333.715C135.43 332.598 123.569 310.279 121.395 305.036C119.357 300.126 120.02 299.605 115.645 295.763C115.011 295.206 110.394 291.472 110.065 291.333C109.378 291.042 109.37 291.775 109.555 292.234C110.181 293.805 117.008 298.094 118.493 300.622C119.33 302.048 119.857 304.818 120.629 306.58C123.292 312.652 127.906 321.292 131.839 326.575C132.486 327.445 134.612 329.195 134.843 329.733C135.044 330.206 134.754 330.459 134.276 330.302C128.463 327.049 123.561 324.414 119.086 319.32C111.602 310.798 109.082 301.253 100.073 293.658C98.3673 292.219 96.2451 291.065 94.7048 289.79C89.7229 285.661 86.2543 279.946 82.2135 274.941C72.8065 263.291 63.5533 251.606 54.1828 239.922C46.6946 230.583 42.1294 226.985 40.0168 214.305C39.7364 212.618 39.9246 211.16 39.7863 209.514L38.4822 209.705C39.0373 211.804 38.9067 214.117 39.2274 216.255C39.5232 218.223 40.3721 223.203 41.7875 223.903L43.6197 229.59L29.2251 211.636C27.8865 209.969 27.003 207.891 25.7604 206.349C21.3201 200.841 15.8695 196.079 11.3811 190.59C9.86582 189.727 8.80182 190.231 10.2634 191.713C12.8523 194.339 15.7658 196.77 18.2836 199.477C27.1835 209.056 34.5393 220.726 43.2337 230.751C44.5973 232.324 49.9326 238.806 50.8103 239.538C51.0638 239.748 51.9166 239.563 52.6829 240.165C53.4165 240.742 57.4555 246.03 58.5848 247.363C65.5583 255.591 72.336 264.58 79.0791 273.054C82.8569 277.802 86.6288 283.587 90.6966 287.934C94.6606 292.167 100.582 295.032 104.492 299.636C108.489 304.338 110.859 311.623 115.253 316.223L113.743 316.441C114.056 318.56 110.813 319.162 109.032 319.617C104.288 320.835 100.261 321.44 95.4308 322.968C94.6626 323.212 93.2413 322.789 92.9974 323.592C92.5807 324.963 101.845 337.244 102.195 339.948C101 340.825 93.249 337.231 91.6934 336.417C91.0154 336.062 90.5756 335.269 89.7901 334.856C88.2921 334.07 86.3907 334.207 85.1654 333.7C84.545 333.443 84.7179 332.552 83.9516 332.591L82.9471 332.853L81.2167 337.275C76.7648 336.914 72.2918 336.538 67.8534 336.056C55.0721 334.669 42.2312 333.241 29.4095 331.844C27.2969 331.614 21.5851 329.963 20.0179 330.499C17.3675 331.41 19.1498 333.677 16.5609 334.782C16.4572 335.234 17.1467 335.859 17.2235 336.37C20.1139 355.746 26.7917 375.09 32.3018 393.767L34.7717 402.091L100.203 416.816C100.753 421.362 102.356 425.713 103.232 430.172C104.684 437.556 105.888 445.054 107.142 452.484C108.231 458.93 108.022 465.585 109.22 472.006C109.944 475.882 111.523 479.61 112.184 483.505C113.186 483.64 112.973 483.395 112.91 482.583C112.614 478.734 110.649 474.321 109.979 470.472C109.147 465.704 109.324 460.547 108.612 455.638C107.092 445.185 104.605 434.212 102.673 423.787C102.52 422.954 101.573 417.368 101.809 417.131L107.584 418.545C108.493 423.446 105.544 427.49 105.268 432.178L107.091 431.694C108.324 429.508 109.927 427.09 111.6 425.229C112.595 424.121 114.158 422.165 115.637 422.149C116.39 422.907 110.803 438.382 110.359 440.961C109.954 443.319 109.447 447.807 109.462 450.124C109.466 450.834 109.407 451.396 110.069 451.853C110.688 451.845 112.57 446.221 113.062 445.219C114.141 443.02 119.638 434.079 121.403 433.147C121.791 432.942 122.127 432.904 122.553 432.954C122.864 436.718 121.401 440.299 121.066 444.002C121.028 444.434 120.709 445.387 121.399 445.299C121.888 441.716 124.145 436.267 123.73 432.746C123.26 428.765 118.645 434.511 117.78 435.68C115.118 439.286 113.3 443.612 110.651 447.23C110.081 439.574 114.371 432.921 116.133 425.921C116.401 424.852 117.502 421.071 116.165 420.635C113.659 419.817 109.057 427.334 107.194 428.707C107.709 425.45 109.497 422.477 109.113 419.062L134.971 424.019C136.35 422.593 135.916 420.754 137.076 418.792C139.431 414.804 142.579 410.713 144.901 406.586C145.335 405.817 145.6 404.159 146.184 403.603C146.764 403.052 147.38 403.669 148.173 403.351C149.114 402.973 150.213 401.354 151.582 401.292L152.896 402.081L153.524 400.584C155.587 400.813 157.667 400.223 159.606 400.134C165.906 399.845 173.073 400.754 179.21 400.148C183.227 399.75 187.839 397.753 191.876 397.437C194.228 397.252 196.815 397.578 199.203 397.466C217.961 396.592 236.844 395.87 255.635 395.12C279.052 394.184 302.748 391.031 325.947 388.193C333.967 387.213 342.488 387.033 350.482 385.829C353.768 385.334 357.202 384.251 360.484 383.609L360.703 382.015C365.831 381.662 371.109 380.826 376.075 379.514C391.244 375.509 405.846 369.178 421.594 367.361C425.409 366.921 429.989 367.305 433.79 366.493C435.52 366.122 438.893 364.268 440.41 364.268H447.324C447.543 364.268 448.354 363.433 448.667 364.073C447.591 365.65 446.009 366.863 444.839 368.331C440.174 374.183 435.44 378.831 430.418 384.328C426.841 388.245 423.788 392.693 419.977 396.318L419.213 396.592C414.972 396.171 411.331 397.248 407.33 397.794C396.52 399.266 385.517 401.118 374.683 402.426C360.48 404.142 347.317 404.126 333.248 405.178C329.112 405.487 324.637 406.874 320.517 407.435C306.835 409.303 293.562 409.845 279.857 410.964C274.762 411.379 269.593 412.6 264.485 412.886C253.213 413.519 241.499 412.703 230.318 412.872C204.705 413.262 179.016 417.499 153.463 418.665C147.862 418.919 142.337 420.085 136.769 420.224L136.823 421.711C137.203 421.902 137.608 422.03 138.04 422.02C141.98 421.935 147.363 420.515 151.563 420.226C172.182 418.804 192.796 416.934 213.4 415.203C230.8 413.743 247.317 415.004 264.485 414.044C276.098 413.395 288.83 411.624 300.599 410.578C316.255 409.187 331.77 406.351 347.441 405.541C354.448 405.178 360.908 405.571 368.197 404.782C377.372 403.789 386.625 402.471 395.805 401.261C398.452 400.912 401.692 399.783 404.325 399.754C406.637 399.729 409.241 400.754 411.746 399.694L411.796 398.61H417.557C417.112 401.551 414.479 403.839 417.362 406.332C418.17 407.03 420.131 408.159 421.007 406.907C420.965 406.16 416.732 405.799 416.797 403.424C416.824 402.398 420.121 400.376 419.927 398.678L422.165 398.224C421.754 401.201 422.578 404.472 422.587 407.291C422.61 414.32 420.995 421.457 420.615 428.501C420.006 439.823 420.838 452.007 420.242 463.242C419.662 474.215 417.045 485.877 416.39 496.803C416.269 498.831 416.213 502.288 416.764 504.175C417.346 506.17 418.354 505.939 418.072 504.033C416.34 492.392 420.749 475.27 421.395 462.855C421.927 452.64 420.945 441.685 421.383 431.586C421.489 429.159 422.388 426.571 422.171 424.077C424.037 426.737 428.862 421.624 429.461 420.019C429.726 419.307 428.902 419.29 428.52 419.461C427.533 419.903 425.514 424.436 423.321 423.693C422.52 422.886 425.906 415.373 426.513 413.974C428.57 409.224 432.513 399.519 435.067 395.558C435.857 394.334 441.445 390.209 436.767 392.438C438.228 388.151 440.28 383.74 443.097 380.086C443.961 378.965 447.487 374.955 448.477 374.299C449.206 373.815 450.094 373.5 450.975 373.533L440.988 384.917C441.132 386.007 441.689 385.914 442.536 385.704C443.794 385.393 450.562 380.853 450.973 381.249C450.674 383.003 448.039 383.204 447.111 384.504C446.817 384.917 446.31 386.183 447.319 385.872C448.327 385.561 450.969 383.25 452.003 382.457C452.333 382.204 453.128 382.117 453.222 381.961C453.472 381.542 453.082 380.691 453.363 380.169C453.441 380.022 455.176 379.005 455.581 378.926C454.745 377.593 453.741 379.981 452.792 379.995C452.402 380.001 451.855 379.599 451.359 379.7C450.551 378.955 468.276 368.123 469.226 366.973L469.795 367.16C467.239 369.794 462.95 371.797 460.44 374.355C459.94 374.865 459.627 374.928 459.814 375.845C460.601 375.455 461.062 374.656 461.755 374.133C464.446 372.1 472.578 367.23 474.045 364.862C476.163 361.445 476.601 362.072 479.58 359.626C482.753 357.021 488.795 352.279 491.313 349.417C492.037 348.595 492.772 347.181 491.977 346.228C490.049 344.63 481.798 348.485 479.526 349.537C476.43 350.97 473.283 352.865 470.294 354.54C469.956 354.729 469.332 355.391 469.032 354.816L488.82 341.892C490.17 341.472 488.296 344.115 489.58 344.58C490.669 343.669 489.838 342.282 490.354 341.121C491.007 339.647 494.641 339.488 493.614 337.256L492.121 337.597C492.108 335.905 489.49 336.72 488.538 337.266C480.377 341.956 471.702 346.06 463.386 350.685C461.187 351.908 454.38 356.878 452.617 357.245C451.947 357.384 450.795 356.846 449.675 356.955C446.767 357.241 442.016 359.242 438.764 359.908C425.777 362.566 412.495 363.641 399.502 366.385C387.89 368.837 376.832 371.833 365.02 373.805C363.768 374.014 358.702 374.807 357.861 374.687C356.998 374.565 355.923 373.387 354.563 373.915C354.903 372.79 354.112 371.239 354.252 370.326C354.58 368.183 359.43 365.634 353.8 363.865C354.219 362.537 354.419 361.897 353.414 360.799C358.018 359.462 355.969 356.213 351.878 356.932C356.568 352.892 354.206 350.637 348.807 352.689C349.635 350.413 348.838 348.503 348.786 346.342C348.582 337.798 349.274 329.426 350.728 321.049C351.369 320.287 354.601 325.081 354.96 325.477C365.024 336.565 374.917 347.901 385.278 358.677C386.252 359.689 393.33 366.788 394.128 366.194C395.016 364.251 392.335 363.645 390.856 362.346C381.737 354.331 371.804 342.245 363.599 333.003C361.11 330.2 352.633 322.106 351.463 319.341C351.144 318.589 350.559 314.631 350.779 313.973C352.477 312.231 356.493 312.15 354.653 308.876C360.104 304.702 365.762 300.697 371.648 297.11C383.586 289.838 395.901 283.218 407.699 275.83C409.355 274.794 410.981 273.197 412.591 272.255C413.966 271.451 415.766 271.115 416.935 270.445C418.852 269.349 419 266.741 421.925 268.234C424.833 269.72 426.993 272.728 429.3 274.713C438.559 282.688 449.089 290.247 457.897 298.465C466.011 306.036 474.5 314.556 481.956 322.723C485.676 326.798 488.864 331.306 492.711 335.265L493.61 335.321C493.781 332.596 490.779 331.057 489.191 329.152C478.804 316.717 463.851 301.052 451.365 290.747C448.346 288.256 444.768 286.245 441.789 283.774C440.212 282.466 439.031 280.577 437.199 279.709L437.723 278.219L439.402 278.931L442.519 274.74C442.932 276.44 444.247 277.476 445.596 278.41L444.806 279.188L444.902 279.867C446.253 281.758 450.946 290.944 453.086 290.961C454.426 290.78 454.286 289.599 454.622 288.634C456.929 290.299 461.341 298.636 463.518 299.379C463.81 299.479 464.12 299.445 464.417 299.437C464.7 299.151 463.905 296.535 464.799 296.354C467.876 302.651 472.77 307.884 476.292 313.944L478.247 314.487L477.671 309.858L491.68 328.585L492.844 328.763C493.915 327.672 488.282 321.197 489.194 319.119L501.699 337.624L502.846 337.462C504.158 336.513 500.437 332.056 500.914 330.308L506.384 337.366C507.194 338.597 505.5 338.859 504.751 339.764C503.33 341.483 502.128 344.138 500.685 346.099C495.131 353.635 489.104 361.056 483.398 368.478C478.581 374.741 473.678 379.507 468.654 385.309C466.334 387.989 464.367 391.35 461.928 393.987C459.796 396.293 457.004 397.954 455.005 400.152C454.033 401.221 451.776 404.13 452.69 405.575L454.046 405.556C453.722 407.582 454.367 409.621 454.448 411.524C455.287 431.26 456.735 451.266 456.336 470.95C456.234 476.006 455.412 483.262 455.95 487.964C456.015 488.541 455.992 488.939 456.549 489.296C458.6 488.777 457.501 487.383 457.484 486.033C457.353 475.78 457.851 465.778 457.488 455.548C456.971 441.029 456.651 426.434 455.984 411.912C455.936 410.887 455.569 405.463 455.391 405.176C455.031 404.599 453.626 404.645 454.05 403.247L456.176 403.262L455.756 400.925C458.064 399.131 460.519 397.097 462.506 394.96C465.251 392.008 467.35 388.506 469.981 385.49C472.489 382.613 475.718 380.078 478.234 377.188C487.704 366.311 496.495 352.726 505.515 341.31C507.371 338.962 510.532 338.109 509.739 334.559L509.712 334.574ZM303.71 142.281C303.516 142.452 300.87 144.071 300.758 143.944C300.411 142.269 302.105 141.677 302.335 140.135L304.428 140.859C304.553 141.144 303.925 142.091 303.71 142.282V142.281ZM293.633 63.3068C294.614 63.5962 297.589 65.1301 298.459 65.7938C302.174 68.6243 303.138 73.3804 296.712 72.5642C294.649 72.3018 292.705 70.4939 290.768 69.8456C291.407 68.5028 292.246 67.2891 292.751 65.8691C293.009 65.1436 292.746 63.0463 293.633 63.3087V63.3068ZM288.084 69.4675C287.349 68.3117 290.047 62.4791 291.15 63.2952C292.05 65.1185 290.426 67.7831 289.106 68.9504C288.941 69.097 288.123 69.5215 288.084 69.4675ZM288.759 71.6805L288.855 70.8142C289.216 72.2671 290.552 71.6477 291.759 72.1417C293.228 72.7456 295.269 74.2197 296.746 74.4609C303.791 75.6108 305.471 68.8848 300.347 65.0568L295.767 62.5254C298.711 63.0868 302.118 63.1061 304.984 63.8721C308.998 64.943 313.058 68.5934 317.277 70.0444C319.768 70.901 324.137 71.1094 326.1 71.9854C328.18 72.9154 333.961 80.4961 333.331 83.0642C332.728 85.5223 327.64 91.1177 325.311 92.395C321.921 94.253 322.897 92.9063 320.256 92.1017C318.958 91.7062 313.688 91.0328 313.152 90.5909C312.368 89.9465 310.524 86.2111 308.623 84.5287C304.767 81.1136 300.927 81.4281 296.794 79.0471C293.854 77.3531 291.488 73.7682 288.762 71.6805H288.759ZM296.865 91.1929C292.258 96.9774 289.035 91.2778 285.083 88.3161C284.589 87.0311 285.935 86.9482 286.544 86.2555C287.804 84.8219 289.469 83.2147 289.807 81.4338C293.499 84.0019 296.762 86.132 296.865 91.1929ZM287.685 80.2858C288.718 81.758 284.222 86.871 283.475 86.0587C283.736 83.6739 284.531 79.0452 287.685 80.2858ZM295.127 101.751L283.462 89.3445C283.548 88.3586 283.373 88.6808 283.909 89.1767C285.453 90.6025 290.251 95.5207 291.839 95.9972C293.848 96.6011 298.016 93.051 298.358 91.1814C299.395 85.5127 295.254 83.7955 291.874 80.8917C291.493 80.5656 290.904 80.8897 291.155 79.8884C292.15 80.6582 293.107 79.817 293.935 79.9733C295.277 80.226 305.452 84.2122 306.654 84.9609C307.421 85.4374 309.601 87.6389 310.142 88.403C310.736 89.2423 312.053 92.8503 312.518 92.9835C312.996 93.1204 313.824 92.559 314.677 92.6883C315.249 92.7751 320.792 94.4093 321.239 94.637C322.015 95.0306 321.881 96.2963 323.807 95.7097C324.074 97.5157 323.571 99.2213 323.432 100.929C323.394 101.396 323.732 101.948 323.673 102.409C323.235 105.814 318.965 112.015 315.376 112.521C314.636 112.625 310.889 111.963 309.958 111.745C303.956 110.339 300.378 104.871 295.129 101.753L295.127 101.751ZM304.035 114.022C304.465 115.222 304.384 118.413 303.063 119.06C300.916 120.109 294.684 115.068 294.997 114.624C296.852 113.702 299.356 111.317 299.61 109.214C300.545 108.405 303.737 113.189 304.037 114.022H304.035ZM295.365 108.236C296.813 107.182 297.428 106.231 299.412 106.511L299.602 107.277C298.231 107.371 298.394 108.886 297.756 109.864C295.809 112.855 294.442 113.333 291.157 114.616L295.365 108.236ZM293.243 121.587C291.81 119.39 289.158 118.583 290.775 115.006C291.409 114.84 290.944 115.677 291.399 115.787C292.235 115.99 293.683 115.39 293.79 115.446C293.867 115.486 293.969 116.088 294.251 116.308C295.582 117.346 300.247 120.926 301.559 120.972C305.487 121.111 306.242 118.192 305.727 114.832C305.517 113.472 304.444 112.779 304.219 111.531C305.783 112.031 306.484 113.532 308.442 113.077C306.606 115.396 309.201 116.054 310.309 117.564C310.782 118.209 312.528 121.817 312.643 122.548C313.611 128.603 308.784 129.423 305.176 132.745C304.678 131.667 302.095 129.938 301.037 130.11C300.578 130.183 300.075 130.856 299.6 130.648C299.456 130.584 297.789 128.744 297.451 128.362C295.402 126.052 294.785 123.949 293.245 121.585L293.243 121.587ZM303.443 133.909L298.454 134.295V132.369C300.075 132.489 303.101 131.707 303.443 133.909ZM297.651 141.403C297.82 140.095 297.436 138.383 297.689 137.264C297.76 136.953 298.285 136.975 298.456 136.722C298.692 136.375 298.717 135.62 298.886 135.506C300.192 134.636 308.348 135.813 306.491 139.286C304.601 140.123 303.073 137.027 301.623 138.256C301.444 138.406 299.47 142.109 299.397 142.387C299.011 143.882 299.562 145.449 298.792 146.795C298.481 147.34 296.523 149.115 295.942 148.2C295.166 146.981 297.428 143.099 297.649 141.401L297.651 141.403ZM257.732 270.903L256.587 273.602C256.614 272.84 256.96 271.24 257.732 270.903ZM308.827 11.7889C309.084 10.9322 310.93 11.1638 311.615 11.2911C315.883 12.0841 324.89 15.7577 328.215 18.54C328.687 18.9355 331.395 21.6309 331.103 21.9995C329.684 22.5436 328.245 21.8934 326.865 21.4399C323.231 20.2456 312.113 15.6999 309.618 13.2977C309.14 12.8385 308.66 12.6263 308.829 11.7889H308.827ZM316.997 30.5797C314.75 29.4683 311.427 29.5995 309.007 28.5731C308.078 28.1795 302.199 24.9901 301.884 24.5386C301.377 23.8151 301.601 22.7925 301.142 22.0072C302.719 22.1886 303.764 23.5314 305.37 24.1238C306.364 24.4923 311.143 25.7136 311.521 24.5116L311.289 23.5411C309.284 24.2588 301.413 21.2682 301.586 19.1786C301.659 18.3027 304.288 16.244 305.178 16.244C307.016 16.244 309.24 19.6398 311.515 18.9143C311.56 18.2679 311.648 18.0364 311.11 17.5888C309.086 15.9082 304.127 14.8258 304.605 11.1985L306.096 11.2429C306.255 11.7561 306.203 12.387 306.507 12.852C308.264 15.5571 323.653 22.2831 327.283 23.3346C328.345 23.6434 331.704 23.9675 331.898 24.0987C332.547 24.5405 332.179 26.8134 331.775 27.3035C331.397 27.7627 329.388 28.0579 328.985 28.93C332.077 36.0998 326.603 34.2398 321.675 34.973C320.358 33.6282 318.71 31.4209 317.002 30.5758L316.997 30.5797ZM325.72 39.7561C324.829 39.9934 325.078 39.5381 324.844 39.266C324.546 38.9206 322.731 36.5494 323.037 36.285L325.68 36.3275C326.131 37.5449 325.993 38.529 325.72 39.758V39.7561ZM333.79 57.503L331.13 58.2613C330.433 56.3955 328.939 54.8095 327.953 53.1444C326.442 50.5918 322.862 45.9496 327.402 44.8266C328.38 45.0157 333.99 55.5408 333.792 57.503H333.79ZM95.4788 196.008C93.2702 195.685 80.508 192.722 79.6995 191.394C79.4152 190.927 79.6956 190.173 79.2654 189.826C76.7187 187.769 71.0684 185.448 68.0147 183.468C61.8075 179.445 58.2775 172.721 54.4748 166.586C48.69 157.257 43.0897 147.808 37.8676 138.121C36.9688 136.454 36.3658 134.167 35.7185 132.373C36.5655 132.165 36.5732 132.859 36.9496 133.255C40.808 137.326 43.5352 141.974 46.8597 146.342C48.3386 148.285 50.3552 149.944 51.8513 151.856C55.0586 155.956 57.7378 160.967 60.6878 165.36C63.8279 170.039 67.016 174.67 70.2791 179.262C72.6145 181.467 73.7668 178.946 75.4838 178.297C83.0163 175.459 86.6653 183.833 91.4034 187.736L97.5588 196.037C96.8712 196.031 96.1664 196.106 95.4788 196.008ZM168.671 271.819C167.415 269.924 168.422 262.498 170.642 261.549C172.757 260.644 179.694 263.445 181.62 264.985C182.509 270.258 176.924 277.918 171.497 274.379C171.068 274.102 168.927 272.205 168.671 271.819ZM350.689 309.487C350.201 310.103 348.995 307.755 348.77 307.564C349.959 307.4 350.879 308.253 350.689 309.487ZM338.978 300.614L336.097 296.763C337.155 296.628 337.902 295.561 338.908 296.421C341.782 298.785 344.814 301.075 347.622 303.506C347.95 303.792 349.955 305.625 349.537 306.016C349.326 306.215 346.687 304.739 346.28 304.469C344.351 303.182 341.332 299.136 340.222 298.592C339.753 298.362 339.314 298.229 338.785 298.303L338.978 300.614ZM348.77 311.029C346.815 311.351 346.118 310.792 345.313 309.107C345.555 308.907 348.603 310.335 348.77 311.029ZM339.94 301.774L346.043 306.636L347.998 309.105C344.647 307.537 341.125 305.528 339.94 301.774ZM165.833 346.241C168.059 345.624 170.951 347.297 172.079 349.232C169.945 349.226 170.097 351.85 168.08 351.549C167.356 351.441 162.113 348.238 162.099 347.885L165.833 346.239V346.241ZM101.338 334.445C100.789 333.524 99.825 332.689 99.174 331.603C98.6957 330.806 95.0179 324.871 95.2579 324.547C100.265 321.901 105.414 321.491 110.701 320.182C112.539 319.727 115.28 319.337 116.192 317.601C119.152 321.516 121.892 324.738 126.114 327.308C128.714 328.89 131.678 330.329 134.345 331.772C134.735 331.985 140.094 333.856 139.049 334.956C135.549 335.624 132.242 337.194 128.772 337.949C126.561 338.429 123.834 338.468 121.66 338.908C119.824 339.28 108.464 342.08 107.786 341.871C107.344 341.736 107.313 341.016 107.066 340.854C106.672 340.596 105.9 340.746 105.362 340.447C102.41 338.798 102.875 337.017 101.342 334.445H101.338ZM87.9809 335.925L88.7338 335.873L94.0998 339.199C91.3592 338.823 88.826 337.262 86.0373 337.269L87.979 335.925H87.9809ZM85.6513 334.964V335.342L83.7326 335.728C83.9631 334.856 84.933 334.904 85.6513 334.964ZM28.695 376.551C27.8999 371.826 25.6106 367.486 24.9672 362.744C25.5031 362.748 25.7489 363.861 25.9083 364.301C28.165 370.539 29.8454 377.523 31.4895 383.964L28.695 376.551ZM33.1431 389.833C32.7685 388.697 32.4132 387.477 32.2654 386.283C32.8262 386.192 32.7781 386.952 32.9126 387.358C33.5118 389.154 34.2051 390.975 34.5624 392.839C33.748 392.312 33.4465 390.753 33.1431 389.831V389.833ZM35.3363 397.088C36.5617 396.81 36.4407 398.604 36.4848 399.399C35.2595 399.677 35.3805 397.883 35.3363 397.088ZM38.4112 398.631C38.294 397.89 38.5936 396.87 38.4112 396.202C38.3094 395.83 37.568 395.751 37.3088 395.311C35.8434 392.828 34.9215 388.046 33.9804 385.131C29.6303 371.658 24.4794 356.008 22.3245 342.045C21.998 339.926 21.0973 335.404 21.103 333.588C21.103 333.123 21.0819 332.739 21.4968 332.428C26.6535 332.868 31.8697 333.229 37.013 333.849C43.8291 334.67 50.5376 336.108 57.4171 336.536C71.5025 337.414 86.3926 339.1 100.326 342.404C102.23 342.855 104.657 344.231 105.888 344.491C106.294 344.576 106.958 344.109 107.133 344.229C107.321 344.358 108.681 347.895 108.88 348.474C116.711 371.123 122.355 395.291 131.66 417.43C131.804 417.771 132.644 418.593 132.511 418.694L93.7868 409.172C75.4569 406.459 57.5093 401.344 39.2985 398.373C38.995 398.323 38.4534 398.699 38.4073 398.633L38.4112 398.631ZM114.081 360.428C116.353 362.873 117.754 366.153 119.847 368.717C121.677 370.957 124.064 372.709 125.768 375.117C126.636 376.344 127.066 378.073 128.288 379.148C125.97 380.304 127.149 384.334 125.221 385.899C124.936 383.877 124.627 376.676 123.494 375.474C123.068 375.023 122.722 375.036 122.15 375.096L121.372 381.654C121.297 381.764 120.882 381.454 120.794 381.274C120.016 379.675 120.129 375.202 119.743 373.068C119.522 371.849 118.854 370.456 118.725 369.142L116.58 368.939L114.081 360.43V360.428ZM97.4666 415.124C81.7026 412.095 65.397 407.868 50.0133 403.37L38.7991 400.752C39.2869 400.032 39.7248 400.154 40.4681 400.206C42.4559 400.341 45.9935 401.053 48.0908 401.443C52.608 402.286 56.9984 403.262 61.5328 404.146C70.4846 405.892 79.3403 408.057 88.3362 409.442C88.4265 409.936 88.0942 410.681 88.5667 411.026C89.1064 411.422 93.6274 413.11 94.5723 413.401C96.6465 414.042 98.932 414.2 101.018 414.841C100.695 415.919 98.3347 415.29 97.4666 415.124ZM133.658 422.163L108.702 417.534L111.773 417.148L111.393 416.569L94.1037 411.942L91.4149 410.21L133.398 420.702C134.409 421.163 133.748 421.264 133.658 422.161V422.163ZM355.51 383.211C353.096 383.944 350.151 384.348 347.62 384.348L356.837 382.426C356.702 383.18 356.024 383.055 355.51 383.211ZM452.531 361.829C453.17 360.664 454.131 361.03 453.026 359.265C453.409 358.433 457.163 356.67 458.108 356.043C468.126 349.408 478.86 343.793 489.94 338.823L490.506 339.008C483.36 345.008 474.831 349.182 467.335 354.704C464.765 356.597 462.46 358.85 459.837 360.677L459.781 361.968C460.57 362.765 465.499 358.472 466.568 357.793C471.666 354.557 484.047 347.37 489.738 347.1C490.282 347.075 490.408 346.762 490.886 347.501C488.966 349.784 486.959 352.059 484.76 354.073C484.159 354.623 483.452 354.742 482.966 355.171C473.841 363.234 465.464 367.648 455.942 374.521C454.695 375.422 453.524 376.555 452.064 377.566C450.096 378.928 447.91 380.003 446.139 381.648C445.659 381.803 445.369 381.554 445.571 381.077C445.721 380.724 449.877 376.022 450.551 375.274C451.233 374.515 452.8 373.724 452.89 372.966C453.159 370.683 450.057 372.275 448.649 371.797C446.719 373.504 445.139 375.47 443.474 377.423C438.897 382.787 438.874 384.79 436.158 390.912C434.458 394.745 431.395 397.007 427.869 399.175C427.022 399.696 426.277 400.115 425.261 400.219L425.213 401.715C426.127 402.689 431.996 397.348 433.087 396.702L433.271 397.271L422.526 420.623C422.687 417.675 423.523 414.457 423.69 411.572C423.809 409.511 423.292 400.287 423.872 399.388C424.124 398.998 424.954 399.264 424.842 398.433C424.7 397.371 422.065 396.295 422.138 396.121C425.328 393.129 427.896 389.559 430.773 386.273C434.768 381.714 439.598 377.272 443.458 372.777C445.626 370.253 447.507 367.141 449.959 364.644C451.421 363.157 451.158 364.32 452.529 361.825L452.531 361.829ZM382.277 372.287C401.346 366.881 419.357 364.97 438.739 361.48C443.099 360.695 447.612 358.634 452.093 359.273L450.301 361.906C446.621 362.709 442.577 362.57 438.966 363.257C436.333 363.757 433.669 365.125 431.12 365.404C424.331 366.153 418.243 366.061 411.3 367.488C403.722 369.047 396.662 372.646 388.914 372.775C388.296 372.785 387.629 372.372 386.988 372.391C384.654 372.459 381.894 373.209 379.5 373.159C379.797 372.215 381.487 372.511 382.275 372.287H382.277ZM370.504 373.965C372.956 373.498 376.073 373.931 378.533 373.157L378.977 374.724L386.412 373.936C386.308 374.604 385.647 374.608 385.173 374.81C383.316 375.607 380.604 376.524 378.647 377.13C368.581 380.246 359.021 379.941 349.293 382.37C347.616 382.789 345.869 382.93 345.452 384.759C337.856 386.022 330.129 386.119 322.503 387.099C303.578 389.53 284.276 392.037 265.22 393.609C252.665 394.645 238.407 394.674 225.657 395.153C212.36 395.652 199.051 395.07 185.991 397.366C174.719 399.347 165.804 398.612 154.601 398.598C153.384 398.598 152.299 399.146 151.146 399.405L152.387 396.704C155.635 396.023 158.975 396.582 162.241 396.274C170.573 395.484 179.738 393.484 188.025 392.847C188.449 392.814 189.811 392.536 189.744 393.223C187.399 393.117 185.718 394.925 183.698 395.448C182.006 395.886 178.201 396.148 176.482 395.94C175.027 395.764 172.801 393.864 172.843 396.698C174.658 396.549 176.196 397.543 178.009 397.481C181.307 397.369 185.494 395.305 189.108 395.947C189.558 394.163 191.664 393.705 193.408 393.605C195.35 393.491 197.505 394.286 199.522 394.404C204.398 394.688 209.47 393.943 214.329 393.613C214.629 392.11 212.376 393.237 211.444 393.258C207.64 393.345 203.363 393.511 199.525 393.244C198.94 393.204 197.244 393.159 197.046 392.461L220.279 391.681C233.133 390.055 245.915 389.054 258.886 388.984C259.737 388.162 262.238 388.747 263.682 388.592C289.855 385.826 315.721 380.705 342.05 378.183C352.408 377.191 360.388 375.887 370.502 373.965H370.504ZM354.836 366.406C352.631 369.096 351.288 372.925 353.764 375.86L351.054 376.086C350.537 375.735 349.721 372.038 349.738 371.266C349.767 369.993 350.735 367.978 352.203 368.509L352.615 365.443C353.532 365.327 354.396 365.518 354.838 366.406H354.836ZM349.94 362.123L350.885 360.816L351.84 363.516L349.94 362.123ZM353.764 358.501L351.847 360.041L351.841 358.499H353.764V358.501ZM352.612 353.486L351.261 355.024L350.309 353.872L352.612 353.486ZM348.006 330.524C347.44 336.071 347.595 341.742 347.23 347.304C346.518 346.838 346.297 346.014 345.504 345.379C343.358 343.66 338.989 343.094 336.287 343.033C333.909 342.979 334.107 343.982 332.726 344.505C330.669 345.284 328.149 345.325 326.081 346.319C325.311 346.689 321.331 349.298 320.746 349.834C319.805 350.698 319.647 353.116 320.16 354.247C320.723 355.493 324.201 357.299 324.189 357.914C324.185 358.175 320.922 360.01 320.55 360.438C318.214 363.126 322.71 365.767 324.952 366.221L324.946 366.981C323.404 366.952 323.546 370.066 324.374 370.851C325.017 371.461 327.268 371.581 328.232 372.377C329.694 373.585 329.065 378.065 331.672 377.404C332.874 377.099 331.355 376.041 331.184 375.584C330.544 373.871 330.371 372.632 330.558 370.824C330.26 370.425 324.018 369.788 325.964 368.113C326.24 367.874 326.592 367.949 327.051 367.342C327.473 366.782 326.799 365.835 328.547 366.217L328.793 365.252C328.405 364.378 323.469 364.384 322.238 362.958C321.449 362.043 323.456 360.415 324.21 359.871C327.687 357.374 328.184 358.763 331.662 358.896C336.652 359.088 341.098 359.103 345.58 356.645L348.769 354.254C349.35 355.381 348.555 356.963 348.746 357.843C348.849 358.322 350.13 358.285 349.917 359.066L346.424 361.775C346.418 363.994 348.008 366.155 350.305 366.219L347.714 370.71L349.537 376.244C338.49 377.24 327.375 378.029 316.365 379.389C300.486 381.353 284.512 384.882 268.675 386.661C259.579 387.684 250.489 387.182 241.413 387.828C239.911 387.936 232.732 389.524 232.039 388.936C231.706 387.699 231.509 386.707 231.703 385.411C231.781 384.878 234.566 378.885 232.196 379.335C231.303 379.912 232.09 380.527 231.943 381.355C231.578 383.395 228.626 386.225 230.648 388.614L230.203 389.299C218.502 390.836 206.689 390.669 194.935 391.299C181.169 392.038 167.243 393.96 153.445 395.187C152.016 395.315 151.586 394.219 150.017 395.955C144.92 401.601 141.732 410.31 137.057 416.506C136.773 416.882 134.893 419.508 134.436 419.078C134.107 417.96 135.302 418.416 135.534 417.688C135.847 416.708 135.48 414.775 135.626 413.527C136.099 409.484 136.322 405.326 135.964 401.143C135.703 398.091 134.305 394.853 134.436 391.685L135.786 392.845C138.017 391.101 138.999 392.621 140.875 393.123C149.606 395.452 156.647 394.142 165.149 391.662L165.166 390.528H163.624C163.459 390.366 163.557 386.586 163.455 385.88C163.305 384.853 162.485 383.769 162.451 382.596C162.387 380.402 164.682 380.666 163.509 377.328C162.887 375.555 161.003 374.195 160.536 373.267C160.079 372.356 159.647 369.991 158.967 368.773C157.576 366.279 155.356 367.751 153.447 367.679C152.435 367.643 151.354 367.07 150.374 367.066C146.366 367.048 139.181 367.625 135.701 369.613C134.539 370.276 132.959 371.666 133.291 373.153L134.459 373.373C134.912 375.787 133.638 377.346 133.629 379.138C133.625 380.157 134.349 381.421 134.303 381.851C134.259 382.254 132.966 383.29 132.724 383.983C131.822 386.565 133.552 386.914 133.688 388.795C133.806 390.412 132.809 391.496 132.874 393.428C132.951 395.726 134.23 398.544 134.428 401.145C134.729 405.101 134.48 408.954 134.09 412.759C133.959 414.028 134.199 415.394 134.049 416.583C133.982 417.121 133.848 417.692 133.287 417.154C131.211 411.321 128.67 405.602 126.567 399.783C125.858 397.823 121.266 385.033 121.356 384.216C121.389 383.927 122.203 383.917 122.263 383.503L123.29 379.727C123.423 381.102 123.519 382.708 123.794 384.047C123.993 385.029 125.059 389.698 125.42 390.13C125.862 390.661 126.125 390.564 126.751 390.53C127.084 387.95 126.978 384.641 127.909 382.237C128.142 381.639 128.23 381.122 129.056 381.27C128.841 382.395 129.377 383.456 129.407 384.506C129.59 390.921 129.955 397.709 130.642 404.182C130.752 405.207 131.188 408.375 131.43 409.18C131.605 409.764 132.167 409.992 132.705 409.82C134.336 409.303 132.313 404.821 132.16 403.816C131.58 400.036 130.825 394.871 130.581 391.124C130.423 388.702 130.748 386.221 130.571 383.794L131.741 383.576C131.787 383.155 131.785 382.737 131.66 382.324C131.511 381.828 126.824 374.517 126.156 373.576C124.166 370.77 121.408 368.542 119.3 365.8C114.17 359.128 110.799 351.623 108.7 343.457C111.55 342.435 114.329 342.847 117.302 342.253C123.565 341.003 130.329 338.516 136.663 337.393C138.359 337.092 140.178 336.835 141.912 336.911C151.298 341.578 159.353 348.348 168.038 354.129C170.364 354.21 170.64 351.974 171.424 351.281C171.812 350.938 172.943 350.884 173.5 350.282C173.711 350.054 176.16 345.008 176.244 344.709C176.427 344.059 175.363 343.26 176.502 343.449C177.673 343.644 181.013 345.72 182.459 346.342C193.658 351.154 204.843 355.618 217.406 355.034L217.06 356.705L218.17 357.345C220.348 350.432 224.251 344.31 227.341 337.804C229.824 332.577 231.871 327.124 234.372 321.909C239.483 321.139 244.686 321.213 249.817 320.638C260.645 319.426 269.273 318.55 280.227 318.002C301.388 316.945 322.397 314.272 343.587 313.742C344.226 313.726 344.82 313.385 345.454 313.327C346.435 314.923 348.365 316.532 349.101 318.239C350.328 321.087 348.35 327.209 348.01 330.532L348.006 330.524ZM344.933 355.404C344.757 355.667 339.688 357.208 338.928 357.291C335.375 357.679 327.35 357.255 324.164 355.626C322.207 354.627 320.402 352.639 322.296 350.615C322.972 349.894 327.247 347.385 328.305 347.005C329.553 346.558 331.944 345.971 333.252 345.801C333.823 345.728 337.554 345.425 337.777 345.466C338.463 345.595 339.001 347.075 339.736 346.917C341.029 346.45 339.237 344.302 340.485 344.624C344.62 345.693 350.704 351.104 344.601 354.096L344.933 355.402V355.404ZM148.832 380.493C146.224 381.965 136.744 383.437 135.667 379.835C134.908 377.296 137.099 377.512 137.132 376.46L135.972 374.324C140.393 375.231 144.123 376.863 148.805 376.215C149.637 376.099 155.537 374.156 156.334 373.745C157.311 373.24 157.774 372.576 158.631 372.005C158.274 374.851 162.136 376.078 162.138 378.758C162.138 380.533 160.225 381.554 160.069 383.478C160.021 383.528 158.894 383.968 158.827 383.968H153.257L153.816 385.803L161.704 384.739C162.48 388.513 162.579 390.767 158.565 391.811C155.235 392.677 150.34 393.132 146.925 392.837C144.972 392.667 136.565 390.489 135.63 389.135C135.484 388.922 134.151 385.831 134.134 385.642C133.84 382.389 140.745 383.711 142.686 383.576C143.537 383.518 148.538 382.708 148.87 382.457C149.151 382.247 149.427 381.814 149.427 381.461L148.83 380.493H148.832ZM141.718 372.212L149.047 372.597L149.815 370.467L152.873 370.844L152.109 369.306C153.261 369.317 157.361 367.974 157.513 369.888C157.559 370.975 156.649 371.59 155.834 372.082C154.847 372.678 149.931 374.374 148.757 374.619C146.984 374.99 142.777 374.65 141.031 374.064C139.957 373.703 136.535 370.963 138.169 370.157C139.147 369.674 147.509 368.573 147.864 368.937L148.104 370.438L147.639 371.175C145.692 372.198 140.585 368.536 141.722 372.212H141.718ZM350.407 312.295C350.123 312.766 349.988 315.583 348.959 313.35C350.021 312.355 350.918 311.162 352.189 310.416C352.808 310.053 352.688 309.565 353.372 310.456C352.904 311.185 350.714 311.787 350.407 312.295Z" fill="#3F2C22"/>
<path d="M265.23 390.532C267.969 390.333 270.323 390.067 272.927 389.775C275.612 389.474 277.437 390.184 279.415 390.157C280.302 390.146 283.698 389.451 284.635 389.171C285.313 388.969 285.538 389.096 285.388 388.214C283.66 388.614 281.958 388.647 280.185 388.616C273.116 388.494 265.967 388.946 258.886 388.984C255.27 392.475 264.112 390.613 265.228 390.532H265.23Z" fill="#3F2C22"/>
<path d="M109.084 186.198C109.261 184.612 110.966 178.174 113.31 179.633C115.318 180.883 117.035 191.454 117.537 194.111C118.779 194.416 118.186 192.733 118.472 191.773C119.549 188.153 120.535 188.352 121.651 191.711C123.563 197.474 122.709 203.725 128.484 207.613C130.961 189.884 133.698 205.896 136.466 211.557C141.252 221.345 146.407 227.091 154.16 234.492C154.461 234.78 157.175 237.132 156.708 235.6C155.128 232.601 153.029 229.383 151.805 226.246C151.427 225.275 151.442 224.338 151.154 223.427C150.978 222.869 149.211 221.102 151.147 221.108C152.266 221.11 154.285 224.629 155.168 225.569C156.926 227.44 163.19 233.454 165.119 234.513C166.396 235.214 167.249 234.284 167.485 236.354C167.548 236.914 167.686 237.496 166.899 237.327L152.493 224.21C152.645 228.359 158.781 234.513 158.255 238.28L157.29 238.496C156.449 237.166 154.967 236.534 153.822 235.415C146.493 228.262 141.53 223.348 136.675 214.052C134.511 209.907 132.968 205.437 131.359 201.059C128.968 202.203 130.564 207.667 129.07 208.603C128.223 209.06 125.436 206.591 124.827 205.886C122.196 202.844 122.158 194.516 120.225 190.827L119.167 193.629C118.904 195.064 119.613 197.692 117.537 197.968C116.778 191.987 115.34 186.119 112.92 180.605C110.98 179.177 109.925 188.07 109.856 188.905C109.691 190.939 110.847 195.952 108.316 195.653C107.569 189.737 106.76 183.634 104.853 177.904C103.572 176.937 102.633 182.145 102.56 182.733C102.38 184.169 103.301 187.074 101.404 187.163C101.394 182.079 101.533 176.985 101.016 171.924C100.862 170.423 100.017 163.387 98.9014 162.856C98.2676 162.555 98.1313 163.51 98.0487 163.915C97.1211 168.475 97.9047 173.142 97.5801 177.728C97.4898 179 97.4975 180.192 96.0263 179.835C95.5635 173.221 94.9143 166.586 93.3318 160.151C92.552 160.047 92.7038 160.085 92.4714 160.633C92.0124 161.72 91.2019 165.683 91.0771 166.95C90.8043 169.702 91.6359 172.64 90.2013 175.131L88.7762 175.145C85.5593 163.122 87.0477 150.097 83.3429 138.155C82.7841 137.719 81.6183 141.474 81.5184 141.912C79.6055 150.413 80.9806 159.051 81.0306 167.662C78.3802 172.139 77.322 164.654 76.9302 162.544C74.7523 150.84 75.3553 138.555 74.1223 126.776C73.9552 125.182 72.1633 111.913 70.8631 111.921C70.1218 112.953 69.3574 114.589 68.9502 115.78C67.3927 120.327 65.7794 131.565 65.7544 136.417C65.7237 142.315 67.8536 149.186 68.0092 154.938C68.036 155.902 68.1321 157.147 66.8319 157.062C66.4996 153.886 65.6219 150.789 65.2973 147.606C64.8172 142.877 65.257 138.042 64.9055 133.336C64.579 128.975 63.6936 124.58 63.3768 120.208C62.6181 109.768 63.1559 96.717 60.5708 86.7534C59.0805 81.0094 57.7265 82.7112 55.804 87.1392C52.5429 94.6525 50.8777 106.611 50.6818 114.794C50.5013 122.324 51.3483 129.708 52.2394 137.164L50.7241 137.357L44.9393 107.858C44.9816 104.99 44.4899 102.156 44.3094 99.3082C43.666 89.1459 43.9541 78.7693 43.4144 68.4855C43.28 65.9232 42.4657 63.2065 42.6289 60.5921C41.9221 60.4436 41.8741 60.787 41.5726 61.2636C40.8793 62.3537 39.5848 67.1117 39.266 68.5935C36.9536 79.3173 36.1835 91.2779 36.099 102.079C36.0817 104.332 36.8326 109.033 33.7981 109.214C33.8154 108.23 33.4601 107.311 33.3967 106.331C32.1618 87.2299 34.0824 66.2126 31.046 47.3369C30.8059 45.8396 30.103 41.5949 29.3712 40.526C28.9564 39.9201 28.9756 40.2597 28.5435 40.4488C27.0992 41.0778 25.9027 43.3893 25.1441 44.7592C22.3689 49.7718 20.3215 55.9075 18.6122 61.3581C18.5258 61.6321 18.4336 62.5486 18.0399 61.935C18.5911 59.5579 19.1634 56.8915 19.9586 54.5993C21.0879 51.3424 23.8996 44.6685 25.799 41.9441C30.2931 35.4959 31.1497 41.7126 31.82 46.1734C34.5606 64.3854 32.9704 84.3551 34.1631 102.858C34.2072 103.53 34.3071 105.384 34.9428 105.735C35.1733 101.288 35.0004 96.443 35.3288 92.0362C35.8935 84.411 37.2744 73.747 38.9337 66.2512C39.1892 65.0954 41.3172 58.5469 42.0854 58.3038C42.5252 58.1649 42.9535 58.2093 43.1993 58.6704C43.4739 59.4788 43.6929 60.3239 43.7793 61.1748C45.3849 77.2046 43.9445 93.6665 46.1935 109.687C47.2747 117.395 49.4565 124.993 50.3188 132.749L50.7145 130.613L49.904 118.662C50.5147 108.147 51.0947 96.6398 55.1414 87.1875C56.5165 83.975 59.0632 77.9937 61.049 84.7313C63.7589 93.9289 63.1098 105.936 63.7628 115.577C64.0912 120.401 64.6578 125.263 65.3012 130.05C65.8101 130.152 65.9023 129.35 65.9676 128.995C66.6071 125.543 66.7128 121.996 67.4752 118.543C67.6999 117.528 69.8299 108.666 71.8215 110.372C73.1447 114.834 73.9763 119.44 74.5103 124.076C74.7964 126.556 74.4968 130.399 74.9078 132.552C75.0845 133.482 75.8892 133.851 76.4328 134.495L75.2881 134.684C75.6069 138.061 75.4379 141.532 75.6741 144.905C75.9718 149.159 77.1875 163.628 78.8335 166.813C79.0543 167.242 79.3943 167.759 79.8917 167.869C80.0569 163.167 79.8859 158.507 79.8917 153.788C79.8975 149.508 80.03 141.322 82.1215 137.498C82.3923 137.002 82.7188 136.585 83.1605 136.232C84.261 136.228 85.3691 141.655 85.5535 142.695C87.3377 152.775 86.6482 163.628 89.1181 173.655C89.9804 173.873 90.0227 173.304 90.1609 172.6C90.9407 168.65 90.0457 165.017 91.609 160.533C93.0399 156.423 94.0578 158.683 94.7703 161.606C95.6384 165.17 95.8324 169.603 96.0321 173.267C96.6121 173.341 96.6064 172.22 96.6678 171.799C96.8676 170.429 96.6275 168.671 96.8023 167.292C96.9021 166.501 97.9335 160.246 99.4795 161.309C102.166 166.796 101.223 173.159 102.18 179.056L104.673 175.978C106.438 176.011 108.066 189.145 108.437 191.099C108.52 191.531 108.512 192.631 109.09 192.564C109.253 190.524 108.867 188.195 109.09 186.197L109.084 186.198Z" fill="#3F2C22"/>
<path d="M368.082 78.6187C370.327 80.4323 376.369 77.98 377.71 82.2634C378.05 83.3458 378.549 87.1005 378.261 88.098C377.783 89.7631 374.076 92.09 373.341 93.6046C373.31 97.0486 377.62 102.227 374.107 104.763C371.549 106.609 367.863 107.676 365.103 109.978C360.273 114.005 355.969 122.288 356.107 128.659C356.226 134.154 359.916 136.249 354.78 141.493C350.315 146.051 346.687 147.48 344.64 154.282C341.88 163.454 342.744 178.145 341.853 188.51C338.841 223.508 319.978 255.131 305.566 286.344C304.7 287 302.869 291.904 302.107 291.736C301.461 291.596 301.504 290.749 301.692 290.176C302.143 288.806 303.995 286.762 304.676 285.448C306.545 281.846 307.865 277.868 309.639 274.227C323.965 244.838 338.676 217.469 340.702 183.879C341.517 170.383 339.041 154.366 349.333 143.928C351.529 141.702 356.034 139.807 356.034 136.081C356.034 134.597 355.095 132.955 354.94 131.767C354.54 128.691 354.496 124.63 355.677 121.745C358.193 115.598 362.839 108.313 368.775 105.177C369.559 104.763 371.708 104.421 372.937 103.584C375.622 101.751 372.313 97.5599 371.914 95.0382C371.301 91.1774 374.211 90.6526 376.452 88.1096C377.389 86.5429 376.642 82.0376 374.885 81.2427C372.747 80.276 369.06 81.8756 366.82 79.3113C362.382 74.2292 364.861 63.9009 369.497 59.6079C370.191 58.9654 371.451 58.2901 372.403 58.2477C376.369 58.0702 382.842 68.7477 387.574 63.7909C387.772 54.464 378.684 49.7504 377.623 40.6744C377.109 36.2656 378.522 32.5707 375.478 28.5517C370.588 22.0997 363.065 19.4467 355.312 22.2019C353.355 22.8965 348.583 26.2692 347.106 26.1419C345.629 26.0145 342.093 23.7783 340.021 23.2708C338.19 22.8232 336.719 22.6708 334.814 22.7132C334.109 22.4856 334.032 21.625 334.184 21.0404C334.399 20.2146 334.889 20.7259 335.187 20.7838C336.969 21.1408 339.51 21.6077 341.181 22.1055C342.961 22.6361 345.268 24.3494 347.048 24.3513C349.018 24.3513 351.834 21.9588 353.893 21.1581C359.747 18.8814 365.839 18.9624 371.022 22.611C376.068 26.1631 378.86 28.8836 379.467 35.3549C379.723 38.0716 379.154 40.6358 380.003 43.6881C381.284 48.2976 385.822 52.1082 387.645 56.4629C389.346 60.5244 390.9 67.8003 384.015 66.6716C379.767 65.9751 375.653 59.9436 372.403 60.179C370.652 60.3064 367.775 63.818 367.124 65.3229C366.344 67.125 365.727 73.1371 366.077 75.0415C366.146 75.4177 367.853 78.4277 368.086 78.6148L368.082 78.6187Z" fill="#3F2C22"/>
<path d="M427.133 458.442C429.092 456.046 430.345 453.057 432.137 450.545C433.546 448.567 435.69 445.947 437.497 444.353C439.548 442.545 444.762 438.806 444.324 444.239C443.921 449.248 438.883 457.197 436.283 461.658C432.866 467.518 428.72 473.03 425.977 479.278C426.699 479.448 426.89 478.873 427.322 478.51C429.613 476.586 431.758 473.299 434.226 471.168C435.801 469.808 438.021 467.553 440.209 468.269C440.618 468.525 440.159 472.087 440.003 472.727C439.579 474.491 437.983 477.715 437.184 479.542C436.302 481.562 429.888 493.78 430.59 494.717C433.07 492.96 434.944 490.173 437.32 488.169C447.816 479.313 445.993 487.605 443.762 495.798C441.974 502.366 438.809 508.704 436.834 515.079C436.369 516.582 436.4 518.554 435.753 520.184C435.505 520.805 435.789 521.125 434.814 520.954C435.995 508.974 443.23 498.32 444.029 486.226C442.004 484.19 433.348 495.215 431.639 495.969C427.341 497.866 429.83 491.893 430.519 490.212C431.606 487.565 440.301 471.004 439.035 469.637C435.038 471.257 432.369 475.371 429.444 478.327C428.219 479.567 425.1 483.395 424.118 480.316C425.718 476.976 427.529 473.74 429.367 470.532C434.357 461.815 441.614 453.148 442.874 443.008C441.265 441.384 434.297 449.538 433.277 450.923C432.142 452.465 428.255 460.047 427.254 460.317C426.768 460.449 426.452 460.445 426.156 459.997C424.445 457.412 429.081 449.117 430.443 446.533C435.538 436.865 442.851 427.905 445.559 417.154C445.216 416.702 440.051 421.412 439.552 421.92C436.84 424.675 427.786 437.444 425.376 437.973C422.966 438.501 424.291 436.325 424.898 435.175C430.195 425.136 437.85 416.631 442.821 405.716C443.433 404.369 444.878 401.572 445.158 400.343C445.506 398.817 442.663 401.419 442.34 401.761C439.415 404.844 436.479 409.612 434.42 413.295C432.634 413.706 435.136 409.785 435.503 409.168C437.42 405.936 441.342 400.46 444.438 398.463C445.632 397.692 446.646 396.876 446.754 398.824C446.865 400.852 440.289 413.081 438.812 415.579C436.07 420.22 427.228 431.405 425.981 435.491C425.92 435.69 425.875 436.12 426.165 436.06C427.049 434.986 428.313 433.936 429.194 432.929C432.859 428.746 436.268 423.587 440.178 419.653C442.855 416.959 449.18 411.477 446.406 419.735C444.107 426.579 439.389 432.678 435.887 438.881C432.386 445.084 427.946 451.581 427.132 458.444L427.133 458.442Z" fill="#3F2C22"/>
<path d="M167.853 67.9276C168.856 69.8783 175 72.4965 175.735 73.7044C176.166 74.4105 175.783 75.3463 175.002 75.2248L164.366 68.8827C162.532 69.1856 161.026 68.4119 160.939 66.3841C161.892 65.4464 166.507 69.4384 167.852 69.4654C166.895 68.1553 164.644 67.507 164.781 65.6123C165.942 64.4797 175.388 71.4585 177.451 71.7846L177.053 70.5343C172.684 66.2259 169.298 61.4795 164.212 57.8849C161.055 55.6526 157.916 53.4626 154.757 51.1763C152.414 49.4803 148.949 48.6584 147.876 45.7468L149.368 45.2104C151.208 48.1162 154.984 49.8932 157.832 51.9442C164.243 56.5633 170.318 61.4312 176.483 66.3937C179.482 68.8075 182.052 71.6842 185.5 73.5423C186.721 74.2002 189.55 74.1867 187.057 75.4505C189.684 78.0456 193.309 79.2303 196.391 81.1231C210.373 89.711 224.116 105.451 234.29 118.298C235.121 119.349 240.841 126.982 240.821 127.549C240.814 127.759 240.017 128.444 239.665 127.947C237.779 125.037 235.669 121.763 233.523 119.067C225.417 108.878 213.494 95.1848 203.37 87.2316C196.981 82.2113 188.54 78.9466 181.947 74.0111C176.661 73.9147 172.703 69.5599 167.848 67.9334L167.853 67.9276Z" fill="#3F2C22"/>
<path d="M131.361 488.931H130.212C129.473 488.225 132.855 473.816 131.359 471.564C130.541 470.96 127.475 477.323 127.193 477.985C126.329 480.011 125.539 483.989 124.616 485.429C124.308 485.907 123.953 486.347 123.3 486.226L129.058 437.994C128.543 437.328 127.427 439.719 127.324 439.915C124.161 445.835 120.765 453.782 119.171 460.279C118.771 461.907 118.122 468.448 117.346 469.251C116.891 469.721 116.618 469.692 116.004 469.635C115.964 464.658 116.649 459.752 117.926 454.971L118.683 455.156C118.182 457.5 117.35 460.132 117.16 462.501C117.124 462.955 116.837 464.614 117.535 464.616C118.522 460.678 119.125 456.607 120.538 452.775C121.591 449.923 126.698 437.928 128.349 436.311C128.607 436.06 128.697 435.597 129.246 435.661L130.153 436.317C130.256 437.442 130.281 438.596 130.208 439.722C129.674 448.15 127.452 457.834 126.421 466.401C125.878 470.923 125.409 475.519 125.225 480.05L127.84 474.001C129.033 472.525 129.799 469.625 132.098 470.055C134.328 471.626 130.963 485.878 131.363 488.929L131.361 488.931Z" fill="#3F2C22"/>
<path d="M457.667 411.749L457.092 410.789C458.748 409.149 461.688 409.812 463.772 410.246C470.513 411.651 476.659 413.976 483.84 415.168C484.62 415.298 488.344 415.471 488.591 415.61C488.634 415.633 488.163 416.181 488.561 416.563C488.768 416.764 493.203 418.969 493.474 419.004C493.823 419.05 497.182 418.757 496.272 417.926C494.741 417.457 492.417 417.111 491.278 415.996C493.114 415.275 494.445 416.731 495.456 416.957C495.924 417.061 496.456 416.683 496.775 416.743C497.182 416.82 497.115 417.673 497.66 417.866C498.513 418.167 499.927 417.781 500.879 417.924L500.113 418.883L500.879 420.619C499.729 420.634 499.268 419.832 498.01 419.809C496.577 419.782 495.379 420.729 493.765 420.661C492.191 420.594 490.022 418.724 488.342 417.976C483.848 415.979 479.945 416.172 475.434 415.122C473.025 414.561 465.458 411.747 463.812 411.747H457.667V411.749Z" fill="#3F2C22"/>
<path d="M140.579 476.579C139.671 476.733 139.846 476.488 139.633 475.815C137.539 469.195 136.784 462.775 135.976 455.932C134.979 447.492 133.725 438.968 132.423 430.56C132.24 429.379 131.415 427.903 131.153 426.809C130.811 425.383 132.479 425.207 132.824 426.297C133.495 428.408 133.37 431.69 133.713 433.894C135.187 443.315 136.252 452.632 137.562 462.056C138.246 466.976 139.95 471.657 140.578 476.579H140.579Z" fill="#3F2C22"/>
<path d="M15.3607 74.2909C15.378 74.1231 16.0098 73.4574 16.1116 72.73C16.2979 71.4026 15.6238 69.1509 16.8933 68.3116C15.8888 74.3739 16.1827 80.3378 16.5111 86.4444C15.8984 86.4985 15.62 86.539 15.1686 86.0605C14.7692 85.6379 13.4036 80.2741 13.1616 79.2013C12.6988 77.1426 12.5912 74.8234 12.1975 72.8381C11.3698 68.6589 9.84867 64.5453 9.98503 60.2041H11.1335C11.1815 66.9166 13.1885 73.4593 14.2295 80.058L15.3607 82.5875C15.5662 79.9268 15.0822 76.9015 15.3607 74.2909Z" fill="#3F2C22"/>
<path d="M146.729 264.724C146.75 262.606 148.504 261.365 149.153 259.253C149.741 257.335 150.292 251.544 151.31 250.306C151.607 249.943 152.401 249.982 152.487 250.067C152.885 250.458 150.029 259.471 150.1 260.977C149.958 261.703 147.693 265.73 146.729 264.726V264.724Z" fill="#3F2C22"/>
<path d="M155.948 218.424L169.386 228.644C168.929 229.246 168.902 229.225 168.222 229.059C167.224 228.816 164.456 226.518 163.446 225.742C162.021 224.646 157.344 221.092 156.501 219.985C156.098 219.458 155.796 219.182 155.948 218.422V218.424Z" fill="#3F2C22"/>
<path d="M155.948 266.268C155.802 265.095 156.73 264.302 156.991 263.268C157.534 261.105 157.369 258.68 158.07 256.629C158.416 255.622 158.541 254.782 159.785 255.081L158.187 265.628L157.623 266.218L155.95 266.27L155.948 266.268Z" fill="#3F2C22"/>
<path d="M152.752 263.057C152.641 263.192 151.759 263.617 151.725 263.569C151.435 262.639 152.573 257.811 153.449 257.788C154.772 258.712 153.455 262.203 152.752 263.055V263.057Z" fill="#3F2C22"/>
<path d="M442.878 390.524C442.16 391.27 441.63 388.974 441.881 388.585C442.231 388.151 444.701 387.323 445.104 386.95C445.461 386.62 444.622 385.499 446.335 385.899C445.649 387.782 441.92 388.488 442.878 390.522V390.524Z" fill="#3F2C22"/>
<path d="M119.067 454.195C118.276 454.147 118.743 452.318 118.856 451.859C119.188 450.495 120.089 447.874 120.988 446.867L119.067 454.197V454.195Z" fill="#3F2C22"/>
<path d="M42.2485 235.403L46.0877 235.781C44.8317 235.661 42.9956 236.966 42.2485 235.403Z" fill="#3F2C22"/>
<path d="M439.037 391.682C438.895 391.55 440.357 389.399 440.954 389.37C441.394 390.207 439.523 392.133 439.037 391.682Z" fill="#3F2C22"/>
<path d="M102.55 438.76H102.174L102.172 436.45L102.936 436.448L102.55 438.76Z" fill="#3F2C22"/>
<path d="M432.121 359.653C431.512 360.264 430.364 359.111 430.973 358.499C431.581 357.887 432.73 359.041 432.121 359.653Z" fill="#3F2C22"/>
<path d="M138.273 478.508C137.587 478.232 137.835 476.468 137.512 475.809C138.592 476.179 138.26 477.564 138.273 478.508Z" fill="#3F2C22"/>
<path d="M454.4 439.923H453.635V441.463H454.4V439.923Z" fill="#3F2C22"/>
<path d="M489.358 416.378V415.61C490.067 415.518 490.476 415.595 490.891 416.189L489.358 416.378Z" fill="#3F2C22"/>
<path d="M420.214 493.942H419.449C419.357 493.23 419.434 492.819 420.025 492.402L420.214 493.942Z" fill="#3F2C22"/>
<path d="M455.938 378.175L456.364 377.07L457.474 377.023C457.359 377.531 456.339 378.486 455.938 378.173V378.175Z" fill="#3F2C22"/>
<path d="M17.6616 66.3785H17.2851L17.2832 64.4548H18.0476L17.6616 66.3785Z" fill="#3F2C22"/>
<path d="M459.393 376.242L457.859 376.632L459.205 375.48L459.393 376.242Z" fill="#3F2C22"/>
<path d="M419.446 431.82H418.681V432.973H419.446V431.82Z" fill="#3F2C22"/>
<path d="M250.653 136.837C246.207 142.385 241.157 147.525 236.619 153.02C232.776 157.673 228.824 164.511 224.9 168.644C224.481 169.084 224.015 169.773 223.363 169.802C222.901 169.655 223.204 168.972 223.369 168.65C224.967 165.532 231.407 157.637 233.921 154.554C237.656 149.971 242.116 145.827 245.834 141.327C254.997 130.235 262.366 118.226 269.568 105.857C270.062 105.008 272.87 98.4147 274.253 99.5665C274.32 100.223 274.606 100.246 274.285 100.909C273.776 101.965 272.146 103.769 271.404 105.002C264.429 116.603 259.23 126.133 250.653 136.837Z" fill="#3F2C22"/>
<path d="M237.512 169.933C234.37 173.099 231.626 176.8 228.545 180.026L233.533 179.442C234.553 181.581 232.098 184.064 230.662 185.623C227.998 188.516 224.556 190.567 221.623 193.137C220.556 194.072 207.636 206.062 207.037 205.298C206.829 203.554 208.821 203.125 209.906 202.203C215.328 197.584 222.734 191.663 227.581 186.773C228.055 186.295 232.039 181.745 231.614 181.375L226.24 181.757C226.162 181.222 226.306 180.792 226.532 180.316C227.69 177.883 235.267 170.489 237.558 168.241C239.85 165.993 242.252 164.184 244.495 162.088C245.285 161.351 247.91 157.593 248.901 158.607L248.844 159.896C245.085 163.225 241.052 166.368 237.514 169.931L237.512 169.933Z" fill="#3F2C22"/>
<path d="M241.215 278.62L240.455 278.231C240.812 279.965 239.297 280.527 238.891 281.48C238.363 282.716 238.394 283.886 237.443 285.435C236.083 287.65 234.474 288.011 234.685 290.963L234.303 290.193C233.954 289.9 232.321 293.224 232.181 293.662C231.808 294.822 231.484 296.271 230.727 297.405C230.498 297.747 229.183 298.777 228.747 298.683L228.321 297.498C230.84 292.541 233.858 287.785 236.427 282.867C238.284 279.313 243.201 271.086 241.926 267.296C240.864 265.79 238.219 265.965 238.108 263.756C238.085 263.31 239.792 259.204 240.101 258.774C240.572 258.12 241.288 258.195 241.822 257.786C242.446 257.308 242.126 256.233 243.524 256.621C244.693 257.827 238.402 262.488 240.624 264.358C241.363 264.981 242.611 264.796 243.314 265.901C243.754 266.592 244.334 269.463 244.328 270.326C244.307 273.289 241.505 275.799 241.219 278.618L241.215 278.62Z" fill="#3F2C22"/>
<path d="M213.945 231.918C211.447 232.105 208.99 233.001 206.474 233.099C203.23 233.226 199.493 232.646 196.282 232.31C194.786 237.309 192.439 242.113 190.134 246.79C188.064 245.799 191.039 242 191.738 240.294C193.065 237.058 194.131 233.73 194.972 230.342C196.403 229.404 197.271 230.971 197.728 231.123C200.328 231.986 206.586 231.905 209.415 231.424C211.007 231.154 212.363 230.471 213.943 230.386V231.92L213.945 231.918Z" fill="#3F2C22"/>
<path d="M286.763 152.657C284.731 155.54 282.58 160.014 281.099 163.364C279.648 166.645 278.349 169.966 277.366 173.427L275.791 173.655C277.979 165.378 282.749 158.017 285.78 150.118C288.129 150.384 287.869 151.087 286.763 152.657Z" fill="#3F2C22"/>
<path d="M230.848 370.845C230.752 370.732 229.444 368.389 229.406 368.246C228.599 365.262 230.554 362.273 233.072 360.924C239.656 357.399 246.921 357.775 253.889 359.855C255.239 360.259 261.587 362.966 262.161 363.894C263.104 365.422 260.601 367.639 263.498 368.729L261.963 369.308L262.345 372.393L264.79 372.447C266.861 373.795 263.876 375.8 263.876 376.838C263.876 377.571 264.782 377.836 264.963 378.447C265.195 379.242 264.886 380.18 265.113 380.996C265.493 382.368 268.691 383.124 268.875 384.737C268.266 385.262 264.775 383.217 264.256 382.628C262.799 380.975 264.362 378.683 262.153 377.409C261.316 379.825 263.651 381.691 262.727 384.07C262.57 384.473 260.749 385.476 260.43 384.542C259.993 383.261 261.546 383.665 261.571 382.655C261.594 381.797 260.678 379.485 260.465 378.334C259.945 375.526 261.285 373.493 256.831 373.547C255.675 371.357 260.325 370.93 260.423 368.536L257.492 370.434C254.127 368.482 258.235 368.131 258.929 367.201C259.276 366.734 258.731 365.935 259.242 365.626L260.807 365.258C259.486 364.251 256.762 362.468 255.231 361.982C254.175 361.646 255.093 363.315 255.03 364.038C254.769 367.012 253.511 367.058 251.114 367.866C246.702 369.354 241.442 368.679 237.076 367.104C229.131 364.237 242.719 361.943 245.446 361.976L245.083 360.218C241.891 359.159 233.214 361.615 231.595 364.465C230.431 366.514 230.867 369.219 233.068 370.359C233.612 370.641 236.222 371.513 236.834 371.59C238.137 371.754 241.841 370.56 241.215 372.586C240.685 374.299 231.922 372.128 230.848 370.853C231.365 371.449 228.776 373.165 228.599 373.834C228.47 374.324 228.849 376.294 229.116 376.645C229.707 377.425 237.013 377.917 238.532 378.187V379.341C238.221 379.669 230.61 378.754 229.59 378.482C227.931 378.042 226.661 375.142 227.172 373.535C227.441 372.688 229.951 369.817 230.848 370.851V370.845ZM261.581 376.634L263.463 374.467L262.929 373.574L261.627 373.986L261.579 376.636L261.581 376.634ZM261.189 370.847C258.485 372.333 260.575 373.695 261.187 371.418C261.235 371.237 261.187 371.033 261.189 370.847ZM246.981 366.985C253.42 367.895 256.933 361.943 248.659 361.233C247.899 361.167 246.128 361.044 245.83 361.97C247.317 361.7 248.546 361.2 249.668 362.557L249.032 363.473C245.026 362.875 240.503 363.083 236.996 365.258L239.661 366.427C241.897 367.041 244.115 366.776 245.826 365.063L240.835 365.443C239.151 363.932 249.796 362.533 248.89 365.613L246.979 366.985H246.981Z" fill="#3F2C22"/>
<path d="M181.005 390.047L178.42 358.503C180.31 357.818 179.65 362.354 179.767 363.317C180.721 371.241 180.796 379.109 181.714 386.829C181.841 387.894 182.275 389.806 183.604 389.372L182.961 390.483L181.007 390.047H181.005Z" fill="#3F2C22"/>
<path d="M347.616 358.501C347.835 358.721 347.553 359.854 347.259 360.261C346.61 361.164 343.639 362.817 342.413 364.268C341.687 365.127 341.947 366.39 340.514 366.242C338.64 366.047 340.303 364.108 341.071 363.305C341.597 362.755 345.536 359.062 345.87 358.866C346.291 358.619 347.361 358.244 347.616 358.501Z" fill="#3F2C22"/>
<path d="M346.416 368.486C345.529 368.505 342.938 372.659 342.243 370.263C341.849 368.906 344.958 368.059 345.515 366.992L346.462 367.571L346.416 368.486Z" fill="#3F2C22"/>
<path d="M109.464 354.638H109.09L108.704 352.325C109.678 352.622 109.489 353.793 109.464 354.638Z" fill="#3F2C22"/>
<path d="M319.964 381.654L340.126 382.426L341.085 383.771L320.923 383.196C319.974 383.024 319.853 382.58 319.964 381.654Z" fill="#3F2C22"/>
<path d="M315.351 386.285H314.586V387.439H315.351V386.285Z" fill="#3F2C22"/>
<path d="M448.26 370.459C448.269 369.784 449.168 367.631 449.979 367.76C451.434 367.992 448.557 370.417 448.26 370.459Z" fill="#3F2C22"/>
<path d="M314.975 71.3988C315.314 71.1711 316.329 71.447 316.474 72.0258C316.724 73.0099 314.884 78.2985 314.153 79.2593C313.235 80.4633 312.017 79.7841 312.341 78.6033C312.495 78.0457 313.828 76.7954 314.222 75.4699C314.456 74.6808 314.773 71.5338 314.975 71.3988Z" fill="#3F2C22"/>
<path d="M326.11 83.7452L326.876 77.8199C329.97 76.1336 327.12 84.9395 326.11 83.7452Z" fill="#3F2C22"/>
<path d="M107.934 323.765C107.54 323.366 108.696 322.218 109.082 322.611C109.468 323.005 108.32 324.159 107.934 323.765Z" fill="#3F2C22"/>
<path d="M306.612 88.0942C306.831 87.8742 307.265 87.8839 307.48 87.6138C308.179 88.1038 308.116 88.4936 307.98 89.2538C307.928 89.5451 305.879 94.4594 305.708 94.7006C305.348 95.208 305.078 95.4704 304.409 95.318C303.562 95.1251 304.133 94.5115 304.158 94.2838C304.29 93.1397 305.898 88.81 306.612 88.0923V88.0942Z" fill="#3F2C22"/>
<path d="M317.656 107.668C316.403 107.543 315.604 106.462 315.798 105.262C315.931 104.446 319.052 99.9197 319.572 100.34C320.8 103.458 316.002 104.419 317.656 107.668Z" fill="#3F2C22"/>
<path d="M308.324 96.3562C308.729 96.1034 308.669 94.9265 309.975 95.3258C310.357 97.6045 307.624 98.5326 305.867 99.1095C305.518 99.2252 304.761 99.9083 304.602 98.9841C304.442 98.0599 307.603 96.8077 308.324 96.3562Z" fill="#3F2C22"/>
<path d="M327.646 26.252C328.159 29.0613 323.915 26.744 323.052 26.0398C321.818 25.0307 322.169 23.6125 323.225 24.3207C324.572 25.2256 325.697 26.4295 327.646 26.252Z" fill="#3F2C22"/>
<path d="M346.424 350.28C346.698 351.327 342.73 353.847 341.737 354.328C338.496 355.892 331.562 356.878 328.432 354.814C327.107 353.94 326.479 352.344 325.818 350.968C325.958 349.157 334.597 347.387 336.272 347.297C338.351 347.185 345.803 347.906 346.422 350.28H346.424ZM340.721 353.085C340.923 353.208 344.649 350.706 344.159 350.011C340.234 349.105 336.187 348.657 332.25 349.626L332.634 351.549L329.183 350.783C329.73 352.122 328.403 352.408 328.403 352.516C328.393 353.675 331.875 354.767 333.02 354.636L332.701 352.006L336.475 350.008L336.531 351.497C337.649 352.14 339.141 351.731 340.245 352.196C340.825 352.441 340.679 353.058 340.721 353.085ZM338.786 353.864C339.01 352.757 338.263 353.062 337.449 353.102C336.7 353.139 335.225 353.405 334.474 353.594C334.088 353.691 333.318 353.704 333.408 354.25L338.786 353.866V353.864Z" fill="#3F2C22"/>
</g>
<defs>
<clipPath id="clip0_752_25402">
<rect width="513" height="521" fill="white"/>
</clipPath>
</defs>
</svg>
