<svg width="1211" height="596" viewBox="0 0 1211 596" fill="none" xmlns="http://www.w3.org/2000/svg">
<g clip-path="url(#clip0_757_25311)">
<path d="M732.508 82.9818C731.977 83.5117 733.076 92.6501 733.359 93.9548C733.889 96.3617 736.465 98.4391 736.007 101.557C738.219 101.964 741.539 101.253 741.227 104.333L736.799 104.09C737.275 109.215 743.615 104.168 746.483 106.735C747.748 109.8 740.412 109.381 738.594 110.271C741.467 118.351 740.969 127.511 743.301 135.567C749.956 134.127 767.532 137.197 762.319 147.475C757.912 156.162 740.768 159.983 731.946 158.88C728.832 158.491 720.293 155.578 719.522 152.158C718.027 145.518 728.814 132.827 736.463 136.444L732.775 115.848C731.665 115.659 731.562 116.408 730.976 116.947C726.439 121.117 725.194 124.566 723.569 129.937C720.434 140.282 699.871 154.722 689.761 157.958C688.024 158.515 683.919 160.56 683.402 157.87C682.823 154.829 686.312 155.686 688.262 154.947C692.277 153.434 697.968 150.964 701.478 148.61C704.672 146.467 717.788 134.225 718.617 131.06C718.818 130.287 718.023 129.234 718.066 128.261C718.117 127.083 726.477 116.388 727.984 114.422C728.819 113.334 730.97 112.138 731.379 110.88C732.12 108.591 731.028 105.081 729.778 103.101C727.794 101.365 710.818 102.908 707.382 103.45C691.765 105.918 679.988 118.306 664.156 120.618C662.941 116.679 659.376 116.709 656.414 115.185C637.203 105.274 619.909 95.7465 597.22 99.1245C584.389 101.035 571.098 108.84 558.369 112.4C544.191 116.371 533.159 116.795 518.68 115.367C515.743 115.077 512.35 113.776 509.248 113.807C512.401 116.914 517.856 118.061 522.146 118.857C529.503 120.227 536.708 123.714 544.473 125.488C572.154 131.806 599.691 127.09 622.774 145.715C626.295 148.558 630.577 152.751 631.635 157.371C632.551 161.386 630.544 160.106 629.628 161.139C629.465 161.327 628.772 164.544 627.982 165.879C624.012 172.591 607.918 185.166 600.414 186.925C586.131 190.266 567.638 188.201 553.318 185.084C541.897 182.592 529.879 178.396 519.475 173.142C518.201 175.13 528.977 183.628 530.896 184.826C539.067 189.919 548.993 192.098 556.906 197.453C555.442 199.959 552.115 199.141 549.808 200.78L531.663 204.404C545.01 208.514 559.286 211.479 573.241 212.654C581.305 213.333 587.854 212.421 595.73 212.138C598.332 212.047 601.309 212.994 603.987 212.726C614.129 211.71 633.305 203.134 642.351 197.822C648.524 194.193 653.93 188.473 659.963 185.286C661.851 184.286 663.387 183.598 665.483 184.578L665.738 187.541L663.446 189.09L666.022 189.821C664.765 192.063 662.837 189.62 661.842 191.495C658.802 197.223 659.593 210.522 660.171 216.982C661.695 234.025 667.601 248.412 668.31 266.354C668.456 270.056 666.842 273.281 668.59 277.034L664.413 294.249C666.406 291.33 667.403 287.56 668.96 284.394C679.268 263.409 695.183 250.974 704.834 228.382C710.245 215.708 713.88 202.869 712.042 188.944C711.741 186.66 709.256 173.5 708.12 172.775C707.733 172.53 704.808 174.239 704.281 172.519C703.826 171.038 706.55 169.759 707.845 169.996C708.223 169.56 706.291 164.651 705.825 163.73C705.031 162.14 699.717 156.406 703.772 155.727C706.52 155.271 708.682 160.148 709.404 162.226C710.05 164.076 710.931 170.769 711.743 171.262C712.192 171.536 713.083 171.424 713.649 171.402C713.156 172.638 712.564 173.488 712.675 174.949C713.057 180.07 715.645 187.454 716.189 193.018C717.728 208.836 706.711 236.802 698.065 250.06C689.418 263.317 678.648 271.768 671.462 287.08C669.659 290.923 669.357 298.446 664.12 298.076L664.215 295.537C662.478 297.136 662.539 302.651 660.835 303.76C659.104 304.888 657.836 304.416 657.866 302.37C659.58 296.849 662.286 291.16 663.339 285.475C665.338 274.659 664.917 258.011 662.823 247.168C659.525 230.064 653.92 215.961 656.811 197.771C657.157 195.603 657.769 193.444 658.606 191.425C655.813 191.473 654.223 194.232 652.243 195.665C642.858 202.452 624.64 211.494 613.431 214.218C602.498 216.874 581.156 216.679 569.724 215.473C555.366 213.96 537.059 210.68 523.708 205.235C518.982 203.307 519.776 197.561 525.726 199.871C526.507 200.172 526.559 201.077 526.977 201.297C528.728 202.229 530.579 200.761 532.285 200.549C537.905 199.851 543.523 199.601 548.674 196.896C539.549 192.589 530.032 189.484 522.484 182.387C518.35 178.5 515.403 175.578 515.991 169.315C516.463 164.335 521.575 170.742 523.188 171.81C538.652 182.074 588.012 190.519 604.639 182.312C606.42 181.435 616.001 174.042 617.785 172.417C619.077 171.242 625.269 164.049 625.758 162.819C626.678 160.495 625.673 158.231 627.008 155.923C617.494 143.276 604.65 137.419 589.24 135.131C571.356 132.47 553.751 132.328 536.112 127.151C532.235 126.012 527.84 123.539 524.256 122.584C520.307 121.533 515.789 121.656 511.561 120.407C509.732 119.869 499.518 114.645 499.132 113.691C498.229 111.471 502.676 111.352 503.635 109.269L518.965 112.239C532.443 113.614 545.057 112.383 558.181 108.718C572.777 104.64 590.991 93.5483 606.28 94.5762C621.044 95.5684 633.201 100.098 646.569 106.113C651.696 108.424 657.057 110.841 662.118 113.212C663.343 113.787 664.367 115.362 665.272 115.687C671.27 117.827 689.782 105.54 696.335 102.855C706.641 98.6305 718.419 98.9533 729.423 98.9972L725.064 84.421C720.51 83.3834 717.019 83.5413 712.555 81.3339C702.496 76.3655 697.19 68.8361 694.944 57.9428C692.341 45.3177 694.11 32.9227 694.775 20.5097C694.953 17.2505 695.042 13.9864 694.608 10.7472L698.778 11.4844C700.134 10.122 700.882 8.96223 702.557 7.83812C710.578 2.45289 731.962 0.777354 738.631 9.11584C740.791 11.8147 739.016 11.904 739.162 13.3788C739.534 17.1763 742.863 24.3435 743.932 28.4862C748.251 45.1929 758.398 80.3691 732.523 82.9587L732.508 82.9818ZM702.434 13.8806C708.774 14.6619 714.077 15.681 720.528 14.8701C723.206 14.5301 731.202 13.1747 733.398 12.3194C738.457 10.3579 729.176 7.22525 727.191 6.83033C720.651 5.54199 705.906 7.14706 702.434 13.8751L702.434 13.8806ZM736.574 14.7155C731.751 17.37 726.688 17.3538 721.407 17.9455C720.193 18.0847 719.037 18.8349 717.705 18.949C712.475 19.3932 705.896 17.6199 700.784 16.5765C700.427 22.5907 705.036 18.4993 706.278 21.799L697.465 21.9364C696.653 23.9927 699.182 28.1177 699.15 29.0951C699.123 29.8228 697.784 30.4694 697.789 31.0952C697.792 31.5492 698.928 32.507 699.094 33.5538C699.632 36.9465 698.388 43.2934 699.042 47.5036C699.339 49.4003 700.005 50.6619 700.723 52.3577L698.444 54.8144C700.007 54.4461 704.77 51.3137 705.157 50.2841C705.819 48.5319 705.234 42.1449 705.475 39.4797C705.66 37.4501 706.186 32.9202 706.6 31.1019C706.867 29.9255 708.082 29.1656 709.103 28.6907C713.475 31.0762 710.602 31.7954 710.019 33.9799C709.639 35.419 708.787 49.5182 709.386 50.0531C711.044 50.1825 711.738 48.5721 713.314 48.3968C715.717 48.1368 720.07 50.2521 723.16 48.853L723.097 44.4247L729.569 35.6113L720.789 40.0572C719.452 39.939 719.423 36.971 719.83 35.8348C720.472 34.023 731.832 22.4675 733.16 22.6141C738.083 23.1552 727.02 31.7536 726.771 32.3748C726.716 34.3843 729.841 32.4399 730.89 32.301C733.584 31.9433 734.468 33.3229 734.038 36.0398C733.897 36.9527 725.375 43.1482 727.371 46.5788L731.367 46.314L732.673 49.2657C737.083 48.2854 740.77 50.3303 744.824 51.3913C744.457 38.6451 739.011 27.0141 736.579 14.7096L736.574 14.7155ZM727.801 51.6189C723.477 52.0005 719.23 51.4182 714.88 52.0786C709.599 52.8864 707.827 53.2691 710.12 59.0894C720.779 60.2874 733.574 62.4017 743.096 56.6358C745.004 52.9635 733.616 51.4225 731.697 52.8626C729.779 54.3027 729.707 59.5769 725.798 57.8299C724.029 57.0378 728.578 53.1278 727.796 51.6193L727.801 51.6189ZM705.997 54.7917C705.505 54.3769 701.687 57.2945 702.52 58.2565L706.329 58.5588L706.003 54.7914L705.997 54.7917ZM706.494 61.8386C703.689 62.1708 701.38 60.8396 698.875 59.849C700.16 69.5232 712.202 80.5327 721.827 80.6606C724.995 80.7024 731.951 80.1779 734.989 79.536C742.956 77.8557 746.54 67.5407 745.587 60.2095C738.999 63.1022 731.362 63.8953 724.135 64.0063C720.053 64.0665 715.172 63.1788 711.101 62.59C711.403 65.1345 712.734 67.475 714.798 68.9339C711.433 75.6322 707.482 62.33 706.494 61.8386ZM736.823 111.696C735.194 111.586 735.525 112.062 735.708 113.363C735.988 115.344 736.675 120.1 738.264 121.077L736.817 111.696L736.823 111.696ZM735.589 140.959C733.708 142.618 732.946 139.978 731.436 140.065C728.35 140.245 722.188 148.594 723.39 151.713C725.231 156.49 739.975 155.533 744.044 154.798C748.656 153.959 765.01 146.835 757.933 140.968C754.394 138.032 745.374 137.807 741.57 140.446L739.817 138.7C739.048 141.939 741.57 151.55 735.551 146.879L735.59 140.964L735.589 140.959Z" fill="#FFFFF5"/>
<path d="M706.558 111.801C705.176 111.193 697.757 114.675 697.492 115.231C697.014 116.217 698.408 118.509 696.814 119.627C689.999 115.792 695.586 111.744 700.359 109.791C703.748 108.405 706.726 106.415 706.553 111.807L706.558 111.801Z" fill="#FFFFF5"/>
<path d="M711.24 116.93C710.731 117.536 709.041 118.068 708.16 118.722C707.085 119.522 707.566 121.384 704.815 120.831C702.696 117.525 709.549 111.196 711.555 114.548C711.973 115.245 711.719 116.36 711.246 116.93L711.24 116.93Z" fill="#FFFFF5"/>
<path d="M725.169 72.8335L724.891 75.684L718.996 77.1105C717.187 77.1024 714.967 74.1749 715.107 72.3811C717.299 71.0551 719.483 73.9463 720.577 73.8209C721.672 73.6955 722.892 71.3284 725.169 72.8335Z" fill="#FFFFF5"/>
<path d="M732.167 145.068C731.919 146.902 732.177 154.16 729.438 153.54C726.996 151.553 728.961 148.06 728.413 145.399L732.167 145.068Z" fill="#FFFFF5"/>
<path d="M750.266 142.855C750.806 146.917 747.309 152.971 743.231 148.853C743.985 147.073 745.945 146.71 747.059 145.68C748.174 144.65 747.856 142.445 750.26 142.849L750.266 142.855Z" fill="#FFFFF5"/>
</g>
<path d="M39.609 359L0.326 242.455H25.102L45.64 309.937C47.922 317.598 50.693 328.519 50.693 328.519H51.019C51.019 328.519 53.79 317.435 56.072 309.937L76.447 242.455H100.408L61.125 359H39.609ZM109.889 359V242.455H133.524V359H109.889ZM151.59 359V242.455H175.551L214.345 307.492C218.094 313.849 222.495 323.792 222.495 323.792H222.821C222.821 323.792 222.169 311.73 222.169 303.58V242.455H245.478V359H222.658L182.886 294.615C179.137 288.421 174.573 278.478 174.573 278.478H174.247C174.247 278.478 174.899 290.703 174.899 298.853V359H151.59ZM290.713 359V242.455H341.895C355.424 242.455 365.53 246.367 372.376 253.376C378.896 260.059 382.808 269.187 382.808 279.945C382.808 301.95 368.301 316.783 343.851 316.783H315.163V359H290.713ZM315.163 262.993V297.549H339.613C352.001 297.549 358.521 290.703 358.521 280.108C358.521 269.187 351.675 262.993 339.939 262.993H315.163ZM375.357 359L415.944 242.455H440.394L481.47 359H456.857L449.033 334.224H406.979L399.318 359H375.357ZM422.953 282.553L412.521 316.131H443.328L432.896 282.553C430.94 276.359 428.169 264.623 428.169 264.623H427.843C427.843 264.623 424.909 276.359 422.953 282.553ZM428.169 238.054C419.53 238.054 412.358 231.371 412.358 222.732C412.358 214.256 419.53 207.41 428.169 207.41C436.808 207.41 443.98 214.256 443.98 222.732C443.98 231.371 436.808 238.054 428.169 238.054ZM428.169 230.393C432.407 230.393 435.504 226.97 435.504 222.732C435.504 218.494 432.407 215.071 428.169 215.071C423.931 215.071 420.834 218.494 420.834 222.732C420.834 226.97 423.931 230.393 428.169 230.393ZM0.489 553L41.076 436.455H65.526L106.602 553H81.989L74.165 528.224H32.111L24.45 553H0.489ZM48.085 476.553L37.653 510.131H68.46L58.028 476.553C56.072 470.359 53.301 458.623 53.301 458.623H52.975C52.975 458.623 50.041 470.359 48.085 476.553ZM116.411 553V436.455H168.571C181.122 436.455 190.739 439.552 196.77 444.931C203.127 450.636 206.061 457.645 206.061 466.773C206.061 478.672 198.726 486.333 187.805 490.082V490.571C200.682 494.32 209.484 505.078 209.484 519.422C209.484 530.343 206.061 537.841 199.215 543.709C192.532 549.577 182.263 553 169.875 553H116.411ZM140.046 500.84V533.44H167.267C178.677 533.44 185.523 527.083 185.523 517.629C185.523 506.545 177.373 500.84 166.615 500.84H140.046ZM140.046 483.399H165.637C175.906 483.399 182.915 478.509 182.915 469.381C182.915 460.742 176.558 455.689 166.126 455.689H140.046V483.399ZM275.358 555.608C240.965 555.608 219.123 529.854 219.123 494.972C219.123 460.09 240.965 434.173 275.358 434.173C309.751 434.173 331.43 460.09 331.43 494.972C331.43 529.854 309.751 555.608 275.358 555.608ZM275.521 536.211C296.874 536.211 307.306 518.118 307.306 494.972C307.306 471.663 296.874 453.57 275.521 453.57C254.168 453.57 243.247 471.663 243.247 494.972C243.247 518.118 254.168 536.211 275.521 536.211ZM344.357 553V436.455H368.318L407.112 501.492C410.861 507.849 415.262 517.792 415.262 517.792H415.588C415.588 517.792 414.936 505.73 414.936 497.58V436.455H438.245V553H415.425L375.653 488.615C371.904 482.421 367.34 472.478 367.34 472.478H367.014C367.014 472.478 367.666 484.703 367.666 492.853V553H344.357ZM456.101 553V436.455H480.062L518.856 501.492C522.605 507.849 527.006 517.792 527.006 517.792H527.332C527.332 517.792 526.68 505.73 526.68 497.58V436.455H549.989V553H527.169L487.397 488.615C483.648 482.421 479.084 472.478 479.084 472.478H478.758C478.758 472.478 479.41 484.703 479.41 492.853V553H456.101ZM567.845 553V436.455H653.583V456.341H591.48V482.421H645.922V501.818H591.48V533.277H654.072V553H567.845ZM668.765 553V436.455H702.017L718.48 494.972C722.555 509.642 725.815 526.431 725.815 526.431H726.141C726.141 526.431 729.238 509.642 733.313 494.972L749.776 436.455H783.517V553H761.512V486.17C761.512 476.716 762.49 462.046 762.49 462.046H762.164C762.164 462.046 759.556 475.738 757.111 484.214L737.062 553H714.405L694.845 484.214C692.4 475.738 689.792 462.046 689.792 462.046H689.466C689.466 462.046 690.444 476.716 690.444 486.17V553H668.765ZM801.521 553V436.455H887.259V456.341H825.156V482.421H879.598V501.818H825.156V533.277H887.748V553H801.521ZM902.441 553V436.455H926.402L965.196 501.492C968.945 507.849 973.346 517.792 973.346 517.792H973.672C973.672 517.792 973.02 505.73 973.02 497.58V436.455H996.329V553H973.509L933.737 488.615C929.988 482.421 925.424 472.478 925.424 472.478H925.098C925.098 472.478 925.75 484.703 925.75 492.853V553H902.441ZM1008.15 456.341V436.455H1101.88V456.341H1066.83V553H1043.2V456.341H1008.15Z" fill="#FFFFF5"/>
<defs>
<clipPath id="clip0_757_25311">
<rect width="268.383" height="298.322" fill="white" transform="translate(488 18.4817) rotate(-3.9487)"/>
</clipPath>
</defs>
</svg>
