<svg width="834" height="117" viewBox="0 0 834 117" fill="none" xmlns="http://www.w3.org/2000/svg">
<path d="M58.06 114H2.125C1.135 114 0.64 113.835 0.64 113.01V112.68C0.64 111.69 1.135 111.525 2.125 111.525H7.24C10.21 111.525 10.375 111.03 10.375 98.985V17.64C10.375 5.595 10.21 5.1 7.24 5.1H2.125C1.135 5.1 0.64 4.935 0.64 3.94499V3.615C0.64 2.79 1.135 2.625 2.125 2.625H53.77C55.09 2.625 55.255 2.95499 55.255 3.94499V33.81C55.255 34.8 55.09 35.295 54.1 35.295H53.77C52.945 35.295 52.78 34.8 52.78 33.81V32.16C52.78 14.175 46.18 5.76 35.785 5.76H23.74V53.94H31C37.435 53.94 41.56 48 41.56 39.915V38.76C41.56 37.935 41.725 37.44 42.55 37.44H42.715C43.705 37.44 43.87 37.935 43.87 38.76V73.245C43.87 74.235 43.705 74.73 42.715 74.73H42.55C41.725 74.73 41.56 74.235 41.56 73.245V71.1C41.56 63.015 37.435 57.075 31 57.075H23.74V110.865H41.065C53.605 110.865 58.39 95.685 58.555 83.64V82.815C58.555 81.825 58.885 81.33 59.545 81.33H60.04C61.03 81.33 61.195 81.825 61.195 82.815L59.545 112.68C59.545 113.67 59.38 114 58.06 114ZM141.273 114H112.398C111.243 114 110.748 113.835 110.748 113.01V112.68C110.748 111.69 111.243 111.525 112.398 111.525H116.028C117.843 111.525 118.833 110.865 118.833 109.05C118.833 106.41 116.853 101.295 112.233 91.725L99.5279 64.665H99.3629L90.7829 83.475C87.1529 91.23 85.1729 97.5 85.1729 103.275C85.1729 108.39 87.3179 111.525 91.2779 111.525H93.2579C94.0829 111.525 94.5779 111.69 94.5779 112.68V113.01C94.5779 113.835 94.0829 114 93.2579 114H67.1879C66.1979 114 65.7029 113.835 65.7029 113.01V112.68C65.7029 111.855 66.1979 111.69 67.1879 111.69H68.0129C70.6529 111.69 72.1379 111.195 76.2629 104.265C78.4079 100.47 81.2129 94.86 85.3379 86.445L98.0429 61.035L80.7179 24.9C71.6429 5.76 70.3229 5.1 67.3529 5.1H67.0229C66.0329 5.1 65.5379 4.935 65.5379 3.94499V3.615C65.5379 2.79 66.0329 2.625 67.0229 2.625H95.8979C96.8879 2.625 97.3829 2.79 97.3829 3.615V3.94499C97.3829 4.935 96.8879 5.1 95.8979 5.1H92.1029C90.4529 5.1 89.4629 5.595 89.4629 7.57499C89.4629 10.05 91.6079 15.165 96.0629 24.9L106.788 48.495H106.953L114.048 33.15C117.678 25.395 119.658 19.125 119.658 13.35C119.658 8.23499 117.678 5.1 113.883 5.1H111.738C110.748 5.1 110.253 4.935 110.253 3.94499V3.615C110.253 2.79 110.748 2.625 111.738 2.625H137.478C138.633 2.625 139.128 2.79 139.128 3.615V3.94499C139.128 4.76999 138.633 4.935 137.478 4.935H136.818C134.178 4.935 132.528 5.595 127.908 13.515C125.928 17.31 123.123 22.59 119.493 30.18L108.603 51.96L127.413 91.725C136.488 111.03 137.808 111.525 140.943 111.525H141.273C142.263 111.525 142.758 111.69 142.758 112.68V113.01C142.758 113.835 142.263 114 141.273 114ZM179.155 114H147.31C146.32 114 145.825 113.835 145.825 113.01V112.68C145.825 111.69 146.32 111.525 147.31 111.525H152.425C155.23 111.525 155.395 111.03 155.395 98.985V17.64C155.395 5.595 155.23 5.1 152.425 5.1H147.31C146.32 5.1 145.825 4.935 145.825 3.94499V3.615C145.825 2.79 146.32 2.625 147.31 2.625H176.185C189.88 2.625 206.71 7.57499 206.71 33.81C206.71 58.725 192.685 67.14 175.525 67.14H168.76V98.985C168.76 111.03 168.925 111.525 171.73 111.525H179.155C180.145 111.525 180.64 111.69 180.64 112.68V113.01C180.64 113.835 180.145 114 179.155 114ZM175.69 63.84C187.735 63.84 192.52 56.085 192.52 34.635C192.52 10.545 186.415 5.76 176.185 5.76H168.76V63.84H175.69ZM267.022 114H212.242C211.252 114 210.757 113.835 210.757 113.01V112.68C210.757 111.69 211.252 111.525 212.242 111.525H217.357C220.327 111.525 220.492 111.03 220.492 98.985V17.64C220.492 5.595 220.327 5.1 217.357 5.1H212.242C211.252 5.1 210.757 4.935 210.757 3.94499V3.615C210.757 2.79 211.252 2.625 212.242 2.625H244.087C245.077 2.625 245.572 2.79 245.572 3.615V3.94499C245.572 4.935 245.077 5.1 244.087 5.1H236.827C234.022 5.1 233.857 5.595 233.857 17.64V110.865H249.862C261.907 110.865 267.352 96.84 267.682 77.865C267.682 76.875 267.847 76.38 268.672 76.38H269.002C269.992 76.38 270.157 76.875 270.157 77.865L268.507 112.68C268.507 113.67 268.342 114 267.022 114ZM348.812 56.25C348.812 91.395 335.447 116.145 312.017 116.145C288.752 116.145 276.212 94.86 276.212 60.375C276.212 25.23 289.577 0.479996 313.007 0.479996C336.272 0.479996 348.812 21.765 348.812 56.25ZM333.632 56.745C333.632 29.025 331.322 3.285 312.512 3.285C293.867 3.285 291.227 29.685 291.227 59.88C291.227 87.6 293.702 113.175 312.347 113.175C331.157 113.175 333.632 86.94 333.632 56.745ZM416.996 29.025C416.996 43.71 408.251 52.29 395.216 55.59V55.92C407.426 60.045 414.686 68.13 414.686 91.395C414.686 107.07 416.006 112.185 419.471 112.185C422.276 112.185 423.431 107.73 423.761 102.45C423.926 101.625 424.091 101.295 424.916 101.295L425.411 101.46C426.071 101.625 426.401 101.955 426.236 102.945C425.576 112.35 422.276 116.145 416.171 116.145C403.961 116.145 401.156 103.935 401.156 92.055C401.156 71.595 400.991 57.24 386.636 57.24H378.551V98.985C378.551 111.03 378.716 111.525 381.521 111.525H386.636C387.626 111.525 388.121 111.69 388.121 112.68V113.01C388.121 113.835 387.626 114 386.636 114H357.101C356.111 114 355.616 113.835 355.616 113.01V112.68C355.616 111.69 356.111 111.525 357.101 111.525H362.216C365.186 111.525 365.351 111.03 365.351 98.985V17.64C365.351 5.595 365.186 5.1 362.216 5.1H357.101C356.111 5.1 355.616 4.935 355.616 3.94499V3.615C355.616 2.79 356.111 2.625 357.101 2.625H386.636C400.001 2.625 416.996 6.74999 416.996 29.025ZM402.806 29.52C402.806 9.72 396.866 5.76 386.636 5.76H378.551V54.105H386.966C397.856 54.105 402.806 47.505 402.806 29.52ZM487.318 114H431.383C430.393 114 429.898 113.835 429.898 113.01V112.68C429.898 111.69 430.393 111.525 431.383 111.525H436.498C439.468 111.525 439.633 111.03 439.633 98.985V17.64C439.633 5.595 439.468 5.1 436.498 5.1H431.383C430.393 5.1 429.898 4.935 429.898 3.94499V3.615C429.898 2.79 430.393 2.625 431.383 2.625H483.028C484.348 2.625 484.513 2.95499 484.513 3.94499V33.81C484.513 34.8 484.348 35.295 483.358 35.295H483.028C482.203 35.295 482.038 34.8 482.038 33.81V32.16C482.038 14.175 475.438 5.76 465.043 5.76H452.998V53.94H460.258C466.693 53.94 470.818 48 470.818 39.915V38.76C470.818 37.935 470.983 37.44 471.808 37.44H471.973C472.963 37.44 473.128 37.935 473.128 38.76V73.245C473.128 74.235 472.963 74.73 471.973 74.73H471.808C470.983 74.73 470.818 74.235 470.818 73.245V71.1C470.818 63.015 466.693 57.075 460.258 57.075H452.998V110.865H470.323C482.863 110.865 487.648 95.685 487.813 83.64V82.815C487.813 81.825 488.143 81.33 488.803 81.33H489.298C490.288 81.33 490.453 81.825 490.453 82.815L488.803 112.68C488.803 113.67 488.638 114 487.318 114ZM585.838 20.28C584.848 24.57 583.198 33.15 581.383 41.73L566.863 114.66C566.533 115.65 566.368 116.145 565.378 116.145H562.408C561.418 116.145 561.253 115.98 560.758 114.66L542.773 35.955H542.608L525.778 114.66C525.613 115.65 525.283 116.145 524.128 116.145H521.323C520.168 116.145 520.168 115.98 519.673 114.66L499.708 24.57C495.253 5.26499 495.253 5.1 491.293 5.1H490.798C489.808 5.1 489.313 4.935 489.313 3.94499V3.615C489.313 2.79 489.808 2.625 490.798 2.625H519.178C520.168 2.625 520.663 2.79 520.663 3.615V3.94499C520.663 4.935 520.168 5.1 519.178 5.1H516.538C513.568 5.1 511.918 5.92499 511.918 10.05C511.918 13.02 512.743 17.475 514.063 24.57L527.428 92.055H527.593L537.658 42.885C539.143 35.625 540.298 28.695 540.298 21.27C540.298 8.895 537.823 5.1 532.708 5.1H530.893C529.903 5.1 529.408 4.935 529.408 3.94499V3.615C529.408 2.79 529.903 2.625 530.893 2.625H557.953C558.943 2.625 559.438 2.79 559.438 3.615V3.94499C559.438 4.935 558.943 5.1 557.953 5.1H556.633C553.663 5.1 552.178 5.92499 552.178 10.05C552.178 13.02 552.838 17.475 554.323 24.57L568.018 92.55H568.183L577.753 42.885C579.073 35.955 580.063 27.045 580.063 17.805C580.063 9.22499 577.588 5.1 572.308 5.1H569.833C568.843 5.1 568.348 4.935 568.348 3.94499V3.615C568.348 2.79 568.843 2.625 569.833 2.625H595.078C596.068 2.625 596.563 2.79 596.563 3.615V3.94499C596.563 4.935 596.068 5.1 595.078 5.1H593.758C590.128 5.1 588.808 8.07 585.838 20.28ZM631.074 114H601.539C600.549 114 600.054 113.835 600.054 113.01V112.68C600.054 111.69 600.549 111.525 601.539 111.525H606.489C609.459 111.525 609.624 111.03 609.624 98.985V17.64C609.624 5.595 609.459 5.1 606.489 5.1H601.539C600.549 5.1 600.054 4.935 600.054 3.94499V3.615C600.054 2.79 600.549 2.625 601.539 2.625H631.074C632.064 2.625 632.559 2.79 632.559 3.615V3.94499C632.559 4.935 632.064 5.1 631.074 5.1H625.959C623.154 5.1 622.989 5.595 622.989 17.64V98.985C622.989 111.03 623.154 111.525 625.959 111.525H631.074C632.064 111.525 632.559 111.69 632.559 112.68V113.01C632.559 113.835 632.064 114 631.074 114ZM700.129 116.145H696.664C696.169 116.145 695.839 115.815 695.344 114.99L650.959 21.765H650.794V78.69C650.794 106.905 653.764 111.525 660.529 111.525H665.479C666.469 111.525 666.964 111.69 666.964 112.68V113.01C666.964 113.835 666.469 114 665.479 114H637.594C636.604 114 636.109 113.835 636.109 113.01V112.68C636.109 111.69 636.604 111.525 637.594 111.525H640.069C644.689 111.525 647.494 106.74 647.494 78.69V18.3C647.494 5.92499 646.339 5.1 643.699 5.1H639.409C638.419 5.1 637.924 4.935 637.924 3.94499V3.615C637.924 2.79 638.419 2.625 639.409 2.625H656.734C657.559 2.625 658.054 2.95499 658.384 3.94499L697.819 87.93H698.149V37.935C698.149 9.72 695.014 5.1 688.084 5.1H683.464C682.474 5.1 681.979 4.935 681.979 3.94499V3.615C681.979 2.79 682.474 2.625 683.464 2.625H711.184C712.174 2.625 712.669 2.79 712.669 3.615V3.94499C712.669 4.935 712.174 5.1 711.184 5.1H708.544C703.924 5.1 701.284 9.88499 701.284 37.935V114.99C701.284 115.815 700.954 116.145 700.129 116.145ZM773.651 114H717.716C716.726 114 716.231 113.835 716.231 113.01V112.68C716.231 111.69 716.726 111.525 717.716 111.525H722.831C725.801 111.525 725.966 111.03 725.966 98.985V17.64C725.966 5.595 725.801 5.1 722.831 5.1H717.716C716.726 5.1 716.231 4.935 716.231 3.94499V3.615C716.231 2.79 716.726 2.625 717.716 2.625H769.361C770.681 2.625 770.846 2.95499 770.846 3.94499V33.81C770.846 34.8 770.681 35.295 769.691 35.295H769.361C768.536 35.295 768.371 34.8 768.371 33.81V32.16C768.371 14.175 761.771 5.76 751.376 5.76H739.331V53.94H746.591C753.026 53.94 757.151 48 757.151 39.915V38.76C757.151 37.935 757.316 37.44 758.141 37.44H758.306C759.296 37.44 759.461 37.935 759.461 38.76V73.245C759.461 74.235 759.296 74.73 758.306 74.73H758.141C757.316 74.73 757.151 74.235 757.151 73.245V71.1C757.151 63.015 753.026 57.075 746.591 57.075H739.331V110.865H756.656C769.196 110.865 773.981 95.685 774.146 83.64V82.815C774.146 81.825 774.476 81.33 775.136 81.33H775.631C776.621 81.33 776.786 81.825 776.786 82.815L775.136 112.68C775.136 113.67 774.971 114 773.651 114ZM833.94 85.125C833.94 101.13 825.36 116.145 809.025 116.145C801.435 116.145 795 113.835 789.885 110.7L789.72 113.34C789.72 114.33 789.555 114.825 788.4 114.825H788.235C787.41 114.825 787.245 114.33 787.245 113.34L785.925 76.545C785.925 75.555 786.09 75.06 787.08 75.06H787.41C788.235 75.06 788.4 75.555 788.4 76.545L788.565 78.36C788.895 93.705 796.32 113.34 809.52 113.34C818.76 113.34 824.04 106.41 824.04 95.19C824.04 77.205 813.645 69.45 804.24 60.705C795.99 53.115 787.905 45.03 787.905 29.685C787.905 13.185 796.485 0.479996 810.015 0.479996C816.615 0.479996 822.555 3.285 826.35 5.92499L826.515 3.285C826.515 2.29499 826.845 1.8 827.835 1.8H828C828.825 1.8 828.99 2.29499 828.99 3.285V34.635C828.99 35.625 828.825 36.12 827.835 36.12H827.505C826.68 36.12 826.515 35.625 826.515 34.635V33.975C826.515 15.165 817.44 3.285 809.025 3.285C801.6 3.285 797.64 10.215 797.64 19.125C797.64 33.81 805.23 41.565 813.48 48.99C823.215 57.735 833.94 66.15 833.94 85.125Z" fill="#B31E29"/>
</svg>
