<svg width="711" height="68" viewBox="0 0 711 68" fill="none" xmlns="http://www.w3.org/2000/svg">
<path d="M18.648 66L0.72 14.52H7.704L20.376 52.824C21.168 55.2 22.392 59.736 22.392 59.736H22.536C22.536 59.736 23.76 55.128 24.552 52.824L37.08 14.52H43.848L25.776 66H18.648ZM49.5461 66V14.52H56.0261V66H49.5461ZM65.7849 66V14.52H72.6249L96.0969 50.304C97.8249 52.968 99.8409 56.928 99.8409 56.928H99.9849V14.52H106.033V66H99.4089L75.7929 30.144C74.1369 27.624 71.9769 23.736 71.9769 23.736H71.8329V66H65.7849ZM127.168 66V14.52H148.624C154.024 14.52 158.2 16.32 160.864 19.488C163.024 22.008 164.32 25.392 164.32 29.28C164.32 38.712 158.92 44.4 147.688 44.4H133.648V66H127.168ZM133.648 20.136V39.144H147.184C154.456 39.144 157.912 35.472 157.912 29.568C157.912 23.376 154.096 20.136 147.544 20.136H133.648ZM162.509 66L181.445 14.52H188.717L207.725 66H200.669L195.197 50.304H174.677L169.133 66H162.509ZM182.669 27.768L176.549 45.048H193.397L187.493 27.768C186.485 24.888 185.189 20.496 185.189 20.496H185.045C185.045 20.496 183.677 24.816 182.669 27.768ZM185.261 12.288C181.805 12.288 178.997 9.552 178.997 6.168C178.997 2.784 181.805 0.0479951 185.261 0.0479951C188.717 0.0479951 191.525 2.784 191.525 6.168C191.525 9.552 188.717 12.288 185.261 12.288ZM185.261 9.768C187.277 9.768 188.645 8.184 188.645 6.168C188.645 4.152 187.277 2.568 185.261 2.568C183.245 2.568 181.877 4.152 181.877 6.168C181.877 8.184 183.245 9.768 185.261 9.768ZM220.658 66L239.594 14.52H246.866L265.874 66H258.818L253.346 50.304H232.826L227.282 66H220.658ZM240.818 27.768L234.698 45.048H251.546L245.642 27.768C244.634 24.888 243.338 20.496 243.338 20.496H243.194C243.194 20.496 241.826 24.816 240.818 27.768ZM271.449 66V14.52H293.265C298.665 14.52 302.769 15.96 305.649 18.984C307.737 21.144 308.961 24.096 308.961 27.768C308.961 33.456 305.793 36.984 300.681 38.568V38.784C306.513 40.152 311.049 44.328 311.049 51.24C311.049 55.2 309.681 58.584 307.305 61.104C304.425 64.2 299.961 66 294.417 66H271.449ZM277.929 60.168H294.129C297.801 60.168 300.465 59.232 302.193 57.576C303.633 56.064 304.497 54.048 304.497 51.6C304.497 45.192 299.961 42.024 293.697 42.024H277.929V60.168ZM277.929 36.552H292.473C298.737 36.552 302.481 33.456 302.481 28.128C302.481 23.16 299.097 20.136 293.337 20.136H277.929V36.552ZM341.393 67.08C325.841 67.08 316.193 55.632 316.193 40.224C316.193 24.816 325.841 13.368 341.393 13.368C356.945 13.368 366.593 24.816 366.593 40.224C366.593 55.632 356.945 67.08 341.393 67.08ZM341.393 61.392C353.489 61.392 359.969 52.32 359.969 40.224C359.969 28.128 353.489 18.984 341.393 18.984C329.297 18.984 322.816 28.128 322.816 40.224C322.816 52.32 329.297 61.392 341.393 61.392ZM374.316 66V14.52H381.156L404.628 50.304C406.356 52.968 408.372 56.928 408.372 56.928H408.516V14.52H414.564V66H407.94L384.324 30.144C382.668 27.624 380.508 23.736 380.508 23.736H380.364V66H374.316ZM424.238 66V14.52H431.078L454.55 50.304C456.278 52.968 458.294 56.928 458.294 56.928H458.438V14.52H464.486V66H457.862L434.246 30.144C432.59 27.624 430.43 23.736 430.43 23.736H430.286V66H424.238ZM474.16 66V14.52H510.52V20.208H480.64V36.48H507.784V41.952H480.64V60.024H511.384V66H474.16ZM518.949 66V14.52H527.229L543.933 57.288H544.077L560.637 14.52H569.061V66H562.869V23.664H562.725C562.725 23.664 561.357 27.696 560.421 30.144L546.309 66H541.341L527.229 30.144C526.221 27.552 524.925 23.664 524.925 23.664H524.781V66H518.949ZM578.715 66V14.52H615.075V20.208H585.195V36.48H612.339V41.952H585.195V60.024H615.939V66H578.715ZM623.504 66V14.52H630.344L653.816 50.304C655.544 52.968 657.56 56.928 657.56 56.928H657.704V14.52H663.752V66H657.128L633.512 30.144C631.856 27.624 629.696 23.736 629.696 23.736H629.552V66H623.504ZM670.186 20.208V14.52H710.938V20.208H693.802V66H687.322V20.208H670.186Z" fill="#B31E29"/>
</svg>
