<svg width="36" height="36" viewBox="0 0 36 36" fill="none" xmlns="http://www.w3.org/2000/svg">
<path d="M1.23804 17.9056C1.23804 9.93685 1.23804 5.95068 3.70104 3.47534C6.16405 1 10.1286 1 18.0594 1C25.9885 1 29.9548 1 32.4178 3.47534C34.8808 5.95068 34.8808 9.93508 34.8808 17.9056C34.8808 25.8744 34.8808 29.8606 32.4178 32.3359C29.9548 34.8113 25.9903 34.8113 18.0594 34.8113C10.1304 34.8113 6.16405 34.8113 3.70104 32.3359C1.23804 29.8606 1.23804 25.8762 1.23804 17.9056Z" stroke="#3F2C22" stroke-width="1.5" stroke-linecap="round" stroke-linejoin="round"/>
<path d="M27.8122 8.11914H27.7945M26.0274 17.9066C26.0274 20.0305 25.1879 22.0673 23.6936 23.5691C22.1993 25.0709 20.1726 25.9146 18.0593 25.9146C15.9461 25.9146 13.9194 25.0709 12.4251 23.5691C10.9308 22.0673 10.0913 20.0305 10.0913 17.9066C10.0913 15.7828 10.9308 13.7459 12.4251 12.2442C13.9194 10.7424 15.9461 9.89868 18.0593 9.89868C20.1726 9.89868 22.1993 10.7424 23.6936 12.2442C25.1879 13.7459 26.0274 15.7828 26.0274 17.9066Z" stroke="#3F2C22" stroke-width="1.5" stroke-linecap="round" stroke-linejoin="round"/>
</svg>
