<svg width="280" height="33" viewBox="0 0 280 33" fill="none" xmlns="http://www.w3.org/2000/svg">
<path d="M9.268 26.336C4.088 26.336 1.372 23.9 1.372 19.56V5.98H5.432V19.56C5.432 21.632 6.468 23.088 9.184 23.088C11.76 23.088 12.964 21.576 12.964 19.504V5.98H17.024V19.56C17.024 23.844 14.392 26.336 9.268 26.336ZM19.9423 26V5.98H27.7543C33.1023 5.98 36.5463 10.292 36.5463 16.2C36.5463 19.448 35.4543 22.304 33.3543 24.068C31.8703 25.3 29.9383 26 27.4183 26H19.9423ZM24.0023 22.5H27.1383C30.9463 22.5 32.4303 20.176 32.4303 16.2C32.4303 12.224 30.6943 9.452 27.2503 9.452H24.0023V22.5ZM38.7548 26V5.98H53.0908V9.424H42.8148V14.24H51.5228V17.712H42.8148V26H38.7548ZM63.625 26.448C57.717 26.448 53.965 22.024 53.965 16.032C53.965 10.04 57.717 5.588 63.625 5.588C69.533 5.588 73.257 10.04 73.257 16.032C73.257 22.024 69.533 26.448 63.625 26.448ZM63.653 23.116C67.321 23.116 69.113 20.008 69.113 16.032C69.113 12.028 67.321 8.92 63.653 8.92C59.985 8.92 58.109 12.028 58.109 16.032C58.109 20.008 59.985 23.116 63.653 23.116ZM75.4775 26V5.98H84.6615C88.5255 5.98 91.1015 8.22 91.1015 11.552C91.1015 13.904 90.0095 15.696 87.4335 16.396V16.48C89.2815 17.012 90.2335 18.076 90.4855 20.512C90.7655 23.34 90.6535 25.496 91.3535 25.804V26H87.4615C86.9575 25.776 86.9015 23.536 86.7335 21.38C86.5655 19.196 85.3335 17.964 82.8135 17.964H79.5375V26H75.4775ZM79.5375 9.256V14.828H83.8495C86.0615 14.828 87.1535 13.68 87.1535 12.084C87.1535 10.46 86.1175 9.256 83.9615 9.256H79.5375ZM101.472 26.448C96.0398 26.448 92.9598 24.04 92.8198 19.812H96.7958C97.0758 22.22 98.4478 23.172 101.304 23.172C103.376 23.172 105.196 22.444 105.196 20.596C105.196 18.636 103.292 18.244 100.24 17.544C96.6558 16.732 93.3798 15.78 93.3798 11.608C93.3798 7.66 96.5998 5.616 101.052 5.616C105.56 5.616 108.472 7.828 108.78 11.86H104.888C104.664 9.844 103.096 8.836 101.024 8.836C98.8398 8.836 97.4118 9.76 97.4118 11.188C97.4118 12.812 98.8118 13.288 101.78 13.932C105.896 14.828 109.256 15.808 109.256 20.12C109.256 24.18 105.98 26.448 101.472 26.448ZM111.681 26V5.98H115.741V13.96L123.441 5.98H128.481L120.641 13.988L128.985 26H124.225L117.785 16.648L115.741 18.72V26H111.681ZM142.979 26.336C137.799 26.336 135.083 23.9 135.083 19.56V5.98H139.143V19.56C139.143 21.632 140.179 23.088 142.895 23.088C145.471 23.088 146.675 21.576 146.675 19.504V5.98H150.735V19.56C150.735 23.844 148.103 26.336 142.979 26.336ZM153.653 26V5.98H161.465C166.813 5.98 170.257 10.292 170.257 16.2C170.257 19.448 169.165 22.304 167.065 24.068C165.581 25.3 163.649 26 161.129 26H153.653ZM157.713 22.5H160.849C164.657 22.5 166.141 20.176 166.141 16.2C166.141 12.224 164.405 9.452 160.961 9.452H157.713V22.5ZM176.745 26L169.997 5.98H174.253L177.781 17.572C178.173 18.888 178.649 20.764 178.649 20.764H178.705C178.705 20.764 179.181 18.86 179.573 17.572L183.073 5.98H187.189L180.441 26H176.745ZM185.229 26L192.201 5.98H196.401L203.457 26H199.229L197.885 21.744H190.661L189.345 26H185.229ZM193.405 12.868L191.613 18.636H196.905L195.113 12.868C194.777 11.804 194.301 9.788 194.301 9.788H194.245C194.245 9.788 193.741 11.804 193.405 12.868ZM205.142 26V5.98H209.202V22.612H218.61V26H205.142ZM234.607 26L234.467 23.312H234.411C233.039 25.608 231.163 26.42 228.783 26.42C225.759 26.42 223.407 25.328 221.755 23.508C220.103 21.66 219.151 19.084 219.151 16.06C219.151 12.728 220.327 9.816 222.427 7.884C224.051 6.4 226.179 5.588 228.867 5.588C233.907 5.588 236.791 8.36 237.435 12.28H233.459C233.011 10.348 231.527 8.948 228.951 8.948C225.171 8.948 223.295 12.084 223.295 16.06C223.295 20.148 225.451 23.144 228.895 23.144C232.003 23.144 234.047 20.82 234.047 18.608V18.496H229.231V15.36H237.659V26H234.607Z" fill="#FFFFF5"/>
<path d="M279.061 17.0607C279.646 16.4749 279.646 15.5251 279.061 14.9393L269.515 5.3934C268.929 4.80761 267.979 4.80761 267.393 5.3934C266.808 5.97919 266.808 6.92893 267.393 7.51472L275.879 16L267.393 24.4853C266.808 25.0711 266.808 26.0208 267.393 26.6066C267.979 27.1924 268.929 27.1924 269.515 26.6066L279.061 17.0607ZM249 17.5L278 17.5V14.5L249 14.5V17.5Z" fill="#FFFFF5"/>
</svg>
