<svg width="38" height="39" viewBox="0 0 38 39" fill="none" xmlns="http://www.w3.org/2000/svg">
<g clip-path="url(#clip0_427_3356)">
<path d="M37.8042 29.5378C37.7523 29.0643 37.5061 28.8198 37.27 28.4574C37.4831 28.3141 37.6199 27.9108 37.6242 27.901C38.2031 26.5241 37.8834 25.1037 37.8042 23.644C37.7653 22.9345 37.8359 22.062 37.7192 21.3778C37.6544 21.0012 37.9064 18.3613 37.5896 18.1421C37.198 17.8724 36.2533 17.826 35.6831 17.826C35.6831 17.826 30.4804 17.8359 30.1434 17.8457C30.1434 17.8625 26.8876 17.9342 26.889 17.9511C26.889 17.9511 13.4611 18.0845 13.356 18.0775C13.0982 18.0606 12.1133 18.0016 11.9505 17.9637C11.8454 17.9749 11.7389 17.9721 11.6337 17.9679C11.4019 17.9581 9.54574 17.8696 9.5227 17.871C8.77679 17.9426 5.22864 17.7754 5.20704 17.774C5.00544 17.76 3.90961 17.8415 3.59137 17.833C3.05137 17.8162 2.49985 17.8092 1.96562 17.892C1.6085 17.9482 1.18514 18.0621 0.9533 18.3655C0.96194 18.3852 0.95906 18.4077 0.93602 18.4259C0.79634 18.5454 0.649461 18.6704 0.558741 18.8348C0.465142 19.0034 0.397462 19.193 0.341302 19.3771C0.286583 19.5583 0.246263 19.7452 0.218903 19.9321C0.192983 20.1133 0.208823 20.3114 0.148343 20.4856C0.144023 20.4954 0.139703 20.5039 0.132503 20.5109C0.154103 20.657 0.141143 20.8453 0.113783 21.0462C0.113783 21.0504 0.115223 21.056 0.115223 21.0616C0.115223 21.2977 0.102263 21.5337 0.0864234 21.7683C0.0590636 22.1786 0.0230637 22.5888 0.0374636 22.9991C0.0446636 23.2042 0.0777835 23.4023 0.0993834 23.6046C0.116663 23.7732 0.102263 23.9418 0.113783 24.1104C0.233303 24.7497 0.377302 25.3847 0.453622 25.9298C0.466582 26.024 0.457942 26.1279 0.444982 26.2361C0.511222 26.7138 0.756021 27.1451 1.17074 27.4093C1.19522 27.4247 1.20242 27.4472 1.19954 27.4697C1.23698 27.4879 1.27874 27.5034 1.32338 27.5118C1.32338 27.5624 0.767541 28.0696 0.688341 28.2059C0.283703 28.9182 0.338422 29.6727 0.286583 30.4496C0.243383 31.1043 0.260663 31.5665 0.269303 32.2213C0.286583 33.4604 0.169943 34.7502 0.204503 35.9894C0.208823 36.1439 0.169943 36.2956 0.177143 36.4221C0.188663 36.6427 0.289463 36.9307 0.433462 37.1695C0.535702 37.2328 0.627861 37.303 0.725781 37.3747C0.83378 37.4547 0.94754 37.5011 1.07426 37.5461C1.19954 37.591 1.32482 37.636 1.44866 37.6823C1.5077 37.6908 1.56962 37.7062 1.63442 37.7329C1.75826 37.7849 1.88642 37.8355 2.01458 37.8875C2.13697 37.931 2.25793 37.9732 2.38177 38.0125C2.65393 38.1024 2.93041 38.1797 3.21265 38.2317C3.38545 38.2626 3.55825 38.2851 3.73249 38.3019C3.80161 38.3019 3.87217 38.309 3.93985 38.3188C3.98305 38.3216 4.02625 38.3244 4.06801 38.3258C4.08961 38.3258 4.10401 38.3371 4.11409 38.3497C4.18033 38.3637 4.79376 38.3272 4.98816 38.3385C5.40144 38.3638 10.139 38.323 11.6568 38.3455C12.4243 38.3567 15.8184 38.3076 15.8212 38.3076C16.6478 38.2528 21.8001 38.3904 22.5719 38.4298C22.9233 38.448 26.0625 38.4761 26.3879 38.4537C26.3865 38.4129 30.0973 38.4003 30.5524 38.3567C31.4005 38.2752 32.0528 38.1699 32.9053 38.1502C33.0335 38.0701 33.9292 38.1193 34.0847 38.0884C34.0919 38.0659 36.2274 37.9577 36.3973 37.9507C36.6723 37.938 36.9416 37.8369 37.1562 37.6627C37.3664 37.4913 37.5176 37.2594 37.6026 37.0009C37.676 36.7775 37.7351 36.5528 37.7682 36.3237C37.7653 35.5299 37.6717 34.7123 37.7149 33.9311C37.7955 32.477 37.9669 31.0551 37.8013 29.535L37.8042 29.5378ZM1.13762 27.0664C0.558742 26.6365 0.673941 25.8174 0.580341 25.1866C0.551542 24.9913 0.502582 24.7974 0.468022 24.6036C0.427702 24.3844 0.391702 24.1638 0.361462 23.9432C0.303863 23.5147 0.266423 23.0834 0.264983 22.6492C0.264983 22.6282 0.273623 22.6141 0.285143 22.6029C0.285143 22.5481 0.289463 22.4849 0.295223 22.4118C0.290903 22.2938 0.288023 22.1772 0.289463 22.0592C0.289463 21.5801 0.319702 21.1024 0.319702 20.6247C0.319702 20.6092 0.324022 20.5966 0.332662 20.5868C0.344182 20.4069 0.381622 20.2285 0.419062 20.0515C0.457942 19.8632 0.478102 19.6721 0.516982 19.4839C0.527062 19.4319 0.540022 19.3813 0.555861 19.3307C0.550101 19.3054 0.547221 19.2816 0.550101 19.2619C0.554421 19.2352 0.580341 19.2043 0.613461 19.1706C0.629301 19.1326 0.648021 19.0947 0.668181 19.0582C0.743061 18.9219 0.84386 18.7982 0.94898 18.683C1.05698 18.5622 1.1765 18.4512 1.30898 18.3585C1.3709 18.3149 1.4357 18.2798 1.50194 18.2517C1.62578 18.1674 1.7381 18.1435 1.85186 18.1393C2.17873 18.0508 2.50705 17.9792 2.84833 17.9792C3.20833 17.9792 7.81631 18.055 8.34335 18.0564C8.87759 18.0564 12.3739 18.1042 12.7958 18.1801C12.7958 18.1801 15.6873 18.1407 15.8457 18.1716C16.0056 18.2025 33.4655 17.9778 33.5 17.9792C33.9983 17.9932 36.6623 17.9412 37.1375 18.1C37.5464 18.2363 37.5709 18.3543 37.6688 19.0118C37.7379 19.4754 37.5867 21.4522 37.6688 21.9074C37.7523 22.3753 37.6371 22.6254 37.6832 23.0974C37.7394 23.6721 37.7711 25.254 37.8071 25.4606C37.8488 25.698 37.8589 25.9369 37.8272 26.1757C37.7984 26.3879 37.8272 26.7883 37.7581 26.9892C37.7264 27.0833 37.6443 27.6088 37.5752 27.7661C37.5075 27.9193 37.3419 28.1778 37.2023 28.2677C36.9114 28.456 36.3973 28.4517 36.069 28.5459C35.7205 28.6456 35.3202 28.7454 34.9631 28.6302C34.9559 28.6274 34.9487 28.6246 34.9429 28.6189C34.881 28.6231 34.8205 28.6274 34.76 28.633C33.2264 28.7693 31.7116 28.8788 30.1665 28.8269C29.7906 28.8142 25.7514 28.7355 24.9033 28.5655C24.5894 28.5023 24.0162 28.1623 23.7009 28.1146C23.3754 28.0654 22.1241 28.0415 21.9902 28.0443C21.7785 28.0499 19.6171 28.2663 18.7718 28.3913C18.6033 28.4166 17.6615 28.536 17.5348 28.5585C17.4095 28.581 16.2619 28.7552 15.9537 28.692C15.6556 28.6316 14.3064 28.4644 13.9924 28.3773C13.5316 28.2494 12.9384 28.1595 12.4329 28.0232C12.0542 27.9811 10.1721 27.9207 9.73726 27.9431C8.58527 28.0036 3.69073 27.7788 3.19825 27.6537C3.06001 27.6186 2.90881 27.5582 2.75329 27.4936C2.55313 27.4627 2.35441 27.4261 2.15857 27.3784C2.09089 27.3615 2.02322 27.339 1.95554 27.3123C1.66898 27.2744 1.38098 27.2407 1.14194 27.0636L1.13762 27.0664ZM37.6587 36.2156C37.6587 36.6047 37.5896 37.0276 37.3175 37.3311C37.2613 37.428 37.0943 37.5587 36.9992 37.629C36.7343 37.8242 36.6781 37.7807 36.37 37.8509C35.9927 37.9352 35.4498 37.865 35.097 37.9226C34.75 37.9802 32.2429 38.0828 31.9103 38.1376C30.9714 38.2907 30.0498 38.2261 29.1138 38.2893C27.802 38.3778 13.0521 38.1558 12.2832 38.1544C11.1038 38.1502 8.21375 38.2022 8.18351 38.1994C7.69823 38.1544 4.42657 38.1614 3.99745 38.1614C3.97729 38.1614 3.96289 38.1544 3.95281 38.1432C3.83041 38.1404 3.22849 38.1235 3.01537 38.049C2.85121 38.0125 2.70577 37.9718 2.54305 37.9268C2.38177 37.8818 2.21185 37.8256 2.05058 37.7793C1.77554 37.702 1.67042 37.6866 1.41554 37.5559C1.29026 37.4927 1.11746 37.5222 1.00658 37.4252C0.9533 37.3901 0.714261 37.2482 0.672501 37.1976C0.584661 37.0923 0.470902 36.9855 0.417622 36.8576C0.357142 36.7101 0.288023 35.9275 0.288023 35.7266C0.288023 35.7112 0.344182 35.4302 0.351382 35.3332C0.378742 34.9539 0.344182 34.5156 0.351382 34.1348C0.377302 32.7678 0.430582 31.4064 0.512662 30.0393C0.547221 29.4703 0.601941 28.8578 0.87698 28.3478C0.99362 28.13 1.15058 27.8884 1.36226 27.7535C1.4501 27.6973 1.54658 27.6692 1.64738 27.6565C1.70498 27.6326 1.74098 27.6341 1.7669 27.6467C1.86914 27.6439 2.20465 27.6467 2.31553 27.6903C2.47249 27.7113 4.54464 27.946 5.06304 27.96C5.31216 27.967 7.07903 28.0443 7.41311 28.064C7.99775 28.0977 9.39022 28.0415 9.9763 28.0696C10.2686 28.0836 11.1485 28.116 11.3817 28.0935C11.6064 28.0724 12.6907 28.2185 12.924 28.3056C13.2868 28.307 15.9033 28.8353 16.0646 28.8437C16.2403 28.8536 17.9884 28.6456 18.2951 28.5908C18.4291 28.5669 19.5638 28.4152 19.7107 28.3745C19.8676 28.3309 21.623 28.1609 21.9427 28.1581C22.2623 28.1553 23.9226 28.2621 23.8866 28.2944C24.0796 28.3393 24.4972 28.5669 24.6902 28.6077C25.3022 28.7327 26.3735 28.81 26.9985 28.8437C27.6551 28.8803 29.5631 28.9519 30.1809 28.9688C30.7324 28.9828 31.2825 28.9955 31.834 28.9884C32.3783 28.9814 32.9212 28.9575 33.4655 28.9407C33.7189 28.9322 33.9738 28.9294 34.2272 28.928C34.2359 28.9112 34.2532 28.8971 34.2791 28.8971C34.4519 28.8971 34.6204 28.8648 34.7917 28.8437C34.9631 28.8212 35.1344 28.8227 35.3072 28.8241C35.4397 28.8241 35.5722 28.8283 35.7047 28.8311C35.7148 28.8142 35.7306 28.803 35.7551 28.8016C36.0632 28.7988 36.3512 28.6442 36.6493 28.5838C36.9071 28.5318 37.1692 28.5599 37.3376 28.7833C37.4514 28.9336 37.5104 29.1303 37.5637 29.3102C37.6242 29.5111 37.6645 29.7176 37.6919 29.9255C37.7466 30.3302 37.7423 30.7348 37.7495 31.1422C37.7552 31.4808 37.6544 35.9402 37.6559 36.217L37.6587 36.2156Z" fill="#3F2C22" stroke="#3F2C22" stroke-width="0.5" stroke-miterlimit="10"/>
<path d="M23.7714 22.7251C23.0831 21.8428 20.8396 21.3932 19.7668 21.5533C19.0525 21.6601 18.1554 21.6011 17.4225 21.6826C16.7269 21.7613 16.0372 21.9313 15.3446 22.0423C15.3359 22.0465 15.1775 22.0675 15.1286 22.0746C15.1286 22.0746 14.5079 22.2544 14.4374 22.2966C14.1335 22.4623 13.8844 22.7223 13.9348 23.0932C13.9348 23.103 13.9348 23.1114 13.9348 23.1199C13.978 23.2632 14.0169 23.3854 14.0327 23.4247C14.1681 23.7633 14.4633 24.0584 14.7412 24.2874C15.791 25.1571 16.9948 25.1191 18.2793 25.2301C19.9597 25.3748 22.0636 25.5701 23.4474 24.4026C23.5554 24.3113 23.6576 24.1722 23.7541 24.0218C23.96 23.6987 24.0133 23.2969 23.8837 22.9344C23.8564 22.8599 23.8218 22.7883 23.7728 22.7251H23.7714ZM23.7858 23.7985C23.7383 23.9544 23.0212 24.6372 22.726 24.7749C22.3847 24.9337 21.7568 25.1163 21.3853 25.1585C20.9965 25.202 20.5228 25.1992 20.1325 25.2062C19.3319 25.2217 17.0265 25.0503 16.2834 24.9323C16.0113 24.8887 15.0508 24.4827 14.8492 24.2846C14.6822 24.1202 14.3207 23.7718 14.2055 23.5666C14.1047 23.3868 13.9953 23.0328 14.05 22.8248C14.0745 22.7279 14.3697 22.4174 14.374 22.416C14.4086 22.3921 15.4641 22.097 15.7362 22.0451C16.282 21.9411 17.6586 21.7486 17.6961 21.7486C17.8991 21.7486 20.3428 21.5618 20.7517 21.6151C21.2168 21.677 22.9693 22.1448 23.3048 22.4188C23.4488 22.5368 23.734 22.7883 23.8016 22.9653C23.8722 23.148 23.8434 23.613 23.7872 23.7985H23.7858Z" fill="#3F2C22" stroke="#3F2C22" stroke-width="0.5" stroke-miterlimit="10"/>
<path d="M36.3469 35.4273C36.3383 35.4133 36.1727 35.1871 36.1583 35.1857C35.8962 35.1641 35.6994 35.1833 35.5679 35.2433C35.5463 35.2531 35.5247 35.2615 35.5031 35.2714C35.1143 35.4301 34.9789 35.9177 35.2367 36.2506C35.2439 36.2591 35.2511 36.2675 35.2583 36.2773C35.4584 36.519 35.9783 36.3883 36.2072 36.2267C36.4621 36.0455 36.5053 35.6886 36.3469 35.4287V35.4273ZM36.0589 36.1832C35.9682 36.2141 35.8299 36.3265 35.7349 36.3167C35.637 36.3054 35.3677 36.2394 35.2842 36.1818C34.9746 35.9654 35.1935 35.5032 35.5376 35.3191C35.565 35.3037 35.8976 35.2348 35.9034 35.2601C35.997 35.27 36.1064 35.3725 36.1943 35.4062C36.3195 35.4554 36.3498 35.6338 36.3771 35.7603C36.4203 35.9584 36.2504 36.1172 36.0575 36.1832H36.0589Z" fill="#3F2C22" stroke="#3F2C22" stroke-width="0.5" stroke-miterlimit="10"/>
<path d="M36.3354 30.9413C36.3267 30.9272 36.1611 30.701 36.1467 30.6996C35.8846 30.6781 35.6878 30.6973 35.5563 30.7572C35.5347 30.7671 35.5131 30.7755 35.4915 30.7853C35.1027 30.9441 34.9674 31.4316 35.2251 31.7646C35.2323 31.773 35.2395 31.7815 35.2467 31.7913C35.4469 32.033 35.9667 31.9023 36.1957 31.7407C36.4506 31.5595 36.4938 31.2026 36.3354 30.9427V30.9413ZM36.0474 31.6972C35.9566 31.7281 35.8184 31.8405 35.7234 31.8306C35.6254 31.8194 35.3562 31.7534 35.2726 31.6958C34.963 31.4794 35.1819 31.0172 35.5261 30.8331C35.5534 30.8177 35.8861 30.7488 35.8918 30.7741C35.9854 30.7839 36.0949 30.8865 36.1827 30.9202C36.308 30.9694 36.3382 31.1478 36.3656 31.2743C36.4088 31.4724 36.2389 31.6311 36.0459 31.6972H36.0474Z" fill="#3F2C22" stroke="#3F2C22" stroke-width="0.5" stroke-miterlimit="10"/>
<path d="M8.38796 1.239C8.42108 1.23478 8.4542 1.22635 8.48876 1.21792C8.4758 1.21792 8.46428 1.22073 8.45132 1.22214C8.35052 1.23338 8.24828 1.23759 8.14748 1.24883C8.13884 1.25445 8.12876 1.25726 8.12012 1.25726H8.08988C8.08988 1.25726 8.0798 1.25726 8.07548 1.25445C8.03084 1.25586 7.98908 1.25726 7.94012 1.24181C7.91564 1.23338 7.89116 1.22354 7.86812 1.21371C7.83068 1.20387 7.79468 1.19123 7.7558 1.18561L7.72412 1.26148C7.94588 1.26288 8.16764 1.26569 8.38796 1.23759V1.239Z" fill="#3F2C22" stroke="#3F2C22" stroke-width="0.5" stroke-miterlimit="10"/>
<path d="M9.33263 4.01945L9.34415 4.07143C9.46511 4.08408 9.52991 3.98151 9.62927 3.9478C9.62927 3.9773 9.63359 4.00961 9.62927 4.03912C9.43199 5.15747 9.50399 6.42053 9.60911 7.55152C9.73727 8.92558 9.95903 10.2308 10.3651 11.5444C10.4357 11.772 10.4875 12.053 10.5725 12.2722C10.6344 12.4295 10.7539 12.6108 10.8201 12.7738C10.8662 12.889 10.9051 13.1124 10.9569 13.1953C11.5315 14.1155 11.6568 14.9669 11.9793 15.9602C12.0686 16.2342 12.0571 16.7414 12.1104 17.0505C12.1579 17.3272 12.2097 17.6054 12.2616 17.885C12.2817 17.885 12.3005 17.8864 12.3206 17.8878C12.2184 17.3652 12.1147 16.8411 12.1061 16.3072L12.0945 16.3002C12.0801 16.1597 12.0758 16.0164 12.0398 15.8773C11.8411 15.1257 11.615 14.3782 11.3054 13.6603C10.9267 12.7836 10.5782 12.0741 10.3118 11.1384C10.0238 10.1282 9.80783 8.96772 9.75455 7.92243C9.74735 7.78053 9.72863 7.63161 9.71423 7.49111C9.71711 7.49111 9.71855 7.4883 9.72143 7.4883C9.71567 7.44475 9.71423 7.39979 9.71423 7.35483L9.60767 5.10267C9.60767 5.10267 9.61199 5.10408 9.61487 5.10548C9.61487 4.98747 9.61919 4.86945 9.63215 4.75284C9.64511 4.63201 9.66527 4.51119 9.67823 4.38895C9.69119 4.26953 9.69551 4.15011 9.70415 4.03069C9.70847 3.98011 9.71711 3.93656 9.73583 3.89019C9.75455 3.84664 9.78191 3.80168 9.78479 3.75251C9.78479 3.74267 9.78767 3.73424 9.79199 3.72722C9.79199 3.6654 9.78767 3.60358 9.76463 3.54598C9.72143 3.4406 9.62639 3.36333 9.63359 3.2425C9.64223 3.10341 9.71999 2.96994 9.76175 2.83788C9.80639 2.70159 9.82079 2.56812 9.78911 2.42763C9.78191 2.42201 9.77471 2.41358 9.77183 2.40234C9.75167 2.33349 9.70271 2.28011 9.66239 2.2225C9.63503 2.18316 9.60767 2.14523 9.57887 2.1073C9.52415 2.03705 9.45791 1.95415 9.52271 1.86986C9.58607 1.78837 9.67967 1.73077 9.74879 1.65349C9.79775 1.5987 9.83519 1.5411 9.87407 1.48068C9.90575 1.4301 9.94895 1.37953 9.96047 1.32052C9.96047 1.3163 9.96191 1.31209 9.96479 1.30787C9.96479 1.30225 9.96767 1.29804 9.97055 1.29242C9.98495 1.26572 10.0094 1.23481 10.008 1.2025C10.008 1.17019 9.98063 1.13928 9.95903 1.1168C9.92159 1.07886 9.87695 1.04514 9.83519 1.01002C9.75887 0.943987 9.65663 0.849855 9.54863 0.84845C9.54575 0.84845 9.54143 0.84845 9.53855 0.84845C9.52991 0.873739 9.51263 0.896218 9.49247 0.910268C9.49679 0.918698 9.49823 0.928533 9.49823 0.938367C9.49967 0.986136 9.45647 1.01845 9.41327 1.04374C9.45935 1.02828 9.50543 1.01143 9.55151 0.991756C9.63935 1.07605 9.86687 1.15754 9.88847 1.27696C9.90863 1.38655 9.63359 1.69424 9.54575 1.77572C9.48815 1.82911 9.43343 1.80804 9.41471 1.93168C9.37151 2.22672 9.65087 2.26325 9.68687 2.51052C9.73439 2.85052 9.42767 3.12308 9.52847 3.42936C9.55151 3.49961 9.69839 3.59936 9.68975 3.70614L9.59183 3.75813C9.63215 3.90846 9.44639 3.97027 9.32831 4.01664L9.33263 4.01945Z" fill="#3F2C22" stroke="#3F2C22" stroke-width="0.5" stroke-miterlimit="10"/>
<path d="M8.27134 0.639116C8.28574 0.639116 8.29726 0.643331 8.30446 0.650356C8.45854 0.634902 8.62558 0.620852 8.7883 0.615232C8.72926 0.605397 8.67166 0.594158 8.61406 0.578703C8.5651 0.564654 8.51758 0.550604 8.46862 0.543579C8.47438 0.556224 8.48014 0.567463 8.48734 0.580108C8.38366 0.609612 7.83935 0.611017 7.81055 0.672836C7.81055 0.672836 7.81055 0.674241 7.81055 0.675645C7.87247 0.667216 7.93439 0.661596 7.99631 0.658786C8.08847 0.654571 8.18063 0.639116 8.27278 0.637712L8.27134 0.639116Z" fill="#3F2C22" stroke="#3F2C22" stroke-width="0.5" stroke-miterlimit="10"/>
<path d="M10.0137 1.20388C10.0137 1.17157 9.98636 1.14066 9.96476 1.11818C9.92732 1.08025 9.88268 1.04653 9.84092 1.0114C9.78908 0.966443 9.72716 0.910245 9.65804 0.876526C9.65372 0.907435 9.65372 0.935534 9.66092 0.949584C9.6998 1.03529 9.97196 1.12942 9.98636 1.21231C9.98924 1.23198 9.98636 1.25727 9.9806 1.28396C9.995 1.25868 10.0152 1.23058 10.0137 1.20248V1.20388Z" fill="#3F2C22" stroke="#3F2C22" stroke-width="0.5" stroke-miterlimit="10"/>
<path d="M9.66667 2.22532C9.63931 2.18598 9.61195 2.14805 9.58315 2.11012C9.56299 2.08342 9.54139 2.05532 9.52411 2.02582C9.55003 2.19722 9.78475 2.30541 9.79915 2.51334C9.80059 2.54144 9.79051 2.69036 9.78043 2.7845C9.81067 2.66789 9.81787 2.55268 9.79195 2.43185C9.78475 2.42623 9.77755 2.4178 9.77467 2.40656C9.75451 2.33772 9.70555 2.28433 9.66523 2.22673L9.66667 2.22532Z" fill="#3F2C22" stroke="#3F2C22" stroke-width="0.5" stroke-miterlimit="10"/>
<path d="M9.63065 4.43392C9.61769 4.5983 9.61337 4.76549 9.60905 4.92987C9.61337 4.93549 9.61625 4.9397 9.62057 4.94392C9.62345 4.88069 9.62777 4.81747 9.63497 4.75425C9.64793 4.63342 9.66809 4.51259 9.68105 4.39036C9.69401 4.27094 9.69833 4.15152 9.70697 4.0321C9.71129 3.98152 9.71993 3.93797 9.73865 3.8916C9.75737 3.84805 9.78473 3.80309 9.78761 3.75392C9.78761 3.74408 9.79049 3.73565 9.79481 3.72863C9.79481 3.66681 9.79049 3.60499 9.76745 3.54739C9.72425 3.44201 9.62921 3.36474 9.63641 3.24391C9.64361 3.13573 9.69257 3.02895 9.73433 2.92499C9.69257 2.98681 9.63065 3.07391 9.61625 3.11606C9.49529 3.44482 9.78617 3.48135 9.78185 3.70896C9.78041 3.79887 9.71993 3.81011 9.69689 3.89582C9.66377 4.02226 9.64361 4.29202 9.63209 4.43111L9.63065 4.43392Z" fill="#3F2C22" stroke="#3F2C22" stroke-width="0.5" stroke-miterlimit="10"/>
<path d="M9.29229 0.747274C9.28221 0.748679 9.27069 0.747274 9.25917 0.743059C9.24333 0.736034 9.22605 0.72901 9.21021 0.721985C9.06765 0.789423 8.90061 0.840002 8.74221 0.828762L8.73069 0.747274C8.71485 0.71496 8.55214 0.766944 8.5291 0.779588C8.51182 0.789423 8.33326 1.03529 8.29582 0.995952L8.35774 0.758514L8.30734 0.72901C8.30734 0.72901 8.30302 0.733225 8.2987 0.736034L8.19934 0.851241L8.13886 0.811902C8.0827 0.820332 8.00638 1.03529 7.98334 1.14909C8.00926 1.15471 8.0323 1.15612 8.05534 1.15471C8.05534 1.15331 8.05822 1.1519 8.05966 1.14909C8.05966 1.14909 8.05966 1.14909 8.0611 1.14769C8.06686 1.13785 8.0755 1.12802 8.08558 1.11959C8.09134 1.11537 8.0971 1.10975 8.1043 1.10554C8.1115 1.09851 8.11006 1.10132 8.10718 1.10273C8.10718 1.10273 8.11006 1.10132 8.1115 1.09992L8.2411 0.914465L8.20942 1.07885C8.34622 1.12521 8.42254 0.906035 8.51758 0.891985C8.65005 0.873721 8.65149 1.00438 8.72925 1.01703C8.79693 1.02827 9.02589 0.955209 9.10797 0.932729C9.15117 0.921489 9.17997 0.903225 9.20589 0.8962C9.20877 0.89058 9.21165 0.886365 9.21597 0.882151C9.23901 0.858266 9.28365 0.845622 9.32973 0.844217C9.31533 0.790828 9.39597 0.817522 9.41757 0.768349C9.33405 0.800663 9.31965 0.776778 9.29085 0.748679L9.29229 0.747274ZM9.15549 0.870911C9.11085 0.89058 8.74221 1.00298 8.74221 0.921489L9.20733 0.807688C9.21597 0.851241 9.18861 0.856861 9.15549 0.870911Z" fill="#3F2C22" stroke="#3F2C22" stroke-width="0.5" stroke-miterlimit="10"/>
<path d="M9.5774 0.865272C9.5774 0.865272 9.5702 0.858247 9.56012 0.851222C9.55868 0.851222 9.5558 0.851222 9.55436 0.851222C9.52844 0.851222 9.5126 0.835768 9.5054 0.817503C9.47804 0.800644 9.44924 0.783784 9.44204 0.779569C9.40172 0.761305 9.3614 0.74585 9.32252 0.730396C9.30668 0.74585 9.28364 0.752875 9.25916 0.741635C9.12236 0.678412 8.97404 0.647503 8.82716 0.620809C8.75516 0.608164 8.6846 0.596924 8.61405 0.577255C8.60541 0.574445 8.59533 0.571635 8.58669 0.57023C8.40381 0.557585 8.21373 0.560395 8.00493 0.57023C7.83357 0.577255 7.66941 0.603949 7.50525 0.633453C7.49661 0.640478 7.48653 0.646098 7.47357 0.646098C7.40157 0.653123 7.34541 0.703701 7.27917 0.717751C7.05309 0.792214 6.34461 0.911636 6.75789 1.18982C6.82845 1.20668 6.74925 1.10412 6.76797 1.08726C6.95949 1.07602 7.12509 1.17577 7.29645 1.22213C7.84941 1.37106 8.85164 1.33312 9.38732 1.13362C9.4838 1.09709 9.6062 1.0142 9.68972 0.953785C9.527 0.948165 9.61196 0.92147 9.57884 0.865272H9.5774ZM9.37004 1.07461C9.29804 1.11536 9.22172 1.11817 9.14396 1.12659C9.131 1.13081 9.11804 1.13502 9.10508 1.13783C9.0014 1.15891 8.89628 1.17015 8.79116 1.18279C8.67884 1.19684 8.56653 1.21089 8.45277 1.22354C8.35197 1.23478 8.24973 1.23899 8.14893 1.25023C8.14029 1.25585 8.13021 1.25866 8.12157 1.25866H8.09133C8.09133 1.25866 8.08125 1.25866 8.07693 1.25585C8.03229 1.25726 7.99053 1.25866 7.94301 1.24321C7.91853 1.23478 7.89405 1.22494 7.87101 1.21511C7.84221 1.20808 7.81485 1.19825 7.78749 1.19263C7.55853 1.16593 7.32525 1.11536 7.04589 1.03668C6.96813 1.0142 6.84141 1.03387 6.79101 0.965024C7.04733 0.896181 7.36989 0.727586 7.62909 0.698082C7.67805 0.692462 7.72701 0.686842 7.77741 0.682627C7.85085 0.669982 7.92429 0.662957 7.99773 0.660148C8.08989 0.655933 8.18205 0.640478 8.27421 0.639073C8.29581 0.639073 8.31021 0.648908 8.31885 0.662957C8.65293 0.671387 8.98268 0.720561 9.28364 0.835768C9.29084 0.838578 9.29804 0.841388 9.3038 0.845603C9.39164 0.831553 9.5054 0.862462 9.50828 0.942545C9.51116 1.00858 9.42332 1.04651 9.37436 1.07602L9.37004 1.07461Z" fill="#3F2C22" stroke="#3F2C22" stroke-width="0.5" stroke-miterlimit="10"/>
<path d="M3.1118 18.0002C3.15068 17.3427 3.23996 16.7034 3.43292 16.1274C3.5222 15.8604 3.65899 15.5794 3.76987 15.3209C3.81595 15.2141 3.85915 14.9753 3.95995 14.9065C4.00027 14.8784 4.05211 14.8952 4.07947 14.8784C4.11691 14.8531 4.15003 14.5875 4.14427 14.5285L4.22635 14.4948C4.24075 14.4512 4.19467 14.4245 4.18891 14.3965C4.17163 14.3206 4.34875 14.0115 4.38475 13.916C4.61227 13.3174 4.78651 12.695 5.02123 12.0993C5.11483 11.8619 5.25595 11.6245 5.35243 11.3898C5.61019 10.7646 5.82043 10.0186 5.95722 9.35545C5.99322 9.18123 5.99466 8.98313 6.02634 8.80751L6.10986 8.75974C6.04362 8.48718 6.18906 8.23007 6.2193 7.96313C6.22074 7.92098 6.22362 7.88024 6.24234 7.8409C6.24234 7.83809 6.24522 7.83668 6.24666 7.83387C6.27258 7.72007 6.26394 7.58941 6.28266 7.48263C6.35754 7.06396 6.46266 6.69586 6.49722 6.26734C6.50442 6.17321 6.60522 6.00742 6.60954 5.91189C6.61386 5.84023 6.47274 5.54941 6.45546 5.43139C6.4137 5.15321 6.51162 4.84693 6.5505 4.5842C6.56634 4.47461 6.59658 4.01378 6.6297 3.95899C6.64698 3.92949 6.65994 3.94213 6.68442 3.94775C6.85146 3.98709 6.9825 4.08544 7.1841 4.10089C7.33386 4.11354 7.46346 4.06998 7.60458 4.08263C7.7097 4.09246 7.83786 4.14163 7.94874 4.13882C7.9905 4.13882 8.00922 4.09246 8.04378 4.07701C8.12586 4.04048 8.45993 4.11494 8.57801 4.12337C8.72201 4.1332 8.87897 4.11073 9.02153 4.12337C9.06473 4.12759 9.09785 4.16411 9.14969 4.16411C9.19289 4.16411 9.43193 4.08122 9.43625 4.04891C9.44057 4.00395 9.37865 4.03486 9.36281 4.03907C9.19289 4.07841 8.93081 4.06998 8.74649 4.06015C8.59241 4.05172 8.42681 4.02221 8.2713 4.018C8.26697 3.94213 8.37641 3.94915 8.43113 3.93651C8.46713 3.92808 8.49305 3.95758 8.48297 3.89436C8.33321 3.88593 8.15898 3.96742 8.02794 3.97725C7.93578 3.98428 7.8537 3.94634 7.77306 3.95477C7.73274 3.95899 7.7529 3.99411 7.71258 3.99973C7.57434 4.018 7.11066 4.00254 6.97962 3.96882C6.90042 3.94775 6.85146 3.88734 6.76938 3.89577C6.8385 3.70469 7.0257 3.80444 7.16538 3.80585C7.38282 3.80725 7.8321 3.73841 7.99626 3.5951C8.02506 3.57122 8.04666 3.55717 8.03946 3.51362C8.01498 3.4813 8.0121 3.54734 7.98474 3.56279C7.80186 3.66676 7.43466 3.75106 7.22442 3.74684C7.11354 3.74403 7.00554 3.69767 6.88602 3.71031C6.80826 3.71734 6.74634 3.77494 6.69594 3.77494C6.66282 3.77494 6.5577 3.72436 6.53898 3.69907C6.43098 3.54874 6.69306 2.97833 6.60378 2.85609L6.47418 2.82238C6.5289 2.7437 6.42954 2.75072 6.4137 2.70576C6.36906 2.58353 6.5649 2.33204 6.6225 2.22386C6.6513 2.20419 6.79386 2.39948 6.84714 2.42758C6.88026 2.44585 6.95802 2.46833 6.99546 2.46973C7.0401 2.47254 7.2345 2.43742 7.28346 2.42477C7.32954 2.41213 7.38858 2.38684 7.42602 2.35733C7.43322 2.30535 7.41162 2.33345 7.38282 2.33626C7.12938 2.35874 6.89466 2.49221 6.75642 2.20419L6.81114 2.03841C6.68442 2.10304 6.68874 1.96254 6.5577 1.95551L6.74778 1.63518C6.74634 1.56493 6.55482 1.4975 6.58218 1.37246C6.5937 1.31626 6.68154 1.24882 6.66426 1.17155C6.51738 1.14485 6.4713 1.37808 6.50442 1.48204C6.5217 1.53543 6.61962 1.60287 6.62106 1.65626C6.62394 1.73915 6.4353 1.87403 6.43242 1.94568C6.4281 2.06651 6.6009 2.02857 6.6009 2.06932L6.56634 2.09742C6.55626 2.09742 6.54618 2.09742 6.5361 2.09742C6.5433 2.11006 6.54618 2.12551 6.54618 2.14097C6.54618 2.15783 6.53754 2.17328 6.52314 2.18312H6.5361L6.2841 2.54279C6.32154 2.66502 6.27114 2.76618 6.39354 2.84907C6.42234 2.86874 6.47562 2.87998 6.48858 2.88981C6.57354 2.96568 6.44826 3.30568 6.43242 3.41246C6.42522 3.46444 6.40218 3.74825 6.41946 3.77353C6.44394 3.80866 6.5361 3.78196 6.53754 3.88593C6.49002 4.09949 6.50298 4.33271 6.4713 4.54626C6.42954 4.83007 6.31578 5.17709 6.37194 5.47213C6.40362 5.63511 6.50874 5.8023 6.49434 5.9723C6.4857 6.07627 6.39786 6.18023 6.38922 6.26313C6.38346 6.32073 6.41082 6.36709 6.40938 6.42329C6.39786 6.75486 6.25818 7.15668 6.20058 7.48263C6.1833 7.57958 6.1905 7.70743 6.17466 7.80858L6.15882 7.82544C6.15162 7.89429 6.11994 7.9533 6.0969 8.01933C6.0681 8.10222 6.05658 8.19073 6.0465 8.27784C6.02778 8.44222 6.01482 8.60801 5.97451 8.76958C5.97163 8.78082 5.96587 8.78925 5.95867 8.79627C5.96011 8.8047 5.9601 8.81313 5.95579 8.82437C5.95147 8.83421 5.94858 8.84404 5.94426 8.85388C5.93994 8.93396 5.93419 9.01404 5.92267 9.09131C5.88955 9.30768 5.80891 9.50718 5.76139 9.71933C5.70667 9.96942 5.68075 10.2757 5.60587 10.5174C5.56843 10.6368 5.46763 10.7576 5.42875 10.8616C5.36251 11.0372 5.31787 11.1974 5.24299 11.3828C4.88443 12.2764 4.56619 13.1671 4.22059 14.0621C3.82171 15.0961 3.23276 16.0993 3.08732 17.212C3.05276 17.4733 3.04988 17.7374 3.047 18.0016C3.07004 18.0016 3.09308 18.0016 3.11612 18.0016L3.1118 18.0002Z" fill="#3F2C22" stroke="#3F2C22" stroke-width="0.5" stroke-miterlimit="10"/>
<path d="M5.45324 16.6346C5.42012 16.7484 5.16237 17.448 5.18109 17.4888C5.20557 17.5408 5.25597 17.4986 5.27469 17.4635C5.36829 17.2935 5.42301 16.9886 5.50652 16.7989C5.567 16.6598 5.66204 16.5011 5.7758 16.3971C5.79452 16.4154 5.77868 16.466 5.77292 16.4898C5.69228 16.8706 5.38845 17.545 5.20269 17.9482C5.21997 17.9482 5.23869 17.9482 5.25597 17.9468C5.45468 17.5337 5.66348 17.0336 5.8118 16.6121C5.83052 16.5601 5.90108 16.3493 5.8622 16.3142H5.76284L5.48924 16.695L5.85212 15.2521C5.85212 15.1874 5.79596 15.1748 5.74988 15.2169L5.5382 15.5345C5.55116 15.4572 5.55404 15.3771 5.56988 15.2998C5.61452 15.0765 5.74124 14.8053 5.77004 14.596C5.7758 14.5552 5.7614 14.506 5.76284 14.4639L5.64188 14.4442C5.62316 14.4161 5.76284 14.0761 5.783 14.0115C5.90828 13.5914 6.0134 13.1699 6.1286 12.7484C6.17468 12.5798 6.41084 11.9069 6.3518 11.7846C6.31724 11.7144 6.22796 11.8198 6.24236 11.876C6.19916 11.8591 6.21644 11.8436 6.22076 11.8155C6.23948 11.7158 6.29132 11.6006 6.31292 11.4994C6.41948 11.0274 6.52604 10.5567 6.6542 10.0874C6.69452 9.93991 6.95804 9.22619 6.90764 9.14049C6.89612 9.12082 6.87308 9.11661 6.8558 9.12223C6.7694 9.14751 6.51164 9.82611 6.49868 9.95115C6.46268 9.94694 6.45116 9.95677 6.46268 9.91743C6.52604 9.67578 6.57356 9.43132 6.60236 9.18404L6.575 9.13066L6.50156 9.14049C6.54764 9.29504 6.50156 9.50437 6.4742 9.66595C6.43388 9.91181 6.38924 10.1591 6.3518 10.4036C6.34316 10.4597 6.2654 10.7323 6.28556 10.7576H6.35036C6.49292 10.2757 6.51596 9.73619 6.79964 9.30206C6.83564 9.30206 6.81548 9.35404 6.81116 9.37652C6.79532 9.45099 6.77516 9.54652 6.755 9.61677C6.4022 10.8869 6.05804 12.1598 5.67068 13.4158C5.58572 13.6926 5.47628 13.9637 5.43308 14.2531L5.5166 14.2644C5.6606 13.4846 5.96444 12.747 6.22508 12.001C6.27548 11.9631 6.25676 12.0811 6.25244 12.0979C6.07532 13.0294 5.68652 14.0087 5.39132 14.9107C5.32221 15.1214 5.28477 15.3589 5.21133 15.5696L5.23725 15.6244C5.25741 15.6103 5.28045 15.5991 5.29197 15.5752C5.3798 15.3912 5.41437 15.0652 5.48348 14.8601C5.52668 14.7336 5.60444 14.6325 5.65196 14.5117C5.7038 14.5004 5.70092 14.5594 5.6966 14.5931C5.67212 14.7955 5.58428 15.0146 5.53676 15.2155C5.46188 15.5331 5.42156 15.8618 5.28333 16.1611L5.33085 16.199C5.4158 16.1625 5.38989 16.0838 5.41149 16.0136C5.46908 15.8337 5.59004 15.4558 5.72828 15.3378C5.74268 15.3251 5.7326 15.2984 5.78012 15.3181C5.78444 15.4993 5.6966 15.6497 5.65196 15.8141C5.57996 16.0866 5.52812 16.3662 5.45036 16.6374L5.45324 16.6346ZM6.40652 10.1647L6.41804 10.0832L6.4598 10.0888C6.4598 10.1282 6.44972 10.1591 6.40652 10.1647Z" fill="#3F2C22" stroke="#3F2C22" stroke-width="0.5" stroke-miterlimit="10"/>
<path d="M9.84233 16.5082V16.126C9.84233 15.9911 9.67385 15.5134 9.63641 15.3364C9.48521 14.6269 9.37721 13.9062 9.19865 13.2023C9.17561 13.111 9.12809 13.0182 9.10217 12.9269L9.17417 12.896C9.23033 12.9072 9.26201 13.2472 9.27641 13.3133C9.46505 14.1085 9.60185 14.9149 9.78761 15.7115C9.83657 15.9223 10.0007 16.2637 9.92297 16.4744C9.90713 16.518 9.88265 16.5124 9.84233 16.5096V16.5082Z" fill="#3F2C22" stroke="#3F2C22" stroke-width="0.5" stroke-miterlimit="10"/>
<path d="M9.46073 12.3143C9.40601 12.3214 9.40025 12.282 9.39593 12.2427C9.36425 11.987 9.44777 11.6512 9.44057 11.373C9.43481 11.1538 9.39449 10.9122 9.37577 10.6916C9.37145 10.6368 9.39737 10.4289 9.34265 10.4134C9.24041 10.3825 9.15401 10.7197 9.04601 10.7436C8.95673 10.7633 8.98985 10.4008 8.99561 10.3432C9.02585 10.0847 9.12377 9.80507 9.16265 9.54515C9.21593 9.52829 9.22601 9.59714 9.22169 9.63367C9.20153 9.79243 9.10649 10.0172 9.07913 10.1774C9.05609 10.308 9.04025 10.4935 9.06761 10.62C9.17129 10.5385 9.21305 10.2757 9.38297 10.3333L9.41753 10.3825C9.43049 10.5778 9.47081 10.7885 9.48089 10.9824C9.49961 11.3295 9.47657 11.6484 9.45929 11.994C9.45353 12.1008 9.46505 12.209 9.45929 12.3143H9.46073Z" fill="#3F2C22" stroke="#3F2C22" stroke-width="0.5" stroke-miterlimit="10"/>
<path d="M9.69405 8.18796C9.71709 8.1992 9.63501 8.23994 9.62061 8.24696C9.48237 8.30738 9.28365 8.3144 9.12382 8.34672C8.72638 8.42961 8.40382 8.47878 7.94878 8.49283C7.69534 8.50126 6.37919 8.26663 6.05519 8.202C6.04223 8.25258 6.04799 8.16126 6.08255 8.15986C6.13727 8.15845 7.67662 8.44366 7.77022 8.44928C8.42974 8.49002 9.0115 8.33126 9.59757 8.19779C9.63069 8.19077 9.65373 8.18234 9.69405 8.18655V8.18796Z" fill="#3F2C22" stroke="#3F2C22" stroke-width="0.5" stroke-miterlimit="10"/>
<path d="M3.78719 17.9904C3.79727 17.93 3.80447 17.871 3.78719 17.8682C3.77567 17.8906 3.74111 17.8963 3.73535 17.9047C3.72959 17.9145 3.72527 17.9468 3.72095 17.9918C3.74399 17.9918 3.76559 17.9918 3.78863 17.9918L3.78719 17.9904Z" fill="#3F2C22" stroke="#3F2C22" stroke-width="0.5" stroke-miterlimit="10"/>
<path d="M9.5241 7.02606C9.52698 7.05557 9.5241 7.07664 9.50538 7.10053C9.48234 7.12863 9.22027 7.1483 9.15547 7.1511C8.91499 7.16234 8.68171 7.13425 8.43979 7.17639C8.19787 7.21854 8.12875 7.21152 7.86379 7.21714C7.78603 7.21854 6.44972 7.2059 6.29564 7.14549C6.25532 7.13003 6.3446 7.08226 6.36044 7.08367C6.75212 7.12301 8.07259 7.15391 8.43979 7.0921C8.80699 7.03028 9.16987 7.09912 9.5241 7.02466V7.02606Z" fill="#3F2C22" stroke="#3F2C22" stroke-width="0.5" stroke-miterlimit="10"/>
<path d="M7.78747 5.91048C7.69963 5.92734 7.6809 5.8304 7.66938 5.76718C7.59883 5.36676 7.80906 5.06048 7.83066 4.66147C7.84362 4.42684 7.81338 4.19221 7.80906 3.95899C7.8177 3.9056 7.85946 3.87891 7.91418 3.88593C7.88682 3.98006 7.91418 4.05874 7.91418 4.14304C7.9185 4.36221 7.91706 4.5856 7.8897 4.80197C7.8393 5.18693 7.60747 5.5185 7.78602 5.90908L7.78747 5.91048Z" fill="#3F2C22" stroke="#3F2C22" stroke-width="0.5" stroke-miterlimit="10"/>
<path d="M8.57086 3.94775H8.44414C8.41822 3.62883 8.66446 3.31412 8.92798 3.14974L9.43918 2.83221C9.44782 2.87436 9.43054 2.88701 9.40894 2.91511C9.21886 3.1666 8.83294 3.2242 8.64718 3.51503C8.62126 3.55577 8.51182 3.78197 8.51182 3.81709C8.51182 3.86205 8.59246 3.88594 8.57086 3.94775Z" fill="#3F2C22" stroke="#3F2C22" stroke-width="0.5" stroke-miterlimit="10"/>
<path d="M7.55567 2.50209C7.64207 2.47119 7.67951 2.55267 7.73567 2.56391C8.09566 2.63276 8.50606 2.42482 8.89486 2.50631C8.92366 2.51193 8.96542 2.5316 8.97406 2.56391C8.81134 2.60606 8.64142 2.57234 8.47726 2.58499C8.25982 2.60044 7.76302 2.73251 7.58735 2.58499C7.55711 2.5597 7.55135 2.53862 7.55711 2.50209H7.55567Z" fill="#3F2C22" stroke="#3F2C22" stroke-width="0.5" stroke-miterlimit="10"/>
<path d="M8.16909 5.76577C8.10717 5.77279 8.09277 5.69411 8.08701 5.65056C8.03517 5.32882 8.04381 5.00428 8.02077 4.68114C8.01501 4.59122 7.91277 4.05312 7.93581 4.03064H7.99917C8.08989 4.60667 8.07549 5.19114 8.16909 5.76577Z" fill="#3F2C22" stroke="#3F2C22" stroke-width="0.5" stroke-miterlimit="10"/>
<path d="M7.9214 6.1648C7.89548 6.18728 7.79612 6.3362 7.78316 6.36992C7.75868 6.43595 7.7918 6.54133 7.69388 6.53009C7.61036 6.5062 7.763 6.2786 7.79324 6.23504C7.85228 6.14794 7.92428 6.04537 8.03228 6.01447C8.13164 6.08331 7.96172 6.32075 8.04236 6.37695C8.10284 6.4205 8.27564 6.25471 8.32892 6.22099C8.34476 6.21818 8.34332 6.24207 8.339 6.2519C8.30876 6.31934 8.09132 6.49356 7.99484 6.46546L7.94732 6.42752C7.907 6.34885 7.97612 6.24769 7.99916 6.16901C7.97612 6.13108 7.94876 6.14091 7.9214 6.1662V6.1648Z" fill="#3F2C22" stroke="#3F2C22" stroke-width="0.5" stroke-miterlimit="10"/>
<path d="M9.03597 7.5529C9.03165 7.6091 8.68605 7.64985 8.61981 7.6639C8.57661 7.67233 8.52909 7.70605 8.49453 7.70886C8.41677 7.71448 8.39661 7.64423 8.45277 7.60348C8.47437 7.58803 8.80989 7.53323 8.86317 7.52902C8.88765 7.52761 9.03885 7.52059 9.03597 7.5529Z" fill="#3F2C22" stroke="#3F2C22" stroke-width="0.5" stroke-miterlimit="10"/>
<path d="M9.29082 8.06996H9.18427C9.20587 7.97161 9.17563 7.8269 9.25915 7.76086L9.29082 8.06996Z" fill="#3F2C22" stroke="#3F2C22" stroke-width="0.5" stroke-miterlimit="10"/>
<path d="M19.8777 2.11149C19.9108 2.10728 19.9439 2.09885 19.9785 2.09042C19.9655 2.09042 19.954 2.09323 19.9411 2.09463C19.8403 2.10587 19.738 2.11009 19.6372 2.12133C19.6286 2.12695 19.6185 2.12976 19.6099 2.12976H19.5796C19.5796 2.12976 19.5695 2.12976 19.5652 2.12695C19.5206 2.12835 19.4788 2.12976 19.4299 2.1143C19.4054 2.10587 19.3809 2.09604 19.3579 2.0862C19.3204 2.07637 19.2844 2.06373 19.2455 2.05811L19.2139 2.13397C19.4356 2.13538 19.6574 2.13819 19.8777 2.11009V2.11149Z" fill="#3F2C22" stroke="#3F2C22" stroke-width="0.5" stroke-miterlimit="10"/>
<path d="M20.8223 4.89329L20.8339 4.94527C20.9548 4.95792 21.0196 4.85535 21.119 4.82163C21.119 4.85114 21.1233 4.88345 21.119 4.91296C20.9217 6.03131 20.9937 7.29437 21.0988 8.42536C21.227 9.79941 21.4487 11.1046 21.8548 12.4183C21.9254 12.6459 21.9772 12.9269 22.0622 13.146C22.1241 13.3034 22.2436 13.4846 22.3099 13.6476C22.3559 13.7628 22.3948 13.9862 22.4467 14.0691C23.0212 14.9893 23.1465 15.8407 23.469 16.8341C23.5583 17.108 23.5468 17.6152 23.6001 17.9243C23.6044 17.9524 23.6102 17.9791 23.6145 18.0072C23.6346 18.0072 23.6534 18.0072 23.6735 18.0072C23.6318 17.7346 23.6015 17.4593 23.5972 17.1825L23.5857 17.1755C23.5713 17.035 23.567 16.8917 23.531 16.7526C23.3322 16.0009 23.1062 15.2535 22.7966 14.5355C22.4179 13.6588 22.0694 12.9493 21.803 12.0136C21.515 11.0035 21.299 9.84297 21.2457 8.79768C21.2385 8.65578 21.2198 8.50685 21.2054 8.36635C21.2083 8.36635 21.2097 8.36354 21.2126 8.36354C21.2068 8.31999 21.2054 8.27503 21.2054 8.23007L21.0988 5.97792C21.0988 5.97792 21.1031 5.97932 21.106 5.98073C21.106 5.86271 21.1103 5.74469 21.1233 5.62808C21.1363 5.50726 21.1564 5.38643 21.1694 5.2642C21.1823 5.14478 21.1867 5.02535 21.1953 4.90593C21.1996 4.85535 21.2083 4.8118 21.227 4.76544C21.2457 4.72188 21.2731 4.67692 21.2759 4.62775C21.2759 4.61791 21.2788 4.60949 21.2831 4.60246C21.2831 4.54064 21.2788 4.47882 21.2558 4.42122C21.2126 4.31585 21.1175 4.23858 21.1247 4.11775C21.1334 3.97866 21.2111 3.84519 21.2529 3.71312C21.2975 3.57684 21.3119 3.44337 21.2803 3.30287C21.2731 3.29725 21.2659 3.28882 21.263 3.27758C21.2428 3.20874 21.1939 3.15535 21.1535 3.09775C21.1262 3.05841 21.0988 3.02047 21.07 2.98254C21.0153 2.91229 20.9491 2.8294 21.0139 2.7451C21.0772 2.66361 21.1708 2.60601 21.2399 2.52874C21.2889 2.47394 21.3263 2.41634 21.3652 2.35593C21.3969 2.30535 21.4401 2.25477 21.4516 2.19576C21.4516 2.19155 21.4531 2.18733 21.4559 2.18312C21.4559 2.1775 21.4588 2.17328 21.4617 2.16766C21.4761 2.14097 21.5006 2.11006 21.4991 2.07774C21.4991 2.04543 21.4718 2.01452 21.4502 1.99204C21.4127 1.95411 21.3681 1.92039 21.3263 1.88526C21.25 1.81923 21.1478 1.7251 21.0398 1.72369C21.0369 1.72369 21.0326 1.72369 21.0297 1.72369C21.0211 1.74898 21.0038 1.77146 20.9836 1.78551C20.9879 1.79394 20.9894 1.80378 20.9894 1.81361C20.9908 1.86138 20.9476 1.89369 20.9044 1.91898C20.9505 1.90353 20.9966 1.88667 21.0427 1.867C21.1305 1.9513 21.358 2.03279 21.3796 2.15221C21.3998 2.26179 21.1247 2.56948 21.0369 2.65097C20.9793 2.70436 20.9246 2.68328 20.9059 2.80692C20.8627 3.10196 21.142 3.13849 21.178 3.38576C21.2255 3.72576 20.9188 3.99833 21.0196 4.30461C21.0427 4.37486 21.1895 4.47461 21.1809 4.58139L21.083 4.63337C21.1233 4.7837 20.9375 4.84552 20.8195 4.89188L20.8223 4.89329Z" fill="#3F2C22" stroke="#3F2C22" stroke-width="0.5" stroke-miterlimit="10"/>
<path d="M19.761 1.51155C19.7754 1.51155 19.787 1.51577 19.7942 1.52279C19.9482 1.50734 20.1153 1.49329 20.278 1.48767C20.2189 1.47783 20.1613 1.46659 20.1037 1.45114C20.0548 1.43709 20.0073 1.42304 19.9583 1.41602C19.9641 1.42866 19.9698 1.4399 19.977 1.45254C19.8733 1.48205 19.329 1.48345 19.3002 1.54527C19.3002 1.54527 19.3002 1.54668 19.3002 1.54808C19.3622 1.53965 19.4241 1.53403 19.486 1.53122C19.5782 1.52701 19.6703 1.51155 19.7625 1.51015L19.761 1.51155Z" fill="#3F2C22" stroke="#3F2C22" stroke-width="0.5" stroke-miterlimit="10"/>
<path d="M21.502 2.07778C21.502 2.04547 21.4746 2.01456 21.453 1.99208C21.4156 1.95415 21.371 1.92043 21.3292 1.8853C21.2774 1.84034 21.2154 1.78415 21.1463 1.75043C21.142 1.78134 21.142 1.80944 21.1492 1.82349C21.1881 1.90919 21.4602 2.00332 21.4746 2.08621C21.4775 2.10588 21.4746 2.13117 21.4689 2.15787C21.4833 2.13258 21.5034 2.10448 21.502 2.07638V2.07778Z" fill="#3F2C22" stroke="#3F2C22" stroke-width="0.5" stroke-miterlimit="10"/>
<path d="M21.1564 3.09776C21.1291 3.05842 21.1017 3.02049 21.0729 2.98255C21.0527 2.95586 21.0311 2.92776 21.0139 2.89825C21.0398 3.06966 21.2745 3.17784 21.2889 3.38578C21.2903 3.41388 21.2803 3.5628 21.2702 3.65693C21.3004 3.54032 21.3076 3.42511 21.2817 3.30429C21.2745 3.29867 21.2673 3.29024 21.2644 3.279C21.2443 3.21016 21.1953 3.15677 21.155 3.09916L21.1564 3.09776Z" fill="#3F2C22" stroke="#3F2C22" stroke-width="0.5" stroke-miterlimit="10"/>
<path d="M21.1204 5.30635C21.1074 5.47073 21.1031 5.63792 21.0988 5.80231C21.1031 5.80792 21.106 5.81214 21.1103 5.81635C21.1132 5.75313 21.1175 5.68991 21.1247 5.62668C21.1377 5.50586 21.1578 5.38503 21.1708 5.2628C21.1838 5.14338 21.1881 5.02396 21.1967 4.90453C21.201 4.85396 21.2097 4.8104 21.2284 4.76404C21.2471 4.72048 21.2745 4.67553 21.2774 4.62635C21.2774 4.61652 21.2802 4.60809 21.2846 4.60106C21.2846 4.53924 21.2802 4.47743 21.2572 4.41982C21.214 4.31445 21.119 4.23718 21.1262 4.11635C21.1334 4.00817 21.1823 3.90139 21.2241 3.79742C21.1823 3.85924 21.1204 3.94635 21.106 3.9885C20.985 4.31726 21.2759 4.35379 21.2716 4.58139C21.2702 4.67131 21.2097 4.68255 21.1866 4.76825C21.1535 4.8947 21.1334 5.16445 21.1218 5.30354L21.1204 5.30635Z" fill="#3F2C22" stroke="#3F2C22" stroke-width="0.5" stroke-miterlimit="10"/>
<path d="M20.7806 1.61977C20.7705 1.62118 20.759 1.61977 20.7475 1.61556C20.7316 1.60853 20.7143 1.60151 20.6985 1.59448C20.5559 1.66192 20.3889 1.7125 20.2305 1.70126L20.219 1.61977C20.2031 1.58746 20.0404 1.63944 20.0174 1.65209C20.0001 1.66192 19.8215 1.90779 19.7841 1.86845L19.846 1.63101L19.7956 1.60151C19.7956 1.60151 19.7913 1.60572 19.787 1.60853L19.6876 1.72374L19.6271 1.6844C19.571 1.69283 19.4947 1.90779 19.4716 2.02159C19.4975 2.02721 19.5206 2.02862 19.5436 2.02721C19.5436 2.02581 19.5465 2.0244 19.5479 2.02159C19.5479 2.02159 19.5479 2.02159 19.5494 2.02019C19.5551 2.01035 19.5638 2.00052 19.5739 1.99209C19.5796 1.98787 19.5854 1.98225 19.5926 1.97804C19.5998 1.97101 19.5983 1.97382 19.5955 1.97523C19.5955 1.97523 19.5983 1.97382 19.5998 1.97242L19.7294 1.78696L19.6977 1.95134C19.8345 1.99771 19.9108 1.77853 20.0059 1.76448C20.1383 1.74622 20.1398 1.87688 20.2175 1.88952C20.2852 1.90076 20.5142 1.82771 20.5963 1.80523C20.6395 1.79399 20.6683 1.77572 20.6942 1.7687C20.6971 1.76308 20.6999 1.75886 20.7043 1.75465C20.7273 1.73076 20.7719 1.71812 20.818 1.71671C20.8036 1.66333 20.8843 1.69002 20.9059 1.64085C20.8223 1.67316 20.8079 1.64928 20.7791 1.62118L20.7806 1.61977ZM20.6452 1.74481C20.6006 1.76448 20.2319 1.87688 20.2319 1.79539L20.6971 1.68159C20.7057 1.72514 20.6783 1.73076 20.6452 1.74481Z" fill="#3F2C22" stroke="#3F2C22" stroke-width="0.5" stroke-miterlimit="10"/>
<path d="M21.0671 1.73917C21.0671 1.73917 21.0599 1.73215 21.0498 1.72512C21.0484 1.72512 21.0455 1.72512 21.044 1.72512C21.0181 1.72512 21.0023 1.70967 20.9951 1.6914C20.9677 1.67455 20.9389 1.65769 20.9317 1.65347C20.8914 1.63521 20.8511 1.61975 20.8122 1.6043C20.7964 1.61975 20.7733 1.62678 20.7488 1.61554C20.612 1.55231 20.4637 1.5214 20.3168 1.49471C20.2448 1.48207 20.1743 1.47083 20.1037 1.45116C20.0951 1.44835 20.085 1.44554 20.0764 1.44413C19.8935 1.43149 19.7034 1.4343 19.4946 1.44413C19.3233 1.45116 19.1591 1.47785 18.9949 1.50735C18.9863 1.51438 18.9762 1.52 18.9633 1.52C18.8913 1.52702 18.8351 1.5776 18.7689 1.59165C18.5428 1.66612 17.8343 1.78554 18.2476 2.06372C18.3181 2.08058 18.2389 1.97802 18.2577 1.96116C18.4492 1.94992 18.6148 2.04967 18.7861 2.09603C19.3391 2.24496 20.3413 2.20703 20.877 2.00752C20.9735 1.97099 21.0959 1.8881 21.1794 1.82769C21.0167 1.82207 21.1016 1.79537 21.0685 1.73917H21.0671ZM20.8597 1.94711C20.7877 1.98785 20.7114 1.99066 20.6336 1.99909C20.6207 2.00331 20.6077 2.00752 20.5948 2.01033C20.4911 2.03141 20.386 2.04265 20.2808 2.05529C20.1685 2.06934 20.0562 2.08339 19.9425 2.09603C19.8417 2.10727 19.7394 2.11149 19.6386 2.12273C19.63 2.12835 19.6199 2.13116 19.6113 2.13116H19.581C19.581 2.13116 19.5709 2.13116 19.5666 2.12835C19.522 2.12975 19.4802 2.13116 19.4327 2.1157C19.4082 2.10727 19.3837 2.09744 19.3607 2.0876C19.3319 2.08058 19.3045 2.07074 19.2772 2.06512C19.0482 2.03843 18.8149 1.98785 18.5356 1.90917C18.4578 1.88669 18.3311 1.90636 18.2807 1.83752C18.537 1.76868 18.8596 1.60008 19.1188 1.57058C19.1677 1.56496 19.2167 1.55934 19.2671 1.55512C19.3405 1.54248 19.414 1.53545 19.4874 1.53264C19.5796 1.52843 19.6717 1.51297 19.7639 1.51157C19.7855 1.51157 19.7999 1.5214 19.8085 1.53545C20.1426 1.54388 20.4724 1.59306 20.7733 1.70826C20.7805 1.71107 20.7877 1.71388 20.7935 1.7181C20.8813 1.70405 20.9951 1.73496 20.998 1.81504C21.0008 1.88107 20.913 1.91901 20.864 1.94851L20.8597 1.94711Z" fill="#3F2C22" stroke="#3F2C22" stroke-width="0.5" stroke-miterlimit="10"/>
<path d="M14.6894 17.9974C14.7412 17.6518 14.8161 17.3174 14.9212 17.0013C15.0105 16.7343 15.1473 16.4533 15.2582 16.1948C15.3042 16.088 15.3474 15.8492 15.4482 15.7804C15.4886 15.7523 15.5404 15.7691 15.5678 15.7523C15.6052 15.727 15.6383 15.4614 15.6326 15.4024L15.7146 15.3687C15.729 15.3251 15.683 15.2985 15.6772 15.2704C15.6599 15.1945 15.837 14.8854 15.873 14.7899C16.1006 14.1913 16.2748 13.5689 16.5095 12.9732C16.6031 12.7358 16.7442 12.4984 16.8407 12.2637C17.0985 11.6385 17.3087 10.8925 17.4455 10.2293C17.4815 10.0551 17.4829 9.85703 17.5146 9.68141L17.5981 9.63365C17.5319 9.36108 17.6773 9.10398 17.7076 8.83703C17.709 8.79488 17.7119 8.75414 17.7306 8.7148C17.7306 8.71199 17.7335 8.71059 17.7349 8.70778C17.7609 8.59397 17.7522 8.46331 17.7709 8.35654C17.8458 7.93786 17.9509 7.56976 17.9855 7.14124C17.9927 7.04711 18.0935 6.88133 18.0978 6.78579C18.1021 6.71414 17.961 6.42331 17.9437 6.30529C17.902 6.02711 17.9999 5.72083 18.0388 5.4581C18.0546 5.34851 18.0849 4.88768 18.118 4.83289C18.1353 4.80339 18.1482 4.81603 18.1727 4.82165C18.3397 4.86099 18.4708 4.95934 18.6724 4.97479C18.8221 4.98744 18.9517 4.94388 19.0929 4.95653C19.198 4.96636 19.3261 5.01554 19.437 5.01273C19.4788 5.01273 19.4975 4.96636 19.5321 4.95091C19.6141 4.91438 19.9482 4.98884 20.0663 4.99727C20.2103 5.00711 20.3673 4.98463 20.5098 4.99727C20.553 5.00149 20.5861 5.03802 20.638 5.03802C20.6812 5.03802 20.9202 4.95512 20.9245 4.92281C20.9289 4.87785 20.8669 4.90876 20.8511 4.91297C20.6812 4.95231 20.4191 4.94388 20.2348 4.93405C20.0807 4.92562 19.9151 4.89611 19.7596 4.8919C19.7553 4.81603 19.8647 4.82306 19.9194 4.81041C19.9554 4.80198 19.9813 4.83149 19.9713 4.76826C19.8215 4.75983 19.6473 4.84132 19.5162 4.85116C19.4241 4.85818 19.342 4.82025 19.2613 4.82868C19.221 4.83289 19.2412 4.86802 19.2009 4.87364C19.0626 4.8919 18.5989 4.87645 18.4679 4.84273C18.3887 4.82165 18.3397 4.76124 18.2577 4.76967C18.3268 4.57859 18.514 4.67835 18.6537 4.67975C18.8711 4.68116 19.3204 4.61231 19.4845 4.46901C19.5133 4.44512 19.5349 4.43107 19.5277 4.38752C19.5033 4.3552 19.5004 4.42124 19.473 4.43669C19.2901 4.54066 18.9229 4.62496 18.7127 4.62074C18.6018 4.61793 18.4938 4.57157 18.3743 4.58421C18.2965 4.59124 18.2346 4.64884 18.1842 4.64884C18.1511 4.64884 18.046 4.59826 18.0273 4.57297C17.9193 4.42264 18.1813 3.85223 18.0921 3.73L17.9625 3.69628C18.0172 3.6176 17.9178 3.62462 17.902 3.57967C17.8573 3.45743 18.0532 3.20595 18.1108 3.09776C18.1396 3.07809 18.2821 3.27338 18.3354 3.30148C18.3685 3.31975 18.4463 3.34223 18.4837 3.34363C18.5284 3.34644 18.7228 3.31132 18.7717 3.29867C18.8178 3.28603 18.8769 3.26074 18.9143 3.23124C18.9215 3.17925 18.8999 3.20735 18.8711 3.21016C18.6177 3.23264 18.3829 3.36611 18.2447 3.07809L18.2994 2.91231C18.1727 2.97694 18.177 2.83644 18.046 2.82942L18.2361 2.50908C18.2346 2.43884 18.0431 2.3714 18.0705 2.24636C18.082 2.19016 18.1698 2.12272 18.1525 2.04545C18.0057 2.01875 17.9596 2.25198 17.9927 2.35594C18.01 2.40933 18.1079 2.47677 18.1093 2.53016C18.1122 2.61305 17.9236 2.74793 17.9207 2.81958C17.9164 2.94041 18.0892 2.90247 18.0892 2.94322L18.0546 2.97132C18.0445 2.97132 18.0345 2.97132 18.0244 2.97132C18.0316 2.98396 18.0345 2.99942 18.0345 3.01487C18.0345 3.03173 18.0258 3.04719 18.0114 3.05702H18.0244L17.7724 3.41669C17.8098 3.53892 17.7594 3.64008 17.8818 3.72297C17.9106 3.74264 17.9639 3.75388 17.9769 3.76372C18.0618 3.83958 17.9365 4.17958 17.9207 4.28636C17.9135 4.33834 17.8905 4.62215 17.9077 4.64744C17.9322 4.68256 18.0244 4.65587 18.0258 4.75983C17.9783 4.97339 17.9913 5.20661 17.9596 5.42017C17.9178 5.70397 17.8041 6.05099 17.8602 6.34604C17.8919 6.50901 17.997 6.6762 17.9826 6.8462C17.974 6.95017 17.8861 7.05414 17.8775 7.13703C17.8717 7.19463 17.8991 7.241 17.8977 7.29719C17.8861 7.62877 17.7465 8.03058 17.6889 8.35654C17.6716 8.45348 17.6788 8.58133 17.6629 8.68249L17.6471 8.69935C17.6399 8.76819 17.6082 8.8272 17.5852 8.89323C17.5564 8.97612 17.5449 9.06464 17.5348 9.15174C17.5161 9.31612 17.5031 9.48191 17.4628 9.64348C17.4599 9.65472 17.4542 9.66315 17.447 9.67017C17.4484 9.6786 17.4484 9.68703 17.4441 9.69827C17.4397 9.70811 17.4369 9.71794 17.4325 9.72778C17.4282 9.80786 17.4225 9.88794 17.411 9.96522C17.3778 10.1816 17.2972 10.3811 17.2497 10.5932C17.195 10.8433 17.169 11.1496 17.0942 11.3913C17.0567 11.5107 16.9559 11.6315 16.917 11.7355C16.8508 11.9111 16.8062 12.0713 16.7313 12.2567C16.3727 13.1503 16.0545 14.041 15.7089 14.936C15.3201 15.9419 14.7527 16.9184 14.5886 17.996C14.6231 17.996 14.6591 17.9974 14.6937 17.9988L14.6894 17.9974Z" fill="#3F2C22" stroke="#3F2C22" stroke-width="0.5" stroke-miterlimit="10"/>
<path d="M17.8962 11.0386L17.9078 10.9572L17.9495 10.9628C17.9495 11.0021 17.9394 11.033 17.8962 11.0386Z" fill="#3F2C22" stroke="#3F2C22" stroke-width="0.5" stroke-miterlimit="10"/>
<path d="M16.7644 18.3374C16.7975 18.2784 16.8249 18.2025 16.8508 18.1224C16.8119 18.1224 16.773 18.1224 16.7341 18.1224C16.6924 18.2489 16.6636 18.3486 16.6708 18.3627C16.6953 18.4147 16.7457 18.3725 16.7644 18.3374Z" fill="#3F2C22" stroke="#3F2C22" stroke-width="0.5" stroke-miterlimit="10"/>
<path d="M3.89377 23.665C3.84625 23.6903 3.74113 23.6032 3.80017 23.5526C3.90241 23.4641 4.52593 23.6327 4.68145 23.658C5.06881 23.724 5.45473 23.7802 5.84209 23.8589C5.90112 23.8715 6.21936 23.9811 6.2424 23.9544L6.24528 23.8097C6.28272 23.8041 6.32448 23.7788 6.36192 23.7788C6.55056 23.7788 6.80544 23.8842 7.00848 23.8997C7.07904 23.9053 7.15104 23.8954 7.22016 23.8997L6.91344 23.703C6.87024 23.6552 6.87456 23.5877 6.93216 23.5765L8.25408 23.7704L7.88256 23.5119L7.87248 23.3953C7.8984 23.3447 8.09424 23.3953 8.1432 23.4065C8.55791 23.5175 9.05759 23.6945 9.46079 23.8701C9.67247 23.9629 9.88415 24.1146 10.0857 24.1975C10.2038 24.2453 10.3853 24.2565 10.4933 24.3197C10.5235 24.3366 10.5552 24.352 10.5494 24.4068C10.4141 24.338 10.2701 24.3169 10.1333 24.2593C9.90143 24.1638 9.69263 24.0191 9.45791 23.9249C9.08927 23.7774 8.40671 23.5049 8.0424 23.4697C8.01936 23.4669 7.97328 23.4571 7.96032 23.4824C8.06544 23.5976 8.21808 23.6833 8.34768 23.7325C8.52623 23.7985 8.80127 23.8154 8.96399 23.8968C8.99711 23.9137 9.04031 23.9671 8.99711 24.0036C8.96255 24.0317 8.31312 23.842 8.208 23.8224C7.95888 23.776 7.70544 23.7606 7.45488 23.7198C7.30368 23.6945 7.15968 23.6144 6.99984 23.6496C6.98832 23.7072 7.01136 23.6917 7.02288 23.7072C7.14384 23.8491 7.49232 23.9306 7.65792 23.9685C7.72128 23.9839 7.78896 23.9404 7.83216 24.0331L7.80336 24.0949C7.52112 23.9797 7.22592 23.9868 6.93504 23.9502C6.75216 23.9263 6.54768 23.8589 6.3648 23.8631C6.33456 23.8631 6.28272 23.8701 6.29712 23.9292C6.41088 23.9657 6.5088 24.0416 6.62688 24.0711C6.81696 24.1188 7.11072 24.1076 7.28352 24.1806C7.30656 24.1905 7.31808 24.2158 7.33392 24.2368L7.28784 24.2762C7.092 24.2242 6.87744 24.2186 6.68304 24.1708C5.84929 23.9699 4.93489 23.6735 4.08817 23.6158C4.07377 23.6158 3.96721 23.6102 4.00609 23.6636C4.69873 23.8491 5.38849 24.0851 6.09552 24.1287V24.2284C5.83489 24.2242 5.58145 24.1413 5.32657 24.0851C4.16737 23.8336 2.99954 23.6355 1.8317 23.4276C1.7669 23.4163 1.67906 23.4079 1.61138 23.4009C1.59122 23.3981 1.54226 23.3826 1.54802 23.4262C1.96562 23.6889 2.44658 23.6285 2.8901 23.7184L2.89874 23.7943C2.87858 23.8224 2.62802 23.7746 2.57762 23.7732C2.35586 23.769 2.13266 23.7563 1.90946 23.7493C1.76258 23.7437 1.57106 23.7226 1.44002 23.8013L1.42274 23.717L1.46738 23.6763C1.69058 23.6692 1.91234 23.6847 2.1341 23.7212C2.1701 23.7268 2.16146 23.7156 2.16002 23.6735C2.0477 23.6791 1.41554 23.4866 1.38242 23.3896C1.37666 23.3714 1.37666 23.3433 1.3925 23.3264C1.46306 23.2534 2.1269 23.4473 2.26226 23.4697C2.69426 23.5442 3.12338 23.592 3.55394 23.6411C3.6461 23.6524 3.75409 23.6931 3.84481 23.6987C3.87073 23.7001 3.88657 23.717 3.89665 23.6636L3.89377 23.665ZM2.36162 23.7479C2.35154 23.6987 2.3213 23.6917 2.28818 23.6987V23.7479H2.36162Z" fill="#3F2C22" stroke="#3F2C22" stroke-width="0.5" stroke-miterlimit="10"/>
<path d="M31.8915 34.4495C32.0211 34.4003 32.2674 34.4186 32.2875 34.5886C32.2933 34.6406 32.2443 34.937 32.227 35.0002C32.1637 35.2419 31.8094 36.1031 31.6539 36.2717C31.5978 36.3321 31.5416 36.3827 31.4811 36.4459C31.4667 36.4614 31.2867 36.6665 31.2709 36.5597C31.268 36.5429 31.4451 36.3462 31.4797 36.2956C31.5574 36.1762 31.6626 36.0006 31.7302 35.8741C31.8066 35.7308 32.0643 35.1449 32.0888 35.0101C32.1291 34.7853 32.1003 34.6012 31.831 34.6996C31.759 34.7263 31.6755 34.8443 31.5934 34.7867C31.5286 34.7417 31.6064 34.6897 31.6122 34.6546C31.7014 34.1713 31.9808 33.9873 32.2098 33.5826C32.3523 33.3311 32.7368 32.5781 32.7958 32.3252C32.8851 31.9472 32.4531 32.3182 32.3494 32.4249C32.0917 32.6905 31.9621 33.0108 31.7619 33.3073C31.687 33.4182 31.4437 33.7681 31.3098 33.7498C31.0995 33.7217 31.2118 33.3915 31.2594 33.2749C31.3602 33.0206 31.3731 33.1373 31.5358 32.9911C31.8627 32.6961 32.1594 32.217 32.5366 31.9866C32.8448 31.7983 33.1357 31.7281 32.996 32.224C32.875 32.6539 32.3984 33.5447 32.1694 33.9648C32.1334 34.0294 31.8699 34.42 31.893 34.4481L31.8915 34.4495ZM32.9082 32.0751V31.9753H32.8333L32.8837 32.0751H32.9082ZM31.9909 32.675C31.8138 32.8436 31.3328 33.3002 31.3227 33.5405C31.3213 33.584 31.3198 33.5981 31.3587 33.6248C31.5848 33.4477 31.6842 33.2047 31.821 32.9673C31.8699 32.883 31.9779 32.7902 31.9909 32.6764V32.675Z" fill="#3F2C22" stroke="#3F2C22" stroke-width="0.5" stroke-miterlimit="10"/>
<path d="M18.1813 18.0199C18.2865 16.9732 18.3988 15.9293 18.4765 14.8868C18.5111 14.419 18.5341 13.9539 18.586 13.4861L18.5168 13.4285L18.1281 18.0213C18.1453 18.0213 18.1641 18.0213 18.1813 18.0213V18.0199Z" fill="#3F2C22" stroke="#3F2C22" stroke-width="0.5" stroke-miterlimit="10"/>
<path d="M13.5072 36.1945L5.7168 36.224L5.77872 36.1369C6.34319 36.1481 6.90335 36.127 7.46495 36.1186C9.4003 36.0919 11.3486 36.165 13.2955 36.1453C13.3718 36.1453 13.5 36.0666 13.5057 36.1945H13.5072Z" fill="#3F2C22" stroke="#3F2C22" stroke-width="0.5" stroke-miterlimit="10"/>
<path d="M34.0803 19.8505L26.29 19.8801L26.3519 19.7929C26.9164 19.8042 27.4765 19.7831 28.0381 19.7747C29.9735 19.748 31.9218 19.821 33.8687 19.8014C33.945 19.8014 34.0731 19.7227 34.0789 19.8505H34.0803Z" fill="#3F2C22" stroke="#3F2C22" stroke-width="0.5" stroke-miterlimit="10"/>
<path d="M22.5244 18.0116C22.4912 18.0029 22.4711 18.0044 22.4581 18.0116C22.4797 18.0116 22.5013 18.0116 22.5244 18.0116Z" fill="#3F2C22" stroke="#3F2C22" stroke-width="0.5" stroke-miterlimit="10"/>
<path d="M21.3306 17.3806V16.9984C21.3306 16.8636 21.1621 16.3859 21.1247 16.2089C20.9735 15.4993 20.8655 14.7786 20.6869 14.0747C20.6639 13.9834 20.6164 13.8907 20.5905 13.7993L20.6625 13.7684C20.7186 13.7797 20.7503 14.1197 20.7647 14.1857C20.9533 14.9809 21.0901 15.7874 21.2759 16.584C21.3249 16.7947 21.489 17.1361 21.4113 17.3469C21.3954 17.3904 21.3709 17.3848 21.3306 17.382V17.3806Z" fill="#3F2C22" stroke="#3F2C22" stroke-width="0.5" stroke-miterlimit="10"/>
<path d="M20.9505 13.1868C20.8958 13.1939 20.89 13.1545 20.8857 13.1152C20.854 12.8595 20.9375 12.5237 20.9303 12.2455C20.9246 12.0263 20.8842 11.7847 20.8655 11.5641C20.8612 11.5093 20.8871 11.3014 20.8324 11.2859C20.7302 11.255 20.6438 11.5922 20.5358 11.6161C20.4465 11.6358 20.4796 11.2733 20.4854 11.2157C20.5156 10.9572 20.6135 10.6776 20.6524 10.4177C20.7057 10.4008 20.7158 10.4696 20.7114 10.5062C20.6913 10.6649 20.5962 10.8897 20.5689 11.0499C20.5458 11.1805 20.53 11.366 20.5574 11.4924C20.661 11.411 20.7028 11.1482 20.8727 11.2058L20.9073 11.255C20.9202 11.4503 20.9606 11.661 20.9706 11.8549C20.9894 12.202 20.9663 12.5209 20.949 12.8665C20.9433 12.9733 20.9548 13.0815 20.949 13.1868H20.9505Z" fill="#3F2C22" stroke="#3F2C22" stroke-width="0.5" stroke-miterlimit="10"/>
<path d="M21.1823 9.06186C21.2054 9.0731 21.1233 9.11384 21.1089 9.12087C20.9707 9.18128 20.7719 9.1883 20.6121 9.22062C20.2147 9.30351 19.8921 9.35268 19.4371 9.36673C19.1836 9.37516 17.8675 9.14053 17.5435 9.07591C17.5305 9.12648 17.5363 9.03516 17.5708 9.03376C17.6255 9.03235 19.1649 9.31756 19.2585 9.32318C19.918 9.36392 20.4998 9.20516 21.0859 9.07169C21.119 9.06467 21.142 9.05624 21.1823 9.06045V9.06186Z" fill="#3F2C22" stroke="#3F2C22" stroke-width="0.5" stroke-miterlimit="10"/>
<path d="M21.0138 7.8985C21.0167 7.928 21.0139 7.94908 20.9951 7.97296C20.9721 8.00106 20.71 8.02073 20.6452 8.02354C20.4047 8.03478 20.1715 8.00668 19.9295 8.04883C19.6876 8.09098 19.6185 8.08395 19.3535 8.08957C19.2758 8.09098 17.9395 8.07833 17.7854 8.01792C17.7451 8.00247 17.8343 7.9547 17.8502 7.9561C18.2419 7.99544 19.5623 8.02635 19.9295 7.96453C20.2967 7.90271 20.6596 7.97156 21.0138 7.89709V7.8985Z" fill="#3F2C22" stroke="#3F2C22" stroke-width="0.5" stroke-miterlimit="10"/>
<path d="M20.0605 4.82025H19.9338C19.9079 4.50133 20.1541 4.18661 20.4177 4.02223L20.9289 3.70471C20.9375 3.74686 20.9202 3.75951 20.8986 3.7876C20.7085 4.03909 20.3226 4.0967 20.1369 4.38752C20.1109 4.42827 20.0015 4.65447 20.0015 4.68959C20.0015 4.73455 20.0821 4.75843 20.0605 4.82025Z" fill="#3F2C22" stroke="#3F2C22" stroke-width="0.5" stroke-miterlimit="10"/>
<path d="M19.0439 3.37453C19.1303 3.34362 19.1678 3.42511 19.2239 3.43635C19.5839 3.50519 19.9943 3.29726 20.3831 3.37875C20.4119 3.38437 20.4537 3.40404 20.4623 3.43635C20.2996 3.4785 20.1297 3.44478 19.9655 3.45742C19.7481 3.47288 19.2513 3.60494 19.0756 3.45742C19.0454 3.43213 19.0396 3.41106 19.0454 3.37453H19.0439Z" fill="#3F2C22" stroke="#3F2C22" stroke-width="0.5" stroke-miterlimit="10"/>
<path d="M19.4111 7.03729C19.3852 7.05977 19.2859 7.2087 19.2729 7.24242C19.2484 7.30845 19.2815 7.41382 19.1836 7.40258C19.1001 7.3787 19.2527 7.1511 19.283 7.10754C19.342 7.02043 19.414 6.91787 19.522 6.88696C19.6214 6.95581 19.4515 7.19324 19.5321 7.24944C19.5926 7.293 19.7654 7.12721 19.8187 7.09349C19.8345 7.09068 19.8331 7.11457 19.8287 7.1244C19.7985 7.19184 19.5811 7.36605 19.4846 7.33796L19.4371 7.30002C19.3967 7.22134 19.4659 7.12019 19.4889 7.04151C19.4659 7.00358 19.4385 7.01341 19.4111 7.0387V7.03729Z" fill="#3F2C22" stroke="#3F2C22" stroke-width="0.5" stroke-miterlimit="10"/>
<path d="M20.3356 6.63831C20.3399 6.50483 20.2794 6.37839 20.2607 6.24632C20.2492 6.16764 20.2204 5.94706 20.229 5.88244C20.2348 5.84029 20.3183 5.61128 20.3788 5.66607C20.3529 5.79392 20.3082 5.8712 20.314 6.00748C20.3226 6.1831 20.4205 6.40227 20.4004 6.56525C20.3946 6.60599 20.3917 6.64252 20.3356 6.6369V6.63831Z" fill="#3F2C22" stroke="#3F2C22" stroke-width="0.5" stroke-miterlimit="10"/>
<path d="M20.5257 8.4254C20.5213 8.4816 20.1757 8.52234 20.1095 8.53639C20.0663 8.54482 20.0188 8.57854 19.9842 8.58135C19.9065 8.58697 19.8863 8.51672 19.9425 8.47598C19.9641 8.46053 20.2996 8.40573 20.3529 8.40152C20.3773 8.40011 20.5285 8.39309 20.5257 8.4254Z" fill="#3F2C22" stroke="#3F2C22" stroke-width="0.5" stroke-miterlimit="10"/>
<path d="M20.7806 8.94239H20.674C20.6956 8.84405 20.6654 8.69933 20.7489 8.6333L20.7806 8.94239Z" fill="#3F2C22" stroke="#3F2C22" stroke-width="0.5" stroke-miterlimit="10"/>
<path d="M31.8195 2.24919C31.8527 2.24497 31.8858 2.23654 31.9203 2.22811C31.9074 2.22811 31.8959 2.23092 31.8829 2.23233C31.7821 2.24357 31.6799 2.24778 31.5791 2.25902C31.5704 2.26464 31.5603 2.26745 31.5517 2.26745H31.5215C31.5215 2.26745 31.5114 2.26745 31.5071 2.26464C31.4624 2.26605 31.4207 2.26745 31.3717 2.252C31.3472 2.24357 31.3227 2.23373 31.2997 2.2239C31.2623 2.21407 31.2263 2.20142 31.1874 2.1958L31.1557 2.27167C31.3775 2.27307 31.5992 2.27588 31.8195 2.24778V2.24919Z" fill="#3F2C22" stroke="#3F2C22" stroke-width="0.5" stroke-miterlimit="10"/>
<path d="M32.7627 5.03098L32.7743 5.08297C32.8952 5.09561 32.96 4.99305 33.0594 4.95933C33.0594 4.98883 33.0637 5.02115 33.0594 5.05065C32.8621 6.169 32.9341 7.43206 33.0392 8.56306C33.1674 9.93711 33.3891 11.2423 33.7952 12.556C33.8658 12.7836 33.9176 13.0646 34.0026 13.2837C34.0645 13.4411 34.184 13.6223 34.2502 13.7853C34.2963 13.9005 34.3352 14.1239 34.387 14.2068C34.9616 15.127 35.0869 15.9784 35.4094 16.9718C35.4958 17.2359 35.4886 17.7178 35.5362 18.0297C35.5563 18.0297 35.5779 18.0297 35.5981 18.0297C35.565 17.7951 35.5419 17.559 35.539 17.3202L35.5275 17.3132C35.5131 17.1727 35.5088 17.0294 35.4728 16.8903C35.2741 16.1386 35.048 15.3912 34.7384 14.6732C34.3597 13.7965 34.0112 13.087 33.7448 12.1513C33.4568 11.1412 33.2408 9.98066 33.1875 8.93537C33.1803 8.79347 33.1616 8.64455 33.1472 8.50405C33.1501 8.50405 33.1515 8.50124 33.1544 8.50124C33.1487 8.45768 33.1472 8.41273 33.1472 8.36777L33.0407 6.11561C33.0407 6.11561 33.045 6.11702 33.0479 6.11842C33.0479 6.00041 33.0522 5.88239 33.0651 5.76578C33.0781 5.64495 33.0983 5.52412 33.1112 5.40189C33.1242 5.28247 33.1285 5.16305 33.1371 5.04363C33.1414 4.99305 33.1501 4.9495 33.1688 4.90313C33.1875 4.85958 33.2149 4.81462 33.2178 4.76545C33.2178 4.75561 33.2206 4.74718 33.225 4.74016C33.225 4.67834 33.2206 4.61652 33.1976 4.55892C33.1544 4.45354 33.0594 4.37627 33.0666 4.25544C33.0752 4.11635 33.153 3.98288 33.1947 3.85082C33.2394 3.71453 33.2538 3.58106 33.2221 3.44057C33.2149 3.43495 33.2077 3.42652 33.2048 3.41528C33.1847 3.34643 33.1357 3.29305 33.0954 3.23544C33.068 3.1961 33.0407 3.15817 33.0119 3.12023C32.9571 3.04999 32.8909 2.96709 32.9557 2.8828C33.0191 2.80131 33.1126 2.74371 33.1818 2.66643C33.2307 2.61164 33.2682 2.55404 33.3071 2.49362C33.3387 2.44304 33.3819 2.39246 33.3934 2.33346C33.3934 2.32924 33.3949 2.32503 33.3978 2.32081C33.3978 2.31519 33.4006 2.31098 33.4035 2.30536C33.4179 2.27866 33.4424 2.24775 33.441 2.21544C33.441 2.18313 33.4136 2.15222 33.392 2.12974C33.3546 2.0918 33.3099 2.05808 33.2682 2.02296C33.1919 1.95693 33.0896 1.86279 32.9816 1.86139C32.9787 1.86139 32.9744 1.86139 32.9715 1.86139C32.9629 1.88668 32.9456 1.90916 32.9255 1.92321C32.9298 1.93164 32.9312 1.94147 32.9312 1.95131C32.9327 1.99908 32.8895 2.03139 32.8463 2.05668C32.8923 2.04122 32.9384 2.02436 32.9845 2.0047C33.0723 2.08899 33.2998 2.17048 33.3214 2.2899C33.3416 2.39949 33.0666 2.70718 32.9787 2.78866C32.9211 2.84205 32.8664 2.82098 32.8477 2.94461C32.8045 3.23966 33.0839 3.27619 33.1199 3.52346C33.1674 3.86346 32.8607 4.13602 32.9615 4.4423C32.9845 4.51255 33.1314 4.6123 33.1227 4.71908L33.0248 4.77106C33.0651 4.9214 32.8794 4.98321 32.7613 5.02958L32.7627 5.03098Z" fill="#3F2C22" stroke="#3F2C22" stroke-width="0.5" stroke-miterlimit="10"/>
<path d="M31.7015 1.64925C31.7159 1.64925 31.7274 1.65346 31.7346 1.66049C31.8887 1.64503 32.0557 1.63098 32.2184 1.62536C32.1594 1.61553 32.1018 1.60429 32.0442 1.58883C31.9952 1.57479 31.9477 1.56074 31.8987 1.55371C31.9045 1.56636 31.9103 1.5776 31.9175 1.59024C31.8138 1.61974 31.2695 1.62115 31.2407 1.68297C31.2407 1.68297 31.2407 1.68437 31.2407 1.68578C31.3026 1.67735 31.3645 1.67173 31.4264 1.66892C31.5186 1.6647 31.6107 1.64925 31.7029 1.64784L31.7015 1.64925Z" fill="#3F2C22" stroke="#3F2C22" stroke-width="0.5" stroke-miterlimit="10"/>
<path d="M33.4438 2.21548C33.4438 2.18316 33.4165 2.15226 33.3949 2.12978C33.3574 2.09184 33.3128 2.05812 33.271 2.023C33.2192 1.97804 33.1573 1.92184 33.0882 1.88812C33.0838 1.91903 33.0838 1.94713 33.091 1.96118C33.1299 2.04688 33.4021 2.14102 33.4165 2.22391C33.4194 2.24358 33.4165 2.26887 33.4107 2.29556C33.4251 2.27027 33.4453 2.24217 33.4438 2.21407V2.21548Z" fill="#3F2C22" stroke="#3F2C22" stroke-width="0.5" stroke-miterlimit="10"/>
<path d="M33.0968 3.23545C33.0695 3.19612 33.0421 3.15818 33.0133 3.12025C32.9932 3.09355 32.9716 3.06545 32.9543 3.03595C32.9802 3.20736 33.2149 3.31554 33.2293 3.52347C33.2308 3.55157 33.2207 3.7005 33.2106 3.79463C33.2408 3.67802 33.248 3.56281 33.2221 3.44198C33.2149 3.43636 33.2077 3.42793 33.2048 3.41669C33.1847 3.34785 33.1357 3.29446 33.0954 3.23686L33.0968 3.23545Z" fill="#3F2C22" stroke="#3F2C22" stroke-width="0.5" stroke-miterlimit="10"/>
<path d="M33.0608 5.44405C33.0479 5.60843 33.0435 5.77562 33.0392 5.94C33.0435 5.94562 33.0464 5.94983 33.0507 5.95405C33.0536 5.89083 33.0579 5.8276 33.0651 5.76438C33.0781 5.64355 33.0983 5.52273 33.1112 5.40049C33.1242 5.28107 33.1285 5.16165 33.1371 5.04223C33.1415 4.99165 33.1501 4.9481 33.1688 4.90173C33.1875 4.85818 33.2149 4.81322 33.2178 4.76405C33.2178 4.75421 33.2207 4.74578 33.225 4.73876C33.225 4.67694 33.2207 4.61512 33.1976 4.55752C33.1544 4.45215 33.0594 4.37487 33.0666 4.25405C33.0738 4.14586 33.1227 4.03909 33.1645 3.93512C33.1227 3.99694 33.0608 4.08405 33.0464 4.12619C32.9255 4.45496 33.2163 4.49148 33.212 4.71909C33.2106 4.80901 33.1501 4.82025 33.1271 4.90595C33.0939 5.03239 33.0738 5.30215 33.0623 5.44124L33.0608 5.44405Z" fill="#3F2C22" stroke="#3F2C22" stroke-width="0.5" stroke-miterlimit="10"/>
<path d="M32.7224 1.75747C32.7123 1.75887 32.7008 1.75747 32.6893 1.75325C32.6734 1.74623 32.6562 1.7392 32.6403 1.73218C32.4978 1.79962 32.3307 1.85019 32.1723 1.83895L32.1608 1.75747C32.145 1.72515 31.9823 1.77714 31.9592 1.78978C31.9419 1.79962 31.7634 2.04548 31.7259 2.00615L31.7879 1.76871L31.7375 1.7392C31.7375 1.7392 31.7331 1.74342 31.7288 1.74623L31.6295 1.86143L31.569 1.8221C31.5128 1.83052 31.4365 2.04548 31.4135 2.15929C31.4394 2.16491 31.4624 2.16631 31.4855 2.16491C31.4855 2.1635 31.4883 2.1621 31.4898 2.15929C31.4898 2.15929 31.4898 2.15929 31.4912 2.15788C31.497 2.14805 31.5056 2.13821 31.5157 2.12978C31.5215 2.12557 31.5272 2.11995 31.5344 2.11573C31.5416 2.10871 31.5402 2.11152 31.5373 2.11292C31.5373 2.11292 31.5402 2.11152 31.5416 2.11011L31.6712 1.92466L31.6395 2.08904C31.7763 2.1354 31.8527 1.91623 31.9477 1.90218C32.0802 1.88391 32.0816 2.01457 32.1594 2.02722C32.227 2.03846 32.456 1.9654 32.5381 1.94292C32.5813 1.93168 32.6101 1.91342 32.636 1.90639C32.6389 1.90077 32.6418 1.89656 32.6461 1.89234C32.6691 1.86846 32.7138 1.85581 32.7598 1.85441C32.7454 1.80102 32.8261 1.82772 32.8477 1.77854C32.7642 1.81086 32.7498 1.78697 32.721 1.75887L32.7224 1.75747ZM32.5856 1.88251C32.541 1.90218 32.1723 2.01457 32.1723 1.93309L32.6374 1.81929C32.6461 1.86284 32.6187 1.86846 32.5856 1.88251Z" fill="#3F2C22" stroke="#3F2C22" stroke-width="0.5" stroke-miterlimit="10"/>
<path d="M33.0075 1.87687C33.0075 1.87687 33.0003 1.86984 32.9902 1.86282C32.9888 1.86282 32.9859 1.86282 32.9845 1.86282C32.9586 1.86282 32.9427 1.84736 32.9355 1.8291C32.9082 1.81224 32.8794 1.79538 32.8722 1.79117C32.8318 1.7729 32.7915 1.75745 32.7526 1.74199C32.7368 1.75745 32.7138 1.76447 32.6893 1.75323C32.5525 1.69001 32.4042 1.6591 32.2573 1.63241C32.1853 1.61976 32.1147 1.60852 32.0442 1.58885C32.0355 1.58604 32.0254 1.58323 32.0168 1.58183C31.8339 1.56918 31.6438 1.57199 31.435 1.58183C31.2637 1.58885 31.0995 1.61555 30.9354 1.64505C30.9267 1.65207 30.9166 1.65769 30.9037 1.65769C30.8317 1.66472 30.7755 1.7153 30.7093 1.72935C30.4832 1.80381 29.7747 1.92323 30.188 2.20141C30.2586 2.21827 30.1794 2.11571 30.1981 2.09885C30.3896 2.08761 30.5552 2.18737 30.7266 2.23373C31.2795 2.38265 32.2818 2.34472 32.8174 2.14522C32.9139 2.10869 33.0363 2.02579 33.1198 1.96538C32.9571 1.95976 33.0421 1.93307 33.009 1.87687H33.0075ZM32.8002 2.0848C32.7282 2.12555 32.6518 2.12836 32.5741 2.13679C32.5611 2.141 32.5482 2.14522 32.5352 2.14803C32.4315 2.1691 32.3264 2.18034 32.2213 2.19299C32.109 2.20703 31.9966 2.22108 31.8829 2.23373C31.7821 2.24497 31.6798 2.24918 31.579 2.26042C31.5704 2.26604 31.5603 2.26885 31.5517 2.26885H31.5214C31.5214 2.26885 31.5114 2.26885 31.507 2.26604C31.4624 2.26745 31.4206 2.26885 31.3731 2.2534C31.3486 2.24497 31.3242 2.23513 31.3011 2.2253C31.2723 2.21827 31.245 2.20844 31.2176 2.20282C30.9886 2.17613 30.7554 2.12555 30.476 2.04687C30.3982 2.02439 30.2715 2.04406 30.2211 1.97522C30.4774 1.90637 30.8 1.73778 31.0592 1.70827C31.1082 1.70265 31.1571 1.69703 31.2075 1.69282C31.281 1.68017 31.3544 1.67315 31.4278 1.67034C31.52 1.66612 31.6122 1.65067 31.7043 1.64926C31.7259 1.64926 31.7403 1.6591 31.749 1.67315C32.083 1.68158 32.4128 1.73075 32.7138 1.84596C32.721 1.84877 32.7282 1.85158 32.7339 1.85579C32.8218 1.84174 32.9355 1.87265 32.9384 1.95274C32.9413 2.01877 32.8534 2.0567 32.8045 2.08621L32.8002 2.0848Z" fill="#3F2C22" stroke="#3F2C22" stroke-width="0.5" stroke-miterlimit="10"/>
<path d="M26.6514 18.003C26.7018 17.7038 26.7709 17.4143 26.8616 17.1376C26.9509 16.8706 27.0877 16.5896 27.1986 16.3311C27.2447 16.2243 27.2879 15.9855 27.3887 15.9166C27.429 15.8885 27.4808 15.9054 27.5082 15.8885C27.5456 15.8633 27.5788 15.5977 27.573 15.5387L27.6551 15.505C27.6695 15.4614 27.6234 15.4347 27.6176 15.4066C27.6004 15.3308 27.7775 15.0217 27.8135 14.9261C28.041 14.3276 28.2152 13.7052 28.45 13.1095C28.5435 12.8721 28.6847 12.6347 28.7811 12.4C29.0389 11.7748 29.2491 11.0288 29.3859 10.3656C29.4219 10.1914 29.4234 9.99333 29.4551 9.81771L29.5386 9.76994C29.4723 9.49738 29.6178 9.24027 29.648 8.97332C29.6495 8.93118 29.6523 8.89043 29.6711 8.85109C29.6711 8.84828 29.6739 8.84688 29.6754 8.84407C29.7013 8.73027 29.6927 8.5996 29.7114 8.49283C29.7863 8.07415 29.8914 7.70605 29.9259 7.27753C29.9331 7.1834 30.0339 7.01762 30.0383 6.92208C30.0426 6.85043 29.9015 6.5596 29.8842 6.44158C29.8424 6.1634 29.9403 5.85712 29.9792 5.59439C29.9951 5.4848 30.0253 5.02398 30.0584 4.96918C30.0757 4.93968 30.0887 4.95232 30.1131 4.95794C30.2802 4.99728 30.4112 5.09563 30.6128 5.11108C30.7626 5.12373 30.8922 5.08017 31.0333 5.09282C31.1384 5.10265 31.2666 5.15183 31.3775 5.14902C31.4192 5.14902 31.4379 5.10265 31.4725 5.0872C31.5546 5.05067 31.8887 5.12513 32.0067 5.13356C32.1507 5.1434 32.3077 5.12092 32.4503 5.13356C32.4935 5.13778 32.5266 5.17431 32.5784 5.17431C32.6216 5.17431 32.8606 5.09141 32.865 5.0591C32.8693 5.01414 32.8074 5.04505 32.7915 5.04927C32.6216 5.0886 32.3595 5.08017 32.1752 5.07034C32.0211 5.06191 31.8555 5.03241 31.7 5.02819C31.6957 4.95232 31.8051 4.95935 31.8599 4.9467C31.8959 4.93827 31.9218 4.96778 31.9117 4.90455C31.7619 4.89612 31.5877 4.97761 31.4567 4.98745C31.3645 4.99447 31.2824 4.95654 31.2018 4.96497C31.1615 4.96918 31.1816 5.00431 31.1413 5.00993C31.0031 5.02819 30.5394 5.01274 30.4083 4.97902C30.3291 4.95794 30.2802 4.89753 30.1981 4.90596C30.2672 4.71488 30.4544 4.81464 30.5941 4.81604C30.8115 4.81745 31.2608 4.7486 31.425 4.6053C31.4538 4.58141 31.4754 4.56736 31.4682 4.52381C31.4437 4.4915 31.4408 4.55753 31.4135 4.57298C31.2306 4.67695 30.8634 4.76125 30.6531 4.75703C30.5423 4.75422 30.4343 4.70786 30.3147 4.7205C30.237 4.72753 30.1751 4.78513 30.1247 4.78513C30.0915 4.78513 29.9864 4.73455 29.9677 4.70926C29.8597 4.55893 30.1218 3.98852 30.0325 3.86629L29.9029 3.83257C29.9576 3.75389 29.8583 3.76092 29.8424 3.71596C29.7978 3.59373 29.9936 3.34224 30.0512 3.23405C30.08 3.21439 30.2226 3.40968 30.2759 3.43777C30.309 3.45604 30.3867 3.47852 30.4242 3.47992C30.4688 3.48273 30.6632 3.44761 30.7122 3.43496C30.7583 3.42232 30.8173 3.39703 30.8547 3.36753C30.8619 3.31554 30.8403 3.34364 30.8115 3.34645C30.5581 3.36893 30.3234 3.5024 30.1851 3.21439L30.2399 3.0486C30.1131 3.11323 30.1175 2.97273 29.9864 2.96571L30.1765 2.64538C30.1751 2.57513 29.9835 2.50769 30.0109 2.38265C30.0224 2.32645 30.1103 2.25901 30.093 2.18174C29.9461 2.15504 29.9 2.38827 29.9331 2.49224C29.9504 2.54562 30.0483 2.61306 30.0498 2.66645C30.0527 2.74934 29.864 2.88422 29.8611 2.95587C29.8568 3.0767 30.0296 3.03877 30.0296 3.07951L29.9951 3.10761C29.985 3.10761 29.9749 3.10761 29.9648 3.10761C29.972 3.12025 29.9749 3.13571 29.9749 3.15116C29.9749 3.16802 29.9663 3.18348 29.9519 3.19331H29.9648L29.7128 3.55298C29.7503 3.67521 29.6999 3.77637 29.8223 3.85926C29.8511 3.87893 29.9043 3.89017 29.9173 3.90001C30.0023 3.97587 29.877 4.31588 29.8611 4.42265C29.8539 4.47464 29.8309 4.75844 29.8482 4.78373C29.8727 4.81885 29.9648 4.79216 29.9663 4.89612C29.9187 5.10968 29.9317 5.3429 29.9 5.55646C29.8583 5.84026 29.7445 6.18728 29.8007 6.48233C29.8323 6.6453 29.9375 6.81249 29.9231 6.98249C29.9144 7.08646 29.8266 7.19043 29.8179 7.27332C29.8122 7.33092 29.8395 7.37729 29.8381 7.43349C29.8266 7.76506 29.6869 8.16688 29.6293 8.49283C29.612 8.58977 29.6192 8.71762 29.6034 8.81878L29.5875 8.83564C29.5803 8.90448 29.5487 8.96349 29.5256 9.02952C29.4968 9.11241 29.4853 9.20093 29.4752 9.28803C29.4565 9.45242 29.4435 9.6182 29.4032 9.77977C29.4003 9.79101 29.3946 9.79944 29.3874 9.80647C29.3888 9.8149 29.3888 9.82333 29.3845 9.83457C29.3802 9.8444 29.3773 9.85424 29.373 9.86407C29.3687 9.94415 29.3629 10.0242 29.3514 10.1015C29.3183 10.3179 29.2376 10.5174 29.1901 10.7295C29.1354 10.9796 29.1095 11.2859 29.0346 11.5275C28.9971 11.647 28.8963 11.7678 28.8575 11.8718C28.7912 12.0474 28.7466 12.2075 28.6717 12.393C28.3131 13.2866 27.9949 14.1773 27.6493 15.0723C27.2764 16.0389 26.7378 16.9774 26.5506 18.0044C26.5852 18.0044 26.6212 18.0044 26.6557 18.0044L26.6514 18.003Z" fill="#3F2C22" stroke="#3F2C22" stroke-width="0.5" stroke-miterlimit="10"/>
<path d="M28.725 16.5826C28.8128 16.3985 28.8474 16.0726 28.9165 15.8675C28.9597 15.741 29.0375 15.6399 29.085 15.519C29.1368 15.5078 29.1339 15.5668 29.1296 15.6005C29.1051 15.8028 29.0173 16.022 28.9698 16.2229C28.8949 16.5404 28.8546 16.8692 28.7163 17.1685L28.7639 17.2064C28.8488 17.1699 28.8229 17.0912 28.8445 17.0209C28.9021 16.8411 29.0231 16.4632 29.1613 16.3452C29.1757 16.3325 29.1656 16.3058 29.2131 16.3255C29.2175 16.5067 29.1296 16.6571 29.085 16.8214C29.013 17.094 28.9611 17.3736 28.8834 17.6447C28.869 17.6925 28.8157 17.8457 28.7581 18.01C28.7941 18.01 28.8301 18.01 28.8661 18.01C28.8877 17.937 28.9107 17.8681 28.9367 17.8091C28.9971 17.67 29.0922 17.5113 29.2059 17.4073C29.2247 17.4256 29.2088 17.4762 29.2031 17.5C29.1728 17.6405 29.1138 17.8204 29.0403 18.0114C29.0591 18.0114 29.0778 18.0114 29.0965 18.0114C29.1483 17.878 29.1973 17.7459 29.2419 17.6209C29.2607 17.5689 29.3312 17.3581 29.2923 17.323H29.193L28.9194 17.7038L29.2823 16.2609C29.2823 16.1962 29.2261 16.1836 29.18 16.2257L28.9683 16.5433C28.9813 16.466 28.9842 16.3859 29 16.3086C29.0447 16.0852 29.1714 15.8141 29.2002 15.6047C29.2059 15.564 29.1915 15.5148 29.1915 15.4727L29.0706 15.453C29.0519 15.4249 29.1915 15.0849 29.2117 15.0203C29.337 14.6002 29.4421 14.1787 29.5573 13.7572C29.6034 13.5886 29.8395 12.9156 29.7805 12.7934C29.7459 12.7232 29.6567 12.8285 29.6711 12.8847C29.6279 12.8679 29.6451 12.8524 29.6494 12.8243C29.6682 12.7246 29.72 12.6094 29.7416 12.5082C29.8482 12.0361 29.9547 11.5655 30.0829 11.0962C30.1232 10.9487 30.3867 10.235 30.3363 10.1493C30.3248 10.1296 30.3018 10.1254 30.2845 10.131C30.1981 10.1563 29.9403 10.8349 29.9274 10.9599C29.8914 10.9557 29.8798 10.9656 29.8914 10.9262C29.9547 10.6846 30.0022 10.4401 30.031 10.1928L30.0037 10.1394L29.9303 10.1493C29.9763 10.3038 29.9302 10.5132 29.9029 10.6747C29.8626 10.9206 29.8179 11.1679 29.7805 11.4123C29.7718 11.4685 29.6941 11.7411 29.7143 11.7664H29.7791C29.9216 11.2845 29.9446 10.745 30.2283 10.3108C30.2643 10.3108 30.2442 10.3628 30.2398 10.3853C30.224 10.4598 30.2038 10.5553 30.1837 10.6256C29.8309 11.8956 29.4867 13.1685 29.0994 14.4246C29.0144 14.7014 28.905 14.9725 28.8618 15.2619L28.9453 15.2732C29.0893 14.4934 29.3931 13.7558 29.6538 13.0098C29.7042 12.9718 29.6854 13.0899 29.6811 13.1067C29.504 14.0382 29.1152 15.0175 28.82 15.9195C28.7509 16.1302 28.7135 16.3676 28.64 16.5784L28.6659 16.6332C28.6861 16.6191 28.7091 16.6079 28.7207 16.584L28.725 16.5826ZM29.8366 11.1763L29.8482 11.0948L29.8899 11.1004C29.8899 11.1398 29.8798 11.1707 29.8366 11.1763Z" fill="#3F2C22" stroke="#3F2C22" stroke-width="0.5" stroke-miterlimit="10"/>
<path d="M28.7063 18.4751C28.7581 18.3824 28.797 18.2489 28.8359 18.1154C28.7984 18.1154 28.761 18.1154 28.7236 18.1154C28.6588 18.3037 28.6026 18.4793 28.6127 18.5004C28.6372 18.5524 28.6876 18.5102 28.7063 18.4751Z" fill="#3F2C22" stroke="#3F2C22" stroke-width="0.5" stroke-miterlimit="10"/>
<path d="M30.1347 18.0185C30.2355 17.0182 30.3421 16.0206 30.417 15.0231C30.4515 14.5553 30.4746 14.0902 30.5264 13.6224L30.4573 13.5648L30.08 18.0185C30.0987 18.0185 30.1175 18.0185 30.1362 18.0185H30.1347Z" fill="#3F2C22" stroke="#3F2C22" stroke-width="0.5" stroke-miterlimit="10"/>
<path d="M10.1361 19.984L9.68397 19.9053C9.52413 19.8772 8.92509 19.9756 8.70765 19.9826C7.83646 20.0135 6.96238 19.9896 6.09551 20.0542C5.98319 20.0627 5.86367 20.0992 5.74991 20.1104L5.72687 20.0205C5.75135 19.9573 6.16031 19.991 6.24095 19.9868C7.22014 19.932 8.20078 19.9376 9.18141 19.8856C9.43917 19.8716 9.87693 19.7508 10.1116 19.8856C10.1592 19.9123 10.1476 19.9404 10.1376 19.9854L10.1361 19.984Z" fill="#3F2C22" stroke="#3F2C22" stroke-width="0.5" stroke-miterlimit="10"/>
<path d="M29.2477 35.329L28.7955 35.2503C28.6357 35.2222 28.0367 35.3206 27.8192 35.3276C26.948 35.3585 26.074 35.3346 25.2071 35.3993C25.0948 35.4077 24.9752 35.4442 24.8615 35.4555L24.8384 35.3655C24.8629 35.3023 25.2719 35.336 25.3525 35.3318C26.3317 35.277 27.3123 35.2827 28.293 35.2307C28.5507 35.2166 28.9885 35.0958 29.2232 35.2307C29.2707 35.2574 29.2592 35.2855 29.2491 35.3304L29.2477 35.329Z" fill="#3F2C22" stroke="#3F2C22" stroke-width="0.5" stroke-miterlimit="10"/>
<path d="M32.8909 13.3245C32.8362 13.3315 32.8304 13.2922 32.8261 13.2528C32.7944 12.9971 32.8779 12.6613 32.8707 12.3831C32.865 12.164 32.8247 11.9223 32.8059 11.7017C32.8016 11.6469 32.8275 11.439 32.7728 11.4236C32.6706 11.3926 32.5842 11.7298 32.4762 11.7537C32.3869 11.7734 32.42 11.4109 32.4258 11.3533C32.456 11.0948 32.5539 10.8152 32.5928 10.5553C32.6461 10.5384 32.6562 10.6073 32.6519 10.6438C32.6317 10.8026 32.5367 11.0274 32.5093 11.1875C32.4863 11.3182 32.4704 11.5036 32.4978 11.6301C32.6015 11.5486 32.6432 11.2859 32.8131 11.3435L32.8477 11.3926C32.8607 11.5879 32.901 11.7987 32.9111 11.9926C32.9298 12.3396 32.9067 12.6585 32.8895 13.0041C32.8837 13.1109 32.8952 13.2191 32.8895 13.3245H32.8909Z" fill="#3F2C22" stroke="#3F2C22" stroke-width="0.5" stroke-miterlimit="10"/>
<path d="M33.1242 9.19815C33.1472 9.20939 33.0651 9.25013 33.0507 9.25716C32.9125 9.31757 32.7138 9.3246 32.5539 9.35691C32.1565 9.4398 31.8339 9.48898 31.3789 9.50303C31.1255 9.51146 29.8093 9.27683 29.4853 9.2122C29.4723 9.26278 29.4781 9.17145 29.5127 9.17005C29.5674 9.16864 31.1067 9.45385 31.2003 9.45947C31.8599 9.50022 32.4416 9.34145 33.0277 9.20798C33.0608 9.20096 33.0838 9.19253 33.1242 9.19674V9.19815Z" fill="#3F2C22" stroke="#3F2C22" stroke-width="0.5" stroke-miterlimit="10"/>
<path d="M32.9543 8.03619C32.9572 8.0657 32.9543 8.08677 32.9356 8.11066C32.9125 8.13876 32.6504 8.15843 32.5856 8.16124C32.3452 8.17248 32.1119 8.14438 31.87 8.18653C31.628 8.22867 31.5589 8.22165 31.294 8.22727C31.2162 8.22867 29.8799 8.21603 29.7258 8.15562C29.6855 8.14016 29.7748 8.09239 29.7906 8.0938C30.1823 8.13314 31.5028 8.16405 31.87 8.10223C32.2372 8.04041 32.6 8.10925 32.9543 8.03479V8.03619Z" fill="#3F2C22" stroke="#3F2C22" stroke-width="0.5" stroke-miterlimit="10"/>
<path d="M31.2176 6.92067C31.1298 6.93753 31.1111 6.84059 31.0996 6.77737C31.029 6.37695 31.2392 6.07067 31.2608 5.67166C31.2738 5.43704 31.2436 5.20241 31.2392 4.96918C31.2479 4.91579 31.2896 4.8891 31.3444 4.89613C31.317 4.99026 31.3444 5.06894 31.3444 5.15323C31.3487 5.37241 31.3472 5.5958 31.3199 5.81216C31.2695 6.19712 31.0376 6.52869 31.2162 6.91927L31.2176 6.92067Z" fill="#3F2C22" stroke="#3F2C22" stroke-width="0.5" stroke-miterlimit="10"/>
<path d="M32.001 4.95795H31.8743C31.8483 4.63902 32.0946 4.32431 32.3581 4.15993L32.8693 3.84241C32.8779 3.88456 32.8607 3.8972 32.8391 3.9253C32.649 4.17679 32.2631 4.23439 32.0773 4.52522C32.0514 4.56596 31.9419 4.79216 31.9419 4.82729C31.9419 4.87224 32.0226 4.89613 32.001 4.95795Z" fill="#3F2C22" stroke="#3F2C22" stroke-width="0.5" stroke-miterlimit="10"/>
<path d="M30.9858 3.51223C31.0722 3.48132 31.1096 3.5628 31.1658 3.57404C31.5258 3.64289 31.9362 3.43495 32.325 3.51644C32.3538 3.52206 32.3955 3.54173 32.4042 3.57404C32.2415 3.61619 32.0715 3.58247 31.9074 3.59512C31.6899 3.61057 31.1931 3.74264 31.0175 3.59512C30.9872 3.56983 30.9815 3.54876 30.9872 3.51223H30.9858Z" fill="#3F2C22" stroke="#3F2C22" stroke-width="0.5" stroke-miterlimit="10"/>
<path d="M31.5992 6.77596C31.5373 6.78298 31.5229 6.70431 31.5171 6.66075C31.4653 6.33902 31.4739 6.01447 31.4509 5.69133C31.4451 5.60141 31.3429 5.06331 31.3659 5.04083H31.4293C31.52 5.61687 31.5056 6.20133 31.5992 6.77596Z" fill="#3F2C22" stroke="#3F2C22" stroke-width="0.5" stroke-miterlimit="10"/>
<path d="M32.2775 6.77594C32.2818 6.64247 32.2213 6.51602 32.2026 6.38396C32.1911 6.30528 32.1623 6.0847 32.1709 6.02007C32.1767 5.97792 32.2602 5.74891 32.3207 5.80371C32.2947 5.93156 32.2501 6.00883 32.2559 6.14511C32.2645 6.32073 32.3624 6.53991 32.3423 6.70288C32.3365 6.74363 32.3336 6.78015 32.2775 6.77454V6.77594Z" fill="#3F2C22" stroke="#3F2C22" stroke-width="0.5" stroke-miterlimit="10"/>
<path d="M32.4675 8.5631C32.4632 8.6193 32.1176 8.66004 32.0514 8.67409C32.0082 8.68252 31.9607 8.71624 31.9261 8.71905C31.8484 8.72467 31.8282 8.65442 31.8844 8.61368C31.906 8.59822 32.2415 8.54343 32.2948 8.53921C32.3192 8.53781 32.4704 8.53078 32.4675 8.5631Z" fill="#3F2C22" stroke="#3F2C22" stroke-width="0.5" stroke-miterlimit="10"/>
<path d="M32.721 9.08009H32.6144C32.636 8.98174 32.6058 8.83703 32.6893 8.771L32.721 9.08009Z" fill="#3F2C22" stroke="#3F2C22" stroke-width="0.5" stroke-miterlimit="10"/>
<path d="M36.3469 26.385C36.3383 26.371 36.1727 26.1448 36.1583 26.1434C35.8962 26.1218 35.6994 26.141 35.5679 26.201C35.5463 26.2108 35.5247 26.2192 35.5031 26.2291C35.1143 26.3878 34.9789 26.8754 35.2367 27.2083C35.2439 27.2168 35.2511 27.2252 35.2583 27.235C35.4584 27.4767 35.9783 27.346 36.2072 27.1844C36.4621 27.0032 36.5053 26.6463 36.3469 26.3864V26.385ZM36.0589 27.1409C35.9682 27.1718 35.8299 27.2842 35.7349 27.2744C35.637 27.2631 35.3677 27.1971 35.2842 27.1395C34.9746 26.9231 35.1935 26.4609 35.5376 26.2768C35.565 26.2614 35.8976 26.1925 35.9034 26.2178C35.997 26.2277 36.1064 26.3302 36.1943 26.3639C36.3195 26.4131 36.3498 26.5916 36.3771 26.718C36.4203 26.9161 36.2504 27.0749 36.0575 27.1409H36.0589Z" fill="#3F2C22" stroke="#3F2C22" stroke-width="0.5" stroke-miterlimit="10"/>
<path d="M36.5773 20.7989C36.5687 20.7849 36.4031 20.5587 36.3887 20.5572C36.1266 20.5357 35.9298 20.5549 35.7983 20.6149C35.7767 20.6247 35.7551 20.6331 35.7335 20.643C35.3447 20.8017 35.2093 21.2892 35.4671 21.6222C35.4743 21.6306 35.4815 21.6391 35.4887 21.6489C35.6888 21.8906 36.2087 21.7599 36.4376 21.5983C36.6925 21.4171 36.7357 21.0602 36.5773 20.8003V20.7989ZM36.2893 21.5548C36.1986 21.5857 36.0603 21.6981 35.9653 21.6882C35.8674 21.677 35.5981 21.611 35.5146 21.5534C35.205 21.337 35.4239 20.8748 35.768 20.6907C35.7954 20.6753 36.128 20.6064 36.1338 20.6317C36.2274 20.6415 36.3368 20.7441 36.4247 20.7778C36.5499 20.827 36.5802 21.0054 36.6075 21.1319C36.6507 21.33 36.4808 21.4887 36.2879 21.5548H36.2893Z" fill="#3F2C22" stroke="#3F2C22" stroke-width="0.5" stroke-miterlimit="10"/>
<path d="M2.8627 20.1456C2.85406 20.1315 2.68846 19.9053 2.67406 19.9039C2.41198 19.8824 2.21518 19.9016 2.08366 19.9615C2.06206 19.9714 2.04046 19.9798 2.01886 19.9896C1.63007 20.1484 1.49471 20.6359 1.75247 20.9689C1.75967 20.9773 1.76686 20.9857 1.77406 20.9956C1.97422 21.2372 2.49406 21.1066 2.72302 20.945C2.9779 20.7638 3.0211 20.4069 2.8627 20.147V20.1456ZM2.5747 20.9015C2.48398 20.9324 2.34574 21.0448 2.2507 21.0349C2.15278 21.0237 1.8835 20.9576 1.79998 20.9C1.49039 20.6837 1.70927 20.2214 2.05342 20.0374C2.08078 20.0219 2.41342 19.9531 2.41918 19.9784C2.51278 19.9882 2.62222 20.0908 2.71006 20.1245C2.83534 20.1737 2.86558 20.3521 2.89294 20.4786C2.93614 20.6767 2.76622 20.8354 2.57326 20.9015H2.5747Z" fill="#3F2C22" stroke="#3F2C22" stroke-width="0.5" stroke-miterlimit="10"/>
<path d="M3.4747 25.469C3.46606 25.455 3.30046 25.2288 3.28606 25.2274C3.02398 25.2058 2.82718 25.225 2.69566 25.285C2.67406 25.2948 2.65246 25.3032 2.63086 25.3131C2.24207 25.4718 2.10671 25.9593 2.36446 26.2923C2.37166 26.3007 2.37886 26.3092 2.38606 26.319C2.58622 26.5607 3.10606 26.43 3.33502 26.2684C3.5899 26.0872 3.6331 25.7303 3.4747 25.4704V25.469ZM3.1867 26.2249C3.09598 26.2558 2.95774 26.3682 2.8627 26.3583C2.76478 26.3471 2.4955 26.2811 2.41198 26.2235C2.10239 26.0071 2.32126 25.5449 2.66542 25.3608C2.69278 25.3454 3.02542 25.2765 3.03118 25.3018C3.12478 25.3117 3.23422 25.4142 3.32206 25.4479C3.44734 25.4971 3.47758 25.6755 3.50494 25.802C3.54814 26.0001 3.37822 26.1588 3.18526 26.2249H3.1867Z" fill="#3F2C22" stroke="#3F2C22" stroke-width="0.5" stroke-miterlimit="10"/>
<path d="M2.61935 29.9452C2.61071 29.9312 2.44511 29.705 2.43071 29.7036C2.16864 29.682 1.97184 29.7012 1.84032 29.7612C1.81872 29.771 1.79712 29.7794 1.77552 29.7893C1.38672 29.948 1.25136 30.4355 1.50912 30.7685C1.51632 30.7769 1.52352 30.7854 1.53072 30.7952C1.73088 31.0369 2.25071 30.9062 2.47967 30.7446C2.73455 30.5634 2.77775 30.2065 2.61935 29.9466V29.9452ZM2.33135 30.7011C2.24063 30.732 2.1024 30.8444 2.00736 30.8345C1.90944 30.8233 1.64016 30.7573 1.55664 30.6997C1.24704 30.4833 1.46592 30.0211 1.81008 29.837C1.83744 29.8216 2.17008 29.7527 2.17584 29.778C2.26943 29.7878 2.37887 29.8904 2.46671 29.9241C2.59199 29.9733 2.62223 30.1517 2.64959 30.2782C2.69279 30.4763 2.52287 30.635 2.32991 30.7011H2.33135Z" fill="#3F2C22" stroke="#3F2C22" stroke-width="0.5" stroke-miterlimit="10"/>
<path d="M2.93613 35.0958C2.92749 35.0817 2.76189 34.8555 2.74749 34.8541C2.48541 34.8326 2.28861 34.8518 2.15709 34.9117C2.13549 34.9216 2.11389 34.93 2.09229 34.9398C1.70349 35.0986 1.56813 35.5861 1.82589 35.9191C1.83309 35.9275 1.84029 35.9359 1.84749 35.9458C2.04765 36.1874 2.56749 36.0568 2.79645 35.8952C3.05133 35.714 3.09452 35.3571 2.93613 35.0972V35.0958ZM2.64813 35.8516C2.55741 35.8826 2.41917 35.995 2.32413 35.9851C2.22621 35.9739 1.95693 35.9078 1.87341 35.8502C1.56381 35.6339 1.78269 35.1716 2.12685 34.9876C2.15421 34.9721 2.48685 34.9033 2.49261 34.9286C2.58621 34.9384 2.69565 35.041 2.78349 35.0747C2.90877 35.1239 2.93901 35.3023 2.96637 35.4288C3.00957 35.6269 2.83965 35.7856 2.64669 35.8516H2.64813Z" fill="#3F2C22" stroke="#3F2C22" stroke-width="0.5" stroke-miterlimit="10"/>
</g>
<defs>
<clipPath id="clip0_427_3356">
<rect width="38" height="38" fill="white" transform="translate(0 0.5)"/>
</clipPath>
</defs>
</svg>
