<svg width="82" height="82" viewBox="0 0 82 82" fill="none" xmlns="http://www.w3.org/2000/svg">
<rect width="82" height="82" fill="#3F2C22"/>
<g clip-path="url(#clip0_591_27405)">
<path d="M71.984 36.5702C71.485 34.3569 71.8037 31.8988 71.1493 29.669C71.6809 29.4615 73.7391 29.7123 73.4422 28.8631C72.6836 28.1183 70.798 29.3615 70.7638 27.9706L72.0074 28.1183C72.155 27.2959 71.2052 27.4243 70.5897 27.2736C70.7793 26.4423 70.0938 25.8348 69.9912 25.1766C69.9352 24.8199 69.8031 22.3364 69.9648 22.2051C77.3113 21.9887 75.1335 12.3264 74.2412 7.74443C74.0204 6.61014 73.2214 4.61619 73.1903 3.58637C73.1779 3.18639 73.68 3.19534 73.1235 2.42821C71.4058 0.0581464 65.3448 0.111876 62.9788 1.41332C62.4845 1.68495 62.2513 1.98345 61.8425 2.32523L60.6813 2.04912C60.7403 2.92968 60.6502 3.80726 60.5383 4.68186C60.1092 8.01308 59.3693 11.3189 59.8574 14.7681C60.2787 17.7441 61.628 19.8694 64.367 21.3962C65.5842 22.0738 66.5697 22.0961 67.8335 22.4603L68.7787 26.4676C65.6774 26.2497 62.3632 25.9453 59.3755 26.8915C57.4759 27.493 52.018 30.4585 50.3687 29.7705C50.12 29.6675 49.8619 29.2227 49.5277 29.0451C48.1473 28.3123 46.6845 27.5616 45.2824 26.8437C41.6324 24.9751 38.2918 23.5289 34.1491 22.9872C29.8571 22.426 24.5065 25.0751 20.314 25.902C16.5443 26.6452 12.9628 26.7422 9.18999 26.1214L4.92599 25.0363C4.61509 25.5796 3.35905 25.5289 3.57047 26.1438C3.66063 26.4079 6.44008 28.0049 6.94373 28.184C8.11116 28.5989 9.38741 28.6496 10.4802 29.0063C11.4735 29.3302 12.6627 30.0779 13.7338 30.457C18.604 32.1794 23.5645 32.545 28.556 33.5942C32.8557 34.4987 36.3627 36.3135 38.7986 39.897C38.3773 40.4925 38.6167 41.1208 38.312 41.7312C38.1503 42.0536 36.2647 43.8759 35.8777 44.1685C35.3429 44.5729 32.4982 46.3863 31.979 46.5893C27.1336 48.4907 13.3809 45.2998 9.22108 42.2461C8.78737 41.9268 7.47071 40.1059 7.24064 41.4402C6.95151 43.1163 7.72565 43.958 8.81691 45.0819C10.8067 47.1325 13.4307 48.1474 15.9179 49.4772C14.4116 50.11 12.8229 50.0727 11.2264 50.1563C10.7414 50.1817 10.1911 50.5429 9.71541 50.2593C9.60348 50.1921 9.60504 49.9488 9.39052 49.8518C7.75829 49.119 7.42252 50.6518 8.71742 51.2593C12.3752 52.9741 17.4724 54.1979 21.4908 54.8726C24.6899 55.4098 30.7043 55.8591 33.8366 55.3472C37.0497 54.8218 42.3615 52.7249 45.1394 51.0712C45.727 50.722 46.2291 50.0071 47.0157 50.0474C46.7405 50.5772 46.526 51.1458 46.3861 51.7234C45.2171 56.568 46.5229 60.4723 47.1198 65.1408C47.4991 68.1004 47.2939 72.5928 46.5198 75.4688C46.1125 76.9807 45.2389 78.4627 44.6482 79.9179C44.5984 80.4686 44.9482 80.6194 45.458 80.3492C45.9601 80.0821 46.0503 78.5941 46.5711 78.1971L46.4949 78.8791C47.9655 79.0776 48.1971 77.0553 48.78 76.0539C51.1024 72.0645 54.3591 69.9183 57.0002 66.5781C59.6957 63.1678 63.3457 55.8397 63.2198 51.5503C63.1747 50.0399 62.5886 48.0041 62.5809 46.6176C62.5793 46.2236 62.7612 46.0042 62.9244 45.6804C62.7643 45.6759 62.5109 45.6878 62.3897 45.6072C62.1705 45.4595 62.0523 43.6401 61.9062 43.1297C61.743 42.5566 61.23 41.2029 60.445 41.2745C59.2884 41.3805 60.6751 43.0252 60.8678 43.4685C60.9797 43.7252 61.4305 45.0849 61.3155 45.1938C61.2005 45.1654 61.0435 45.1759 60.8849 45.2162C60.9424 45.4714 60.9797 45.7296 61.0124 45.9893C61.1709 45.955 61.3031 45.9206 61.3404 45.9475C61.6482 46.1624 62.0912 49.7548 62.1316 50.3757C62.3788 54.1606 61.1057 57.5516 59.332 60.8649C56.1717 66.7721 51.4429 69.8242 48.1287 75.2852C47.6281 76.1091 47.2737 77.1061 46.655 77.8553L48.1675 73.2958C47.7478 72.2525 48.2655 71.4137 48.2966 70.4138C48.4458 65.5677 47.0607 61.5828 46.9628 56.9635C46.9255 55.2128 46.9612 51.616 47.9297 50.1294C48.2468 49.6414 48.7427 50.3354 49.1407 49.7563L48.4287 49.5116L49.1049 49.1369L49.0909 48.334C48.5189 48.031 48.0712 48.1877 47.5209 48.422C45.7581 49.1698 44.1227 50.61 42.3117 51.4712C39.6582 52.7353 34.0853 54.6875 31.2064 54.7726C30.4462 54.7949 29.6255 54.483 28.8902 54.4606C26.6641 54.3905 24.8018 54.5144 22.54 54.1815C18.6289 53.6054 14.6603 52.5413 10.9792 51.1861L16.165 50.5473C16.8475 50.1488 17.7693 50.4309 18.231 49.7832C16.1044 48.1937 13.3467 47.4221 11.144 45.8983C10.6263 45.5401 7.75363 43.0506 8.15158 42.5387C10.9839 44.1476 14.2887 45.5013 17.4599 46.3848C21.4363 47.4922 26.6097 48.3922 30.7012 47.7564C32.851 47.4236 37.6327 44.3341 38.8825 42.5999C39.1312 42.2551 39.3877 41.4014 39.439 41.3536C39.7173 41.0925 40.2582 41.473 40.0779 40.3761C39.8712 39.1119 38.7442 37.903 37.8068 37.0717C31.6619 31.6256 23.807 32.3838 16.1262 30.1675C13.9716 29.5466 12.0083 28.472 9.96102 27.9661C8.76716 27.6706 7.25152 27.2616 6.42298 26.3661C7.29816 26.4139 8.22931 26.8288 9.05164 26.9616C13.1058 27.6153 16.2241 27.7064 20.2985 26.9004C23.9562 26.1766 27.8533 24.3214 31.508 24.0468C37.9685 23.5588 42.6584 26.4467 47.8831 29.4735C48.6883 29.9406 49.6941 29.9988 49.9599 31.0809C54.4664 30.7525 58.0293 27.6347 62.4798 27.2601C63.4592 27.178 68.275 27.078 68.8004 27.5825C69.116 28.1392 69.3538 29.1033 69.1004 29.7078C68.9605 30.0406 68.331 30.3212 68.0745 30.5988C67.6112 31.1003 65.0463 33.8256 65.009 34.142C64.9779 34.4032 65.1815 34.7016 65.11 34.9061C64.8162 35.7419 60.8802 38.797 59.9367 39.3149C58.9014 39.8836 57.2489 40.4432 56.0877 40.7761C55.5234 40.9387 54.5565 40.6432 54.6607 41.473C54.7524 42.2059 55.9494 41.7312 56.4515 41.6148C59.3646 40.9313 65.4427 37.4239 66.5277 34.6957C67.0905 33.2808 67.5086 32.3734 68.8688 31.3346C69.0445 31.2003 69.088 31.0003 69.3974 31.0719L70.0363 36.6881C67.9517 35.5718 64.6639 38.7896 64.9546 40.6059C65.1054 41.5417 67.4558 42.4835 68.3263 42.6476C70.7902 43.1088 75.6977 42.3984 77.1108 40.1403C78.7803 37.4702 73.8868 36.315 71.9809 36.5792L71.984 36.5702ZM69.9492 1.5954C70.5011 1.73719 73.0566 2.75506 71.5923 3.18937C70.9565 3.37743 68.6761 3.59533 67.9144 3.63712C66.0801 3.73562 64.6048 3.3625 62.8327 3.03416C63.9426 1.28646 68.1304 1.12676 69.9492 1.5969V1.5954ZM61.2191 12.0249C61.1165 10.8772 61.5922 9.19214 61.5052 8.26829C61.4787 7.98323 61.1772 7.70413 61.1849 7.58175C61.1958 7.4131 61.5875 7.26385 61.6077 7.06834C61.6357 6.80566 61.0031 5.64749 61.272 5.10871L63.7592 5.23557C63.4732 4.32515 62.0943 5.34153 62.3119 3.72667C63.7328 4.10427 65.5531 4.70424 67.0376 4.68036C67.4154 4.67439 67.7558 4.4938 68.1009 4.47888C69.5994 4.4162 71.0265 4.5147 72.4395 3.89084C72.8857 7.25042 74.1945 10.4861 74.05 13.9248C72.9276 13.5636 71.9281 12.9442 70.6658 13.1263L70.3549 12.3069L69.2233 12.304C68.7274 11.3443 71.2488 9.83241 71.3078 9.58914C71.4819 8.86528 71.2596 8.47724 70.4933 8.52351C70.1948 8.54142 69.2761 9.00707 69.3305 8.46679C69.4113 8.30411 72.6976 6.19374 71.3218 5.95644C70.9503 5.89226 67.5226 8.79365 67.3066 9.26975C67.1713 9.56824 67.12 10.3682 67.4946 10.4249L70.0565 9.39064L68.0605 11.6443L67.9921 12.8383C67.0936 13.1577 65.9075 12.5069 65.2251 12.5323C64.7774 12.5487 64.5504 12.9711 64.0856 12.9039C63.9271 12.7487 64.4416 8.96677 64.5768 8.58619C64.7836 8.0086 65.6075 7.86831 64.4214 7.14445C64.126 7.2534 63.7685 7.43549 63.669 7.74742C63.5167 8.22799 63.2804 9.43989 63.1887 9.98315C63.069 10.6966 63.1078 12.4278 62.8887 12.8875C62.7596 13.1577 61.3544 13.9129 60.9082 13.983L61.5984 13.3636C61.429 12.8935 61.2642 12.5398 61.2191 12.0249ZM68.5641 15.3068C69.6321 15.8501 69.7782 14.4143 70.3238 14.0785C70.8928 13.7278 74.0733 14.3531 73.4639 15.3068C70.6674 16.6829 67.1014 15.8755 64.1198 15.3546C63.5866 13.7442 64.0934 13.6741 65.5982 13.5547C66.8371 13.4562 68.0216 13.692 69.2497 13.6711C69.4393 14.092 68.0807 15.0606 68.5657 15.3068H68.5641ZM63.0597 15.1397L61.9917 14.9874C61.7772 14.7128 62.9089 13.9979 63.0395 14.1188L63.0581 15.1397H63.0597ZM66.9988 21.3812C64.2877 21.1678 61.1072 17.9784 60.9331 15.3486C61.6202 15.662 62.2451 16.0635 63.0426 16.0262C63.3115 16.177 64.1649 19.832 65.2453 18.0918C64.6903 17.659 64.3623 17.0038 64.3266 16.3143C65.4614 16.5486 66.8215 16.8784 67.9734 16.9381C70.0129 17.0441 72.183 16.971 74.0951 16.3143C74.221 18.3052 73.01 21.0186 70.7311 21.323C69.8622 21.4394 67.891 21.4514 66.9988 21.3812ZM70.6239 30.0197L70.8493 32.5734C70.4202 32.2823 70.3192 30.9869 70.2788 30.4481C70.2523 30.0929 70.1668 29.9585 70.6254 30.0197H70.6239ZM71.8193 41.7641C70.6581 41.888 66.4827 41.8715 66.0567 40.5492C65.7785 39.6865 67.6781 37.5523 68.5517 37.5612C68.9792 37.5657 69.1424 38.2911 69.7051 37.8791L69.5792 39.4716C71.185 40.8417 70.6612 38.206 70.941 37.3478L71.4011 37.8508C72.5235 37.2105 75.062 37.4404 76.004 38.2955C77.8849 40.0074 73.1359 41.6223 71.8193 41.7626V41.7641Z" fill="#FFFFF5"/>
<path d="M45.0244 80.9999C44.7944 80.9999 44.628 80.9268 44.5254 80.8641C44.3467 80.7521 44.056 80.476 44.1088 79.8716L44.115 79.7969L44.143 79.7268C44.3606 79.191 44.6187 78.6462 44.8674 78.1194C45.2996 77.206 45.7473 76.2598 45.996 75.3359C46.7126 72.6748 46.9691 68.2242 46.5836 65.202C46.4406 64.0856 46.254 63.0005 46.0753 61.9513C45.4954 58.5724 44.9482 55.3799 45.8607 51.604C45.9027 51.4323 45.9493 51.2607 46.0038 51.092C45.8234 51.2398 45.6384 51.3905 45.4317 51.5144C42.7284 53.1233 37.3421 55.3038 33.9331 55.862C30.7261 56.3859 24.5952 55.9232 21.4022 55.3874C19.0052 54.9859 12.9504 53.8233 8.48433 51.7293C7.48789 51.2622 7.20031 50.3622 7.49877 49.7622C7.76926 49.219 8.53252 48.8891 9.62688 49.3802C9.89581 49.501 10.0217 49.71 10.0886 49.8428C10.1958 49.8563 10.3544 49.8175 10.5751 49.7578C10.7632 49.7055 10.9777 49.6473 11.2031 49.6354C11.4472 49.6234 11.6928 49.613 11.9369 49.6025C12.8385 49.5652 13.7074 49.5309 14.5407 49.3563C14.365 49.2682 14.1893 49.1802 14.0152 49.0936C12.0612 48.116 10.0404 47.1041 8.42526 45.44C7.36975 44.352 6.37176 43.3237 6.71064 41.3566C6.81479 40.7536 7.13036 40.5417 7.37752 40.47C8.04285 40.279 8.67087 40.9297 9.22427 41.5043C9.34707 41.6312 9.49941 41.7894 9.55849 41.8342C13.7354 44.8997 27.272 47.8772 31.7801 46.1086C32.1889 45.9474 34.9637 44.2027 35.5482 43.761C35.9368 43.4669 37.6359 41.8043 37.8333 41.4999C37.925 41.3118 37.9452 41.0999 37.9685 40.8551C37.995 40.5835 38.0261 40.2611 38.1722 39.9298C36.0161 36.9015 32.9164 35.0479 28.4472 34.1076C26.8072 33.7628 25.1408 33.4867 23.5272 33.2211C20.2488 32.6793 16.8584 32.1196 13.5536 30.951C13.0002 30.7555 12.4312 30.4734 11.8794 30.2003C11.3166 29.9212 10.7834 29.6585 10.3124 29.5048C9.83674 29.3496 9.31288 29.2555 8.75792 29.1555C8.10192 29.0376 7.42416 28.9137 6.76194 28.6794C6.43394 28.563 5.52611 28.0615 4.82348 27.6466C3.18503 26.678 3.1213 26.4929 3.06067 26.3124C2.78242 25.5034 3.62185 25.1751 3.97938 25.0348C4.13172 24.9751 4.41309 24.8646 4.45661 24.79L4.66181 24.4318L9.31443 25.6154C12.9597 26.2124 16.4232 26.1422 20.213 25.396C21.5934 25.1243 23.0997 24.6497 24.6947 24.1497C27.9218 23.1349 31.2593 22.0856 34.2315 22.4752C38.3245 23.011 41.7149 24.4273 45.5467 26.3885C46.9365 27.1004 48.4101 27.8556 49.7983 28.5944C50.0501 28.7272 50.2444 28.9361 50.403 29.1033C50.4667 29.1705 50.5616 29.2719 50.6051 29.3018C51.5704 29.6809 54.8442 28.2466 56.8013 27.3884C57.7853 26.9571 58.6356 26.584 59.2123 26.4019C62.068 25.4975 65.1257 25.69 68.0932 25.9019L67.3812 22.8856C67.1077 22.8155 66.8434 22.7573 66.5853 22.702C65.7723 22.5244 65.0029 22.3573 64.1013 21.8558C61.3 20.2947 59.7828 18.0679 59.3258 14.8471C59.3227 14.8217 59.3196 14.7979 59.3149 14.7725L59.2326 14.7859L59.3072 14.7188C58.9356 11.9353 59.3352 9.23686 59.7222 6.62353C59.8186 5.96833 59.9196 5.29074 60.0051 4.62509C60.1046 3.85796 60.2041 2.96694 60.145 2.09086L60.0969 1.37894L61.6964 1.75953C61.7353 1.7252 61.7726 1.68938 61.8099 1.65505C62.0571 1.4267 62.3136 1.1894 62.7146 0.968511C65.3449 -0.477704 71.7043 -0.44487 73.5759 2.13862C74.0485 2.78934 73.9941 3.1744 73.7671 3.55051C73.7578 3.56543 73.7469 3.58483 73.7392 3.59677C73.7609 4.15048 74.0532 5.10567 74.3112 5.94892C74.504 6.58024 74.6874 7.17724 74.7807 7.65632L74.8802 8.16675C75.5921 11.786 76.786 17.8455 74.2382 20.8902C73.3412 21.9618 72.065 22.5722 70.4389 22.708C70.4172 23.3737 70.4856 24.7945 70.5338 25.1064C70.5602 25.2781 70.6644 25.4825 70.7747 25.7004C70.9379 26.0213 71.1292 26.3989 71.1649 26.8422C71.58 26.8944 72.0789 26.969 72.3712 27.3496C72.5266 27.5526 72.5919 27.8004 72.564 28.0884C73.0132 28.0795 73.4749 28.1526 73.834 28.5048L73.921 28.5899L73.9599 28.7033C74.0594 28.9884 74.0267 29.269 73.8697 29.4943C73.5262 29.9883 72.7505 30.0391 71.9997 30.0898C71.9453 30.0928 71.8831 30.0973 71.8209 30.1018C72.0665 31.1913 72.1256 32.3121 72.1847 33.4002C72.2344 34.3135 72.281 35.1852 72.4272 36.021C73.9692 35.9956 76.6538 36.5418 77.6301 37.9522C77.9861 38.4656 78.2659 39.3074 77.5788 40.4059C75.9248 43.052 70.6099 43.6043 68.2238 43.158C67.4792 43.0192 64.6376 42.0461 64.4184 40.6835C64.1961 39.2984 65.4941 37.603 66.8294 36.7105C67.7124 36.1209 68.6124 35.8627 69.4068 35.9538L68.9513 31.948C67.8911 32.8285 67.5383 33.621 67.0377 34.8807C65.8252 37.9313 59.4424 41.4506 56.5821 42.1222C56.5137 42.1386 56.4298 42.1625 56.3365 42.1879C55.7987 42.3401 55.0618 42.5491 54.5473 42.2237C54.3794 42.1177 54.1695 41.9118 54.1229 41.5357C54.0809 41.1984 54.154 40.9193 54.3421 40.7073C54.6499 40.3581 55.1287 40.3372 55.5126 40.3193C55.6712 40.3118 55.836 40.3044 55.9355 40.276C57.1091 39.9387 58.7071 39.391 59.6709 38.8611C60.6736 38.3119 64.2023 35.4896 64.58 34.7792C64.5723 34.7464 64.5583 34.6986 64.549 34.6643C64.5039 34.5061 64.4464 34.3091 64.4728 34.0852C64.5008 33.8464 64.5241 33.639 67.4434 30.4988L67.6704 30.254C67.8118 30.1003 68.0031 29.9689 68.1865 29.8421C68.3248 29.7466 68.558 29.5854 68.6015 29.5078C68.757 29.1346 68.6217 28.4362 68.387 27.9526C67.6253 27.6705 63.8012 27.675 62.5297 27.7824C60.4218 27.9601 58.533 28.775 56.5339 29.6361C54.4898 30.5182 52.3772 31.4301 50.0035 31.6017L49.5402 31.636L49.433 31.2017C49.3071 30.6898 48.9744 30.5301 48.3464 30.2704C48.1039 30.1704 47.8536 30.0659 47.6049 29.9212L47.0251 29.5854C41.9683 26.6482 37.6001 24.1124 31.5531 24.5691C29.4716 24.7258 27.2425 25.4318 25.0864 26.1153C23.5443 26.6034 21.9494 27.1093 20.4089 27.4138C17.2175 28.0451 14.5515 28.169 11.2171 27.7914C11.9602 28.0392 12.6924 28.3347 13.409 28.6242C14.3386 28.9988 15.3008 29.3884 16.2817 29.6704C18.6803 30.363 21.1317 30.7659 23.5008 31.1569C28.8265 32.0345 33.8553 32.8629 38.1737 36.6911C39.6085 37.9627 40.4293 39.1761 40.6128 40.2984C40.7091 40.882 40.7076 41.573 39.8573 41.7461C39.8479 41.77 39.8402 41.7924 39.8308 41.8148C39.6723 42.2371 39.5153 42.6386 39.3272 42.8983C38.0603 44.6579 33.1714 47.9026 30.7852 48.2727C26.0346 49.0085 20.3016 47.7205 17.3061 46.8862C14.7598 46.1773 12.1545 45.1758 9.78544 44.0027C10.415 44.6221 11.1332 45.249 11.4596 45.4743C12.4716 46.1743 13.6437 46.728 14.7754 47.2623C16.0672 47.8728 17.4041 48.5041 18.5622 49.3697L18.9648 49.6712L18.6772 50.0771C18.2746 50.6413 17.6637 50.7309 17.174 50.8025C16.8973 50.8428 16.6377 50.8801 16.4449 50.9935L16.3454 51.0517L13.2737 51.4293C16.4061 52.4547 19.599 53.2203 22.6194 53.6651C24.1692 53.8934 25.5341 53.9009 26.9813 53.9098C27.5985 53.9128 28.2358 53.9173 28.9042 53.9382C29.2882 53.9501 29.6737 54.0277 30.0468 54.1024C30.4541 54.1845 30.838 54.2621 31.1863 54.2501C33.8693 54.171 39.3318 52.3054 42.0662 51.0025C42.8854 50.6115 43.6938 50.0816 44.4757 49.5682C45.382 48.9727 46.3178 48.3578 47.2955 47.9444C47.807 47.728 48.5065 47.431 49.3475 47.8772L49.6242 48.0235L49.6475 49.3802L49.9708 49.4921L49.59 50.0473C49.1812 50.6428 48.6091 50.5353 48.365 50.4876C48.3573 50.4876 48.3495 50.4846 48.3402 50.4831C47.7401 51.498 47.4354 53.8442 47.5007 56.956C47.5443 59.0186 47.8567 61.0036 48.1599 62.9244C48.5329 65.2915 48.9184 67.7377 48.8345 70.4331C48.8221 70.8241 48.7474 71.1779 48.6759 71.5196C48.5562 72.0853 48.4537 72.5733 48.6697 73.1121L48.7381 73.2838L48.6759 73.4718C50.0081 71.5868 51.4958 69.9585 52.943 68.375C55.0261 66.096 57.1791 63.7408 58.8424 60.632C61.5332 55.6008 61.7198 52.5293 61.583 50.4144C61.5379 49.7145 61.2208 47.3802 60.9985 46.5325L60.5368 46.631L60.4668 46.0564C60.4404 45.8385 60.4047 45.5818 60.3487 45.334L60.2368 44.8445L60.7031 44.7266C60.6021 44.3505 60.4357 43.8416 60.3627 43.6759C60.3378 43.6192 60.2337 43.4565 60.1497 43.3266C59.7362 42.6819 59.2217 41.8789 59.5403 41.264C59.6274 41.0969 59.8512 40.8103 60.3891 40.7611C61.6576 40.6432 62.2685 42.4446 62.4271 42.9983C62.4923 43.2296 62.5452 43.6177 62.6043 44.0669C62.6478 44.3923 62.7146 44.8923 62.7768 45.1624C62.8017 45.1624 62.825 45.1624 62.8437 45.1624C62.8763 45.1624 62.9074 45.1624 62.9369 45.1639L63.7764 45.1878L63.4111 45.9131C63.3722 45.9892 63.3333 46.0609 63.2945 46.131C63.1732 46.3474 63.1204 46.4504 63.1219 46.6206C63.125 47.2832 63.2727 48.1175 63.4266 49.0011C63.5789 49.8667 63.7359 50.7622 63.7593 51.5413C63.8945 56.1023 60.1015 63.5184 57.4293 66.9004C56.3676 68.2436 55.1986 69.4078 54.0685 70.5316C52.2964 72.2942 50.6237 73.9598 49.2511 76.315C49.119 76.5418 48.9993 76.8538 48.8718 77.1821C48.4878 78.1746 47.9671 79.5268 46.5478 79.4164C46.5416 79.4328 46.5369 79.4507 46.5307 79.4656C46.3426 80.0372 46.1639 80.576 45.7193 80.8133C45.4441 80.9596 45.2094 81.0103 45.0198 81.0103L45.0244 80.9999ZM47.1292 78.1179L47.1214 78.194C47.294 78.0388 47.4479 77.7776 47.6173 77.397C47.4712 77.6463 47.3126 77.8896 47.1308 78.1179H47.1292ZM47.5396 73.0972C47.507 73.33 47.4728 73.5584 47.4355 73.7822L47.5971 73.2972C47.5754 73.23 47.5567 73.1629 47.5412 73.0972H47.5396ZM59.0864 62.3752C57.4946 64.9766 55.6044 67.0452 53.7685 69.0526C52.9462 69.951 52.1114 70.8644 51.3031 71.8286C51.959 71.1197 52.629 70.4525 53.2897 69.7943C54.3981 68.6914 55.5437 67.5511 56.5666 66.2571C57.3609 65.2512 58.2423 63.8945 59.0849 62.3752H59.0864ZM27.1508 54.9486C27.9125 54.9949 28.6788 55.0262 29.425 55.0411C29.2307 55.0068 29.0457 54.9814 28.8732 54.977C28.2793 54.9576 27.7073 54.9531 27.1508 54.9501V54.9486ZM45.3167 50.2801C45.2436 50.3279 45.1705 50.3756 45.0975 50.4249C44.8301 50.601 44.5596 50.7786 44.2845 50.9532C44.4866 50.8413 44.6778 50.7323 44.8565 50.6264C45.0011 50.5413 45.1534 50.4159 45.3151 50.2831C45.3151 50.2831 45.3151 50.2831 45.3167 50.2816V50.2801ZM8.62268 50.1786C8.52785 50.1786 8.48277 50.201 8.47811 50.21C8.43925 50.2891 8.52785 50.5861 8.95845 50.7891C9.02218 50.8189 9.08592 50.8488 9.14965 50.8771L9.66886 50.8129C9.58958 50.7846 9.50874 50.7488 9.42946 50.701C9.24292 50.5891 9.1652 50.4234 9.11856 50.3234C9.11545 50.3159 9.11079 50.307 9.10768 50.2995C8.88072 50.204 8.72372 50.1786 8.62268 50.1786ZM17.0077 49.5891L16.1387 49.9548C16.0625 49.9861 15.9863 50.0174 15.9102 50.0458L15.9926 50.0354C16.3377 49.8622 16.6952 49.81 17.0154 49.7637C17.0963 49.7518 17.1678 49.7413 17.2331 49.7294C17.1584 49.6816 17.0838 49.6354 17.0077 49.5891ZM48.4614 48.6832C48.278 48.6832 48.0666 48.7548 47.7417 48.8936C47.2691 49.0936 46.8043 49.3473 46.3364 49.6309C46.5494 49.5533 46.7857 49.51 47.0468 49.5234L47.2878 49.5354L48.5562 48.8324L48.5531 48.6906C48.522 48.6861 48.4925 48.6847 48.4599 48.6847L48.4614 48.6832ZM61.9421 45.9072C61.9809 46.0071 62.0229 46.1355 62.0664 46.3056C62.082 46.2191 62.1053 46.1385 62.1317 46.0639C62.1146 46.0534 62.0959 46.043 62.0788 46.031C62.0275 45.9952 61.9809 45.9564 61.9421 45.9086V45.9072ZM61.7073 45.5534C61.7369 45.5758 61.7664 45.6027 61.7975 45.64C61.7819 45.5982 61.7679 45.5534 61.754 45.5042C61.74 45.5221 61.7244 45.5385 61.7073 45.5549V45.5534ZM60.5554 41.7983C60.6378 42.0715 60.9518 42.5625 61.084 42.767C61.213 42.9685 61.3156 43.1282 61.3731 43.2595C61.3809 43.2774 61.3902 43.2998 61.4011 43.3252C61.3949 43.3013 61.3902 43.2789 61.3855 43.261C61.1461 42.4192 60.7637 41.876 60.557 41.7969L60.5554 41.7983ZM7.76926 41.5909C7.73506 41.8133 7.72107 42.0163 7.72728 42.2058L8.0102 41.8416L8.12057 41.9043C8.00398 41.7894 7.87807 41.673 7.76926 41.5894V41.5909ZM68.5067 38.0895C68.2797 38.1418 67.658 38.5612 67.0921 39.3089C66.6398 39.9059 66.548 40.3059 66.576 40.3954C66.8092 41.1163 69.971 41.4357 71.7603 41.2446C72.7878 41.1357 75.5502 40.1626 75.8735 39.2372C75.8999 39.1596 75.9637 38.979 75.631 38.6761C74.8677 37.9821 72.6153 37.7672 71.681 38.3L71.3717 38.4761C71.3359 39.2686 71.2753 40.0611 70.6519 40.3163C70.1063 40.5387 69.5715 40.1641 69.2187 39.8626L69.0181 39.691L69.113 38.4865C68.8767 38.4104 68.701 38.2552 68.6046 38.1701C68.5767 38.1448 68.5378 38.1104 68.5083 38.0895H68.5067ZM39.4096 39.9656L39.251 40.1909C39.0987 40.4074 39.0753 40.6447 39.0458 40.9476C39.0458 40.9626 39.0427 40.9775 39.0411 40.9924C39.0474 40.9864 39.0536 40.9805 39.0598 40.9745C39.2324 40.8118 39.4313 40.7566 39.5712 40.7282C39.5712 40.6685 39.5635 40.5805 39.5417 40.4521C39.5153 40.2939 39.4717 40.1312 39.4096 39.9656ZM65.5392 39.9626C65.4863 40.1641 65.4692 40.3536 65.4956 40.5193C65.4956 40.5238 65.4956 40.5282 65.4987 40.5327C65.4723 40.3491 65.491 40.1566 65.5392 39.9641V39.9626ZM37.7354 37.7194C38.2826 38.294 38.7862 38.9193 39.2479 39.5984C38.9494 39.0134 38.4442 38.385 37.7354 37.7194ZM70.1436 39.2387C70.1638 39.2522 70.1825 39.2641 70.1996 39.2746C70.2586 39.0343 70.2773 38.588 70.2882 38.3238C70.3022 38.0089 70.3146 37.7075 70.3597 37.4493L70.2866 37.4104L70.1436 39.2372V39.2387ZM65.5609 34.2419C65.5703 34.2837 65.5858 34.3389 65.5982 34.3792C65.6495 34.5598 65.721 34.8076 65.6309 35.0673C65.4428 35.6001 64.3562 36.615 63.1934 37.5701C64.5583 36.5433 65.648 35.4493 66.0242 34.5031C66.2993 33.8091 66.548 33.2255 66.8823 32.6867C66.0211 33.6419 65.6775 34.0658 65.5625 34.2434L65.5609 34.2419ZM68.5844 37.0403C68.9451 37.0537 69.1814 37.2627 69.3399 37.4015C69.357 37.4164 69.3757 37.4328 69.3959 37.4493L69.8032 37.1508L69.7736 37.1358C69.3959 36.9329 68.9731 36.9418 68.5844 37.0388V37.0403ZM70.7125 36.306L71.5426 37.212C71.6421 37.1761 71.7463 37.1448 71.8535 37.1164L71.5597 37.1567L71.4525 36.6806C71.2147 35.6254 71.1556 34.518 71.0981 33.4479L71.0949 33.3793L70.5353 32.9987C70.3519 32.8748 70.212 32.6808 70.1047 32.439L70.5882 36.6896L70.7141 36.3045L70.7125 36.306ZM68.628 30.8182C68.5673 30.8629 68.516 30.9047 68.4849 30.9376L68.429 30.9973C68.4632 30.9704 68.4974 30.9435 68.5316 30.9167C68.5409 30.9092 68.5658 30.8823 68.5844 30.8629C68.5969 30.8495 68.6109 30.8331 68.628 30.8167V30.8182ZM69.2777 30.5271C69.3539 30.5271 69.4363 30.5361 69.5265 30.557L69.7441 30.6077C69.741 30.5674 69.7379 30.5271 69.7348 30.4868C69.7317 30.4435 69.727 30.4047 69.7239 30.3704C69.7037 30.1809 69.6741 29.8958 69.9151 29.6719C70.1047 29.4958 70.3472 29.4764 70.5307 29.4869L70.4949 29.363L70.9457 29.1869C70.9877 29.1705 71.0343 29.1555 71.0825 29.1436C70.9131 29.1018 70.753 29.0287 70.6115 28.9078C70.3628 28.6958 70.2322 28.3854 70.2213 27.9839L70.2151 27.7213L69.9477 27.6556L70.0597 27.1631C70.1358 26.8258 69.9773 26.5138 69.7938 26.1527C69.6524 25.8736 69.5062 25.5855 69.455 25.2557C69.4208 25.0333 69.3741 24.2706 69.3539 23.6229C69.3213 22.4841 69.3648 22.1244 69.4954 21.9334C68.9824 21.9498 68.4274 21.9543 67.9331 21.9453C67.9533 21.9513 67.972 21.9558 67.9922 21.9618L68.2969 22.0498L69.4736 27.0422L68.8503 26.9989C69.0492 27.075 69.1285 27.1511 69.1891 27.2093L69.2451 27.2631L69.2824 27.3302C69.6073 27.9033 69.9617 29.0615 69.6088 29.9003C69.486 30.1913 69.2202 30.4047 68.9575 30.5913C69.0477 30.5555 69.1534 30.5301 69.2777 30.5301V30.5271ZM50.1869 30.263C50.2413 30.3406 50.2911 30.4241 50.3346 30.5152C50.6129 30.4838 50.888 30.4421 51.16 30.3913C50.7854 30.4077 50.459 30.3704 50.1869 30.2644V30.263ZM13.1245 29.6331C13.3981 29.76 13.6686 29.8764 13.9251 29.9674C14.0572 30.0137 14.1893 30.06 14.3215 30.1048C13.9158 29.951 13.5178 29.7913 13.1245 29.6331ZM46.6147 28.1183C46.938 28.3048 47.2629 28.4944 47.5893 28.6824L48.1676 29.0182C48.3542 29.1257 48.5609 29.2122 48.7785 29.3033C48.962 29.3794 49.1594 29.4615 49.3521 29.563C49.3211 29.5376 49.2931 29.5167 49.2651 29.5018C48.4008 29.0436 47.5038 28.5764 46.6131 28.1183H46.6147ZM4.26386 26.0467C4.95716 26.5303 6.75261 27.5601 7.13502 27.6959C7.4397 27.8033 7.75837 27.8869 8.08171 27.9571C7.28581 27.666 6.54431 27.278 6.01889 26.7079L5.14992 25.7676L5.81525 25.8034L5.11106 25.6243C4.88877 25.8019 4.61673 25.9079 4.38355 25.9989C4.3478 26.0139 4.30583 26.0303 4.26386 26.0467ZM32.904 23.4319C32.4532 23.4319 31.993 23.4617 31.5236 23.5139C32.3661 23.4528 33.1791 23.4468 33.9688 23.4916C33.6222 23.4513 33.2662 23.4319 32.904 23.4319ZM67.0439 20.8603C67.9036 20.9275 69.8467 20.9126 70.6566 20.8051C71.8287 20.6484 73.4003 19.238 73.5511 17.0276C72.0106 17.4395 70.2042 17.5769 67.944 17.4604C67.0222 17.4127 65.9869 17.2022 65.0464 17.0022C65.1708 17.2694 65.3542 17.5052 65.5889 17.6873L65.9542 17.9724L65.7133 18.3604C65.3946 18.8753 65.0106 19.1171 64.5738 19.0813C63.7064 19.0096 63.2307 17.8216 62.8483 16.8679C62.8064 16.762 62.7582 16.6426 62.7162 16.5441C62.3353 16.5127 61.9918 16.4067 61.6731 16.2769C62.3991 18.4395 64.9174 20.6946 67.0424 20.8618L67.0439 20.8603ZM74.5941 15.5889L74.6377 16.2829C74.6454 16.3993 74.6485 16.5172 74.647 16.6396C74.7434 15.5948 74.7092 14.471 74.605 13.3561C74.605 13.5531 74.6019 13.7501 74.5941 13.9486L74.5646 14.6441L73.8775 14.4217C73.8526 14.4143 73.8278 14.4053 73.8029 14.3979C74.1309 14.7531 74.1791 15.1889 73.9288 15.5799L73.8495 15.7053L73.7127 15.7724C73.4469 15.9023 73.1764 16.0157 72.9013 16.1112C73.2542 16.0306 73.5899 15.9336 73.9117 15.8232L74.5941 15.5889ZM63.5012 15.7307C63.5976 15.8486 63.6753 16.0187 63.781 16.2799L63.7577 15.8202L63.7017 15.8112L63.6131 15.5411L63.6162 15.7456L63.5012 15.7292V15.7307ZM70.6068 14.5247C70.5353 14.5829 70.4125 14.7949 70.3364 14.9232C70.2353 15.0963 70.0938 15.3381 69.8964 15.5441C70.9473 15.5292 71.9624 15.3769 72.8842 14.9919C72.4303 14.6755 71.0017 14.3949 70.6068 14.5247ZM64.549 14.8993C64.6826 14.9232 64.8194 14.9471 64.9547 14.9725C65.934 15.1486 66.96 15.3337 67.9828 15.4441C67.9611 15.3993 67.9455 15.3531 67.9331 15.3038C67.8398 14.9023 68.1181 14.5501 68.4134 14.1755C68.1445 14.1621 67.8802 14.1412 67.6206 14.1218C66.9413 14.071 66.2993 14.0233 65.6449 14.0755C65.2423 14.1068 64.5692 14.1606 64.4774 14.2695C64.4743 14.274 64.409 14.3829 64.5505 14.8993H64.549ZM60.5072 14.5755L61.1679 14.877C61.255 14.9158 61.3405 14.9575 61.426 14.9978C61.3964 14.7979 61.4571 14.5277 61.7866 14.2128C61.4524 14.365 61.1539 14.474 60.9954 14.4979L60.5072 14.574V14.5755ZM62.9991 13.583C63.1499 13.583 63.2945 13.6277 63.4173 13.7427L63.495 13.8143C63.5168 13.771 63.5416 13.7277 63.5712 13.6874C63.652 13.571 63.7499 13.477 63.8634 13.4024L63.823 13.3964L63.6955 13.271C63.5914 13.1696 63.5136 13.0934 63.5121 12.6711C63.4795 12.8487 63.439 12.9919 63.3831 13.1069C63.3131 13.2546 63.1312 13.4233 62.8965 13.5904C62.9307 13.586 62.9649 13.5845 62.9976 13.5845L62.9991 13.583ZM60.6549 7.71304C60.3689 9.71147 60.1311 11.7562 60.3005 13.8143L60.9674 13.2158C60.8368 12.8666 60.7187 12.5248 60.6782 12.0681C60.6192 11.4084 60.728 10.6368 60.8321 9.89057C60.9192 9.27567 61 8.6936 60.9643 8.31302C60.9565 8.26824 60.8803 8.15183 60.8384 8.08914C60.7668 7.9787 60.6876 7.85781 60.6565 7.71304H60.6549ZM69.6042 13.1412L69.7488 13.4621C69.8016 13.58 69.8203 13.6964 69.8109 13.8113C69.8762 13.7457 69.9477 13.6874 70.0301 13.6367C70.0907 13.5994 70.1638 13.568 70.2462 13.5427L69.9742 12.8278L68.886 12.8248L68.7368 12.5352C68.6109 12.292 68.5891 12.0442 68.6388 11.798L68.5938 11.8487L68.5191 13.1322C68.7601 13.1442 68.9979 13.1502 69.2389 13.1457L69.6042 13.1397V13.1412ZM71.1292 12.5711C71.981 12.5711 72.7116 12.8576 73.4236 13.1352C73.4547 13.1472 73.4858 13.1591 73.5169 13.171C73.4873 11.3457 73.0785 9.58163 72.6479 7.72647C72.4132 6.71158 72.1707 5.66834 71.9981 4.61465C70.9613 4.93254 69.926 4.95642 68.9186 4.97881C68.6559 4.98478 68.3917 4.99075 68.1259 5.0012C68.0248 5.00568 67.8958 5.04149 67.7574 5.07881C67.5507 5.13552 67.3175 5.1997 67.047 5.20268C66.1268 5.21761 65.1086 5.01314 64.1292 4.76389C64.1899 4.85344 64.2427 4.95792 64.2816 5.08328L64.5054 5.7952L61.7726 5.6564C61.8239 5.91161 61.9343 6.231 61.9871 6.38622C62.0975 6.7086 62.1721 6.92053 62.1488 7.12052C62.1224 7.36678 61.9731 7.53394 61.8363 7.65483C61.9281 7.80408 62.0244 7.9981 62.0462 8.21899C62.0928 8.71599 62.0027 9.35328 61.9079 10.0294C61.8115 10.7204 61.7104 11.4338 61.7586 11.9786C61.7897 12.3218 61.8845 12.5845 62.0058 12.9084C62.1846 12.8024 62.3338 12.7024 62.4068 12.6338C62.4877 12.3905 62.5265 11.6129 62.5514 11.1383C62.5763 10.6607 62.5981 10.21 62.6509 9.89952C62.7426 9.35328 62.9836 8.11601 63.1483 7.59513C63.2774 7.18918 63.6396 6.87277 64.2256 6.65636L64.4821 6.56233L64.7137 6.70412C65.1024 6.94142 65.5081 7.23992 65.5811 7.66528C65.6464 8.05034 65.4164 8.32496 65.264 8.50704C65.1894 8.59659 65.1179 8.68017 65.0915 8.75778C64.9858 9.09209 64.7106 11.1084 64.6236 12.1666C64.779 12.089 64.9702 12.0203 65.2034 12.0114C65.5438 11.9994 65.92 12.098 66.3164 12.2024C66.6988 12.3039 67.1185 12.4144 67.473 12.4054L67.5289 11.4428L68.1647 10.7249L67.5631 10.9681L67.4092 10.9443C67.159 10.9055 66.9491 10.7592 66.8185 10.5308C66.5729 10.0995 66.6537 9.40104 66.8076 9.06374C67.0051 8.62942 68.3357 7.48917 68.8984 7.01903C70.8913 5.35492 71.1836 5.40566 71.4183 5.44447C71.9701 5.53998 72.1318 5.86087 72.18 6.04444C72.323 6.59666 71.8504 7.15634 70.7825 8.00556C71.0654 8.02795 71.3001 8.11004 71.4836 8.24884L71.9499 8.06079L71.6468 8.40257C71.9126 8.71151 71.9748 9.13836 71.838 9.70699C71.7805 9.9443 71.6002 10.0891 71.1633 10.4413C70.3022 11.1323 69.9275 11.5427 69.7814 11.783L70.7374 11.786L71.0359 12.5726C71.067 12.5726 71.0981 12.5726 71.1292 12.5726V12.5711ZM65.2656 13.0546C65.2656 13.0546 65.2516 13.0546 65.2454 13.0546C65.2314 13.0546 65.2158 13.0576 65.1987 13.0636C65.2298 13.0606 65.2609 13.0576 65.292 13.0561C65.2827 13.0561 65.2733 13.0561 65.2656 13.0561V13.0546ZM63.9784 8.76225C63.8774 9.23537 63.7779 9.75774 63.7266 10.0667C63.6893 10.2906 63.6675 10.6637 63.6473 11.0428C63.6582 10.9547 63.6691 10.8637 63.68 10.7696C63.7453 10.2413 63.8743 9.30104 63.9784 8.76375V8.76225ZM67.801 9.49208C67.7761 9.55476 67.759 9.65625 67.7528 9.75625L69.1969 9.17269C69.1472 9.14881 69.099 9.12045 69.0539 9.08463C68.9497 9.00403 68.7881 8.82792 68.785 8.52047C68.2969 8.95329 67.9082 9.3279 67.801 9.49357V9.49208ZM70.8027 9.35626L70.7763 9.38611C70.7856 9.37865 70.7934 9.37119 70.8012 9.36372C70.8012 9.36074 70.8012 9.35775 70.8012 9.35626H70.8027ZM64.3686 7.74587C64.2147 7.83393 64.193 7.89661 64.1914 7.90109C64.1463 8.04437 64.0919 8.26227 64.036 8.51301C64.0453 8.4757 64.0546 8.44435 64.0639 8.42048C64.1541 8.16974 64.3064 7.98766 64.4184 7.85333C64.4293 7.84139 64.4401 7.82647 64.4526 7.81303C64.4308 7.79512 64.4044 7.77274 64.3702 7.74737L64.3686 7.74587ZM60.8477 6.39816C60.829 6.52055 60.8119 6.64144 60.7948 6.76233C60.7684 6.93844 60.7435 7.11306 60.7171 7.29067C60.7995 7.13545 60.9332 7.0265 61.0327 6.9459C61.0094 6.87426 60.9798 6.78919 60.9549 6.71755C60.9192 6.61606 60.8834 6.50861 60.8477 6.39965V6.39816ZM61.1011 4.57733L61.8534 4.61614C61.7586 4.38779 61.7182 4.08034 61.7742 3.66095L61.855 3.06396L62.1301 3.13709L62.368 2.76247C62.64 2.33413 63.0535 1.99086 63.5541 1.71774C63.4453 1.7655 63.3442 1.81475 63.2494 1.86699C62.9649 2.0237 62.7861 2.18936 62.5592 2.3998C62.4488 2.50129 62.3353 2.60576 62.2001 2.71919L61.9871 2.89829L61.2441 2.72218C61.2379 3.37588 61.171 4.00721 61.0995 4.57883L61.1011 4.57733ZM72.5049 2.51622C72.5531 2.61472 72.5811 2.7177 72.5826 2.82367C72.5857 2.95948 72.5515 3.15947 72.3712 3.34604L72.7287 3.18783C72.7598 3.11918 72.794 3.06246 72.8204 3.01769C72.8251 3.00873 72.8313 3.00127 72.836 2.99232C72.822 2.955 72.7831 2.87143 72.6774 2.72516C72.6246 2.65352 72.5671 2.58338 72.5049 2.51472V2.51622ZM63.9287 2.71024C65.2811 2.97291 66.4672 3.19082 67.8834 3.1147C68.5891 3.07739 70.5058 2.89083 71.2535 2.73263C70.8633 2.49084 70.17 2.19235 69.8078 2.09981C68.345 1.72221 65.3775 1.80281 63.9287 2.71024Z" fill="#FFFFF5"/>
<path d="M62.0881 29.4855C61.7104 29.296 59.5512 30.0959 59.4657 30.2407C59.3118 30.4974 59.66 31.1407 59.189 31.4123C57.3422 30.2527 58.9962 29.2661 60.3797 28.8288C61.3622 28.5184 62.2404 28.0378 62.0866 29.487L62.0881 29.4855Z" fill="#FFFFF5"/>
<path d="M59.1859 31.587L59.105 31.5362C58.4584 31.1303 58.1614 30.699 58.2221 30.2572C58.3387 29.4035 59.7377 28.8736 60.3331 28.6856C60.445 28.6498 60.5569 28.6125 60.6642 28.5752C61.2145 28.3886 61.6902 28.2259 62.0011 28.4617C62.2234 28.6289 62.3011 28.9587 62.2436 29.5005L62.2202 29.7199L62.0166 29.6169C61.9513 29.5841 61.6093 29.593 60.7761 29.8587C60.1901 30.0452 59.6957 30.2572 59.5947 30.3273C59.5698 30.39 59.5807 30.5213 59.59 30.6378C59.6134 30.9258 59.6475 31.3213 59.2698 31.5392L59.1859 31.587ZM61.6078 28.6423C61.3948 28.6423 61.087 28.7468 60.7668 28.8557C60.6564 28.893 60.5429 28.9319 60.4295 28.9677C59.5605 29.2423 58.606 29.7348 58.5299 30.2945C58.4894 30.5945 58.7086 30.9079 59.1843 31.2258C59.3056 31.1064 59.3009 30.9183 59.2807 30.6601C59.2651 30.4751 59.2512 30.3005 59.332 30.1646C59.4579 29.9542 61.2347 29.3035 61.9482 29.3124C61.9669 28.9886 61.9187 28.7766 61.8114 28.6945C61.7617 28.6572 61.6933 28.6423 61.6109 28.6423H61.6078Z" fill="#FFFFF5"/>
<path d="M63.31 30.9541C63.1545 31.1078 62.6679 31.2198 62.4068 31.3795C62.0881 31.575 62.1876 32.0854 61.4228 31.8854C60.8896 30.9556 62.9446 29.3781 63.4452 30.3183C63.5493 30.5138 63.4561 30.8093 63.3115 30.9541H63.31Z" fill="#FFFFF5"/>
<path d="M61.7276 32.0794C61.6312 32.0794 61.5161 32.0645 61.3825 32.0286L61.3187 32.0122L61.2876 31.957C61.1104 31.6481 61.1539 31.2585 61.4104 30.86C61.7773 30.2899 62.4659 29.8586 62.9805 29.881C63.251 29.8914 63.4593 30.0198 63.5821 30.2511C63.722 30.5123 63.6069 30.875 63.4204 31.0585C63.3116 31.1675 63.108 31.2451 62.8934 31.3272C62.7442 31.3839 62.5919 31.4436 62.4877 31.5063C62.4162 31.5496 62.3711 31.6227 62.3183 31.7078C62.2172 31.8704 62.0866 32.0794 61.7244 32.0794H61.7276ZM61.5317 31.757C61.8783 31.8346 61.9467 31.7257 62.054 31.554C62.1177 31.451 62.1908 31.3346 62.3229 31.254C62.4504 31.1764 62.6183 31.1123 62.78 31.0496C62.9463 30.9854 63.1344 30.9138 63.1981 30.8511C63.3038 30.7466 63.3753 30.5153 63.3054 30.3869C63.2339 30.2541 63.1235 30.1869 62.968 30.1795C62.5685 30.163 61.9778 30.5481 61.6747 31.0182C61.569 31.1824 61.4182 31.4869 61.5317 31.7585V31.757Z" fill="#FFFFF5"/>
<path d="M68.0948 19.335L67.9611 20.0977L66.2713 20.3723C65.7615 20.3365 65.1925 19.5067 65.2671 19.0261C65.9107 18.7097 66.4703 19.5291 66.7812 19.5156C67.0921 19.5022 67.4823 18.8873 68.0948 19.335Z" fill="#FFFFF5"/>
<path d="M68.6606 38.9224C68.5549 39.4119 68.4865 41.3715 67.7263 41.1536C67.0766 40.573 67.6984 39.6686 67.5958 38.9418L68.6606 38.9224Z" fill="#FFFFF5"/>
<path d="M73.8059 38.6628C73.879 39.7672 72.7753 41.3328 71.7058 40.1478C71.953 39.6822 72.5126 39.621 72.8468 39.3643C73.181 39.1076 73.1344 38.5076 73.8044 38.6613L73.8059 38.6628Z" fill="#FFFFF5"/>
</g>
<defs>
<clipPath id="clip0_591_27405">
<rect width="75" height="81" fill="white" transform="translate(3)"/>
</clipPath>
</defs>
</svg>
