<svg width="138" height="131" viewBox="0 0 138 131" fill="none" xmlns="http://www.w3.org/2000/svg">
<rect width="138" height="131" fill="#B31E29"/>
<path d="M115.243 35.5371C114.991 35.7547 115.199 39.821 115.284 40.4054C115.445 41.4838 116.521 42.479 116.224 43.8409C117.19 44.0879 118.681 43.8751 118.449 45.2249L116.497 44.9828C116.551 47.2593 119.51 45.2249 120.701 46.445C121.167 47.8363 117.934 47.428 117.102 47.7654C118.127 51.4185 117.627 55.4458 118.412 59.072C121.401 58.6392 129.085 60.5293 126.464 64.9061C124.249 68.6057 116.546 69.7696 112.676 69.014C111.31 68.7475 107.62 67.2022 107.384 65.669C106.925 62.6933 112.085 57.4215 115.36 59.2505L114.357 50.0492C113.871 49.9318 113.803 50.2595 113.527 50.4796C111.392 52.1814 110.736 53.6656 109.853 55.9861C108.15 60.4559 98.6096 66.2021 94.0371 67.322C93.2515 67.5152 91.3727 68.2927 91.2263 67.0896C91.0628 65.7301 92.5805 66.2143 93.4662 65.9478C95.2888 65.4025 97.8825 64.4855 99.5075 63.5539C100.986 62.7055 107.164 57.7026 107.628 56.3309C107.74 55.9959 107.42 55.5069 107.469 55.079C107.528 54.5606 111.554 50.0957 112.281 49.2741C112.683 48.8193 113.671 48.3572 113.891 47.8143C114.289 46.8265 113.913 45.2445 113.42 44.3324C112.595 43.5059 105.036 43.6697 103.499 43.8042C96.5137 44.418 90.9238 49.526 83.8479 50.0639C83.4307 48.2887 81.852 48.1933 80.5881 47.4304C72.3899 42.4716 65.0286 37.7402 54.8857 38.5397C49.1494 38.9921 43.03 42.0315 37.2888 43.2149C30.8937 44.5353 25.9992 44.3862 19.6358 43.3152C18.3451 43.0976 16.8835 42.4202 15.5098 42.3396C16.8103 43.8067 19.1893 44.4791 21.0632 44.9608C24.2766 45.7897 27.3582 47.5478 30.74 48.5674C42.7958 52.1985 55.1248 50.9564 64.7699 59.8788C66.2412 61.2408 68.0077 63.2214 68.3347 65.2925C68.6177 67.0921 67.7686 66.4662 67.3319 66.8941C67.2538 66.9723 66.8488 68.3709 66.4584 68.9358C64.4967 71.7771 56.9914 76.8362 53.6169 77.3839C47.195 78.4231 39.0748 76.9486 32.8335 75.1368C27.856 73.6892 22.6662 71.4714 18.2231 68.8355C17.5985 69.6742 22.1075 73.7528 22.92 74.3396C26.3798 76.8362 30.7058 78.1003 34.0437 80.7044C33.319 81.7657 31.8721 81.3035 30.801 81.9564L22.6613 83.0029C28.4416 85.2231 34.6683 86.9665 40.8072 87.9104C44.3549 88.4557 47.2804 88.2527 50.7744 88.3676C51.9285 88.4067 53.2168 88.9153 54.4099 88.8787C58.9287 88.7393 67.6759 85.5385 71.8409 83.4699C74.6835 82.0566 77.2503 79.697 80.0172 78.4744C80.8834 78.0905 81.5836 77.8338 82.4815 78.3301L82.5035 79.6457L81.4421 80.2594L82.5596 80.6604C81.935 81.6116 81.1566 80.4746 80.6589 81.2717C79.1388 83.7071 79.0827 89.6 79.1412 92.4682C79.295 100.036 81.469 106.565 81.2347 114.504C81.1859 116.142 80.3734 117.517 81.0322 119.226L78.6581 126.696C79.6292 125.468 80.1855 123.835 80.9712 122.485C86.1732 113.538 93.5955 108.535 98.5559 98.8599C101.337 93.4316 103.338 87.8762 102.95 81.6752C102.887 80.658 102.189 74.7748 101.708 74.4203C101.545 74.3005 100.198 74.9656 100.017 74.1905C99.8613 73.5229 101.106 73.0413 101.672 73.1855C101.852 73.0046 101.147 70.7794 100.969 70.3589C100.666 69.6327 98.49 66.9405 100.305 66.7645C101.535 66.6471 102.343 68.8649 102.599 69.8038C102.828 70.6401 103.014 73.6208 103.358 73.8628C103.548 73.9973 103.946 73.9753 104.197 73.9827C103.941 74.5133 103.653 74.8702 103.658 75.5182C103.67 77.7897 104.59 81.1274 104.661 83.5995C104.858 90.6269 99.1293 102.633 94.8984 108.22C90.6676 113.807 85.6437 117.209 81.996 123.747C81.081 125.388 80.7175 128.698 78.4117 128.376L78.5313 127.258C77.7139 127.911 77.5724 130.346 76.7842 130.784C75.9839 131.229 75.4374 130.982 75.513 130.08C76.4402 127.696 77.8115 125.268 78.4508 122.791C79.6658 118.079 79.9879 110.719 79.3926 105.87C78.4556 98.2217 76.4061 91.8276 78.2409 83.8881C78.4605 82.9418 78.7972 82.0077 79.2291 81.1421C77.9921 81.0785 77.2039 82.2473 76.2841 82.8195C71.9239 85.5288 63.5866 88.9642 58.5432 89.8249C53.6243 90.6636 44.1866 89.9276 39.1651 89.0474C32.8579 87.9421 24.8573 85.9371 19.1161 83.1276C17.0836 82.1324 17.6106 79.6212 20.1726 80.8218C20.5093 80.9783 20.5044 81.3793 20.6825 81.4893C21.4292 81.9539 22.2929 81.3622 23.0542 81.3206C25.5624 81.1837 28.0561 81.2448 30.4179 80.2081C26.5116 78.0294 22.3954 76.3691 19.2722 73.007C17.5618 71.1658 16.3467 69.7867 16.7981 67.0408C17.1592 64.8572 19.2259 67.8404 19.9066 68.3612C26.4359 73.3616 48.0197 78.5918 55.6275 75.4766C56.4424 75.1441 60.9075 72.1732 61.7468 71.5106C62.3544 71.0313 65.3141 68.0457 65.5678 67.5176C66.046 66.5199 65.6703 65.4906 66.3315 64.5125C62.5081 58.6416 57.0036 55.6658 50.2547 54.1864C42.4225 52.4675 34.6366 51.8685 26.9898 49.0467C25.3087 48.4256 23.4397 47.2006 21.883 46.67C20.1677 46.0856 18.1645 46.0024 16.3321 45.3227C15.5391 45.0292 11.1789 42.4129 11.0374 41.9801C10.7056 40.9727 12.6771 41.0559 13.165 40.1658L19.8578 41.9435C25.7796 42.9607 31.3988 42.8017 37.3181 41.584C43.9011 40.2294 52.2994 35.8892 59.0336 36.8086C65.5361 37.6962 70.7771 40.0655 76.5085 43.1269C78.7069 44.303 81.0054 45.533 83.172 46.7335C83.6966 47.0245 84.1016 47.7508 84.492 47.9219C87.0808 49.0491 95.6475 44.1906 98.6291 43.2052C103.319 41.6549 108.521 42.1562 113.388 42.5107L111.905 35.9454C109.921 35.3488 108.372 35.3121 106.464 34.202C102.165 31.703 100.047 28.2187 99.3855 23.343C98.6193 17.6922 99.7808 12.2761 100.454 6.81844C100.632 5.38556 100.771 3.94782 100.679 2.50517L102.501 2.95749C103.143 2.39754 103.509 1.90854 104.285 1.46352C107.999 -0.668679 117.512 -0.756693 120.208 3.12625C121.082 4.38307 120.293 4.3684 120.313 5.02371C120.362 6.71089 121.616 9.97517 121.962 11.8359C123.363 19.3402 126.779 35.1728 115.25 35.5273L115.243 35.5371ZM104.046 4.12874C106.827 4.66668 109.143 5.27798 112.022 5.1166C113.218 5.04814 116.797 4.69358 117.795 4.38305C120.093 3.6715 116.082 2.00635 115.216 1.77161C112.361 1.00383 105.788 1.26299 104.046 4.12629V4.12874ZM119.127 5.53472C116.912 6.55925 114.672 6.39791 112.317 6.49816C111.776 6.52261 111.241 6.81844 110.648 6.82823C108.321 6.8649 105.463 5.88197 103.233 5.26578C102.892 7.90902 105.056 6.24382 105.505 7.73782L101.601 7.53002C101.179 8.41273 102.172 10.3102 102.128 10.7405C102.094 11.0608 101.481 11.3053 101.464 11.5816C101.452 11.7821 101.925 12.2394 101.967 12.7064C102.101 14.22 101.357 16.983 101.518 18.8609C101.591 19.707 101.847 20.284 102.113 21.0543L101.03 22.069C101.733 21.9541 103.936 20.7168 104.139 20.2743C104.485 19.5211 104.422 16.6847 104.609 15.516C104.753 14.6259 105.124 12.6429 105.363 11.8531C105.517 11.342 106.078 11.0437 106.544 10.8652C108.406 12.0511 107.113 12.281 106.788 13.2272C106.576 13.8508 105.768 20.0469 106.017 20.3012C106.747 20.4088 107.103 19.7192 107.806 19.6899C108.877 19.6483 110.739 20.7144 112.149 20.1912L112.256 18.235L115.389 14.5428L111.368 16.2373C110.78 16.1444 110.858 14.8337 111.073 14.3447C111.412 13.5647 116.792 8.81128 117.375 8.91642C119.537 9.3052 114.379 12.7627 114.25 13.0292C114.164 13.9144 115.606 13.1515 116.075 13.1221C117.278 13.0463 117.627 13.6821 117.353 14.868C117.263 15.2666 113.303 17.7411 114.081 19.3158L115.858 19.3207L116.346 20.6631C118.327 20.3648 119.896 21.3795 121.657 21.9712C121.884 16.3351 119.83 11.0364 119.13 5.53227L119.127 5.53472ZM114.118 21.5555C112.193 21.5922 110.331 21.2059 108.386 21.3648C106.025 21.5604 105.229 21.6754 106.066 24.3137C110.746 25.1671 116.343 26.4899 120.733 24.2354C121.689 22.673 116.697 21.646 115.804 22.2231C114.911 22.8001 114.718 25.1255 113.042 24.2354C112.283 23.832 114.416 22.2451 114.115 21.5555H114.118ZM104.373 22.2915C104.168 22.0935 102.389 23.2647 102.728 23.7146L104.404 23.9641L104.375 22.2915H104.373ZM104.378 25.4165C103.126 25.4776 102.145 24.8198 101.067 24.3064C101.34 28.6148 106.332 33.8402 110.587 34.1898C111.988 34.3047 115.082 34.2851 116.446 34.0944C120.023 33.5956 121.923 29.1527 121.726 25.8884C118.722 26.9643 115.318 27.0817 112.117 26.9105C110.309 26.8127 108.177 26.2723 106.393 25.8884C106.449 27.0205 106.966 28.094 107.835 28.8006C106.142 31.6542 104.8 25.6634 104.378 25.4165ZM116.275 48.34C115.557 48.2422 115.689 48.4623 115.731 49.0418C115.794 49.9245 115.953 52.0445 116.626 52.5238L116.272 48.34H116.275ZM114.835 61.2188C113.952 61.8936 113.696 60.7053 113.025 60.698C111.654 60.6833 108.672 64.1799 109.109 65.5932C109.777 67.7572 116.331 67.7841 118.154 67.5836C120.22 67.3537 127.674 64.7081 124.722 61.9034C123.246 60.4999 119.261 60.1258 117.497 61.1748L116.775 60.3508C116.336 61.7568 117.158 66.0749 114.638 63.8303L114.835 61.2212V61.2188Z" fill="#FFFFF5"/>
<path d="M102.974 48.3569C102.368 48.0969 98.9001 49.1943 98.7628 49.3928C98.5157 49.745 99.0749 50.6274 98.3185 51C95.3528 49.4092 98.0089 48.056 100.231 47.4561C101.808 47.0303 103.219 46.371 102.972 48.3589L102.974 48.3569Z" fill="#FFFFF5"/>
<path d="M104.75 49.9725C104.533 50.1341 103.856 50.2519 103.492 50.4199C103.048 50.6255 103.187 51.1623 102.122 50.952C101.379 49.974 104.241 48.3148 104.938 49.3037C105.083 49.5094 104.953 49.8202 104.752 49.9725H104.75Z" fill="#FFFFF5"/>
<path d="M118 30.269L117.764 30.8065L114.783 31C113.884 30.9748 112.88 30.3899 113.012 30.0512C114.147 29.8283 115.134 30.4057 115.683 30.3963C116.231 30.3868 116.92 29.9534 118 30.269Z" fill="#FFFFF5"/>
<path d="M114 63C113.914 63.871 113.859 67.3577 113.243 66.97C112.717 65.937 113.221 64.3278 113.138 63.0346L114 63Z" fill="#FFFFF5"/>
<path d="M120.995 62.0544C121.099 64.3379 119.525 67.575 118 65.1249C118.352 64.1621 119.151 64.0356 119.627 63.5048C120.104 62.9741 120.037 61.7335 120.993 62.0513L120.995 62.0544Z" fill="#FFFFF5"/>
</svg>
