<svg width="251" height="279" viewBox="0 0 251 279" fill="none" xmlns="http://www.w3.org/2000/svg">
<path d="M223.975 75.9265C223.445 76.3866 223.882 84.9837 224.062 86.2192C224.402 88.4991 226.671 90.6031 226.043 93.4826C228.08 94.0047 231.224 93.555 230.735 96.4086L226.619 95.8968C226.732 100.71 232.973 96.4086 235.484 98.9882C236.466 101.93 229.649 101.066 227.895 101.78C230.056 109.503 229.001 118.018 230.658 125.684C236.96 124.769 253.161 128.765 247.635 138.019C242.964 145.841 226.722 148.301 218.563 146.704C215.682 146.14 207.903 142.873 207.404 139.632C206.437 133.34 217.318 122.195 224.222 126.062L222.107 106.608C221.084 106.36 220.939 107.053 220.358 107.518C215.856 111.116 214.473 114.254 212.61 119.16C209.019 128.61 188.903 140.759 179.262 143.127C177.606 143.535 173.644 145.179 173.335 142.635C172.991 139.761 176.191 140.785 178.058 140.221C181.901 139.068 187.37 137.13 190.797 135.16C193.914 133.366 206.941 122.789 207.918 119.889C208.155 119.181 207.481 118.147 207.584 117.242C207.707 116.146 216.196 106.707 217.729 104.97C218.578 104.008 220.662 103.031 221.125 101.883C221.963 99.7947 221.171 96.45 220.132 94.5217C218.393 92.7743 202.455 93.1207 199.213 93.405C184.484 94.7026 172.698 105.502 157.778 106.639C156.898 102.886 153.57 102.685 150.905 101.072C133.618 90.5876 118.097 80.5843 96.7102 82.2748C84.615 83.2312 71.7121 89.6571 59.6066 92.1592C46.1223 94.9508 35.802 94.6354 22.3846 92.3711C19.6631 91.911 16.5814 90.479 13.6849 90.3084C16.427 93.4102 21.4431 94.8319 25.3943 95.8503C32.1699 97.6028 38.6676 101.32 45.7982 103.475C71.2182 111.152 97.2144 108.526 117.551 127.39C120.654 130.27 124.378 134.457 125.068 138.836C125.665 142.641 123.874 141.317 122.953 142.222C122.789 142.387 121.935 145.344 121.112 146.539C116.975 152.546 101.15 163.242 94.035 164.4C80.4941 166.597 63.3725 163.479 50.2123 159.649C39.7171 156.588 28.7743 151.899 19.4058 146.327C18.0888 148.1 27.5962 156.723 29.3094 157.963C36.6046 163.242 45.7262 165.914 52.7641 171.42C51.2361 173.664 48.1853 172.687 45.9268 174.067L28.7641 176.279C40.9519 180.973 54.0812 184.659 67.0252 186.655C74.5057 187.808 80.6742 187.379 88.0414 187.622C90.4748 187.704 93.1912 188.78 95.707 188.702C105.235 188.407 123.679 181.64 132.461 177.267C138.454 174.279 143.867 169.29 149.701 166.705C151.527 165.894 153.004 165.351 154.897 166.4L154.943 169.182L152.705 170.479L155.061 171.327C153.744 173.338 152.103 170.934 151.054 172.619C147.849 177.768 147.73 190.227 147.854 196.291C148.178 212.291 152.762 226.094 152.268 242.88C152.165 246.344 150.452 249.249 151.841 252.862L146.835 268.656C148.883 266.06 150.056 262.607 151.712 259.754C162.681 240.838 178.331 230.261 188.79 209.805C194.655 198.328 198.874 186.583 198.056 173.472C197.922 171.322 196.451 158.884 195.437 158.134C195.092 157.881 192.253 159.287 191.872 157.648C191.543 156.237 194.166 155.218 195.36 155.523C195.741 155.141 194.254 150.436 193.878 149.547C193.24 148.012 188.651 142.32 192.479 141.948C195.072 141.7 196.775 146.389 197.315 148.374C197.799 150.142 198.19 156.444 198.915 156.955C199.316 157.24 200.155 157.193 200.685 157.209C200.145 158.33 199.537 159.085 199.548 160.455C199.573 165.258 201.513 172.314 201.662 177.541C202.079 192.398 189.999 217.781 181.078 229.594C172.157 241.406 161.564 248.597 153.873 262.421C151.944 265.89 151.177 272.89 146.315 272.207L146.568 269.845C144.844 271.225 144.546 276.374 142.884 277.299C141.196 278.24 140.044 277.718 140.204 275.81C142.159 270.77 145.05 265.637 146.398 260.4C148.96 250.438 149.639 234.877 148.384 224.626C146.408 208.455 142.087 194.937 145.955 178.151C146.418 176.15 147.128 174.175 148.039 172.345C145.431 172.211 143.769 174.682 141.829 175.892C132.636 181.62 115.056 188.883 104.422 190.703C94.0504 192.476 74.1507 190.92 63.5629 189.059C50.2638 186.722 33.3943 182.483 21.2888 176.543C17.0033 174.439 18.1145 169.13 23.5165 171.668C24.2264 171.999 24.2161 172.847 24.5917 173.079C26.166 174.062 27.9872 172.811 29.5924 172.723C34.8811 172.433 40.139 172.562 45.1191 170.371C36.8824 165.764 28.2033 162.254 21.6181 155.146C18.0116 151.253 15.4496 148.338 16.4013 142.532C17.1627 137.916 21.5203 144.223 22.9557 145.324C36.7229 155.896 82.233 166.953 98.2742 160.367C99.9925 159.664 109.407 153.383 111.177 151.982C112.458 150.969 118.699 144.657 119.234 143.54C120.242 141.431 119.45 139.255 120.844 137.187C112.782 124.774 101.176 118.483 86.9456 115.355C70.431 111.721 54.0143 110.454 37.8908 104.489C34.3461 103.176 30.4052 100.586 27.1229 99.4638C23.5062 98.2283 19.2824 98.0525 15.4187 96.6154C13.7467 95.995 4.55306 90.4635 4.25467 89.5485C3.55499 87.4186 7.71191 87.5944 8.74085 85.7126L22.8528 89.471C35.339 91.6215 47.1873 91.2855 59.6683 88.711C73.5487 85.847 91.2568 76.6709 105.456 78.6147C119.167 80.4913 130.218 85.5007 142.303 91.9731C146.938 94.4596 151.784 97.06 156.353 99.5983C157.459 100.213 158.313 101.749 159.136 102.111C164.595 104.494 182.658 94.2218 188.945 92.1385C198.833 88.8609 209.801 89.9207 220.065 90.6703L216.937 76.7898C212.754 75.5284 209.487 75.4509 205.464 73.1039C196.399 67.8205 191.934 60.4538 190.539 50.1455C188.924 38.1985 191.373 26.7478 192.793 15.2092C193.168 12.1797 193.462 9.14001 193.266 6.08992L197.109 7.0463C198.462 5.86246 199.234 4.82853 200.87 3.88766C208.7 -0.620264 228.759 -0.806371 234.444 7.40301C236.286 10.0602 234.624 10.0292 234.666 11.4146C234.768 14.9817 237.413 21.8832 238.143 25.8172C241.096 41.6829 248.299 75.1562 223.99 75.9058L223.975 75.9265ZM200.366 9.51739C206.231 10.6547 211.113 11.9471 217.184 11.6059C219.705 11.4612 227.252 10.7116 229.356 10.055C234.203 8.55067 225.745 5.03015 223.918 4.53386C217.899 2.9106 204.039 3.45858 200.366 9.51222V9.51739ZM232.165 12.4951C227.494 14.6612 222.771 14.32 217.806 14.5319C216.664 14.5836 215.538 15.2092 214.287 15.2298C209.379 15.3074 203.355 13.2292 198.653 11.9264C197.932 17.5148 202.496 13.9943 203.442 17.1529L195.211 16.7135C194.321 18.5798 196.415 22.5914 196.322 23.5012C196.25 24.1785 194.959 24.6954 194.923 25.2796C194.897 25.7035 195.895 26.6702 195.982 27.6576C196.265 30.8576 194.696 36.6993 195.036 40.6696C195.19 42.4583 195.73 43.6783 196.291 45.3068L194.007 47.4522C195.489 47.2092 200.134 44.5934 200.561 43.6577C201.292 42.0654 201.158 36.0686 201.554 33.5975C201.858 31.7158 202.64 27.5232 203.144 25.8534C203.468 24.773 204.651 24.1423 205.634 23.7649C209.559 26.2722 206.833 26.7581 206.148 28.7588C205.701 30.077 203.998 43.1769 204.523 43.7145C206.061 43.942 206.812 42.4841 208.294 42.4221C210.552 42.3342 214.478 44.5882 217.451 43.4819L217.678 39.3462L224.284 31.54L215.805 35.1226C214.565 34.9261 214.73 32.1552 215.183 31.1213C215.898 29.4722 227.242 19.4224 228.471 19.6447C233.03 20.4667 222.154 27.7765 221.881 28.34C221.701 30.2114 224.741 28.5985 225.729 28.5365C228.266 28.3762 229.001 29.7203 228.425 32.2276C228.235 33.0702 219.885 38.3019 221.526 41.6312L225.271 41.6415L226.3 44.4796C230.478 43.8489 233.786 45.9943 237.5 47.2454C237.979 35.3294 233.647 24.1268 232.17 12.4899L232.165 12.4951ZM221.603 46.3614C217.544 46.4389 213.619 45.6221 209.518 45.9581C204.538 46.3717 202.861 46.6147 204.626 52.1927C214.493 53.9969 226.295 56.7937 235.55 52.0273C237.567 48.7239 227.041 46.5527 225.158 47.7727C223.275 48.9927 222.869 53.909 219.334 52.0273C217.734 51.1743 222.231 47.8192 221.598 46.3614H221.603ZM201.055 47.9174C200.623 47.4987 196.873 49.9749 197.588 50.9262L201.122 51.4535L201.06 47.9174H201.055ZM201.065 54.5242C198.426 54.6535 196.358 53.2628 194.084 52.1772C194.66 61.2861 205.186 72.3336 214.159 73.0729C217.112 73.3158 223.635 73.2745 226.511 72.8713C234.053 71.8167 238.061 62.4234 237.644 55.522C231.311 57.7966 224.134 58.0447 217.384 57.6829C213.572 57.4761 209.076 56.3336 205.315 55.522C205.433 57.9155 206.524 60.185 208.355 61.679C204.785 67.712 201.955 55.0464 201.065 54.5242ZM226.151 102.995C224.638 102.788 224.916 103.253 225.004 104.478C225.138 106.345 225.472 110.827 226.892 111.84L226.146 102.995H226.151ZM223.116 130.218C221.253 131.645 220.713 129.132 219.298 129.117C216.407 129.086 210.12 136.478 211.041 139.466C212.451 144.042 226.269 144.098 230.112 143.675C234.47 143.189 250.187 137.595 243.962 131.666C240.849 128.698 232.448 127.907 228.729 130.125L227.206 128.383C226.28 131.355 228.013 140.485 222.699 135.739L223.116 130.223V130.218Z" fill="#FFFEF6"/>
<path d="M197.907 101.144C196.656 100.487 189.51 103.258 189.228 103.76C188.718 104.649 189.871 106.877 188.312 107.818C182.2 103.801 187.674 100.384 192.253 98.8692C195.504 97.7939 198.411 96.1293 197.902 101.149L197.907 101.144Z" fill="#FFFEF6"/>
<path d="M201.945 106.231C201.431 106.763 199.82 107.151 198.956 107.704C197.901 108.381 198.231 110.149 195.7 109.457C193.935 106.236 200.736 100.772 202.393 104.029C202.737 104.706 202.429 105.729 201.95 106.231H201.945Z" fill="#FFFEF6"/>
<path d="M217.781 65.9851L217.338 68.6268L211.746 69.578C210.058 69.4539 208.175 66.5796 208.422 64.915C210.552 63.819 212.404 66.6571 213.433 66.6106C214.462 66.5641 215.754 64.4342 217.781 65.9851Z" fill="#FFFEF6"/>
<path d="M219.658 133.832C219.309 135.527 219.082 142.315 216.567 141.56C214.416 139.549 216.474 136.416 216.134 133.899L219.658 133.832Z" fill="#FFFEF6"/>
<path d="M236.687 132.932C236.929 136.758 233.276 142.18 229.737 138.076C230.555 136.463 232.407 136.251 233.513 135.362C234.619 134.473 234.465 132.394 236.682 132.927L236.687 132.932Z" fill="#FFFEF6"/>
</svg>
