<svg width="230" height="84" viewBox="0 0 230 84" fill="none" xmlns="http://www.w3.org/2000/svg">
<path d="M2.86 38V0.819998H30.212V7.164H10.4V15.484H27.768V21.672H10.4V31.708H30.368V38H2.86ZM32.6113 38L44.6233 18.552L33.4953 0.819998H41.9713L48.8353 12.572H48.9393L55.8033 0.819998H64.0193L53.0993 18.5L65.4233 38H56.6353L49.0433 24.428H48.9393L41.2433 38H32.6113ZM68.7233 38V0.819998H85.0513C89.3673 0.819998 92.5913 2.068 94.7753 4.304C96.8553 6.436 98.1033 9.348 98.1033 12.78C98.1033 19.8 93.4753 24.532 85.6753 24.532H76.5233V38H68.7233ZM76.5233 7.372V18.396H84.3233C88.2753 18.396 90.3553 16.212 90.3553 12.832C90.3553 9.348 88.1713 7.372 84.4273 7.372H76.5233ZM101.833 38V0.819998H109.373V31.708H126.845V38H101.833ZM145.633 38.832C134.661 38.832 127.693 30.616 127.693 19.488C127.693 8.36 134.661 0.0919983 145.633 0.0919983C156.605 0.0919983 163.521 8.36 163.521 19.488C163.521 30.616 156.605 38.832 145.633 38.832ZM145.685 32.644C152.497 32.644 155.825 26.872 155.825 19.488C155.825 12.052 152.497 6.28 145.685 6.28C138.873 6.28 135.389 12.052 135.389 19.488C135.389 26.872 138.873 32.644 145.685 32.644ZM167.645 38V0.819998H184.701C191.877 0.819998 196.661 4.98 196.661 11.168C196.661 15.536 194.633 18.864 189.849 20.164V20.32C193.281 21.308 195.049 23.284 195.517 27.808C196.037 33.06 195.829 37.064 197.129 37.636V38H189.901C188.965 37.584 188.861 33.424 188.549 29.42C188.237 25.364 185.949 23.076 181.269 23.076H175.185V38H167.645ZM175.185 6.904V17.252H183.193C187.301 17.252 189.329 15.12 189.329 12.156C189.329 9.14 187.405 6.904 183.401 6.904H175.185ZM201.516 38V0.819998H228.868V7.164H209.056V15.484H226.424V21.672H209.056V31.708H229.024V38H201.516ZM11.076 83L0.26 45.82H7.956L12.792 64.28C13.52 67.452 14.404 72.392 14.404 72.392H14.508C14.508 72.392 15.444 67.764 16.224 64.488L20.28 45.82H27.56L31.616 64.436C32.396 67.712 33.332 72.392 33.332 72.392H33.436C33.436 72.392 34.528 67.452 35.256 64.228L39.936 45.82H47.372L36.764 83H29.744L25.22 63.084C24.596 60.38 23.92 56.48 23.92 56.48H23.816C23.816 56.48 23.244 60.38 22.62 63.084L18.044 83H11.076ZM50.5448 83V45.82H58.0848V83H50.5448ZM63.8483 83V45.82H71.4923L83.8683 66.568C85.0643 68.596 86.4683 71.768 86.4683 71.768H86.5723C86.5723 71.768 86.3643 67.92 86.3643 65.32V45.82H93.8003V83H86.5203L73.8323 62.46C72.6363 60.484 71.1803 57.312 71.1803 57.312H71.0763C71.0763 57.312 71.2843 61.212 71.2843 63.812V83H63.8483ZM99.4967 83V45.82H126.849V52.164H107.037V60.484H124.405V66.672H107.037V76.708H127.005V83H99.4967ZM145.842 83.832C135.754 83.832 130.034 79.36 129.774 71.508H137.158C137.678 75.98 140.226 77.748 145.53 77.748C149.378 77.748 152.758 76.396 152.758 72.964C152.758 69.324 149.222 68.596 143.554 67.296C136.898 65.788 130.814 64.02 130.814 56.272C130.814 48.94 136.794 45.144 145.062 45.144C153.434 45.144 158.842 49.252 159.414 56.74H152.186C151.77 52.996 148.858 51.124 145.01 51.124C140.954 51.124 138.302 52.84 138.302 55.492C138.302 58.508 140.902 59.392 146.414 60.588C154.058 62.252 160.298 64.072 160.298 72.08C160.298 79.62 154.214 83.832 145.842 83.832Z" fill="#3F2C22"/>
</svg>
