<svg width="232" height="33" viewBox="0 0 232 33" fill="none" xmlns="http://www.w3.org/2000/svg">
<path d="M32.7095 17.6944C29.8207 17.7885 22.9744 16.3357 21.126 18.9604C19.8221 20.8129 19.8829 25.155 20.0505 27.4168C20.1329 28.5286 21.8516 34.0794 19.3046 32.8134C18.271 32.2991 18.8223 30.9363 18.6683 29.905C18.0129 25.5206 16.4469 19.4815 10.9923 19.6274C9.46552 19.6684 5.88902 20.2236 4.25547 20.48C3.23129 20.641 1.99768 21.7664 0.774886 21.5263C-1.04918 19.3696 0.764071 19.9521 1.95174 19.5169C3.03131 19.1227 8.46972 16.3671 9.14395 15.7287C11.322 13.6688 8.68997 9.84912 7.19018 7.93656C6.343 6.85751 2.62733 3.69674 3.04348 2.3544C3.26102 1.65459 4.50811 1.99427 4.90535 2.33258C5.21206 2.59313 5.47689 3.56578 5.88359 4.07189C7.97653 6.66925 10.6018 8.91603 13.9689 9.22297C14.5634 9.27753 16.5537 9.31573 17.2009 9.28299C21.6313 9.06063 23.8256 4.06097 26.2712 1.16486C26.7266 0.624647 26.4685 -0.450317 27.8129 0.205845C29.3167 0.939765 27.6656 1.82375 27.1211 2.64088C25.5362 5.02407 23.0703 7.70738 22.3948 10.4193C21.4719 14.1189 25.066 13.9539 27.3508 14.5923C27.8696 14.7369 28.3777 15.1434 29.06 15.3221C30.3531 15.6591 31.7313 15.6714 33 16.1202L32.7108 17.6958L32.7095 17.6944ZM19.5857 18.0818C19.8505 17.7367 21.6543 16.5322 22.134 16.4298C23.3905 16.1638 25.2119 16.202 26.5306 16.0929L23.4541 15.2471C20.4153 13.7438 20.7801 12.8939 21.0612 9.88868C21.1922 8.47677 20.1924 9.93233 19.5195 10.2447C17.0536 11.392 12.8245 11.1955 10.3208 10.0947C9.99382 10.5094 12.1624 12.9458 11.8003 14.1721C11.6882 14.5541 10.6464 16.4885 10.3316 16.7927L6.26462 19.0954C10.5275 18.4815 13.7771 17.2497 16.9455 21.0011C17.4806 21.6355 17.6306 22.544 18.421 22.9178C18.6655 21.8074 18.9453 18.9181 19.5843 18.0832L19.5857 18.0818Z" fill="#3F2C22"/>
<path d="M88.7095 17.6944C85.8207 17.7885 78.9744 16.3357 77.126 18.9604C75.8221 20.8129 75.8829 25.155 76.0505 27.4168C76.1329 28.5286 77.8516 34.0794 75.3046 32.8134C74.271 32.2991 74.8223 30.9363 74.6683 29.905C74.0129 25.5206 72.4469 19.4815 66.9923 19.6274C65.4655 19.6684 61.889 20.2236 60.2555 20.48C59.2313 20.641 57.9977 21.7664 56.7749 21.5263C54.9508 19.3696 56.7641 19.9521 57.9517 19.5169C59.0313 19.1227 64.4697 16.3671 65.1439 15.7287C67.322 13.6688 64.69 9.84912 63.1902 7.93656C62.343 6.85751 58.6273 3.69674 59.0435 2.3544C59.261 1.65459 60.5081 1.99427 60.9054 2.33258C61.2121 2.59313 61.4769 3.56578 61.8836 4.07189C63.9765 6.66925 66.6018 8.91603 69.9689 9.22297C70.5634 9.27753 72.5537 9.31573 73.2009 9.28299C77.6313 9.06063 79.8256 4.06097 82.2712 1.16486C82.7266 0.624647 82.4685 -0.450317 83.8129 0.205845C85.3167 0.939765 83.6656 1.82375 83.1211 2.64088C81.5362 5.02407 79.0703 7.70738 78.3948 10.4193C77.4719 14.1189 81.066 13.9539 83.3508 14.5923C83.8696 14.7369 84.3777 15.1434 85.06 15.3221C86.3531 15.6591 87.7313 15.6714 89 16.1202L88.7108 17.6958L88.7095 17.6944ZM75.5857 18.0818C75.8505 17.7367 77.6543 16.5322 78.134 16.4298C79.3905 16.1638 81.2119 16.202 82.5306 16.0929L79.4541 15.2471C76.4153 13.7438 76.7801 12.8939 77.0612 9.88868C77.1922 8.47677 76.1924 9.93233 75.5195 10.2447C73.0536 11.392 68.8245 11.1955 66.3208 10.0947C65.9938 10.5094 68.1624 12.9458 67.8003 14.1721C67.6882 14.5541 66.6464 16.4885 66.3316 16.7927L62.2646 19.0954C66.5275 18.4815 69.7771 17.2497 72.9455 21.0011C73.4806 21.6355 73.6306 22.544 74.421 22.9178C74.6655 21.8074 74.9453 18.9181 75.5843 18.0832L75.5857 18.0818Z" fill="#3F2C22"/>
<path d="M138.709 17.6944C135.821 17.7885 128.974 16.3357 127.126 18.9604C125.822 20.8129 125.883 25.155 126.05 27.4168C126.133 28.5286 127.852 34.0794 125.305 32.8134C124.271 32.2991 124.822 30.9363 124.668 29.905C124.013 25.5206 122.447 19.4815 116.992 19.6274C115.466 19.6684 111.889 20.2236 110.255 20.48C109.231 20.641 107.998 21.7664 106.775 21.5263C104.951 19.3696 106.764 19.9521 107.952 19.5169C109.031 19.1227 114.47 16.3671 115.144 15.7287C117.322 13.6688 114.69 9.84912 113.19 7.93656C112.343 6.85751 108.627 3.69674 109.043 2.3544C109.261 1.65459 110.508 1.99427 110.905 2.33258C111.212 2.59313 111.477 3.56578 111.884 4.07189C113.977 6.66925 116.602 8.91603 119.969 9.22297C120.563 9.27753 122.554 9.31573 123.201 9.28299C127.631 9.06063 129.826 4.06097 132.271 1.16486C132.727 0.624647 132.468 -0.450317 133.813 0.205845C135.317 0.939765 133.666 1.82375 133.121 2.64088C131.536 5.02407 129.07 7.70738 128.395 10.4193C127.472 14.1189 131.066 13.9539 133.351 14.5923C133.87 14.7369 134.378 15.1434 135.06 15.3221C136.353 15.6591 137.731 15.6714 139 16.1202L138.711 17.6958L138.709 17.6944ZM125.586 18.0818C125.851 17.7367 127.654 16.5322 128.134 16.4298C129.391 16.1638 131.212 16.202 132.531 16.0929L129.454 15.2471C126.415 13.7438 126.78 12.8939 127.061 9.88868C127.192 8.47677 126.192 9.93233 125.519 10.2447C123.054 11.392 118.824 11.1955 116.321 10.0947C115.994 10.5094 118.162 12.9458 117.8 14.1721C117.688 14.5541 116.646 16.4885 116.332 16.7927L112.265 19.0954C116.528 18.4815 119.777 17.2497 122.946 21.0011C123.481 21.6355 123.631 22.544 124.421 22.9178C124.666 21.8074 124.945 18.9181 125.584 18.0832L125.586 18.0818Z" fill="#3F2C22"/>
<path d="M186.709 17.6944C183.821 17.7885 176.974 16.3357 175.126 18.9604C173.822 20.8129 173.883 25.155 174.05 27.4168C174.133 28.5286 175.852 34.0794 173.305 32.8134C172.271 32.2991 172.822 30.9363 172.668 29.905C172.013 25.5206 170.447 19.4815 164.992 19.6274C163.466 19.6684 159.889 20.2236 158.255 20.48C157.231 20.641 155.998 21.7664 154.775 21.5263C152.951 19.3696 154.764 19.9521 155.952 19.5169C157.031 19.1227 162.47 16.3671 163.144 15.7287C165.322 13.6688 162.69 9.84912 161.19 7.93656C160.343 6.85751 156.627 3.69674 157.043 2.3544C157.261 1.65459 158.508 1.99427 158.905 2.33258C159.212 2.59313 159.477 3.56578 159.884 4.07189C161.977 6.66925 164.602 8.91603 167.969 9.22297C168.563 9.27753 170.554 9.31573 171.201 9.28299C175.631 9.06063 177.826 4.06097 180.271 1.16486C180.727 0.624647 180.468 -0.450317 181.813 0.205845C183.317 0.939765 181.666 1.82375 181.121 2.64088C179.536 5.02407 177.07 7.70738 176.395 10.4193C175.472 14.1189 179.066 13.9539 181.351 14.5923C181.87 14.7369 182.378 15.1434 183.06 15.3221C184.353 15.6591 185.731 15.6714 187 16.1202L186.711 17.6958L186.709 17.6944ZM173.586 18.0818C173.851 17.7367 175.654 16.5322 176.134 16.4298C177.391 16.1638 179.212 16.202 180.531 16.0929L177.454 15.2471C174.415 13.7438 174.78 12.8939 175.061 9.88868C175.192 8.47677 174.192 9.93233 173.519 10.2447C171.054 11.392 166.824 11.1955 164.321 10.0947C163.994 10.5094 166.162 12.9458 165.8 14.1721C165.688 14.5541 164.646 16.4885 164.332 16.7927L160.265 19.0954C164.528 18.4815 167.777 17.2497 170.946 21.0011C171.481 21.6355 171.631 22.544 172.421 22.9178C172.666 21.8074 172.945 18.9181 173.584 18.0832L173.586 18.0818Z" fill="#3F2C22"/>
<path d="M231.709 17.6944C228.821 17.7885 221.974 16.3357 220.126 18.9604C218.822 20.8129 218.883 25.155 219.05 27.4168C219.133 28.5286 220.852 34.0794 218.305 32.8134C217.271 32.2991 217.822 30.9363 217.668 29.905C217.013 25.5206 215.447 19.4815 209.992 19.6274C208.466 19.6684 204.889 20.2236 203.255 20.48C202.231 20.641 200.998 21.7664 199.775 21.5263C197.951 19.3696 199.764 19.9521 200.952 19.5169C202.031 19.1227 207.47 16.3671 208.144 15.7287C210.322 13.6688 207.69 9.84912 206.19 7.93656C205.343 6.85751 201.627 3.69674 202.043 2.3544C202.261 1.65459 203.508 1.99427 203.905 2.33258C204.212 2.59313 204.477 3.56578 204.884 4.07189C206.977 6.66925 209.602 8.91603 212.969 9.22297C213.563 9.27753 215.554 9.31573 216.201 9.28299C220.631 9.06063 222.826 4.06097 225.271 1.16486C225.727 0.624647 225.468 -0.450317 226.813 0.205845C228.317 0.939765 226.666 1.82375 226.121 2.64088C224.536 5.02407 222.07 7.70738 221.395 10.4193C220.472 14.1189 224.066 13.9539 226.351 14.5923C226.87 14.7369 227.378 15.1434 228.06 15.3221C229.353 15.6591 230.731 15.6714 232 16.1202L231.711 17.6958L231.709 17.6944ZM218.586 18.0818C218.851 17.7367 220.654 16.5322 221.134 16.4298C222.391 16.1638 224.212 16.202 225.531 16.0929L222.454 15.2471C219.415 13.7438 219.78 12.8939 220.061 9.88868C220.192 8.47677 219.192 9.93233 218.519 10.2447C216.054 11.392 211.824 11.1955 209.321 10.0947C208.994 10.5094 211.162 12.9458 210.8 14.1721C210.688 14.5541 209.646 16.4885 209.332 16.7927L205.265 19.0954C209.528 18.4815 212.777 17.2497 215.946 21.0011C216.481 21.6355 216.631 22.544 217.421 22.9178C217.666 21.8074 217.945 18.9181 218.584 18.0832L218.586 18.0818Z" fill="#3F2C22"/>
<path d="M21.4876 18.0363C20.8885 18.8934 20.6262 21.8599 20.397 23C19.6559 22.6148 19.5153 21.682 19.0137 21.0322C16.0419 17.1805 12.9953 18.4452 9 19.0755L12.8129 16.7113C13.1081 16.399 14.0847 14.4129 14.1899 14.0207C14.5281 12.763 12.4962 10.2601 12.8028 9.83434C15.1501 10.9646 19.115 11.1663 21.4268 9.98841C22.0577 9.66767 22.9951 8.17183 22.8722 9.62285C22.61 12.7084 22.2667 13.5809 25.1156 15.1244L28 15.9928C26.7636 16.1034 25.0561 16.0642 23.878 16.3387C23.4283 16.4438 21.7359 17.6805 21.4889 18.0349L21.4876 18.0363Z" fill="#3F2C22"/>
<path d="M77.1449 18.0363C76.5142 18.8934 76.2381 21.8599 75.9968 23C75.2167 22.6148 75.0687 21.682 74.5407 21.0322C71.4125 17.1805 68.2056 18.4452 64 19.0755L68.0136 16.7113C68.3243 16.399 69.3524 14.4129 69.463 14.0207C69.8191 12.763 67.6802 10.2601 68.0029 9.83434C70.4738 10.9646 74.6474 11.1663 77.0809 9.98841C77.7449 9.66767 78.7317 8.17183 78.6023 9.62285C78.3263 12.7084 77.9649 13.5809 80.9638 15.1244L84 15.9928C82.6986 16.1034 80.9011 16.0642 79.661 16.3387C79.1877 16.4438 77.4062 17.6805 77.1462 18.0349L77.1449 18.0363Z" fill="#3F2C22"/>
<path d="M127.488 18.0363C126.888 18.8934 126.626 21.8599 126.397 23C125.656 22.6148 125.515 21.682 125.014 21.0322C122.042 17.1805 118.995 18.4452 115 19.0755L118.813 16.7113C119.108 16.399 120.085 14.4129 120.19 14.0207C120.528 12.763 118.496 10.2601 118.803 9.83434C121.15 10.9646 125.115 11.1663 127.427 9.98841C128.058 9.66767 128.995 8.17183 128.872 9.62285C128.61 12.7084 128.267 13.5809 131.116 15.1244L134 15.9928C132.764 16.1034 131.056 16.0642 129.878 16.3387C129.428 16.4438 127.736 17.6805 127.489 18.0349L127.488 18.0363Z" fill="#3F2C22"/>
<path d="M175.488 18.0363C174.888 18.8934 174.626 21.8599 174.397 23C173.656 22.6148 173.515 21.682 173.014 21.0322C170.042 17.1805 166.995 18.4452 163 19.0755L166.813 16.7113C167.108 16.399 168.085 14.4129 168.19 14.0207C168.528 12.763 166.496 10.2601 166.803 9.83434C169.15 10.9646 173.115 11.1663 175.427 9.98841C176.058 9.66767 176.995 8.17183 176.872 9.62285C176.61 12.7084 176.267 13.5809 179.116 15.1244L182 15.9928C180.764 16.1034 179.056 16.0642 177.878 16.3387C177.428 16.4438 175.736 17.6805 175.489 18.0349L175.488 18.0363Z" fill="#3F2C22"/>
</svg>
