<svg width="621" height="475" viewBox="0 0 621 475" fill="none" xmlns="http://www.w3.org/2000/svg">
<g clip-path="url(#clip0_513_48373)">
<rect width="621" height="475" fill="#FFFFF5"/>
<g clip-path="url(#clip1_513_48373)">
<path d="M530.577 318.574C528.886 318.495 529.436 320.779 528.186 321.273C526.917 319.504 523.538 313.152 521.559 312.784C521.253 312.726 520.915 312.718 520.619 312.82L520.385 316.641L509.212 300.798C505.592 299.529 508.524 304.229 507.991 305.836L496.401 290.781L495.132 290.065L494.214 290.63L495.196 294.645C490.17 288.608 485.798 282.092 481.747 275.411C478.209 275.343 482.105 279.385 481.601 281.139L473.407 270.508C470.884 269.997 471.547 272.169 471.799 273.809C470.294 273.398 464.872 265.063 465.408 264.55C471.292 265.866 476.286 269.719 480.966 273.263C492.629 282.1 504.344 291.161 515.597 300.424C520.583 304.53 526.409 307.619 530.995 312.19C532.065 313.255 532.507 314.694 532.664 316.249C533.032 315.632 533.456 315.055 534.002 314.561C533.1 313.602 532.249 312.601 531.307 311.674C531.011 311.383 530.965 311.042 531.067 310.744C529.97 309.826 528.832 308.859 528.164 307.966C527.812 307.497 527.814 306.664 527.762 306.614C527.721 306.573 527.125 307.013 526.607 306.806C524.764 306.075 518.106 300.659 516.181 299.087C506.603 291.259 496.695 284.022 486.811 276.495C482.029 272.854 477.673 268.397 472.325 265.393C468.523 263.257 464.588 263.211 462.261 258.513C461.715 257.411 462.021 256.205 461.032 255.482L459.029 255.688C459.898 259.852 456.486 260.388 454.412 262.995L439.606 250.664L439.698 249.876L440.616 249.111L437.004 249.267C436.418 251.007 434.537 252.122 432.989 253.13C426.034 257.664 417.989 262.181 410.75 266.396C396.552 274.666 381.648 281.872 368.356 291.508C366.364 291.807 364.571 287.367 363.478 286.32C361.148 284.091 357.242 281.539 354.649 279.405C354.293 279.111 351.217 275.322 351.053 276.7L351.009 278.778L348.498 279.561L345.631 275.729L346.065 274.571L341.065 273.034L341.051 274.176L337.7 273.431C336.76 275.328 336.255 274.072 334.463 274.153C324.15 274.618 313.588 275.739 303.278 276.507C296.497 277.012 289.81 278.355 283.082 279.2C293.056 270.521 303.724 262.453 312.436 252.545C317.79 243.787 310.723 245.005 304.456 247.158C303.814 247.378 302.588 248.711 302.678 247.374L324.657 224.977C325.205 224.257 327.36 221.496 325.269 221.303C322.388 221.039 310.953 227.63 308.148 229.494C299.554 235.207 294.442 241.734 287.107 248.152C286.569 248.62 283.322 251.491 283.954 249.367C284.174 248.63 289.322 242.352 290.291 241.204C292.968 238.034 296.091 235.174 298.674 231.929C298.738 231.643 298.256 231.666 298.082 231.742C297.301 232.079 291.723 238.47 290.687 239.656C289.126 241.449 283.092 248.29 282.493 249.89C281.281 253.12 284.646 251.314 286.071 250.253C287.577 249.132 288.468 247.517 289.664 246.388C297.031 239.429 305.551 230.856 314.789 226.26C317.706 224.809 321.243 223.763 324.262 222.478C324.795 223.154 322.742 225.531 322.254 226.133C316.983 232.662 308.744 240.249 302.66 246.193C299.19 249.583 296.753 251.127 293.268 254.112C290.633 256.369 288.646 259.163 286.283 261.652L287.275 262.609C289.048 260.587 290.893 258.652 292.868 256.813C297.492 252.504 301.465 248.711 307.882 246.992C309.342 246.6 313.67 245.649 313.408 248.04C312.946 252.246 303.616 260.55 300.283 263.581C294.07 269.235 287.189 274.915 280.407 279.582C277.077 279.723 273.794 280.423 270.487 280.744C266.185 281.162 260.955 280.234 257.105 282.87C259.146 285.241 258.658 283.75 259.642 283.383C263.39 281.988 266.793 282.634 270.49 282.287C279.158 281.471 287.984 280.566 296.411 279.9C297.878 279.785 301.493 278.249 304.086 278.052C313.276 277.352 322.582 276.889 331.671 276.289C334.775 276.084 340.017 275.218 342.856 275.741C345.293 276.19 348.955 284.093 351.458 285.577C351.76 286.368 350.013 285.895 350.851 287.319C351.133 287.8 354.267 289.7 355.265 290.777C356.662 292.284 357.536 294.118 358.66 295.793C358.024 296.395 342.994 296.418 340.873 296.575C333.862 297.094 326.729 298.33 319.671 298.88C305.211 300.007 290.583 300.188 276.097 301.203C273.732 301.369 269.972 302.456 267.755 301.977C267.335 301.886 267.741 300.796 266.697 301.199L266.451 302.376C259.396 303.696 252.163 303.488 245.108 304.287C250.21 294.211 255.328 284.107 260.242 273.94C264.096 265.964 267.643 257.978 271.295 250.262C271.519 249.79 272.675 247.393 272.787 247.266C273.11 246.899 274.078 246.971 274.244 246.741C274.422 246.496 274.218 244.98 274.514 244.106C275.292 241.804 278.148 237.767 279.376 235.294C283.334 227.314 287.195 219.287 291.249 211.251C302.658 188.63 304.714 164.593 306.723 140.134C306.875 138.291 307.344 136.428 307.081 134.494C307.484 134.502 307.862 134.778 308.282 134.651C311.799 133.572 315.571 128.044 318.254 125.509C318.944 124.857 321.035 124.193 321.693 122.925L320.439 120.639C320.279 119.813 318.01 119.148 318.28 118.488C318.644 117.592 323.952 114.569 325.089 113.481C328.448 110.266 327.208 106.452 325.403 102.73L321.879 97.4529C326.319 98.2884 328.186 99.6158 332.06 96.6676C337.814 92.2878 339.267 87.2443 338.966 80.3214C338.948 79.9008 338.49 79.5053 338.318 79.1155L343.48 75.276C345.563 71.4518 350.329 69.1076 348.562 64.174C347.444 61.0522 341.379 56.3482 338.912 53.8071C337.376 52.225 336.055 50.1238 334.661 48.6304C334.355 48.3024 332.412 46.5351 332.166 46.4212C331.617 46.1665 331.309 45.9138 330.871 46.5138C330.485 46.8052 330.781 47.2412 330.971 47.577C331.854 49.1437 335.971 51.7156 337.068 53.6566C334.417 53.8206 330.909 52.6572 328.396 51.6076C324.801 50.1065 321.235 46.9731 317.492 45.9234C315.973 45.497 307.135 44.4166 305.671 44.5728C305.115 44.6326 302.352 45.362 301.903 45.5646C298.558 47.0772 297.704 52.9466 298.066 56.1514L305.075 61.7564C302.448 63.8248 299.002 61.6831 295.951 62.3989C293.816 66.3909 292.095 70.5006 293.702 75.056C299.194 79.1368 303.186 84.8382 308.682 88.782C305.881 92.5 299.068 98.2691 300.475 103.251C301.239 105.958 302.608 104.829 303.704 105.912C305.557 107.741 306.763 111.58 308.946 113.458C303.552 133.311 305.769 154.584 301.793 174.731C301.315 177.15 300.947 179.618 300.089 181.958C298.148 187.257 296.723 192.966 294.776 198.438C292.295 205.409 288.88 212.283 285.437 219.142C284.75 220.514 283.89 221.554 283.206 222.778C282.82 223.464 283.07 224.749 282.027 225.124C280.369 225.645 271.091 222.502 268.714 221.886C261.425 220.003 256.021 218.483 248.898 215.886C244.09 214.134 238.856 212.592 234.414 210.533C232.619 209.702 231.617 210.246 231.519 210.132C231.421 210.018 231.743 209.244 231.279 208.932C230.798 208.606 229.152 208.345 228.501 207.801L227.733 208.587C226.511 207.687 224.11 207.745 224.314 205.883L223.923 206.653C222.453 207.249 211.534 200.261 209.728 198.935C209.3 198.621 209.117 197.942 208.689 197.623C205.884 195.528 202.395 193.518 200.304 190.861L198.739 191.8C200.86 193.232 202.679 195.03 204.638 196.609C220.592 209.449 246.615 217.759 266.621 223.522C269.978 224.489 274.136 225.079 277.589 225.967L279.298 227.873L280.695 226.725C281.419 228.543 279.47 229.729 279.126 230.497C278.446 232.02 278.112 234.19 277.591 235.475C274.91 242.072 270.176 247.586 267.031 253.859C264.116 259.674 262.101 266.719 259.386 272.721C253.938 284.765 247.137 296.287 241.315 308.147C240.962 308.867 239.804 312.523 239.482 312.749C225.886 308.091 211.859 304.74 198.859 298.566C189.323 294.037 171.622 285.752 163.935 279.405C163.285 278.868 162.901 277.954 162.538 277.666C161.064 276.501 159.947 277.585 161.152 279.003C162.228 280.267 168.309 284.56 169.985 285.529C179.433 290.999 192.885 297.398 202.985 301.915C213.789 306.747 224.132 308.578 234.786 312.514C235.418 312.747 238.64 314.125 238.67 314.503C236.337 318.852 234.302 323.361 232.011 327.729C231.479 328.744 230.92 329.634 230.342 330.739C229.182 332.962 227.597 334.992 227.111 337.473C225.826 336.769 224.752 337.423 223.719 337.396C214.005 337.141 206.212 335.225 197.259 331.75C194.968 330.861 183.707 326.263 182.619 325.146C181.968 324.478 182.313 323.51 181.648 322.788C177.603 318.404 168.253 316.016 163.729 311.244C163.019 310.496 155.766 298.66 155.424 297.649C154.361 294.495 154.369 290.408 153.369 287.284C152.893 285.797 151.106 283.962 151.16 282.521C151.22 280.962 154.227 274.238 155.077 272.381C155.866 270.657 162.282 259.47 161.542 258.752L160.161 259.151L149.749 281.124L144.775 274.733L143.553 274.959C144.521 267.228 140.605 261.019 138.172 254.102C136.42 249.124 135.151 243.974 133.16 239.07C137.394 241.798 140.738 245.472 144.779 248.497C146.41 249.718 154.723 255.927 155.81 256.373C158.411 257.44 163.001 257.118 165.776 258.725C166.414 259.543 162.855 265.262 162.272 266.589C161.482 268.389 157.348 278.422 158.347 279.584C160.083 279.379 159.981 276.588 160.458 275.258C161.37 272.713 166.114 260.162 167.953 259.304C173.175 260.558 179.053 262.725 184.289 260.44C189.437 258.192 191.332 253.411 190.734 248.134C190.156 243.025 182.517 238.796 178.447 236.201C178.711 234.906 178.875 233.777 179.345 232.515C183.747 220.7 192.054 207.786 196.976 195.711C197.567 194.257 198.499 193.118 198.329 191.606C197.857 191.642 197.469 191.397 197.103 191.847C195.39 193.95 195.122 196.597 194.125 198.928C190.526 207.33 186.47 214.672 182.395 222.724C180.406 226.654 178.799 230.823 176.928 234.811L175.934 235.028L174.819 233.55C178.647 225.421 182.146 217.194 185.744 208.976C193.385 191.528 201.114 172.745 213.539 157.852C231.114 136.788 250.566 117.315 267.883 95.9865C270.931 92.2299 277.217 85.6737 279.442 82.1525C286.091 71.6293 288.562 59.9832 293.7 49.2208C296.019 44.3645 298.266 40.5577 299.997 35.2324C300.475 33.7603 300.835 32.2148 301.095 30.6925C303.642 31.7884 306.703 34.696 309.376 35.2363C311.933 35.7534 315.189 34.1809 317.468 35.5315C318.67 36.2435 318.326 37.8507 318.788 38.3137C319.19 38.717 322.904 40.0117 323.888 40.5287C325.607 41.4317 329.212 44.0326 330.845 43.8107C331.547 43.7162 332.324 43.0081 332.82 43.0987C333.154 43.1605 336.712 46.6914 337.998 47.3628C340.787 48.8176 346.021 50.1798 348.883 48.4549C351.113 47.112 350.195 45.0726 351.077 44.0114C352.542 42.2498 360.897 36.9419 363.342 35.3964C368.276 32.2765 380.093 25.3055 385.654 24.8984C386.112 24.8656 386.528 24.8308 386.062 25.2939C384.257 27.0941 381.232 28.8614 379.249 30.6847C376.96 32.7878 375.335 35.0125 373.26 37.2545L373.062 38.2134L374.001 38.7517C375.471 38.6302 378.192 34.3159 380.257 34.7443C374.043 39.9943 367.12 44.9819 361.204 50.5078C359.371 52.2192 355.189 56.1205 353.863 57.8937C353.158 58.8391 350.983 62.9874 353.61 62.287C354.049 62.1693 355.577 60.0527 356.262 59.4372C359.715 56.3424 364.145 53.1665 368.677 51.7407C373.585 50.1952 376.346 50.0409 372.064 55.0092C367.756 60.0103 361.804 63.8807 357.206 68.6464C355.621 70.2903 349.429 77.2247 355.873 75.6522C360.635 74.4888 366.958 68.8201 372.764 67.2591C373.314 67.1106 373.535 66.5549 373.457 67.5409C367.182 75.5056 358.414 81.9113 351.882 89.5538C349.203 92.6891 342.714 101.206 341.139 104.652C340.747 105.508 340.527 106.13 340.677 107.098C341.824 108.198 346.323 103.255 347.282 102.479C353.006 97.8523 359.855 91.983 366.134 88.2591C366.81 87.8578 368.258 86.9452 369.061 87.225C367.994 88.8824 366.694 90.2947 365.275 91.6742C352.88 103.743 336.463 114.887 326.281 128.903C324.679 131.106 322.008 136.864 327.21 134.041C331.043 131.961 336.712 127.238 340.079 124.471C344.031 121.224 349.477 114.968 354.377 113.186C354.887 113 356.596 112.402 356.262 113.46C355.769 115.024 348.957 121.98 347.332 123.558C337.192 133.396 322.852 143.626 313.894 154.379C312.83 155.656 309.588 159.853 313.212 158.772C318.176 153.503 323.722 148.353 329.753 144.215C331.686 142.887 343.914 135.349 345.471 136.813C345.389 138.087 343.97 139.686 343.07 140.751C336.437 148.612 325.733 156.322 318.272 164.005C316.995 165.321 312.14 170.283 312.266 171.73C312.366 172.892 313.344 172.824 314.27 172.496C316.253 171.794 323.112 165.435 325.521 163.671C329.533 160.735 334.635 157.256 339.199 155.263C340.619 154.643 342.766 153.607 344.269 153.982L312.286 183.705C312.062 184.692 313.948 184.961 314.677 184.463C319.26 181.036 323.734 176.959 328.71 174.08C330.179 173.23 334.687 170.791 336.083 170.389C336.589 170.245 336.886 170.482 336.671 170.957C336.441 171.462 333.714 174.229 333.08 174.825C325.013 182.416 313.342 190.241 306.275 198.349C305.895 198.785 304.584 200.23 304.684 200.666C305.991 202.171 307.55 200.969 308.886 200.097C315.315 195.891 327.278 183.905 334.981 182.832C335.351 182.78 336.137 182.493 336.271 182.921C335.309 183.78 334.479 185.674 333.752 186.473C325.045 196.018 313.158 204.33 304.31 214.294C303.4 215.316 299.224 220.115 299.508 221.087C299.959 221.884 300.643 221.822 301.383 221.411C308.706 214.944 316.569 206.673 325.995 203.099C326.493 202.91 327.644 202.285 327.476 203.369L299.688 230.19L299.29 231.35L328.856 203.545L329.869 201.83C329.05 200.714 327.718 201.48 326.689 201.841C317.148 205.189 308.758 213.887 301.289 220.159C301.021 220.24 300.999 219.82 301.097 219.59C301.729 218.099 306.833 212.613 308.278 211.083C315.657 203.275 324.417 196.595 332.138 189.155C333.038 188.287 338.818 182.456 337.874 181.574C334.543 181.372 330.883 183.409 328.012 184.98C320.407 189.142 314.196 195.171 306.891 199.711C306.575 199.323 307.422 198.449 307.676 198.154C310.067 195.407 314.969 191.272 317.876 188.704C324.773 182.611 332.914 177.262 338.508 170.017L338.676 169.423L337.76 168.9C332.832 170.835 328.11 173.301 323.756 176.238C321.197 177.963 318.946 180.16 316.331 181.806C315.991 182.02 315.441 182.755 315.087 182.149C318.78 178.292 322.652 174.511 326.675 170.951C332.118 166.135 339.583 161.157 344.261 155.896C346.259 153.65 348.07 151.375 343.39 152.739C332.062 156.042 323.08 165.398 313.49 171.536C313.23 171.262 314.983 168.906 315.319 168.481C323.446 158.188 336.399 150.248 344.661 140.46C345.319 139.681 347.082 137.5 347.074 136.592L346.41 135.708C343.987 134.95 337.882 138.151 335.599 139.43C330.011 142.561 325.043 146.835 320.309 150.902C318.472 152.48 316.485 153.877 314.885 155.71L314.691 155.139C321.041 147.485 329.002 141.429 336.285 134.687C341.183 130.153 346.684 125.517 351.316 120.836C353.829 118.297 356.584 115.657 357.85 112.294C355.999 110.664 352.494 113.118 350.707 114.262C343.49 118.883 337.266 126.327 329.613 131.336C327.912 132.449 323.944 135.418 325.813 131.525C327.786 127.417 334.821 120.392 338.268 116.919C346.634 108.487 356.153 101.252 364.879 93.2082C367.208 91.0607 369.547 88.8457 371.056 86.0557C370.611 85.4653 370.463 85.4808 369.761 85.556C368.45 85.6968 362.81 89.5519 361.338 90.561L342.68 104.771C342.414 104.495 344.039 102.053 344.351 101.565C346.704 97.887 349.857 93.2332 352.686 89.9281C358.837 82.7429 367.956 76.2754 373.669 69.2754C374.585 68.1544 375.671 66.9408 375.461 65.4127C375.119 65.0422 366.98 68.7197 365.995 69.2002C362.236 71.037 358.504 74.3112 354.273 74.6701C353.382 73.8501 358.903 68.1891 359.709 67.3788C362.592 64.4788 375.067 54.7989 375.461 51.6809C375.934 47.9243 368.38 50.8049 366.524 51.5748C361.942 53.4772 359.153 56.0684 355.473 59.0455C355.157 59.3022 354.673 60.0585 354.273 59.4314C362.702 49.0009 374.039 41.1076 384.455 32.6065C384.693 32.2997 384.765 31.1787 384.657 31.0687C383.885 30.2911 378.371 34.4066 377.26 34.9237C376.99 35.0067 376.97 34.5571 377.066 34.3526C377.248 33.9609 380.431 31.0263 381.056 30.4822C382.61 29.1335 386.228 27.0613 387.286 25.6894C387.81 25.0083 388.002 24.6205 387.86 23.7368C386.382 22.3284 372.936 28.9521 370.721 30.1542C363.715 33.9532 357.382 38.798 350.679 43.0293C350.031 42.2401 353.578 39.2167 354.267 38.5858C362.412 31.1459 373.33 24.7903 381.072 17.3774C381.95 16.5381 384.901 13.3545 382.452 12.9243C379.593 12.4207 369.461 16.2178 366.398 17.4932C363.07 18.8805 359.945 20.6999 356.672 22.1875C361.436 17.1536 367.844 13.7906 373.292 9.4841C374.035 8.93999 374.249 7.11089 373.208 6.78867C370.299 5.8857 351.878 15.8937 347.932 17.2269L348.074 18.3306C351.131 17.1594 371.218 6.66519 372.666 7.91739C372.648 8.86475 371.528 9.65003 370.857 10.2192C364.569 15.556 356.73 20.0555 350.271 25.8534C349.679 26.386 346.78 28.8653 347.48 29.5232C347.804 29.5174 348.148 29.5792 348.47 29.5213C349.059 29.4152 352.896 25.9557 353.985 25.1955C362.17 19.494 372.26 15.2531 382.26 13.7057C382.83 14.2537 379.199 17.6668 378.669 18.1473C372.568 23.7002 365.137 28.7379 358.665 33.9571C355.783 36.282 353 38.7942 350.275 41.2947L349.079 41.4877C348.714 38.8405 347.314 36.4846 346.083 34.15C345.021 32.1338 342.92 28.1765 341.638 26.4766C341.207 25.9036 340.297 25.7724 339.955 25.0932C340.883 24.2945 340.661 22.8918 341.149 22.0544C341.604 21.271 342.636 21.7572 342.052 20.2407C343.482 19.8182 345.413 18.2765 345.689 16.8179C345.855 15.9323 344.671 15.1528 344.685 14.2691C344.703 13.1963 346.305 12.9783 346.86 12.1409C349.349 8.3959 345.627 3.59545 342.646 1.19138C338.682 -2.00377 322.264 -8.42108 317.51 -6.9219C314.709 -6.03822 314.032 -3.41226 316.283 -1.54071C312.512 0.550804 311.499 3.35235 311.889 7.52572C308.002 6.10372 304.7 5.0734 300.491 4.83029C293.606 4.43283 286.555 4.97307 279.72 5.22776C275.675 5.37825 271.335 5.29143 267.313 5.60207C260.188 6.15003 252.665 7.86144 245.714 8.2917C236.251 8.87825 220.814 -1.39214 213.097 -6.52251C212.161 -7.14379 201.901 -13.5244 202.337 -14.0782C203.387 -14.1843 204.934 -14.8635 204.133 -16.0153C203.441 -16.0925 201.472 -15.3516 200.766 -15.0024C195.65 -12.469 190.372 -8.27444 185.272 -5.27609C178.619 -1.3632 171.67 2.44744 165.454 7.15334C161.488 10.1555 157.106 15.7297 153.967 19.6927C144.943 31.0919 135.523 45.1632 134.765 59.8212C134.743 60.2553 135.025 60.8804 134.369 60.7762C131.88 56.1475 127.748 52.3485 124.385 48.2214C115.463 37.2718 106.107 25.7647 98.0539 14.2074C94.9032 9.68669 91.6665 4.88432 89.5274 -0.136076L87.986 -0.1901C87.3683 0.384872 90.389 4.7782 90.9308 5.64645C102.046 23.4378 116.184 39.1646 129.159 55.5764C130.729 57.5599 132.044 59.7286 133.561 61.7487L133.565 62.3198C131.984 61.8143 131.556 64.309 132.766 64.83C133.629 65.2024 134.541 64.8551 135.315 65.0847C135.792 65.2275 136.114 66.4295 136.966 66.5568C137.784 66.1787 137.316 64.9265 137.798 64.5927C138.287 64.2531 142.78 63.7302 144.047 63.3694C153.329 60.7319 164.211 53.5216 170.956 46.9017C171.78 46.0932 174.731 42.572 171.552 43.9921C170.558 44.4358 165.624 50.2936 164.141 51.5053C162.246 53.0546 158.683 55.1828 156.48 56.4601C150.456 59.9485 144.135 62.8407 137.022 63.5064C136.788 63.4736 136.362 62.5745 136.362 62.5147V55.1828C136.362 47.4303 149.049 27.5282 154.189 21.0646C165.318 7.06844 175.204 1.94579 190.47 -6.81964C193.871 -8.77223 197.041 -11.5969 200.944 -12.9225L218.199 -1.03133C227.865 3.3755 237.045 11.7878 248.419 9.74843C248.918 9.65967 249.334 9.37798 249.718 9.07891C251.145 10.2366 249.876 12.2046 249.918 13.507C249.984 15.583 250.536 21.5392 253.512 20.8408C253.083 20.5089 252.855 20.1925 252.735 19.6619C252.025 16.486 251.497 12.5095 252.503 9.44936C253.392 8.67952 265.629 7.30576 267.713 7.14369C269.552 7.00091 271.455 7.24981 273.302 7.13597C282.433 6.5745 304.899 4.36337 312.029 9.51497C313.554 10.6186 314.821 13.2233 317.088 12.9243L316.889 11.3846C318.482 12.3628 320.695 13.9913 322.468 14.4891C328.064 16.0615 328.464 14.6608 333.094 19.2837C333.914 20.1018 339.069 25.894 339.265 26.4246C339.511 27.0863 338.478 28.7283 337.88 28.9695C337.45 29.1431 336.355 27.6131 335.925 29.0003C335.775 29.4866 336.079 31.4585 336.301 31.9138C336.529 32.3807 337.17 32.4174 337.422 32.8419C339.809 36.8705 342.05 41.0998 345.279 44.5574L347.67 43.0254C348.368 44.5014 349.861 45.825 348.162 47.1544C346.301 48.6092 340.975 47.058 338.954 46.045C337.458 45.2964 333.668 41.6575 333.196 41.534C331.932 41.204 331.121 42.7379 329.775 42.188C326.749 40.166 323.508 38.1632 319.969 37.1619C319.254 34.1751 319.292 30.9992 319.889 27.9797C316.761 27.5378 318.402 33.467 317.888 34.1519C315.305 32.3923 311.977 34.1712 309.47 33.604C307.292 33.1101 301.029 28.0048 299.496 28.9405C298.562 29.5117 299.884 30.1522 299.834 31.1478C299.506 37.6635 292.792 47.7043 290.225 53.9518C287.481 60.6335 285.841 66.8482 282.513 73.5202C281.421 75.7082 279.008 80.7999 277.849 82.5249C276.713 84.2131 274.134 86.0287 272.771 87.6572C264.298 97.7848 256.207 108.588 247.523 118.472C231.719 136.46 212.687 154.007 200.524 174.601C196.818 180.878 192.893 188.586 189.938 195.256C189.079 197.199 188.543 199.294 187.737 201.251C182.098 199.028 177.252 195.333 171.96 192.553C158.217 185.331 142.008 182.281 133 168.798C126.592 159.206 121.986 149.195 117.388 138.716C116.232 136.084 115.561 132.928 114.327 130.479C112.002 125.868 107.954 120.973 105.373 116.354C101.97 110.268 99.7052 103.259 95.7508 97.4703C89.5614 88.4154 83.2719 82.6985 78.3219 72.2294C70.3412 55.3487 62.5544 33.2335 59.3097 14.9444C58.698 11.4965 58.666 7.55273 58.0002 4.0508C55.2034 3.97748 56.8607 6.03812 57.0946 7.43696C60.2693 26.4303 64.9474 42.3289 71.9885 60.2071C75.1233 68.166 79.1876 77.7804 84.0536 84.8344C87.5442 89.8934 93.2559 95.1897 96.3166 100.399C101.876 109.863 105.879 120.022 111.908 129.325C114.583 133.454 115.131 136.352 116.992 140.643C121.652 151.388 126.71 161.744 133.403 171.497C137.472 177.426 142.276 180.068 148.645 183.413C155.972 187.262 164.379 189.865 171.64 193.635C176.826 196.327 181.498 200.246 187.15 202.019L173.711 232.527C171.422 232.085 169.363 231.009 167.15 230.351C166.364 230.117 165.648 230.542 164.667 230.109C155.372 226.025 146.298 213.36 139.763 205.88C132.51 197.579 125.291 187.554 114.651 183.037C111.223 181.582 106.792 181.299 103.208 180.189C98.1419 175.055 93.1539 165.647 87.0964 161.759C86.4646 161.354 83.6178 159.957 82.996 159.918C82.6422 159.897 78.4159 160.677 77.8941 160.819C76.2968 161.259 75.719 163.442 73.39 161.501C64.5256 150.725 57.9563 138.401 48.2402 128.276L38.7361 115.258L36.8129 115.576C36.3351 114.584 36.651 113.251 37.4166 112.462C37.9244 111.939 39.086 112.933 39.6098 111.901C39.8377 111.115 33.0364 101.757 31.9989 100.343C23.2324 88.4038 12.7187 76.7983 4.89992 64.3689C4.03627 62.997 3.21061 61.5229 2.61285 60.0161L2.21302 59.6167L0.0299072 60.4L36.7209 110.428C36.7769 111.054 35.7613 112.593 35.3795 113.228C31.3851 119.856 23.7562 125.073 18.2125 130.62C17.0789 131.754 16.4072 133.202 15.0278 134.492C11.8871 137.435 6.79515 140.817 2.4949 141.494L2.02509 143.356C2.59286 143.379 3.16463 143.422 3.7224 143.262C6.09143 142.586 17.0849 135.536 19.0142 133.709C19.332 133.408 21.5311 130.987 21.6111 130.811C21.6891 130.641 21.7131 130.178 21.4172 130.24L19.2081 132.935H18.4164C19.8278 130.251 22.6567 128.648 24.8238 126.58C26.0033 125.453 27.1208 123.948 28.4063 122.705C30.6694 120.517 33.5022 119.103 35.0096 115.966C35.5614 115.95 37.5786 121.793 38.1963 122.918C40.5834 127.257 43.3662 131.623 45.9352 135.901C52.0147 146.023 60.4992 163.247 70.917 169.288C72.8922 170.434 75.2212 171.121 77.1904 172.303L76.0009 173.262C84.7253 179.211 95.1071 179.902 105.185 182.134C114.519 184.2 121.248 187.141 127.972 194.1L130.767 198.152C125.727 195.31 120.279 192.75 114.379 192.366C114.335 192.711 114.319 192.862 114.571 193.141C115.239 193.882 119.917 194.666 121.286 195.15C126.1 196.854 132.148 200.064 135.559 203.755C136 204.234 136.738 205.762 136.846 205.824C137.068 205.955 137.666 205.499 137.982 205.673C138.269 205.831 139.629 207.919 140.109 208.436C147.278 216.144 153.115 225.724 163.021 230.893C164.905 231.875 171.68 233.386 172.649 234.916C172.941 235.377 172.605 236.334 173.361 236.739C174.139 237.05 173.891 235.958 174.173 235.942C176.16 235.828 187.257 243.577 188.345 246.199L178.559 243.272C173.967 243.174 172.633 251.408 173.177 254.665C173.535 256.811 176.24 257.515 176.75 259.508C176.472 259.751 170.13 258.391 169.437 257.978C168.921 257.671 169.175 256.743 168.543 256.423C165.922 257.934 163.871 256.016 161.262 255.358C159.925 255.02 158.187 255.277 156.678 254.766C155.488 254.364 144.703 246.544 142.972 245.225C139.409 242.508 132.23 236.758 129.349 233.675C128.134 232.373 127.956 230.046 125.573 229.799C124.495 230.974 129.445 234.844 129.991 235.757C133.345 241.37 134.743 248.03 136.88 254.191C137.99 257.386 139.657 260.442 140.648 263.674C142.336 269.175 142.518 274.631 142.366 280.35H143.961C144.209 279.297 143.753 278.291 143.661 277.356C143.605 276.786 143.235 276.348 144.157 276.493C145.305 277.738 146.128 279.204 147.174 280.529C148.393 282.077 150.077 282.135 148.359 284.39C148.847 285.311 150.175 284.741 150.694 285.044C150.856 285.139 152.178 287.981 152.272 288.346C152.957 290.989 152.178 293.864 152.358 296.557L153.961 296.553C153.837 300.177 157.036 302.803 158.781 305.601C161.288 309.623 161.018 311.236 165.424 314.625C171.12 319.002 185.39 322.23 180.342 331.281C179.093 331.023 178.543 329.989 177.302 329.402C175.872 328.727 174.223 328.298 172.633 328.661C171.662 328.883 170.13 329.543 168.729 329.904C166.524 330.471 166.798 331.355 164.359 329.157C164.049 328.509 165.78 328.171 166.166 327.43C166.466 326.853 166.066 326.286 165.758 326.276C165.312 326.263 164.249 327.953 161.854 327.33L148.763 319.512C149.741 319.132 150.355 319.898 151.568 319.547C151.952 319.435 154.541 317.881 153.957 317.393C152.684 317.125 151.732 318.146 150.554 318.194C149.305 318.246 148.803 317.559 148.075 317.465C147.434 317.382 146.816 317.837 146.244 317.715C140.974 316.598 128.627 294.279 126.364 289.036C124.243 284.126 124.933 283.605 120.379 279.763C119.719 279.206 114.913 275.472 114.571 275.333C113.855 275.042 113.847 275.775 114.039 276.235C114.691 277.805 121.798 282.094 123.344 284.622C124.215 286.048 124.763 288.818 125.567 290.58C128.34 296.652 133.142 305.292 137.236 310.575C137.91 311.445 140.123 313.195 140.363 313.733C140.573 314.206 140.271 314.459 139.773 314.302C133.721 311.049 128.619 308.414 123.961 303.32C116.17 294.798 113.548 285.253 104.169 277.658C102.394 276.219 100.185 275.065 98.5817 273.79C93.3958 269.661 89.7853 263.946 85.579 258.941C75.787 247.291 66.1549 235.606 56.4009 223.922C48.6061 214.583 43.854 210.985 41.6549 198.305C41.363 196.618 41.559 195.16 41.415 193.514L40.0576 193.705C40.6353 195.804 40.4994 198.117 40.8333 200.255C41.1411 202.223 42.0248 207.203 43.4982 207.904L45.4054 213.59L30.4215 195.636C29.0281 193.969 28.1084 191.891 26.815 190.35C22.1929 184.841 16.5192 180.079 11.8471 174.59C10.2697 173.727 9.16218 174.231 10.6836 175.713C13.3785 178.339 16.4112 180.77 19.0321 183.477C28.2964 193.057 35.9532 204.726 45.0035 214.751C46.423 216.324 51.9767 222.806 52.8903 223.538C53.1542 223.748 54.0419 223.563 54.8395 224.165C55.6032 224.742 59.8075 230.03 60.983 231.364C68.2421 239.591 75.2972 248.58 82.3163 257.054C86.2487 261.802 90.1751 267.587 94.4094 271.934C98.5357 276.167 104.699 279.032 108.77 283.636C112.93 288.338 115.397 295.623 119.971 300.223L118.4 300.441C118.725 302.56 115.349 303.162 113.496 303.617C108.558 304.835 104.365 305.44 99.3374 306.969C98.5377 307.212 97.0583 306.789 96.8044 307.592C96.3706 308.964 106.015 321.244 106.378 323.948C105.135 324.825 97.0663 321.231 95.447 320.417C94.7412 320.062 94.2834 319.269 93.4658 318.856C91.9064 318.07 89.9272 318.207 88.6517 317.7C88.006 317.443 88.1859 316.552 87.3882 316.591L86.3427 316.853L84.5414 321.275C79.9073 320.914 75.2512 320.538 70.6311 320.056C57.3265 318.669 43.96 317.241 30.6134 315.844C28.4143 315.614 22.4687 313.963 20.8374 314.499C18.0785 315.41 19.9338 317.677 17.2389 318.782C17.1309 319.234 17.8486 319.859 17.9286 320.37C20.9374 339.746 27.8885 359.09 33.6242 377.767L36.1951 386.091L104.305 400.816C104.877 405.362 106.546 409.713 107.458 414.172C108.969 421.556 110.223 429.054 111.528 436.484C112.662 442.93 112.444 449.585 113.692 456.006C114.445 459.882 116.089 463.61 116.776 467.505C117.82 467.64 117.598 467.395 117.532 466.583C117.224 462.734 115.179 458.321 114.481 454.472C113.616 449.704 113.799 444.547 113.058 439.638C111.476 429.185 108.887 418.212 106.876 407.787C106.716 406.954 105.731 401.368 105.977 401.131L111.988 402.545C112.934 407.446 109.865 411.49 109.577 416.178L111.474 415.694C112.758 413.508 114.427 411.091 116.168 409.229C117.204 408.121 118.831 406.165 120.371 406.149C121.154 406.908 115.339 422.382 114.877 424.961C114.455 427.319 113.927 431.807 113.943 434.124C113.947 434.834 113.885 435.396 114.575 435.853C115.219 435.845 117.178 430.221 117.69 429.22C118.813 427.02 124.535 418.079 126.372 417.147C126.776 416.943 127.126 416.904 127.57 416.954C127.894 420.718 126.37 424.299 126.022 428.002C125.982 428.434 125.651 429.387 126.368 429.299C126.878 425.716 129.227 420.267 128.795 416.746C128.306 412.765 123.502 418.511 122.602 419.68C119.831 423.287 117.938 427.612 115.181 431.23C114.587 423.574 119.053 416.921 120.887 409.921C121.166 408.852 122.312 405.071 120.921 404.635C118.312 403.817 113.522 411.334 111.582 412.707C112.118 409.451 113.979 406.477 113.58 403.062L140.497 408.019C141.932 406.593 141.48 404.754 142.688 402.792C145.139 398.804 148.415 394.714 150.832 390.586C151.284 389.817 151.56 388.159 152.168 387.604C152.772 387.052 153.413 387.669 154.239 387.351C155.219 386.973 156.362 385.354 157.788 385.292L159.155 386.081L159.809 384.584C161.956 384.814 164.121 384.223 166.14 384.134C172.697 383.845 180.158 384.754 186.546 384.148C190.728 383.75 195.528 381.753 199.73 381.437C202.179 381.252 204.872 381.578 207.357 381.466C226.883 380.592 246.539 379.87 266.099 379.12C290.475 378.184 315.141 375.031 339.289 372.193C347.638 371.213 356.508 371.034 364.829 369.83C368.25 369.334 371.824 368.251 375.241 367.609L375.469 366.015C380.806 365.662 386.3 364.827 391.47 363.515C407.26 359.509 422.459 353.179 438.853 351.361C442.823 350.921 447.591 351.305 451.548 350.493C453.349 350.122 456.859 348.268 458.439 348.268H465.636C465.864 348.268 466.707 347.433 467.033 348.073C465.914 349.65 464.266 350.863 463.049 352.332C458.193 358.184 453.265 362.832 448.037 368.328C444.315 372.245 441.136 376.693 437.169 380.318L436.374 380.592C431.96 380.171 428.169 381.248 424.005 381.794C412.751 383.266 401.298 385.118 390.021 386.427C375.237 388.142 361.534 388.126 346.89 389.178C342.584 389.487 337.926 390.874 333.638 391.435C319.396 393.303 305.579 393.845 291.313 394.964C286.009 395.379 280.629 396.6 275.312 396.886C263.578 397.519 251.385 396.703 239.746 396.873C213.085 397.262 186.344 401.499 159.745 402.665C153.915 402.919 148.163 404.085 142.368 404.224L142.424 405.711C142.82 405.902 143.241 406.03 143.691 406.02C147.792 405.935 153.395 404.515 157.768 404.226C179.231 402.804 200.688 400.934 222.135 399.203C240.248 397.743 257.441 399.005 275.312 398.044C287.401 397.395 300.653 395.624 312.904 394.578C329.202 393.187 345.351 390.351 361.664 389.541C368.957 389.178 375.683 389.572 383.269 388.782C392.82 387.789 402.452 386.471 412.008 385.261C414.763 384.912 418.135 383.783 420.876 383.754C423.283 383.729 425.994 384.754 428.601 383.694L428.653 382.61H434.65C434.187 385.551 431.446 387.839 434.447 390.332C435.288 391.03 437.329 392.159 438.241 390.907C438.197 390.16 433.791 389.799 433.859 387.424C433.887 386.398 437.319 384.376 437.117 382.678L439.447 382.224C439.019 385.201 439.876 388.472 439.886 391.291C439.91 398.32 438.229 405.457 437.833 412.501C437.199 423.823 438.065 436.007 437.445 447.242C436.842 458.215 434.117 469.877 433.435 480.803C433.309 482.831 433.251 486.288 433.825 488.175C434.431 490.17 435.48 489.939 435.186 488.033C433.383 476.392 437.973 459.271 438.645 446.855C439.199 436.64 438.177 425.685 438.633 415.586C438.743 413.159 439.678 410.572 439.453 408.077C441.396 410.737 446.418 405.624 447.041 404.019C447.317 403.307 446.46 403.29 446.062 403.462C445.034 403.903 442.933 408.436 440.65 407.693C439.816 406.886 443.341 399.373 443.973 397.974C446.114 393.224 450.218 383.519 452.877 379.558C453.699 378.335 459.516 374.209 454.646 376.438C456.168 372.151 458.303 367.74 461.236 364.086C462.135 362.965 465.806 358.955 466.835 358.299C467.595 357.815 468.519 357.5 469.436 357.533L459.041 368.917C459.19 370.007 459.77 369.914 460.652 369.704C461.961 369.394 469.006 364.854 469.434 365.249C469.122 367.003 466.38 367.204 465.414 368.504C465.108 368.917 464.58 370.183 465.63 369.872C466.679 369.561 469.43 367.25 470.506 366.457C470.85 366.204 471.677 366.117 471.775 365.961C472.035 365.542 471.629 364.691 471.921 364.169C472.003 364.022 473.809 363.005 474.23 362.926C473.361 361.593 472.315 363.981 471.328 363.995C470.922 364.001 470.352 363.599 469.836 363.7C468.994 362.955 487.445 352.123 488.435 350.973L489.026 351.16C486.365 353.794 481.901 355.797 479.288 358.355C478.768 358.865 478.443 358.928 478.637 359.845C479.456 359.455 479.936 358.656 480.658 358.133C483.459 356.1 491.923 351.23 493.451 348.862C495.656 345.445 496.111 346.072 499.212 343.626C502.515 341.021 508.804 336.279 511.425 333.417C512.179 332.595 512.945 331.181 512.117 330.228C510.11 328.63 501.521 332.485 499.156 333.537C495.934 334.97 492.657 336.865 489.546 338.54C489.194 338.729 488.544 339.391 488.233 338.816L508.83 325.892C510.236 325.472 508.284 328.115 509.622 328.58C510.755 327.669 509.89 326.282 510.428 325.121C511.107 323.647 514.89 323.488 513.82 321.256L512.267 321.598C512.253 319.905 509.528 320.72 508.536 321.266C500.042 325.956 491.012 330.06 482.355 334.685C480.066 335.908 472.981 340.878 471.146 341.245C470.448 341.384 469.248 340.846 468.083 340.956C465.056 341.241 460.11 343.242 456.725 343.908C443.207 346.566 429.381 347.641 415.856 350.385C403.769 352.837 392.258 355.833 379.963 357.805C378.659 358.014 373.385 358.807 372.51 358.687C371.612 358.566 370.493 357.387 369.077 357.915C369.431 356.79 368.607 355.239 368.753 354.327C369.095 352.183 374.143 349.634 368.284 347.865C368.719 346.537 368.927 345.897 367.882 344.799C372.674 343.462 370.541 340.213 366.282 340.932C371.164 336.892 368.705 334.637 363.086 336.69C363.947 334.413 363.118 332.503 363.064 330.342C362.852 321.798 363.572 313.426 365.085 305.049C365.753 304.287 369.117 309.081 369.491 309.477C379.967 320.565 390.265 331.901 401.05 342.677C402.064 343.69 409.431 350.788 410.262 350.194C411.186 348.251 408.395 347.645 406.856 346.346C397.364 338.332 387.024 326.246 378.483 317.004C375.892 314.2 367.068 306.106 365.851 303.341C365.519 302.589 364.909 298.631 365.139 297.973C366.906 296.231 371.086 296.15 369.171 292.876C374.845 288.703 380.734 284.697 386.862 281.11C399.289 273.838 412.108 267.218 424.389 259.83C426.112 258.794 427.805 257.197 429.481 256.255C430.912 255.451 432.785 255.115 434.003 254.445C435.998 253.349 436.152 250.741 439.197 252.234C442.223 253.72 444.473 256.728 446.874 258.713C456.512 266.688 467.473 274.247 476.641 282.465C485.088 290.036 493.924 298.556 501.685 306.723C505.558 310.798 508.876 315.306 512.881 319.265L513.816 319.321C513.994 316.596 510.869 315.057 509.216 313.152C498.405 300.717 482.839 285.052 469.842 274.747C466.699 272.256 462.975 270.246 459.874 267.774C458.233 266.466 457.003 264.577 455.096 263.709L455.642 262.219L457.389 262.931L460.634 258.74C461.064 260.44 462.433 261.476 463.837 262.41L463.015 263.188L463.115 263.867C464.52 265.758 469.406 274.944 471.633 274.961C473.029 274.78 472.883 273.599 473.233 272.634C475.634 274.299 480.226 282.636 482.493 283.379C482.797 283.48 483.119 283.445 483.429 283.437C483.722 283.152 482.895 280.535 483.826 280.354C487.029 286.652 492.123 291.884 495.79 297.945L497.825 298.487L497.225 293.858L511.807 312.585L513.018 312.763C514.134 311.672 508.27 305.197 509.22 303.119L522.237 321.625L523.43 321.462C524.796 320.513 520.923 316.056 521.419 314.308L527.113 321.366C527.956 322.597 526.193 322.859 525.413 323.764C523.934 325.483 522.683 328.138 521.181 330.099C515.4 337.635 509.126 345.056 503.187 352.478C498.173 358.741 493.069 363.507 487.839 369.309C485.424 371.989 483.377 375.35 480.838 377.987C478.619 380.293 475.712 381.954 473.631 384.152C472.619 385.221 470.27 388.13 471.222 389.575L472.633 389.556C472.295 391.582 472.967 393.621 473.051 395.524C473.924 415.26 475.432 435.266 475.016 454.951C474.91 460.006 474.054 467.262 474.614 471.964C474.682 472.541 474.658 472.939 475.238 473.296C477.373 472.777 476.23 471.384 476.212 470.033C476.076 459.78 476.593 449.778 476.216 439.548C475.678 425.029 475.344 410.435 474.65 395.912C474.6 394.887 474.218 389.464 474.032 389.176C473.659 388.599 472.195 388.645 472.637 387.247L474.85 387.262L474.412 384.925C476.815 383.131 479.37 381.097 481.439 378.96C484.296 376.008 486.481 372.506 489.22 369.49C491.831 366.613 495.192 364.078 497.811 361.188C507.669 350.311 516.819 336.726 526.209 325.31C528.14 322.962 531.431 322.109 530.605 318.559L530.577 318.574ZM316.143 126.281C315.941 126.452 313.186 128.071 313.07 127.944C312.708 126.269 314.472 125.677 314.711 124.135L316.891 124.859C317.021 125.144 316.367 126.092 316.143 126.283V126.281ZM305.653 47.3068C306.675 47.5963 309.771 49.1302 310.677 49.7939C314.544 52.6244 315.547 57.3804 308.858 56.5643C306.711 56.3019 304.688 54.494 302.67 53.8457C303.336 52.5028 304.21 51.2892 304.736 49.8691C305.003 49.1437 304.73 47.0464 305.653 47.3088V47.3068ZM299.878 53.4675C299.112 52.3118 301.921 46.4791 303.068 47.2953C304.006 49.1186 302.314 51.7831 300.941 52.9504C300.769 53.0971 299.917 53.5216 299.878 53.4675ZM300.579 55.6806L300.679 54.8143C301.055 56.2672 302.446 55.6478 303.702 56.1417C305.231 56.7457 307.356 58.2197 308.894 58.4609C316.227 59.6109 317.976 52.8848 312.642 49.0568L307.874 46.5254C310.939 47.0869 314.486 47.1062 317.468 47.8722C321.647 48.943 325.873 52.5935 330.265 54.0444C332.858 54.9011 337.406 55.1095 339.449 55.9855C341.614 56.9154 347.632 64.4962 346.976 67.0643C346.349 69.5224 341.053 75.1177 338.628 76.395C335.099 78.2531 336.115 76.9063 333.366 76.1018C332.014 75.7062 326.529 75.0329 325.971 74.591C325.155 73.9466 323.236 70.2112 321.257 68.5287C317.242 65.1136 313.246 65.4281 308.944 63.0472C305.883 61.3531 303.42 57.7683 300.583 55.6806H300.579ZM309.018 75.193C304.222 80.9774 300.867 75.2779 296.753 72.3162C296.239 71.0312 297.64 70.9482 298.274 70.2556C299.586 68.822 301.319 67.2148 301.671 65.4339C305.513 68.002 308.91 70.1321 309.018 75.193ZM299.462 64.2859C300.537 65.758 295.857 70.8711 295.079 70.0588C295.351 67.674 296.179 63.0453 299.462 64.2859ZM307.209 85.7509L295.065 73.3446C295.155 72.3587 294.974 72.6809 295.531 73.1767C297.139 74.6026 302.133 79.5207 303.786 79.9973C305.877 80.6012 310.215 77.051 310.571 75.1814C311.651 69.5127 307.34 67.7955 303.822 64.8917C303.426 64.5657 302.812 64.8898 303.074 63.8884C304.11 64.6583 305.105 63.817 305.967 63.9733C307.364 64.2261 317.956 68.2123 319.208 68.9609C320.005 69.4375 322.274 71.639 322.838 72.403C323.456 73.2423 324.827 76.8504 325.311 76.9835C325.809 77.1205 326.671 76.559 327.558 76.6883C328.154 76.7751 333.924 78.4094 334.389 78.637C335.197 79.0306 335.057 80.2964 337.062 79.7098C337.34 81.5158 336.816 83.2214 336.672 84.9289C336.633 85.3959 336.984 85.9477 336.922 86.4088C336.467 89.8143 332.022 96.0155 328.286 96.521C327.516 96.6252 323.616 95.9634 322.646 95.7454C316.399 94.3388 312.674 88.8708 307.211 85.7528L307.209 85.7509ZM316.481 98.0221C316.929 99.2222 316.845 102.413 315.469 103.06C313.234 104.109 306.747 99.0678 307.073 98.6241C309.004 97.7018 311.611 95.317 311.875 93.2139C312.848 92.4055 316.171 97.1886 316.483 98.0221H316.481ZM307.456 92.2357C308.964 91.1822 309.604 90.231 311.669 90.5108L311.867 91.2768C310.439 91.3713 310.609 92.8859 309.945 93.8642C307.918 96.8548 306.495 97.3333 303.076 98.6164L307.456 92.2357ZM305.247 105.587C303.756 103.39 300.995 102.583 302.678 99.0061C303.338 98.8402 302.854 99.6775 303.328 99.7875C304.198 99.9901 305.705 99.3901 305.817 99.446C305.897 99.4865 306.003 100.089 306.297 100.308C307.682 101.347 312.538 104.926 313.904 104.972C317.992 105.111 318.778 102.192 318.242 98.8325C318.024 97.4722 316.907 96.7795 316.673 95.5312C318.3 96.0309 319.03 97.532 321.069 97.0767C319.158 99.3959 321.859 100.054 323.012 101.565C323.504 102.209 325.321 105.817 325.441 106.548C326.449 112.603 321.425 113.423 317.668 116.745C317.15 115.667 314.462 113.938 313.36 114.11C312.882 114.183 312.358 114.856 311.865 114.648C311.715 114.584 309.979 112.744 309.628 112.362C307.494 110.052 306.853 107.949 305.249 105.585L305.247 105.587ZM315.865 117.909L310.671 118.295V116.369C312.358 116.489 315.509 115.707 315.865 117.909ZM309.835 125.403C310.011 124.095 309.612 122.383 309.875 121.264C309.949 120.953 310.495 120.975 310.673 120.722C310.919 120.375 310.945 119.62 311.121 119.506C312.48 118.636 320.971 119.813 319.038 123.286C317.07 124.124 315.479 121.027 313.97 122.256C313.784 122.406 311.729 126.109 311.653 126.387C311.251 127.882 311.825 129.449 311.023 130.796C310.699 131.34 308.662 133.115 308.056 132.2C307.249 130.981 309.604 127.099 309.833 125.401L309.835 125.403ZM268.282 254.903L267.091 257.602C267.119 256.84 267.479 255.24 268.282 254.903ZM321.469 -4.21105C321.737 -5.06772 323.658 -4.83618 324.371 -4.70884C328.814 -3.91584 338.19 -0.242196 341.65 2.54005C342.142 2.93559 344.961 5.63101 344.657 5.99953C343.18 6.54363 341.682 5.89341 340.245 5.44C336.463 4.24568 324.889 -0.300078 322.292 -2.70223C321.795 -3.16143 321.295 -3.37367 321.471 -4.21105H321.469ZM329.973 14.5797C327.634 13.4684 324.176 13.5996 321.657 12.5731C320.689 12.1795 314.569 8.99016 314.242 8.53867C313.714 7.81513 313.948 6.79253 313.47 6.00725C315.111 6.18862 316.199 7.53151 317.87 8.12384C318.906 8.49236 323.88 9.7137 324.274 8.51166L324.032 7.54115C321.944 8.2589 313.752 5.26828 313.932 3.1787C314.008 2.30273 316.745 0.244022 317.67 0.244022C319.583 0.244022 321.898 3.63983 324.268 2.91436C324.314 2.268 324.405 2.03647 323.846 1.58884C321.739 -0.0916986 316.577 -1.17411 317.074 -4.80145L318.626 -4.75708C318.792 -4.24385 318.738 -3.61292 319.054 -3.14793C320.883 -0.442857 336.902 6.28316 340.681 7.3347C341.786 7.64341 345.283 7.96756 345.485 8.09876C346.161 8.5406 345.777 10.8135 345.357 11.3036C344.963 11.7628 342.872 12.058 342.452 12.9301C345.671 20.0999 339.973 18.2399 334.843 18.9731C333.472 17.6282 331.756 15.421 329.979 14.5759L329.973 14.5797ZM339.053 23.7561C338.126 23.9935 338.386 23.5381 338.142 23.2661C337.832 22.9207 335.943 20.5494 336.261 20.2851L339.012 20.3275C339.481 21.545 339.337 22.529 339.053 23.7581V23.7561ZM347.454 41.5031L344.685 42.2614C343.96 40.3956 342.404 38.8096 341.379 37.1445C339.805 34.5919 336.079 29.9496 340.805 28.8267C341.822 29.0158 347.662 39.5409 347.456 41.5031H347.454ZM99.3874 180.008C97.0883 179.686 83.8037 176.722 82.9621 175.394C82.6662 174.928 82.9581 174.173 82.5102 173.826C79.8593 171.769 73.9777 169.448 70.799 167.468C64.3377 163.445 60.6632 156.721 56.7048 150.586C50.6832 141.257 44.8536 131.808 39.4178 122.121C38.4822 120.454 37.8545 118.167 37.1807 116.373C38.0624 116.165 38.0704 116.859 38.4622 117.255C42.4786 121.326 45.3174 125.974 48.778 130.342C50.3174 132.285 52.4165 133.944 53.9739 135.856C57.3125 139.956 60.1014 144.967 63.1721 149.361C66.4408 154.039 69.7594 158.67 73.1561 163.262C75.5871 165.467 76.7866 162.946 78.5738 162.297C86.4146 159.459 90.2131 167.833 95.1451 171.736L101.552 180.037C100.837 180.031 100.103 180.106 99.3874 180.008ZM175.576 255.819C174.269 253.924 175.316 246.498 177.627 245.549C179.829 244.644 187.05 247.445 189.055 248.985C189.98 254.258 184.167 261.918 178.517 258.38C178.071 258.102 175.842 256.205 175.576 255.819ZM365.045 293.488C364.537 294.103 363.282 291.755 363.048 291.564C364.285 291.4 365.243 292.253 365.045 293.488ZM352.854 284.614L349.855 280.763C350.957 280.628 351.734 279.561 352.782 280.421C355.773 282.785 358.929 285.075 361.852 287.506C362.194 287.792 364.281 289.625 363.845 290.017C363.625 290.215 360.879 288.739 360.455 288.469C358.448 287.182 355.305 283.136 354.149 282.592C353.662 282.362 353.204 282.229 352.654 282.303L352.854 284.614ZM363.048 295.029C361.013 295.351 360.287 294.792 359.449 293.107C359.701 292.907 362.874 294.335 363.048 295.029ZM353.855 285.774L360.209 290.636L362.244 293.106C358.755 291.537 355.089 289.528 353.855 285.774ZM172.621 330.241C174.939 329.624 177.949 331.297 179.123 333.232C176.902 333.226 177.06 335.85 174.96 335.549C174.207 335.441 168.749 332.238 168.735 331.885L172.621 330.239V330.241ZM105.487 318.445C104.915 317.524 103.911 316.689 103.234 315.603C102.736 314.806 98.9075 308.871 99.1574 308.547C104.369 305.902 109.729 305.491 115.233 304.182C117.146 303.727 119.999 303.337 120.949 301.601C124.029 305.516 126.882 308.738 131.276 311.308C133.983 312.89 137.068 314.329 139.845 315.773C140.251 315.985 145.828 317.856 144.741 318.956C141.098 319.624 137.656 321.194 134.043 321.949C131.742 322.429 128.903 322.468 126.64 322.908C124.729 323.28 112.904 326.08 112.198 325.871C111.738 325.736 111.706 325.016 111.448 324.854C111.039 324.596 110.235 324.746 109.675 324.447C106.602 322.798 107.086 321.017 105.491 318.445H105.487ZM91.5825 319.925L92.3662 319.873L97.9519 323.199C95.0991 322.823 92.4622 321.262 89.5594 321.27L91.5805 319.925H91.5825ZM89.1575 318.964V319.342L87.1603 319.728C87.4002 318.856 88.4098 318.904 89.1575 318.964ZM29.8697 360.551C29.0421 355.826 26.659 351.486 25.9893 346.744C26.5471 346.748 26.803 347.861 26.9689 348.301C29.318 354.539 31.0672 361.523 32.7785 367.964L29.8697 360.551ZM34.4998 373.833C34.11 372.697 33.7401 371.477 33.5862 370.283C34.17 370.192 34.12 370.953 34.2599 371.358C34.8837 373.154 35.6054 374.975 35.9772 376.839C35.1296 376.312 34.8157 374.753 34.4998 373.831V373.833ZM36.7829 381.088C38.0584 380.81 37.9324 382.604 37.9784 383.399C36.7029 383.677 36.8289 381.883 36.7829 381.088ZM39.9836 382.631C39.8616 381.89 40.1735 380.87 39.9836 380.202C39.8776 379.83 39.106 379.751 38.8361 379.311C37.3107 376.828 36.3511 372.046 35.3715 369.131C30.8433 355.658 25.4815 340.008 23.2384 326.045C22.8986 323.926 21.961 319.404 21.967 317.588C21.967 317.123 21.945 316.739 22.3768 316.429C27.7446 316.868 33.1744 317.229 38.5282 317.849C45.6233 318.671 52.6064 320.108 59.7675 320.536C74.4295 321.414 89.9292 323.101 104.433 326.404C106.414 326.855 108.941 328.231 110.223 328.491C110.645 328.576 111.336 328.109 111.518 328.229C111.714 328.358 113.13 331.895 113.338 332.474C121.488 355.123 127.364 379.292 137.05 401.43C137.2 401.771 138.074 402.593 137.936 402.694L97.6261 393.172C78.5459 390.459 59.8635 385.344 40.9072 382.373C40.5914 382.323 40.0276 382.699 39.9796 382.633L39.9836 382.631ZM118.751 344.429C121.116 346.873 122.574 350.153 124.753 352.717C126.658 354.957 129.143 356.709 130.916 359.117C131.82 360.344 132.268 362.073 133.539 363.148C131.126 364.304 132.354 368.334 130.347 369.899C130.051 367.877 129.729 360.676 128.549 359.474C128.106 359.023 127.746 359.036 127.15 359.096L126.34 365.654C126.262 365.764 125.831 365.454 125.739 365.274C124.929 363.675 125.047 359.202 124.645 357.068C124.415 355.849 123.719 354.456 123.585 353.142L121.352 352.939L118.751 344.43V344.429ZM101.457 399.124C85.0472 396.095 68.0741 391.868 52.0607 387.37L40.3874 384.752C40.8952 384.032 41.351 384.154 42.1247 384.206C44.1939 384.341 47.8764 385.053 50.0595 385.443C54.7616 386.286 59.3317 387.262 64.0518 388.146C73.37 389.892 82.5882 392.057 91.9524 393.442C92.0463 393.936 91.7005 394.681 92.1923 395.026C92.7541 395.422 97.4601 397.11 98.4437 397.401C100.603 398.042 102.982 398.2 105.153 398.841C104.817 399.919 102.36 399.29 101.457 399.124ZM139.129 406.163L113.152 401.534L116.348 401.148L115.953 400.569L97.9559 395.943L95.1571 394.21L138.859 404.702C139.911 405.163 139.223 405.264 139.129 406.161V406.163ZM370.063 367.211C367.55 367.945 364.485 368.348 361.85 368.348L371.444 366.426C371.304 367.18 370.599 367.055 370.063 367.211ZM471.056 345.829C471.721 344.664 472.721 345.031 471.571 343.265C471.969 342.434 475.878 340.67 476.861 340.043C487.289 333.408 498.462 327.793 509.996 322.823L510.586 323.008C503.147 329.008 494.268 333.182 486.465 338.704C483.79 340.597 481.391 342.85 478.661 344.677L478.603 345.968C479.424 346.765 484.554 342.472 485.668 341.793C490.974 338.557 503.862 331.37 509.786 331.1C510.352 331.075 510.484 330.762 510.981 331.501C508.982 333.784 506.893 336.059 504.604 338.073C503.978 338.623 503.242 338.742 502.737 339.171C493.239 347.234 484.518 351.648 474.606 358.521C473.309 359.422 472.089 360.555 470.57 361.566C468.521 362.928 466.246 364.003 464.402 365.648C463.903 365.803 463.601 365.554 463.811 365.077C463.967 364.724 468.293 360.022 468.994 359.274C469.704 358.515 471.336 357.724 471.43 356.966C471.709 354.684 468.481 356.275 467.015 355.797C465.006 357.504 463.361 359.47 461.628 361.423C456.863 366.787 456.839 368.79 454.013 374.912C452.243 378.746 449.055 381.007 445.384 383.175C444.503 383.696 443.727 384.115 442.669 384.219L442.619 385.715C443.571 386.689 449.68 381.348 450.816 380.702L451.008 381.271L439.822 404.623C439.99 401.675 440.86 398.457 441.034 395.572C441.158 393.511 440.62 384.287 441.224 383.388C441.486 382.998 442.349 383.264 442.233 382.433C442.085 381.371 439.343 380.295 439.419 380.121C442.739 377.129 445.412 373.559 448.407 370.273C452.565 365.714 457.593 361.273 461.612 356.777C463.869 354.253 465.826 351.141 468.379 348.644C469.9 347.157 469.626 348.32 471.054 345.825L471.056 345.829ZM397.925 356.287C417.775 350.881 436.524 348.97 456.699 345.48C461.238 344.695 465.936 342.634 470.6 343.273L468.735 345.906C464.904 346.709 460.694 346.57 456.935 347.257C454.195 347.757 451.422 349.125 448.769 349.405C441.702 350.153 435.364 350.061 428.137 351.488C420.248 353.047 412.899 356.646 404.835 356.775C404.191 356.785 403.497 356.372 402.829 356.391C400.4 356.459 397.528 357.209 395.035 357.159C395.345 356.215 397.104 356.511 397.923 356.287H397.925ZM385.67 357.965C388.223 357.499 391.468 357.931 394.029 357.157L394.491 358.724L402.23 357.937C402.122 358.604 401.434 358.608 400.94 358.811C399.007 359.607 396.184 360.524 394.147 361.13C383.669 364.246 373.717 363.941 363.591 366.37C361.846 366.789 360.027 366.93 359.593 368.759C351.686 370.023 343.644 370.119 335.705 371.099C316.005 373.53 295.913 376.037 276.077 377.609C263.009 378.645 248.167 378.674 234.894 379.153C221.054 379.652 207.199 379.07 193.605 381.366C181.872 383.347 172.591 382.612 160.93 382.599C159.663 382.599 158.533 383.147 157.334 383.405L158.625 380.704C162.006 380.023 165.482 380.582 168.883 380.274C177.555 379.484 187.096 377.484 195.722 376.847C196.164 376.814 197.581 376.536 197.511 377.223C195.07 377.117 193.321 378.925 191.218 379.448C189.457 379.886 185.496 380.148 183.707 379.94C182.192 379.764 179.874 377.864 179.918 380.698C181.808 380.549 183.409 381.543 185.296 381.481C188.729 381.37 193.087 379.305 196.85 379.947C197.317 378.163 199.51 377.706 201.326 377.605C203.347 377.491 205.59 378.286 207.689 378.404C212.765 378.688 218.045 377.943 223.103 377.613C223.415 376.11 221.07 377.237 220.1 377.258C216.14 377.345 211.688 377.511 207.693 377.244C207.083 377.204 205.318 377.159 205.112 376.461L229.296 375.682C242.677 374.055 255.981 373.054 269.484 372.984C270.37 372.162 272.972 372.747 274.476 372.593C301.721 369.826 328.646 364.705 356.053 362.183C366.834 361.191 375.141 359.887 385.668 357.965H385.67ZM369.361 350.406C367.066 353.096 365.669 356.926 368.246 359.86L365.425 360.086C364.887 359.735 364.037 356.038 364.055 355.266C364.085 353.993 365.093 351.978 366.62 352.509L367.05 349.443C368.004 349.327 368.903 349.518 369.363 350.406H369.361ZM364.265 346.123L365.249 344.816L366.242 347.516L364.265 346.123ZM368.246 342.501L366.25 344.041L366.244 342.499H368.246V342.501ZM367.046 337.486L365.641 339.024L364.649 337.872L367.046 337.486ZM362.252 314.524C361.662 320.071 361.824 325.742 361.444 331.305C360.703 330.838 360.473 330.014 359.647 329.379C357.414 327.66 352.866 327.094 350.053 327.033C347.578 326.979 347.784 327.982 346.347 328.505C344.205 329.284 341.582 329.325 339.429 330.319C338.628 330.689 334.485 333.298 333.876 333.834C332.896 334.698 332.732 337.116 333.266 338.247C333.852 339.493 337.472 341.299 337.46 341.914C337.456 342.175 334.06 344.01 333.672 344.438C331.241 347.126 335.921 349.767 338.254 350.221L338.248 350.981C336.642 350.952 336.79 354.066 337.652 354.851C338.322 355.461 340.665 355.581 341.668 356.378C343.19 357.585 342.536 362.066 345.249 361.404C346.5 361.099 344.919 360.042 344.741 359.584C344.075 357.871 343.896 356.632 344.089 354.824C343.78 354.425 337.282 353.788 339.307 352.113C339.595 351.874 339.961 351.949 340.439 351.342C340.879 350.782 340.177 349.835 341.996 350.217L342.252 349.252C341.848 348.378 336.71 348.384 335.429 346.958C334.607 346.043 336.696 344.415 337.482 343.871C341.101 341.374 341.618 342.763 345.239 342.897C350.433 343.088 355.061 343.103 359.727 340.645L363.046 338.254C363.651 339.381 362.824 340.963 363.022 341.843C363.13 342.322 364.463 342.285 364.241 343.066L360.605 345.775C360.599 347.994 362.254 350.155 364.645 350.219L361.948 354.711L363.845 360.244C352.346 361.24 340.777 362.029 329.315 363.389C312.786 365.353 296.159 368.882 279.674 370.661C270.206 371.684 260.743 371.182 251.295 371.828C249.732 371.937 242.259 373.524 241.537 372.936C241.191 371.699 240.986 370.707 241.187 369.411C241.269 368.878 244.168 362.886 241.701 363.335C240.772 363.912 241.591 364.527 241.437 365.355C241.058 367.395 237.985 370.225 240.09 372.614L239.626 373.299C227.447 374.836 215.15 374.669 202.915 375.3C188.585 376.039 174.089 377.96 159.727 379.187C158.239 379.315 157.792 378.219 156.158 379.955C150.852 385.601 147.534 394.31 142.668 400.506C142.372 400.882 140.415 403.508 139.939 403.078C139.597 401.96 140.84 402.416 141.082 401.688C141.408 400.708 141.026 398.775 141.178 397.527C141.67 393.484 141.902 389.327 141.53 385.143C141.258 382.091 139.803 378.854 139.939 375.685L141.344 376.845C143.667 375.101 144.689 376.621 146.642 377.123C155.73 379.452 163.059 378.142 171.91 375.662L171.928 374.528H170.322C170.15 374.366 170.252 370.586 170.146 369.88C169.991 368.853 169.137 367.769 169.101 366.596C169.035 364.402 171.424 364.666 170.202 361.328C169.555 359.555 167.594 358.195 167.108 357.267C166.632 356.356 166.182 353.991 165.474 352.773C164.027 350.279 161.716 351.751 159.729 351.679C158.675 351.643 157.55 351.07 156.53 351.066C152.358 351.048 144.879 351.625 141.256 353.613C140.047 354.276 138.401 355.666 138.747 357.153L139.963 357.373C140.435 359.787 139.109 361.346 139.099 363.138C139.095 364.157 139.849 365.421 139.801 365.851C139.755 366.254 138.409 367.29 138.158 367.983C137.218 370.565 139.019 370.914 139.161 372.795C139.283 374.412 138.245 375.496 138.313 377.428C138.393 379.726 139.725 382.545 139.931 385.145C140.245 389.101 139.985 392.954 139.579 396.759C139.443 398.028 139.693 399.394 139.537 400.583C139.467 401.121 139.327 401.692 138.743 401.154C136.582 395.321 133.937 389.602 131.748 383.783C131.01 381.823 126.23 369.033 126.324 368.217C126.358 367.927 127.206 367.918 127.268 367.503L128.338 363.727C128.475 365.102 128.575 366.708 128.861 368.047C129.069 369.029 130.179 373.698 130.555 374.13C131.014 374.661 131.288 374.564 131.94 374.53C132.286 371.95 132.176 368.641 133.146 366.237C133.387 365.639 133.479 365.122 134.339 365.27C134.115 366.395 134.673 367.456 134.705 368.506C134.895 374.921 135.275 381.709 135.99 388.182C136.104 389.207 136.558 392.375 136.81 393.18C136.992 393.764 137.578 393.992 138.138 393.82C139.835 393.303 137.73 388.821 137.57 387.816C136.966 384.036 136.18 378.871 135.926 375.124C135.762 372.703 136.1 370.221 135.916 367.794L137.134 367.576C137.182 367.155 137.18 366.737 137.05 366.324C136.894 365.828 132.016 358.517 131.32 357.576C129.249 354.77 126.378 352.542 124.183 349.8C118.843 343.128 115.335 335.623 113.15 327.457C116.117 326.435 119.009 326.848 122.104 326.253C128.623 325.003 135.665 322.516 142.258 321.393C144.023 321.092 145.916 320.835 147.722 320.911C157.492 325.578 165.876 332.348 174.917 338.129C177.338 338.21 177.625 335.974 178.441 335.281C178.845 334.938 180.022 334.884 180.602 334.282C180.822 334.054 183.371 329.008 183.459 328.709C183.649 328.059 182.541 327.26 183.727 327.449C184.946 327.644 188.423 329.72 189.928 330.342C201.586 335.154 213.229 339.618 226.306 339.034L225.946 340.705L227.101 341.345C229.368 334.432 233.431 328.31 236.647 321.804C239.232 316.577 241.363 311.125 243.966 305.909C249.286 305.139 254.702 305.213 260.044 304.638C271.315 303.426 280.295 302.55 291.699 302.002C313.726 300.945 335.595 298.273 357.652 297.742C358.318 297.727 358.935 297.385 359.595 297.327C360.617 298.923 362.626 300.532 363.392 302.239C364.669 305.087 362.61 311.209 362.256 314.532L362.252 314.524ZM359.053 339.404C358.869 339.667 353.594 341.208 352.802 341.291C349.103 341.679 340.751 341.255 337.434 339.626C335.397 338.627 333.518 336.639 335.489 334.615C336.193 333.894 340.643 331.386 341.744 331.005C343.044 330.558 345.533 329.971 346.894 329.801C347.488 329.728 351.372 329.425 351.604 329.466C352.318 329.595 352.878 331.075 353.644 330.917C354.989 330.45 353.124 328.302 354.423 328.625C358.727 329.693 365.061 335.104 358.707 338.096L359.053 339.402V339.404ZM154.925 364.493C152.21 365.965 142.342 367.437 141.22 363.835C140.431 361.296 142.712 361.512 142.746 360.46L141.538 358.324C146.14 359.231 150.023 360.863 154.897 360.215C155.762 360.099 161.904 358.156 162.733 357.745C163.751 357.24 164.233 356.576 165.125 356.005C164.753 358.851 168.773 360.078 168.775 362.758C168.775 364.533 166.784 365.554 166.622 367.478C166.572 367.528 165.398 367.968 165.328 367.968H159.531L160.113 369.803L168.323 368.739C169.131 372.513 169.235 374.767 165.057 375.811C161.59 376.677 156.494 377.132 152.939 376.837C150.906 376.668 142.156 374.489 141.182 373.135C141.03 372.922 139.643 369.831 139.625 369.642C139.319 366.389 146.506 367.711 148.527 367.576C149.413 367.518 154.619 366.708 154.965 366.457C155.257 366.247 155.544 365.814 155.544 365.461L154.923 364.493H154.925ZM147.52 356.212L155.149 356.598L155.948 354.467L159.131 354.844L158.335 353.306C159.535 353.317 163.803 351.975 163.961 353.889C164.009 354.975 163.061 355.59 162.214 356.082C161.186 356.679 156.068 358.375 154.847 358.62C153.001 358.99 148.621 358.65 146.804 358.064C145.686 357.703 142.124 354.963 143.825 354.157C144.843 353.674 153.547 352.573 153.917 352.937L154.167 354.438L153.683 355.176C151.656 356.198 146.34 352.536 147.524 356.212H147.52ZM364.751 296.295C364.455 296.766 364.315 299.583 363.244 297.35C364.349 296.355 365.283 295.162 366.606 294.416C367.25 294.053 367.126 293.565 367.838 294.456C367.35 295.185 365.071 295.787 364.751 296.295Z" fill="#3F2C22"/>
<path d="M276.087 374.531C278.938 374.333 281.389 374.066 284.1 373.775C286.895 373.474 288.794 374.184 290.853 374.157C291.777 374.146 295.311 373.451 296.287 373.171C296.993 372.969 297.227 373.096 297.071 372.214C295.271 372.614 293.5 372.646 291.655 372.616C284.296 372.494 276.855 372.945 269.484 372.984C265.719 376.474 274.924 374.613 276.085 374.531H276.087Z" fill="#3F2C22"/>
<path d="M113.55 170.198C113.734 168.612 115.509 162.174 117.948 163.632C120.039 164.883 121.826 175.454 122.348 178.111C123.641 178.416 123.024 176.733 123.322 175.772C124.443 172.153 125.469 172.352 126.63 175.711C128.621 181.474 127.732 187.725 133.743 191.613C136.322 173.884 139.171 189.896 142.052 195.557C147.034 205.345 152.4 211.091 160.47 218.492C160.784 218.78 163.609 221.132 163.123 219.6C161.478 216.601 159.293 213.383 158.019 210.246C157.626 209.275 157.642 208.337 157.342 207.427C157.158 206.869 155.319 205.102 157.334 205.108C158.499 205.11 160.6 208.629 161.52 209.568C163.349 211.44 169.871 217.454 171.878 218.513C173.207 219.214 174.095 218.284 174.341 220.354C174.407 220.914 174.551 221.496 173.731 221.326L158.735 208.21C158.893 212.358 165.281 218.513 164.733 222.28L163.729 222.496C162.853 221.166 161.31 220.533 160.119 219.414C152.49 212.262 147.324 207.348 142.27 198.052C140.017 193.907 138.411 189.437 136.736 185.059C134.247 186.203 135.908 191.667 134.353 192.603C133.471 193.06 130.571 190.591 129.937 189.886C127.198 186.844 127.158 178.516 125.147 174.827L124.045 177.629C123.771 179.064 124.509 181.692 122.348 181.968C121.558 175.987 120.061 170.119 117.542 164.605C115.523 163.177 114.425 172.07 114.353 172.905C114.181 174.939 115.385 179.952 112.75 179.653C111.972 173.737 111.131 167.634 109.145 161.904C107.812 160.937 106.834 166.145 106.758 166.733C106.57 168.169 107.53 171.074 105.555 171.163C105.545 166.079 105.689 160.985 105.151 155.924C104.991 154.423 104.111 147.387 102.95 146.856C102.29 146.555 102.148 147.51 102.062 147.915C101.097 152.475 101.912 157.142 101.575 161.728C101.481 163 101.489 164.192 99.9572 163.835C99.4754 157.221 98.7996 150.586 97.1523 144.151C96.3406 144.047 96.4986 144.085 96.2567 144.633C95.7789 145.72 94.9352 149.683 94.8053 150.95C94.5214 153.702 95.387 156.64 93.8936 159.131L92.4102 159.145C89.0616 147.122 90.611 134.097 86.7546 122.155C86.1728 121.719 84.9593 125.474 84.8553 125.912C82.8642 134.413 84.2956 143.051 84.3475 151.662C81.5887 156.139 80.4871 148.654 80.0793 146.543C77.8122 134.839 78.44 122.555 77.1565 110.776C76.9826 109.182 75.1173 95.9131 73.7639 95.9208C72.9922 96.953 72.1965 98.5892 71.7727 99.7797C70.1513 104.327 68.472 115.564 68.446 120.417C68.4141 126.315 70.6311 133.186 70.7931 138.938C70.8211 139.902 70.921 141.147 69.5676 141.062C69.2217 137.886 68.3081 134.789 67.9702 131.606C67.4704 126.877 67.9283 122.042 67.5624 117.336C67.2225 112.975 66.3009 108.58 65.971 104.208C65.1814 93.7676 65.7411 80.7168 63.0502 70.7532C61.4989 65.0093 60.0895 66.7111 58.0883 71.1391C54.6937 78.6523 52.9604 90.611 52.7565 98.7937C52.5685 106.324 53.4502 113.708 54.3778 121.164L52.8004 121.357L46.7789 91.8574C46.8229 88.9903 46.3111 86.1559 46.1232 83.3081C45.4534 73.1457 45.7533 62.7692 45.1915 52.4853C45.0516 49.923 44.2039 47.2064 44.3739 44.592C43.6382 44.4434 43.5882 44.7869 43.2743 45.2634C42.5526 46.3536 41.2052 51.1116 40.8733 52.5934C38.4663 63.3172 37.6646 75.2778 37.5766 86.0787C37.5587 88.3323 38.3403 93.0324 35.1816 93.2138C35.1996 92.2298 34.8298 91.3114 34.7638 90.3312C33.4783 71.2298 35.4775 50.2124 32.3168 31.3368C32.0669 29.8395 31.3352 25.5948 30.5735 24.5259C30.1417 23.92 30.1617 24.2596 29.7119 24.4487C28.2085 25.0777 26.963 27.3891 26.1733 28.759C23.2845 33.7717 21.1534 39.9073 19.3741 45.358C19.2841 45.632 19.1882 46.5484 18.7783 45.9349C19.3521 43.5578 19.9478 40.8913 20.7755 38.5992C21.951 35.3423 24.8778 28.6684 26.855 25.944C31.5331 19.4958 32.4247 25.7125 33.1225 30.1733C35.9753 48.3853 34.32 68.3549 35.5615 86.8582C35.6074 87.5297 35.7114 89.3839 36.3731 89.735C36.613 85.2877 36.4331 80.4429 36.775 76.036C37.3627 68.4109 38.8001 57.7469 40.5274 50.251C40.7933 49.0953 43.0084 42.5468 43.8081 42.3037C44.2659 42.1648 44.7117 42.2091 44.9676 42.6703C45.2535 43.4787 45.4814 44.3238 45.5714 45.1747C47.2427 61.2044 45.7433 77.6664 48.0844 93.6865C49.2099 101.395 51.481 108.993 52.3786 116.749L52.7904 114.613L51.9468 102.662C52.5825 92.1468 53.1863 80.6397 57.3985 71.1874C58.83 67.9748 61.4809 61.9936 63.548 68.7312C66.3689 77.9288 65.6932 89.9357 66.3729 99.5771C66.7147 104.401 67.3045 109.263 67.9742 114.05C68.504 114.152 68.6 113.349 68.6679 112.994C69.3337 109.543 69.4436 105.996 70.2373 102.543C70.4712 101.528 72.6883 92.6658 74.7615 94.3715C76.1389 98.8342 77.0045 103.44 77.5603 108.076C77.8582 110.556 77.5463 114.399 77.9741 116.552C78.1581 117.482 78.9957 117.851 79.5615 118.495L78.37 118.684C78.7019 122.061 78.5259 125.532 78.7718 128.905C79.0817 133.159 80.3472 147.628 82.0605 150.813C82.2904 151.242 82.6442 151.759 83.162 151.869C83.334 147.167 83.156 142.507 83.162 137.788C83.168 133.508 83.306 125.322 85.4831 121.497C85.765 121.002 86.1048 120.585 86.5646 120.232C87.7102 120.228 88.8637 125.655 89.0556 126.695C90.9129 136.775 90.1952 147.628 92.7661 157.655C93.6637 157.873 93.7077 157.304 93.8517 156.6C94.6633 152.65 93.7317 149.017 95.359 144.533C96.8484 140.423 97.908 142.683 98.6497 145.606C99.5533 149.169 99.7552 153.603 99.9632 157.267C100.567 157.341 100.561 156.22 100.625 155.799C100.833 154.429 100.583 152.671 100.765 151.292C100.869 150.501 101.942 144.245 103.552 145.309C106.349 150.796 105.367 157.159 106.363 163.056L108.957 159.978C110.795 160.011 112.49 173.145 112.876 175.099C112.962 175.531 112.954 176.631 113.556 176.564C113.726 174.524 113.324 172.195 113.556 170.196L113.55 170.198Z" fill="#3F2C22"/>
<path d="M383.15 62.6187C385.487 64.4324 391.776 61.9801 393.171 66.2634C393.525 67.3458 394.045 71.1005 393.745 72.098C393.247 73.7632 389.389 76.09 388.623 77.6047C388.591 81.0487 393.078 86.2273 389.421 88.7626C386.758 90.6091 382.922 91.676 380.049 93.9779C375.021 98.0046 370.541 106.288 370.685 112.659C370.809 118.154 374.649 120.249 369.303 125.493C364.655 130.051 360.879 131.48 358.748 138.282C355.875 147.454 356.774 162.145 355.847 172.51C352.712 207.508 333.076 239.131 318.074 270.344C317.172 271 315.267 275.904 314.474 275.737C313.802 275.596 313.846 274.749 314.042 274.176C314.512 272.806 316.439 270.762 317.148 269.449C319.094 265.846 320.467 261.868 322.314 258.227C337.226 228.838 352.54 201.469 354.649 167.879C355.497 154.383 352.92 138.366 363.634 127.928C365.919 125.702 370.609 123.807 370.609 120.081C370.609 118.597 369.631 116.956 369.469 115.767C369.053 112.691 369.007 108.63 370.237 105.745C372.856 99.5983 377.692 92.3128 383.871 89.1774C384.687 88.7626 386.924 88.4211 388.204 87.5837C390.998 85.7507 387.554 81.56 387.138 79.0382C386.5 75.1774 389.529 74.6526 391.862 72.1096C392.838 70.5429 392.06 66.0377 390.231 65.2428C388.006 64.2761 384.167 65.8756 381.836 63.3114C377.216 58.2293 379.797 47.901 384.623 43.608C385.345 42.9655 386.656 42.2902 387.648 42.2477C391.776 42.0702 398.513 52.7477 403.439 47.791C403.645 38.4641 394.185 33.7505 393.081 24.6744C392.546 20.2657 394.017 16.5708 390.848 12.5518C385.758 6.09974 377.928 3.44677 369.857 6.202C367.82 6.8966 362.852 10.2693 361.314 10.1419C359.777 10.0146 356.097 7.77835 353.939 7.27091C352.034 6.82328 350.503 6.67085 348.52 6.7133C347.786 6.48563 347.706 5.6251 347.864 5.04048C348.088 4.21468 348.598 4.72598 348.908 4.78387C350.763 5.14081 353.408 5.60774 355.147 6.10553C357 6.63612 359.401 8.34946 361.254 8.35139C363.306 8.35139 366.236 5.95889 368.38 5.15818C374.473 2.88144 380.814 2.96248 386.21 6.61104C391.462 10.1631 394.369 12.8836 395.001 19.355C395.267 22.0716 394.675 24.6358 395.558 27.6882C396.892 32.2976 401.616 36.1083 403.513 40.463C405.285 44.5245 406.902 51.8004 399.735 50.6716C395.313 49.9751 391.03 43.9437 387.648 44.1791C385.824 44.3064 382.83 47.818 382.152 49.323C381.34 51.1251 380.699 57.1372 381.062 59.0415C381.134 59.4178 382.912 62.4277 383.154 62.6149L383.15 62.6187Z" fill="#3F2C22"/>
<path d="M444.618 442.442C446.658 440.046 447.961 437.057 449.826 434.545C451.294 432.567 453.525 429.947 455.406 428.353C457.541 426.545 462.969 422.806 462.513 428.239C462.093 433.248 456.849 441.197 454.143 445.658C450.586 451.518 446.27 457.03 443.415 463.278C444.167 463.448 444.365 462.873 444.814 462.51C447.199 460.586 449.432 457.299 452.001 455.168C453.641 453.808 455.952 451.553 458.229 452.269C458.655 452.525 458.177 456.087 458.015 456.727C457.573 458.491 455.912 461.715 455.08 463.542C454.163 465.562 447.485 477.78 448.217 478.717C450.798 476.96 452.749 474.173 455.222 472.169C466.148 463.313 464.25 471.605 461.927 479.798C460.066 486.366 456.772 492.704 454.716 499.079C454.233 500.582 454.265 502.554 453.591 504.184C453.333 504.805 453.629 505.125 452.613 504.954C453.843 492.974 461.374 482.32 462.205 470.226C460.098 468.19 451.088 479.215 449.309 479.969C444.834 481.866 447.425 475.893 448.143 474.212C449.275 471.565 458.325 455.004 457.007 453.637C452.847 455.257 450.068 459.371 447.023 462.327C445.748 463.567 442.501 467.395 441.48 464.316C443.145 460.976 445.03 457.74 446.943 454.532C452.137 445.815 459.692 437.148 461.004 427.008C459.328 425.384 452.075 433.538 451.014 434.923C449.832 436.465 445.786 444.047 444.744 444.317C444.239 444.449 443.909 444.445 443.601 443.997C441.82 441.412 446.646 433.117 448.063 430.533C453.367 420.865 460.98 411.905 463.799 401.154C463.441 400.702 458.065 405.412 457.545 405.92C454.722 408.675 445.298 421.444 442.789 421.973C440.28 422.501 441.66 420.325 442.291 419.175C447.805 409.136 455.774 400.631 460.948 389.716C461.586 388.369 463.089 385.572 463.381 384.343C463.743 382.817 460.784 385.419 460.448 385.761C457.403 388.844 454.346 393.612 452.203 397.295C450.344 397.706 452.949 393.785 453.331 393.168C455.326 389.936 459.408 384.46 462.631 382.463C463.875 381.692 464.93 380.876 465.042 382.824C465.158 384.852 458.313 397.081 456.776 399.579C453.921 404.22 444.716 415.405 443.419 419.491C443.355 419.69 443.309 420.12 443.611 420.06C444.53 418.986 445.846 417.936 446.764 416.929C450.578 412.746 454.127 407.587 458.197 403.653C460.984 400.959 467.567 395.477 464.68 403.735C462.287 410.579 457.375 416.678 453.731 422.881C450.086 429.084 445.464 435.581 444.616 442.444L444.618 442.442Z" fill="#3F2C22"/>
<path d="M174.725 51.9278C175.768 53.8784 182.164 56.4967 182.929 57.7045C183.377 58.4107 182.979 59.3464 182.166 59.2249L171.094 52.8828C169.185 53.1858 167.618 52.412 167.528 50.3842C168.519 49.4465 173.323 53.4385 174.723 53.4655C173.727 52.1554 171.384 51.5071 171.526 49.6124C172.736 48.4799 182.568 55.4586 184.715 55.7847L184.301 54.5344C179.753 50.226 176.228 45.4796 170.934 41.885C167.648 39.6527 164.381 37.4628 161.092 35.1764C158.653 33.4804 155.047 32.6585 153.929 29.747L155.483 29.2106C157.398 32.1163 161.328 33.8933 164.293 35.9443C170.966 40.5634 177.29 45.4313 183.707 50.3939C186.83 52.8076 189.505 55.6844 193.093 57.5424C194.365 58.2004 197.309 58.1868 194.715 59.4506C197.449 62.0457 201.222 63.2304 204.431 65.1232C218.985 73.7111 233.291 89.4514 243.88 102.298C244.746 103.349 250.7 110.982 250.68 111.549C250.672 111.76 249.842 112.445 249.476 111.947C247.513 109.037 245.316 105.763 243.083 103.067C234.644 92.8781 222.233 79.1849 211.696 71.2318C205.044 66.2114 196.258 62.9468 189.395 58.0113C183.893 57.9148 179.773 53.5601 174.719 51.9335L174.725 51.9278Z" fill="#3F2C22"/>
<path d="M136.738 472.931H135.543C134.773 472.225 138.294 457.816 136.736 455.564C135.884 454.96 132.694 461.323 132.4 461.985C131.5 464.011 130.679 467.989 129.717 469.429C129.397 469.907 129.027 470.347 128.348 470.226L134.341 421.994C133.805 421.328 132.644 423.719 132.536 423.915C129.243 429.835 125.709 437.782 124.049 444.279C123.633 445.907 122.958 452.448 122.15 453.251C121.676 453.721 121.392 453.692 120.753 453.635C120.711 448.658 121.424 443.752 122.754 438.971L123.542 439.156C123.02 441.5 122.154 444.132 121.956 446.501C121.918 446.955 121.62 448.614 122.346 448.616C123.374 444.678 124.001 440.607 125.473 436.775C126.568 433.923 131.884 421.928 133.603 420.311C133.871 420.06 133.965 419.597 134.537 419.661L135.481 420.317C135.589 421.442 135.615 422.596 135.539 423.722C134.983 432.15 132.67 441.834 131.596 450.401C131.03 454.923 130.543 459.519 130.351 464.05L133.074 458.001C134.315 456.525 135.113 453.625 137.506 454.055C139.827 455.626 136.324 469.878 136.74 472.929L136.738 472.931Z" fill="#3F2C22"/>
<path d="M476.401 395.75L475.804 394.789C477.527 393.149 480.588 393.812 482.757 394.247C489.774 395.651 496.171 397.976 503.646 399.169C504.458 399.298 508.334 399.471 508.592 399.61C508.636 399.634 508.147 400.181 508.56 400.563C508.776 400.764 513.392 402.969 513.674 403.004C514.038 403.051 517.535 402.757 516.587 401.926C514.994 401.457 512.575 401.111 511.389 399.996C513.3 399.275 514.686 400.731 515.737 400.957C516.225 401.061 516.779 400.683 517.111 400.743C517.535 400.82 517.465 401.673 518.032 401.866C518.92 402.167 520.392 401.781 521.383 401.924L520.585 402.883L521.383 404.619C520.186 404.635 519.706 403.832 518.396 403.809C516.905 403.782 515.657 404.729 513.978 404.662C512.339 404.594 510.082 402.724 508.332 401.976C503.654 399.979 499.592 400.172 494.896 399.122C492.389 398.561 484.512 395.748 482.799 395.748H476.401V395.75Z" fill="#3F2C22"/>
<path d="M146.334 460.579C145.389 460.733 145.571 460.488 145.349 459.815C143.17 453.195 142.384 446.775 141.542 439.932C140.505 431.492 139.199 422.968 137.844 414.56C137.654 413.379 136.794 411.903 136.522 410.809C136.166 409.383 137.902 409.207 138.262 410.297C138.959 412.408 138.829 415.69 139.187 417.894C140.721 427.315 141.83 436.632 143.194 446.056C143.905 450.976 145.679 455.657 146.332 460.579H146.334Z" fill="#3F2C22"/>
<path d="M15.9895 58.291C16.0075 58.1232 16.6652 57.4575 16.7712 56.7301C16.9651 55.4027 16.2634 53.151 17.5848 52.3117C16.5393 58.374 16.8451 64.3379 17.187 70.4446C16.5492 70.4986 16.2594 70.5391 15.7896 70.0606C15.3737 69.6381 13.9523 64.2742 13.7004 63.2015C13.2186 61.1427 13.1067 58.8236 12.6968 56.8382C11.8352 52.659 10.2518 48.5455 10.3938 44.2042H11.5893C11.6393 50.9167 13.7284 57.4595 14.812 64.0581L15.9895 66.5876C16.2034 63.9269 15.6996 60.9016 15.9895 58.291Z" fill="#3F2C22"/>
<path d="M152.736 248.724C152.758 246.606 154.583 245.365 155.259 243.253C155.87 241.335 156.444 235.544 157.504 234.306C157.814 233.943 158.639 233.982 158.729 234.067C159.143 234.458 156.17 243.471 156.244 244.977C156.096 245.703 153.739 249.73 152.736 248.726V248.724Z" fill="#3F2C22"/>
<path d="M162.332 202.424L176.32 212.644C175.844 213.246 175.816 213.225 175.109 213.059C174.069 212.816 171.188 210.518 170.137 209.742C168.653 208.646 163.785 205.092 162.907 203.985C162.488 203.458 162.174 203.182 162.332 202.422V202.424Z" fill="#3F2C22"/>
<path d="M162.332 250.268C162.18 249.095 163.145 248.302 163.417 247.268C163.983 245.105 163.811 242.68 164.541 240.629C164.901 239.621 165.031 238.782 166.326 239.081L164.663 249.628L164.075 250.218L162.334 250.27L162.332 250.268Z" fill="#3F2C22"/>
<path d="M159.005 247.058C158.889 247.193 157.972 247.617 157.936 247.569C157.634 246.639 158.819 241.811 159.731 241.788C161.108 242.712 159.737 246.203 159.005 247.056V247.058Z" fill="#3F2C22"/>
<path d="M461.008 374.524C460.26 375.27 459.708 372.974 459.97 372.585C460.334 372.151 462.905 371.323 463.325 370.95C463.697 370.62 462.823 369.499 464.606 369.899C463.893 371.782 460.01 372.488 461.008 374.522V374.524Z" fill="#3F2C22"/>
<path d="M123.941 438.195C123.118 438.147 123.604 436.318 123.721 435.859C124.067 434.495 125.005 431.874 125.941 430.867L123.941 438.197V438.195Z" fill="#3F2C22"/>
<path d="M43.978 219.403L47.9744 219.781C46.6669 219.661 44.7557 220.966 43.978 219.403Z" fill="#3F2C22"/>
<path d="M457.009 375.681C456.861 375.55 458.383 373.399 459.005 373.37C459.462 374.207 457.515 376.133 457.009 375.681Z" fill="#3F2C22"/>
<path d="M106.748 422.76H106.357L106.355 420.45L107.15 420.448L106.748 422.76Z" fill="#3F2C22"/>
<path d="M449.81 343.653C449.177 344.264 447.981 343.111 448.615 342.499C449.249 341.887 450.444 343.041 449.81 343.653Z" fill="#3F2C22"/>
<path d="M143.933 462.508C143.22 462.232 143.477 460.469 143.142 459.809C144.265 460.179 143.919 461.565 143.933 462.508Z" fill="#3F2C22"/>
<path d="M473.001 423.923H472.205V425.463H473.001V423.923Z" fill="#3F2C22"/>
<path d="M509.39 400.378V399.61C510.128 399.518 510.554 399.595 510.985 400.189L509.39 400.378Z" fill="#3F2C22"/>
<path d="M474.602 362.175L475.046 361.07L476.202 361.024C476.082 361.531 475.02 362.486 474.602 362.173V362.175Z" fill="#3F2C22"/>
<path d="M18.3845 50.3784H17.9927L17.9907 48.4547H18.7863L18.3845 50.3784Z" fill="#3F2C22"/>
<path d="M478.199 360.242L476.601 360.632L478.003 359.48L478.199 360.242Z" fill="#3F2C22"/>
<path d="M436.616 415.82H435.82V416.973H436.616V415.82Z" fill="#3F2C22"/>
<path d="M260.913 120.838C256.285 126.385 251.03 131.525 246.305 137.02C242.305 141.674 238.191 148.511 234.106 152.644C233.671 153.084 233.185 153.773 232.507 153.802C232.025 153.655 232.341 152.972 232.513 152.65C234.176 149.532 240.88 141.637 243.497 138.554C247.385 133.971 252.027 129.827 255.898 125.327C265.436 114.235 273.106 102.226 280.603 89.8566C281.117 89.0077 284.04 82.4148 285.479 83.5667C285.549 84.2227 285.847 84.2458 285.513 84.9096C284.984 85.965 283.286 87.769 282.515 89.0019C275.254 100.604 269.842 110.133 260.913 120.838Z" fill="#3F2C22"/>
<path d="M247.235 153.933C243.964 157.099 241.108 160.8 237.901 164.026L243.093 163.441C244.154 165.581 241.599 168.064 240.104 169.623C237.331 172.516 233.749 174.567 230.696 177.137C229.584 178.072 216.136 190.062 215.512 189.298C215.296 187.554 217.369 187.125 218.499 186.203C224.142 181.584 231.851 175.662 236.897 170.773C237.391 170.295 241.537 165.745 241.096 165.375L235.502 165.757C235.42 165.222 235.57 164.792 235.806 164.315C237.011 161.882 244.898 154.489 247.283 152.241C249.668 149.993 252.169 148.183 254.504 146.088C255.326 145.351 258.059 141.592 259.09 142.607L259.03 143.896C255.118 147.225 250.919 150.368 247.237 153.931L247.235 153.933Z" fill="#3F2C22"/>
<path d="M251.089 262.62L250.298 262.231C250.67 263.965 249.092 264.527 248.67 265.48C248.121 266.716 248.153 267.886 247.163 269.435C245.748 271.65 244.072 272.011 244.292 274.963L243.894 274.193C243.531 273.9 241.831 277.224 241.685 277.662C241.297 278.822 240.96 280.271 240.172 281.405C239.934 281.747 238.565 282.777 238.111 282.683L237.667 281.498C240.29 276.541 243.431 271.785 246.106 266.867C248.039 263.313 253.157 255.086 251.829 251.296C250.724 249.79 247.971 249.965 247.855 247.756C247.831 247.31 249.608 243.204 249.93 242.774C250.42 242.12 251.165 242.195 251.721 241.786C252.371 241.308 252.037 240.233 253.492 240.621C254.71 241.827 248.161 246.488 250.474 248.358C251.243 248.981 252.543 248.796 253.275 249.901C253.732 250.592 254.336 253.463 254.33 254.326C254.308 257.289 251.391 259.799 251.093 262.618L251.089 262.62Z" fill="#3F2C22"/>
<path d="M222.703 215.918C220.102 216.105 217.545 217.001 214.926 217.099C211.55 217.226 207.659 216.646 204.317 216.31C202.759 221.309 200.316 226.113 197.917 230.79C195.762 229.799 198.859 226 199.587 224.294C200.968 221.058 202.078 217.73 202.953 214.342C204.443 213.404 205.346 214.971 205.822 215.123C208.529 215.986 215.042 215.905 217.987 215.424C219.644 215.154 221.056 214.471 222.701 214.386V215.92L222.703 215.918Z" fill="#3F2C22"/>
<path d="M298.502 136.657C296.387 139.54 294.148 144.014 292.607 147.364C291.095 150.645 289.744 153.966 288.72 157.427L287.081 157.655C289.358 149.378 294.324 142.017 297.479 134.118C299.924 134.384 299.654 135.087 298.502 136.657Z" fill="#3F2C22"/>
<path d="M240.298 354.846C240.198 354.732 238.836 352.389 238.796 352.247C237.957 349.262 239.992 346.273 242.613 344.924C249.466 341.399 257.029 341.775 264.282 343.855C265.687 344.259 272.295 346.966 272.893 347.894C273.874 349.422 271.269 351.639 274.284 352.729L272.687 353.308L273.084 356.393L275.629 356.447C277.785 357.796 274.678 359.8 274.678 360.838C274.678 361.572 275.621 361.836 275.809 362.447C276.051 363.242 275.729 364.18 275.965 364.996C276.361 366.368 279.69 367.124 279.882 368.737C279.248 369.262 275.613 367.217 275.074 366.629C273.556 364.975 275.184 362.683 272.885 361.409C272.013 363.825 274.444 365.691 273.482 368.07C273.318 368.473 271.423 369.476 271.091 368.543C270.635 367.261 272.253 367.665 272.279 366.656C272.303 365.797 271.349 363.486 271.127 362.334C270.585 359.526 271.981 357.493 267.345 357.547C266.141 355.357 270.981 354.93 271.083 352.536L268.033 354.435C264.53 352.482 268.806 352.131 269.528 351.201C269.89 350.734 269.322 349.935 269.854 349.626L271.483 349.258C270.108 348.251 267.273 346.468 265.679 345.982C264.58 345.646 265.536 347.315 265.47 348.038C265.198 351.012 263.888 351.058 261.393 351.866C256.801 353.354 251.325 352.679 246.781 351.104C238.511 348.237 252.655 345.943 255.494 345.976L255.116 344.218C251.793 343.159 242.761 345.615 241.076 348.465C239.864 350.514 240.318 353.219 242.609 354.359C243.175 354.641 245.892 355.513 246.529 355.59C247.885 355.754 251.741 354.56 251.089 356.586C250.538 358.299 241.415 356.129 240.298 354.853C240.836 355.449 238.141 357.165 237.957 357.834C237.823 358.324 238.217 360.294 238.495 360.645C239.11 361.425 246.715 361.917 248.297 362.187V363.341C247.973 363.669 240.05 362.754 238.988 362.482C237.261 362.042 235.94 359.142 236.471 357.535C236.751 356.688 239.364 353.817 240.298 354.851V354.846ZM272.289 360.634L274.248 358.467L273.692 357.574L272.337 357.987L272.287 360.636L272.289 360.634ZM271.881 354.847C269.066 356.333 271.241 357.695 271.879 355.419C271.929 355.237 271.879 355.033 271.881 354.847ZM257.091 350.985C263.794 351.895 267.451 345.943 258.838 345.233C258.047 345.167 256.203 345.044 255.893 345.97C257.441 345.7 258.72 345.2 259.888 346.557L259.226 347.473C255.056 346.875 250.348 347.083 246.697 349.258L249.472 350.427C251.799 351.041 254.108 350.776 255.889 349.063L250.694 349.443C248.94 347.932 260.022 346.533 259.078 349.613L257.089 350.985H257.091Z" fill="#3F2C22"/>
<path d="M188.415 374.047L185.724 342.503C187.691 341.818 187.004 346.354 187.126 347.317C188.119 355.241 188.197 363.109 189.153 370.829C189.285 371.894 189.737 373.806 191.12 373.372L190.45 374.483L188.417 374.047H188.415Z" fill="#3F2C22"/>
<path d="M361.846 342.501C362.074 342.721 361.78 343.854 361.474 344.261C360.799 345.164 357.706 346.817 356.43 348.268C355.675 349.127 355.945 350.39 354.453 350.242C352.502 350.047 354.233 348.108 355.033 347.305C355.581 346.755 359.681 343.062 360.029 342.866C360.467 342.619 361.58 342.244 361.846 342.501Z" fill="#3F2C22"/>
<path d="M360.597 352.486C359.673 352.505 356.976 356.659 356.253 354.263C355.843 352.906 359.079 352.059 359.659 350.992L360.645 351.571L360.597 352.486Z" fill="#3F2C22"/>
<path d="M113.945 338.638H113.556L113.154 336.325C114.167 336.622 113.971 337.793 113.945 338.638Z" fill="#3F2C22"/>
<path d="M333.062 365.654L354.049 366.426L355.047 367.771L334.06 367.196C333.072 367.024 332.946 366.58 333.062 365.654Z" fill="#3F2C22"/>
<path d="M328.26 370.285H327.464V371.439H328.26V370.285Z" fill="#3F2C22"/>
<path d="M466.609 354.46C466.619 353.784 467.555 351.631 468.399 351.76C469.914 351.992 466.919 354.417 466.609 354.46Z" fill="#3F2C22"/>
<path d="M327.868 55.3988C328.222 55.1711 329.278 55.447 329.43 56.0258C329.689 57.0099 327.774 62.2985 327.012 63.2593C326.057 64.4633 324.789 63.7841 325.127 62.6033C325.287 62.0457 326.675 60.7954 327.084 59.4699C327.328 58.6808 327.658 55.5338 327.868 55.3988Z" fill="#3F2C22"/>
<path d="M339.459 67.7453L340.257 61.82C343.478 60.1337 340.511 68.9396 339.459 67.7453Z" fill="#3F2C22"/>
<path d="M112.352 307.765C111.942 307.366 113.146 306.218 113.548 306.611C113.949 307.005 112.754 308.159 112.352 307.765Z" fill="#3F2C22"/>
<path d="M319.164 72.0942C319.392 71.8742 319.843 71.8839 320.067 71.6138C320.795 72.1038 320.729 72.4936 320.587 73.2538C320.533 73.5451 318.4 78.4594 318.222 78.7006C317.848 79.208 317.566 79.4704 316.871 79.318C315.989 79.1251 316.583 78.5115 316.609 78.2838C316.747 77.1397 318.42 72.81 319.164 72.0923V72.0942Z" fill="#3F2C22"/>
<path d="M330.659 91.6684C329.356 91.543 328.524 90.4625 328.726 89.2624C328.864 88.4462 332.112 83.9198 332.654 84.3404C333.932 87.4584 328.938 88.4192 330.659 91.6684Z" fill="#3F2C22"/>
<path d="M320.945 80.356C321.367 80.1033 321.305 78.9263 322.664 79.3257C323.062 81.6044 320.217 82.5324 318.388 83.1093C318.024 83.2251 317.236 83.9081 317.071 82.9839C316.905 82.0597 320.195 80.8075 320.945 80.356Z" fill="#3F2C22"/>
<path d="M341.059 10.2519C341.593 13.0612 337.174 10.7439 336.277 10.0397C334.991 9.03056 335.357 7.61243 336.457 8.32053C337.858 9.22544 339.03 10.4294 341.059 10.2519Z" fill="#3F2C22"/>
<path d="M360.605 334.28C360.891 335.327 356.76 337.847 355.727 338.328C352.352 339.892 345.135 340.878 341.876 338.814C340.497 337.94 339.843 336.344 339.155 334.968C339.301 333.157 348.294 331.387 350.037 331.297C352.202 331.185 359.959 331.906 360.603 334.28H360.605ZM354.669 337.085C354.879 337.208 358.757 334.706 358.248 334.011C354.161 333.105 349.949 332.657 345.851 333.626L346.251 335.549L342.658 334.783C343.228 336.122 341.846 336.408 341.846 336.516C341.836 337.675 345.461 338.767 346.652 338.636L346.321 336.006L350.249 334.008L350.307 335.497C351.47 336.14 353.024 335.731 354.173 336.196C354.777 336.441 354.625 337.058 354.669 337.085ZM352.654 337.864C352.888 336.757 352.11 337.062 351.263 337.102C350.483 337.139 348.948 337.405 348.166 337.594C347.764 337.691 346.962 337.704 347.056 338.25L352.654 337.866V337.864Z" fill="#3F2C22"/>
</g>
</g>
<defs>
<clipPath id="clip0_513_48373">
<rect width="621" height="475" fill="white"/>
</clipPath>
<clipPath id="clip1_513_48373">
<rect width="534" height="521" fill="white" transform="translate(0 -16)"/>
</clipPath>
</defs>
</svg>
