<svg width="422" height="502" viewBox="0 0 422 502" fill="none" xmlns="http://www.w3.org/2000/svg">
<g clip-path="url(#clip0_513_48273)">
<rect width="422" height="500.796" transform="translate(0 0.286377)" fill="#FFFFF5"/>
<g clip-path="url(#clip1_513_48273)">
<path d="M486.557 340.223C485.794 340.701 485.502 341.557 484.786 342.186C470.031 355.189 453.941 372.077 441.452 387.499C440.903 388.174 439.765 388.616 439.173 389.491C438.797 390.047 438.518 391.382 438.434 391.444C438.299 391.543 437.739 391.061 437.201 391.41C436.619 391.789 432.977 395.859 433.827 396.785L432.767 396.577C430.215 399.502 427.648 402.397 425.106 405.329C424.379 406.168 422.471 407.6 422.052 408.328C421.484 409.311 421.801 410.718 421.37 411.494C421.161 411.868 420.605 411.656 420.417 411.83C419.809 412.394 418.211 413.531 418.117 413.648C417.66 414.221 417.954 415.076 417.602 415.64C417.432 415.911 416.816 415.884 416.72 416.245C416.232 418.091 417.438 421.178 416.012 423.109L417.04 423.143C417.274 424.614 417.183 424.739 415.701 424.491L415.3 421.334C414.534 422.405 410.832 421.551 411.744 420.267C412.547 420.562 414.822 421.555 415.3 420.441C415.941 418.945 412.989 419.361 412.456 419.911L412.88 417.86L414.944 417.07C412.679 416.496 410.324 416.224 407.993 415.969C407.325 415.896 406.645 416.229 405.987 416.161C373.924 412.892 341.848 406.828 309.669 403.187C309.104 403.123 302.975 401.979 303.077 402.3C304.986 405.958 310.055 417.987 314.653 418.145C315.623 418.179 315.124 416.258 315.721 415.64C317.01 414.566 316.17 418.581 315.929 418.963C315.658 419.395 314.869 419.568 314.381 419.49C309.494 418.71 303.991 406.126 302.282 401.85L299.285 401.099L298.804 401.585L303.593 413.886L302.902 414.573C299.959 410.548 298.729 405.528 297.035 400.864L288.284 399.285C287.942 400.096 288.613 401.362 288.915 402.212C290.493 406.69 293.18 411.594 296.13 415.286L292.207 402.127C292.627 402.467 292.823 402.951 293.053 403.417C294.053 405.444 298.514 416.736 298.457 418.303C298.437 418.84 298.697 419.347 297.915 419.198C296.102 416.651 293.883 414.345 292.317 411.622C290.115 407.794 288.71 403.292 286.869 399.274C286.305 398.726 280.003 397.436 279.561 397.858L287.324 418.031L290.244 422.046C290.174 419.038 288.421 416.046 287.773 413.308C287.571 412.458 288.344 412.645 288.733 413.42C289.641 415.237 291.856 421.412 292.305 423.373C292.421 423.874 292.41 424.385 292.383 424.892C291.95 424.854 291.421 425.023 291.035 424.812C290.874 424.724 288.906 422.359 288.665 422.024C284.995 416.912 282.7 408.403 280.443 402.485C280.112 401.615 278.873 398.071 278.521 397.645C277.981 396.997 276.438 397.065 275.642 396.782L275.463 397.851C274.432 395.384 272.109 396.91 270.192 396.355C269.331 396.106 267.849 394.108 269.753 394.297C272.454 394.566 275.105 395.297 277.776 395.715L273.142 382.737C274.054 382.102 274.396 382.893 274.747 383.624C276.369 387.016 277.177 392.347 278.562 395.999L286.329 397.493L278.649 374.033L279.201 371.885C281.182 380.538 284.142 388.922 287.076 397.285C288.093 398.651 294.742 398.658 296.663 399.272C295.606 396.645 294.521 393.826 293.641 391.086C291.779 385.286 289.745 378.743 288.414 372.827C287.343 368.071 286.445 363.293 286.689 358.366C286.807 358.211 287.397 358.012 287.3 358.812C287.069 360.769 287.746 367.087 288.129 369.197C288.216 369.674 288.638 370.019 288.719 370.387C290.345 377.847 292.941 385.12 294.887 392.513C295.515 392.605 295.237 391.709 295.157 391.353C294.352 387.744 293.654 384.067 292.396 380.577L292.563 379.706L293.29 379.695L301.491 398.545L301.648 399.985L300.992 399.398L294.887 386.113C295.213 390.697 296.91 394.987 298.086 399.368L298.519 399.751C305.426 401.199 312.405 402.093 319.466 402.474C314.874 398.386 313.527 392.2 310.379 387.182C310.151 390.857 313.057 394.416 313.233 397.851C309.567 394.859 309.918 389.325 308.48 385.135L309 384.001C309.59 383.977 310.189 384.103 310.579 384.587C311.949 386.291 313.422 391.362 314.582 393.658C315.361 395.202 316.854 397.956 317.889 399.251C318.409 399.904 322.047 403.024 322.551 403.112C322.806 403.157 323.709 402.908 323.745 402.622C321.862 397.468 321.169 393.303 323.962 388.286C325.888 384.83 327.228 385.103 330.601 386.202C339.049 388.954 343.587 394.644 353.765 391.364C355.422 390.83 361.577 387.114 362.037 387.178C362.274 387.212 362.808 387.799 362.224 388.069C359.29 389.146 357.016 391.323 354.013 392.323C348.721 394.085 343.667 393.402 338.612 391.364C335.924 390.279 328.769 385.764 326.234 386.999C325.03 387.586 323.531 392.022 323.39 393.408C323.023 397.013 324.511 399.968 324.86 403.493C332.502 405.187 340.357 405.421 348.105 406.432C369.302 409.194 389.422 412.823 410.849 414.219C411.974 414.292 415.05 415.372 415.531 414.406L415.487 410.989C415.831 410.228 419.355 409.664 419.866 407.913C420.244 406.618 419.857 403.868 419.943 402.298C421.104 381.364 420.224 359.656 419.943 338.613C419.538 308.559 417.937 278.64 417.429 248.591C417.292 240.455 416.96 232.262 416.723 224.084C416.622 220.537 416.558 216.673 417.087 213.208L416.376 213.386C416.198 212.532 417.039 213.185 417.121 212.349C417.301 210.533 416.688 208.866 416.704 207.34C416.739 203.977 418.088 199.839 416.75 196.643L417.465 196.292C416.946 186.161 416.472 175.847 416.36 165.699C416.151 146.942 416.278 127.99 416.039 109.169C416.007 106.575 415.58 103.934 416.02 101.506C414.466 100.913 413.582 104.394 412.462 103.637C411.949 102.477 412.579 102.07 413.169 101.152C412.023 100.839 410.748 101.522 409.768 101.516C407.692 101.506 404.386 101.337 402.289 101.161C377.981 99.1204 353.838 94.709 329.624 91.895C299.565 88.3998 269.306 86.9021 239.122 85.4986C235.591 85.335 232.031 85.6231 228.506 85.2211C227.854 85.3652 225.609 87.8039 225.482 88.2361C225.016 89.8228 225.755 92.434 225.787 94.2234C226.256 121.479 225.532 151.382 233.708 177.708C236.2 185.732 239.589 193.574 242.26 201.541C255.982 242.465 264.375 285.092 267.453 328.291C269.028 350.395 268.993 373.359 268.148 395.517C268.02 398.874 267.683 415.197 266.185 417.037C261.668 422.577 260.24 430.436 253.742 434.853L250.706 437.331L260.142 436.617C282.54 430.995 305.813 426.786 326.474 416.048C328.365 415.066 331.263 412.615 333.182 412.424C333.708 412.373 334.228 412.22 334.073 412.96L327.93 416.715C311.822 425.603 293.089 429.764 275.196 434.218C269.965 435.52 263.274 437.72 258.036 438.042C247.107 438.714 239.005 443.604 228.349 445.427C208.456 448.83 182.82 445.385 168.936 429.155C162.373 421.484 164.211 412.417 163.413 403.008C163.229 400.834 162.633 398.63 162.7 396.424C162.148 396.396 162.289 397.104 161.786 397.46C159.67 398.952 156.753 394.638 155.225 393.397L152.018 387.888C152.577 393.317 155.251 398.272 156.288 403.538L154.859 403.367L148.578 395.055L143.468 386.111C143.835 390.195 144.902 394.357 146.058 398.283C147.505 403.198 151.923 412.161 152.372 416.526C152.438 417.172 152.347 417.841 152.371 418.486C148.364 418.454 146.725 412.924 145.602 409.77C145.071 409.207 145.274 410.107 145.331 410.388C145.9 413.194 147.501 417.222 148.533 420.004C149.486 422.576 153.958 431.93 153.372 433.882C152.568 436.557 149.677 432.587 149.014 431.619C145.089 425.872 142.962 417.718 139.374 411.718C139.142 411.33 139.014 410.742 138.479 410.658C138.269 416.489 139.176 422.06 138.44 427.885C138.193 429.844 137.551 428.807 136.347 429.339C135.869 429.548 134.916 430.788 134.558 431.288C134.996 431.261 135.289 431.222 135.656 431.528C137.307 432.901 138.437 437.83 141.681 437.338C142.064 436.962 139.844 430.859 139.919 429.652C139.947 429.189 140.297 428.689 140.788 428.803C142.509 431.066 142.068 434.203 144.711 435.909C145.715 435.425 145.005 433.229 146.313 433.428C146.368 434.541 146.445 436.283 145.451 437.009C144.084 438.006 143.09 436.229 142.755 436.63L142.598 438.43C140.104 439.748 138.752 437.645 137.056 436.272C137.441 437.873 138.731 441.221 136.443 441.889C132.86 442.935 132.499 439.077 130.813 438.41C129.954 438.07 130.453 440.171 129.217 439.828L129.561 436.146C130.813 433.958 134.049 442.188 136.338 440.897C136.635 437.8 135.134 435.031 134.204 432.172C134.081 431.795 134.469 431.526 133.671 431.649C132.598 433.399 130.699 434.387 129.208 435.733C126.519 438.159 124.46 440.867 121.025 442.498C122.001 443.364 123.466 443.956 124.757 444.099C129.644 444.636 148.85 439.988 154.076 438.152C156.65 437.249 160.847 434.372 162.955 433.855C163.343 433.759 163.734 433.759 164.127 433.784C165.066 434.735 160.794 436.55 159.982 436.932C154.099 439.7 148.861 440.529 142.679 442.067C137.33 443.398 126.128 447.414 121.114 444.566C120.556 444.25 120.546 443.714 120.311 443.567C119.096 442.802 116.27 445.13 114.959 445.696C112.051 446.948 104.413 449.698 101.443 450.344C87.2796 453.425 69.8342 453.128 56.3439 447.309C48.0932 443.752 40.6568 435.545 38.2 427.005C34.113 412.803 34.2145 391.668 33.7157 376.342C32.8783 350.708 35.663 326.574 35.8536 301.248C35.9801 284.385 34.7365 267.421 35.8714 250.393C36.0068 248.353 37.3021 243.365 36.5342 241.9C35.6772 240.263 33.3701 240.262 33.3701 240.075C34.9931 238.831 36.5271 241.916 37.2165 240.354C37.6691 239.331 37.7849 236.578 38.1091 235.197C41.3196 221.492 46.276 209.251 51.1451 196.275C61.8063 167.862 65.1272 133.061 65.1004 102.738C65.0987 100.599 64.6746 98.327 64.7121 95.9809C64.7406 94.2323 65.4354 92.1957 65.0844 90.3031C64.7726 88.6221 59.859 89.122 60.976 85.1322C61.5586 83.0528 63.481 82.2257 64.6907 80.6266C64.313 79.015 63.1229 78.8265 62.9465 76.7827C62.6276 73.1167 64.4644 72.0814 67.1119 70.2706C71.2488 67.4424 72.038 67.8871 76.5864 66.923C77.3472 66.7611 78.0723 65.9607 78.8366 65.9269C79.1894 65.9109 81.2632 66.2773 82.4052 66.3218C83.2425 66.3538 83.8786 66.7113 84.8157 66.6331C87.1977 66.4356 88.8742 64.0983 90.7609 62.9332C100.075 57.1825 112.728 52.1308 122.812 47.2659C136.11 40.8499 155.027 33.5979 165.952 24.1723C167.992 22.4113 169.207 23.7845 171.443 23.9517C177.162 24.3768 181.642 25.6913 186.919 26.2836C216.69 29.6242 246.822 32.7192 276.912 34.2596C292.62 35.0636 307.81 36.3817 323.585 36.7481C340.392 37.1394 357.398 38.2761 374.134 40.3501C404.115 44.0659 434.456 47.2606 464.656 49.9305C468.283 50.2507 472.044 51.1134 475.661 50.6651L476.243 52.4172L477.43 51.7395L478.374 52.4172C478.338 50.3414 477.138 48.0059 479.443 46.7252C478.894 48.3189 480.047 48.4168 480.266 48.9451C480.843 50.3396 480.081 53.842 479.782 55.4198C478.611 61.6063 478.882 72.471 478.718 79.2605C478.055 106.7 479.441 133.027 480.856 160.4C481.497 172.82 481.848 185.31 482.31 197.726C483.079 218.381 484.902 238.959 485.516 259.627C486.053 277.635 484.829 296.874 486.965 314.744C487.065 315.583 487.352 317.575 488.349 317.456C488.162 318.141 487.362 317.816 487.255 318.685C486.99 320.827 487.922 324.543 488.011 326.864C488.116 329.602 487.392 333.565 487.986 336.059C488.082 336.462 488.985 336.509 489.069 336.846C486.315 342.743 492.878 339.433 495.754 338.892C502.422 337.638 503.17 337.638 509.247 334.579C509.572 334.415 510.193 333.83 510.445 334.351C508.991 336.069 506.347 337.604 504.268 338.501C501.075 339.874 499.096 339.572 496.099 340.306C494.907 340.598 493.386 341.715 492.37 341.918C491.731 342.046 488.235 342.275 487.717 342.128C486.559 341.797 486.484 341.42 486.568 340.217L486.557 340.223ZM417.798 141.713V129.084C417.798 128.803 418.27 127.886 418.865 128.196C418.959 128.308 418.594 129.221 418.653 129.61C420.08 138.968 419.214 150.66 419.239 160.404C419.317 190.134 419.813 220.558 419.248 250.096C419.171 254.083 419.611 258.62 419.234 262.149C419.088 263.51 419.162 265.367 419.207 266.774C419.863 287.625 421.209 308.477 421.373 329.386C421.53 349.307 421.728 369.535 421.701 389.478C421.694 394.996 421.735 400.519 421.717 406.033C422 406.352 424.174 404.123 424.555 403.728C427.278 400.905 429.62 397.559 432.222 394.647C445.708 379.551 459.464 364.908 473.564 350.547C477.423 346.617 481.677 342.752 485.119 338.609C485.463 338.197 486.388 337.996 486.5 337.522C486.434 336.937 486.186 336.393 486.185 335.79C486.176 317.864 483.838 299.948 483.678 282.055C483.665 280.748 484.613 276.908 483.966 275.904C483.86 275.737 483.316 275.974 483.346 275.65C483.172 274.83 483.961 275.292 484.068 274.889C484.175 274.485 484.154 272.61 484.091 272.08C483.993 271.248 483.067 271.571 482.965 270.673C482.896 270.054 483.304 269.439 483.281 268.892C483.215 267.379 482.737 265.707 482.997 264.093L483.354 266.936C483.95 266.749 483.795 264.695 483.737 264.241C483.712 264.051 483.721 263.967 483.608 263.809C483.53 263.697 483.184 263.734 483.006 263.723L482.988 263.204C483.901 263.156 484.136 261.338 483.352 260.892L482.995 262.667V258.754L483.701 259.113C483.539 257.48 483.924 255.511 483.73 253.933C483.665 253.417 482.539 252.893 482.598 251.094C482.634 250.002 483.295 249.527 483.323 248.981C483.357 248.36 482.657 247.206 482.609 246.13C482.472 242.971 482.965 238.935 482.855 235.512C482.306 218.53 480.683 201.513 480.125 184.595C479.128 154.372 476.851 124.325 476.206 94.2341C475.978 83.5918 475.825 73.1736 476.58 62.5615C476.772 59.856 477.681 57.2377 478 54.5553L452.161 74.8207C442.724 81.299 434.016 88.8534 424.887 95.6144C422.599 97.3096 420.105 98.7646 417.579 100.079C417.31 100.458 417.851 101.387 417.807 102.029C417.461 106.897 417.527 111.707 417.416 116.645L417.755 118.728C417.286 125.933 417.133 133.228 417.434 140.471C417.452 140.909 417.163 141.793 417.791 141.713H417.798ZM447.784 76.1832L448.252 76.2508C450.807 74.4312 452.942 72.1472 455.391 70.2137C461.059 65.7419 467.741 61.3341 473.024 56.5137C473.861 55.7506 475.474 54.212 475.718 53.1429C475.976 52.0099 474.693 52.837 474.262 52.7979C432.843 49.0536 391.38 43.3847 349.919 39.2597C307.146 37.6499 264.574 35.8641 222.019 31.426C214.59 30.6505 207.18 29.4836 199.8 28.6779C197.1 28.3826 194.074 28.5925 191.381 27.8667L191.014 28.9393C183.967 26.4402 176.575 26.1591 169.274 25.0883C167.34 25.1577 160.523 30.1347 158.237 31.426C153.55 34.0764 147.897 37.0327 143.056 39.3913C138.556 41.5828 133.863 43.4825 129.204 45.3093C129.742 46.4922 131.394 45.8482 132.506 46.099C161.756 52.7071 192.834 54.3258 222.685 58.1555C229.5 59.0306 236.329 60.3149 243.133 61.2185C268.102 64.5341 293.08 64.7796 318.231 66.6669C346.125 68.7605 373.965 72.9495 401.945 74.4721C415.229 75.1943 428.562 75.196 441.807 75.5073C443.406 75.5447 446.749 74.3582 447.782 76.1832H447.784ZM443.61 79.6198C444.638 78.8407 445.845 77.9727 446.656 76.9695C436.643 76.4927 426.861 77.0157 416.893 76.6244C380.633 75.2031 344.67 69.9309 308.594 67.3624C290.235 66.055 271.264 65.9429 253.021 63.7977C248.358 63.2499 243.694 61.9443 239.08 61.3519C207.351 57.2892 174.981 55.1494 143.541 49.6672C137.843 48.6729 132.199 47.8067 126.512 46.7625C115.5 52.7374 103.713 57.3373 92.8578 63.6145C91.0745 64.6462 89.3926 65.7633 87.8854 67.1791C88.6907 67.9725 89.8452 67.6736 90.9266 68.049C91.7639 68.3389 93.3496 69.0611 94.0533 69.552C95.2274 70.3703 96.487 72.7111 97.3938 72.9761C98.5625 73.3177 100.522 72.937 101.908 73.0935C105.19 73.4653 107.962 74.1341 111.568 74.4756C124.522 75.7083 137.48 75.3401 150.409 76.603C160.842 77.6223 171.297 78.1648 181.755 79.1004C183.862 79.289 186.045 79.9453 188.167 80.1641L191.904 77.1384C185.544 73.1344 189.485 69.7085 194.285 67.0564C195.067 66.6242 196.038 66.6722 196.697 66.2506C197.076 66.0069 197.171 65.4022 197.333 65.3061C198.373 64.6889 214.832 65.4982 216.932 66.0301C219.291 66.6277 224.834 70.5552 225.322 72.9548C225.685 74.7424 225.005 76.6849 223.629 77.8517C225.192 79.8706 228.347 80.6728 227.896 83.7216C231.253 84.0703 234.69 83.8639 238.046 84.0809C263.541 85.7334 289.168 86.3631 314.645 88.7075C343.255 91.3419 371.592 97.4288 400.16 99.373C404.06 99.638 411.849 100.38 415.398 99.6504C415.931 99.5402 419.756 97.3541 420.477 96.8969C424.301 94.4796 427.563 91.0003 431.16 88.3535C435.225 85.3616 439.562 82.6846 443.606 79.618L443.61 79.6198ZM417.441 412.793C417.835 413.104 419.079 412.026 418.863 411.373C418.083 411.585 417.653 412.013 417.441 412.793ZM222.375 89.0615C219.366 89.2322 216.3 88.9352 213.291 89.0615V87.6385H220.952C221.178 87.6385 225.049 86.3844 225.249 86.2368C225.94 85.721 226.555 83.8408 226.329 83.0119C225.808 81.0997 223.393 80.5803 222.55 78.903C221.989 78.5401 213.018 81.9037 211.518 79.2783C211.497 78.4423 215.504 78.8087 216.284 78.7073C219.384 78.3053 220.006 77.9033 222.201 76.1281C222.468 75.9129 223.27 76.2757 223.553 75.2956C224.479 72.535 220.62 69.504 218.477 68.4083C214.098 66.1688 199.613 66.384 195.01 68.4937C193.494 69.1874 189.399 71.8182 190.306 73.757C190.843 74.9043 196.586 77.7486 197.974 78.2075C198.771 78.4707 202.067 78.5437 201.889 79.6269L197.814 79.7906L193.567 78.0705C192.92 78.8852 191.591 79.4526 190.999 80.1428C190.529 80.6924 190.42 81.6014 189.975 81.9927C189.53 82.384 188.35 81.2901 188.359 83.2325C188.363 83.855 188.461 84.0187 188.854 84.4705C188.972 84.6057 191.511 86.3204 191.824 86.4841C194.025 87.6349 196.945 88.3144 199.4 88.7075V89.7712L194.057 89.0615C194.169 90.4436 194.68 91.7492 194.778 93.1402C196.287 114.571 193.927 143.838 189.613 164.849C182.704 198.498 168.165 229.367 163.465 263.252C159.171 294.213 162.007 326.427 163.409 357.478C164.074 372.214 163.785 386.968 164.833 401.593C165.405 409.575 164.665 421.347 169.816 427.569C186.626 447.875 221.965 448.603 244.467 438.764C248.374 437.057 255.395 431.375 257.77 427.857C260.995 423.077 264.761 416.007 265.633 410.45C267.355 399.471 266.767 388.057 266.719 377.023C266.636 357.895 267.612 339.004 265.554 319.874L262.814 295.398C262.616 295.163 260.17 296.84 259.684 297.072C249.691 301.828 238.071 306.159 227.007 307.49C206.482 309.957 185.198 309.48 166.613 299.85C165.743 299.4 162.016 297.579 163.058 296.465C163.506 295.988 167.944 299.046 168.797 299.448C185.33 307.246 202.134 308.127 220.236 306.777C232.573 305.855 241.44 303.036 252.593 298.174C255.921 296.723 259.499 296.237 262.11 293.368C262.114 292.344 262.16 291.307 262.06 290.282C260.815 277.379 256.122 263.176 254.517 250.144C249.489 224.672 239.27 200.837 231.787 176.135C223.959 150.294 224.852 120.659 224.344 93.5226C224.317 92.1209 223.71 90.175 223.622 88.7057C223.134 88.5047 222.598 89.049 222.377 89.0615H222.375ZM162.695 380.065C161.981 375.805 162.485 371.408 162.337 367.085C160.651 317.711 155.232 275.387 170.432 226.812C182.107 189.506 193.185 156.037 193.335 116.28C193.362 109.398 193.818 101.025 193.353 94.2057C193.25 92.6884 192.243 90.8669 192.229 90.6748C192.168 89.8601 192.492 89.1273 192.628 88.3553C190.552 87.9782 186.964 86.0732 186.627 83.8106C186.513 83.0439 186.909 82.5939 186.911 82.087C186.914 81.0695 183.151 80.712 182.07 80.5661C176.914 79.8724 171.623 80.2548 166.445 79.803C158.85 79.1413 151.271 77.3341 143.634 76.9659C131.877 76.4003 119.34 77.3092 107.654 75.8933C106.2 75.7172 98.5358 73.7944 97.8535 74.4739C98.6926 77.4533 97.8927 78.8034 96.0719 81.0428C97.8927 82.4729 100.383 83.6701 100.362 86.3951C100.351 87.7719 99.236 88.4353 99.0097 89.3212C98.4859 91.3774 99.2681 93.5973 99.2966 95.6216C99.5353 112.538 98.4699 129.591 101.158 146.412C104.702 168.581 112.662 190.922 120.622 211.003C121.54 213.315 122.418 215.668 122.44 218.194L123.503 217.837C123.82 222.26 127.523 226.305 127.066 230.644L128.139 230.647C127.305 232.019 128.999 231.661 128.88 233.282L128.141 233.842C129.413 233.678 128.656 235.192 128.855 236.097C128.912 236.357 129.491 236.309 129.555 236.581C130.197 239.365 130.651 242.679 131.408 245.002C131.724 245.971 132.433 250.893 132.385 251.838C132.351 252.514 131.553 252.695 131.704 253.414L132.771 253.599C131.877 259.191 133.831 264.808 134.506 270.356C136.156 283.884 135.47 298.939 135.96 312.662C136.616 331.005 137.651 349.447 137.795 367.749C137.834 372.708 137.361 407.113 138.577 408.772C140.717 411.695 140.984 413.154 142.492 416.423C144.218 420.169 145.871 424.155 147.904 427.739C148.929 429.547 149.834 431.564 151.649 432.713C150.277 425.491 147.01 418.661 144.781 411.649C144.083 409.45 139.86 396.053 140.967 395.003L142.379 395.01C143.34 401.019 145.271 408.246 148.154 413.618C148.36 414.004 150.297 417.387 150.938 416.704C148.471 405.622 143.047 395.288 142.059 383.847L142.917 383.269C147.489 387.925 148.155 395.583 153.787 399.631L149.556 384.185C150.119 383.249 150.63 383.571 151.319 384.135C152.782 385.328 154.713 390.985 156.285 393.05C156.996 393.982 159.83 396.745 161.038 396.401C161.305 396.092 162.704 393.938 162.722 393.783C162.925 392.091 162.993 388.425 162.98 386.648C162.971 385.275 162.392 383.58 162.718 382.063C157.762 379.434 152.659 378.263 147.377 376.685C146.019 376.28 144.777 375.654 143.464 375.255C142.394 374.932 137.979 374.715 138.47 373.133L139.978 372.664L162.691 380.065H162.695ZM136.689 421.868C136.744 416.475 136.648 411.071 136.689 405.681C134.667 406.56 132.805 407.657 130.726 408.442C121.146 412.063 107.202 413.511 96.9645 414.932C91.9189 415.631 86.836 416.266 81.8208 417.069L82.5317 418.485C81.8564 418.984 80.579 416.864 79.152 417.065L78.7867 417.777L80.392 418.842C78.6798 419.011 76.9802 418.716 75.2894 418.62C71.5605 418.408 67.5929 417.953 63.8319 417.415C59.1232 416.745 56.3332 415.751 51.986 414.303C47.0332 412.652 42.1605 410.799 37.2593 409.03L37.6085 407.25C38.7719 405.734 42.1872 409.174 43.6036 409.865C61.8597 418.758 81.5108 416.014 100.839 413.109C109.136 411.862 120.53 410.032 128.408 407.552C131.091 406.707 136.691 405.007 136.689 401.592C136.673 377.07 136.354 352.42 134.891 327.963C134.622 323.477 134.432 320.212 133.853 315.838C133.437 312.703 134.489 311.453 134.48 309.089C134.471 306.725 134.312 300.241 133.829 298.13C133.803 298.014 132.524 297.431 133.122 296.109C128.18 297.454 123.56 300.32 118.593 301.7C114.877 302.733 110.343 303.413 106.484 304.194C88.2417 307.883 68.3911 310.644 50.2365 305.41C45.8466 304.146 42.1694 300.891 37.6388 300.732C37.0455 321.218 34.8078 341.605 34.7722 362.117C36.976 382.692 33.9615 408.363 39.946 428.102C44.3002 442.464 62.9447 449.714 76.6559 450.502C94.7303 451.541 112.908 448.033 126.715 435.747C128.987 433.727 136.83 425.532 136.983 422.839C137.013 422.302 136.685 421.971 136.687 421.868H136.689ZM85.384 90.1287H93.4012C94.4488 90.1287 98.3078 87.9177 98.7567 86.9127C99.505 85.2407 95.7298 82.1136 94.4524 81.9358C92.9861 81.7312 91.3257 83.0421 89.8416 83.0457C89.0096 83.0475 86.8966 82.7237 86.0022 82.5583C84.0051 82.1919 85.213 81.242 86.6436 81.2154C88.6782 81.178 89.1147 81.8166 91.5163 81.1282C93.9927 80.4185 97.2638 78.5134 96.2714 75.518C96.1235 75.0697 94.0391 71.578 93.6685 71.265C93.4654 71.0942 91.5858 70.0857 91.4415 70.2084C99.0436 77.1705 86.6668 79.5344 81.2934 79.0933C79.2945 78.9296 69.8698 76.032 68.979 74.5806C67.0816 71.4926 72.6046 70.3027 74.6089 69.9398C76.4706 69.6018 80.1621 69.1554 81.9491 69.2603C82.8809 69.3154 86.9981 70.6175 87.481 70.1604L87.8783 68.7854C80.3706 67.3037 72.1342 67.663 66.1373 72.8641C61.7902 76.635 66.8215 80.8987 70.9584 81.2278C71.6265 81.2812 72.4175 81.3114 73.0749 81.2118C73.6824 81.1193 75.8382 79.7799 76.1197 81.0606C76.4742 82.6739 70.6751 82.7949 69.6115 82.5761C68.7866 82.4054 67.3453 81.1744 66.7324 81.2901C66.1195 81.4057 62.7648 84.8209 62.6347 85.769C62.412 87.3983 67.0673 89.1646 68.5015 89.3781C69.9357 89.5915 72.6153 88.8089 72.9163 90.8402H66.5026C65.9271 100.362 66.8607 109.91 66.499 119.475C65.8754 135.966 63.4489 156.233 59.9231 172.32C54.9898 194.834 43.7675 214.333 39.2262 237.035C35.6559 254.888 36.6607 277.416 37.3199 295.615C37.3591 296.709 37.8561 297.806 37.6584 298.941C39.6342 299.082 41.5423 299.781 43.3381 300.562C49.0856 303.062 54.1115 305.571 60.6642 306.385C76.3958 308.342 101.663 304.745 117.104 300.563C120.437 299.661 123.361 297.788 126.726 297.009L127.072 295.391L128.157 295.606L128.501 294.329L129.564 295.044L129.917 293.977C130.072 295.732 131.643 294.82 132.231 293.968C133.616 291.956 132.214 285.794 132.083 283.137C131.212 265.328 130.744 249.586 125.385 232.159C116.085 201.917 103.866 174.972 98.9616 143.28C96.7346 128.899 96.8362 114.782 97.8713 100.284L97.4989 90.4863C93.5313 91.5322 89.4479 91.9555 85.3858 91.1942V90.1287H85.384ZM70.4346 72.7164C69.6827 73.8406 73.2673 75.2334 74.0993 75.6051C79.5991 78.0545 86.8396 79.0061 91.935 75.1498C93.5135 73.9545 91.527 72.1597 90.5471 71.2756L90.3511 72.3091C85.7813 71.9445 82.1575 70.5143 77.3721 70.9234C76.3958 71.007 70.7624 72.2255 70.4328 72.7164H70.4346ZM88.2346 70.9163H89.6563V70.5677L88.2364 70.2084V70.9163H88.2346Z" fill="#3F2C22"/>
<path d="M468.392 411.731L470.17 412.442C470.163 414.294 467.793 412.672 466.607 412.793L466.966 412.086H465.183L466.25 413.504C464.832 413.46 463.599 413.141 462.142 413.129C461.116 413.122 460.152 413.577 459.291 413.545C458.645 413.522 458.823 412.871 458.529 412.801C457.724 412.613 455.915 412.481 455.749 413.508C453.261 411.875 449.838 413.557 447.135 413.837C444.055 414.157 440.804 414.137 437.622 414.623C433.348 415.276 427.317 417.497 423.276 416.764C422.604 416.644 422.273 416.962 422.432 415.998C425.32 416.112 428.249 415.864 431.058 415.181C431.416 415.094 432.132 415.078 432.047 414.577C430.472 414.968 428.826 414.772 427.24 414.931C425.439 415.11 422.3 416.005 420.789 415.976C419.752 415.957 419.647 414.578 420.274 414.022C426.341 413.458 432.539 413.572 438.635 413.146C453.503 412.108 469.778 409.648 484.615 409.934C488.971 410.018 492.969 410.729 497.382 410.26C499.048 410.082 500.951 409.623 502.591 409.235L502.942 410.128L502.593 410.48C497.368 412.752 491.535 411.133 486.042 411C480.124 410.857 474.287 411.458 468.392 411.731Z" fill="#3F2C22"/>
<path d="M292.987 170.778C300.973 159.917 311.863 147.707 321.928 138.299C322.368 137.888 323.096 137.906 323.287 137.711C323.595 137.398 323.417 136.494 323.831 136.108C324.032 135.919 324.734 135.932 325.186 135.519C325.899 134.868 326.396 133.637 327.068 132.943C331.456 128.417 336.32 124.222 339.71 118.706C340.043 118.166 340.765 117.043 340.307 116.456C336.551 117.97 332.81 119.711 329.459 121.99C328.598 122.575 324.81 126.246 324.092 125.7L323.896 124.624C329.118 120.521 335.318 117.689 341.385 115.022L342.231 115.613C342.614 116.871 339.587 121.143 338.693 122.315C335.639 126.31 331.666 129.615 328.167 133.155C317.778 143.666 307.13 153.942 297.794 165.42C297.532 165.742 296.396 167.037 296.659 167.325C299.684 165.148 302.749 163.323 306.02 161.557C322.945 152.416 341.42 144.048 359.63 137.177C363.38 135.763 367.991 133.956 371.82 132.984C374.341 132.346 376.673 131.689 378.957 133.178C378.358 134.336 376.457 133.193 375.303 133.258C372.613 133.413 367.129 135.288 364.364 136.211C350.458 140.848 334.495 148.248 321.283 154.739C315.249 157.702 307.475 161.381 301.892 164.904C297.974 167.377 295.141 170.531 292.024 173.907C289.909 174.362 290.614 172.873 291.649 171.751C292.048 171.319 292.79 171.037 292.984 170.774L292.987 170.778Z" fill="#3F2C22"/>
<path d="M385.312 216.496C385.486 216.743 386.119 220.629 386.119 221.223C386.119 222.799 385.449 224.276 385.362 225.836C384.758 236.757 384.842 249.477 385.736 260.354C385.82 261.367 386.716 265.308 386.098 265.701C385.119 266.324 383.609 266.251 383.149 265.066C382.116 262.404 383.502 256.016 383.607 252.901C383.78 247.706 383.042 242.291 383.222 237.218C383.441 231.049 384.446 224.553 384.302 218.383C384.286 217.73 383.422 216.102 384.66 216.245C384.799 216.261 385.25 216.412 385.31 216.497L385.312 216.496ZM385.016 264.446L383.953 260.536C383.876 261.562 384.049 262.594 384.296 263.581C384.446 264.177 383.94 264.62 385.014 264.446H385.016Z" fill="#3F2C22"/>
<path d="M274.567 414.577C273.896 414.506 274.279 415.322 274.316 415.715C274.697 419.774 276.144 429.243 272.561 431.957C268.04 435.381 266.153 429.828 264.197 426.701L262.816 427.026C262.846 426.51 262.723 425.929 262.816 425.429C263.256 423.053 265.428 426.436 265.951 427.274C266.445 428.063 266.598 428.985 267.086 429.698C269.13 432.683 272.071 431.994 273.318 428.801C274.133 426.717 273.705 420.039 273.498 417.602C273.128 413.232 272.062 408.927 271.364 404.614L272.257 404.263C272.88 404.281 274.927 413.863 275.462 415.286C276.447 417.917 278.713 421.96 280.472 424.159C280.807 424.579 281.056 425.02 281.697 424.888C280.931 422.43 280.049 419.965 279.303 417.499C278.971 416.404 278.624 415.285 278.31 414.221C276.828 409.192 275.806 403.739 275.643 398.568L278.237 411.446L283.449 427.512L282.401 427.923C279.018 424.01 275.743 419.707 274.566 414.577H274.567Z" fill="#3F2C22"/>
<path d="M274.924 393.584C274.393 393.673 274.482 392.917 274.391 392.524C274.127 391.376 273.971 390.135 273.862 388.962C274.378 388.879 274.355 389.59 274.46 389.957C274.788 391.104 274.974 392.387 274.924 393.584Z" fill="#3F2C22"/>
<path d="M33.0066 357.3C33.2275 357.537 32.8409 358.711 32.4739 358.715C31.4121 358.725 32.3741 356.623 33.0066 357.3Z" fill="#3F2C22"/>
<path d="M290.6 349.828C289.893 349.638 289.8 349.068 289.894 348.405C290.602 348.595 290.694 349.164 290.6 349.828Z" fill="#3F2C22"/>
<path d="M264.843 404.512C264.706 404.674 261.692 406.599 261.277 406.814C256.507 409.29 249.678 411.261 244.369 412.344C230.327 415.206 212.076 417.117 197.775 416.371C190.228 415.978 178.457 414.137 171.503 411.3C170.162 410.752 170.723 409.132 171.719 409.287C172.036 409.336 172.526 409.968 173.03 410.155C184.035 414.237 197.354 415.263 209.569 414.95C221.818 414.635 253.742 411.186 263.144 403.7C263.692 403.264 264.175 402.892 264.248 402.129L264.966 402.332C265.307 403.075 265.419 403.837 264.845 404.514L264.843 404.512Z" fill="#3F2C22"/>
<path d="M189.777 191.161L195.656 186.902C196.642 186.954 195.633 191.047 195.591 191.81C194.066 194.455 185.688 213.916 184.251 214.286C183.543 214.258 183.239 213.772 183.42 213.105C183.586 212.495 186.716 208.32 187.347 207.059C188.737 204.281 193.638 194.096 194.021 191.666C194.121 191.033 194.196 189.948 193.877 189.385C192.526 190.478 190.071 193.464 188.614 194.094C187.885 194.409 186.905 194.546 186.919 193.482C186.925 193.135 189.514 188.277 189.945 187.238C192.711 180.57 194.976 173.748 197.445 166.98C199.1 162.443 201.326 158.12 202.211 153.312L203.67 153.1L189.779 191.162L189.777 191.161Z" fill="#3F2C22"/>
<path d="M214.695 69.1019L214.716 68.072C219.861 68.7142 221.926 72.7181 216.476 75.3454C211.306 77.8392 202.07 76.8093 196.831 74.7228C193.579 73.4279 193.793 69.7512 197.1 68.8031L214.695 69.1001V69.1019ZM217.878 71.1457C217.483 69.9717 215.227 70.9696 214.18 70.9518C209.353 70.8718 204.41 69.7779 199.56 70.1941C197.28 70.3897 194.399 71.7558 197.609 73.234C202.193 75.3436 211.025 75.8666 215.667 73.8281C216.981 73.2518 218.365 72.8871 217.877 71.1457H217.878Z" fill="#3F2C22"/>
<path d="M243.929 246.302C243.407 246.368 243.074 246.313 242.653 245.978C241.526 245.078 238.401 226.869 237.332 223.545C235.317 217.276 230.594 202.648 227.273 197.658C226.902 197.1 224.013 194.681 225.589 194.366C226.883 194.106 228.623 197.288 229.152 198.272C232.671 204.827 237.579 219.365 239.479 226.738C241.141 233.189 241.572 240 243.929 246.304V246.302Z" fill="#3F2C22"/>
<path d="M181.222 292.194C178.621 292.491 176.385 290.627 174.033 289.949C173 289.652 167.826 289.142 167.685 288.452L174.288 269.796C174.678 267.071 175.56 264.721 174.812 261.959L176.191 262.002C177.103 268.22 173.94 273.871 171.952 279.56C171.031 282.194 170.204 284.878 169.463 287.566C171.343 288.018 173.319 288.188 175.157 288.823C176.166 289.172 179.588 290.586 180.404 291.056C180.898 291.34 181.357 291.501 181.22 292.194H181.222Z" fill="#3F2C22"/>
<path d="M170.18 317.808C171.32 318.118 174.131 317.858 174.641 318.877C175.036 319.861 174.603 321.085 174.267 322.069C173.198 325.199 169.713 331.418 169.495 334.388C169.447 335.045 170.381 336.507 169.285 336.315L168.1 335.351C169.217 330.133 171.525 325.142 173.324 320.11C173.133 319.103 168.654 319.534 168.197 318.897C167.488 317.912 170.096 315.772 169.511 314.297C170.618 314.24 171.623 313.55 172.66 313.347C173.222 313.237 173.798 313.522 174.459 313.399C175.12 313.276 178.366 311.654 178.017 313.36C177.587 315.464 169.789 313.772 170.18 317.81V317.808Z" fill="#3F2C22"/>
<path d="M199.036 432.361C196.905 431.923 194.828 432.453 192.813 432.361C191.388 432.295 183.853 430.927 183.087 430.148C182.519 429.568 182.861 427.912 182.318 427.535L176.946 427.026C176.748 425.536 177.128 425.05 178.256 424.242C179.298 423.495 182.651 421.596 182.291 424.177L179.442 425.601L184.349 426.391L184.767 428.981C188.975 430.941 193.715 430.416 198.135 431.309C198.76 431.436 199.145 431.646 199.036 432.362V432.361Z" fill="#3F2C22"/>
<path d="M200.465 98.6649L201.912 98.8214C202.273 99.0687 202.216 99.5169 202.263 99.894C202.745 103.896 202.475 120.666 201.361 124.288C201.199 124.813 201.147 125.353 200.641 125.697L200.465 98.6649Z" fill="#3F2C22"/>
<path d="M189.417 387.184C189.9 389.939 186.39 390.786 184.773 392.328C183.987 393.077 183.344 394.32 182.658 395.19C182.715 396.282 192.594 396.56 193.871 396.431C194.465 397.198 193.465 397.445 192.822 397.518C190.661 397.766 182.209 397.778 180.83 396.28C180.099 395.485 181.744 393.746 182.305 393.064C182.984 392.239 185.535 390.305 185.703 390.028C186.004 389.526 185.25 388.729 185.644 388.231L189.419 387.185L189.417 387.184Z" fill="#3F2C22"/>
<path d="M243.211 396.074C237.902 394.662 246.887 391.887 248.347 390.768C249.908 389.573 245.547 388.457 244.729 388.342C242.939 388.089 241.1 388.48 239.343 387.852L239.3 386.472C242.139 386.99 249.13 386.614 250.204 390.019C251.068 392.755 243.211 393.116 243.211 396.074Z" fill="#3F2C22"/>
<path d="M254.617 328.481C253.694 328.561 253.168 327.54 252.903 326.809C253.56 323.226 253.078 319.61 252.837 316.033C250.624 315.871 247.863 315.74 248.565 312.833C249.582 312.689 249.457 313.847 250.243 314.178C251.182 314.573 252.8 314.457 253.828 314.69C255.105 315.414 254.619 326.474 254.617 328.483V328.481Z" fill="#3F2C22"/>
<path d="M250.995 420.92C250.022 420.907 245.759 423.899 245.356 423.467C244.018 422.031 250.792 418.92 251.054 419.201L250.995 420.92Z" fill="#3F2C22"/>
<path d="M235.023 434.497C233.943 433.143 239.224 430.584 240.006 429.872C239.956 430.283 240.357 430.669 240.293 431.062C240.248 431.336 236.396 434.55 236.095 434.678C235.723 434.838 235.395 434.422 235.021 434.495L235.023 434.497Z" fill="#3F2C22"/>
<path d="M218.616 366.538L217.57 366.548C216.414 365.049 220.301 361.354 221.299 361.568C221.876 361.69 221.737 362.084 221.552 362.518C220.916 364.003 218.614 364.741 218.616 366.536V366.538Z" fill="#3F2C22"/>
<path d="M166.974 250.931L168.396 251.461L167.512 251.994L166.976 251.457L166.974 250.931Z" fill="#3F2C22"/>
<path d="M238.941 218.201H237.875V218.909H238.941V218.201Z" fill="#3F2C22"/>
<path d="M129.919 102.228C127.838 101.885 125.427 102.02 123.43 101.394C122.803 101.198 122.238 101.376 122.438 100.447C124.888 100.335 128.682 101.861 130.863 101.856C131.788 101.854 132.304 100.944 133.293 101.13L135.26 102.585L132.402 103.103C130.46 104.428 123.539 106.831 122.725 108.743C122.555 109.142 122.256 109.112 122.783 109.528C127.79 110.366 133.241 109.88 138.194 110.86C141.168 111.449 143.423 113.028 146.532 113.562C147.314 113.696 148.921 112.884 149.515 114.318C148.095 114.179 146.878 115.259 145.444 115.031C144.348 114.857 140.528 112.486 138.823 112.013C133.334 110.487 126.976 111.556 121.344 110.611C119.589 105.903 128.526 105.656 129.917 102.23L129.919 102.228Z" fill="#3F2C22"/>
<path d="M97.6076 366.801C101.55 369.907 104.983 373.532 108.369 377.217L111.748 382.555C108.917 382.836 108.319 379.494 106.909 377.607C103.635 373.226 99.2057 371.02 96.0701 367.443C95.7334 367.059 95.3877 366.536 95.3877 366.015C95.3966 363.266 103.891 357.035 106.054 354.99C107.675 353.457 109.92 350.337 111.378 349.278C111.866 348.924 112.094 348.604 112.817 348.762C113.286 349.228 111.42 351.374 111.046 351.793C107.59 355.689 101.712 359.124 98.575 363.176C97.7982 364.181 96.5672 365.55 97.6076 366.799V366.801Z" fill="#3F2C22"/>
<path d="M66.8535 313.897C66.8464 314.397 66.9355 314.943 66.7876 315.428C66.3012 317.017 57.9722 319.993 55.984 319.939L46.0034 319.934C45.7789 324.829 47.035 329.753 46.545 334.705C46.4577 335.58 45.4974 339.488 44.5888 339.504C43.511 339.522 45.0378 335.856 45.1197 335.061C45.6418 329.984 44.0971 324.657 44.3982 320.11C44.6868 315.75 45.9108 317.705 48.0932 318.226C54.7333 319.815 61.6637 318.328 66.8535 313.899V313.897Z" fill="#3F2C22"/>
<path d="M50.1706 388.313C50.4752 388.13 51.8239 387.998 51.5282 388.77L47.2167 404.454C47.4893 404.772 47.7636 404.873 48.1645 404.957C52.8234 405.926 62.7345 406.597 67.1671 405.103C67.7782 404.897 68.3038 404.767 67.5751 405.51C66.7965 406.106 65.74 406.727 64.8136 407.022C61.6423 408.032 50.3167 407.131 46.7517 406.364C43.5573 405.677 45.9963 402.78 46.6484 400.624C47.19 398.835 49.4259 388.761 50.1688 388.311L50.1706 388.313Z" fill="#3F2C22"/>
<path d="M58.3036 435.918C55.9074 436.47 54.9275 433.757 53.2403 433.298C52.28 433.037 51.3767 433.56 50.3185 433.419C47.0866 432.987 49.7965 430.788 50.8227 429.52L48.3302 430.226C47.0813 428.821 52.2889 425.215 53.1423 424.182C54.5248 424.232 52.0092 425.849 52.2479 426.311L54.3841 426.318C55.0807 427.38 49.9034 431.5 50.4681 432.005L54.295 432.275L58.3036 435.918Z" fill="#3F2C22"/>
<path d="M109.25 434.141C109.42 434.942 108.867 434.943 108.377 435.223C105.24 437.001 93.9339 440.116 90.5578 439.47C89.3623 439.243 87.9887 437.665 90.4473 437.793C91.9225 437.87 93.207 438.175 94.8194 438.049C99.8079 437.656 104.54 435.618 109.25 434.141Z" fill="#3F2C22"/>
<path d="M112.106 315.674C111.982 314.808 112.81 314.578 113.426 314.327C115.47 313.498 118.178 313.278 120.393 312.389C121.77 311.835 122.514 311.021 123.503 310.512C124.492 310.003 124.986 311.147 124.054 312.131C122.124 314.166 114.829 314.535 112.108 315.674H112.106Z" fill="#3F2C22"/>
<path d="M87.8765 418.129C88.8867 416.747 90.9765 416.428 92.5051 417.069L89.553 417.492L87.8765 418.127V418.129Z" fill="#3F2C22"/>
<path d="M82.8916 418.486V417.96C84.6019 416.357 85.0473 418.614 82.8916 418.486Z" fill="#3F2C22"/>
<path d="M114.957 399.276C114.592 398.907 115.664 397.849 116.022 398.212C116.38 398.575 115.315 399.639 114.957 399.276Z" fill="#3F2C22"/>
<path d="M60.0888 259.465C60.3044 259.695 62.959 257.987 63.5629 257.779C66.524 256.758 74.6605 255.296 75.0685 260C75.2057 261.594 73.7822 265.335 73.0856 266.931C71.32 270.968 66.8144 276.223 65.6296 279.763C64.5838 282.888 69.8039 285.458 72.2999 286.228C74.0477 286.767 74.616 286.251 76.1161 285.437L76.1268 286.326C73.4419 288.808 68.3127 286.392 65.8095 284.524C63.4346 282.753 63.1549 282.002 64.2987 279.503C66.0411 275.698 75.4035 262.925 73.0963 259.104C70.7856 257.357 66.7698 258.279 64.1651 259.092C62.2552 259.687 59.3476 262.861 57.9366 260.356C59.8126 254.033 63.8017 248.618 66.695 242.762C69.4868 237.111 71.7654 231.275 73.8072 225.316C74.094 224.48 73.8945 221.663 75.5816 222.115C75.9023 222.2 76.2658 222.807 75.9771 223.191C73.7074 230.551 70.8034 237.295 67.3987 244.177C66.5186 245.957 59.3387 258.663 60.0888 259.465Z" fill="#3F2C22"/>
<path d="M70.7178 100.339C70.1709 102.546 70.5628 104.796 70.4132 107.022C70.3295 108.274 69.7896 109.699 69.713 110.945C68.8863 124.308 70.5611 137.196 69.6934 150.414C69.3353 155.865 68.4303 158.817 67.3043 164.036C67.1386 164.803 67.3453 165.664 67.1404 166.363C66.8215 167.462 65.4728 167.848 65.512 166.19C65.6046 162.345 67.6677 157.727 68.2646 153.967C69.7237 144.767 67.7354 135.09 67.5555 125.894C67.4201 118.973 68.4534 111.765 68.9915 104.887C69.118 103.267 68.2735 97.3006 70.7178 100.337V100.339Z" fill="#3F2C22"/>
<path d="M49.7216 242.353C49.3261 242.874 48.2019 242.572 48.0255 241.784C47.9169 241.297 49.4437 236.435 49.7412 235.443C54.9881 218.011 60.6945 198.398 64.6782 180.63C64.9169 179.568 64.9348 174.846 66.3155 175.157C67.1849 175.353 66.54 178.425 66.401 179.149C64.7602 187.729 61.8276 197.219 59.5543 205.754C56.6182 216.773 52.5081 228.525 49.9087 239.523C49.7341 240.263 49.8357 242.202 49.7199 242.355L49.7216 242.353Z" fill="#3F2C22"/>
<path d="M95.4465 181.644C95.7102 181.376 96.968 181.043 97.1391 181.203C96.4923 183.274 96.6473 185.598 96.7703 187.797C96.927 190.622 97.3546 194.912 97.9604 197.637C98.3078 199.197 99.0988 202.342 101.059 201.837C101.481 202.187 99.3732 204.971 97.7858 201.369C96.3124 198.027 95.1312 187.404 94.9904 183.498C94.9708 182.964 95.0777 182.021 95.4465 181.644Z" fill="#3F2C22"/>
<path d="M42.6308 269.43L44.0009 269.479C45.052 273.391 43.3435 277.624 43.7158 281.682C43.7711 282.285 44.8258 283.405 43.8708 283.654C43.4468 283.765 42.711 283.724 42.4331 283.318C41.2679 281.621 43.8441 272.098 42.6291 269.43H42.6308Z" fill="#3F2C22"/>
<path d="M93.1679 124.88C93.3068 126.373 91.5252 125.633 91.1689 123.664C90.8821 122.075 90.85 118.678 90.8037 116.88C90.793 116.446 90.7467 115.903 91.2669 115.746C93.5206 115.072 92.1773 121.141 92.2414 122.235C92.2967 123.201 93.118 124.329 93.1696 124.88H93.1679Z" fill="#3F2C22"/>
<path d="M90.0144 87.2826H84.3151L83.9659 86.3932L84.4932 85.8596H90.0144V87.2826Z" fill="#3F2C22"/>
<path d="M433.476 66.2915C433.274 62.7162 439.275 64.5056 440.955 62.0278L411.464 56.0743L388.458 53.0753L387.87 51.7092C389.497 51.816 391.412 51.8658 393.007 52.0917C401.288 53.2692 409.372 54.9999 417.602 56.5065C425.892 58.0238 434.135 59.614 442.482 61.0317C443.186 61.2327 443.209 61.8606 443.032 62.4867C442.402 64.7262 435.411 65.2438 433.474 66.2933L433.476 66.2915Z" fill="#3F2C22"/>
<path d="M158.207 43.3277C158.043 43.4148 158.034 44.2295 157.177 43.8773C156.547 43.6176 156.6 42.6695 156.638 42.1021C157.259 42.095 157.899 42.1804 158.514 42.0167C162.855 40.8658 169.536 38.4787 173.356 36.2019C175.188 35.1098 176.611 33.5427 178.193 32.4932C179.207 31.8208 179.355 33.3008 178.753 34.1208C178.15 34.9408 174.429 37.0593 173.342 37.6107C168.621 40.0049 162.551 41.0206 158.207 43.3259V43.3277Z" fill="#3F2C22"/>
<path d="M397.136 72.6969V71.2756H397.844C397.936 71.9391 397.844 72.5065 397.136 72.6969Z" fill="#3F2C22"/>
<path d="M137.756 67.3641C137.332 68.5291 136.069 67.622 135.085 67.6825C129.903 68.008 120.631 69.157 115.855 67.3498C115.306 67.1417 114.952 66.9656 114.604 66.4711C115.686 65.1317 116.835 66.4622 117.92 66.7112C124.287 68.1734 131.251 66.8767 137.756 67.3641Z" fill="#3F2C22"/>
</g>
</g>
<defs>
<clipPath id="clip0_513_48273">
<rect width="422" height="500.796" fill="white" transform="translate(0 0.286377)"/>
</clipPath>
<clipPath id="clip1_513_48273">
<rect width="487" height="429" fill="white" transform="translate(32 23.2864)"/>
</clipPath>
</defs>
</svg>
