<svg width="736" height="86" viewBox="0 0 736 86" fill="none" xmlns="http://www.w3.org/2000/svg">
<path d="M734.229 44.8284C735.791 43.2663 735.791 40.7337 734.229 39.1716L708.773 13.7157C707.211 12.1536 704.678 12.1536 703.116 13.7157C701.554 15.2778 701.554 17.8105 703.116 19.3726L725.744 42L703.116 64.6274C701.554 66.1895 701.554 68.7222 703.116 70.2843C704.678 71.8464 707.211 71.8464 708.773 70.2843L734.229 44.8284ZM637 46H731.401V38H637V46Z" fill="#3F2C22"/>
<path d="M23.832 67.864C10.512 67.864 3.528 61.6 3.528 50.44V15.52H13.968V50.44C13.968 55.768 16.632 59.512 23.616 59.512C30.24 59.512 33.336 55.624 33.336 50.296V15.52H43.776V50.44C43.776 61.456 37.008 67.864 23.832 67.864ZM51.2803 67V15.52H71.3683C85.1203 15.52 93.9763 26.608 93.9763 41.8C93.9763 50.152 91.1683 57.496 85.7683 62.032C81.9523 65.2 76.9843 67 70.5043 67H51.2803ZM61.7203 58H69.7843C79.5763 58 83.3923 52.024 83.3923 41.8C83.3923 31.576 78.9283 24.448 70.0723 24.448H61.7203V58ZM99.6553 67V15.52H136.519V24.376H110.095V36.76H132.487V45.688H110.095V67H99.6553ZM163.607 68.152C148.415 68.152 138.767 56.776 138.767 41.368C138.767 25.96 148.415 14.512 163.607 14.512C178.799 14.512 188.375 25.96 188.375 41.368C188.375 56.776 178.799 68.152 163.607 68.152ZM163.679 59.584C173.111 59.584 177.719 51.592 177.719 41.368C177.719 31.072 173.111 23.08 163.679 23.08C154.247 23.08 149.423 31.072 149.423 41.368C149.423 51.592 154.247 59.584 163.679 59.584ZM194.085 67V15.52H217.701C227.637 15.52 234.261 21.28 234.261 29.848C234.261 35.896 231.453 40.504 224.829 42.304V42.52C229.581 43.888 232.029 46.624 232.677 52.888C233.397 60.16 233.109 65.704 234.909 66.496V67H224.901C223.605 66.424 223.461 60.664 223.029 55.12C222.597 49.504 219.429 46.336 212.949 46.336H204.525V67H194.085ZM204.525 23.944V38.272H215.613C221.301 38.272 224.109 35.32 224.109 31.216C224.109 27.04 221.445 23.944 215.901 23.944H204.525ZM260.927 68.152C246.959 68.152 239.039 61.96 238.679 51.088H248.903C249.623 57.28 253.151 59.728 260.495 59.728C265.823 59.728 270.503 57.856 270.503 53.104C270.503 48.064 265.607 47.056 257.759 45.256C248.543 43.168 240.119 40.72 240.119 29.992C240.119 19.84 248.399 14.584 259.847 14.584C271.439 14.584 278.927 20.272 279.719 30.64H269.711C269.135 25.456 265.103 22.864 259.775 22.864C254.159 22.864 250.487 25.24 250.487 28.912C250.487 33.088 254.087 34.312 261.719 35.968C272.303 38.272 280.943 40.792 280.943 51.88C280.943 62.32 272.519 68.152 260.927 68.152ZM287.179 67V15.52H297.619V36.04L317.419 15.52H330.379L310.219 36.112L331.675 67H319.435L302.875 42.952L297.619 48.28V67H287.179ZM367.66 67.864C354.34 67.864 347.356 61.6 347.356 50.44V15.52H357.796V50.44C357.796 55.768 360.46 59.512 367.444 59.512C374.068 59.512 377.164 55.624 377.164 50.296V15.52H387.604V50.44C387.604 61.456 380.836 67.864 367.66 67.864ZM395.108 67V15.52H415.196C428.948 15.52 437.804 26.608 437.804 41.8C437.804 50.152 434.996 57.496 429.596 62.032C425.78 65.2 420.812 67 414.332 67H395.108ZM405.548 58H413.612C423.404 58 427.22 52.024 427.22 41.8C427.22 31.576 422.756 24.448 413.9 24.448H405.548V58ZM454.488 67L437.136 15.52H448.08L457.152 45.328C458.16 48.712 459.384 53.536 459.384 53.536H459.528C459.528 53.536 460.752 48.64 461.76 45.328L470.76 15.52H481.344L463.992 67H454.488ZM476.302 67L494.23 15.52H505.03L523.174 67H512.302L508.846 56.056H490.27L486.886 67H476.302ZM497.326 33.232L492.718 48.064H506.326L501.718 33.232C500.854 30.496 499.63 25.312 499.63 25.312H499.486C499.486 25.312 498.19 30.496 497.326 33.232ZM527.507 67V15.52H537.947V58.288H562.139V67H527.507ZM603.274 67L602.914 60.088H602.77C599.242 65.992 594.418 68.08 588.298 68.08C580.522 68.08 574.474 65.272 570.226 60.592C565.978 55.84 563.53 49.216 563.53 41.44C563.53 32.872 566.554 25.384 571.954 20.416C576.13 16.6 581.602 14.512 588.514 14.512C601.474 14.512 608.89 21.64 610.546 31.72H600.322C599.17 26.752 595.354 23.152 588.73 23.152C579.01 23.152 574.186 31.216 574.186 41.44C574.186 51.952 579.73 59.656 588.586 59.656C596.578 59.656 601.834 53.68 601.834 47.992V47.704H589.45V39.64H611.122V67H603.274Z" fill="#3F2C22"/>
</svg>
