<svg width="38" height="42" viewBox="0 0 38 42" fill="none" xmlns="http://www.w3.org/2000/svg">
<rect width="38" height="42" fill="#3F2C22"/>
<path d="M34.1485 11.3936C34.0661 11.4633 34.1341 12.7671 34.1621 12.9544C34.2148 13.3001 34.5673 13.6192 34.4698 14.0559C34.7863 14.135 35.2747 14.0668 35.1988 14.4996L34.5593 14.422C34.5769 15.1518 35.5464 14.4996 35.9365 14.8908C36.0892 15.3368 35.0301 15.2059 34.7575 15.3141C35.0933 16.4853 34.9294 17.7765 35.1868 18.9391C36.1659 18.8003 38.6829 19.4063 37.8244 20.8096C37.0987 21.9957 34.5753 22.3689 33.3076 22.1266C32.86 22.0412 31.6515 21.5457 31.574 21.0542C31.4237 20.1001 33.1142 18.4099 34.1868 18.9963L33.8583 16.0463C33.6993 16.0087 33.6769 16.1137 33.5866 16.1843C32.8872 16.7299 32.6722 17.2058 32.3828 17.9497C31.8249 19.3828 28.6997 21.2251 27.2018 21.5842C26.9445 21.6461 26.329 21.8954 26.281 21.5097C26.2275 21.0738 26.7246 21.229 27.0148 21.1436C27.6119 20.9687 28.4615 20.6748 28.9938 20.3761C29.4782 20.104 31.502 18.5001 31.6539 18.0603C31.6907 17.9529 31.586 17.7961 31.6019 17.6589C31.6211 17.4927 32.94 16.0612 33.1781 15.7978C33.31 15.652 33.6337 15.5038 33.7057 15.3298C33.8359 15.0131 33.7129 14.5059 33.5514 14.2134C33.2812 13.9485 30.805 14.001 30.3015 14.0441C28.0131 14.2409 26.1819 15.8786 23.864 16.051C23.7273 15.4819 23.2101 15.4513 22.7961 15.2067C20.1105 13.6169 17.699 12.0999 14.3764 12.3563C12.4972 12.5013 10.4926 13.4757 8.61185 13.8552C6.5169 14.2785 4.91352 14.2307 2.82896 13.8873C2.40614 13.8175 1.92736 13.6004 1.47736 13.5745C1.90338 14.0449 2.68269 14.2605 3.29655 14.4149C4.34922 14.6807 5.35873 15.2443 6.46655 15.5712C10.4159 16.7354 14.4547 16.3372 17.6143 19.1978C18.0963 19.6345 18.675 20.2695 18.7821 20.9335C18.8748 21.5105 18.5966 21.3098 18.4536 21.447C18.428 21.472 18.2953 21.9205 18.1674 22.1015C17.5248 23.0125 15.0661 24.6345 13.9607 24.8101C11.857 25.1433 9.19693 24.6706 7.15234 24.0897C5.52178 23.6256 3.82169 22.9145 2.36618 22.0694C2.16156 22.3383 3.63866 23.6459 3.90482 23.8341C5.03822 24.6345 6.45536 25.0398 7.5488 25.8747C7.31141 26.2149 6.83742 26.0668 6.48653 26.2761L3.82009 26.6116C5.71362 27.3234 7.75341 27.8824 9.76443 28.185C10.9266 28.3598 11.885 28.2948 13.0295 28.3316C13.4076 28.3441 13.8296 28.5072 14.2205 28.4955C15.7008 28.4508 18.5663 27.4246 19.9307 26.7613C20.8618 26.3082 21.7027 25.5517 22.6091 25.1597C22.8928 25.0367 23.1222 24.9543 23.4164 25.1135L23.4236 25.5353L23.0759 25.732L23.4419 25.8606C23.2373 26.1655 22.9823 25.801 22.8193 26.0566C22.3213 26.8374 22.3029 28.7267 22.3221 29.6463C22.3725 32.0726 23.0847 34.1658 23.0079 36.7113C22.9919 37.2365 22.7258 37.6771 22.9416 38.2251L22.1639 40.62C22.482 40.2265 22.6642 39.7028 22.9216 39.2701C24.6257 36.4016 27.0572 34.7976 28.6821 31.6955C29.5933 29.9552 30.2487 28.174 30.1216 26.1859C30.1009 25.8598 29.8723 23.9736 29.7148 23.8599C29.6612 23.8215 29.22 24.0348 29.1609 23.7863C29.1097 23.5722 29.5174 23.4178 29.7028 23.4641C29.762 23.406 29.531 22.6926 29.4726 22.5578C29.3735 22.325 28.6605 21.4619 29.2552 21.4054C29.658 21.3678 29.9226 22.0788 30.0065 22.3799C30.0817 22.648 30.1424 23.6036 30.2551 23.6812C30.3175 23.7243 30.4477 23.7173 30.5301 23.7196C30.4461 23.8897 30.3518 24.0042 30.3534 24.2119C30.3574 24.9402 30.6588 26.0103 30.6819 26.8029C30.7467 29.056 28.87 32.9052 27.484 34.6965C26.098 36.4878 24.4522 37.5783 23.2573 39.6746C22.9576 40.2006 22.8385 41.2621 22.0831 41.1586L22.1223 40.8003C21.8545 41.0096 21.8082 41.7905 21.55 41.9308C21.2878 42.0735 21.1088 41.9943 21.1336 41.705C21.4373 40.9407 21.8865 40.1622 22.0959 39.3681C22.494 37.8574 22.5995 35.4977 22.4045 33.9431C22.0975 31.4909 21.4261 29.4409 22.0272 26.8954C22.0991 26.592 22.2094 26.2925 22.3509 26.015C21.9457 25.9946 21.6875 26.3694 21.3862 26.5528C19.9578 27.4214 17.2266 28.5229 15.5745 28.7988C13.9631 29.0677 10.8715 28.8318 9.22651 28.5495C7.16034 28.1952 4.53945 27.5524 2.65872 26.6516C1.9929 26.3325 2.16556 25.5274 3.00482 25.9123C3.11512 25.9625 3.11352 26.0911 3.17186 26.1264C3.41645 26.2753 3.6994 26.0856 3.94878 26.0723C4.77045 26.0284 5.58733 26.048 6.36105 25.7156C5.08138 25.0171 3.73297 24.4848 2.70987 23.4068C2.14957 22.8165 1.75152 22.3744 1.89939 21.494C2.01768 20.7939 2.69468 21.7503 2.91769 21.9173C5.05659 23.5205 12.1271 25.1974 14.6193 24.1986C14.8863 24.092 16.349 23.1395 16.624 22.927C16.823 22.7734 17.7925 21.8162 17.8757 21.6469C18.0323 21.327 17.9092 20.997 18.1258 20.6834C16.8734 18.8011 15.0701 17.847 12.8593 17.3728C10.2936 16.8216 7.74302 16.6296 5.23804 15.7249C4.68732 15.5258 4.07507 15.133 3.56512 14.9629C3.00322 14.7755 2.347 14.7489 1.74673 14.5309C1.48696 14.4369 0.0586151 13.598 0.0122561 13.4593C-0.0964478 13.1363 0.549379 13.1629 0.709238 12.8776L2.9017 13.4475C4.84159 13.7736 6.68236 13.7227 8.62144 13.3323C10.7779 12.898 13.5291 11.5065 15.7352 11.8012C17.8653 12.0858 19.5822 12.8454 21.4597 13.8269C22.1799 14.204 22.9328 14.5984 23.6426 14.9833C23.8144 15.0766 23.9471 15.3094 24.075 15.3643C24.923 15.7257 27.7294 14.168 28.7061 13.852C30.2423 13.355 31.9464 13.5157 33.541 13.6294L33.055 11.5245C32.4052 11.3332 31.8977 11.3214 31.2726 10.9655C29.8643 10.1643 29.1705 9.0472 28.9539 7.48401C28.7029 5.6723 29.0834 3.93584 29.304 2.18606C29.3623 1.72667 29.4079 1.26571 29.3775 0.803183L29.9746 0.948202C30.1848 0.768678 30.3047 0.611898 30.5589 0.469219C31.7754 -0.214386 34.8918 -0.242604 35.775 1.00231C36.0612 1.40526 35.803 1.40056 35.8094 1.61066C35.8254 2.15158 36.2362 3.19814 36.3497 3.79473C36.8085 6.20068 37.9275 11.2768 34.1509 11.3904L34.1485 11.3936ZM30.4805 1.32372C31.3917 1.49619 32.1502 1.69218 33.0934 1.64044C33.4851 1.61849 34.6576 1.50481 34.9845 1.40525C35.7375 1.17712 34.4234 0.643257 34.1397 0.567998C33.2045 0.321837 31.0512 0.404927 30.4805 1.32293V1.32372ZM35.421 1.77449C34.6952 2.10296 33.9614 2.05124 33.1901 2.08338C33.0127 2.09122 32.8376 2.18607 32.6434 2.1892C31.8809 2.20096 30.9449 1.88582 30.2144 1.68827C30.1025 2.53572 30.8114 2.00184 30.9585 2.48083L29.6796 2.41421C29.5414 2.69721 29.8667 3.30555 29.8523 3.44352C29.8411 3.54622 29.6405 3.62461 29.6349 3.7132C29.6309 3.77748 29.7859 3.92409 29.7995 4.07382C29.8435 4.55909 29.5997 5.44495 29.6525 6.04702C29.6764 6.31827 29.7603 6.50328 29.8475 6.75022L29.4926 7.07557C29.7228 7.03873 30.4445 6.64204 30.5109 6.50014C30.6244 6.25869 30.6036 5.34931 30.6652 4.97458C30.7123 4.68922 30.8338 4.05344 30.9121 3.80022C30.9625 3.63638 31.1463 3.54073 31.299 3.48351C31.9089 3.86372 31.4852 3.93741 31.3789 4.24079C31.3094 4.4407 31.0448 6.42725 31.1263 6.50878C31.3653 6.54327 31.482 6.3222 31.7122 6.31279C32.0631 6.29946 32.673 6.64127 33.135 6.4735L33.1701 5.84634L34.1964 4.66257L32.8792 5.20584C32.6866 5.17605 32.7122 4.75586 32.7825 4.59907C32.8936 4.34899 34.656 2.82499 34.8471 2.8587C35.5552 2.98335 33.8655 4.09186 33.8232 4.17731C33.7952 4.4611 34.2676 4.2165 34.421 4.20709C34.8151 4.18279 34.9294 4.38663 34.8399 4.76684C34.8103 4.89463 33.513 5.68798 33.768 6.19284L34.3499 6.19441L34.5098 6.6248C35.1588 6.52916 35.6727 6.85449 36.2498 7.0442C36.3242 5.2372 35.6512 3.53838 35.4218 1.7737L35.421 1.77449ZM33.78 6.91093C33.1494 6.92269 32.5395 6.79883 31.9025 6.84978C31.1288 6.9125 30.8682 6.94935 31.1423 7.79523C32.6754 8.06883 34.509 8.49294 35.9469 7.77014C36.2602 7.2692 34.6249 6.93994 34.3323 7.12495C34.0398 7.30996 33.9766 8.0555 33.4275 7.77014C33.1789 7.64079 33.8775 7.13201 33.7792 6.91093H33.78ZM30.5876 7.1469C30.5205 7.0834 29.9378 7.45892 30.0489 7.60317L30.598 7.68313L30.5884 7.1469H30.5876ZM30.5892 8.1488C30.1792 8.16839 29.8579 7.95751 29.5046 7.79288C29.5941 9.1742 31.2295 10.8495 32.6234 10.9616C33.0822 10.9985 34.0957 10.9922 34.5425 10.931C35.7143 10.7711 36.3369 9.34667 36.2722 8.30009C35.2883 8.64503 34.1732 8.68267 33.1246 8.6278C32.5323 8.59644 31.8337 8.42317 31.2494 8.30009C31.2678 8.66306 31.4373 9.00723 31.7218 9.23379C31.1671 10.1487 30.7275 8.22797 30.5892 8.1488ZM34.4866 15.4983C34.2516 15.467 34.2947 15.5375 34.3083 15.7233C34.3291 16.0063 34.3811 16.686 34.6017 16.8397L34.4858 15.4983H34.4866ZM34.015 19.6274C33.7257 19.8438 33.6417 19.4628 33.4219 19.4604C32.9727 19.4557 31.996 20.5768 32.1391 21.0299C32.3581 21.7237 34.505 21.7323 35.102 21.668C35.779 21.5943 38.2209 20.7461 37.2537 19.8469C36.7702 19.3969 35.4649 19.277 34.887 19.6133L34.6504 19.3491C34.5066 19.7999 34.7759 21.1843 33.9503 20.4647L34.015 19.6282V19.6274Z" fill="#FFFFF5"/>
<path d="M29.9914 15.6784C29.7892 15.5484 28.6334 16.0971 28.5876 16.1964C28.5052 16.3725 28.6916 16.8137 28.4395 17C27.4509 16.2046 28.3363 15.528 29.0769 15.228C29.6028 15.0151 30.073 14.6855 29.9906 15.6795L29.9914 15.6784Z" fill="#FFFFF5"/>
<path d="M29.9166 16.4862C29.8445 16.5671 29.6186 16.6259 29.4974 16.7099C29.3495 16.8128 29.3957 17.0812 29.0407 16.976C28.7932 16.487 29.7471 15.6574 29.9794 16.1519C30.0277 16.2547 29.9844 16.4101 29.9173 16.4862H29.9166Z" fill="#FFFFF5"/>
<path d="M34 20C33.9144 20.4355 33.859 22.1789 33.2434 21.985C32.7172 21.4685 33.2207 20.6639 33.1377 20.0173L34 20Z" fill="#FFFFF5"/>
<path d="M34.9984 20.0136C35.0331 20.5845 34.5084 21.3938 34 20.7812C34.1175 20.5405 34.3835 20.5089 34.5424 20.3762C34.7013 20.2435 34.6791 19.9334 34.9976 20.0128L34.9984 20.0136Z" fill="#FFFFF5"/>
</svg>
