<?xml version="1.0" encoding="UTF-8"?>
<svg id="Layer_1" data-name="Layer 1" xmlns="http://www.w3.org/2000/svg" viewBox="0 0 32 32">
  <path d="M29.33,20.81c-.11,0-.22.13-.39.14-.36.02-.74-.27-1.01-.31-2.17-.29-4.05.07-6.17.64-.68.18-1.3.21-1.93.72-.03.03-.1-.1-.19-.07-.45.14-1.07.29-1.47.49-.09.04-.4.14-.28.28.37-.21.81-.26,1.22-.31.08,0,1.24-.09.85.11-.73.36-2.08.43-2.93.75-.41.16-.8.36-1.14.63l-.03-.2c-.58.32-1.22.59-1.79.92-2.32,1.34-4.44,3.4-5.51,5.89-.25.58-.27,1.23-.64,1.72-.21-.25-.26-.57-.3-.88-.33-2.18-.34-4.82-.48-7.04-.16-2.6-.38-5.18-.55-7.78-.33-4.92-.77-9.55-.99-14.48-.01-.32.09-1.92.3-2.06l1.39,1.52c4.64,4.81,9.81,9.16,14.94,13.47,1.91,1.6,4.95,4.42,7.03,5.47.16.08.58.4.31.51-.07-.03-.15-.11-.21-.1ZM7.97,31.47c.41-1.65,1.37-3.12,2.48-4.39,1.2-1.37,2.23-2.12,3.83-2.99,1.09-.59,1.89-.9,2.94-1.6.6-.4,1.36-.53,2-.77,2.17-.8,4.93-1.69,7.27-1.61.57.02.61.17,1.2-.07-2.19-1.7-3.92-3.16-6.04-4.95-3.8-3.22-7.8-6.63-11.48-10.05-1.37-1.27-2.45-2.58-3.75-3.94.06,2.08-.09,4.06,0,6.18.25,6.42.87,12.82,1.15,19.23l.41,4.96Z" style="fill: #432c21;"/>
  <path d="M27.26,21.21c-.12-.13-.19-.26-.06-.41.12.13.19.26.06.41Z" style="fill: #432c21;"/>
  <path d="M7.97,31.47l-.41-4.96c-.29-6.41-.9-12.8-1.15-19.23-.08-2.11-.2-4.27-.08-6.37,1.3,1.36,2.53,2.77,3.92,4.05,3.66,3.36,7.69,6.76,11.49,9.98,2.12,1.79,4.31,3.54,6.5,5.24-.59.24-1.19-.04-1.75-.06-2.34-.08-5.1.81-7.27,1.61-.64.24-1.41.37-2,.77-1.05.7-1.85,1.01-2.94,1.6-1.6.87-2.63,1.62-3.83,2.99-1.11,1.27-2.07,2.74-2.48,4.39ZM17.82,13.57c.7.66,1.59,1.16,2.32,1.74.68.53,1.3,1.14,1.97,1.68.29.24.76.42,1.02.66.19.18.59.92.81.68.17-.59-.15-.33-.21-.38-1.66-1.46-3.37-2.85-5.18-4.16-.4-.29-.96-.47-1.32-.82-.76-.75-1.48-1.91-2.18-2.72-.18-.21-.44-.31-.6-.54l-.12.25c.67.58,1.08,1.36,1.62,2.04.6.77,1.89,2.07,2.23,2.91.17.42-.26,1.64-.32,2.2-.05.46-.08,1.18-.07,1.65,0,.15-.05.32.06.44.34-1.16.14-2.43.56-3.56.2.06.21,1.86.27,2.14.09.45.35.55.33.12-.02-.3-.34-2.1-.25-2.17.6.26.89.96,1.28,1.42.14.17,1.08,1.17,1.16,1.16.27-.01.22-.38.07-.54-.04-.04-.16.05-.22,0-.83-.65-2.48-2.97-3.1-3.92-.06-.09-.26-.24-.11-.32ZM17.69,19.67c-.56-1.2-.45-2.59-.62-3.87-.03-.25-.17-1.53-.36-1.56-.25.12-.24.41-.28.65-.19,1.21-.2,2.43-.21,3.66l-1.17-5.69-.28.08-.22,2.42c-.34-.7-1-6-1.43-6.07-.11.07-.22.13-.28.25-.03.07-.11,1.26-.12,1.44-.02.41.12.89,0,1.3-.31-.53-.59-1.19-.81-1.77-.47-1.24-1.1-2.87-1.46-4.12-.07-.23.08-.27.08-.28,0-.18-.48-.28-.34.24s.46,1.12.64,1.64c.6,1.73,1.05,3.54,2.01,5.11l.33-.34c-.41-.24-.17-.26-.19-.41-.04-.34-.12-.66-.11-1.01.02-.42.26-.98.13-1.41.12-.11.2.12.23.21.43,1.27.49,2.97.78,4.33.07.32.5,2.31.65,2.34.28-.26.04-.78.05-1.16,0-.7.09-1.41.22-2.09.05-.05.1.04.12.09.26.55.3,2.33.44,3.07.12.68.38,2.13.75,2.66.08.12.07.14.2.03.24-.23,0-.62-.01-.93-.06-1.14.12-2.28.24-3.42.05-.05.1.04.11.09.24.75.1,2.38.27,3.31.12.7.32,1.48.69,2.08.23.05.33-1.1.04-1.16l-.08.28ZM7.53,5.52l-.24-1.3-.33.14c.06.45-.43.9.34.7l.23.46ZM7.75,9.35c.36-.16-.01-.59-.23-.78-.16.08.07.17.06.28,0,.05-.16.09-.18.21-.05.4.27,2.09.3,2.7.06,1.18-.08,2.61.06,3.74.03.21.01.42.17.59.19-.08.11-.2.12-.34.03-2.09-.24-4.3-.3-6.4ZM11.46,24.83c-.88-.61-1.86.68-2.18,1.41l-.38-3.69-.38-.07c-.18.31.12.51.19.77.33,1.23.09,2.57.25,3.77.02.14-.02.27.12.39.41-.19.22-.71.28-.92.24-.81,1.28-1.54,2.1-1.66ZM8.37,23.49c-.24.08-.2.63.08.51.23-.1-.04-.4-.08-.51Z" style="fill: #fffef5;"/>
  <path d="M17.69,19.67l.08-.28c.29.05.19,1.21-.04,1.16-.37-.6-.57-1.38-.69-2.08-.16-.93-.03-2.56-.27-3.31-.02-.05-.07-.14-.11-.09-.12,1.13-.3,2.27-.24,3.42.02.31.25.7.01.93-.12.11-.12.09-.2-.03-.37-.53-.63-1.98-.75-2.66-.13-.74-.18-2.52-.44-3.07-.02-.05-.07-.14-.12-.09-.13.68-.22,1.39-.22,2.09,0,.37.24.9-.05,1.16-.14-.03-.58-2.02-.65-2.34-.28-1.36-.34-3.05-.78-4.33-.03-.08-.12-.32-.23-.21.13.43-.11.98-.13,1.41-.01.34.06.67.11,1.01.02.16-.22.17.19.41l-.33.34c-.96-1.57-1.41-3.38-2.01-5.11-.18-.52-.49-1.13-.64-1.64s.33-.42.34-.24c0,.02-.15.05-.08.28.36,1.25,1,2.87,1.46,4.12.22.58.49,1.24.81,1.77.11-.41-.02-.89,0-1.3,0-.18.09-1.38.12-1.44.06-.12.17-.18.28-.25.43.07,1.09,5.37,1.43,6.07l.22-2.42.28-.08,1.17,5.69c0-1.22.02-2.44.21-3.66.04-.24.03-.53.28-.65.19.03.33,1.31.36,1.56.17,1.28.05,2.67.62,3.87Z" style="fill: #432c21;"/>
  <path d="M17.82,13.57c-.14.07.05.22.11.32.61.95,2.26,3.27,3.1,3.92.07.05.18-.05.22,0,.15.16.2.53-.07.54-.08,0-1.02-1-1.16-1.16-.39-.46-.68-1.16-1.28-1.42-.09.07.24,1.87.25,2.17.02.43-.24.32-.33-.12-.06-.28-.07-2.09-.27-2.14-.41,1.13-.22,2.4-.56,3.56-.12-.12-.06-.29-.06-.44,0-.47.01-1.19.07-1.65.06-.56.49-1.79.32-2.2-.33-.84-1.63-2.14-2.23-2.91-.53-.69-.95-1.47-1.62-2.04l.12-.25c.17.23.42.32.6.54.71.81,1.42,1.97,2.18,2.72.36.35.92.53,1.32.82,1.82,1.31,3.52,2.7,5.18,4.16.06.05.38-.21.21.38-.22.24-.62-.51-.81-.68-.26-.24-.73-.43-1.02-.66-.67-.54-1.29-1.15-1.97-1.68-.74-.57-1.62-1.08-2.32-1.74Z" style="fill: #432c21;"/>
  <path d="M11.46,24.83c-.82.11-1.86.85-2.1,1.66-.06.21.13.73-.28.92-.13-.12-.1-.24-.12-.39-.16-1.2.08-2.54-.25-3.77-.07-.26-.37-.46-.19-.77l.38.07.38,3.69c.32-.74,1.3-2.02,2.18-1.41Z" style="fill: #432c21;"/>
  <path d="M7.75,9.35c.06,2.1.33,4.31.3,6.4,0,.14.07.27-.12.34-.15-.17-.14-.39-.17-.59-.14-1.13,0-2.56-.06-3.74-.03-.61-.35-2.3-.3-2.7.01-.12.17-.16.18-.21.01-.11-.22-.2-.06-.28.22.19.6.61.23.78Z" style="fill: #432c21;"/>
  <path d="M7.53,5.52l-.23-.46c-.77.2-.28-.25-.34-.7l.33-.14.24,1.3Z" style="fill: #432c21;"/>
  <path d="M8.37,23.49c.04.11.3.41.08.51-.28.12-.32-.43-.08-.51Z" style="fill: #432c21;"/>
</svg>